<?xml version="1.0" encoding="utf-8"?>
<!-- Generator: Adobe Illustrator 16.0.0, SVG Export Plug-In . SVG Version: 6.00 Build 0)  -->
<!DOCTYPE svg PUBLIC "-//W3C//DTD SVG 1.1//EN" "http://www.w3.org/Graphics/SVG/1.1/DTD/svg11.dtd">
<svg version="1.1" xmlns="http://www.w3.org/2000/svg" xmlns:xlink="http://www.w3.org/1999/xlink" x="0px" y="0px"
	 width="841.89px" height="595.28px" viewBox="0 0 841.89 595.28" enable-background="new 0 0 841.89 595.28" xml:space="preserve">
<g id="Layer_1">
</g>
<g id="Layer_2">
</g>
<g id="Layer_3">
</g>
<g id="Layer_4">
</g>
<g id="Layer_5">
</g>
<g id="Layer_6">
</g>
<g id="Layer_7">
</g>
<g id="Layer_8">
</g>
<g id="Layer_9">
</g>
<g id="Layer_10">
</g>
<g id="Layer_11">
</g>
<g id="Layer_12">
</g>
<g id="Layer_13">
</g>
<g id="Layer_14">
</g>
<g id="Layer_15">
</g>
<g id="Layer_16">
</g>
<g id="Layer_17">
</g>
<g id="Layer_18">
</g>
<g id="Layer_19">
</g>
<g id="Layer_20">
</g>
<g id="Layer_21">
</g>
<g id="Layer_22">
</g>
<g id="Layer_24">
</g>
<g id="Layer_25">
</g>
<g id="Layer_26">
</g>
<g id="Layer_27">
</g>
<g id="Layer_28">
</g>
<g id="Layer_29">
</g>
<g id="Layer_30">
</g>
<g id="Layer_31">
</g>
<g id="Layer_32">
	<line fill="none" stroke="#000000" stroke-miterlimit="10" x1="420.947" y1="466.903" x2="420.946" y2="186.519"/>
	<path fill="none" stroke="#000000" stroke-miterlimit="10" d="M420.947,266.108"/>
	<line fill="none" stroke="#000000" stroke-miterlimit="10" x1="360.699" y1="326.712" x2="420.947" y2="466.903"/>
	<line fill="none" stroke="#000000" stroke-miterlimit="10" x1="420.946" y1="186.519" x2="360.699" y2="326.712"/>
	<line fill="none" stroke="#000000" stroke-miterlimit="10" x1="455.302" y1="266.464" x2="420.946" y2="186.519"/>
	<line fill="none" stroke="#000000" stroke-miterlimit="10" x1="420.945" y1="311.698" x2="455.302" y2="266.464"/>
	<line fill="none" stroke="#000000" stroke-miterlimit="10" x1="420.945" y1="311.698" x2="450.629" y2="296.147"/>
	<g>
		<g>
			<g>
				<g>
					<g>
						<g>
							
								<rect x="360.698" y="321.472" transform="matrix(-1 -0.002 0.002 -1 730.7997 654.1875)" fill="none" width="10.07" height="10.499"/>
						</g>
						<rect x="368.154" y="326.357" fill-rule="evenodd" clip-rule="evenodd" width="1.869" height="1.05"/>
						<rect x="364.802" y="326.351" fill-rule="evenodd" clip-rule="evenodd" width="1.869" height="1.05"/>
						<rect x="361.46" y="326.343" fill-rule="evenodd" clip-rule="evenodd" width="1.869" height="1.051"/>
					</g>
				</g>
				<g>
					<g>
						<g>
							
								<rect x="370.768" y="321.492" transform="matrix(-1 -0.0019 0.0019 -1 750.9709 654.2117)" fill="none" width="10.07" height="10.499"/>
						</g>
						<rect x="378.224" y="326.377" fill-rule="evenodd" clip-rule="evenodd" width="1.869" height="1.05"/>
						<rect x="374.872" y="326.37" fill-rule="evenodd" clip-rule="evenodd" width="1.869" height="1.05"/>
						<rect x="371.53" y="326.364" fill-rule="evenodd" clip-rule="evenodd" width="1.869" height="1.05"/>
					</g>
				</g>
				<g>
					<g>
						<g>
							
								<rect x="380.837" y="321.511" transform="matrix(-1 -0.002 0.002 -1 771.0789 654.3076)" fill="none" width="10.07" height="10.5"/>
						</g>
						<rect x="388.294" y="326.396" fill-rule="evenodd" clip-rule="evenodd" width="1.869" height="1.051"/>
						<rect x="384.942" y="326.391" fill-rule="evenodd" clip-rule="evenodd" width="1.869" height="1.05"/>
						<rect x="381.601" y="326.384" fill-rule="evenodd" clip-rule="evenodd" width="1.869" height="1.05"/>
					</g>
				</g>
				<g>
					<g>
						<g>
							
								<rect x="390.908" y="321.532" transform="matrix(-1 -0.0019 0.0019 -1 791.2511 654.3309)" fill="none" width="10.07" height="10.499"/>
						</g>
						<rect x="398.364" y="326.417" fill-rule="evenodd" clip-rule="evenodd" width="1.869" height="1.05"/>
						<rect x="395.012" y="326.41" fill-rule="evenodd" clip-rule="evenodd" width="1.869" height="1.05"/>
						<rect x="391.67" y="326.403" fill-rule="evenodd" clip-rule="evenodd" width="1.869" height="1.05"/>
					</g>
				</g>
				<g>
					<g>
						<g>
							
								<rect x="400.978" y="321.552" transform="matrix(-1 -0.0019 0.0019 -1 811.3907 654.3895)" fill="none" width="10.07" height="10.499"/>
						</g>
						<rect x="408.434" y="326.437" fill-rule="evenodd" clip-rule="evenodd" width="1.869" height="1.05"/>
						<rect x="405.082" y="326.429" fill-rule="evenodd" clip-rule="evenodd" width="1.869" height="1.051"/>
						<rect x="401.74" y="326.424" fill-rule="evenodd" clip-rule="evenodd" width="1.869" height="1.05"/>
					</g>
				</g>
				<g>
					<g>
						<g>
							
								<rect x="411.047" y="321.572" transform="matrix(-1 -0.0019 0.0019 -1 831.5304 654.449)" fill="none" width="10.07" height="10.498"/>
						</g>
						<rect x="418.504" y="326.457" fill-rule="evenodd" clip-rule="evenodd" width="1.869" height="1.05"/>
						<rect x="415.152" y="326.45" fill-rule="evenodd" clip-rule="evenodd" width="1.869" height="1.05"/>
						<rect x="411.811" y="326.443" fill-rule="evenodd" clip-rule="evenodd" width="1.869" height="1.05"/>
					</g>
				</g>
			</g>
		</g>
	</g>
	<line fill="none" stroke="#000000" stroke-miterlimit="10" x1="455.302" y1="266.464" x2="420.947" y2="466.903"/>
</g>
<g id="Layer_33">
</g>
<g id="Layer_34">
</g>
<g id="Layer_35">
</g>
<g id="Layer_36">
</g>
<g id="Layer_37">
</g>
<g id="Layer_38">
</g>
<g id="Layer_39">
</g>
<g id="Layer_40">
</g>
<g id="Layer_41">
</g>
<g id="Layer_43">
</g>
</svg>
