<?xml version="1.0" encoding="utf-8"?>
<!-- Generator: Adobe Illustrator 16.0.0, SVG Export Plug-In . SVG Version: 6.00 Build 0)  -->
<!DOCTYPE svg PUBLIC "-//W3C//DTD SVG 1.1//EN" "http://www.w3.org/Graphics/SVG/1.1/DTD/svg11.dtd">
<svg version="1.1" xmlns="http://www.w3.org/2000/svg" xmlns:xlink="http://www.w3.org/1999/xlink" x="0px" y="0px"
	 width="841.89px" height="595.28px" viewBox="0 0 841.89 595.28" enable-background="new 0 0 841.89 595.28" xml:space="preserve">
<g id="Layer_1">
</g>
<g id="Layer_2">
</g>
<g id="Layer_3">
</g>
<g id="Layer_4">
</g>
<g id="Layer_5">
</g>
<g id="Layer_6">
</g>
<g id="Layer_7">
</g>
<g id="Layer_8">
</g>
<g id="Layer_9">
</g>
<g id="Layer_10">
</g>
<g id="Layer_11">
</g>
<g id="Layer_12">
</g>
<g id="Layer_13">
</g>
<g id="Layer_14">
</g>
<g id="Layer_15">
</g>
<g id="Layer_16">
</g>
<g id="Layer_17">
</g>
<g id="Layer_18">
</g>
<g id="Layer_19">
</g>
<g id="Layer_20">
</g>
<g id="Layer_21">
</g>
<g id="Layer_22">
	<g>
		<g>
			<g>
				<g>
					<g>
						<g>
							<g>
								<rect x="415.696" y="447.704" fill="none" width="10.499" height="9.347"/>
							</g>
							<rect x="420.574" y="448.395" fill-rule="evenodd" clip-rule="evenodd" width="1.05" height="1.734"/>
							<rect x="420.574" y="451.506" fill-rule="evenodd" clip-rule="evenodd" width="1.05" height="1.734"/>
							<rect x="420.574" y="454.606" fill-rule="evenodd" clip-rule="evenodd" width="1.05" height="1.735"/>
						</g>
					</g>
					<g>
						<g>
							<g>
								<rect x="415.696" y="438.357" fill="none" width="10.499" height="9.346"/>
							</g>
							<rect x="420.574" y="439.048" fill-rule="evenodd" clip-rule="evenodd" width="1.05" height="1.735"/>
							<rect x="420.574" y="442.159" fill-rule="evenodd" clip-rule="evenodd" width="1.05" height="1.735"/>
							<rect x="420.574" y="445.261" fill-rule="evenodd" clip-rule="evenodd" width="1.05" height="1.734"/>
						</g>
					</g>
					<g>
						<g>
							<g>
								<rect x="415.696" y="429.012" fill="none" width="10.499" height="9.346"/>
							</g>
							<rect x="420.574" y="429.702" fill-rule="evenodd" clip-rule="evenodd" width="1.05" height="1.734"/>
							<rect x="420.574" y="432.813" fill-rule="evenodd" clip-rule="evenodd" width="1.05" height="1.734"/>
							<rect x="420.574" y="435.914" fill-rule="evenodd" clip-rule="evenodd" width="1.05" height="1.735"/>
						</g>
					</g>
					<g>
						<g>
							<g>
								<rect x="415.696" y="419.665" fill="none" width="10.499" height="9.347"/>
							</g>
							<rect x="420.574" y="420.355" fill-rule="evenodd" clip-rule="evenodd" width="1.05" height="1.735"/>
							<rect x="420.574" y="423.467" fill-rule="evenodd" clip-rule="evenodd" width="1.05" height="1.735"/>
							<rect x="420.574" y="426.568" fill-rule="evenodd" clip-rule="evenodd" width="1.05" height="1.734"/>
						</g>
					</g>
					<g>
						<g>
							<g>
								<rect x="415.696" y="410.319" fill="none" width="10.499" height="9.346"/>
							</g>
							<rect x="420.574" y="411.01" fill-rule="evenodd" clip-rule="evenodd" width="1.05" height="1.734"/>
							<rect x="420.574" y="414.121" fill-rule="evenodd" clip-rule="evenodd" width="1.05" height="1.734"/>
							<rect x="420.574" y="417.223" fill-rule="evenodd" clip-rule="evenodd" width="1.05" height="1.734"/>
						</g>
					</g>
					<g>
						<g>
							<g>
								<rect x="415.696" y="400.973" fill="none" width="10.499" height="9.347"/>
							</g>
							<rect x="420.574" y="401.663" fill-rule="evenodd" clip-rule="evenodd" width="1.05" height="1.735"/>
							<rect x="420.574" y="404.774" fill-rule="evenodd" clip-rule="evenodd" width="1.05" height="1.735"/>
							<rect x="420.574" y="407.876" fill-rule="evenodd" clip-rule="evenodd" width="1.05" height="1.735"/>
						</g>
					</g>
					<g>
						<g>
							<g>
								<rect x="415.696" y="391.627" fill="none" width="10.499" height="9.346"/>
							</g>
							<rect x="420.574" y="392.317" fill-rule="evenodd" clip-rule="evenodd" width="1.05" height="1.734"/>
							<rect x="420.574" y="395.429" fill-rule="evenodd" clip-rule="evenodd" width="1.05" height="1.734"/>
							<rect x="420.574" y="398.53" fill-rule="evenodd" clip-rule="evenodd" width="1.05" height="1.734"/>
						</g>
					</g>
					<g>
						<g>
							<g>
								<rect x="415.697" y="382.28" fill="none" width="10.499" height="9.347"/>
							</g>
							<rect x="420.574" y="382.971" fill-rule="evenodd" clip-rule="evenodd" width="1.05" height="1.735"/>
							<rect x="420.574" y="386.082" fill-rule="evenodd" clip-rule="evenodd" width="1.05" height="1.735"/>
							<rect x="420.574" y="389.184" fill-rule="evenodd" clip-rule="evenodd" width="1.05" height="1.735"/>
						</g>
					</g>
					<g>
						<g>
							<g>
								<rect x="415.696" y="372.935" fill="none" width="10.499" height="9.346"/>
							</g>
							<rect x="420.574" y="373.625" fill-rule="evenodd" clip-rule="evenodd" width="1.05" height="1.734"/>
							<rect x="420.574" y="376.736" fill-rule="evenodd" clip-rule="evenodd" width="1.05" height="1.734"/>
							<rect x="420.574" y="379.838" fill-rule="evenodd" clip-rule="evenodd" width="1.05" height="1.734"/>
						</g>
					</g>
					<g>
						<g>
							<g>
								<rect x="415.696" y="363.588" fill="none" width="10.499" height="9.347"/>
							</g>
							<rect x="420.574" y="364.278" fill-rule="evenodd" clip-rule="evenodd" width="1.05" height="1.735"/>
							<rect x="420.574" y="367.391" fill-rule="evenodd" clip-rule="evenodd" width="1.05" height="1.734"/>
							<rect x="420.574" y="370.491" fill-rule="evenodd" clip-rule="evenodd" width="1.05" height="1.735"/>
						</g>
					</g>
					<g>
						<g>
							<g>
								<rect x="415.696" y="354.242" fill="none" width="10.499" height="9.346"/>
							</g>
							<rect x="420.574" y="354.933" fill-rule="evenodd" clip-rule="evenodd" width="1.05" height="1.734"/>
							<rect x="420.574" y="358.044" fill-rule="evenodd" clip-rule="evenodd" width="1.05" height="1.735"/>
							<rect x="420.574" y="361.146" fill-rule="evenodd" clip-rule="evenodd" width="1.05" height="1.734"/>
						</g>
					</g>
					<g>
						<g>
							<g>
								<rect x="415.696" y="344.896" fill="none" width="10.499" height="9.347"/>
							</g>
							<rect x="420.574" y="345.586" fill-rule="evenodd" clip-rule="evenodd" width="1.05" height="1.735"/>
							<rect x="420.574" y="348.698" fill-rule="evenodd" clip-rule="evenodd" width="1.05" height="1.734"/>
							<rect x="420.574" y="351.799" fill-rule="evenodd" clip-rule="evenodd" width="1.05" height="1.735"/>
						</g>
					</g>
					<g>
						<g>
							<g>
								<rect x="415.696" y="335.55" fill="none" width="10.499" height="9.346"/>
							</g>
							<rect x="420.574" y="336.24" fill-rule="evenodd" clip-rule="evenodd" width="1.05" height="1.734"/>
							<rect x="420.574" y="339.352" fill-rule="evenodd" clip-rule="evenodd" width="1.05" height="1.735"/>
							<rect x="420.574" y="342.453" fill-rule="evenodd" clip-rule="evenodd" width="1.05" height="1.734"/>
						</g>
					</g>
					<g>
						<g>
							<g>
								<rect x="415.696" y="326.203" fill="none" width="10.499" height="9.347"/>
							</g>
							<rect x="420.574" y="326.895" fill-rule="evenodd" clip-rule="evenodd" width="1.05" height="1.734"/>
							<rect x="420.574" y="330.006" fill-rule="evenodd" clip-rule="evenodd" width="1.05" height="1.734"/>
							<rect x="420.574" y="333.106" fill-rule="evenodd" clip-rule="evenodd" width="1.05" height="1.735"/>
						</g>
					</g>
					<g>
						<g>
							<g>
								<rect x="415.696" y="316.857" fill="none" width="10.499" height="9.346"/>
							</g>
							<rect x="420.574" y="317.548" fill-rule="evenodd" clip-rule="evenodd" width="1.05" height="1.735"/>
							<rect x="420.574" y="320.659" fill-rule="evenodd" clip-rule="evenodd" width="1.05" height="1.735"/>
							<rect x="420.574" y="323.761" fill-rule="evenodd" clip-rule="evenodd" width="1.05" height="1.734"/>
						</g>
					</g>
					<g>
						<g>
							<g>
								<rect x="415.696" y="307.512" fill="none" width="10.499" height="9.346"/>
							</g>
							<rect x="420.574" y="308.202" fill-rule="evenodd" clip-rule="evenodd" width="1.05" height="1.734"/>
							<rect x="420.574" y="311.313" fill-rule="evenodd" clip-rule="evenodd" width="1.05" height="1.734"/>
							<rect x="420.574" y="314.414" fill-rule="evenodd" clip-rule="evenodd" width="1.05" height="1.735"/>
						</g>
					</g>
					<g>
						<g>
							<g>
								<rect x="415.696" y="298.165" fill="none" width="10.499" height="9.347"/>
							</g>
							<rect x="420.574" y="298.855" fill-rule="evenodd" clip-rule="evenodd" width="1.05" height="1.735"/>
							<rect x="420.574" y="301.967" fill-rule="evenodd" clip-rule="evenodd" width="1.05" height="1.735"/>
							<rect x="420.574" y="305.068" fill-rule="evenodd" clip-rule="evenodd" width="1.05" height="1.734"/>
						</g>
					</g>
					<g>
						<g>
							<g>
								<rect x="415.696" y="288.819" fill="none" width="10.499" height="9.346"/>
							</g>
							<rect x="420.574" y="289.509" fill-rule="evenodd" clip-rule="evenodd" width="1.05" height="1.735"/>
							<rect x="420.574" y="292.621" fill-rule="evenodd" clip-rule="evenodd" width="1.05" height="1.734"/>
							<rect x="420.574" y="295.722" fill-rule="evenodd" clip-rule="evenodd" width="1.05" height="1.735"/>
						</g>
					</g>
					<g>
						<g>
							<g>
								<rect x="415.696" y="279.473" fill="none" width="10.499" height="9.346"/>
							</g>
							<rect x="420.574" y="280.163" fill-rule="evenodd" clip-rule="evenodd" width="1.05" height="1.735"/>
							<rect x="420.574" y="283.275" fill-rule="evenodd" clip-rule="evenodd" width="1.05" height="1.735"/>
							<rect x="420.574" y="286.376" fill-rule="evenodd" clip-rule="evenodd" width="1.05" height="1.735"/>
						</g>
					</g>
					<g>
						<g>
							<g>
								<rect x="415.696" y="270.126" fill="none" width="10.499" height="9.346"/>
							</g>
							<rect x="420.574" y="270.817" fill-rule="evenodd" clip-rule="evenodd" width="1.05" height="1.734"/>
							<rect x="420.574" y="273.929" fill-rule="evenodd" clip-rule="evenodd" width="1.05" height="1.735"/>
							<rect x="420.574" y="277.03" fill-rule="evenodd" clip-rule="evenodd" width="1.05" height="1.735"/>
						</g>
					</g>
					<g>
						<g>
							<g>
								<rect x="415.696" y="260.78" fill="none" width="10.499" height="9.346"/>
							</g>
							<rect x="420.574" y="261.471" fill-rule="evenodd" clip-rule="evenodd" width="1.05" height="1.734"/>
							<rect x="420.574" y="264.583" fill-rule="evenodd" clip-rule="evenodd" width="1.05" height="1.735"/>
							<rect x="420.574" y="267.684" fill-rule="evenodd" clip-rule="evenodd" width="1.05" height="1.735"/>
						</g>
					</g>
					<g>
						<g>
							<g>
								<rect x="415.696" y="251.434" fill="none" width="10.499" height="9.346"/>
							</g>
							<rect x="420.574" y="252.125" fill-rule="evenodd" clip-rule="evenodd" width="1.05" height="1.734"/>
							<rect x="420.574" y="255.236" fill-rule="evenodd" clip-rule="evenodd" width="1.05" height="1.735"/>
							<rect x="420.574" y="258.337" fill-rule="evenodd" clip-rule="evenodd" width="1.05" height="1.735"/>
						</g>
					</g>
					<g>
						<g>
							<g>
								<rect x="415.695" y="242.088" fill="none" width="10.499" height="9.346"/>
							</g>
							<rect x="420.574" y="242.779" fill-rule="evenodd" clip-rule="evenodd" width="1.05" height="1.735"/>
							<rect x="420.574" y="245.89" fill-rule="evenodd" clip-rule="evenodd" width="1.05" height="1.735"/>
							<rect x="420.574" y="248.991" fill-rule="evenodd" clip-rule="evenodd" width="1.05" height="1.735"/>
						</g>
					</g>
					<g>
						<g>
							<g>
								<rect x="415.695" y="232.742" fill="none" width="10.499" height="9.346"/>
							</g>
							<rect x="420.574" y="233.433" fill-rule="evenodd" clip-rule="evenodd" width="1.05" height="1.735"/>
							<rect x="420.574" y="236.544" fill-rule="evenodd" clip-rule="evenodd" width="1.05" height="1.735"/>
							<rect x="420.574" y="239.645" fill-rule="evenodd" clip-rule="evenodd" width="1.05" height="1.735"/>
						</g>
					</g>
					<g>
						<g>
							<g>
								<rect x="415.695" y="223.396" fill="none" width="10.499" height="9.346"/>
							</g>
							<rect x="420.574" y="224.086" fill-rule="evenodd" clip-rule="evenodd" width="1.05" height="1.735"/>
							<rect x="420.574" y="227.198" fill-rule="evenodd" clip-rule="evenodd" width="1.05" height="1.735"/>
							<rect x="420.574" y="230.299" fill-rule="evenodd" clip-rule="evenodd" width="1.05" height="1.735"/>
						</g>
					</g>
					<g>
						<g>
							<g>
								<rect x="415.695" y="214.05" fill="none" width="10.499" height="9.346"/>
							</g>
							<rect x="420.574" y="214.74" fill-rule="evenodd" clip-rule="evenodd" width="1.05" height="1.735"/>
							<rect x="420.574" y="217.852" fill-rule="evenodd" clip-rule="evenodd" width="1.05" height="1.735"/>
							<rect x="420.574" y="220.953" fill-rule="evenodd" clip-rule="evenodd" width="1.05" height="1.734"/>
						</g>
					</g>
					<g>
						<g>
							<g>
								<rect x="415.695" y="204.704" fill="none" width="10.499" height="9.346"/>
							</g>
							<rect x="420.574" y="205.394" fill-rule="evenodd" clip-rule="evenodd" width="1.05" height="1.735"/>
							<rect x="420.574" y="208.505" fill-rule="evenodd" clip-rule="evenodd" width="1.05" height="1.735"/>
							<rect x="420.574" y="211.607" fill-rule="evenodd" clip-rule="evenodd" width="1.05" height="1.734"/>
						</g>
					</g>
					<g>
						<g>
							<g>
								<rect x="415.695" y="195.357" fill="none" width="10.499" height="9.346"/>
							</g>
							<rect x="420.574" y="196.048" fill-rule="evenodd" clip-rule="evenodd" width="1.05" height="1.735"/>
							<rect x="420.574" y="199.159" fill-rule="evenodd" clip-rule="evenodd" width="1.05" height="1.735"/>
							<rect x="420.574" y="202.261" fill-rule="evenodd" clip-rule="evenodd" width="1.05" height="1.734"/>
						</g>
					</g>
					<g>
						<g>
							<g>
								<rect x="415.695" y="186.011" fill="none" width="10.499" height="9.346"/>
							</g>
							<rect x="420.574" y="186.702" fill-rule="evenodd" clip-rule="evenodd" width="1.05" height="1.735"/>
							<rect x="420.574" y="189.813" fill-rule="evenodd" clip-rule="evenodd" width="1.05" height="1.735"/>
							<rect x="420.574" y="192.915" fill-rule="evenodd" clip-rule="evenodd" width="1.05" height="1.735"/>
						</g>
					</g>
					<g>
						<g>
							<g>
								<rect x="415.695" y="176.665" fill="none" width="10.499" height="9.346"/>
							</g>
							<rect x="420.573" y="177.355" fill-rule="evenodd" clip-rule="evenodd" width="1.05" height="1.735"/>
							<rect x="420.573" y="180.467" fill-rule="evenodd" clip-rule="evenodd" width="1.05" height="1.735"/>
							<rect x="420.573" y="183.568" fill-rule="evenodd" clip-rule="evenodd" width="1.05" height="1.735"/>
						</g>
					</g>
				</g>
			</g>
		</g>
		<path fill="none" stroke="#000000" stroke-miterlimit="10" d="M420.946,256.255"/>
		<line fill="none" stroke="#000000" stroke-miterlimit="10" x1="386.588" y1="256.611" x2="391.675" y2="286.293"/>
		<line fill="none" stroke="#000000" stroke-miterlimit="10" x1="420.945" y1="176.665" x2="386.588" y2="256.611"/>
		<line fill="none" stroke="#000000" stroke-miterlimit="10" x1="455.301" y1="256.611" x2="420.945" y2="176.665"/>
		<line fill="none" stroke="#000000" stroke-miterlimit="10" x1="420.946" y1="256.255" x2="450.628" y2="286.293"/>
		<polyline fill="none" stroke="#000000" stroke-miterlimit="10" points="420.946,256.255 391.676,286.293 320.725,356.831 
			420.946,457.05 521.165,356.831 450.628,286.293 		"/>
		<line fill="none" stroke="#000000" stroke-miterlimit="10" x1="455.301" y1="256.611" x2="450.275" y2="285.936"/>
	</g>
</g>
<g id="Layer_24">
</g>
<g id="Layer_25">
</g>
<g id="Layer_26">
</g>
<g id="Layer_27">
</g>
<g id="Layer_28">
</g>
<g id="Layer_29">
</g>
<g id="Layer_30">
</g>
<g id="Layer_31">
</g>
<g id="Layer_32">
</g>
<g id="Layer_33">
</g>
<g id="Layer_34">
</g>
<g id="Layer_35">
</g>
<g id="Layer_36">
</g>
<g id="Layer_37">
</g>
<g id="Layer_38">
</g>
<g id="Layer_39">
</g>
<g id="Layer_40">
</g>
<g id="Layer_41">
</g>
<g id="Layer_43">
</g>
</svg>
