<?xml version="1.0" encoding="utf-8"?>
<!-- Generator: Adobe Illustrator 16.0.0, SVG Export Plug-In . SVG Version: 6.00 Build 0)  -->
<!DOCTYPE svg PUBLIC "-//W3C//DTD SVG 1.1//EN" "http://www.w3.org/Graphics/SVG/1.1/DTD/svg11.dtd">
<svg version="1.1" xmlns="http://www.w3.org/2000/svg" xmlns:xlink="http://www.w3.org/1999/xlink" x="0px" y="0px"
	 width="841.89px" height="595.28px" viewBox="0 0 841.89 595.28" enable-background="new 0 0 841.89 595.28" xml:space="preserve">
<g id="Layer_1">
</g>
<g id="Layer_2">
</g>
<g id="Layer_3">
</g>
<g id="Layer_4">
</g>
<g id="Layer_5">
</g>
<g id="Layer_6">
</g>
<g id="Layer_7">
</g>
<g id="Layer_8">
</g>
<g id="Layer_9">
</g>
<g id="Layer_10">
</g>
<g id="Layer_11">
</g>
<g id="Layer_12">
</g>
<g id="Layer_13">
</g>
<g id="Layer_14">
</g>
<g id="Layer_15">
</g>
<g id="Layer_16">
</g>
<g id="Layer_17">
	<g>
		<g>
			
				<rect x="349.825" y="326.637" transform="matrix(0.7071 -0.7071 0.7071 0.7071 -157.8598 413.8986)" fill="none" stroke="#000000" stroke-miterlimit="10" width="141.731" height="141.732"/>
			<line fill="none" stroke="#000000" stroke-miterlimit="10" x1="420.794" y1="297.009" x2="366.539" y2="364.165"/>
			<line fill="none" stroke="#000000" stroke-miterlimit="10" x1="475.265" y1="363.917" x2="420.794" y2="297.009"/>
			<g>
				<g>
					<g>
						<g>
							<g>
								<g>
									
										<rect x="415.497" y="410.454" transform="matrix(-0.0039 1 -1 -0.0039 837.585 -2.9078)" fill="none" width="9.488" height="10.499"/>
								</g>
								<rect x="419.882" y="411.661" fill-rule="evenodd" clip-rule="evenodd" width="1.05" height="1.761"/>
								<rect x="419.87" y="414.82" fill-rule="evenodd" clip-rule="evenodd" width="1.05" height="1.761"/>
								<rect x="419.857" y="417.969" fill-rule="evenodd" clip-rule="evenodd" width="1.05" height="1.761"/>
							</g>
						</g>
						<g>
							<g>
								<g>
									
										<rect x="415.534" y="400.966" transform="matrix(-0.0039 1 -1 -0.0039 828.1342 -12.4707)" fill="none" width="9.489" height="10.499"/>
								</g>
								<rect x="419.919" y="402.173" fill-rule="evenodd" clip-rule="evenodd" width="1.05" height="1.761"/>
								<rect x="419.907" y="405.332" fill-rule="evenodd" clip-rule="evenodd" width="1.05" height="1.761"/>
								<rect x="419.895" y="408.48" fill-rule="evenodd" clip-rule="evenodd" width="1.05" height="1.761"/>
							</g>
						</g>
						<g>
							<g>
								<g>
									
										<rect x="415.571" y="391.477" transform="matrix(-0.004 1 -1 -0.004 818.7043 -22.0131)" fill="none" width="9.489" height="10.499"/>
								</g>
								<rect x="419.957" y="392.684" fill-rule="evenodd" clip-rule="evenodd" width="1.05" height="1.761"/>
								<rect x="419.944" y="395.843" fill-rule="evenodd" clip-rule="evenodd" width="1.05" height="1.761"/>
								<rect x="419.932" y="398.991" fill-rule="evenodd" clip-rule="evenodd" width="1.05" height="1.761"/>
							</g>
						</g>
						<g>
							<g>
								<g>
									
										<rect x="415.608" y="381.988" transform="matrix(-0.0039 1 -1 -0.0039 809.2316 -31.5968)" fill="none" width="9.488" height="10.499"/>
								</g>
								<rect x="419.994" y="383.196" fill-rule="evenodd" clip-rule="evenodd" width="1.05" height="1.761"/>
								<rect x="419.981" y="386.354" fill-rule="evenodd" clip-rule="evenodd" width="1.05" height="1.761"/>
								<rect x="419.969" y="389.503" fill-rule="evenodd" clip-rule="evenodd" width="1.05" height="1.761"/>
							</g>
						</g>
						<g>
							<g>
								<g>
									
										<rect x="415.645" y="372.5" transform="matrix(-0.0039 1 -1 -0.0039 799.7809 -41.1596)" fill="none" width="9.489" height="10.499"/>
								</g>
								<rect x="420.031" y="373.707" fill-rule="evenodd" clip-rule="evenodd" width="1.05" height="1.761"/>
								<rect x="420.019" y="376.866" fill-rule="evenodd" clip-rule="evenodd" width="1.05" height="1.761"/>
								<rect x="420.006" y="380.014" fill-rule="evenodd" clip-rule="evenodd" width="1.05" height="1.761"/>
							</g>
						</g>
						<g>
							<g>
								<g>
									
										<rect x="415.683" y="363.011" transform="matrix(-0.004 1 -1 -0.004 790.3511 -50.7035)" fill="none" width="9.488" height="10.499"/>
								</g>
								<rect x="420.068" y="364.219" fill-rule="evenodd" clip-rule="evenodd" width="1.05" height="1.761"/>
								<rect x="420.056" y="367.377" fill-rule="evenodd" clip-rule="evenodd" width="1.05" height="1.761"/>
								<rect x="420.043" y="370.526" fill-rule="evenodd" clip-rule="evenodd" width="1.05" height="1.761"/>
							</g>
						</g>
						<g>
							<g>
								<g>
									
										<rect x="415.72" y="353.523" transform="matrix(-0.0039 1 -1 -0.0039 780.8787 -60.2853)" fill="none" width="9.489" height="10.499"/>
								</g>
								<rect x="420.105" y="354.73" fill-rule="evenodd" clip-rule="evenodd" width="1.05" height="1.761"/>
								<rect x="420.093" y="357.889" fill-rule="evenodd" clip-rule="evenodd" width="1.05" height="1.761"/>
								<rect x="420.081" y="361.037" fill-rule="evenodd" clip-rule="evenodd" width="1.05" height="1.761"/>
							</g>
						</g>
						<g>
							<g>
								<g>
									
										<rect x="415.757" y="344.035" transform="matrix(-0.0039 1 -1 -0.0039 771.4275 -69.8486)" fill="none" width="9.489" height="10.499"/>
								</g>
								<rect x="420.143" y="345.241" fill-rule="evenodd" clip-rule="evenodd" width="1.05" height="1.761"/>
								<rect x="420.13" y="348.4" fill-rule="evenodd" clip-rule="evenodd" width="1.05" height="1.761"/>
								<rect x="420.118" y="351.549" fill-rule="evenodd" clip-rule="evenodd" width="1.05" height="1.761"/>
							</g>
						</g>
						<g>
							<g>
								<g>
									
										<rect x="415.795" y="334.546" transform="matrix(-0.004 1 -1 -0.004 761.9977 -79.3939)" fill="none" width="9.488" height="10.499"/>
								</g>
								<rect x="420.18" y="335.753" fill-rule="evenodd" clip-rule="evenodd" width="1.05" height="1.761"/>
								<rect x="420.168" y="338.912" fill-rule="evenodd" clip-rule="evenodd" width="1.05" height="1.761"/>
								<rect x="420.155" y="342.06" fill-rule="evenodd" clip-rule="evenodd" width="1.05" height="1.761"/>
							</g>
						</g>
						<g>
							<g>
								<g>
									
										<rect x="415.832" y="325.057" transform="matrix(-0.0039 1 -1 -0.0039 752.5253 -88.9743)" fill="none" width="9.489" height="10.499"/>
								</g>
								<rect x="420.217" y="326.264" fill-rule="evenodd" clip-rule="evenodd" width="1.05" height="1.761"/>
								<rect x="420.205" y="329.423" fill-rule="evenodd" clip-rule="evenodd" width="1.05" height="1.761"/>
								<rect x="420.193" y="332.572" fill-rule="evenodd" clip-rule="evenodd" width="1.05" height="1.761"/>
							</g>
						</g>
						<g>
							<g>
								<g>
									
										<rect x="415.869" y="315.569" transform="matrix(-0.0039 1 -1 -0.0039 743.0741 -98.5375)" fill="none" width="9.489" height="10.499"/>
								</g>
								<rect x="420.255" y="316.775" fill-rule="evenodd" clip-rule="evenodd" width="1.05" height="1.761"/>
								<rect x="420.242" y="319.934" fill-rule="evenodd" clip-rule="evenodd" width="1.05" height="1.761"/>
								<rect x="420.229" y="323.083" fill-rule="evenodd" clip-rule="evenodd" width="1.05" height="1.761"/>
							</g>
						</g>
						<g>
							<g>
								<g>
									
										<rect x="415.906" y="306.08" transform="matrix(-0.004 1 -1 -0.004 733.6444 -108.0843)" fill="none" width="9.488" height="10.499"/>
								</g>
								<rect x="420.292" y="307.287" fill-rule="evenodd" clip-rule="evenodd" width="1.05" height="1.761"/>
								<rect x="420.28" y="310.446" fill-rule="evenodd" clip-rule="evenodd" width="1.05" height="1.761"/>
								<rect x="420.267" y="313.594" fill-rule="evenodd" clip-rule="evenodd" width="1.05" height="1.761"/>
							</g>
						</g>
						<g>
							<g>
								<g>
									
										<rect x="415.944" y="296.592" transform="matrix(-0.0039 1 -1 -0.0039 724.172 -117.6633)" fill="none" width="9.489" height="10.499"/>
								</g>
								<rect x="420.329" y="297.798" fill-rule="evenodd" clip-rule="evenodd" width="1.05" height="1.761"/>
								<rect x="420.316" y="300.957" fill-rule="evenodd" clip-rule="evenodd" width="1.05" height="1.762"/>
								<rect x="420.304" y="304.106" fill-rule="evenodd" clip-rule="evenodd" width="1.05" height="1.761"/>
							</g>
						</g>
					</g>
				</g>
			</g>
			<path fill="none" stroke="#000000" stroke-miterlimit="10" d="M420.691,296.927"/>
			<line fill="none" stroke="#000000" stroke-miterlimit="10" x1="420.222" y1="420.639" x2="475.171" y2="363.802"/>
		</g>
		<line fill="none" stroke="#000000" stroke-miterlimit="10" x1="366.634" y1="363.786" x2="420.621" y2="420.198"/>
	</g>
	<line fill="none" stroke="#000000" stroke-miterlimit="10" x1="420.691" y1="497.722" x2="475.265" y2="363.917"/>
	<line fill="none" stroke="#000000" stroke-miterlimit="10" x1="366.634" y1="363.786" x2="420.691" y2="497.722"/>
	<line fill="none" stroke="#000000" stroke-miterlimit="10" x1="420.691" y1="497.722" x2="420.225" y2="419.785"/>
</g>
<g id="Layer_18">
</g>
<g id="Layer_19">
</g>
<g id="Layer_20">
</g>
<g id="Layer_21">
</g>
<g id="Layer_22">
</g>
<g id="Layer_24">
</g>
<g id="Layer_25">
</g>
<g id="Layer_26">
</g>
<g id="Layer_27">
</g>
<g id="Layer_28">
</g>
<g id="Layer_29">
</g>
<g id="Layer_30">
</g>
<g id="Layer_31">
</g>
<g id="Layer_32">
</g>
<g id="Layer_33">
</g>
<g id="Layer_34">
</g>
<g id="Layer_35">
</g>
<g id="Layer_36">
</g>
<g id="Layer_37">
</g>
<g id="Layer_38">
</g>
<g id="Layer_39">
</g>
<g id="Layer_40">
</g>
<g id="Layer_41">
</g>
<g id="Layer_43">
</g>
</svg>
