<?xml version="1.0" encoding="utf-8"?>
<!-- Generator: Adobe Illustrator 16.0.0, SVG Export Plug-In . SVG Version: 6.00 Build 0)  -->
<!DOCTYPE svg PUBLIC "-//W3C//DTD SVG 1.1//EN" "http://www.w3.org/Graphics/SVG/1.1/DTD/svg11.dtd">
<svg version="1.1" xmlns="http://www.w3.org/2000/svg" xmlns:xlink="http://www.w3.org/1999/xlink" x="0px" y="0px"
	 width="841.89px" height="595.28px" viewBox="0 0 841.89 595.28" enable-background="new 0 0 841.89 595.28" xml:space="preserve">
<g id="Layer_1">
</g>
<g id="Layer_2">
</g>
<g id="Layer_3">
</g>
<g id="Layer_4">
</g>
<g id="Layer_5">
</g>
<g id="Layer_6">
</g>
<g id="Layer_7">
</g>
<g id="Layer_8">
</g>
<g id="Layer_9">
</g>
<g id="Layer_10">
</g>
<g id="Layer_11">
</g>
<g id="Layer_12">
</g>
<g id="Layer_13">
</g>
<g id="Layer_14">
</g>
<g id="Layer_15">
</g>
<g id="Layer_16">
</g>
<g id="Layer_17">
</g>
<g id="Layer_18">
</g>
<g id="Layer_19">
</g>
<g id="Layer_20">
</g>
<g id="Layer_21">
</g>
<g id="Layer_22">
</g>
<g id="Layer_24">
	<g>
		<g>
			<polyline display="none" fill="none" stroke="#000000" stroke-miterlimit="10" points="431.743,359.795 422.99,492.931 
				521.117,397.184 420.841,497.404 320.621,397.184 418.909,492.93 320.261,394.177 420.951,491.805 			"/>
			<polyline id="pion_7_" fill="none" stroke="#000000" stroke-miterlimit="10" points="482.953,359.795 420.585,297.051 
				320.261,397.544 			"/>
			<line display="none" fill="none" stroke="#000000" stroke-miterlimit="10" x1="320.777" y1="394.18" x2="420.482" y2="296.968"/>
			<g id="gora_1_" display="none">
				<polygon display="inline" fill="#FFFFFF" stroke="#000000" stroke-width="0.7" stroke-miterlimit="10" points="489.858,359.795 
					420.839,492.18 320.621,395.388 420.482,296.968 				"/>
				<g display="inline">
					<g>
						<g>
							<g>
								<g>
									<g>
										
											<rect x="416.181" y="481.815" transform="matrix(0.0018 1 -1 0.0018 907.1274 65.3751)" fill="none" width="9.273" height="10.499"/>
									</g>
									<rect x="420.441" y="483.112" fill-rule="evenodd" clip-rule="evenodd" width="1.05" height="1.721"/>
									<rect x="420.446" y="486.199" fill-rule="evenodd" clip-rule="evenodd" width="1.05" height="1.721"/>
									<rect x="420.452" y="489.276" fill-rule="evenodd" clip-rule="evenodd" width="1.05" height="1.721"/>
								</g>
							</g>
							<g>
								<g>
									<g>
										
											<rect x="416.164" y="472.541" transform="matrix(0.0018 1 -1 0.0018 897.8375 56.1348)" fill="none" width="9.273" height="10.499"/>
									</g>
									<rect x="420.424" y="473.839" fill-rule="evenodd" clip-rule="evenodd" width="1.05" height="1.722"/>
									<rect x="420.429" y="476.926" fill-rule="evenodd" clip-rule="evenodd" width="1.05" height="1.722"/>
									<rect x="420.435" y="480.003" fill-rule="evenodd" clip-rule="evenodd" width="1.05" height="1.722"/>
								</g>
							</g>
							<g>
								<g>
									<g>
										
											<rect x="416.148" y="463.268" transform="matrix(0.0017 1 -1 0.0017 888.5925 46.944)" fill="none" width="9.272" height="10.499"/>
									</g>
									<rect x="420.408" y="464.566" fill-rule="evenodd" clip-rule="evenodd" width="1.05" height="1.721"/>
									<rect x="420.414" y="467.653" fill-rule="evenodd" clip-rule="evenodd" width="1.05" height="1.721"/>
									<rect x="420.419" y="470.73" fill-rule="evenodd" clip-rule="evenodd" width="1.05" height="1.721"/>
								</g>
							</g>
							<g>
								<g>
									<g>
										
											<rect x="416.132" y="453.995" transform="matrix(0.0018 1 -1 0.0018 879.2592 37.6546)" fill="none" width="9.273" height="10.499"/>
									</g>
									<rect x="420.392" y="455.293" fill-rule="evenodd" clip-rule="evenodd" width="1.05" height="1.722"/>
									<rect x="420.397" y="458.38" fill-rule="evenodd" clip-rule="evenodd" width="1.05" height="1.722"/>
									<rect x="420.402" y="461.457" fill-rule="evenodd" clip-rule="evenodd" width="1.05" height="1.722"/>
								</g>
							</g>
							<g>
								<g>
									<g>
										
											<rect x="416.116" y="444.722" transform="matrix(0.0018 1 -1 0.0018 869.9696 28.4148)" fill="none" width="9.272" height="10.499"/>
									</g>
									<rect x="420.375" y="446.021" fill-rule="evenodd" clip-rule="evenodd" width="1.05" height="1.721"/>
									<rect x="420.381" y="449.107" fill-rule="evenodd" clip-rule="evenodd" width="1.05" height="1.721"/>
									<rect x="420.386" y="452.185" fill-rule="evenodd" clip-rule="evenodd" width="1.05" height="1.721"/>
								</g>
							</g>
							<g>
								<g>
									<g>
										
											<rect x="416.099" y="435.449" transform="matrix(0.0018 1 -1 0.0018 860.6804 19.1748)" fill="none" width="9.273" height="10.499"/>
									</g>
									<rect x="420.359" y="436.747" fill-rule="evenodd" clip-rule="evenodd" width="1.05" height="1.722"/>
									<rect x="420.364" y="439.834" fill-rule="evenodd" clip-rule="evenodd" width="1.05" height="1.722"/>
									<rect x="420.369" y="442.911" fill-rule="evenodd" clip-rule="evenodd" width="1.05" height="1.722"/>
								</g>
							</g>
							<g>
								<g>
									<g>
										
											<rect x="416.083" y="426.176" transform="matrix(0.0017 1 -1 0.0017 851.4352 9.9804)" fill="none" width="9.272" height="10.5"/>
									</g>
									<rect x="420.342" y="427.475" fill-rule="evenodd" clip-rule="evenodd" width="1.05" height="1.721"/>
									<rect x="420.348" y="430.562" fill-rule="evenodd" clip-rule="evenodd" width="1.05" height="1.721"/>
									<rect x="420.354" y="433.639" fill-rule="evenodd" clip-rule="evenodd" width="1.05" height="1.721"/>
								</g>
							</g>
							<g>
								<g>
									<g>
										
											<rect x="416.066" y="416.903" transform="matrix(0.0018 1 -1 0.0018 842.1021 0.6946)" fill="none" width="9.273" height="10.499"/>
									</g>
									<rect x="420.326" y="418.201" fill-rule="evenodd" clip-rule="evenodd" width="1.05" height="1.722"/>
									<rect x="420.332" y="421.288" fill-rule="evenodd" clip-rule="evenodd" width="1.05" height="1.722"/>
									<rect x="420.337" y="424.365" fill-rule="evenodd" clip-rule="evenodd" width="1.05" height="1.722"/>
								</g>
							</g>
							<g>
								<g>
									<g>
										
											<rect x="416.05" y="407.63" transform="matrix(0.0018 1 -1 0.0018 832.8126 -8.5452)" fill="none" width="9.272" height="10.499"/>
									</g>
									<rect x="420.31" y="408.929" fill-rule="evenodd" clip-rule="evenodd" width="1.05" height="1.721"/>
									<rect x="420.315" y="412.016" fill-rule="evenodd" clip-rule="evenodd" width="1.05" height="1.721"/>
									<rect x="420.321" y="415.093" fill-rule="evenodd" clip-rule="evenodd" width="1.05" height="1.721"/>
								</g>
							</g>
							<g>
								<g>
									<g>
										
											<rect x="416.033" y="398.358" transform="matrix(0.0018 1 -1 0.0018 823.5233 -17.7851)" fill="none" width="9.273" height="10.499"/>
									</g>
									<rect x="420.293" y="399.655" fill-rule="evenodd" clip-rule="evenodd" width="1.05" height="1.722"/>
									<rect x="420.299" y="402.742" fill-rule="evenodd" clip-rule="evenodd" width="1.05" height="1.722"/>
									<rect x="420.304" y="405.819" fill-rule="evenodd" clip-rule="evenodd" width="1.05" height="1.722"/>
								</g>
							</g>
							<g>
								<g>
									<g>
										
											<rect x="416.017" y="389.084" transform="matrix(0.0017 1 -1 0.0017 814.2782 -26.9835)" fill="none" width="9.272" height="10.5"/>
									</g>
									<rect x="420.277" y="390.383" fill-rule="evenodd" clip-rule="evenodd" width="1.05" height="1.721"/>
									<rect x="420.283" y="393.47" fill-rule="evenodd" clip-rule="evenodd" width="1.05" height="1.721"/>
									<rect x="420.288" y="396.547" fill-rule="evenodd" clip-rule="evenodd" width="1.05" height="1.721"/>
								</g>
							</g>
							<g>
								<g>
									<g>
										
											<rect x="416.001" y="379.812" transform="matrix(0.0018 1 -1 0.0018 804.9451 -36.2654)" fill="none" width="9.273" height="10.499"/>
									</g>
									<rect x="420.261" y="381.109" fill-rule="evenodd" clip-rule="evenodd" width="1.05" height="1.722"/>
									<rect x="420.266" y="384.196" fill-rule="evenodd" clip-rule="evenodd" width="1.05" height="1.722"/>
									<rect x="420.271" y="387.273" fill-rule="evenodd" clip-rule="evenodd" width="1.05" height="1.722"/>
								</g>
							</g>
							<g>
								<g>
									<g>
										
											<rect x="415.985" y="370.539" transform="matrix(0.0018 1 -1 0.0018 795.6555 -45.5051)" fill="none" width="9.272" height="10.499"/>
									</g>
									<rect x="420.244" y="371.837" fill-rule="evenodd" clip-rule="evenodd" width="1.05" height="1.721"/>
									<rect x="420.25" y="374.924" fill-rule="evenodd" clip-rule="evenodd" width="1.05" height="1.721"/>
									<rect x="420.255" y="378.001" fill-rule="evenodd" clip-rule="evenodd" width="1.05" height="1.721"/>
								</g>
							</g>
							<g>
								<g>
									<g>
										
											<rect x="415.968" y="361.266" transform="matrix(0.0018 1 -1 0.0018 786.3663 -54.7451)" fill="none" width="9.273" height="10.499"/>
									</g>
									<rect x="420.228" y="362.563" fill-rule="evenodd" clip-rule="evenodd" width="1.05" height="1.721"/>
									<rect x="420.233" y="365.65" fill-rule="evenodd" clip-rule="evenodd" width="1.05" height="1.722"/>
									<rect x="420.239" y="368.728" fill-rule="evenodd" clip-rule="evenodd" width="1.05" height="1.721"/>
								</g>
							</g>
							<g>
								<g>
									<g>
										
											<rect x="415.952" y="351.992" transform="matrix(0.0017 1 -1 0.0017 777.1211 -63.9473)" fill="none" width="9.272" height="10.5"/>
									</g>
									<rect x="420.211" y="353.29" fill-rule="evenodd" clip-rule="evenodd" width="1.05" height="1.722"/>
									<rect x="420.217" y="356.378" fill-rule="evenodd" clip-rule="evenodd" width="1.05" height="1.721"/>
									<rect x="420.223" y="359.454" fill-rule="evenodd" clip-rule="evenodd" width="1.05" height="1.722"/>
								</g>
							</g>
							<g>
								<g>
									<g>
										
											<rect x="415.936" y="342.72" transform="matrix(0.0018 1 -1 0.0018 767.788 -73.2253)" fill="none" width="9.273" height="10.499"/>
									</g>
									<rect x="420.195" y="344.018" fill-rule="evenodd" clip-rule="evenodd" width="1.05" height="1.721"/>
									<rect x="420.201" y="347.104" fill-rule="evenodd" clip-rule="evenodd" width="1.05" height="1.722"/>
									<rect x="420.206" y="350.182" fill-rule="evenodd" clip-rule="evenodd" width="1.05" height="1.721"/>
								</g>
							</g>
							<g>
								<g>
									<g>
										
											<rect x="415.919" y="333.447" transform="matrix(0.0018 1 -1 0.0018 758.4984 -82.4651)" fill="none" width="9.272" height="10.499"/>
									</g>
									<rect x="420.178" y="334.744" fill-rule="evenodd" clip-rule="evenodd" width="1.05" height="1.722"/>
									<rect x="420.184" y="337.832" fill-rule="evenodd" clip-rule="evenodd" width="1.05" height="1.721"/>
									<rect x="420.19" y="340.908" fill-rule="evenodd" clip-rule="evenodd" width="1.05" height="1.722"/>
								</g>
							</g>
							<g>
								<g>
									<g>
										
											<rect x="415.903" y="324.174" transform="matrix(0.0018 1 -1 0.0018 749.2092 -91.705)" fill="none" width="9.273" height="10.499"/>
									</g>
									<rect x="420.163" y="325.472" fill-rule="evenodd" clip-rule="evenodd" width="1.05" height="1.721"/>
									<rect x="420.168" y="328.558" fill-rule="evenodd" clip-rule="evenodd" width="1.05" height="1.722"/>
									<rect x="420.173" y="331.636" fill-rule="evenodd" clip-rule="evenodd" width="1.05" height="1.721"/>
								</g>
							</g>
							<g>
								<g>
									<g>
										
											<rect x="415.886" y="314.901" transform="matrix(0.0018 1 -1 0.0018 739.9197 -100.9448)" fill="none" width="9.272" height="10.499"/>
									</g>
									<rect x="420.146" y="316.198" fill-rule="evenodd" clip-rule="evenodd" width="1.05" height="1.722"/>
									<rect x="420.151" y="319.286" fill-rule="evenodd" clip-rule="evenodd" width="1.05" height="1.721"/>
									<rect x="420.157" y="322.362" fill-rule="evenodd" clip-rule="evenodd" width="1.05" height="1.722"/>
								</g>
							</g>
							<g>
								<g>
									<g>
										
											<rect x="415.87" y="305.628" transform="matrix(0.0017 1 -1 0.0017 730.6748 -110.1521)" fill="none" width="9.273" height="10.499"/>
									</g>
									<rect x="420.13" y="306.926" fill-rule="evenodd" clip-rule="evenodd" width="1.05" height="1.721"/>
									<rect x="420.135" y="310.012" fill-rule="evenodd" clip-rule="evenodd" width="1.05" height="1.722"/>
									<rect x="420.141" y="313.09" fill-rule="evenodd" clip-rule="evenodd" width="1.05" height="1.721"/>
								</g>
							</g>
							<g>
								<g>
									<g>
										
											<rect x="415.854" y="296.355" transform="matrix(0.0018 1 -1 0.0018 721.3412 -119.4253)" fill="none" width="9.273" height="10.499"/>
									</g>
									<rect x="420.113" y="297.653" fill-rule="evenodd" clip-rule="evenodd" width="1.05" height="1.721"/>
									<rect x="420.118" y="300.739" fill-rule="evenodd" clip-rule="evenodd" width="1.05" height="1.722"/>
									<rect x="420.124" y="303.816" fill-rule="evenodd" clip-rule="evenodd" width="1.05" height="1.722"/>
								</g>
							</g>
						</g>
					</g>
				</g>
			</g>
		</g>
		<polyline fill="none" stroke="#000000" stroke-miterlimit="10" points="420.482,497.764 320.262,397.544 420.482,297.324 		"/>
		<line fill="none" stroke="#000000" stroke-miterlimit="10" x1="420.199" y1="497.429" x2="420.624" y2="359.46"/>
		<line fill="none" stroke="#000000" stroke-miterlimit="10" x1="482.953" y1="359.795" x2="420.417" y2="359.795"/>
		<path fill="none" stroke="#000000" stroke-miterlimit="10" d="M420.482,296.968"/>
		<line fill="none" stroke="#000000" stroke-miterlimit="10" x1="482.953" y1="359.795" x2="420.482" y2="497.764"/>
		<g>
			<g>
				<g>
					<g>
						<g>
							<g>
								
									<rect x="415.688" y="349.799" transform="matrix(-0.0037 1 -1 -0.0037 777.0375 -64.0699)" fill="none" width="9.494" height="10.499"/>
							</g>
							<rect x="420.075" y="351.003" fill-rule="evenodd" clip-rule="evenodd" width="1.05" height="1.762"/>
							<rect x="420.064" y="354.163" fill-rule="evenodd" clip-rule="evenodd" width="1.05" height="1.763"/>
							<rect x="420.052" y="357.313" fill-rule="evenodd" clip-rule="evenodd" width="1.05" height="1.763"/>
						</g>
					</g>
					<g>
						<g>
							<g>
								
									<rect x="415.723" y="340.304" transform="matrix(-0.0038 1 -1 -0.0038 767.6215 -73.5995)" fill="none" width="9.495" height="10.499"/>
							</g>
							<rect x="420.111" y="341.508" fill-rule="evenodd" clip-rule="evenodd" width="1.05" height="1.763"/>
							<rect x="420.1" y="344.669" fill-rule="evenodd" clip-rule="evenodd" width="1.05" height="1.763"/>
							<rect x="420.088" y="347.819" fill-rule="evenodd" clip-rule="evenodd" width="1.05" height="1.763"/>
						</g>
					</g>
					<g>
						<g>
							<g>
								
									<rect x="415.759" y="330.809" transform="matrix(-0.0037 1 -1 -0.0037 758.1198 -83.2005)" fill="none" width="9.494" height="10.499"/>
							</g>
							<rect x="420.147" y="332.013" fill-rule="evenodd" clip-rule="evenodd" width="1.05" height="1.763"/>
							<rect x="420.135" y="335.175" fill-rule="evenodd" clip-rule="evenodd" width="1.05" height="1.762"/>
							<rect x="420.124" y="338.325" fill-rule="evenodd" clip-rule="evenodd" width="1.05" height="1.762"/>
						</g>
					</g>
					<g>
						<g>
							<g>
								
									<rect x="415.795" y="321.315" transform="matrix(-0.0038 1 -1 -0.0038 748.7043 -92.7314)" fill="none" width="9.494" height="10.5"/>
							</g>
							<rect x="420.183" y="322.52" fill-rule="evenodd" clip-rule="evenodd" width="1.05" height="1.762"/>
							<rect x="420.17" y="325.68" fill-rule="evenodd" clip-rule="evenodd" width="1.05" height="1.763"/>
							<rect x="420.158" y="328.83" fill-rule="evenodd" clip-rule="evenodd" width="1.05" height="1.763"/>
						</g>
					</g>
					<g>
						<g>
							<g>
								
									<rect x="415.83" y="311.82" transform="matrix(-0.0037 1 -1 -0.0037 739.2025 -102.331)" fill="none" width="9.495" height="10.499"/>
							</g>
							<rect x="420.218" y="313.024" fill-rule="evenodd" clip-rule="evenodd" width="1.05" height="1.763"/>
							<rect x="420.206" y="316.185" fill-rule="evenodd" clip-rule="evenodd" width="1.05" height="1.763"/>
							<rect x="420.194" y="319.336" fill-rule="evenodd" clip-rule="evenodd" width="1.05" height="1.763"/>
						</g>
					</g>
					<g>
						<g>
							<g>
								
									<rect x="415.866" y="302.326" transform="matrix(-0.0037 1 -1 -0.0037 729.7437 -111.8961)" fill="none" width="9.494" height="10.499"/>
							</g>
							<rect x="420.253" y="303.53" fill-rule="evenodd" clip-rule="evenodd" width="1.05" height="1.763"/>
							<rect x="420.242" y="306.691" fill-rule="evenodd" clip-rule="evenodd" width="1.05" height="1.762"/>
							<rect x="420.23" y="309.842" fill-rule="evenodd" clip-rule="evenodd" width="1.05" height="1.762"/>
						</g>
					</g>
					<g>
						<g>
							<g>
								
									<rect x="415.901" y="292.831" transform="matrix(-0.0038 1 -1 -0.0038 720.328 -121.4301)" fill="none" width="9.494" height="10.499"/>
							</g>
							<rect x="420.289" y="294.036" fill-rule="evenodd" clip-rule="evenodd" width="1.05" height="1.762"/>
							<rect x="420.277" y="297.196" fill-rule="evenodd" clip-rule="evenodd" width="1.05" height="1.763"/>
							<rect x="420.266" y="300.347" fill-rule="evenodd" clip-rule="evenodd" width="1.05" height="1.763"/>
						</g>
					</g>
					<g>
						<g>
							<g>
								
									<rect x="415.937" y="283.337" transform="matrix(-0.0037 1 -1 -0.0037 710.8262 -131.0262)" fill="none" width="9.495" height="10.499"/>
							</g>
							<rect x="420.325" y="284.541" fill-rule="evenodd" clip-rule="evenodd" width="1.05" height="1.763"/>
							<rect x="420.313" y="287.702" fill-rule="evenodd" clip-rule="evenodd" width="1.05" height="1.762"/>
							<rect x="420.301" y="290.853" fill-rule="evenodd" clip-rule="evenodd" width="1.05" height="1.762"/>
						</g>
					</g>
					<g>
						<g>
							<g>
								
									<rect x="415.972" y="273.842" transform="matrix(-0.0038 1 -1 -0.0038 701.4106 -140.5623)" fill="none" width="9.495" height="10.5"/>
							</g>
							<rect x="420.36" y="275.047" fill-rule="evenodd" clip-rule="evenodd" width="1.05" height="1.762"/>
							<rect x="420.348" y="278.208" fill-rule="evenodd" clip-rule="evenodd" width="1.05" height="1.762"/>
							<rect x="420.336" y="281.358" fill-rule="evenodd" clip-rule="evenodd" width="1.05" height="1.763"/>
						</g>
					</g>
					<g>
						<g>
							<g>
								
									<rect x="416.008" y="264.348" transform="matrix(-0.0037 1 -1 -0.0037 691.9089 -150.1568)" fill="none" width="9.494" height="10.499"/>
							</g>
							<rect x="420.396" y="265.552" fill-rule="evenodd" clip-rule="evenodd" width="1.05" height="1.762"/>
							<rect x="420.384" y="268.713" fill-rule="evenodd" clip-rule="evenodd" width="1.05" height="1.763"/>
							<rect x="420.372" y="271.864" fill-rule="evenodd" clip-rule="evenodd" width="1.05" height="1.762"/>
						</g>
					</g>
					<g>
						<g>
							<g>
								
									<rect x="416.043" y="254.854" transform="matrix(-0.0037 1 -1 -0.0037 682.4501 -159.7218)" fill="none" width="9.495" height="10.499"/>
							</g>
							<rect x="420.431" y="256.058" fill-rule="evenodd" clip-rule="evenodd" width="1.05" height="1.763"/>
							<rect x="420.419" y="259.219" fill-rule="evenodd" clip-rule="evenodd" width="1.05" height="1.762"/>
							<rect x="420.408" y="262.369" fill-rule="evenodd" clip-rule="evenodd" width="1.05" height="1.762"/>
						</g>
					</g>
					<g>
						<g>
							<g>
								
									<rect x="416.079" y="245.359" transform="matrix(-0.0038 1 -1 -0.0038 673.0345 -169.2608)" fill="none" width="9.495" height="10.499"/>
							</g>
							<rect x="420.467" y="246.563" fill-rule="evenodd" clip-rule="evenodd" width="1.05" height="1.762"/>
							<rect x="420.455" y="249.724" fill-rule="evenodd" clip-rule="evenodd" width="1.05" height="1.762"/>
							<rect x="420.443" y="252.875" fill-rule="evenodd" clip-rule="evenodd" width="1.05" height="1.763"/>
						</g>
					</g>
					<g>
						<g>
							<g>
								
									<rect x="416.115" y="235.864" transform="matrix(-0.0037 1 -1 -0.0037 663.5326 -178.8521)" fill="none" width="9.494" height="10.499"/>
							</g>
							<rect x="420.502" y="237.069" fill-rule="evenodd" clip-rule="evenodd" width="1.05" height="1.762"/>
							<rect x="420.491" y="240.229" fill-rule="evenodd" clip-rule="evenodd" width="1.05" height="1.763"/>
							<rect x="420.479" y="243.38" fill-rule="evenodd" clip-rule="evenodd" width="1.05" height="1.762"/>
						</g>
					</g>
					<g>
						<g>
							<g>
								
									<rect x="416.15" y="226.37" transform="matrix(-0.0038 1 -1 -0.0038 654.1169 -188.3931)" fill="none" width="9.495" height="10.5"/>
							</g>
							<rect x="420.538" y="227.574" fill-rule="evenodd" clip-rule="evenodd" width="1.05" height="1.763"/>
							<rect x="420.526" y="230.735" fill-rule="evenodd" clip-rule="evenodd" width="1.05" height="1.762"/>
							<rect x="420.514" y="233.886" fill-rule="evenodd" clip-rule="evenodd" width="1.05" height="1.762"/>
						</g>
					</g>
					<g>
						<g>
							<g>
								
									<rect x="416.186" y="216.876" transform="matrix(-0.0037 1 -1 -0.0037 644.6154 -197.9825)" fill="none" width="9.495" height="10.499"/>
							</g>
							<rect x="420.573" y="218.08" fill-rule="evenodd" clip-rule="evenodd" width="1.05" height="1.762"/>
							<rect x="420.561" y="221.241" fill-rule="evenodd" clip-rule="evenodd" width="1.05" height="1.762"/>
							<rect x="420.55" y="224.391" fill-rule="evenodd" clip-rule="evenodd" width="1.05" height="1.763"/>
						</g>
					</g>
				</g>
			</g>
		</g>
		<line fill="none" stroke="#000000" stroke-miterlimit="10" x1="386.594" y1="297.324" x2="391.681" y2="327.006"/>
		<line fill="none" stroke="#000000" stroke-miterlimit="10" x1="420.951" y1="217.378" x2="386.594" y2="297.324"/>
		<line fill="none" stroke="#000000" stroke-miterlimit="10" x1="455.308" y1="297.324" x2="420.951" y2="217.378"/>
		<line fill="none" stroke="#000000" stroke-miterlimit="10" x1="455.308" y1="297.324" x2="450.281" y2="326.648"/>
	</g>
</g>
<g id="Layer_25">
</g>
<g id="Layer_26">
</g>
<g id="Layer_27">
</g>
<g id="Layer_28">
</g>
<g id="Layer_29">
</g>
<g id="Layer_30">
</g>
<g id="Layer_31">
</g>
<g id="Layer_32">
</g>
<g id="Layer_33">
</g>
<g id="Layer_34">
</g>
<g id="Layer_35">
</g>
<g id="Layer_36">
</g>
<g id="Layer_37">
</g>
<g id="Layer_38">
</g>
<g id="Layer_39">
</g>
<g id="Layer_40">
</g>
<g id="Layer_41">
</g>
<g id="Layer_43">
</g>
</svg>
