<?xml version="1.0" encoding="utf-8"?>
<!-- Generator: Adobe Illustrator 16.0.0, SVG Export Plug-In . SVG Version: 6.00 Build 0)  -->
<!DOCTYPE svg PUBLIC "-//W3C//DTD SVG 1.1//EN" "http://www.w3.org/Graphics/SVG/1.1/DTD/svg11.dtd">
<svg version="1.1" xmlns="http://www.w3.org/2000/svg" xmlns:xlink="http://www.w3.org/1999/xlink" x="0px" y="0px"
	 width="841.89px" height="595.28px" viewBox="0 0 841.89 595.28" enable-background="new 0 0 841.89 595.28" xml:space="preserve">
<g id="Layer_1">
</g>
<g id="Layer_2">
</g>
<g id="Layer_3">
</g>
<g id="Layer_4">
</g>
<g id="Layer_5">
</g>
<g id="Layer_6">
</g>
<g id="Layer_7">
</g>
<g id="Layer_8">
</g>
<g id="Layer_9">
</g>
<g id="Layer_10">
</g>
<g id="Layer_11">
</g>
<g id="Layer_12">
</g>
<g id="Layer_13">
</g>
<g id="Layer_14">
</g>
<g id="Layer_15">
</g>
<g id="Layer_16">
	<g>
		<g>
			
				<rect x="349.824" y="326.677" transform="matrix(0.7071 -0.7071 0.7071 0.7071 -157.8887 413.9163)" fill="none" stroke="#000000" stroke-miterlimit="10" width="141.732" height="141.733"/>
			<line fill="none" stroke="#000000" stroke-miterlimit="10" x1="420.794" y1="297.052" x2="337.427" y2="400.24"/>
			<line fill="none" stroke="#000000" stroke-miterlimit="10" x1="475.265" y1="363.959" x2="420.794" y2="297.052"/>
			<g>
				<g>
					<g>
						<g>
							<g>
								<g>
									
										<rect x="415.497" y="410.496" transform="matrix(-0.0039 1 -1 -0.0039 837.627 -2.8657)" fill="none" width="9.488" height="10.499"/>
								</g>
								<rect x="419.882" y="411.703" fill-rule="evenodd" clip-rule="evenodd" width="1.05" height="1.761"/>
								<rect x="419.87" y="414.862" fill-rule="evenodd" clip-rule="evenodd" width="1.05" height="1.761"/>
								<rect x="419.857" y="418.011" fill-rule="evenodd" clip-rule="evenodd" width="1.05" height="1.761"/>
							</g>
						</g>
						<g>
							<g>
								<g>
									
										<rect x="415.534" y="401.008" transform="matrix(-0.0039 1 -1 -0.0039 828.1761 -12.4285)" fill="none" width="9.489" height="10.499"/>
								</g>
								<rect x="419.919" y="402.215" fill-rule="evenodd" clip-rule="evenodd" width="1.05" height="1.761"/>
								<rect x="419.907" y="405.374" fill-rule="evenodd" clip-rule="evenodd" width="1.05" height="1.761"/>
								<rect x="419.894" y="408.522" fill-rule="evenodd" clip-rule="evenodd" width="1.05" height="1.761"/>
							</g>
						</g>
						<g>
							<g>
								<g>
									
										<rect x="415.571" y="391.519" transform="matrix(-0.004 1 -1 -0.004 818.7464 -21.9709)" fill="none" width="9.488" height="10.499"/>
								</g>
								<rect x="419.957" y="392.726" fill-rule="evenodd" clip-rule="evenodd" width="1.05" height="1.761"/>
								<rect x="419.944" y="395.885" fill-rule="evenodd" clip-rule="evenodd" width="1.05" height="1.761"/>
								<rect x="419.932" y="399.034" fill-rule="evenodd" clip-rule="evenodd" width="1.05" height="1.761"/>
							</g>
						</g>
						<g>
							<g>
								<g>
									
										<rect x="415.608" y="382.031" transform="matrix(-0.0039 1 -1 -0.0039 809.274 -31.5542)" fill="none" width="9.489" height="10.499"/>
								</g>
								<rect x="419.994" y="383.238" fill-rule="evenodd" clip-rule="evenodd" width="1.05" height="1.761"/>
								<rect x="419.981" y="386.397" fill-rule="evenodd" clip-rule="evenodd" width="1.05" height="1.761"/>
								<rect x="419.969" y="389.545" fill-rule="evenodd" clip-rule="evenodd" width="1.05" height="1.761"/>
							</g>
						</g>
						<g>
							<g>
								<g>
									
										<rect x="415.646" y="372.542" transform="matrix(-0.004 1 -1 -0.004 799.8445 -41.0978)" fill="none" width="9.488" height="10.499"/>
								</g>
								<rect x="420.031" y="373.749" fill-rule="evenodd" clip-rule="evenodd" width="1.05" height="1.761"/>
								<rect x="420.019" y="376.908" fill-rule="evenodd" clip-rule="evenodd" width="1.05" height="1.761"/>
								<rect x="420.006" y="380.057" fill-rule="evenodd" clip-rule="evenodd" width="1.05" height="1.761"/>
							</g>
						</g>
						<g>
							<g>
								<g>
									
										<rect x="415.683" y="363.054" transform="matrix(-0.0039 1 -1 -0.0039 790.3721 -50.6802)" fill="none" width="9.489" height="10.499"/>
								</g>
								<rect x="420.068" y="364.261" fill-rule="evenodd" clip-rule="evenodd" width="1.05" height="1.761"/>
								<rect x="420.056" y="367.42" fill-rule="evenodd" clip-rule="evenodd" width="1.05" height="1.761"/>
								<rect x="420.043" y="370.568" fill-rule="evenodd" clip-rule="evenodd" width="1.05" height="1.761"/>
							</g>
						</g>
						<g>
							<g>
								<g>
									
										<rect x="415.72" y="353.565" transform="matrix(-0.0039 1 -1 -0.0039 780.921 -60.2429)" fill="none" width="9.488" height="10.499"/>
								</g>
								<rect x="420.105" y="354.772" fill-rule="evenodd" clip-rule="evenodd" width="1.05" height="1.761"/>
								<rect x="420.093" y="357.931" fill-rule="evenodd" clip-rule="evenodd" width="1.05" height="1.761"/>
								<rect x="420.081" y="361.08" fill-rule="evenodd" clip-rule="evenodd" width="1.05" height="1.761"/>
							</g>
						</g>
						<g>
							<g>
								<g>
									
										<rect x="415.757" y="344.077" transform="matrix(-0.0039 1 -1 -0.0039 771.4697 -69.8057)" fill="none" width="9.489" height="10.499"/>
								</g>
								<rect x="420.143" y="345.284" fill-rule="evenodd" clip-rule="evenodd" width="1.05" height="1.761"/>
								<rect x="420.13" y="348.443" fill-rule="evenodd" clip-rule="evenodd" width="1.05" height="1.761"/>
								<rect x="420.118" y="351.591" fill-rule="evenodd" clip-rule="evenodd" width="1.05" height="1.761"/>
							</g>
						</g>
						<g>
							<g>
								<g>
									
										<rect x="415.795" y="334.588" transform="matrix(-0.004 1 -1 -0.004 762.0404 -79.351)" fill="none" width="9.488" height="10.499"/>
								</g>
								<rect x="420.18" y="335.795" fill-rule="evenodd" clip-rule="evenodd" width="1.05" height="1.761"/>
								<rect x="420.167" y="338.954" fill-rule="evenodd" clip-rule="evenodd" width="1.05" height="1.761"/>
								<rect x="420.155" y="342.103" fill-rule="evenodd" clip-rule="evenodd" width="1.05" height="1.761"/>
							</g>
						</g>
						<g>
							<g>
								<g>
									
										<rect x="415.832" y="325.1" transform="matrix(-0.0039 1 -1 -0.0039 752.5679 -88.9316)" fill="none" width="9.488" height="10.499"/>
								</g>
								<rect x="420.217" y="326.307" fill-rule="evenodd" clip-rule="evenodd" width="1.05" height="1.761"/>
								<rect x="420.205" y="329.466" fill-rule="evenodd" clip-rule="evenodd" width="1.05" height="1.761"/>
								<rect x="420.192" y="332.614" fill-rule="evenodd" clip-rule="evenodd" width="1.05" height="1.761"/>
							</g>
						</g>
						<g>
							<g>
								<g>
									
										<rect x="415.869" y="315.612" transform="matrix(-0.0039 1 -1 -0.0039 743.1171 -98.4944)" fill="none" width="9.489" height="10.499"/>
								</g>
								<rect x="420.254" y="316.818" fill-rule="evenodd" clip-rule="evenodd" width="1.05" height="1.761"/>
								<rect x="420.242" y="319.977" fill-rule="evenodd" clip-rule="evenodd" width="1.05" height="1.761"/>
								<rect x="420.229" y="323.126" fill-rule="evenodd" clip-rule="evenodd" width="1.05" height="1.761"/>
							</g>
						</g>
						<g>
							<g>
								<g>
									
										<rect x="415.906" y="306.123" transform="matrix(-0.004 1 -1 -0.004 733.6874 -108.0412)" fill="none" width="9.488" height="10.499"/>
								</g>
								<rect x="420.292" y="307.33" fill-rule="evenodd" clip-rule="evenodd" width="1.05" height="1.761"/>
								<rect x="420.28" y="310.489" fill-rule="evenodd" clip-rule="evenodd" width="1.05" height="1.761"/>
								<rect x="420.267" y="313.637" fill-rule="evenodd" clip-rule="evenodd" width="1.05" height="1.761"/>
							</g>
						</g>
						<g>
							<g>
								<g>
									
										<rect x="415.944" y="296.634" transform="matrix(-0.0039 1 -1 -0.0039 724.215 -117.6201)" fill="none" width="9.489" height="10.499"/>
								</g>
								<rect x="420.329" y="297.841" fill-rule="evenodd" clip-rule="evenodd" width="1.05" height="1.761"/>
								<rect x="420.316" y="301" fill-rule="evenodd" clip-rule="evenodd" width="1.05" height="1.761"/>
								<rect x="420.304" y="304.149" fill-rule="evenodd" clip-rule="evenodd" width="1.05" height="1.761"/>
							</g>
						</g>
					</g>
				</g>
			</g>
			<path fill="none" stroke="#000000" stroke-miterlimit="10" d="M420.691,296.968"/>
			<line fill="none" stroke="#000000" stroke-miterlimit="10" x1="420.222" y1="420.681" x2="475.171" y2="363.843"/>
		</g>
		<g>
			<g>
				<g>
					<g>
						<g>
							<g>
								
									<rect x="364.448" y="361.456" transform="matrix(-0.6914 -0.7225 0.7225 -0.6914 359.8433 887.1168)" fill="none" width="9.88" height="10.499"/>
							</g>
							
								<rect x="371.028" y="368.273" transform="matrix(0.7225 -0.6914 0.6914 0.7225 -152.1411 359.3235)" fill-rule="evenodd" clip-rule="evenodd" width="1.05" height="1.834"/>
							
								<rect x="368.755" y="365.897" transform="matrix(0.7227 -0.6911 0.6911 0.7227 -151.126 356.9172)" fill-rule="evenodd" clip-rule="evenodd" width="1.05" height="1.834"/>
							
								<rect x="366.488" y="363.528" transform="matrix(0.7223 -0.6916 0.6916 0.7223 -150.1238 355.0339)" fill-rule="evenodd" clip-rule="evenodd" width="1.05" height="1.834"/>
						</g>
					</g>
					<g>
						<g>
							<g>
								
									<rect x="371.279" y="368.593" transform="matrix(-0.6914 -0.7225 0.7225 -0.6914 366.2404 904.1251)" fill="none" width="9.88" height="10.499"/>
							</g>
							
								<rect x="377.859" y="375.411" transform="matrix(0.7225 -0.6914 0.6914 0.7225 -155.1804 366.0269)" fill-rule="evenodd" clip-rule="evenodd" width="1.05" height="1.834"/>
							
								<rect x="375.585" y="373.035" transform="matrix(0.7225 -0.6914 0.6914 0.7225 -154.1686 363.7955)" fill-rule="evenodd" clip-rule="evenodd" width="1.05" height="1.834"/>
							
								<rect x="373.319" y="370.666" transform="matrix(0.7225 -0.6913 0.6913 0.7225 -153.16 361.5634)" fill-rule="evenodd" clip-rule="evenodd" width="1.05" height="1.834"/>
						</g>
					</g>
					<g>
						<g>
							<g>
								
									<rect x="378.11" y="375.732" transform="matrix(-0.6914 -0.7225 0.7225 -0.6914 372.6557 921.1343)" fill="none" width="9.88" height="10.499"/>
							</g>
							
								<rect x="384.69" y="382.549" transform="matrix(0.7225 -0.6914 0.6914 0.7225 -158.22 372.7304)" fill-rule="evenodd" clip-rule="evenodd" width="1.05" height="1.834"/>
							
								<rect x="382.417" y="380.173" transform="matrix(0.7225 -0.6914 0.6914 0.7225 -157.2079 370.4989)" fill-rule="evenodd" clip-rule="evenodd" width="1.05" height="1.834"/>
							
								<rect x="380.15" y="377.804" transform="matrix(0.7223 -0.6916 0.6916 0.7223 -156.2029 368.4471)" fill-rule="evenodd" clip-rule="evenodd" width="1.05" height="1.834"/>
						</g>
					</g>
					<g>
						<g>
							<g>
								
									<rect x="384.941" y="382.87" transform="matrix(-0.6914 -0.7225 0.7225 -0.6914 379.0341 938.1422)" fill="none" width="9.88" height="10.499"/>
							</g>
							
								<rect x="391.522" y="389.687" transform="matrix(0.7227 -0.6911 0.6911 0.7227 -161.2557 379.248)" fill-rule="evenodd" clip-rule="evenodd" width="1.05" height="1.834"/>
							
								<rect x="389.248" y="387.311" transform="matrix(0.7225 -0.6914 0.6914 0.7225 -160.2474 377.2024)" fill-rule="evenodd" clip-rule="evenodd" width="1.05" height="1.834"/>
							
								<rect x="386.981" y="384.942" transform="matrix(0.7223 -0.6916 0.6916 0.7223 -159.2424 375.1537)" fill-rule="evenodd" clip-rule="evenodd" width="1.05" height="1.834"/>
						</g>
					</g>
					<g>
						<g>
							<g>
								
									<rect x="391.772" y="390.008" transform="matrix(-0.6914 -0.7225 0.7225 -0.6914 385.4309 955.151)" fill="none" width="9.88" height="10.499"/>
							</g>
							
								<rect x="398.353" y="396.825" transform="matrix(0.7225 -0.6914 0.6914 0.7225 -164.2988 386.1374)" fill-rule="evenodd" clip-rule="evenodd" width="1.05" height="1.834"/>
							
								<rect x="396.079" y="394.449" transform="matrix(0.7227 -0.6911 0.6911 0.7227 -163.2831 383.7177)" fill-rule="evenodd" clip-rule="evenodd" width="1.05" height="1.834"/>
							
								<rect x="393.812" y="392.081" transform="matrix(0.7223 -0.6916 0.6916 0.7223 -162.282 381.8604)" fill-rule="evenodd" clip-rule="evenodd" width="1.05" height="1.834"/>
						</g>
					</g>
					<g>
						<g>
							<g>
								
									<rect x="398.603" y="397.146" transform="matrix(-0.6914 -0.7225 0.7225 -0.6914 391.8279 972.1594)" fill="none" width="9.88" height="10.499"/>
							</g>
							
								<rect x="405.184" y="403.963" transform="matrix(0.7225 -0.6914 0.6914 0.7225 -167.3381 392.8408)" fill-rule="evenodd" clip-rule="evenodd" width="1.05" height="1.834"/>
							
								<rect x="402.91" y="401.587" transform="matrix(0.7225 -0.6914 0.6914 0.7225 -166.3263 390.6093)" fill-rule="evenodd" clip-rule="evenodd" width="1.05" height="1.834"/>
							
								<rect x="400.643" y="399.219" transform="matrix(0.7225 -0.6913 0.6913 0.7225 -165.3177 388.3766)" fill-rule="evenodd" clip-rule="evenodd" width="1.05" height="1.834"/>
						</g>
					</g>
					<g>
						<g>
							<g>
								
									<rect x="405.434" y="404.284" transform="matrix(-0.6914 -0.7225 0.7225 -0.6914 398.2447 989.1686)" fill="none" width="9.88" height="10.499"/>
							</g>
							
								<rect x="412.015" y="411.102" transform="matrix(0.7225 -0.6914 0.6914 0.7225 -170.3777 399.5443)" fill-rule="evenodd" clip-rule="evenodd" width="1.05" height="1.834"/>
							
								<rect x="409.741" y="408.725" transform="matrix(0.7225 -0.6914 0.6914 0.7225 -169.3657 397.3127)" fill-rule="evenodd" clip-rule="evenodd" width="1.05" height="1.834"/>
							
								<rect x="407.474" y="406.357" transform="matrix(0.7223 -0.6916 0.6916 0.7223 -168.3612 395.2736)" fill-rule="evenodd" clip-rule="evenodd" width="1.05" height="1.834"/>
						</g>
					</g>
					<g>
						<g>
							<g>
								
									<rect x="412.265" y="411.422" transform="matrix(-0.6914 -0.7225 0.7225 -0.6914 404.6217 1006.1765)" fill="none" width="9.88" height="10.499"/>
							</g>
							
								<rect x="418.846" y="418.24" transform="matrix(0.7227 -0.6911 0.6911 0.7227 -173.4128 406.0486)" fill-rule="evenodd" clip-rule="evenodd" width="1.05" height="1.834"/>
							
								<rect x="416.572" y="415.863" transform="matrix(0.7225 -0.6914 0.6914 0.7225 -172.4052 404.0162)" fill-rule="evenodd" clip-rule="evenodd" width="1.05" height="1.834"/>
							
								<rect x="414.305" y="413.495" transform="matrix(0.7223 -0.6916 0.6916 0.7223 -171.4006 401.9802)" fill-rule="evenodd" clip-rule="evenodd" width="1.05" height="1.834"/>
						</g>
					</g>
				</g>
			</g>
		</g>
	</g>
	<line fill="none" stroke="#000000" stroke-miterlimit="10" x1="420.222" y1="420.49" x2="337.427" y2="400.24"/>
	<line fill="none" stroke="#000000" stroke-miterlimit="10" x1="420.691" y1="497.765" x2="337.427" y2="400.24"/>
	<line fill="none" stroke="#000000" stroke-miterlimit="10" x1="420.691" y1="497.765" x2="475.265" y2="363.959"/>
	<g>
		<g>
			<g>
				<g>
					<g>
						<g>
							
								<rect x="382.985" y="411.122" transform="matrix(-0.3765 -0.9264 0.9264 -0.3765 147.8315 932.2334)" fill="none" width="9.249" height="10.499"/>
						</g>
						
							<rect x="388.103" y="418.427" transform="matrix(0.9263 -0.3767 0.3767 0.9263 -129.3105 177.2695)" fill-rule="evenodd" clip-rule="evenodd" width="1.05" height="1.717"/>
						
							<rect x="386.944" y="415.574" transform="matrix(0.9263 -0.3767 0.3767 0.9263 -128.3214 176.6227)" fill-rule="evenodd" clip-rule="evenodd" width="1.05" height="1.717"/>
						
							<rect x="385.788" y="412.732" transform="matrix(0.9263 -0.3767 0.3767 0.9263 -127.3357 175.9782)" fill-rule="evenodd" clip-rule="evenodd" width="1.05" height="1.717"/>
					</g>
				</g>
				<g>
					<g>
						<g>
							
								<rect x="386.468" y="419.69" transform="matrix(-0.3765 -0.9264 0.9264 -0.3765 144.6729 947.246)" fill="none" width="9.248" height="10.499"/>
						</g>
						
							<rect x="391.585" y="426.995" transform="matrix(0.9265 -0.3763 0.3763 0.9265 -132.174 178.9864)" fill-rule="evenodd" clip-rule="evenodd" width="1.05" height="1.717"/>
						
							<rect x="390.426" y="424.142" transform="matrix(0.9263 -0.3767 0.3767 0.9263 -131.2922 178.5655)" fill-rule="evenodd" clip-rule="evenodd" width="1.05" height="1.717"/>
						
							<rect x="389.271" y="421.299" transform="matrix(0.9265 -0.3763 0.3763 0.9265 -130.2011 177.6968)" fill-rule="evenodd" clip-rule="evenodd" width="1.05" height="1.717"/>
					</g>
				</g>
				<g>
					<g>
						<g>
							
								<rect x="389.95" y="428.257" transform="matrix(-0.3765 -0.9264 0.9264 -0.3765 141.5444 962.2727)" fill="none" width="9.249" height="10.499"/>
						</g>
						
							<rect x="395.068" y="435.562" transform="matrix(0.9263 -0.3767 0.3767 0.9263 -135.252 181.155)" fill-rule="evenodd" clip-rule="evenodd" width="1.05" height="1.717"/>
						
							<rect x="393.908" y="432.71" transform="matrix(0.9265 -0.3763 0.3763 0.9265 -134.1539 180.2805)" fill-rule="evenodd" clip-rule="evenodd" width="1.05" height="1.717"/>
						
							<rect x="392.753" y="429.867" transform="matrix(0.9263 -0.3767 0.3767 0.9263 -133.2772 179.8636)" fill-rule="evenodd" clip-rule="evenodd" width="1.05" height="1.717"/>
					</g>
				</g>
				<g>
					<g>
						<g>
							
								<rect x="393.432" y="436.825" transform="matrix(-0.3766 -0.9264 0.9264 -0.3766 138.4113 977.2975)" fill="none" width="9.248" height="10.499"/>
						</g>
						
							<rect x="398.55" y="444.13" transform="matrix(0.9265 -0.3763 0.3763 0.9265 -138.1098 182.8662)" fill-rule="evenodd" clip-rule="evenodd" width="1.05" height="1.717"/>
						
							<rect x="397.391" y="441.278" transform="matrix(0.9263 -0.3767 0.3767 0.9263 -137.2337 182.4509)" fill-rule="evenodd" clip-rule="evenodd" width="1.05" height="1.717"/>
						
							<rect x="396.235" y="438.435" transform="matrix(0.9264 -0.3765 0.3765 0.9264 -136.2029 181.713)" fill-rule="evenodd" clip-rule="evenodd" width="1.05" height="1.717"/>
					</g>
				</g>
				<g>
					<g>
						<g>
							
								<rect x="396.915" y="445.393" transform="matrix(-0.3765 -0.9264 0.9264 -0.3765 135.2308 992.2991)" fill="none" width="9.248" height="10.499"/>
						</g>
						
							<rect x="402.032" y="452.698" transform="matrix(0.9263 -0.3767 0.3767 0.9263 -141.1934 185.0403)" fill-rule="evenodd" clip-rule="evenodd" width="1.05" height="1.717"/>
						
							<rect x="400.872" y="449.845" transform="matrix(0.9264 -0.3765 0.3765 0.9264 -140.1578 184.2988)" fill-rule="evenodd" clip-rule="evenodd" width="1.05" height="1.716"/>
						
							<rect x="399.717" y="447.002" transform="matrix(0.9265 -0.3763 0.3763 0.9265 -139.1049 183.5166)" fill-rule="evenodd" clip-rule="evenodd" width="1.05" height="1.717"/>
					</g>
				</g>
				<g>
					<g>
						<g>
							
								<rect x="400.396" y="453.961" transform="matrix(-0.3765 -0.9264 0.9264 -0.3765 132.113 1007.3317)" fill="none" width="9.249" height="10.499"/>
						</g>
						
							<rect x="405.514" y="461.265" transform="matrix(0.9263 -0.3767 0.3767 0.9263 -144.1642 186.9831)" fill-rule="evenodd" clip-rule="evenodd" width="1.05" height="1.716"/>
						
							<rect x="404.355" y="458.413" transform="matrix(0.9263 -0.3767 0.3767 0.9263 -143.1752 186.3364)" fill-rule="evenodd" clip-rule="evenodd" width="1.05" height="1.717"/>
						
							<rect x="403.2" y="455.57" transform="matrix(0.9263 -0.3767 0.3767 0.9263 -142.1895 185.6918)" fill-rule="evenodd" clip-rule="evenodd" width="1.05" height="1.717"/>
					</g>
				</g>
				<g>
					<g>
						<g>
							
								<rect x="403.879" y="462.528" transform="matrix(-0.3765 -0.9264 0.9264 -0.3765 128.9535 1022.3434)" fill="none" width="9.248" height="10.499"/>
						</g>
						
							<rect x="408.997" y="469.833" transform="matrix(0.9265 -0.3763 0.3763 0.9265 -147.0135 188.6861)" fill-rule="evenodd" clip-rule="evenodd" width="1.05" height="1.717"/>
						
							<rect x="407.837" y="466.981" transform="matrix(0.9263 -0.3767 0.3767 0.9263 -146.146 188.2791)" fill-rule="evenodd" clip-rule="evenodd" width="1.05" height="1.717"/>
						
							<rect x="406.682" y="464.138" transform="matrix(0.9265 -0.3763 0.3763 0.9265 -145.0406 187.3965)" fill-rule="evenodd" clip-rule="evenodd" width="1.05" height="1.717"/>
					</g>
				</g>
				<g>
					<g>
						<g>
							
								<rect x="407.361" y="471.096" transform="matrix(-0.3765 -0.9264 0.9264 -0.3765 125.8259 1037.3711)" fill="none" width="9.249" height="10.499"/>
						</g>
						
							<rect x="412.479" y="478.401" transform="matrix(0.9263 -0.3767 0.3767 0.9263 -150.1058 190.8686)" fill-rule="evenodd" clip-rule="evenodd" width="1.05" height="1.717"/>
						
							<rect x="411.32" y="475.548" transform="matrix(0.9265 -0.3763 0.3763 0.9265 -148.9934 189.9802)" fill-rule="evenodd" clip-rule="evenodd" width="1.05" height="1.717"/>
						
							<rect x="410.164" y="472.705" transform="matrix(0.9263 -0.3767 0.3767 0.9263 -148.1309 189.5772)" fill-rule="evenodd" clip-rule="evenodd" width="1.05" height="1.717"/>
					</g>
				</g>
				<g>
					<g>
						<g>
							
								<rect x="410.843" y="479.664" transform="matrix(-0.3766 -0.9264 0.9264 -0.3766 122.6935 1052.3965)" fill="none" width="9.248" height="10.499"/>
						</g>
						
							<rect x="415.961" y="486.968" transform="matrix(0.9265 -0.3763 0.3763 0.9265 -152.9493 192.5659)" fill-rule="evenodd" clip-rule="evenodd" width="1.05" height="1.717"/>
						
							<rect x="414.802" y="484.116" transform="matrix(0.9263 -0.3767 0.3767 0.9263 -152.0875 192.1646)" fill-rule="evenodd" clip-rule="evenodd" width="1.05" height="1.717"/>
						
							<rect x="413.646" y="481.273" transform="matrix(0.9264 -0.3765 0.3765 0.9264 -151.0508 191.421)" fill-rule="evenodd" clip-rule="evenodd" width="1.05" height="1.716"/>
					</g>
				</g>
				<g>
					<g>
						<g>
							
								<rect x="414.326" y="488.231" transform="matrix(-0.3765 -0.9264 0.9264 -0.3765 119.5108 1067.3958)" fill="none" width="9.248" height="10.499"/>
						</g>
						
							<rect x="419.443" y="495.536" transform="matrix(0.9263 -0.3767 0.3767 0.9263 -156.0472 194.754)" fill-rule="evenodd" clip-rule="evenodd" width="1.05" height="1.717"/>
						
							<rect x="418.284" y="492.684" transform="matrix(0.9264 -0.3765 0.3765 0.9264 -155.0057 194.0068)" fill-rule="evenodd" clip-rule="evenodd" width="1.05" height="1.716"/>
						
							<rect x="417.128" y="489.841" transform="matrix(0.9265 -0.3763 0.3763 0.9265 -153.9444 193.2163)" fill-rule="evenodd" clip-rule="evenodd" width="1.05" height="1.717"/>
					</g>
				</g>
			</g>
		</g>
	</g>
	<line fill="none" stroke="#000000" stroke-miterlimit="10" x1="420.691" y1="497.765" x2="420.222" y2="420.49"/>
</g>
<g id="Layer_17">
</g>
<g id="Layer_18">
</g>
<g id="Layer_19">
</g>
<g id="Layer_20">
</g>
<g id="Layer_21">
</g>
<g id="Layer_22">
</g>
<g id="Layer_24">
</g>
<g id="Layer_25">
</g>
<g id="Layer_26">
</g>
<g id="Layer_27">
</g>
<g id="Layer_28">
</g>
<g id="Layer_29">
</g>
<g id="Layer_30">
</g>
<g id="Layer_31">
</g>
<g id="Layer_32">
</g>
<g id="Layer_33">
</g>
<g id="Layer_34">
</g>
<g id="Layer_35">
</g>
<g id="Layer_36">
</g>
<g id="Layer_37">
</g>
<g id="Layer_38">
</g>
<g id="Layer_39">
</g>
<g id="Layer_40">
</g>
<g id="Layer_41">
</g>
<g id="Layer_43">
</g>
</svg>
