<?xml version="1.0" encoding="utf-8"?>
<!-- Generator: Adobe Illustrator 16.0.0, SVG Export Plug-In . SVG Version: 6.00 Build 0)  -->
<!DOCTYPE svg PUBLIC "-//W3C//DTD SVG 1.1//EN" "http://www.w3.org/Graphics/SVG/1.1/DTD/svg11.dtd">
<svg version="1.1" xmlns="http://www.w3.org/2000/svg" xmlns:xlink="http://www.w3.org/1999/xlink" x="0px" y="0px"
	 width="841.89px" height="595.28px" viewBox="0 0 841.89 595.28" enable-background="new 0 0 841.89 595.28" xml:space="preserve">
<g id="Layer_1">
</g>
<g id="Layer_2">
</g>
<g id="Layer_3">
</g>
<g id="Layer_4">
</g>
<g id="Layer_5">
</g>
<g id="Layer_6">
</g>
<g id="Layer_7">
</g>
<g id="Layer_8">
</g>
<g id="Layer_9">
</g>
<g id="Layer_10">
</g>
<g id="Layer_11">
</g>
<g id="Layer_12">
</g>
<g id="Layer_13">
</g>
<g id="Layer_14">
</g>
<g id="Layer_15">
</g>
<g id="Layer_16">
</g>
<g id="Layer_17">
</g>
<g id="Layer_18">
</g>
<g id="Layer_19">
</g>
<g id="Layer_20">
</g>
<g id="Layer_21">
</g>
<g id="Layer_22">
</g>
<g id="Layer_24">
</g>
<g id="Layer_25">
</g>
<g id="Layer_26">
</g>
<g id="Layer_27">
</g>
<g id="Layer_28">
</g>
<g id="Layer_29">
</g>
<g id="Layer_30">
</g>
<g id="Layer_31">
	<g>
		<line fill="none" stroke="#000000" stroke-miterlimit="10" x1="420.885" y1="446.74" x2="420.885" y2="166.355"/>
		<path fill="none" stroke="#000000" stroke-miterlimit="10" d="M420.885,245.945"/>
		<line fill="none" stroke="#000000" stroke-miterlimit="10" x1="420.885" y1="446.74" x2="481.131" y2="306.549"/>
		<line fill="none" stroke="#000000" stroke-miterlimit="10" x1="360.637" y1="306.549" x2="420.885" y2="446.74"/>
		<line fill="none" stroke="#000000" stroke-miterlimit="10" x1="420.885" y1="166.355" x2="360.637" y2="306.549"/>
		<line fill="none" stroke="#000000" stroke-miterlimit="10" x1="481.133" y1="306.549" x2="420.885" y2="166.355"/>
		<path fill="none" stroke="#000000" stroke-miterlimit="10" d="M481.25,306.666"/>
		<path fill="none" stroke="#000000" stroke-miterlimit="10" d="M481.25,306.666"/>
		<g>
			<g>
				<g>
					<g>
						<g>
							<g>
								
									<rect x="360.637" y="301.304" transform="matrix(-1 -0.0011 0.0011 -1 730.2289 613.4907)" fill="none" width="9.278" height="10.499"/>
							</g>
							<rect x="367.507" y="306.186" fill-rule="evenodd" clip-rule="evenodd" width="1.722" height="1.05"/>
							<rect x="364.418" y="306.183" fill-rule="evenodd" clip-rule="evenodd" width="1.722" height="1.05"/>
							<rect x="361.339" y="306.178" fill-rule="evenodd" clip-rule="evenodd" width="1.723" height="1.051"/>
						</g>
					</g>
					<g>
						<g>
							<g>
								
									<rect x="369.916" y="301.313" transform="matrix(-1 -9.473879e-004 9.473879e-004 -1 748.8177 613.4797)" fill="none" width="9.277" height="10.499"/>
							</g>
							<rect x="376.785" y="306.194" fill-rule="evenodd" clip-rule="evenodd" width="1.722" height="1.05"/>
							<rect x="373.696" y="306.191" fill-rule="evenodd" clip-rule="evenodd" width="1.723" height="1.05"/>
							<rect x="370.618" y="306.188" fill-rule="evenodd" clip-rule="evenodd" width="1.723" height="1.05"/>
						</g>
					</g>
					<g>
						<g>
							<g>
								
									<rect x="379.193" y="301.322" transform="matrix(-1 -0.0011 0.0011 -1 767.3412 613.5474)" fill="none" width="9.278" height="10.499"/>
							</g>
							<rect x="386.063" y="306.203" fill-rule="evenodd" clip-rule="evenodd" width="1.723" height="1.051"/>
							<rect x="382.974" y="306.2" fill-rule="evenodd" clip-rule="evenodd" width="1.723" height="1.05"/>
							<rect x="379.896" y="306.197" fill-rule="evenodd" clip-rule="evenodd" width="1.722" height="1.05"/>
						</g>
					</g>
					<g>
						<g>
							<g>
								
									<rect x="388.471" y="301.332" transform="matrix(-1 -9.471495e-004 9.471495e-004 -1 785.9292 613.5343)" fill="none" width="9.278" height="10.499"/>
							</g>
							<rect x="395.341" y="306.213" fill-rule="evenodd" clip-rule="evenodd" width="1.722" height="1.05"/>
							<rect x="392.252" y="306.21" fill-rule="evenodd" clip-rule="evenodd" width="1.723" height="1.05"/>
							<rect x="389.174" y="306.207" fill-rule="evenodd" clip-rule="evenodd" width="1.722" height="1.05"/>
						</g>
					</g>
					<g>
						<g>
							<g>
								
									<rect x="397.75" y="301.34" transform="matrix(-1 -9.473879e-004 9.473879e-004 -1 804.4857 613.5608)" fill="none" width="9.277" height="10.499"/>
							</g>
							<rect x="404.62" y="306.222" fill-rule="evenodd" clip-rule="evenodd" width="1.722" height="1.05"/>
							<rect x="401.531" y="306.219" fill-rule="evenodd" clip-rule="evenodd" width="1.722" height="1.05"/>
							<rect x="398.452" y="306.216" fill-rule="evenodd" clip-rule="evenodd" width="1.723" height="1.05"/>
						</g>
					</g>
					<g>
						<g>
							<g>
								
									<rect x="407.027" y="301.35" transform="matrix(-1 -0.0011 0.0011 -1 823.0092 613.6313)" fill="none" width="9.278" height="10.499"/>
							</g>
							<rect x="413.897" y="306.231" fill-rule="evenodd" clip-rule="evenodd" width="1.723" height="1.05"/>
							<rect x="410.809" y="306.228" fill-rule="evenodd" clip-rule="evenodd" width="1.722" height="1.05"/>
							<rect x="407.73" y="306.224" fill-rule="evenodd" clip-rule="evenodd" width="1.722" height="1.051"/>
						</g>
					</g>
					<g>
						<g>
							<g>
								
									<rect x="416.305" y="301.359" transform="matrix(-1 -9.471495e-004 9.471495e-004 -1 841.598 613.6154)" fill="none" width="9.278" height="10.499"/>
							</g>
							<rect x="423.175" y="306.24" fill-rule="evenodd" clip-rule="evenodd" width="1.723" height="1.05"/>
							<rect x="420.087" y="306.237" fill-rule="evenodd" clip-rule="evenodd" width="1.723" height="1.05"/>
							<rect x="417.008" y="306.234" fill-rule="evenodd" clip-rule="evenodd" width="1.722" height="1.05"/>
						</g>
					</g>
					<g>
						<g>
							<g>
								
									<rect x="425.583" y="301.368" transform="matrix(-1 -0.0011 0.0011 -1 860.1223 613.688)" fill="none" width="9.278" height="10.499"/>
							</g>
							<rect x="432.454" y="306.249" fill-rule="evenodd" clip-rule="evenodd" width="1.723" height="1.051"/>
							<rect x="429.365" y="306.246" fill-rule="evenodd" clip-rule="evenodd" width="1.722" height="1.05"/>
							<rect x="426.286" y="306.243" fill-rule="evenodd" clip-rule="evenodd" width="1.723" height="1.05"/>
						</g>
					</g>
					<g>
						<g>
							<g>
								
									<rect x="434.861" y="301.377" transform="matrix(-1 -9.471495e-004 9.471495e-004 -1 878.7103 613.67)" fill="none" width="9.278" height="10.499"/>
							</g>
							<rect x="441.732" y="306.259" fill-rule="evenodd" clip-rule="evenodd" width="1.722" height="1.05"/>
							<rect x="438.643" y="306.256" fill-rule="evenodd" clip-rule="evenodd" width="1.723" height="1.05"/>
							<rect x="435.564" y="306.251" fill-rule="evenodd" clip-rule="evenodd" width="1.723" height="1.051"/>
						</g>
					</g>
					<g>
						<g>
							<g>
								
									<rect x="444.14" y="301.386" transform="matrix(-1 -9.473879e-004 9.473879e-004 -1 897.2669 613.6965)" fill="none" width="9.277" height="10.499"/>
							</g>
							<rect x="451.01" y="306.268" fill-rule="evenodd" clip-rule="evenodd" width="1.722" height="1.05"/>
							<rect x="447.921" y="306.265" fill-rule="evenodd" clip-rule="evenodd" width="1.722" height="1.05"/>
							<rect x="444.842" y="306.262" fill-rule="evenodd" clip-rule="evenodd" width="1.723" height="1.05"/>
						</g>
					</g>
					<g>
						<g>
							<g>
								
									<rect x="453.417" y="301.396" transform="matrix(-1 -0.0011 0.0011 -1 915.7903 613.772)" fill="none" width="9.278" height="10.499"/>
							</g>
							<rect x="460.288" y="306.277" fill-rule="evenodd" clip-rule="evenodd" width="1.723" height="1.05"/>
							<rect x="457.199" y="306.273" fill-rule="evenodd" clip-rule="evenodd" width="1.722" height="1.051"/>
							<rect x="454.121" y="306.271" fill-rule="evenodd" clip-rule="evenodd" width="1.722" height="1.05"/>
						</g>
					</g>
					<g>
						<g>
							<g>
								
									<rect x="462.695" y="301.405" transform="matrix(-1 -9.471495e-004 9.471495e-004 -1 934.3783 613.7511)" fill="none" width="9.278" height="10.499"/>
							</g>
							<rect x="469.566" y="306.286" fill-rule="evenodd" clip-rule="evenodd" width="1.722" height="1.05"/>
							<rect x="466.477" y="306.283" fill-rule="evenodd" clip-rule="evenodd" width="1.723" height="1.05"/>
							<rect x="463.399" y="306.28" fill-rule="evenodd" clip-rule="evenodd" width="1.722" height="1.05"/>
						</g>
					</g>
					<g>
						<g>
							<g>
								
									<rect x="471.974" y="301.415" transform="matrix(-1 -9.471495e-004 9.471495e-004 -1 952.9349 613.7784)" fill="none" width="9.278" height="10.498"/>
							</g>
							<rect x="478.844" y="306.294" fill-rule="evenodd" clip-rule="evenodd" width="1.722" height="1.051"/>
							<rect x="475.755" y="306.292" fill-rule="evenodd" clip-rule="evenodd" width="1.722" height="1.05"/>
							<rect x="472.677" y="306.289" fill-rule="evenodd" clip-rule="evenodd" width="1.723" height="1.05"/>
						</g>
					</g>
				</g>
			</g>
		</g>
	</g>
</g>
<g id="Layer_32">
</g>
<g id="Layer_33">
</g>
<g id="Layer_34">
</g>
<g id="Layer_35">
</g>
<g id="Layer_36">
</g>
<g id="Layer_37">
</g>
<g id="Layer_38">
</g>
<g id="Layer_39">
</g>
<g id="Layer_40">
</g>
<g id="Layer_41">
</g>
<g id="Layer_43">
</g>
</svg>
