<?xml version="1.0" encoding="utf-8"?>
<!-- Generator: Adobe Illustrator 16.0.0, SVG Export Plug-In . SVG Version: 6.00 Build 0)  -->
<!DOCTYPE svg PUBLIC "-//W3C//DTD SVG 1.1//EN" "http://www.w3.org/Graphics/SVG/1.1/DTD/svg11.dtd">
<svg version="1.1" xmlns="http://www.w3.org/2000/svg" xmlns:xlink="http://www.w3.org/1999/xlink" x="0px" y="0px"
	 width="841.89px" height="595.28px" viewBox="0 0 841.89 595.28" enable-background="new 0 0 841.89 595.28" xml:space="preserve">
<g id="Layer_1">
</g>
<g id="Layer_2">
</g>
<g id="Layer_3">
</g>
<g id="Layer_4">
</g>
<g id="Layer_5">
</g>
<g id="Layer_6">
</g>
<g id="Layer_7">
</g>
<g id="Layer_8">
</g>
<g id="Layer_9">
</g>
<g id="Layer_10">
</g>
<g id="Layer_11">
</g>
<g id="Layer_12">
</g>
<g id="Layer_13">
</g>
<g id="Layer_14">
</g>
<g id="Layer_15">
</g>
<g id="Layer_16">
</g>
<g id="Layer_17">
</g>
<g id="Layer_18">
</g>
<g id="Layer_19">
</g>
<g id="Layer_20">
</g>
<g id="Layer_21">
</g>
<g id="Layer_22">
</g>
<g id="Layer_24">
</g>
<g id="Layer_25">
</g>
<g id="Layer_26">
</g>
<g id="Layer_27">
</g>
<g id="Layer_28">
</g>
<g id="Layer_29">
</g>
<g id="Layer_30">
</g>
<g id="Layer_31">
	<g>
		<line fill="none" stroke="#000000" stroke-miterlimit="10" x1="420.885" y1="497.764" x2="420.885" y2="217.379"/>
		<path fill="none" stroke="#000000" stroke-miterlimit="10" d="M420.885,296.969"/>
		<line fill="none" stroke="#000000" stroke-miterlimit="10" x1="420.885" y1="497.764" x2="481.131" y2="357.572"/>
		<line fill="none" stroke="#000000" stroke-miterlimit="10" x1="360.637" y1="357.572" x2="420.885" y2="497.764"/>
		<line fill="none" stroke="#000000" stroke-miterlimit="10" x1="420.885" y1="217.379" x2="360.637" y2="357.572"/>
		<line fill="none" stroke="#000000" stroke-miterlimit="10" x1="481.133" y1="357.572" x2="420.885" y2="217.379"/>
		<path fill="none" stroke="#000000" stroke-miterlimit="10" d="M481.25,357.689"/>
		<path fill="none" stroke="#000000" stroke-miterlimit="10" d="M481.25,357.689"/>
		<g>
			<g>
				<g>
					<g>
						<g>
							<g>
								
									<rect x="360.637" y="352.327" transform="matrix(-1 -0.0011 0.0011 -1 730.1752 715.5376)" fill="none" width="9.278" height="10.499"/>
							</g>
							<rect x="367.507" y="357.209" fill-rule="evenodd" clip-rule="evenodd" width="1.722" height="1.05"/>
							<rect x="364.418" y="357.206" fill-rule="evenodd" clip-rule="evenodd" width="1.722" height="1.05"/>
							<rect x="361.339" y="357.202" fill-rule="evenodd" clip-rule="evenodd" width="1.723" height="1.051"/>
						</g>
					</g>
					<g>
						<g>
							<g>
								
									<rect x="369.916" y="352.336" transform="matrix(-1 -9.473879e-004 9.473879e-004 -1 748.7694 715.5266)" fill="none" width="9.277" height="10.499"/>
							</g>
							<rect x="376.785" y="357.218" fill-rule="evenodd" clip-rule="evenodd" width="1.722" height="1.05"/>
							<rect x="373.696" y="357.215" fill-rule="evenodd" clip-rule="evenodd" width="1.723" height="1.05"/>
							<rect x="370.618" y="357.212" fill-rule="evenodd" clip-rule="evenodd" width="1.723" height="1.05"/>
						</g>
					</g>
					<g>
						<g>
							<g>
								
									<rect x="379.193" y="352.346" transform="matrix(-1 -0.0011 0.0011 -1 767.2875 715.5942)" fill="none" width="9.278" height="10.499"/>
							</g>
							<rect x="386.063" y="357.226" fill-rule="evenodd" clip-rule="evenodd" width="1.723" height="1.051"/>
							<rect x="382.974" y="357.224" fill-rule="evenodd" clip-rule="evenodd" width="1.723" height="1.05"/>
							<rect x="379.896" y="357.221" fill-rule="evenodd" clip-rule="evenodd" width="1.722" height="1.05"/>
						</g>
					</g>
					<g>
						<g>
							<g>
								
									<rect x="388.471" y="352.355" transform="matrix(-1 -9.471495e-004 9.471495e-004 -1 785.8809 715.5812)" fill="none" width="9.278" height="10.499"/>
							</g>
							<rect x="395.341" y="357.236" fill-rule="evenodd" clip-rule="evenodd" width="1.722" height="1.05"/>
							<rect x="392.252" y="357.233" fill-rule="evenodd" clip-rule="evenodd" width="1.723" height="1.05"/>
							<rect x="389.174" y="357.23" fill-rule="evenodd" clip-rule="evenodd" width="1.722" height="1.05"/>
						</g>
					</g>
					<g>
						<g>
							<g>
								
									<rect x="397.75" y="352.364" transform="matrix(-1 -9.473879e-004 9.473879e-004 -1 804.4374 715.6076)" fill="none" width="9.277" height="10.499"/>
							</g>
							<rect x="404.62" y="357.245" fill-rule="evenodd" clip-rule="evenodd" width="1.722" height="1.05"/>
							<rect x="401.531" y="357.242" fill-rule="evenodd" clip-rule="evenodd" width="1.722" height="1.05"/>
							<rect x="398.452" y="357.239" fill-rule="evenodd" clip-rule="evenodd" width="1.723" height="1.05"/>
						</g>
					</g>
					<g>
						<g>
							<g>
								
									<rect x="407.027" y="352.373" transform="matrix(-1 -0.0011 0.0011 -1 822.9554 715.6782)" fill="none" width="9.278" height="10.499"/>
							</g>
							<rect x="413.897" y="357.255" fill-rule="evenodd" clip-rule="evenodd" width="1.723" height="1.05"/>
							<rect x="410.809" y="357.251" fill-rule="evenodd" clip-rule="evenodd" width="1.722" height="1.05"/>
							<rect x="407.73" y="357.248" fill-rule="evenodd" clip-rule="evenodd" width="1.722" height="1.051"/>
						</g>
					</g>
					<g>
						<g>
							<g>
								
									<rect x="416.305" y="352.382" transform="matrix(-1 -9.471495e-004 9.471495e-004 -1 841.5497 715.6622)" fill="none" width="9.278" height="10.499"/>
							</g>
							<rect x="423.175" y="357.264" fill-rule="evenodd" clip-rule="evenodd" width="1.723" height="1.05"/>
							<rect x="420.087" y="357.261" fill-rule="evenodd" clip-rule="evenodd" width="1.723" height="1.05"/>
							<rect x="417.008" y="357.258" fill-rule="evenodd" clip-rule="evenodd" width="1.722" height="1.05"/>
						</g>
					</g>
					<g>
						<g>
							<g>
								
									<rect x="425.583" y="352.392" transform="matrix(-1 -0.0011 0.0011 -1 860.0686 715.7349)" fill="none" width="9.278" height="10.499"/>
							</g>
							<rect x="432.454" y="357.272" fill-rule="evenodd" clip-rule="evenodd" width="1.723" height="1.051"/>
							<rect x="429.365" y="357.27" fill-rule="evenodd" clip-rule="evenodd" width="1.722" height="1.05"/>
							<rect x="426.286" y="357.267" fill-rule="evenodd" clip-rule="evenodd" width="1.723" height="1.05"/>
						</g>
					</g>
					<g>
						<g>
							<g>
								
									<rect x="434.861" y="352.401" transform="matrix(-1 -9.471495e-004 9.471495e-004 -1 878.662 715.7169)" fill="none" width="9.278" height="10.499"/>
							</g>
							<rect x="441.732" y="357.282" fill-rule="evenodd" clip-rule="evenodd" width="1.722" height="1.05"/>
							<rect x="438.643" y="357.279" fill-rule="evenodd" clip-rule="evenodd" width="1.723" height="1.05"/>
							<rect x="435.564" y="357.275" fill-rule="evenodd" clip-rule="evenodd" width="1.723" height="1.051"/>
						</g>
					</g>
					<g>
						<g>
							<g>
								
									<rect x="444.14" y="352.41" transform="matrix(-1 -9.473879e-004 9.473879e-004 -1 897.2186 715.7433)" fill="none" width="9.277" height="10.499"/>
							</g>
							<rect x="451.01" y="357.291" fill-rule="evenodd" clip-rule="evenodd" width="1.722" height="1.05"/>
							<rect x="447.921" y="357.288" fill-rule="evenodd" clip-rule="evenodd" width="1.722" height="1.05"/>
							<rect x="444.842" y="357.285" fill-rule="evenodd" clip-rule="evenodd" width="1.723" height="1.05"/>
						</g>
					</g>
					<g>
						<g>
							<g>
								
									<rect x="453.417" y="352.419" transform="matrix(-1 -0.0011 0.0011 -1 915.7366 715.8188)" fill="none" width="9.278" height="10.499"/>
							</g>
							<rect x="460.288" y="357.3" fill-rule="evenodd" clip-rule="evenodd" width="1.723" height="1.05"/>
							<rect x="457.199" y="357.296" fill-rule="evenodd" clip-rule="evenodd" width="1.722" height="1.051"/>
							<rect x="454.121" y="357.294" fill-rule="evenodd" clip-rule="evenodd" width="1.722" height="1.05"/>
						</g>
					</g>
					<g>
						<g>
							<g>
								
									<rect x="462.695" y="352.428" transform="matrix(-1 -9.471495e-004 9.471495e-004 -1 934.33 715.7979)" fill="none" width="9.278" height="10.499"/>
							</g>
							<rect x="469.566" y="357.31" fill-rule="evenodd" clip-rule="evenodd" width="1.722" height="1.05"/>
							<rect x="466.477" y="357.307" fill-rule="evenodd" clip-rule="evenodd" width="1.723" height="1.05"/>
							<rect x="463.399" y="357.304" fill-rule="evenodd" clip-rule="evenodd" width="1.722" height="1.05"/>
						</g>
					</g>
					<g>
						<g>
							<g>
								
									<rect x="471.974" y="352.438" transform="matrix(-1 -9.471495e-004 9.471495e-004 -1 952.8866 715.8253)" fill="none" width="9.278" height="10.498"/>
							</g>
							<rect x="478.844" y="357.318" fill-rule="evenodd" clip-rule="evenodd" width="1.722" height="1.051"/>
							<rect x="475.755" y="357.315" fill-rule="evenodd" clip-rule="evenodd" width="1.722" height="1.05"/>
							<rect x="472.677" y="357.313" fill-rule="evenodd" clip-rule="evenodd" width="1.723" height="1.05"/>
						</g>
					</g>
				</g>
			</g>
		</g>
	</g>
</g>
<g id="Layer_32">
</g>
<g id="Layer_33">
</g>
<g id="Layer_34">
</g>
<g id="Layer_35">
</g>
<g id="Layer_36">
</g>
<g id="Layer_37">
</g>
<g id="Layer_38">
</g>
<g id="Layer_39">
</g>
<g id="Layer_40">
</g>
<g id="Layer_41">
</g>
<g id="Layer_43">
</g>
</svg>
