<?xml version="1.0" encoding="utf-8"?>
<!-- Generator: Adobe Illustrator 16.0.0, SVG Export Plug-In . SVG Version: 6.00 Build 0)  -->
<!DOCTYPE svg PUBLIC "-//W3C//DTD SVG 1.1//EN" "http://www.w3.org/Graphics/SVG/1.1/DTD/svg11.dtd">
<svg version="1.1" xmlns="http://www.w3.org/2000/svg" xmlns:xlink="http://www.w3.org/1999/xlink" x="0px" y="0px"
	 width="841.89px" height="595.28px" viewBox="0 0 841.89 595.28" enable-background="new 0 0 841.89 595.28" xml:space="preserve">
<g id="Layer_1">
</g>
<g id="Layer_2">
</g>
<g id="Layer_3">
</g>
<g id="Layer_4">
</g>
<g id="Layer_5">
</g>
<g id="Layer_6">
</g>
<g id="Layer_7">
</g>
<g id="Layer_8">
</g>
<g id="Layer_9">
</g>
<g id="Layer_10">
</g>
<g id="Layer_11">
</g>
<g id="Layer_12">
</g>
<g id="Layer_13">
</g>
<g id="Layer_14">
</g>
<g id="Layer_15">
</g>
<g id="Layer_16">
</g>
<g id="Layer_17">
</g>
<g id="Layer_18">
</g>
<g id="Layer_19">
</g>
<g id="Layer_20">
	<polyline fill="none" stroke="#000000" stroke-miterlimit="10" points="450.373,326.965 520.909,397.503 420.69,497.722 
		320.47,397.503 360.441,357.529 	"/>
	<line fill="none" stroke="#000000" stroke-miterlimit="10" x1="420.69" y1="497.722" x2="420.689" y2="217.337"/>
	<path fill="none" stroke="#000000" stroke-miterlimit="10" d="M420.69,296.927"/>
	<line fill="none" stroke="#000000" stroke-miterlimit="10" x1="360.442" y1="357.53" x2="420.69" y2="497.722"/>
	<line fill="none" stroke="#000000" stroke-miterlimit="10" x1="420.689" y1="217.337" x2="360.442" y2="357.53"/>
	<line fill="none" stroke="#000000" stroke-miterlimit="10" x1="455.046" y1="297.282" x2="420.689" y2="217.337"/>
	<line fill="none" stroke="#000000" stroke-miterlimit="10" x1="420.688" y1="342.516" x2="455.046" y2="297.282"/>
	<line fill="none" stroke="#000000" stroke-miterlimit="10" x1="420.688" y1="342.516" x2="450.373" y2="326.965"/>
	<path fill="none" stroke="#000000" stroke-miterlimit="10" d="M481.055,357.647"/>
	<g>
		<g>
			<g>
				<g>
					<g>
						<g>
							
								<rect x="360.441" y="352.29" transform="matrix(-1 -0.002 0.002 -1 730.2406 715.8045)" fill="none" width="10.07" height="10.499"/>
						</g>
						<rect x="367.897" y="357.175" fill-rule="evenodd" clip-rule="evenodd" width="1.869" height="1.05"/>
						<rect x="364.546" y="357.168" fill-rule="evenodd" clip-rule="evenodd" width="1.869" height="1.05"/>
						<rect x="361.204" y="357.162" fill-rule="evenodd" clip-rule="evenodd" width="1.869" height="1.05"/>
					</g>
				</g>
				<g>
					<g>
						<g>
							
								<rect x="370.511" y="352.31" transform="matrix(-1 -0.002 0.002 -1 750.3812 715.8646)" fill="none" width="10.07" height="10.499"/>
						</g>
						<rect x="377.968" y="357.195" fill-rule="evenodd" clip-rule="evenodd" width="1.869" height="1.05"/>
						<rect x="374.615" y="357.188" fill-rule="evenodd" clip-rule="evenodd" width="1.869" height="1.05"/>
						<rect x="371.274" y="357.182" fill-rule="evenodd" clip-rule="evenodd" width="1.869" height="1.05"/>
					</g>
				</g>
				<g>
					<g>
						<g>
							
								<rect x="380.582" y="352.33" transform="matrix(-1 -0.002 0.002 -1 770.5217 715.9246)" fill="none" width="10.069" height="10.499"/>
						</g>
						<rect x="388.038" y="357.215" fill-rule="evenodd" clip-rule="evenodd" width="1.869" height="1.05"/>
						<rect x="384.686" y="357.208" fill-rule="evenodd" clip-rule="evenodd" width="1.869" height="1.05"/>
						<rect x="381.344" y="357.202" fill-rule="evenodd" clip-rule="evenodd" width="1.869" height="1.05"/>
					</g>
				</g>
				<g>
					<g>
						<g>
							
								<rect x="390.651" y="352.35" transform="matrix(-1 -0.002 0.002 -1 790.6603 715.9847)" fill="none" width="10.07" height="10.499"/>
						</g>
						<rect x="398.108" y="357.235" fill-rule="evenodd" clip-rule="evenodd" width="1.869" height="1.05"/>
						<rect x="394.755" y="357.228" fill-rule="evenodd" clip-rule="evenodd" width="1.869" height="1.05"/>
						<rect x="391.414" y="357.222" fill-rule="evenodd" clip-rule="evenodd" width="1.869" height="1.05"/>
					</g>
				</g>
				<g>
					<g>
						<g>
							
								<rect x="400.721" y="352.37" transform="matrix(-1 -0.002 0.002 -1 810.8009 716.0447)" fill="none" width="10.07" height="10.499"/>
						</g>
						<rect x="408.178" y="357.255" fill-rule="evenodd" clip-rule="evenodd" width="1.869" height="1.05"/>
						<rect x="404.825" y="357.248" fill-rule="evenodd" clip-rule="evenodd" width="1.869" height="1.05"/>
						<rect x="401.484" y="357.242" fill-rule="evenodd" clip-rule="evenodd" width="1.869" height="1.05"/>
					</g>
				</g>
				<g>
					<g>
						<g>
							
								<rect x="410.792" y="352.39" transform="matrix(-1 -0.002 0.002 -1 830.9415 716.1048)" fill="none" width="10.069" height="10.499"/>
						</g>
						<rect x="418.248" y="357.275" fill-rule="evenodd" clip-rule="evenodd" width="1.869" height="1.05"/>
						<rect x="414.896" y="357.268" fill-rule="evenodd" clip-rule="evenodd" width="1.869" height="1.05"/>
						<rect x="411.554" y="357.262" fill-rule="evenodd" clip-rule="evenodd" width="1.869" height="1.05"/>
					</g>
				</g>
			</g>
		</g>
	</g>
	<line fill="none" stroke="#000000" stroke-miterlimit="10" x1="455.046" y1="297.282" x2="420.69" y2="497.722"/>
</g>
<g id="Layer_21">
</g>
<g id="Layer_22">
</g>
<g id="Layer_24">
</g>
<g id="Layer_25">
</g>
<g id="Layer_26">
</g>
<g id="Layer_27">
</g>
<g id="Layer_28">
</g>
<g id="Layer_29">
</g>
<g id="Layer_30">
</g>
<g id="Layer_31">
</g>
<g id="Layer_32">
</g>
<g id="Layer_33">
</g>
<g id="Layer_34">
</g>
<g id="Layer_35">
</g>
<g id="Layer_36">
</g>
<g id="Layer_37">
</g>
<g id="Layer_38">
</g>
<g id="Layer_39">
</g>
<g id="Layer_40">
</g>
<g id="Layer_41">
</g>
<g id="Layer_43">
</g>
</svg>
