<?xml version="1.0" encoding="utf-8"?>
<!-- Generator: Adobe Illustrator 16.0.0, SVG Export Plug-In . SVG Version: 6.00 Build 0)  -->
<!DOCTYPE svg PUBLIC "-//W3C//DTD SVG 1.1//EN" "http://www.w3.org/Graphics/SVG/1.1/DTD/svg11.dtd">
<svg version="1.1" xmlns="http://www.w3.org/2000/svg" xmlns:xlink="http://www.w3.org/1999/xlink" x="0px" y="0px"
	 width="841.89px" height="595.28px" viewBox="0 0 841.89 595.28" enable-background="new 0 0 841.89 595.28" xml:space="preserve">
<g id="Layer_1">
</g>
<g id="Layer_2">
</g>
<g id="Layer_3">
</g>
<g id="Layer_4">
</g>
<g id="Layer_5">
</g>
<g id="Layer_6">
</g>
<g id="Layer_7">
</g>
<g id="Layer_8">
</g>
<g id="Layer_9">
</g>
<g id="Layer_10">
</g>
<g id="Layer_11">
</g>
<g id="Layer_12">
</g>
<g id="Layer_13">
</g>
<g id="Layer_14">
</g>
<g id="Layer_15">
	<g>
		<g>
			
				<rect x="349.824" y="326.608" transform="matrix(0.7071 -0.7071 0.7071 0.7071 -157.8392 413.8897)" fill="none" stroke="#000000" stroke-miterlimit="10" width="141.731" height="141.732"/>
			<polyline id="pion_34_" fill="none" stroke="#000000" stroke-miterlimit="10" points="504.802,400.169 420.794,296.979 
				337.427,400.169 			"/>
			<g>
				<g>
					<g>
						<g>
							<g>
								<g>
									
										<rect x="415.496" y="410.426" transform="matrix(-0.0039 1 -1 -0.0039 837.5552 -2.9367)" fill="none" width="9.488" height="10.498"/>
								</g>
								<rect x="419.881" y="411.632" fill-rule="evenodd" clip-rule="evenodd" width="1.05" height="1.761"/>
								<rect x="419.868" y="414.791" fill-rule="evenodd" clip-rule="evenodd" width="1.051" height="1.761"/>
								<rect x="419.857" y="417.939" fill-rule="evenodd" clip-rule="evenodd" width="1.05" height="1.761"/>
							</g>
						</g>
						<g>
							<g>
								<g>
									
										<rect x="415.533" y="400.936" transform="matrix(-0.004 1 -1 -0.004 828.147 -12.4576)" fill="none" width="9.489" height="10.499"/>
								</g>
								<rect x="419.919" y="402.143" fill-rule="evenodd" clip-rule="evenodd" width="1.05" height="1.761"/>
								<rect x="419.906" y="405.302" fill-rule="evenodd" clip-rule="evenodd" width="1.051" height="1.761"/>
								<rect x="419.894" y="408.451" fill-rule="evenodd" clip-rule="evenodd" width="1.05" height="1.761"/>
							</g>
						</g>
						<g>
							<g>
								<g>
									
										<rect x="415.571" y="391.448" transform="matrix(-0.0039 1 -1 -0.0039 818.6532 -22.0628)" fill="none" width="9.489" height="10.499"/>
								</g>
								<rect x="419.956" y="392.655" fill-rule="evenodd" clip-rule="evenodd" width="1.05" height="1.761"/>
								<rect x="419.943" y="395.814" fill-rule="evenodd" clip-rule="evenodd" width="1.051" height="1.761"/>
								<rect x="419.931" y="398.962" fill-rule="evenodd" clip-rule="evenodd" width="1.05" height="1.761"/>
							</g>
						</g>
						<g>
							<g>
								<g>
									
										<rect x="415.608" y="381.959" transform="matrix(-0.0039 1 -1 -0.0039 809.2018 -31.6257)" fill="none" width="9.488" height="10.499"/>
								</g>
								<rect x="419.994" y="383.166" fill-rule="evenodd" clip-rule="evenodd" width="1.05" height="1.761"/>
								<rect x="419.981" y="386.325" fill-rule="evenodd" clip-rule="evenodd" width="1.05" height="1.761"/>
								<rect x="419.968" y="389.474" fill-rule="evenodd" clip-rule="evenodd" width="1.05" height="1.761"/>
							</g>
						</g>
						<g>
							<g>
								<g>
									
										<rect x="415.645" y="372.471" transform="matrix(-0.0039 1 -1 -0.0039 799.7509 -41.1883)" fill="none" width="9.489" height="10.499"/>
								</g>
								<rect x="420.031" y="373.678" fill-rule="evenodd" clip-rule="evenodd" width="1.05" height="1.761"/>
								<rect x="420.018" y="376.837" fill-rule="evenodd" clip-rule="evenodd" width="1.05" height="1.761"/>
								<rect x="420.005" y="379.985" fill-rule="evenodd" clip-rule="evenodd" width="1.051" height="1.761"/>
							</g>
						</g>
						<g>
							<g>
								<g>
									
										<rect x="415.682" y="362.982" transform="matrix(-0.0039 1 -1 -0.0039 790.2993 -50.7513)" fill="none" width="9.489" height="10.499"/>
								</g>
								<rect x="420.068" y="364.189" fill-rule="evenodd" clip-rule="evenodd" width="1.05" height="1.761"/>
								<rect x="420.055" y="367.348" fill-rule="evenodd" clip-rule="evenodd" width="1.05" height="1.761"/>
								<rect x="420.042" y="370.497" fill-rule="evenodd" clip-rule="evenodd" width="1.051" height="1.761"/>
							</g>
						</g>
						<g>
							<g>
								<g>
									
										<rect x="415.72" y="353.494" transform="matrix(-0.004 1 -1 -0.004 780.8918 -60.2773)" fill="none" width="9.488" height="10.499"/>
								</g>
								<rect x="420.105" y="354.7" fill-rule="evenodd" clip-rule="evenodd" width="1.05" height="1.761"/>
								<rect x="420.093" y="357.859" fill-rule="evenodd" clip-rule="evenodd" width="1.05" height="1.761"/>
								<rect x="420.08" y="361.008" fill-rule="evenodd" clip-rule="evenodd" width="1.051" height="1.761"/>
							</g>
						</g>
						<g>
							<g>
								<g>
									
										<rect x="415.757" y="344.005" transform="matrix(-0.0039 1 -1 -0.0039 771.3979 -69.8777)" fill="none" width="9.489" height="10.499"/>
								</g>
								<rect x="420.142" y="345.212" fill-rule="evenodd" clip-rule="evenodd" width="1.05" height="1.761"/>
								<rect x="420.13" y="348.371" fill-rule="evenodd" clip-rule="evenodd" width="1.05" height="1.761"/>
								<rect x="420.118" y="351.519" fill-rule="evenodd" clip-rule="evenodd" width="1.05" height="1.761"/>
							</g>
						</g>
						<g>
							<g>
								<g>
									
										<rect x="415.794" y="334.516" transform="matrix(-0.0039 1 -1 -0.0039 761.9466 -79.4407)" fill="none" width="9.488" height="10.499"/>
								</g>
								<rect x="420.179" y="335.723" fill-rule="evenodd" clip-rule="evenodd" width="1.051" height="1.761"/>
								<rect x="420.167" y="338.882" fill-rule="evenodd" clip-rule="evenodd" width="1.05" height="1.761"/>
								<rect x="420.155" y="342.031" fill-rule="evenodd" clip-rule="evenodd" width="1.05" height="1.761"/>
							</g>
						</g>
						<g>
							<g>
								<g>
									
										<rect x="415.831" y="325.028" transform="matrix(-0.0039 1 -1 -0.0039 752.4955 -89.0032)" fill="none" width="9.489" height="10.499"/>
								</g>
								<rect x="420.216" y="326.235" fill-rule="evenodd" clip-rule="evenodd" width="1.051" height="1.761"/>
								<rect x="420.205" y="329.394" fill-rule="evenodd" clip-rule="evenodd" width="1.05" height="1.761"/>
								<rect x="420.192" y="332.542" fill-rule="evenodd" clip-rule="evenodd" width="1.05" height="1.762"/>
							</g>
						</g>
						<g>
							<g>
								<g>
									
										<rect x="415.869" y="315.539" transform="matrix(-0.0039 1 -1 -0.0039 743.0442 -98.5662)" fill="none" width="9.488" height="10.499"/>
								</g>
								<rect x="420.253" y="316.746" fill-rule="evenodd" clip-rule="evenodd" width="1.051" height="1.761"/>
								<rect x="420.242" y="319.905" fill-rule="evenodd" clip-rule="evenodd" width="1.05" height="1.761"/>
								<rect x="420.229" y="323.053" fill-rule="evenodd" clip-rule="evenodd" width="1.05" height="1.761"/>
							</g>
						</g>
						<g>
							<g>
								<g>
									
										<rect x="415.906" y="306.051" transform="matrix(-0.0039 1 -1 -0.0039 733.5934 -108.1295)" fill="none" width="9.489" height="10.498"/>
								</g>
								<rect x="420.292" y="307.258" fill-rule="evenodd" clip-rule="evenodd" width="1.05" height="1.761"/>
								<rect x="420.279" y="310.417" fill-rule="evenodd" clip-rule="evenodd" width="1.05" height="1.761"/>
								<rect x="420.267" y="313.565" fill-rule="evenodd" clip-rule="evenodd" width="1.05" height="1.761"/>
							</g>
						</g>
						<g>
							<g>
								<g>
									
										<rect x="415.943" y="296.563" transform="matrix(-0.0039 1 -1 -0.0039 724.1422 -117.6922)" fill="none" width="9.489" height="10.498"/>
								</g>
								<rect x="420.329" y="297.769" fill-rule="evenodd" clip-rule="evenodd" width="1.05" height="1.761"/>
								<rect x="420.316" y="300.927" fill-rule="evenodd" clip-rule="evenodd" width="1.05" height="1.762"/>
								<rect x="420.304" y="304.076" fill-rule="evenodd" clip-rule="evenodd" width="1.05" height="1.761"/>
							</g>
						</g>
					</g>
				</g>
			</g>
			<path fill="none" stroke="#000000" stroke-miterlimit="10" d="M420.69,296.897"/>
			<g>
				<g>
					<g>
						<g>
							<g>
								<g>
									
										<rect x="466.795" y="362.075" transform="matrix(0.695 -0.719 0.719 0.695 -120.2332 451.1982)" fill="none" width="9.882" height="10.499"/>
								</g>
								
									<rect x="468.812" y="368.669" transform="matrix(0.7189 0.6952 -0.6952 0.7189 388.8651 -222.356)" fill-rule="evenodd" clip-rule="evenodd" width="1.05" height="1.834"/>
								
									<rect x="471.098" y="366.304" transform="matrix(0.7193 0.6947 -0.6947 0.7193 387.4814 -224.5562)" fill-rule="evenodd" clip-rule="evenodd" width="1.051" height="1.834"/>
								
									<rect x="473.377" y="363.946" transform="matrix(0.7193 0.6947 -0.6947 0.7193 386.4835 -226.8013)" fill-rule="evenodd" clip-rule="evenodd" width="1.051" height="1.834"/>
							</g>
						</g>
						<g>
							<g>
								<g>
									
										<rect x="459.927" y="369.18" transform="matrix(0.6951 -0.7189 0.7189 0.6951 -127.4437 448.3644)" fill="none" width="9.882" height="10.499"/>
								</g>
								
									<rect x="461.943" y="375.773" transform="matrix(0.7186 0.6954 -0.6954 0.7186 392.0579 -215.6055)" fill-rule="evenodd" clip-rule="evenodd" width="1.049" height="1.835"/>
								
									<rect x="464.23" y="373.409" transform="matrix(0.7189 0.6952 -0.6952 0.7189 390.8717 -217.8383)" fill-rule="evenodd" clip-rule="evenodd" width="1.05" height="1.834"/>
								
									<rect x="466.509" y="371.051" transform="matrix(0.7191 0.6949 -0.6949 0.7191 389.6754 -220.0598)" fill-rule="evenodd" clip-rule="evenodd" width="1.05" height="1.834"/>
							</g>
						</g>
						<g>
							<g>
								<g>
									
										<rect x="453.058" y="376.285" transform="matrix(0.695 -0.719 0.719 0.695 -134.6411 445.6343)" fill="none" width="9.882" height="10.499"/>
								</g>
								
									<rect x="455.074" y="382.878" transform="matrix(0.7189 0.6952 -0.6952 0.7189 394.8806 -208.8113)" fill-rule="evenodd" clip-rule="evenodd" width="1.05" height="1.835"/>
								
									<rect x="457.361" y="380.513" transform="matrix(0.7184 0.6956 -0.6956 0.7184 394.2625 -211.1071)" fill-rule="evenodd" clip-rule="evenodd" width="1.049" height="1.835"/>
								
									<rect x="459.64" y="378.155" transform="matrix(0.7184 0.6956 -0.6956 0.7184 393.2645 -213.3564)" fill-rule="evenodd" clip-rule="evenodd" width="1.049" height="1.835"/>
							</g>
						</g>
						<g>
							<g>
								<g>
									
										<rect x="446.19" y="383.389" transform="matrix(0.6951 -0.7189 0.7189 0.6951 -141.8475 442.8209)" fill="none" width="9.882" height="10.5"/>
								</g>
								
									<rect x="448.206" y="389.983" transform="matrix(0.7193 0.6947 -0.6947 0.7193 397.5054 -202.0066)" fill-rule="evenodd" clip-rule="evenodd" width="1.051" height="1.834"/>
								
									<rect x="450.492" y="387.617" transform="matrix(0.7189 0.6952 -0.6952 0.7189 396.8869 -204.2938)" fill-rule="evenodd" clip-rule="evenodd" width="1.05" height="1.835"/>
								
									<rect x="452.771" y="385.26" transform="matrix(0.7189 0.6952 -0.6952 0.7189 395.889 -206.541)" fill-rule="evenodd" clip-rule="evenodd" width="1.05" height="1.835"/>
							</g>
						</g>
						<g>
							<g>
								<g>
									
										<rect x="439.321" y="390.494" transform="matrix(0.695 -0.719 0.719 0.695 -149.0448 440.1112)" fill="none" width="9.882" height="10.499"/>
								</g>
								
									<rect x="441.337" y="397.088" transform="matrix(0.7191 0.6949 -0.6949 0.7191 400.6977 -195.2538)" fill-rule="evenodd" clip-rule="evenodd" width="1.05" height="1.834"/>
								
									<rect x="443.624" y="394.722" transform="matrix(0.7195 0.6944 -0.6944 0.7195 399.3132 -197.4783)" fill-rule="evenodd" clip-rule="evenodd" width="1.05" height="1.834"/>
								
									<rect x="445.903" y="392.365" transform="matrix(0.7193 0.6947 -0.6947 0.7193 398.5136 -199.7384)" fill-rule="evenodd" clip-rule="evenodd" width="1.051" height="1.834"/>
							</g>
						</g>
						<g>
							<g>
								<g>
									
										<rect x="432.452" y="397.598" transform="matrix(0.6951 -0.7189 0.7189 0.6951 -156.2512 437.2773)" fill="none" width="9.882" height="10.499"/>
								</g>
								
									<rect x="434.469" y="404.192" transform="matrix(0.7186 0.6954 -0.6954 0.7186 404.0891 -188.5048)" fill-rule="evenodd" clip-rule="evenodd" width="1.049" height="1.834"/>
								
									<rect x="436.755" y="401.827" transform="matrix(0.7191 0.6949 -0.6949 0.7191 402.7039 -190.7384)" fill-rule="evenodd" clip-rule="evenodd" width="1.05" height="1.834"/>
								
									<rect x="439.035" y="399.469" transform="matrix(0.7191 0.6949 -0.6949 0.7191 401.706 -192.9845)" fill-rule="evenodd" clip-rule="evenodd" width="1.05" height="1.834"/>
							</g>
						</g>
						<g>
							<g>
								<g>
									
										<rect x="425.584" y="404.703" transform="matrix(0.695 -0.719 0.719 0.695 -163.4514 434.5474)" fill="none" width="9.882" height="10.499"/>
								</g>
								
									<rect x="427.599" y="411.297" transform="matrix(0.7189 0.6952 -0.6952 0.7189 406.9116 -181.7229)" fill-rule="evenodd" clip-rule="evenodd" width="1.05" height="1.835"/>
								
									<rect x="429.886" y="408.931" transform="matrix(0.7184 0.6956 -0.6956 0.7184 406.2944 -183.9932)" fill-rule="evenodd" clip-rule="evenodd" width="1.049" height="1.835"/>
								
									<rect x="432.166" y="406.574" transform="matrix(0.7184 0.6956 -0.6956 0.7184 405.2964 -186.2424)" fill-rule="evenodd" clip-rule="evenodd" width="1.049" height="1.835"/>
							</g>
						</g>
						<g>
							<g>
								<g>
									
										<rect x="418.715" y="411.807" transform="matrix(0.6951 -0.7189 0.7189 0.6951 -170.655 431.7338)" fill="none" width="9.882" height="10.5"/>
								</g>
								
									<rect x="420.731" y="418.401" transform="matrix(0.7193 0.6947 -0.6947 0.7193 409.5355 -174.9437)" fill-rule="evenodd" clip-rule="evenodd" width="1.051" height="1.834"/>
								
									<rect x="423.017" y="416.036" transform="matrix(0.7189 0.6952 -0.6952 0.7189 408.9179 -177.2053)" fill-rule="evenodd" clip-rule="evenodd" width="1.05" height="1.835"/>
								
									<rect x="425.297" y="413.678" transform="matrix(0.7189 0.6952 -0.6952 0.7189 407.92 -179.4525)" fill-rule="evenodd" clip-rule="evenodd" width="1.05" height="1.835"/>
							</g>
						</g>
					</g>
				</g>
			</g>
		</g>
		<g>
			<g>
				<g>
					<g>
						<g>
							<g>
								
									<rect x="364.448" y="361.384" transform="matrix(-0.6913 -0.7225 0.7225 -0.6913 359.8572 886.9968)" fill="none" width="9.879" height="10.5"/>
							</g>
							
								<rect x="371.028" y="368.203" transform="matrix(0.7225 -0.6914 0.6914 0.7225 -152.0924 359.3038)" fill-rule="evenodd" clip-rule="evenodd" width="1.05" height="1.833"/>
							
								<rect x="368.754" y="365.827" transform="matrix(0.7225 -0.6914 0.6914 0.7225 -151.0807 357.072)" fill-rule="evenodd" clip-rule="evenodd" width="1.05" height="1.834"/>
							
								<rect x="366.487" y="363.458" transform="matrix(0.7225 -0.6914 0.6914 0.7225 -150.0723 354.8477)" fill-rule="evenodd" clip-rule="evenodd" width="1.05" height="1.833"/>
						</g>
					</g>
					<g>
						<g>
							<g>
								
									<rect x="371.278" y="368.523" transform="matrix(-0.6915 -0.7224 0.7224 -0.6915 366.3455 904.0066)" fill="none" width="9.88" height="10.498"/>
							</g>
							
								<rect x="377.859" y="375.341" transform="matrix(0.7223 -0.6916 0.6916 0.7223 -155.1352 366.1708)" fill-rule="evenodd" clip-rule="evenodd" width="1.049" height="1.834"/>
							
								<rect x="375.585" y="372.964" transform="matrix(0.7225 -0.6914 0.6914 0.7225 -154.1199 363.7757)" fill-rule="evenodd" clip-rule="evenodd" width="1.05" height="1.834"/>
							
								<rect x="373.318" y="370.596" transform="matrix(0.7225 -0.6914 0.6914 0.7225 -153.1115 361.5511)" fill-rule="evenodd" clip-rule="evenodd" width="1.05" height="1.833"/>
						</g>
					</g>
					<g>
						<g>
							<g>
								
									<rect x="378.11" y="375.66" transform="matrix(-0.6913 -0.7225 0.7225 -0.6913 372.6498 921.0134)" fill="none" width="9.879" height="10.5"/>
							</g>
							
								<rect x="384.69" y="382.479" transform="matrix(0.7225 -0.6914 0.6914 0.7225 -158.1711 372.7106)" fill-rule="evenodd" clip-rule="evenodd" width="1.05" height="1.833"/>
							
								<rect x="382.416" y="380.103" transform="matrix(0.7227 -0.6911 0.6911 0.7227 -157.156 370.2974)" fill-rule="evenodd" clip-rule="evenodd" width="1.05" height="1.834"/>
							
								<rect x="380.149" y="377.734" transform="matrix(0.7225 -0.6914 0.6914 0.7225 -156.1509 368.2546)" fill-rule="evenodd" clip-rule="evenodd" width="1.05" height="1.833"/>
						</g>
					</g>
					<g>
						<g>
							<g>
								
									<rect x="384.94" y="382.799" transform="matrix(-0.6915 -0.7224 0.7224 -0.6915 379.1416 938.0234)" fill="none" width="9.88" height="10.498"/>
							</g>
							
								<rect x="391.521" y="389.617" transform="matrix(0.7221 -0.6918 0.6918 0.7221 -161.2178 379.7697)" fill-rule="evenodd" clip-rule="evenodd" width="1.05" height="1.833"/>
							
								<rect x="389.247" y="387.24" transform="matrix(0.7225 -0.6914 0.6914 0.7225 -160.1986 377.1826)" fill-rule="evenodd" clip-rule="evenodd" width="1.05" height="1.834"/>
							
								<rect x="386.98" y="384.872" transform="matrix(0.7225 -0.6914 0.6914 0.7225 -159.1902 374.958)" fill-rule="evenodd" clip-rule="evenodd" width="1.05" height="1.834"/>
						</g>
					</g>
					<g>
						<g>
							<g>
								
									<rect x="391.772" y="389.936" transform="matrix(-0.6913 -0.7225 0.7225 -0.6913 385.4424 955.03)" fill="none" width="9.879" height="10.5"/>
							</g>
							
								<rect x="398.352" y="396.755" transform="matrix(0.7225 -0.6914 0.6914 0.7225 -164.2498 386.1175)" fill-rule="evenodd" clip-rule="evenodd" width="1.05" height="1.833"/>
							
								<rect x="396.078" y="394.378" transform="matrix(0.7225 -0.6914 0.6914 0.7225 -163.2381 383.8857)" fill-rule="evenodd" clip-rule="evenodd" width="1.05" height="1.834"/>
							
								<rect x="393.811" y="392.01" transform="matrix(0.7225 -0.6914 0.6914 0.7225 -162.2296 381.6614)" fill-rule="evenodd" clip-rule="evenodd" width="1.05" height="1.833"/>
						</g>
					</g>
					<g>
						<g>
							<g>
								
									<rect x="398.602" y="397.075" transform="matrix(-0.6915 -0.7224 0.7224 -0.6915 391.9376 972.0402)" fill="none" width="9.88" height="10.498"/>
							</g>
							
								<rect x="405.183" y="403.893" transform="matrix(0.7223 -0.6916 0.6916 0.7223 -167.2931 392.9967)" fill-rule="evenodd" clip-rule="evenodd" width="1.049" height="1.834"/>
							
								<rect x="402.909" y="401.516" transform="matrix(0.7225 -0.6914 0.6914 0.7225 -166.2773 390.5894)" fill-rule="evenodd" clip-rule="evenodd" width="1.05" height="1.834"/>
							
								<rect x="400.642" y="399.148" transform="matrix(0.7225 -0.6914 0.6914 0.7225 -165.2688 388.3647)" fill-rule="evenodd" clip-rule="evenodd" width="1.05" height="1.833"/>
						</g>
					</g>
					<g>
						<g>
							<g>
								
									<rect x="405.434" y="404.212" transform="matrix(-0.6913 -0.7225 0.7225 -0.6913 398.2349 989.0467)" fill="none" width="9.879" height="10.5"/>
							</g>
							
								<rect x="412.014" y="411.031" transform="matrix(0.7225 -0.6914 0.6914 0.7225 -170.3284 399.5243)" fill-rule="evenodd" clip-rule="evenodd" width="1.05" height="1.833"/>
							
								<rect x="409.74" y="408.654" transform="matrix(0.7227 -0.6911 0.6911 0.7227 -169.3127 397.0978)" fill-rule="evenodd" clip-rule="evenodd" width="1.05" height="1.834"/>
							
								<rect x="407.473" y="406.286" transform="matrix(0.7225 -0.6914 0.6914 0.7225 -168.3083 395.0682)" fill-rule="evenodd" clip-rule="evenodd" width="1.05" height="1.833"/>
						</g>
					</g>
					<g>
						<g>
							<g>
								
									<rect x="412.264" y="411.351" transform="matrix(-0.6915 -0.7224 0.7224 -0.6915 404.7337 1006.0569)" fill="none" width="9.88" height="10.498"/>
							</g>
							
								<rect x="418.845" y="418.169" transform="matrix(0.7221 -0.6918 0.6918 0.7221 -173.3762 406.6088)" fill-rule="evenodd" clip-rule="evenodd" width="1.05" height="1.833"/>
							
								<rect x="416.572" y="415.792" transform="matrix(0.7225 -0.6914 0.6914 0.7225 -172.356 403.9962)" fill-rule="evenodd" clip-rule="evenodd" width="1.05" height="1.834"/>
							
								<rect x="414.304" y="413.424" transform="matrix(0.7225 -0.6914 0.6914 0.7225 -171.3477 401.7717)" fill-rule="evenodd" clip-rule="evenodd" width="1.05" height="1.834"/>
						</g>
					</g>
				</g>
			</g>
		</g>
	</g>
	<line fill="none" stroke="#000000" stroke-miterlimit="10" x1="420.222" y1="420.419" x2="504.802" y2="400.169"/>
	<line fill="none" stroke="#000000" stroke-miterlimit="10" x1="420.222" y1="420.419" x2="337.427" y2="400.169"/>
	<line fill="none" stroke="#000000" stroke-miterlimit="10" x1="504.802" y1="400.169" x2="420.69" y2="497.692"/>
	<line fill="none" stroke="#000000" stroke-miterlimit="10" x1="420.69" y1="497.692" x2="337.427" y2="400.169"/>
	<g>
		<g>
			<g>
				<g>
					<g>
						<g>
							
								<rect x="417.806" y="488.156" transform="matrix(-0.3769 0.9263 -0.9263 -0.3769 1038.66 288.0615)" fill="none" width="9.256" height="10.498"/>
						</g>
						
							<rect x="423.214" y="489.747" transform="matrix(-0.9263 -0.3767 0.3767 -0.9263 631.4683 1104.6884)" fill-rule="evenodd" clip-rule="evenodd" width="1.05" height="1.718"/>
						
							<rect x="422.053" y="492.601" transform="matrix(-0.9263 -0.3767 0.3767 -0.9263 628.1564 1109.7498)" fill-rule="evenodd" clip-rule="evenodd" width="1.05" height="1.718"/>
						
							<rect x="420.895" y="495.446" transform="matrix(-0.9263 -0.3767 0.3767 -0.9263 624.8547 1114.7936)" fill-rule="evenodd" clip-rule="evenodd" width="1.05" height="1.718"/>
					</g>
				</g>
				<g>
					<g>
						<g>
							
								<rect x="421.294" y="479.582" transform="matrix(-0.3769 0.9263 -0.9263 -0.3769 1035.5248 273.0381)" fill="none" width="9.256" height="10.5"/>
						</g>
						
							<rect x="426.702" y="481.173" transform="matrix(-0.9262 -0.3771 0.3771 -0.9262 641.155 1089.5784)" fill-rule="evenodd" clip-rule="evenodd" width="1.05" height="1.718"/>
						
							<rect x="425.541" y="484.027" transform="matrix(-0.9263 -0.3767 0.3767 -0.9263 638.1046 1094.5476)" fill-rule="evenodd" clip-rule="evenodd" width="1.05" height="1.718"/>
						
							<rect x="424.384" y="486.872" transform="matrix(-0.9263 -0.3767 0.3767 -0.9263 634.8038 1099.5916)" fill-rule="evenodd" clip-rule="evenodd" width="1.05" height="1.718"/>
					</g>
				</g>
				<g>
					<g>
						<g>
							
								<rect x="424.782" y="471.009" transform="matrix(-0.3768 0.9263 -0.9263 -0.3768 1032.3601 257.9319)" fill="none" width="9.256" height="10.5"/>
						</g>
						
							<rect x="430.19" y="472.6" transform="matrix(-0.9263 -0.3767 0.3767 -0.9263 651.3655 1074.2852)" fill-rule="evenodd" clip-rule="evenodd" width="1.05" height="1.718"/>
						
							<rect x="429.029" y="475.454" transform="matrix(-0.9263 -0.3767 0.3767 -0.9263 648.0529 1079.3453)" fill-rule="evenodd" clip-rule="evenodd" width="1.05" height="1.718"/>
						
							<rect x="427.871" y="478.298" transform="matrix(-0.9262 -0.3771 0.3771 -0.9262 644.4915 1084.4825)" fill-rule="evenodd" clip-rule="evenodd" width="1.05" height="1.719"/>
					</g>
				</g>
				<g>
					<g>
						<g>
							
								<rect x="428.27" y="462.436" transform="matrix(-0.3768 0.9263 -0.9263 -0.3768 1029.2203 242.8974)" fill="none" width="9.256" height="10.498"/>
						</g>
						
							<rect x="433.678" y="464.026" transform="matrix(-0.9263 -0.3767 0.3767 -0.9263 661.3128 1059.0828)" fill-rule="evenodd" clip-rule="evenodd" width="1.05" height="1.718"/>
						
							<rect x="432.517" y="466.88" transform="matrix(-0.9263 -0.3767 0.3767 -0.9263 658.001 1064.1432)" fill-rule="evenodd" clip-rule="evenodd" width="1.05" height="1.718"/>
						
							<rect x="431.359" y="469.725" transform="matrix(-0.9263 -0.3767 0.3767 -0.9263 654.7001 1069.1881)" fill-rule="evenodd" clip-rule="evenodd" width="1.05" height="1.718"/>
					</g>
				</g>
				<g>
					<g>
						<g>
							
								<rect x="431.758" y="453.862" transform="matrix(-0.3769 0.9263 -0.9263 -0.3769 1026.1029 227.9203)" fill="none" width="9.256" height="10.498"/>
						</g>
						
							<rect x="437.166" y="455.452" transform="matrix(-0.9263 -0.3767 0.3767 -0.9263 671.262 1043.8807)" fill-rule="evenodd" clip-rule="evenodd" width="1.05" height="1.718"/>
						
							<rect x="436.005" y="458.306" transform="matrix(-0.9262 -0.3771 0.3771 -0.9262 667.6962 1049.0408)" fill-rule="evenodd" clip-rule="evenodd" width="1.05" height="1.718"/>
						
							<rect x="434.848" y="461.152" transform="matrix(-0.9263 -0.3767 0.3767 -0.9263 664.6492 1053.9861)" fill-rule="evenodd" clip-rule="evenodd" width="1.05" height="1.718"/>
					</g>
				</g>
				<g>
					<g>
						<g>
							
								<rect x="435.246" y="445.288" transform="matrix(-0.3769 0.9263 -0.9263 -0.3769 1022.9642 212.8844)" fill="none" width="9.256" height="10.498"/>
						</g>
						
							<rect x="440.654" y="446.879" transform="matrix(-0.9263 -0.3767 0.3767 -0.9263 681.2101 1028.6785)" fill-rule="evenodd" clip-rule="evenodd" width="1.05" height="1.718"/>
						
							<rect x="439.493" y="449.733" transform="matrix(-0.9263 -0.3767 0.3767 -0.9263 677.8982 1033.74)" fill-rule="evenodd" clip-rule="evenodd" width="1.05" height="1.718"/>
						
							<rect x="438.335" y="452.578" transform="matrix(-0.9263 -0.3767 0.3767 -0.9263 674.5965 1038.7837)" fill-rule="evenodd" clip-rule="evenodd" width="1.05" height="1.718"/>
					</g>
				</g>
				<g>
					<g>
						<g>
							
								<rect x="438.734" y="436.714" transform="matrix(-0.3769 0.9263 -0.9263 -0.3769 1019.8296 197.8604)" fill="none" width="9.256" height="10.5"/>
						</g>
						
							<rect x="444.141" y="438.305" transform="matrix(-0.9262 -0.3771 0.3771 -0.9262 690.9111 1013.5825)" fill-rule="evenodd" clip-rule="evenodd" width="1.05" height="1.718"/>
						
							<rect x="442.98" y="441.159" transform="matrix(-0.9263 -0.3767 0.3767 -0.9263 687.8464 1018.5377)" fill-rule="evenodd" clip-rule="evenodd" width="1.05" height="1.718"/>
						
							<rect x="441.823" y="444.004" transform="matrix(-0.9263 -0.3767 0.3767 -0.9263 684.5457 1023.5817)" fill-rule="evenodd" clip-rule="evenodd" width="1.05" height="1.718"/>
					</g>
				</g>
				<g>
					<g>
						<g>
							
								<rect x="442.222" y="428.14" transform="matrix(-0.3768 0.9263 -0.9263 -0.3768 1016.6611 182.7581)" fill="none" width="9.256" height="10.5"/>
						</g>
						
							<rect x="447.63" y="429.732" transform="matrix(-0.9263 -0.3767 0.3767 -0.9263 701.1074 998.2753)" fill-rule="evenodd" clip-rule="evenodd" width="1.05" height="1.718"/>
						
							<rect x="446.468" y="432.586" transform="matrix(-0.9263 -0.3767 0.3767 -0.9263 697.7947 1003.3355)" fill-rule="evenodd" clip-rule="evenodd" width="1.05" height="1.718"/>
						
							<rect x="445.311" y="435.43" transform="matrix(-0.9262 -0.3771 0.3771 -0.9262 694.2476 1008.4866)" fill-rule="evenodd" clip-rule="evenodd" width="1.05" height="1.719"/>
					</g>
				</g>
				<g>
					<g>
						<g>
							
								<rect x="445.71" y="419.567" transform="matrix(-0.3768 0.9263 -0.9263 -0.3768 1013.5213 167.7236)" fill="none" width="9.256" height="10.498"/>
						</g>
						
							<rect x="451.117" y="421.158" transform="matrix(-0.9263 -0.3767 0.3767 -0.9263 711.0546 983.0729)" fill-rule="evenodd" clip-rule="evenodd" width="1.05" height="1.718"/>
						
							<rect x="449.956" y="424.012" transform="matrix(-0.9263 -0.3767 0.3767 -0.9263 707.7429 988.1333)" fill-rule="evenodd" clip-rule="evenodd" width="1.05" height="1.718"/>
						
							<rect x="448.799" y="426.857" transform="matrix(-0.9263 -0.3767 0.3767 -0.9263 704.4419 993.1783)" fill-rule="evenodd" clip-rule="evenodd" width="1.05" height="1.718"/>
					</g>
				</g>
				<g>
					<g>
						<g>
							
								<rect x="449.197" y="410.994" transform="matrix(-0.3769 0.9263 -0.9263 -0.3769 1010.407 152.7432)" fill="none" width="9.256" height="10.498"/>
						</g>
						
							<rect x="454.605" y="412.584" transform="matrix(-0.9263 -0.3767 0.3767 -0.9263 721.0038 967.8709)" fill-rule="evenodd" clip-rule="evenodd" width="1.05" height="1.718"/>
						
							<rect x="453.444" y="415.438" transform="matrix(-0.9262 -0.3771 0.3771 -0.9262 717.4523 973.0449)" fill-rule="evenodd" clip-rule="evenodd" width="1.05" height="1.718"/>
						
							<rect x="452.287" y="418.283" transform="matrix(-0.9263 -0.3767 0.3767 -0.9263 714.3911 977.9763)" fill-rule="evenodd" clip-rule="evenodd" width="1.05" height="1.718"/>
					</g>
				</g>
			</g>
		</g>
	</g>
	<g>
		<g>
			<g>
				<g>
					<g>
						<g>
							
								<rect x="382.985" y="411.051" transform="matrix(-0.3766 -0.9264 0.9264 -0.3766 147.9077 932.1395)" fill="none" width="9.248" height="10.499"/>
						</g>
						
							<rect x="388.103" y="418.355" transform="matrix(0.9265 -0.3763 0.3763 0.9265 -129.1792 177.0411)" fill-rule="evenodd" clip-rule="evenodd" width="1.05" height="1.717"/>
						
							<rect x="386.943" y="415.503" transform="matrix(0.9265 -0.3764 0.3764 0.9265 -128.2106 176.4368)" fill-rule="evenodd" clip-rule="evenodd" width="1.051" height="1.717"/>
						
							<rect x="385.788" y="412.661" transform="matrix(0.9263 -0.3767 0.3767 0.9263 -127.3088 175.9727)" fill-rule="evenodd" clip-rule="evenodd" width="1.05" height="1.716"/>
					</g>
				</g>
				<g>
					<g>
						<g>
							
								<rect x="386.467" y="419.619" transform="matrix(-0.3765 -0.9264 0.9264 -0.3765 144.7534 947.1541)" fill="none" width="9.249" height="10.498"/>
						</g>
						
							<rect x="391.585" y="426.923" transform="matrix(0.9263 -0.3767 0.3767 0.9263 -132.2543 179.2068)" fill-rule="evenodd" clip-rule="evenodd" width="1.05" height="1.716"/>
						
							<rect x="390.425" y="424.071" transform="matrix(0.9263 -0.3767 0.3767 0.9263 -131.2653 178.5599)" fill-rule="evenodd" clip-rule="evenodd" width="1.05" height="1.716"/>
						
							<rect x="389.27" y="421.228" transform="matrix(0.9265 -0.3763 0.3763 0.9265 -130.1744 177.6913)" fill-rule="evenodd" clip-rule="evenodd" width="1.05" height="1.717"/>
					</g>
				</g>
				<g>
					<g>
						<g>
							
								<rect x="389.95" y="428.186" transform="matrix(-0.3765 -0.9264 0.9264 -0.3765 141.5688 962.1541)" fill="none" width="9.248" height="10.499"/>
						</g>
						
							<rect x="395.067" y="435.491" transform="matrix(0.9265 -0.3763 0.3763 0.9265 -135.1151 180.9207)" fill-rule="evenodd" clip-rule="evenodd" width="1.05" height="1.717"/>
						
							<rect x="393.908" y="432.638" transform="matrix(0.9263 -0.3767 0.3767 0.9263 -134.236 180.5027)" fill-rule="evenodd" clip-rule="evenodd" width="1.05" height="1.717"/>
						
							<rect x="392.752" y="429.796" transform="matrix(0.9263 -0.3767 0.3767 0.9263 -133.2502 179.8581)" fill-rule="evenodd" clip-rule="evenodd" width="1.05" height="1.716"/>
					</g>
				</g>
				<g>
					<g>
						<g>
							
								<rect x="393.431" y="436.754" transform="matrix(-0.3765 -0.9264 0.9264 -0.3765 138.4659 977.1931)" fill="none" width="9.249" height="10.499"/>
						</g>
						
							<rect x="398.549" y="444.058" transform="matrix(0.9263 -0.3767 0.3767 0.9263 -138.1957 183.0922)" fill-rule="evenodd" clip-rule="evenodd" width="1.05" height="1.716"/>
						
							<rect x="397.39" y="441.206" transform="matrix(0.9265 -0.3763 0.3763 0.9265 -137.0948 182.215)" fill-rule="evenodd" clip-rule="evenodd" width="1.05" height="1.717"/>
						
							<rect x="396.235" y="438.363" transform="matrix(0.9263 -0.3767 0.3767 0.9263 -136.2209 181.8009)" fill-rule="evenodd" clip-rule="evenodd" width="1.05" height="1.717"/>
					</g>
				</g>
				<g>
					<g>
						<g>
							
								<rect x="396.914" y="445.321" transform="matrix(-0.3766 -0.9264 0.9264 -0.3766 135.3334 992.2182)" fill="none" width="9.248" height="10.499"/>
						</g>
						
							<rect x="402.032" y="452.626" transform="matrix(0.9263 -0.3767 0.3767 0.9263 -141.1664 185.035)" fill-rule="evenodd" clip-rule="evenodd" width="1.05" height="1.717"/>
						
							<rect x="400.872" y="449.774" transform="matrix(0.9263 -0.3767 0.3767 0.9263 -140.1775 184.3883)" fill-rule="evenodd" clip-rule="evenodd" width="1.05" height="1.717"/>
						
							<rect x="399.716" y="446.931" transform="matrix(0.9266 -0.376 0.376 0.9266 -138.9855 183.3226)" fill-rule="evenodd" clip-rule="evenodd" width="1.051" height="1.717"/>
					</g>
				</g>
				<g>
					<g>
						<g>
							
								<rect x="400.396" y="453.889" transform="matrix(-0.3766 -0.9264 0.9264 -0.3766 132.1903 1007.2378)" fill="none" width="9.248" height="10.499"/>
						</g>
						
							<rect x="405.514" y="461.194" transform="matrix(0.9265 -0.3763 0.3763 0.9265 -144.0186 186.7406)" fill-rule="evenodd" clip-rule="evenodd" width="1.05" height="1.716"/>
						
							<rect x="404.355" y="458.341" transform="matrix(0.9263 -0.3767 0.3767 0.9263 -143.1481 186.3311)" fill-rule="evenodd" clip-rule="evenodd" width="1.05" height="1.717"/>
						
							<rect x="403.199" y="455.498" transform="matrix(0.9263 -0.3767 0.3767 0.9263 -142.1625 185.6861)" fill-rule="evenodd" clip-rule="evenodd" width="1.05" height="1.717"/>
					</g>
				</g>
				<g>
					<g>
						<g>
							
								<rect x="403.879" y="462.456" transform="matrix(-0.3765 -0.9264 0.9264 -0.3765 129.036 1022.2521)" fill="none" width="9.249" height="10.499"/>
						</g>
						
							<rect x="408.996" y="469.761" transform="matrix(0.9263 -0.3767 0.3767 0.9263 -147.1079 188.9202)" fill-rule="evenodd" clip-rule="evenodd" width="1.05" height="1.717"/>
						
							<rect x="407.837" y="466.909" transform="matrix(0.9263 -0.3767 0.3767 0.9263 -146.1189 188.2737)" fill-rule="evenodd" clip-rule="evenodd" width="1.05" height="1.716"/>
						
							<rect x="406.681" y="464.066" transform="matrix(0.9265 -0.3763 0.3763 0.9265 -145.0137 187.391)" fill-rule="evenodd" clip-rule="evenodd" width="1.05" height="1.717"/>
					</g>
				</g>
				<g>
					<g>
						<g>
							
								<rect x="407.361" y="471.024" transform="matrix(-0.3766 -0.9264 0.9264 -0.3766 125.9031 1037.2771)" fill="none" width="9.248" height="10.498"/>
						</g>
						
							<rect x="412.478" y="478.329" transform="matrix(0.9265 -0.3763 0.3763 0.9265 -149.9543 190.6204)" fill-rule="evenodd" clip-rule="evenodd" width="1.05" height="1.717"/>
						
							<rect x="411.319" y="475.476" transform="matrix(0.9263 -0.3767 0.3767 0.9263 -149.0897 190.2163)" fill-rule="evenodd" clip-rule="evenodd" width="1.05" height="1.717"/>
						
							<rect x="410.163" y="472.634" transform="matrix(0.9263 -0.3767 0.3767 0.9263 -148.1038 189.5717)" fill-rule="evenodd" clip-rule="evenodd" width="1.05" height="1.716"/>
					</g>
				</g>
				<g>
					<g>
						<g>
							
								<rect x="410.843" y="479.591" transform="matrix(-0.3764 -0.9264 0.9264 -0.3764 122.6931 1052.2626)" fill="none" width="9.248" height="10.499"/>
						</g>
						
							<rect x="415.96" y="486.896" transform="matrix(0.9263 -0.3767 0.3767 0.9263 -153.0493 192.8058)" fill-rule="evenodd" clip-rule="evenodd" width="1.05" height="1.716"/>
						
							<rect x="414.801" y="484.044" transform="matrix(0.9265 -0.3763 0.3763 0.9265 -151.9342 191.9147)" fill-rule="evenodd" clip-rule="evenodd" width="1.05" height="1.717"/>
						
							<rect x="413.646" y="481.201" transform="matrix(0.9263 -0.3767 0.3767 0.9263 -151.0746 191.5145)" fill-rule="evenodd" clip-rule="evenodd" width="1.05" height="1.717"/>
					</g>
				</g>
				<g>
					<g>
						<g>
							
								<rect x="414.325" y="488.159" transform="matrix(-0.3766 -0.9264 0.9264 -0.3766 119.616 1067.3165)" fill="none" width="9.248" height="10.499"/>
						</g>
						
							<rect x="419.443" y="495.464" transform="matrix(0.9263 -0.3767 0.3767 0.9263 -156.02 194.7486)" fill-rule="evenodd" clip-rule="evenodd" width="1.05" height="1.717"/>
						
							<rect x="418.284" y="492.612" transform="matrix(0.9263 -0.3767 0.3767 0.9263 -155.0311 194.1019)" fill-rule="evenodd" clip-rule="evenodd" width="1.05" height="1.717"/>
						
							<rect x="417.128" y="489.769" transform="matrix(0.9265 -0.3763 0.3763 0.9265 -153.9172 193.211)" fill-rule="evenodd" clip-rule="evenodd" width="1.05" height="1.717"/>
					</g>
				</g>
			</g>
		</g>
	</g>
	<line fill="none" stroke="#000000" stroke-miterlimit="10" x1="420.69" y1="497.692" x2="420.222" y2="420.419"/>
</g>
<g id="Layer_16">
</g>
<g id="Layer_17">
</g>
<g id="Layer_18">
</g>
<g id="Layer_19">
</g>
<g id="Layer_20">
</g>
<g id="Layer_21">
</g>
<g id="Layer_22">
</g>
<g id="Layer_24">
</g>
<g id="Layer_25">
</g>
<g id="Layer_26">
</g>
<g id="Layer_27">
</g>
<g id="Layer_28">
</g>
<g id="Layer_29">
</g>
<g id="Layer_30">
</g>
<g id="Layer_31">
</g>
<g id="Layer_32">
</g>
<g id="Layer_33">
</g>
<g id="Layer_34">
</g>
<g id="Layer_35">
</g>
<g id="Layer_36">
</g>
<g id="Layer_37">
</g>
<g id="Layer_38">
</g>
<g id="Layer_39">
</g>
<g id="Layer_40">
</g>
<g id="Layer_41">
</g>
<g id="Layer_43">
</g>
</svg>
