<?xml version="1.0" encoding="utf-8"?>
<!-- Generator: Adobe Illustrator 16.0.0, SVG Export Plug-In . SVG Version: 6.00 Build 0)  -->
<!DOCTYPE svg PUBLIC "-//W3C//DTD SVG 1.1//EN" "http://www.w3.org/Graphics/SVG/1.1/DTD/svg11.dtd">
<svg version="1.1" xmlns="http://www.w3.org/2000/svg" xmlns:xlink="http://www.w3.org/1999/xlink" x="0px" y="0px"
	 width="841.89px" height="595.28px" viewBox="0 0 841.89 595.28" enable-background="new 0 0 841.89 595.28" xml:space="preserve">
<g id="Layer_1">
</g>
<g id="Layer_2">
</g>
<g id="Layer_3">
</g>
<g id="Layer_4">
</g>
<g id="Layer_5">
</g>
<g id="Layer_6">
</g>
<g id="Layer_7">
</g>
<g id="Layer_8">
</g>
<g id="Layer_9">
</g>
<g id="Layer_10">
</g>
<g id="Layer_11">
</g>
<g id="Layer_12">
</g>
<g id="Layer_13">
</g>
<g id="Layer_14">
</g>
<g id="Layer_15">
</g>
<g id="Layer_16">
</g>
<g id="Layer_17">
</g>
<g id="Layer_18">
</g>
<g id="Layer_19">
	<polyline fill="none" stroke="#000000" stroke-miterlimit="10" points="481.313,329.825 521.165,369.679 420.946,469.897 
		320.726,369.679 360.697,329.705 	"/>
	<line fill="none" stroke="#000000" stroke-miterlimit="10" x1="420.946" y1="469.897" x2="420.945" y2="189.513"/>
	<path fill="none" stroke="#000000" stroke-miterlimit="10" d="M420.946,269.103"/>
	<line fill="none" stroke="#000000" stroke-miterlimit="10" x1="420.946" y1="469.897" x2="481.192" y2="329.706"/>
	<line fill="none" stroke="#000000" stroke-miterlimit="10" x1="360.698" y1="329.706" x2="420.946" y2="469.897"/>
	<line fill="none" stroke="#000000" stroke-miterlimit="10" x1="420.945" y1="189.513" x2="360.698" y2="329.706"/>
	<line fill="none" stroke="#000000" stroke-miterlimit="10" x1="481.193" y1="329.706" x2="420.945" y2="189.513"/>
	<path fill="none" stroke="#000000" stroke-miterlimit="10" d="M481.311,329.823"/>
	<path fill="none" stroke="#000000" stroke-miterlimit="10" d="M481.311,329.823"/>
	<g>
		<g>
			<g>
				<g>
					<g>
						<g>
							
								<rect x="360.698" y="324.46" transform="matrix(-1 -0.001 0.001 -1 730.3429 659.7847)" fill="none" width="9.277" height="10.499"/>
						</g>
						<rect x="367.568" y="329.341" fill-rule="evenodd" clip-rule="evenodd" width="1.722" height="1.05"/>
						<rect x="364.479" y="329.338" fill-rule="evenodd" clip-rule="evenodd" width="1.722" height="1.05"/>
						<rect x="361.4" y="329.335" fill-rule="evenodd" clip-rule="evenodd" width="1.723" height="1.05"/>
					</g>
				</g>
				<g>
					<g>
						<g>
							
								<rect x="369.975" y="324.469" transform="matrix(-1 -9.998400e-004 9.998400e-004 -1 748.8987 659.8124)" fill="none" width="9.278" height="10.499"/>
						</g>
						<rect x="376.846" y="329.35" fill-rule="evenodd" clip-rule="evenodd" width="1.723" height="1.05"/>
						<rect x="373.757" y="329.348" fill-rule="evenodd" clip-rule="evenodd" width="1.722" height="1.05"/>
						<rect x="370.678" y="329.345" fill-rule="evenodd" clip-rule="evenodd" width="1.722" height="1.05"/>
					</g>
				</g>
				<g>
					<g>
						<g>
							
								<rect x="379.253" y="324.479" transform="matrix(-1 -9.998400e-004 9.998400e-004 -1 767.4553 659.8402)" fill="none" width="9.278" height="10.499"/>
						</g>
						<rect x="386.124" y="329.36" fill-rule="evenodd" clip-rule="evenodd" width="1.723" height="1.05"/>
						<rect x="383.035" y="329.357" fill-rule="evenodd" clip-rule="evenodd" width="1.723" height="1.05"/>
						<rect x="379.957" y="329.354" fill-rule="evenodd" clip-rule="evenodd" width="1.722" height="1.05"/>
					</g>
				</g>
				<g>
					<g>
						<g>
							
								<rect x="388.532" y="324.488" transform="matrix(-1 -9.998400e-004 9.998400e-004 -1 786.012 659.868)" fill="none" width="9.278" height="10.499"/>
						</g>
						<rect x="395.402" y="329.369" fill-rule="evenodd" clip-rule="evenodd" width="1.723" height="1.05"/>
						<rect x="392.313" y="329.366" fill-rule="evenodd" clip-rule="evenodd" width="1.723" height="1.05"/>
						<rect x="389.235" y="329.363" fill-rule="evenodd" clip-rule="evenodd" width="1.722" height="1.05"/>
					</g>
				</g>
				<g>
					<g>
						<g>
							
								<rect x="397.81" y="324.497" transform="matrix(-1 -9.998400e-004 9.998400e-004 -1 804.5686 659.8959)" fill="none" width="9.278" height="10.499"/>
						</g>
						<rect x="404.68" y="329.378" fill-rule="evenodd" clip-rule="evenodd" width="1.723" height="1.05"/>
						<rect x="401.591" y="329.375" fill-rule="evenodd" clip-rule="evenodd" width="1.723" height="1.05"/>
						<rect x="398.513" y="329.372" fill-rule="evenodd" clip-rule="evenodd" width="1.722" height="1.05"/>
					</g>
				</g>
				<g>
					<g>
						<g>
							
								<rect x="407.088" y="324.507" transform="matrix(-1 -9.471495e-004 9.471495e-004 -1 823.1416 659.902)" fill="none" width="9.278" height="10.499"/>
						</g>
						<rect x="413.958" y="329.388" fill-rule="evenodd" clip-rule="evenodd" width="1.722" height="1.05"/>
						<rect x="410.87" y="329.385" fill-rule="evenodd" clip-rule="evenodd" width="1.722" height="1.05"/>
						<rect x="407.791" y="329.382" fill-rule="evenodd" clip-rule="evenodd" width="1.723" height="1.05"/>
					</g>
				</g>
				<g>
					<g>
						<g>
							
								<rect x="416.366" y="324.516" transform="matrix(-1 -9.998400e-004 9.998400e-004 -1 841.6808 659.951)" fill="none" width="9.278" height="10.499"/>
						</g>
						<rect x="423.237" y="329.397" fill-rule="evenodd" clip-rule="evenodd" width="1.722" height="1.05"/>
						<rect x="420.148" y="329.394" fill-rule="evenodd" clip-rule="evenodd" width="1.722" height="1.05"/>
						<rect x="417.069" y="329.39" fill-rule="evenodd" clip-rule="evenodd" width="1.723" height="1.05"/>
					</g>
				</g>
				<g>
					<g>
						<g>
							
								<rect x="425.645" y="324.525" transform="matrix(-1 -0.001 0.001 -1 860.2374 659.9785)" fill="none" width="9.277" height="10.499"/>
						</g>
						<rect x="432.515" y="329.406" fill-rule="evenodd" clip-rule="evenodd" width="1.722" height="1.05"/>
						<rect x="429.426" y="329.403" fill-rule="evenodd" clip-rule="evenodd" width="1.722" height="1.05"/>
						<rect x="426.347" y="329.4" fill-rule="evenodd" clip-rule="evenodd" width="1.723" height="1.05"/>
					</g>
				</g>
				<g>
					<g>
						<g>
							
								<rect x="434.922" y="324.534" transform="matrix(-1 -9.998400e-004 9.998400e-004 -1 878.7931 660.0062)" fill="none" width="9.278" height="10.499"/>
						</g>
						<rect x="441.793" y="329.416" fill-rule="evenodd" clip-rule="evenodd" width="1.723" height="1.05"/>
						<rect x="438.705" y="329.412" fill-rule="evenodd" clip-rule="evenodd" width="1.722" height="1.05"/>
						<rect x="435.625" y="329.409" fill-rule="evenodd" clip-rule="evenodd" width="1.722" height="1.05"/>
					</g>
				</g>
				<g>
					<g>
						<g>
							
								<rect x="444.201" y="324.543" transform="matrix(-1 -9.998400e-004 9.998400e-004 -1 897.3497 660.0341)" fill="none" width="9.278" height="10.499"/>
						</g>
						<rect x="451.071" y="329.425" fill-rule="evenodd" clip-rule="evenodd" width="1.723" height="1.05"/>
						<rect x="447.982" y="329.422" fill-rule="evenodd" clip-rule="evenodd" width="1.723" height="1.05"/>
						<rect x="444.904" y="329.418" fill-rule="evenodd" clip-rule="evenodd" width="1.722" height="1.05"/>
					</g>
				</g>
				<g>
					<g>
						<g>
							
								<rect x="453.479" y="324.552" transform="matrix(-1 -9.998400e-004 9.998400e-004 -1 915.9064 660.0619)" fill="none" width="9.278" height="10.499"/>
						</g>
						<rect x="460.349" y="329.434" fill-rule="evenodd" clip-rule="evenodd" width="1.723" height="1.05"/>
						<rect x="457.26" y="329.43" fill-rule="evenodd" clip-rule="evenodd" width="1.723" height="1.05"/>
						<rect x="454.182" y="329.428" fill-rule="evenodd" clip-rule="evenodd" width="1.722" height="1.05"/>
					</g>
				</g>
				<g>
					<g>
						<g>
							
								<rect x="462.757" y="324.562" transform="matrix(-1 -9.998400e-004 9.998400e-004 -1 934.462 660.0897)" fill="none" width="9.278" height="10.499"/>
						</g>
						<rect x="469.627" y="329.443" fill-rule="evenodd" clip-rule="evenodd" width="1.722" height="1.05"/>
						<rect x="466.539" y="329.44" fill-rule="evenodd" clip-rule="evenodd" width="1.723" height="1.05"/>
						<rect x="463.46" y="329.437" fill-rule="evenodd" clip-rule="evenodd" width="1.722" height="1.05"/>
					</g>
				</g>
				<g>
					<g>
						<g>
							
								<rect x="472.035" y="324.571" transform="matrix(-1 -9.998400e-004 9.998400e-004 -1 953.0187 660.1176)" fill="none" width="9.278" height="10.499"/>
						</g>
						<rect x="478.906" y="329.452" fill-rule="evenodd" clip-rule="evenodd" width="1.722" height="1.05"/>
						<rect x="475.817" y="329.449" fill-rule="evenodd" clip-rule="evenodd" width="1.722" height="1.05"/>
						<rect x="472.738" y="329.446" fill-rule="evenodd" clip-rule="evenodd" width="1.723" height="1.05"/>
					</g>
				</g>
			</g>
		</g>
	</g>
</g>
<g id="Layer_20">
</g>
<g id="Layer_21">
</g>
<g id="Layer_22">
</g>
<g id="Layer_24">
</g>
<g id="Layer_25">
</g>
<g id="Layer_26">
</g>
<g id="Layer_27">
</g>
<g id="Layer_28">
</g>
<g id="Layer_29">
</g>
<g id="Layer_30">
</g>
<g id="Layer_31">
</g>
<g id="Layer_32">
</g>
<g id="Layer_33">
</g>
<g id="Layer_34">
</g>
<g id="Layer_35">
</g>
<g id="Layer_36">
</g>
<g id="Layer_37">
</g>
<g id="Layer_38">
</g>
<g id="Layer_39">
</g>
<g id="Layer_40">
</g>
<g id="Layer_41">
</g>
<g id="Layer_43">
</g>
</svg>
