<?xml version="1.0" encoding="utf-8"?>
<!-- Generator: Adobe Illustrator 16.0.0, SVG Export Plug-In . SVG Version: 6.00 Build 0)  -->
<!DOCTYPE svg PUBLIC "-//W3C//DTD SVG 1.1//EN" "http://www.w3.org/Graphics/SVG/1.1/DTD/svg11.dtd">
<svg version="1.1" xmlns="http://www.w3.org/2000/svg" xmlns:xlink="http://www.w3.org/1999/xlink" x="0px" y="0px"
	 width="841.89px" height="595.28px" viewBox="0 0 841.89 595.28" enable-background="new 0 0 841.89 595.28" xml:space="preserve">
<g id="Layer_1">
</g>
<g id="Layer_2">
</g>
<g id="Layer_3">
</g>
<g id="Layer_4">
</g>
<g id="Layer_5">
</g>
<g id="Layer_6">
</g>
<g id="Layer_7">
</g>
<g id="Layer_8">
</g>
<g id="Layer_9">
</g>
<g id="Layer_10">
</g>
<g id="Layer_11">
</g>
<g id="Layer_12">
</g>
<g id="Layer_13">
</g>
<g id="Layer_14">
</g>
<g id="Layer_15">
</g>
<g id="Layer_16">
</g>
<g id="Layer_17">
</g>
<g id="Layer_18">
</g>
<g id="Layer_19">
</g>
<g id="Layer_20">
</g>
<g id="Layer_21">
</g>
<g id="Layer_22">
</g>
<g id="Layer_24">
</g>
<g id="Layer_25">
</g>
<g id="Layer_26">
	<g>
		<g>
			<g>
				<polyline id="pion_37_" fill="none" stroke="#000000" stroke-miterlimit="10" points="521.304,397.426 420.399,297.051 
					320.075,397.543 				"/>
				<polyline fill="none" stroke="#000000" stroke-miterlimit="10" points="520.515,397.543 420.296,497.764 320.075,397.543 
					420.296,297.324 				"/>
				<g>
					<g>
						<g>
							<g>
								<g>
									<g>
										<rect x="415.046" y="488.028" fill="none" width="10.499" height="9.544"/>
									</g>
									<rect x="419.925" y="488.733" fill-rule="evenodd" clip-rule="evenodd" width="1.05" height="1.771"/>
									<rect x="419.925" y="491.91" fill-rule="evenodd" clip-rule="evenodd" width="1.05" height="1.771"/>
									<rect x="419.925" y="495.077" fill-rule="evenodd" clip-rule="evenodd" width="1.05" height="1.772"/>
								</g>
							</g>
							<g>
								<g>
									<g>
										<rect x="415.047" y="478.483" fill="none" width="10.499" height="9.545"/>
									</g>
									<rect x="419.926" y="479.188" fill-rule="evenodd" clip-rule="evenodd" width="1.05" height="1.771"/>
									<rect x="419.926" y="482.366" fill-rule="evenodd" clip-rule="evenodd" width="1.05" height="1.771"/>
									<rect x="419.926" y="485.533" fill-rule="evenodd" clip-rule="evenodd" width="1.05" height="1.771"/>
								</g>
							</g>
							<g>
								<g>
									<g>
										<rect x="415.048" y="468.939" fill="none" width="10.499" height="9.544"/>
									</g>
									<rect x="419.927" y="469.645" fill-rule="evenodd" clip-rule="evenodd" width="1.05" height="1.771"/>
									<rect x="419.926" y="472.821" fill-rule="evenodd" clip-rule="evenodd" width="1.051" height="1.771"/>
									<rect x="419.926" y="475.988" fill-rule="evenodd" clip-rule="evenodd" width="1.051" height="1.771"/>
								</g>
							</g>
							<g>
								<g>
									<g>
										<rect x="415.048" y="459.395" fill="none" width="10.5" height="9.545"/>
									</g>
									<rect x="419.928" y="460.1" fill-rule="evenodd" clip-rule="evenodd" width="1.05" height="1.771"/>
									<rect x="419.927" y="463.277" fill-rule="evenodd" clip-rule="evenodd" width="1.05" height="1.771"/>
									<rect x="419.927" y="466.444" fill-rule="evenodd" clip-rule="evenodd" width="1.05" height="1.771"/>
								</g>
							</g>
							<g>
								<g>
									<g>
										<rect x="415.05" y="449.85" fill="none" width="10.499" height="9.544"/>
									</g>
									<rect x="419.928" y="450.556" fill-rule="evenodd" clip-rule="evenodd" width="1.051" height="1.771"/>
									<rect x="419.928" y="453.732" fill-rule="evenodd" clip-rule="evenodd" width="1.05" height="1.771"/>
									<rect x="419.928" y="456.899" fill-rule="evenodd" clip-rule="evenodd" width="1.05" height="1.771"/>
								</g>
							</g>
							<g>
								<g>
									<g>
										<rect x="415.05" y="440.305" fill="none" width="10.499" height="9.545"/>
									</g>
									<rect x="419.929" y="441.011" fill-rule="evenodd" clip-rule="evenodd" width="1.05" height="1.771"/>
									<rect x="419.929" y="444.188" fill-rule="evenodd" clip-rule="evenodd" width="1.05" height="1.771"/>
									<rect x="419.928" y="447.355" fill-rule="evenodd" clip-rule="evenodd" width="1.051" height="1.771"/>
								</g>
							</g>
							<g>
								<g>
									<g>
										<rect x="415.051" y="430.761" fill="none" width="10.499" height="9.544"/>
									</g>
									<rect x="419.93" y="431.467" fill-rule="evenodd" clip-rule="evenodd" width="1.05" height="1.771"/>
									<rect x="419.93" y="434.644" fill-rule="evenodd" clip-rule="evenodd" width="1.05" height="1.771"/>
									<rect x="419.929" y="437.811" fill-rule="evenodd" clip-rule="evenodd" width="1.05" height="1.771"/>
								</g>
							</g>
							<g>
								<g>
									<g>
										<rect x="415.053" y="421.216" fill="none" width="10.498" height="9.545"/>
									</g>
									<rect x="419.93" y="421.922" fill-rule="evenodd" clip-rule="evenodd" width="1.051" height="1.771"/>
									<rect x="419.93" y="425.1" fill-rule="evenodd" clip-rule="evenodd" width="1.051" height="1.771"/>
									<rect x="419.93" y="428.267" fill-rule="evenodd" clip-rule="evenodd" width="1.05" height="1.771"/>
								</g>
							</g>
							<g>
								<g>
									<g>
										<rect x="415.052" y="411.672" fill="none" width="10.499" height="9.544"/>
									</g>
									<rect x="419.932" y="412.376" fill-rule="evenodd" clip-rule="evenodd" width="1.049" height="1.772"/>
									<rect x="419.931" y="415.555" fill-rule="evenodd" clip-rule="evenodd" width="1.05" height="1.771"/>
									<rect x="419.931" y="418.722" fill-rule="evenodd" clip-rule="evenodd" width="1.05" height="1.771"/>
								</g>
							</g>
							<g>
								<g>
									<g>
										<rect x="415.053" y="402.127" fill="none" width="10.499" height="9.545"/>
									</g>
									<rect x="419.932" y="402.833" fill-rule="evenodd" clip-rule="evenodd" width="1.05" height="1.771"/>
									<rect x="419.932" y="406.011" fill-rule="evenodd" clip-rule="evenodd" width="1.05" height="1.771"/>
									<rect x="419.932" y="409.178" fill-rule="evenodd" clip-rule="evenodd" width="1.05" height="1.771"/>
								</g>
							</g>
							<g>
								<g>
									<g>
										<rect x="415.054" y="392.583" fill="none" width="10.499" height="9.544"/>
									</g>
									<rect x="419.933" y="393.288" fill-rule="evenodd" clip-rule="evenodd" width="1.05" height="1.772"/>
									<rect x="419.933" y="396.466" fill-rule="evenodd" clip-rule="evenodd" width="1.05" height="1.771"/>
									<rect x="419.932" y="399.633" fill-rule="evenodd" clip-rule="evenodd" width="1.051" height="1.771"/>
								</g>
							</g>
							<g>
								<g>
									<g>
										<rect x="415.055" y="383.039" fill="none" width="10.499" height="9.545"/>
									</g>
									<rect x="419.934" y="383.744" fill-rule="evenodd" clip-rule="evenodd" width="1.05" height="1.771"/>
									<rect x="419.934" y="386.922" fill-rule="evenodd" clip-rule="evenodd" width="1.049" height="1.771"/>
									<rect x="419.933" y="390.089" fill-rule="evenodd" clip-rule="evenodd" width="1.05" height="1.771"/>
								</g>
							</g>
							<g>
								<g>
									<g>
										<rect x="415.057" y="373.495" fill="none" width="10.498" height="9.544"/>
									</g>
									<rect x="419.934" y="374.199" fill-rule="evenodd" clip-rule="evenodd" width="1.051" height="1.771"/>
									<rect x="419.934" y="377.377" fill-rule="evenodd" clip-rule="evenodd" width="1.051" height="1.771"/>
									<rect x="419.934" y="380.544" fill-rule="evenodd" clip-rule="evenodd" width="1.05" height="1.771"/>
								</g>
							</g>
							<g>
								<g>
									<g>
										<rect x="415.056" y="363.95" fill="none" width="10.499" height="9.545"/>
									</g>
									<rect x="419.935" y="364.655" fill-rule="evenodd" clip-rule="evenodd" width="1.05" height="1.771"/>
									<rect x="419.935" y="367.833" fill-rule="evenodd" clip-rule="evenodd" width="1.05" height="1.771"/>
									<rect x="419.935" y="371" fill-rule="evenodd" clip-rule="evenodd" width="1.05" height="1.771"/>
								</g>
							</g>
							<g>
								<g>
									<g>
										<rect x="415.057" y="354.406" fill="none" width="10.499" height="9.544"/>
									</g>
									<rect x="419.936" y="355.11" fill-rule="evenodd" clip-rule="evenodd" width="1.05" height="1.771"/>
									<rect x="419.936" y="358.288" fill-rule="evenodd" clip-rule="evenodd" width="1.05" height="1.771"/>
									<rect x="419.936" y="361.455" fill-rule="evenodd" clip-rule="evenodd" width="1.05" height="1.771"/>
								</g>
							</g>
							<g>
								<g>
									<g>
										<rect x="415.058" y="344.861" fill="none" width="10.499" height="9.545"/>
									</g>
									<rect x="419.937" y="345.566" fill-rule="evenodd" clip-rule="evenodd" width="1.05" height="1.771"/>
									<rect x="419.936" y="348.743" fill-rule="evenodd" clip-rule="evenodd" width="1.051" height="1.772"/>
									<rect x="419.936" y="351.911" fill-rule="evenodd" clip-rule="evenodd" width="1.051" height="1.771"/>
								</g>
							</g>
							<g>
								<g>
									<g>
										<rect x="415.058" y="335.316" fill="none" width="10.5" height="9.545"/>
									</g>
									<rect x="419.938" y="336.021" fill-rule="evenodd" clip-rule="evenodd" width="1.05" height="1.771"/>
									<rect x="419.937" y="339.199" fill-rule="evenodd" clip-rule="evenodd" width="1.05" height="1.771"/>
									<rect x="419.937" y="342.366" fill-rule="evenodd" clip-rule="evenodd" width="1.05" height="1.771"/>
								</g>
							</g>
							<g>
								<g>
									<g>
										<rect x="415.06" y="325.772" fill="none" width="10.499" height="9.544"/>
									</g>
									<rect x="419.938" y="326.478" fill-rule="evenodd" clip-rule="evenodd" width="1.051" height="1.771"/>
									<rect x="419.938" y="329.654" fill-rule="evenodd" clip-rule="evenodd" width="1.05" height="1.772"/>
									<rect x="419.938" y="332.822" fill-rule="evenodd" clip-rule="evenodd" width="1.05" height="1.771"/>
								</g>
							</g>
							<g>
								<g>
									<g>
										<rect x="415.06" y="316.228" fill="none" width="10.499" height="9.545"/>
									</g>
									<rect x="419.938" y="316.933" fill-rule="evenodd" clip-rule="evenodd" width="1.05" height="1.771"/>
									<rect x="419.938" y="320.11" fill-rule="evenodd" clip-rule="evenodd" width="1.05" height="1.771"/>
									<rect x="419.938" y="323.277" fill-rule="evenodd" clip-rule="evenodd" width="1.051" height="1.771"/>
								</g>
							</g>
							<g>
								<g>
									<g>
										<rect x="415.061" y="306.683" fill="none" width="10.499" height="9.544"/>
									</g>
									<rect x="419.939" y="307.389" fill-rule="evenodd" clip-rule="evenodd" width="1.05" height="1.771"/>
									<rect x="419.939" y="310.565" fill-rule="evenodd" clip-rule="evenodd" width="1.05" height="1.772"/>
									<rect x="419.938" y="313.732" fill-rule="evenodd" clip-rule="evenodd" width="1.05" height="1.772"/>
								</g>
							</g>
							<g>
								<g>
									<g>
										<rect x="415.063" y="297.139" fill="none" width="10.498" height="9.544"/>
									</g>
									<rect x="419.939" y="297.844" fill-rule="evenodd" clip-rule="evenodd" width="1.051" height="1.771"/>
									<rect x="419.939" y="301.021" fill-rule="evenodd" clip-rule="evenodd" width="1.051" height="1.771"/>
									<rect x="419.939" y="304.188" fill-rule="evenodd" clip-rule="evenodd" width="1.05" height="1.771"/>
								</g>
							</g>
						</g>
					</g>
				</g>
				<path fill="none" stroke="#000000" stroke-miterlimit="10" d="M420.296,296.967"/>
				<g>
					<g>
						<g>
							<g>
								<g>
									<g>
										
											<rect x="476.082" y="358.857" transform="matrix(0.4125 -0.911 0.911 0.4125 -49.1962 651.9341)" fill="none" width="9.466" height="10.499"/>
									</g>
									
										<rect x="478.848" y="366.039" transform="matrix(0.9109 0.4127 -0.4127 0.9109 194.1444 -165.1272)" fill-rule="evenodd" clip-rule="evenodd" width="1.051" height="1.757"/>
									
										<rect x="480.148" y="363.168" transform="matrix(0.9109 0.4127 -0.4127 0.9109 193.0754 -165.9195)" fill-rule="evenodd" clip-rule="evenodd" width="1.051" height="1.757"/>
									
										<rect x="481.443" y="360.307" transform="matrix(0.9107 0.413 -0.413 0.9107 192.2127 -166.8204)" fill-rule="evenodd" clip-rule="evenodd" width="1.05" height="1.757"/>
								</g>
							</g>
							<g>
								<g>
									<g>
										
											<rect x="472.177" y="367.48" transform="matrix(0.4125 -0.911 0.911 0.4125 -59.3455 653.4438)" fill="none" width="9.466" height="10.499"/>
									</g>
									
										<rect x="474.943" y="374.662" transform="matrix(0.9109 0.4127 -0.4127 0.9109 197.355 -162.7474)" fill-rule="evenodd" clip-rule="evenodd" width="1.051" height="1.757"/>
									
										<rect x="476.243" y="371.791" transform="matrix(0.9109 0.4127 -0.4127 0.9109 196.286 -163.5397)" fill-rule="evenodd" clip-rule="evenodd" width="1.051" height="1.757"/>
									
										<rect x="477.539" y="368.93" transform="matrix(0.9107 0.413 -0.413 0.9107 195.4257 -164.4379)" fill-rule="evenodd" clip-rule="evenodd" width="1.05" height="1.757"/>
								</g>
							</g>
							<g>
								<g>
									<g>
										
											<rect x="468.273" y="376.103" transform="matrix(0.4125 -0.911 0.911 0.4125 -69.4948 654.9534)" fill="none" width="9.466" height="10.499"/>
									</g>
									
										<rect x="471.039" y="383.285" transform="matrix(0.9107 0.413 -0.413 0.9107 200.7746 -160.4715)" fill-rule="evenodd" clip-rule="evenodd" width="1.05" height="1.757"/>
									
										<rect x="472.339" y="380.414" transform="matrix(0.9109 0.4127 -0.4127 0.9109 199.4966 -161.16)" fill-rule="evenodd" clip-rule="evenodd" width="1.051" height="1.757"/>
									
										<rect x="473.635" y="377.553" transform="matrix(0.9107 0.413 -0.413 0.9107 198.6387 -162.0554)" fill-rule="evenodd" clip-rule="evenodd" width="1.05" height="1.757"/>
								</g>
							</g>
							<g>
								<g>
									<g>
										
											<rect x="464.369" y="384.726" transform="matrix(0.4125 -0.911 0.911 0.4125 -79.644 656.463)" fill="none" width="9.466" height="10.499"/>
									</g>
									
										<rect x="467.135" y="391.908" transform="matrix(0.9107 0.413 -0.413 0.9107 203.9876 -158.089)" fill-rule="evenodd" clip-rule="evenodd" width="1.05" height="1.757"/>
									
										<rect x="468.435" y="389.037" transform="matrix(0.9109 0.4127 -0.4127 0.9109 202.7072 -158.7802)" fill-rule="evenodd" clip-rule="evenodd" width="1.051" height="1.757"/>
									
										<rect x="469.73" y="386.176" transform="matrix(0.9107 0.413 -0.413 0.9107 201.8517 -159.6727)" fill-rule="evenodd" clip-rule="evenodd" width="1.05" height="1.757"/>
								</g>
							</g>
							<g>
								<g>
									<g>
										
											<rect x="460.464" y="393.35" transform="matrix(0.4125 -0.911 0.911 0.4125 -89.7936 657.9722)" fill="none" width="9.466" height="10.498"/>
									</g>
									
										<rect x="463.23" y="400.531" transform="matrix(0.9107 0.413 -0.413 0.9107 207.2007 -155.7065)" fill-rule="evenodd" clip-rule="evenodd" width="1.05" height="1.757"/>
									
										<rect x="464.53" y="397.66" transform="matrix(0.9107 0.413 -0.413 0.9107 206.1308 -156.4997)" fill-rule="evenodd" clip-rule="evenodd" width="1.05" height="1.757"/>
									
										<rect x="465.825" y="394.799" transform="matrix(0.9109 0.4127 -0.4127 0.9109 204.8524 -157.1899)" fill-rule="evenodd" clip-rule="evenodd" width="1.051" height="1.757"/>
								</g>
							</g>
							<g>
								<g>
									<g>
										
											<rect x="456.559" y="401.972" transform="matrix(0.4126 -0.9109 0.9109 0.4126 -99.9666 659.4291)" fill="none" width="9.466" height="10.499"/>
									</g>
									
										<rect x="459.326" y="409.154" transform="matrix(0.9107 0.413 -0.413 0.9107 210.4136 -153.3238)" fill-rule="evenodd" clip-rule="evenodd" width="1.05" height="1.757"/>
									
										<rect x="460.626" y="406.283" transform="matrix(0.9107 0.413 -0.413 0.9107 209.3438 -154.1172)" fill-rule="evenodd" clip-rule="evenodd" width="1.05" height="1.757"/>
									
										<rect x="461.921" y="403.422" transform="matrix(0.9109 0.4127 -0.4127 0.9109 208.063 -154.8101)" fill-rule="evenodd" clip-rule="evenodd" width="1.051" height="1.757"/>
								</g>
							</g>
							<g>
								<g>
									<g>
										
											<rect x="452.655" y="410.595" transform="matrix(0.4125 -0.911 0.911 0.4125 -110.0924 660.991)" fill="none" width="9.466" height="10.499"/>
									</g>
									
										<rect x="455.421" y="417.777" transform="matrix(0.9109 0.4127 -0.4127 0.9109 213.4079 -150.8483)" fill-rule="evenodd" clip-rule="evenodd" width="1.051" height="1.757"/>
									
										<rect x="456.722" y="414.906" transform="matrix(0.9107 0.413 -0.413 0.9107 212.5568 -151.7347)" fill-rule="evenodd" clip-rule="evenodd" width="1.05" height="1.757"/>
									
										<rect x="458.017" y="412.045" transform="matrix(0.9109 0.4127 -0.4127 0.9109 211.2736 -152.4304)" fill-rule="evenodd" clip-rule="evenodd" width="1.051" height="1.757"/>
								</g>
							</g>
							<g>
								<g>
									<g>
										
											<rect x="448.751" y="419.218" transform="matrix(0.4125 -0.911 0.911 0.4125 -120.2417 662.5006)" fill="none" width="9.466" height="10.499"/>
									</g>
									
										<rect x="451.517" y="426.4" transform="matrix(0.9109 0.4127 -0.4127 0.9109 216.6186 -148.4685)" fill-rule="evenodd" clip-rule="evenodd" width="1.051" height="1.757"/>
									
										<rect x="452.817" y="423.529" transform="matrix(0.9107 0.413 -0.413 0.9107 215.7698 -149.3521)" fill-rule="evenodd" clip-rule="evenodd" width="1.05" height="1.757"/>
									
										<rect x="454.112" y="420.668" transform="matrix(0.9109 0.4127 -0.4127 0.9109 214.4842 -150.0506)" fill-rule="evenodd" clip-rule="evenodd" width="1.051" height="1.757"/>
								</g>
							</g>
							<g>
								<g>
									<g>
										
											<rect x="444.846" y="427.841" transform="matrix(0.4125 -0.911 0.911 0.4125 -130.3909 664.0103)" fill="none" width="9.466" height="10.499"/>
									</g>
									
										<rect x="447.612" y="435.023" transform="matrix(0.9109 0.4127 -0.4127 0.9109 219.8292 -146.0887)" fill-rule="evenodd" clip-rule="evenodd" width="1.051" height="1.757"/>
									
										<rect x="448.912" y="432.152" transform="matrix(0.9109 0.4127 -0.4127 0.9109 218.7602 -146.881)" fill-rule="evenodd" clip-rule="evenodd" width="1.051" height="1.757"/>
									
										<rect x="450.208" y="429.291" transform="matrix(0.9109 0.4127 -0.4127 0.9109 217.6948 -147.6708)" fill-rule="evenodd" clip-rule="evenodd" width="1.051" height="1.757"/>
								</g>
							</g>
							<g>
								<g>
									<g>
										
											<rect x="440.942" y="436.464" transform="matrix(0.4125 -0.911 0.911 0.4125 -140.5402 665.5199)" fill="none" width="9.466" height="10.499"/>
									</g>
									
										<rect x="443.708" y="443.646" transform="matrix(0.9109 0.4127 -0.4127 0.9109 223.0398 -143.709)" fill-rule="evenodd" clip-rule="evenodd" width="1.051" height="1.757"/>
									
										<rect x="445.008" y="440.775" transform="matrix(0.9109 0.4127 -0.4127 0.9109 221.9707 -144.5012)" fill-rule="evenodd" clip-rule="evenodd" width="1.051" height="1.757"/>
									
										<rect x="446.304" y="437.914" transform="matrix(0.9107 0.413 -0.413 0.9107 221.1297 -145.3776)" fill-rule="evenodd" clip-rule="evenodd" width="1.05" height="1.757"/>
								</g>
							</g>
							<g>
								<g>
									<g>
										
											<rect x="437.037" y="445.088" transform="matrix(0.4125 -0.911 0.911 0.4125 -150.6898 667.0291)" fill="none" width="9.466" height="10.498"/>
									</g>
									
										<rect x="439.804" y="452.269" transform="matrix(0.9109 0.4127 -0.4127 0.9109 226.2504 -141.3292)" fill-rule="evenodd" clip-rule="evenodd" width="1.051" height="1.757"/>
									
										<rect x="441.104" y="449.398" transform="matrix(0.9107 0.413 -0.413 0.9107 225.4088 -142.2043)" fill-rule="evenodd" clip-rule="evenodd" width="1.05" height="1.757"/>
									
										<rect x="442.399" y="446.537" transform="matrix(0.9107 0.413 -0.413 0.9107 224.3427 -142.9951)" fill-rule="evenodd" clip-rule="evenodd" width="1.05" height="1.757"/>
								</g>
							</g>
							<g>
								<g>
									<g>
										
											<rect x="433.133" y="453.71" transform="matrix(0.4126 -0.9109 0.9109 0.4126 -160.8587 668.4825)" fill="none" width="9.466" height="10.499"/>
									</g>
									
										<rect x="435.899" y="460.893" transform="matrix(0.9109 0.4127 -0.4127 0.9109 229.461 -138.9495)" fill-rule="evenodd" clip-rule="evenodd" width="1.051" height="1.757"/>
									
										<rect x="437.199" y="458.021" transform="matrix(0.9107 0.413 -0.413 0.9107 228.6218 -139.8219)" fill-rule="evenodd" clip-rule="evenodd" width="1.05" height="1.757"/>
									
										<rect x="438.495" y="455.16" transform="matrix(0.9107 0.413 -0.413 0.9107 227.5557 -140.6125)" fill-rule="evenodd" clip-rule="evenodd" width="1.05" height="1.757"/>
								</g>
							</g>
							<g>
								<g>
									<g>
										
											<rect x="429.228" y="462.334" transform="matrix(0.4125 -0.911 0.911 0.4125 -170.9886 670.0479)" fill="none" width="9.466" height="10.499"/>
									</g>
									
										<rect x="431.995" y="469.516" transform="matrix(0.9107 0.413 -0.413 0.9107 232.9046 -136.6462)" fill-rule="evenodd" clip-rule="evenodd" width="1.05" height="1.757"/>
									
										<rect x="433.295" y="466.644" transform="matrix(0.9107 0.413 -0.413 0.9107 231.8348 -137.4393)" fill-rule="evenodd" clip-rule="evenodd" width="1.05" height="1.757"/>
									
										<rect x="434.591" y="463.783" transform="matrix(0.9107 0.413 -0.413 0.9107 230.7686 -138.2301)" fill-rule="evenodd" clip-rule="evenodd" width="1.05" height="1.757"/>
								</g>
							</g>
							<g>
								<g>
									<g>
										
											<rect x="425.324" y="470.957" transform="matrix(0.4125 -0.911 0.911 0.4125 -181.1379 671.5575)" fill="none" width="9.466" height="10.499"/>
									</g>
									
										<rect x="428.091" y="478.139" transform="matrix(0.9107 0.413 -0.413 0.9107 236.1176 -134.2637)" fill-rule="evenodd" clip-rule="evenodd" width="1.05" height="1.757"/>
									
										<rect x="429.39" y="475.267" transform="matrix(0.9107 0.413 -0.413 0.9107 235.0477 -135.0566)" fill-rule="evenodd" clip-rule="evenodd" width="1.05" height="1.757"/>
									
										<rect x="430.686" y="472.406" transform="matrix(0.9107 0.413 -0.413 0.9107 233.9816 -135.8474)" fill-rule="evenodd" clip-rule="evenodd" width="1.05" height="1.757"/>
								</g>
							</g>
							<g>
								<g>
									<g>
										
											<rect x="421.419" y="479.58" transform="matrix(0.4125 -0.911 0.911 0.4125 -191.2871 673.0671)" fill="none" width="9.466" height="10.499"/>
									</g>
									
										<rect x="424.187" y="486.762" transform="matrix(0.9107 0.413 -0.413 0.9107 239.3306 -131.8812)" fill-rule="evenodd" clip-rule="evenodd" width="1.05" height="1.757"/>
									
										<rect x="425.485" y="483.891" transform="matrix(0.9109 0.4127 -0.4127 0.9109 238.0237 -132.6021)" fill-rule="evenodd" clip-rule="evenodd" width="1.051" height="1.757"/>
									
										<rect x="426.781" y="481.029" transform="matrix(0.9109 0.4127 -0.4127 0.9109 236.9584 -133.3918)" fill-rule="evenodd" clip-rule="evenodd" width="1.051" height="1.757"/>
								</g>
							</g>
							<g>
								<g>
									<g>
										
											<rect x="417.515" y="488.203" transform="matrix(0.4125 -0.911 0.911 0.4125 -201.4364 674.5768)" fill="none" width="9.466" height="10.499"/>
									</g>
									
										<rect x="420.282" y="495.384" transform="matrix(0.9107 0.413 -0.413 0.9107 242.5435 -129.4985)" fill-rule="evenodd" clip-rule="evenodd" width="1.05" height="1.757"/>
									
										<rect x="421.581" y="492.514" transform="matrix(0.9109 0.4127 -0.4127 0.9109 241.2343 -130.2223)" fill-rule="evenodd" clip-rule="evenodd" width="1.051" height="1.757"/>
									
										<rect x="422.877" y="489.652" transform="matrix(0.9107 0.413 -0.413 0.9107 240.4076 -131.0822)" fill-rule="evenodd" clip-rule="evenodd" width="1.05" height="1.757"/>
								</g>
							</g>
						</g>
					</g>
				</g>
			</g>
			<g>
				<g>
					<g>
						<g>
							<g>
								<g>
									
										<rect x="355.443" y="358.416" transform="matrix(-0.4125 -0.911 0.911 -0.4125 177.4468 841.7748)" fill="none" width="9.466" height="10.499"/>
								</g>
								
									<rect x="360.812" y="365.724" transform="matrix(0.9112 -0.4119 0.4119 0.9112 -118.9295 181.3841)" fill-rule="evenodd" clip-rule="evenodd" width="1.05" height="1.757"/>
								
									<rect x="359.513" y="362.853" transform="matrix(0.9107 -0.413 0.413 0.9107 -118.0875 181.1822)" fill-rule="evenodd" clip-rule="evenodd" width="1.05" height="1.757"/>
								
									<rect x="358.217" y="359.992" transform="matrix(0.9107 -0.413 0.413 0.9107 -117.0214 180.3915)" fill-rule="evenodd" clip-rule="evenodd" width="1.05" height="1.757"/>
							</g>
						</g>
						<g>
							<g>
								<g>
									
										<rect x="359.347" y="367.039" transform="matrix(-0.4125 -0.911 0.911 -0.4125 175.1061 857.5113)" fill="none" width="9.466" height="10.499"/>
								</g>
								
									<rect x="364.717" y="374.347" transform="matrix(0.9111 -0.4123 0.4123 0.9111 -122.2081 183.9447)" fill-rule="evenodd" clip-rule="evenodd" width="1.049" height="1.757"/>
								
									<rect x="363.417" y="371.477" transform="matrix(0.9107 -0.413 0.413 0.9107 -121.3005 183.5647)" fill-rule="evenodd" clip-rule="evenodd" width="1.05" height="1.757"/>
								
									<rect x="362.121" y="368.615" transform="matrix(0.9107 -0.413 0.413 0.9107 -120.2344 182.774)" fill-rule="evenodd" clip-rule="evenodd" width="1.05" height="1.757"/>
							</g>
						</g>
						<g>
							<g>
								<g>
									
										<rect x="363.251" y="375.662" transform="matrix(-0.4125 -0.911 0.911 -0.4125 172.7654 873.2477)" fill="none" width="9.466" height="10.499"/>
								</g>
								
									<rect x="368.621" y="382.97" transform="matrix(0.9111 -0.4123 0.4123 0.9111 -125.4158 186.3212)" fill-rule="evenodd" clip-rule="evenodd" width="1.049" height="1.757"/>
								
									<rect x="367.321" y="380.1" transform="matrix(0.9107 -0.413 0.413 0.9107 -124.5135 185.9472)" fill-rule="evenodd" clip-rule="evenodd" width="1.05" height="1.757"/>
								
									<rect x="366.025" y="377.238" transform="matrix(0.9107 -0.413 0.413 0.9107 -123.4474 185.1565)" fill-rule="evenodd" clip-rule="evenodd" width="1.05" height="1.757"/>
							</g>
						</g>
						<g>
							<g>
								<g>
									
										<rect x="367.156" y="384.285" transform="matrix(-0.4125 -0.911 0.911 -0.4125 170.4247 888.9843)" fill="none" width="9.466" height="10.499"/>
								</g>
								
									<rect x="372.526" y="391.593" transform="matrix(0.9111 -0.4123 0.4123 0.9111 -128.6235 188.6976)" fill-rule="evenodd" clip-rule="evenodd" width="1.049" height="1.757"/>
								
									<rect x="371.226" y="388.723" transform="matrix(0.9109 -0.4127 0.4127 0.9109 -127.6492 188.1382)" fill-rule="evenodd" clip-rule="evenodd" width="1.051" height="1.757"/>
								
									<rect x="369.93" y="385.861" transform="matrix(0.9109 -0.4127 0.4127 0.9109 -126.5838 187.3483)" fill-rule="evenodd" clip-rule="evenodd" width="1.051" height="1.757"/>
							</g>
						</g>
						<g>
							<g>
								<g>
									
										<rect x="371.06" y="392.908" transform="matrix(-0.4126 -0.9109 0.9109 -0.4126 168.1316 904.7402)" fill="none" width="9.466" height="10.498"/>
								</g>
								
									<rect x="376.43" y="400.216" transform="matrix(0.9111 -0.4123 0.4123 0.9111 -131.8313 191.0741)" fill-rule="evenodd" clip-rule="evenodd" width="1.049" height="1.757"/>
								
									<rect x="375.13" y="397.346" transform="matrix(0.9109 -0.4127 0.4127 0.9109 -130.8597 190.5179)" fill-rule="evenodd" clip-rule="evenodd" width="1.051" height="1.757"/>
								
									<rect x="373.835" y="394.484" transform="matrix(0.9107 -0.413 0.413 0.9107 -129.8733 189.9219)" fill-rule="evenodd" clip-rule="evenodd" width="1.05" height="1.757"/>
							</g>
						</g>
						<g>
							<g>
								<g>
									
										<rect x="374.965" y="401.531" transform="matrix(-0.4125 -0.911 0.911 -0.4125 165.7448 920.4581)" fill="none" width="9.466" height="10.499"/>
								</g>
								
									<rect x="380.334" y="408.839" transform="matrix(0.9112 -0.4119 0.4119 0.9112 -134.9561 193.253)" fill-rule="evenodd" clip-rule="evenodd" width="1.05" height="1.757"/>
								
									<rect x="379.034" y="405.969" transform="matrix(0.9109 -0.4127 0.4127 0.9109 -134.0704 192.8977)" fill-rule="evenodd" clip-rule="evenodd" width="1.051" height="1.757"/>
								
									<rect x="377.739" y="403.107" transform="matrix(0.9107 -0.413 0.413 0.9107 -133.0863 192.3044)" fill-rule="evenodd" clip-rule="evenodd" width="1.05" height="1.757"/>
							</g>
						</g>
						<g>
							<g>
								<g>
									
										<rect x="378.87" y="410.154" transform="matrix(-0.4125 -0.911 0.911 -0.4125 163.4041 936.1945)" fill="none" width="9.466" height="10.499"/>
								</g>
								
									<rect x="384.239" y="417.462" transform="matrix(0.9112 -0.4119 0.4119 0.9112 -138.1613 195.627)" fill-rule="evenodd" clip-rule="evenodd" width="1.05" height="1.757"/>
								
									<rect x="382.939" y="414.592" transform="matrix(0.9109 -0.4127 0.4127 0.9109 -137.281 195.2775)" fill-rule="evenodd" clip-rule="evenodd" width="1.051" height="1.757"/>
								
									<rect x="381.644" y="411.73" transform="matrix(0.9107 -0.413 0.413 0.9107 -136.2993 194.6869)" fill-rule="evenodd" clip-rule="evenodd" width="1.05" height="1.757"/>
							</g>
						</g>
						<g>
							<g>
								<g>
									
										<rect x="382.774" y="418.777" transform="matrix(-0.4125 -0.911 0.911 -0.4125 161.0634 951.931)" fill="none" width="9.466" height="10.499"/>
								</g>
								
									<rect x="388.144" y="426.085" transform="matrix(0.9111 -0.4123 0.4123 0.9111 -141.4543 198.2039)" fill-rule="evenodd" clip-rule="evenodd" width="1.049" height="1.757"/>
								
									<rect x="386.843" y="423.215" transform="matrix(0.9109 -0.4127 0.4127 0.9109 -140.4916 197.6572)" fill-rule="evenodd" clip-rule="evenodd" width="1.051" height="1.757"/>
								
									<rect x="385.548" y="420.353" transform="matrix(0.9107 -0.413 0.413 0.9107 -139.5123 197.0694)" fill-rule="evenodd" clip-rule="evenodd" width="1.05" height="1.757"/>
							</g>
						</g>
						<g>
							<g>
								<g>
									
										<rect x="386.678" y="427.4" transform="matrix(-0.4125 -0.911 0.911 -0.4125 158.7227 967.6675)" fill="none" width="9.466" height="10.499"/>
								</g>
								
									<rect x="392.048" y="434.708" transform="matrix(0.9111 -0.4123 0.4123 0.9111 -144.662 200.5804)" fill-rule="evenodd" clip-rule="evenodd" width="1.049" height="1.757"/>
								
									<rect x="390.748" y="431.838" transform="matrix(0.9109 -0.4127 0.4127 0.9109 -143.7021 200.0372)" fill-rule="evenodd" clip-rule="evenodd" width="1.051" height="1.757"/>
								
									<rect x="389.452" y="428.977" transform="matrix(0.9107 -0.413 0.413 0.9107 -142.7253 199.4518)" fill-rule="evenodd" clip-rule="evenodd" width="1.05" height="1.757"/>
							</g>
						</g>
						<g>
							<g>
								<g>
									
										<rect x="390.583" y="436.023" transform="matrix(-0.4125 -0.911 0.911 -0.4125 156.382 983.4039)" fill="none" width="9.466" height="10.499"/>
								</g>
								
									<rect x="395.952" y="443.331" transform="matrix(0.9111 -0.4123 0.4123 0.9111 -147.8698 202.9568)" fill-rule="evenodd" clip-rule="evenodd" width="1.049" height="1.757"/>
								
									<rect x="394.652" y="440.461" transform="matrix(0.9107 -0.413 0.413 0.9107 -147.0045 202.6251)" fill-rule="evenodd" clip-rule="evenodd" width="1.05" height="1.757"/>
								
									<rect x="393.357" y="437.6" transform="matrix(0.9109 -0.4127 0.4127 0.9109 -145.8474 201.6273)" fill-rule="evenodd" clip-rule="evenodd" width="1.051" height="1.757"/>
							</g>
						</g>
						<g>
							<g>
								<g>
									
										<rect x="394.487" y="444.646" transform="matrix(-0.4126 -0.9109 0.9109 -0.4126 154.0929 999.1634)" fill="none" width="9.466" height="10.498"/>
								</g>
								
									<rect x="399.857" y="451.955" transform="matrix(0.9111 -0.4123 0.4123 0.9111 -151.0775 205.3333)" fill-rule="evenodd" clip-rule="evenodd" width="1.049" height="1.757"/>
								
									<rect x="398.557" y="449.084" transform="matrix(0.9107 -0.413 0.413 0.9107 -150.2175 205.0076)" fill-rule="evenodd" clip-rule="evenodd" width="1.05" height="1.757"/>
								
									<rect x="397.261" y="446.223" transform="matrix(0.9109 -0.4127 0.4127 0.9109 -149.058 204.0071)" fill-rule="evenodd" clip-rule="evenodd" width="1.051" height="1.757"/>
							</g>
						</g>
						<g>
							<g>
								<g>
									
										<rect x="398.392" y="453.269" transform="matrix(-0.4125 -0.911 0.911 -0.4125 151.7021 1014.8777)" fill="none" width="9.466" height="10.499"/>
								</g>
								
									<rect x="403.761" y="460.578" transform="matrix(0.9112 -0.4119 0.4119 0.9112 -154.1879 207.4958)" fill-rule="evenodd" clip-rule="evenodd" width="1.05" height="1.757"/>
								
									<rect x="402.461" y="457.707" transform="matrix(0.9107 -0.413 0.413 0.9107 -153.4304 207.39)" fill-rule="evenodd" clip-rule="evenodd" width="1.05" height="1.757"/>
								
									<rect x="401.165" y="454.846" transform="matrix(0.9109 -0.4127 0.4127 0.9109 -152.2686 206.3868)" fill-rule="evenodd" clip-rule="evenodd" width="1.051" height="1.757"/>
							</g>
						</g>
						<g>
							<g>
								<g>
									
										<rect x="402.296" y="461.892" transform="matrix(-0.4125 -0.911 0.911 -0.4125 149.3614 1030.6143)" fill="none" width="9.466" height="10.499"/>
								</g>
								
									<rect x="407.665" y="469.201" transform="matrix(0.9112 -0.4119 0.4119 0.9112 -157.3931 209.8696)" fill-rule="evenodd" clip-rule="evenodd" width="1.05" height="1.757"/>
								
									<rect x="406.365" y="466.33" transform="matrix(0.9107 -0.413 0.413 0.9107 -156.6434 209.7725)" fill-rule="evenodd" clip-rule="evenodd" width="1.05" height="1.757"/>
								
									<rect x="405.069" y="463.469" transform="matrix(0.9109 -0.4127 0.4127 0.9109 -155.4792 208.7666)" fill-rule="evenodd" clip-rule="evenodd" width="1.051" height="1.757"/>
							</g>
						</g>
						<g>
							<g>
								<g>
									
										<rect x="406.201" y="470.515" transform="matrix(-0.4125 -0.911 0.911 -0.4125 147.0207 1046.3506)" fill="none" width="9.466" height="10.499"/>
								</g>
								
									<rect x="411.57" y="477.824" transform="matrix(0.9112 -0.4119 0.4119 0.9112 -160.5984 212.2433)" fill-rule="evenodd" clip-rule="evenodd" width="1.05" height="1.757"/>
								
									<rect x="410.27" y="474.953" transform="matrix(0.9109 -0.4127 0.4127 0.9109 -159.7551 211.9362)" fill-rule="evenodd" clip-rule="evenodd" width="1.051" height="1.757"/>
								
									<rect x="408.974" y="472.092" transform="matrix(0.9109 -0.4127 0.4127 0.9109 -158.6898 211.1464)" fill-rule="evenodd" clip-rule="evenodd" width="1.051" height="1.757"/>
							</g>
						</g>
						<g>
							<g>
								<g>
									
										<rect x="410.105" y="479.138" transform="matrix(-0.4125 -0.911 0.911 -0.4125 144.6801 1062.0872)" fill="none" width="9.466" height="10.499"/>
								</g>
								
									<rect x="415.474" y="486.447" transform="matrix(0.9112 -0.4119 0.4119 0.9112 -163.8038 214.6171)" fill-rule="evenodd" clip-rule="evenodd" width="1.05" height="1.757"/>
								
									<rect x="414.174" y="483.576" transform="matrix(0.9109 -0.4127 0.4127 0.9109 -162.9657 214.3162)" fill-rule="evenodd" clip-rule="evenodd" width="1.051" height="1.757"/>
								
									<rect x="412.879" y="480.715" transform="matrix(0.9107 -0.413 0.413 0.9107 -162.0033 213.7472)" fill-rule="evenodd" clip-rule="evenodd" width="1.05" height="1.757"/>
							</g>
						</g>
						<g>
							<g>
								<g>
									
										<rect x="414.009" y="487.761" transform="matrix(-0.4125 -0.911 0.911 -0.4125 142.3394 1077.8236)" fill="none" width="9.466" height="10.499"/>
								</g>
								
									<rect x="419.378" y="495.07" transform="matrix(0.9112 -0.4119 0.4119 0.9112 -167.0091 216.9908)" fill-rule="evenodd" clip-rule="evenodd" width="1.05" height="1.757"/>
								
									<rect x="418.079" y="492.199" transform="matrix(0.9107 -0.413 0.413 0.9107 -166.2823 216.9204)" fill-rule="evenodd" clip-rule="evenodd" width="1.05" height="1.757"/>
								
									<rect x="416.783" y="489.338" transform="matrix(0.9107 -0.413 0.413 0.9107 -165.2162 216.1297)" fill-rule="evenodd" clip-rule="evenodd" width="1.05" height="1.757"/>
							</g>
						</g>
					</g>
				</g>
			</g>
		</g>
		<g>
			<g>
				<g>
					<g>
						<g>
							<g>
								<g>
									<rect x="415.047" y="288.895" fill="none" width="10.498" height="8.974"/>
								</g>
								<rect x="419.925" y="289.558" fill-rule="evenodd" clip-rule="evenodd" width="1.05" height="1.666"/>
								<rect x="419.925" y="292.545" fill-rule="evenodd" clip-rule="evenodd" width="1.05" height="1.666"/>
								<rect x="419.925" y="295.522" fill-rule="evenodd" clip-rule="evenodd" width="1.05" height="1.666"/>
							</g>
						</g>
						<g>
							<g>
								<g>
									<rect x="415.047" y="279.921" fill="none" width="10.498" height="8.974"/>
								</g>
								<rect x="419.925" y="280.584" fill-rule="evenodd" clip-rule="evenodd" width="1.05" height="1.666"/>
								<rect x="419.925" y="283.571" fill-rule="evenodd" clip-rule="evenodd" width="1.05" height="1.666"/>
								<rect x="419.925" y="286.549" fill-rule="evenodd" clip-rule="evenodd" width="1.05" height="1.666"/>
							</g>
						</g>
						<g>
							<g>
								<g>
									<rect x="415.047" y="270.947" fill="none" width="10.498" height="8.974"/>
								</g>
								<rect x="419.925" y="271.61" fill-rule="evenodd" clip-rule="evenodd" width="1.05" height="1.666"/>
								<rect x="419.925" y="274.598" fill-rule="evenodd" clip-rule="evenodd" width="1.05" height="1.666"/>
								<rect x="419.925" y="277.575" fill-rule="evenodd" clip-rule="evenodd" width="1.05" height="1.666"/>
							</g>
						</g>
						<g>
							<g>
								<g>
									<rect x="415.047" y="261.974" fill="none" width="10.498" height="8.974"/>
								</g>
								<rect x="419.925" y="262.637" fill-rule="evenodd" clip-rule="evenodd" width="1.05" height="1.666"/>
								<rect x="419.925" y="265.624" fill-rule="evenodd" clip-rule="evenodd" width="1.05" height="1.666"/>
								<rect x="419.925" y="268.602" fill-rule="evenodd" clip-rule="evenodd" width="1.05" height="1.666"/>
							</g>
						</g>
						<g>
							<g>
								<g>
									<rect x="415.047" y="253" fill="none" width="10.498" height="8.974"/>
								</g>
								<rect x="419.925" y="253.663" fill-rule="evenodd" clip-rule="evenodd" width="1.05" height="1.666"/>
								<rect x="419.925" y="256.65" fill-rule="evenodd" clip-rule="evenodd" width="1.05" height="1.666"/>
								<rect x="419.925" y="259.628" fill-rule="evenodd" clip-rule="evenodd" width="1.05" height="1.666"/>
							</g>
						</g>
						<g>
							<g>
								<g>
									<rect x="415.047" y="244.026" fill="none" width="10.498" height="8.974"/>
								</g>
								<rect x="419.925" y="244.689" fill-rule="evenodd" clip-rule="evenodd" width="1.05" height="1.666"/>
								<rect x="419.925" y="247.677" fill-rule="evenodd" clip-rule="evenodd" width="1.05" height="1.666"/>
								<rect x="419.925" y="250.654" fill-rule="evenodd" clip-rule="evenodd" width="1.05" height="1.666"/>
							</g>
						</g>
						<g>
							<g>
								<g>
									<rect x="415.047" y="235.053" fill="none" width="10.498" height="8.974"/>
								</g>
								<rect x="419.925" y="235.716" fill-rule="evenodd" clip-rule="evenodd" width="1.05" height="1.666"/>
								<rect x="419.925" y="238.703" fill-rule="evenodd" clip-rule="evenodd" width="1.05" height="1.666"/>
								<rect x="419.925" y="241.681" fill-rule="evenodd" clip-rule="evenodd" width="1.05" height="1.666"/>
							</g>
						</g>
						<g>
							<g>
								<g>
									<rect x="415.047" y="226.079" fill="none" width="10.498" height="8.974"/>
								</g>
								<rect x="419.925" y="226.742" fill-rule="evenodd" clip-rule="evenodd" width="1.05" height="1.666"/>
								<rect x="419.925" y="229.729" fill-rule="evenodd" clip-rule="evenodd" width="1.05" height="1.666"/>
								<rect x="419.925" y="232.707" fill-rule="evenodd" clip-rule="evenodd" width="1.05" height="1.666"/>
							</g>
						</g>
						<g>
							<g>
								<g>
									<rect x="415.047" y="217.105" fill="none" width="10.498" height="8.974"/>
								</g>
								<rect x="419.925" y="217.769" fill-rule="evenodd" clip-rule="evenodd" width="1.05" height="1.666"/>
								<rect x="419.925" y="220.756" fill-rule="evenodd" clip-rule="evenodd" width="1.05" height="1.666"/>
								<rect x="419.925" y="223.733" fill-rule="evenodd" clip-rule="evenodd" width="1.05" height="1.666"/>
							</g>
						</g>
					</g>
				</g>
			</g>
			<line fill="none" stroke="#000000" stroke-miterlimit="10" x1="385.938" y1="297.051" x2="391.026" y2="326.732"/>
			<line fill="none" stroke="#000000" stroke-miterlimit="10" x1="420.296" y1="217.105" x2="385.938" y2="297.051"/>
			<line fill="none" stroke="#000000" stroke-miterlimit="10" x1="454.651" y1="297.051" x2="420.296" y2="217.105"/>
			<line fill="none" stroke="#000000" stroke-miterlimit="10" x1="454.651" y1="297.051" x2="449.626" y2="326.375"/>
		</g>
	</g>
</g>
<g id="Layer_27">
</g>
<g id="Layer_28">
</g>
<g id="Layer_29">
</g>
<g id="Layer_30">
</g>
<g id="Layer_31">
</g>
<g id="Layer_32">
</g>
<g id="Layer_33">
</g>
<g id="Layer_34">
</g>
<g id="Layer_35">
</g>
<g id="Layer_36">
</g>
<g id="Layer_37">
</g>
<g id="Layer_38">
</g>
<g id="Layer_39">
</g>
<g id="Layer_40">
</g>
<g id="Layer_41">
</g>
<g id="Layer_43">
</g>
</svg>
