<?xml version="1.0" encoding="utf-8"?>
<!-- Generator: Adobe Illustrator 16.0.0, SVG Export Plug-In . SVG Version: 6.00 Build 0)  -->
<!DOCTYPE svg PUBLIC "-//W3C//DTD SVG 1.1//EN" "http://www.w3.org/Graphics/SVG/1.1/DTD/svg11.dtd">
<svg version="1.1" xmlns="http://www.w3.org/2000/svg" xmlns:xlink="http://www.w3.org/1999/xlink" x="0px" y="0px"
	 width="841.89px" height="595.28px" viewBox="0 0 841.89 595.28" enable-background="new 0 0 841.89 595.28" xml:space="preserve">
<g id="Layer_1">
</g>
<g id="Layer_2">
</g>
<g id="Layer_3">
</g>
<g id="Layer_4">
</g>
<g id="Layer_5">
</g>
<g id="Layer_6">
</g>
<g id="Layer_7">
</g>
<g id="Layer_8">
</g>
<g id="Layer_9">
</g>
<g id="Layer_10">
</g>
<g id="Layer_11">
</g>
<g id="Layer_12">
</g>
<g id="Layer_13">
</g>
<g id="Layer_14">
</g>
<g id="Layer_15">
</g>
<g id="Layer_16">
</g>
<g id="Layer_17">
</g>
<g id="Layer_18">
	<path fill="none" stroke="#000000" stroke-miterlimit="10" d="M435.862,233.671"/>
	<path fill="none" stroke="#000000" stroke-miterlimit="10" d="M420.946,269.103"/>
	<g>
		
			<rect x="350.079" y="298.813" transform="matrix(0.7071 -0.7071 0.7071 0.7071 -138.1104 405.9305)" fill="none" stroke="#000000" stroke-miterlimit="10" width="141.73" height="141.732"/>
		<g>
			<g>
				<g>
					<g>
						<g>
							<g>
								<rect x="415.697" y="460.344" fill="none" width="10.499" height="9.554"/>
							</g>
							<rect x="420.575" y="461.05" fill-rule="evenodd" clip-rule="evenodd" width="1.05" height="1.773"/>
							<rect x="420.575" y="464.23" fill-rule="evenodd" clip-rule="evenodd" width="1.05" height="1.773"/>
							<rect x="420.575" y="467.4" fill-rule="evenodd" clip-rule="evenodd" width="1.05" height="1.773"/>
						</g>
					</g>
					<g>
						<g>
							<g>
								<rect x="415.697" y="450.79" fill="none" width="10.5" height="9.554"/>
							</g>
							<rect x="420.576" y="451.496" fill-rule="evenodd" clip-rule="evenodd" width="1.05" height="1.773"/>
							<rect x="420.576" y="454.677" fill-rule="evenodd" clip-rule="evenodd" width="1.05" height="1.773"/>
							<rect x="420.575" y="457.847" fill-rule="evenodd" clip-rule="evenodd" width="1.05" height="1.773"/>
						</g>
					</g>
					<g>
						<g>
							<g>
								<rect x="415.699" y="441.237" fill="none" width="10.499" height="9.553"/>
							</g>
							<rect x="420.577" y="441.943" fill-rule="evenodd" clip-rule="evenodd" width="1.05" height="1.773"/>
							<rect x="420.576" y="445.123" fill-rule="evenodd" clip-rule="evenodd" width="1.05" height="1.773"/>
							<rect x="420.576" y="448.293" fill-rule="evenodd" clip-rule="evenodd" width="1.05" height="1.773"/>
						</g>
					</g>
					<g>
						<g>
							<g>
								<rect x="415.699" y="431.683" fill="none" width="10.499" height="9.554"/>
							</g>
							<rect x="420.577" y="432.389" fill-rule="evenodd" clip-rule="evenodd" width="1.05" height="1.773"/>
							<rect x="420.577" y="435.569" fill-rule="evenodd" clip-rule="evenodd" width="1.05" height="1.773"/>
							<rect x="420.577" y="438.74" fill-rule="evenodd" clip-rule="evenodd" width="1.05" height="1.773"/>
						</g>
					</g>
					<g>
						<g>
							<g>
								<rect x="415.7" y="422.13" fill="none" width="10.499" height="9.554"/>
							</g>
							<rect x="420.578" y="422.835" fill-rule="evenodd" clip-rule="evenodd" width="1.05" height="1.773"/>
							<rect x="420.578" y="426.016" fill-rule="evenodd" clip-rule="evenodd" width="1.05" height="1.773"/>
							<rect x="420.578" y="429.186" fill-rule="evenodd" clip-rule="evenodd" width="1.05" height="1.773"/>
						</g>
					</g>
					<g>
						<g>
							<g>
								<rect x="415.7" y="412.576" fill="none" width="10.5" height="9.553"/>
							</g>
							<rect x="420.579" y="413.282" fill-rule="evenodd" clip-rule="evenodd" width="1.05" height="1.773"/>
							<rect x="420.579" y="416.462" fill-rule="evenodd" clip-rule="evenodd" width="1.05" height="1.773"/>
							<rect x="420.578" y="419.632" fill-rule="evenodd" clip-rule="evenodd" width="1.05" height="1.773"/>
						</g>
					</g>
					<g>
						<g>
							<g>
								<rect x="415.702" y="403.022" fill="none" width="10.499" height="9.554"/>
							</g>
							<rect x="420.58" y="403.729" fill-rule="evenodd" clip-rule="evenodd" width="1.05" height="1.773"/>
							<rect x="420.579" y="406.909" fill-rule="evenodd" clip-rule="evenodd" width="1.05" height="1.773"/>
							<rect x="420.579" y="410.079" fill-rule="evenodd" clip-rule="evenodd" width="1.05" height="1.773"/>
						</g>
					</g>
					<g>
						<g>
							<g>
								<rect x="415.702" y="393.469" fill="none" width="10.499" height="9.554"/>
							</g>
							<rect x="420.58" y="394.175" fill-rule="evenodd" clip-rule="evenodd" width="1.05" height="1.773"/>
							<rect x="420.58" y="397.355" fill-rule="evenodd" clip-rule="evenodd" width="1.05" height="1.773"/>
							<rect x="420.58" y="400.525" fill-rule="evenodd" clip-rule="evenodd" width="1.05" height="1.773"/>
						</g>
					</g>
					<g>
						<g>
							<g>
								<rect x="415.703" y="383.915" fill="none" width="10.499" height="9.554"/>
							</g>
							<rect x="420.581" y="384.621" fill-rule="evenodd" clip-rule="evenodd" width="1.05" height="1.773"/>
							<rect x="420.581" y="387.802" fill-rule="evenodd" clip-rule="evenodd" width="1.05" height="1.773"/>
							<rect x="420.581" y="390.972" fill-rule="evenodd" clip-rule="evenodd" width="1.05" height="1.773"/>
						</g>
					</g>
					<g>
						<g>
							<g>
								<rect x="415.703" y="374.362" fill="none" width="10.5" height="9.553"/>
							</g>
							<rect x="420.582" y="375.068" fill-rule="evenodd" clip-rule="evenodd" width="1.05" height="1.773"/>
							<rect x="420.582" y="378.248" fill-rule="evenodd" clip-rule="evenodd" width="1.05" height="1.773"/>
							<rect x="420.581" y="381.418" fill-rule="evenodd" clip-rule="evenodd" width="1.05" height="1.773"/>
						</g>
					</g>
					<g>
						<g>
							<g>
								<rect x="415.705" y="364.808" fill="none" width="10.499" height="9.554"/>
							</g>
							<rect x="420.583" y="365.514" fill-rule="evenodd" clip-rule="evenodd" width="1.05" height="1.773"/>
							<rect x="420.582" y="368.694" fill-rule="evenodd" clip-rule="evenodd" width="1.05" height="1.773"/>
							<rect x="420.582" y="371.865" fill-rule="evenodd" clip-rule="evenodd" width="1.05" height="1.773"/>
						</g>
					</g>
					<g>
						<g>
							<g>
								<rect x="415.705" y="355.255" fill="none" width="10.499" height="9.554"/>
							</g>
							<rect x="420.583" y="355.96" fill-rule="evenodd" clip-rule="evenodd" width="1.05" height="1.773"/>
							<rect x="420.583" y="359.141" fill-rule="evenodd" clip-rule="evenodd" width="1.05" height="1.773"/>
							<rect x="420.583" y="362.311" fill-rule="evenodd" clip-rule="evenodd" width="1.05" height="1.773"/>
						</g>
					</g>
					<g>
						<g>
							<g>
								<rect x="415.706" y="345.701" fill="none" width="10.499" height="9.553"/>
							</g>
							<rect x="420.584" y="346.407" fill-rule="evenodd" clip-rule="evenodd" width="1.05" height="1.773"/>
							<rect x="420.583" y="349.587" fill-rule="evenodd" clip-rule="evenodd" width="1.05" height="1.773"/>
							<rect x="420.584" y="352.757" fill-rule="evenodd" clip-rule="evenodd" width="1.05" height="1.773"/>
						</g>
					</g>
					<g>
						<g>
							<g>
								<rect x="415.706" y="336.147" fill="none" width="10.5" height="9.554"/>
							</g>
							<rect x="420.584" y="336.854" fill-rule="evenodd" clip-rule="evenodd" width="1.05" height="1.773"/>
							<rect x="420.585" y="340.034" fill-rule="evenodd" clip-rule="evenodd" width="1.05" height="1.773"/>
							<rect x="420.584" y="343.204" fill-rule="evenodd" clip-rule="evenodd" width="1.05" height="1.773"/>
						</g>
					</g>
					<g>
						<g>
							<g>
								<rect x="415.708" y="326.594" fill="none" width="10.499" height="9.554"/>
							</g>
							<rect x="420.586" y="327.3" fill-rule="evenodd" clip-rule="evenodd" width="1.05" height="1.773"/>
							<rect x="420.585" y="330.48" fill-rule="evenodd" clip-rule="evenodd" width="1.05" height="1.773"/>
							<rect x="420.585" y="333.65" fill-rule="evenodd" clip-rule="evenodd" width="1.05" height="1.773"/>
						</g>
					</g>
					<g>
						<g>
							<g>
								<rect x="415.708" y="317.04" fill="none" width="10.499" height="9.554"/>
							</g>
							<rect x="420.586" y="317.746" fill-rule="evenodd" clip-rule="evenodd" width="1.05" height="1.773"/>
							<rect x="420.586" y="320.927" fill-rule="evenodd" clip-rule="evenodd" width="1.05" height="1.773"/>
							<rect x="420.585" y="324.097" fill-rule="evenodd" clip-rule="evenodd" width="1.05" height="1.773"/>
						</g>
					</g>
					<g>
						<g>
							<g>
								<rect x="415.708" y="307.487" fill="none" width="10.499" height="9.553"/>
							</g>
							<rect x="420.587" y="308.193" fill-rule="evenodd" clip-rule="evenodd" width="1.05" height="1.773"/>
							<rect x="420.586" y="311.373" fill-rule="evenodd" clip-rule="evenodd" width="1.05" height="1.773"/>
							<rect x="420.587" y="314.543" fill-rule="evenodd" clip-rule="evenodd" width="1.05" height="1.773"/>
						</g>
					</g>
					<g>
						<g>
							<g>
								<rect x="415.709" y="297.933" fill="none" width="10.499" height="9.554"/>
							</g>
							<rect x="420.588" y="298.639" fill-rule="evenodd" clip-rule="evenodd" width="1.05" height="1.773"/>
							<rect x="420.588" y="301.819" fill-rule="evenodd" clip-rule="evenodd" width="1.05" height="1.773"/>
							<rect x="420.587" y="304.99" fill-rule="evenodd" clip-rule="evenodd" width="1.05" height="1.773"/>
						</g>
					</g>
					<g>
						<g>
							<g>
								<rect x="415.71" y="288.38" fill="none" width="10.499" height="9.554"/>
							</g>
							<rect x="420.589" y="289.085" fill-rule="evenodd" clip-rule="evenodd" width="1.05" height="1.773"/>
							<rect x="420.588" y="292.266" fill-rule="evenodd" clip-rule="evenodd" width="1.05" height="1.773"/>
							<rect x="420.588" y="295.436" fill-rule="evenodd" clip-rule="evenodd" width="1.05" height="1.773"/>
						</g>
					</g>
					<g>
						<g>
							<g>
								<rect x="415.71" y="278.826" fill="none" width="10.499" height="9.553"/>
							</g>
							<rect x="420.589" y="279.532" fill-rule="evenodd" clip-rule="evenodd" width="1.05" height="1.773"/>
							<rect x="420.589" y="282.712" fill-rule="evenodd" clip-rule="evenodd" width="1.05" height="1.773"/>
							<rect x="420.589" y="285.882" fill-rule="evenodd" clip-rule="evenodd" width="1.05" height="1.773"/>
						</g>
					</g>
					<g>
						<g>
							<g>
								<rect x="415.711" y="269.272" fill="none" width="10.499" height="9.554"/>
							</g>
							<rect x="420.59" y="269.979" fill-rule="evenodd" clip-rule="evenodd" width="1.05" height="1.773"/>
							<rect x="420.59" y="273.159" fill-rule="evenodd" clip-rule="evenodd" width="1.05" height="1.773"/>
							<rect x="420.59" y="276.329" fill-rule="evenodd" clip-rule="evenodd" width="1.05" height="1.773"/>
						</g>
					</g>
				</g>
			</g>
		</g>
		<line fill="none" stroke="#000000" stroke-miterlimit="10" x1="420.946" y1="469.897" x2="481.191" y2="329.706"/>
		<line fill="none" stroke="#000000" stroke-miterlimit="10" x1="360.698" y1="329.706" x2="420.946" y2="469.897"/>
	</g>
</g>
<g id="Layer_19">
</g>
<g id="Layer_20">
</g>
<g id="Layer_21">
</g>
<g id="Layer_22">
</g>
<g id="Layer_24">
</g>
<g id="Layer_25">
</g>
<g id="Layer_26">
</g>
<g id="Layer_27">
</g>
<g id="Layer_28">
</g>
<g id="Layer_29">
</g>
<g id="Layer_30">
</g>
<g id="Layer_31">
</g>
<g id="Layer_32">
</g>
<g id="Layer_33">
</g>
<g id="Layer_34">
</g>
<g id="Layer_35">
</g>
<g id="Layer_36">
</g>
<g id="Layer_37">
</g>
<g id="Layer_38">
</g>
<g id="Layer_39">
</g>
<g id="Layer_40">
</g>
<g id="Layer_41">
</g>
<g id="Layer_43">
</g>
</svg>
