<?xml version="1.0" encoding="utf-8"?>
<!-- Generator: Adobe Illustrator 16.0.0, SVG Export Plug-In . SVG Version: 6.00 Build 0)  -->
<!DOCTYPE svg PUBLIC "-//W3C//DTD SVG 1.1//EN" "http://www.w3.org/Graphics/SVG/1.1/DTD/svg11.dtd">
<svg version="1.1" xmlns="http://www.w3.org/2000/svg" xmlns:xlink="http://www.w3.org/1999/xlink" x="0px" y="0px"
	 width="841.89px" height="595.28px" viewBox="0 0 841.89 595.28" enable-background="new 0 0 841.89 595.28" xml:space="preserve">
<g id="Layer_1">
</g>
<g id="Layer_2">
</g>
<g id="Layer_3">
</g>
<g id="Layer_4">
</g>
<g id="Layer_5">
</g>
<g id="Layer_6">
</g>
<g id="Layer_7">
</g>
<g id="Layer_8">
</g>
<g id="Layer_9">
</g>
<g id="Layer_10">
</g>
<g id="Layer_11">
	<g>
		<polygon fill="none" stroke="#000000" stroke-miterlimit="10" points="424.721,485.607 520.938,397.364 420.663,497.585 
			320.442,397.364 416.813,485.605 325.964,380.014 420.661,474.068 515.242,380.196 		"/>
		<path fill="none" stroke="#000000" stroke-miterlimit="10" d="M325.972,380.017"/>
		<path fill="none" stroke="#A7A9AC" stroke-miterlimit="10" d="M515.432,379.837"/>
		<polyline id="pion_31_" fill="none" stroke="#000000" stroke-miterlimit="10" points="325.964,380.014 420.483,297.505 
			514.935,380.55 		"/>
		<line fill="none" stroke="#000000" stroke-miterlimit="10" x1="331.843" y1="385.853" x2="320.442" y2="397.364"/>
		<line fill="none" stroke="#000000" stroke-miterlimit="10" x1="520.938" y1="397.364" x2="509.392" y2="386.003"/>
		<g>
			<g>
				<g>
					<g>
						<g>
							<g>
								
									<rect x="415.884" y="487.562" transform="matrix(0.0018 1 -1 0.0018 912.6913 71.2479)" fill="none" width="9.545" height="10.499"/>
							</g>
							<rect x="420.279" y="488.743" fill-rule="evenodd" clip-rule="evenodd" width="1.05" height="1.772"/>
							<rect x="420.285" y="491.921" fill-rule="evenodd" clip-rule="evenodd" width="1.05" height="1.771"/>
							<rect x="420.291" y="495.088" fill-rule="evenodd" clip-rule="evenodd" width="1.05" height="1.771"/>
						</g>
					</g>
					<g>
						<g>
							<g>
								
									<rect x="415.866" y="478.017" transform="matrix(0.0018 1 -1 0.0018 903.1508 61.7628)" fill="none" width="9.544" height="10.499"/>
							</g>
							<rect x="420.262" y="479.199" fill-rule="evenodd" clip-rule="evenodd" width="1.05" height="1.772"/>
							<rect x="420.267" y="482.376" fill-rule="evenodd" clip-rule="evenodd" width="1.05" height="1.771"/>
							<rect x="420.273" y="485.543" fill-rule="evenodd" clip-rule="evenodd" width="1.05" height="1.771"/>
						</g>
					</g>
					<g>
						<g>
							<g>
								
									<rect x="415.849" y="468.472" transform="matrix(0.0018 1 -1 0.0018 893.5891 52.2528)" fill="none" width="9.544" height="10.499"/>
							</g>
							<rect x="420.245" y="469.654" fill-rule="evenodd" clip-rule="evenodd" width="1.05" height="1.771"/>
							<rect x="420.25" y="472.832" fill-rule="evenodd" clip-rule="evenodd" width="1.05" height="1.771"/>
							<rect x="420.256" y="475.999" fill-rule="evenodd" clip-rule="evenodd" width="1.05" height="1.771"/>
						</g>
					</g>
					<g>
						<g>
							<g>
								
									<rect x="415.832" y="458.928" transform="matrix(0.0018 1 -1 0.0018 884.0061 42.7188)" fill="none" width="9.544" height="10.499"/>
							</g>
							<rect x="420.227" y="460.11" fill-rule="evenodd" clip-rule="evenodd" width="1.05" height="1.771"/>
							<rect x="420.233" y="463.288" fill-rule="evenodd" clip-rule="evenodd" width="1.05" height="1.771"/>
							<rect x="420.239" y="466.455" fill-rule="evenodd" clip-rule="evenodd" width="1.05" height="1.771"/>
						</g>
					</g>
					<g>
						<g>
							<g>
								
									<rect x="415.815" y="449.384" transform="matrix(0.0018 1 -1 0.0018 874.4659 33.2325)" fill="none" width="9.544" height="10.499"/>
							</g>
							<rect x="420.21" y="450.565" fill-rule="evenodd" clip-rule="evenodd" width="1.05" height="1.771"/>
							<rect x="420.216" y="453.743" fill-rule="evenodd" clip-rule="evenodd" width="1.05" height="1.772"/>
							<rect x="420.221" y="456.91" fill-rule="evenodd" clip-rule="evenodd" width="1.05" height="1.771"/>
						</g>
					</g>
					<g>
						<g>
							<g>
								
									<rect x="415.797" y="439.839" transform="matrix(0.0018 1 -1 0.0018 864.9042 23.7225)" fill="none" width="9.544" height="10.499"/>
							</g>
							<rect x="420.193" y="441.021" fill-rule="evenodd" clip-rule="evenodd" width="1.05" height="1.771"/>
							<rect x="420.198" y="444.198" fill-rule="evenodd" clip-rule="evenodd" width="1.05" height="1.771"/>
							<rect x="420.204" y="447.365" fill-rule="evenodd" clip-rule="evenodd" width="1.05" height="1.772"/>
						</g>
					</g>
					<g>
						<g>
							<g>
								
									<rect x="415.78" y="430.294" transform="matrix(0.0018 1 -1 0.0018 855.3209 14.1898)" fill="none" width="9.544" height="10.499"/>
							</g>
							<rect x="420.175" y="431.477" fill-rule="evenodd" clip-rule="evenodd" width="1.05" height="1.771"/>
							<rect x="420.181" y="434.654" fill-rule="evenodd" clip-rule="evenodd" width="1.05" height="1.771"/>
							<rect x="420.187" y="437.821" fill-rule="evenodd" clip-rule="evenodd" width="1.05" height="1.772"/>
						</g>
					</g>
					<g>
						<g>
							<g>
								
									<rect x="415.763" y="420.75" transform="matrix(0.0018 1 -1 0.0018 845.7808 4.702)" fill="none" width="9.545" height="10.499"/>
							</g>
							<rect x="420.158" y="421.932" fill-rule="evenodd" clip-rule="evenodd" width="1.05" height="1.772"/>
							<rect x="420.164" y="425.109" fill-rule="evenodd" clip-rule="evenodd" width="1.05" height="1.771"/>
							<rect x="420.169" y="428.276" fill-rule="evenodd" clip-rule="evenodd" width="1.05" height="1.771"/>
						</g>
					</g>
					<g>
						<g>
							<g>
								
									<rect x="415.746" y="411.205" transform="matrix(0.0018 1 -1 0.0018 836.2188 -4.8083)" fill="none" width="9.544" height="10.499"/>
							</g>
							<rect x="420.141" y="412.387" fill-rule="evenodd" clip-rule="evenodd" width="1.05" height="1.772"/>
							<rect x="420.147" y="415.565" fill-rule="evenodd" clip-rule="evenodd" width="1.05" height="1.771"/>
							<rect x="420.152" y="418.732" fill-rule="evenodd" clip-rule="evenodd" width="1.05" height="1.771"/>
						</g>
					</g>
					<g>
						<g>
							<g>
								
									<rect x="415.729" y="401.661" transform="matrix(0.0018 1 -1 0.0018 826.6357 -14.3393)" fill="none" width="9.544" height="10.499"/>
							</g>
							<rect x="420.123" y="402.843" fill-rule="evenodd" clip-rule="evenodd" width="1.05" height="1.771"/>
							<rect x="420.129" y="406.021" fill-rule="evenodd" clip-rule="evenodd" width="1.05" height="1.771"/>
							<rect x="420.135" y="409.188" fill-rule="evenodd" clip-rule="evenodd" width="1.05" height="1.771"/>
						</g>
					</g>
					<g>
						<g>
							<g>
								
									<rect x="415.711" y="392.116" transform="matrix(0.0018 1 -1 0.0018 817.0956 -23.8285)" fill="none" width="9.544" height="10.499"/>
							</g>
							<rect x="420.106" y="393.298" fill-rule="evenodd" clip-rule="evenodd" width="1.05" height="1.771"/>
							<rect x="420.112" y="396.476" fill-rule="evenodd" clip-rule="evenodd" width="1.05" height="1.771"/>
							<rect x="420.117" y="399.643" fill-rule="evenodd" clip-rule="evenodd" width="1.05" height="1.771"/>
						</g>
					</g>
					<g>
						<g>
							<g>
								
									<rect x="415.694" y="382.572" transform="matrix(0.0018 1 -1 0.0018 807.5338 -33.3385)" fill="none" width="9.544" height="10.499"/>
							</g>
							<rect x="420.089" y="383.754" fill-rule="evenodd" clip-rule="evenodd" width="1.05" height="1.771"/>
							<rect x="420.095" y="386.931" fill-rule="evenodd" clip-rule="evenodd" width="1.05" height="1.772"/>
							<rect x="420.1" y="390.099" fill-rule="evenodd" clip-rule="evenodd" width="1.05" height="1.771"/>
						</g>
					</g>
					<g>
						<g>
							<g>
								
									<rect x="415.677" y="373.028" transform="matrix(0.0018 1 -1 0.0018 797.9508 -42.8681)" fill="none" width="9.544" height="10.499"/>
							</g>
							<rect x="420.072" y="374.209" fill-rule="evenodd" clip-rule="evenodd" width="1.05" height="1.771"/>
							<rect x="420.078" y="377.387" fill-rule="evenodd" clip-rule="evenodd" width="1.05" height="1.771"/>
							<rect x="420.083" y="380.554" fill-rule="evenodd" clip-rule="evenodd" width="1.05" height="1.772"/>
						</g>
					</g>
					<g>
						<g>
							<g>
								
									<rect x="415.659" y="363.483" transform="matrix(0.0018 1 -1 0.0018 788.4104 -52.359)" fill="none" width="9.544" height="10.499"/>
							</g>
							<rect x="420.055" y="364.665" fill-rule="evenodd" clip-rule="evenodd" width="1.05" height="1.771"/>
							<rect x="420.06" y="367.842" fill-rule="evenodd" clip-rule="evenodd" width="1.05" height="1.771"/>
							<rect x="420.066" y="371.009" fill-rule="evenodd" clip-rule="evenodd" width="1.05" height="1.772"/>
						</g>
					</g>
					<g>
						<g>
							<g>
								
									<rect x="415.642" y="353.938" transform="matrix(0.0018 1 -1 0.0018 778.8488 -61.869)" fill="none" width="9.545" height="10.499"/>
							</g>
							<rect x="420.038" y="355.12" fill-rule="evenodd" clip-rule="evenodd" width="1.05" height="1.772"/>
							<rect x="420.043" y="358.298" fill-rule="evenodd" clip-rule="evenodd" width="1.05" height="1.771"/>
							<rect x="420.049" y="361.465" fill-rule="evenodd" clip-rule="evenodd" width="1.05" height="1.771"/>
						</g>
					</g>
					<g>
						<g>
							<g>
								
									<rect x="415.625" y="344.394" transform="matrix(0.0018 1 -1 0.0018 769.2654 -71.3974)" fill="none" width="9.544" height="10.499"/>
							</g>
							<rect x="420.02" y="345.576" fill-rule="evenodd" clip-rule="evenodd" width="1.05" height="1.772"/>
							<rect x="420.026" y="348.753" fill-rule="evenodd" clip-rule="evenodd" width="1.05" height="1.771"/>
							<rect x="420.032" y="351.92" fill-rule="evenodd" clip-rule="evenodd" width="1.05" height="1.771"/>
						</g>
					</g>
					<g>
						<g>
							<g>
								
									<rect x="415.608" y="334.849" transform="matrix(0.0018 1 -1 0.0018 759.7252 -80.8896)" fill="none" width="9.544" height="10.499"/>
							</g>
							<rect x="420.003" y="336.031" fill-rule="evenodd" clip-rule="evenodd" width="1.05" height="1.771"/>
							<rect x="420.009" y="339.209" fill-rule="evenodd" clip-rule="evenodd" width="1.05" height="1.771"/>
							<rect x="420.014" y="342.376" fill-rule="evenodd" clip-rule="evenodd" width="1.05" height="1.771"/>
						</g>
					</g>
					<g>
						<g>
							<g>
								
									<rect x="415.59" y="325.305" transform="matrix(0.0018 1 -1 0.0018 750.1636 -90.3996)" fill="none" width="9.544" height="10.499"/>
							</g>
							<rect x="419.986" y="326.487" fill-rule="evenodd" clip-rule="evenodd" width="1.05" height="1.771"/>
							<rect x="419.991" y="329.665" fill-rule="evenodd" clip-rule="evenodd" width="1.05" height="1.771"/>
							<rect x="419.997" y="332.832" fill-rule="evenodd" clip-rule="evenodd" width="1.05" height="1.771"/>
						</g>
					</g>
					<g>
						<g>
							<g>
								
									<rect x="415.573" y="315.76" transform="matrix(0.0018 1 -1 0.0018 740.5805 -99.9262)" fill="none" width="9.544" height="10.499"/>
							</g>
							<rect x="419.968" y="316.942" fill-rule="evenodd" clip-rule="evenodd" width="1.05" height="1.771"/>
							<rect x="419.974" y="320.12" fill-rule="evenodd" clip-rule="evenodd" width="1.05" height="1.772"/>
							<rect x="419.98" y="323.287" fill-rule="evenodd" clip-rule="evenodd" width="1.05" height="1.771"/>
						</g>
					</g>
					<g>
						<g>
							<g>
								
									<rect x="415.556" y="306.216" transform="matrix(0.0018 1 -1 0.0018 731.0403 -109.4198)" fill="none" width="9.544" height="10.499"/>
							</g>
							<rect x="419.951" y="307.398" fill-rule="evenodd" clip-rule="evenodd" width="1.05" height="1.771"/>
							<rect x="419.957" y="310.575" fill-rule="evenodd" clip-rule="evenodd" width="1.05" height="1.771"/>
							<rect x="419.962" y="313.742" fill-rule="evenodd" clip-rule="evenodd" width="1.05" height="1.772"/>
						</g>
					</g>
					<g>
						<g>
							<g>
								
									<rect x="415.539" y="296.671" transform="matrix(0.0018 1 -1 0.0018 721.4784 -118.9301)" fill="none" width="9.544" height="10.499"/>
							</g>
							<rect x="419.934" y="297.854" fill-rule="evenodd" clip-rule="evenodd" width="1.05" height="1.771"/>
							<rect x="419.94" y="301.031" fill-rule="evenodd" clip-rule="evenodd" width="1.05" height="1.771"/>
							<rect x="419.945" y="304.198" fill-rule="evenodd" clip-rule="evenodd" width="1.05" height="1.772"/>
						</g>
					</g>
				</g>
			</g>
		</g>
		<line fill="none" stroke="#000000" stroke-miterlimit="10" x1="423.835" y1="470.458" x2="424.723" y2="485.605"/>
		<line fill="none" stroke="#000000" stroke-miterlimit="10" x1="416.813" y1="485.605" x2="417.025" y2="470.458"/>
		<polyline fill="none" stroke="#000000" stroke-width="0.7" stroke-miterlimit="10" points="515.146,380.55 420.168,474.068 
			325.688,380.014 		"/>
	</g>
</g>
<g id="Layer_12">
</g>
<g id="Layer_13">
</g>
<g id="Layer_14">
</g>
<g id="Layer_15">
</g>
<g id="Layer_16">
</g>
<g id="Layer_17">
</g>
<g id="Layer_18">
</g>
<g id="Layer_19">
</g>
<g id="Layer_20">
</g>
<g id="Layer_21">
</g>
<g id="Layer_22">
</g>
<g id="Layer_24">
</g>
<g id="Layer_25">
</g>
<g id="Layer_26">
</g>
<g id="Layer_27">
</g>
<g id="Layer_28">
</g>
<g id="Layer_29">
</g>
<g id="Layer_30">
</g>
<g id="Layer_31">
</g>
<g id="Layer_32">
</g>
<g id="Layer_33">
</g>
<g id="Layer_34">
</g>
<g id="Layer_35">
</g>
<g id="Layer_36">
</g>
<g id="Layer_37">
</g>
<g id="Layer_38">
</g>
<g id="Layer_39">
</g>
<g id="Layer_40">
</g>
<g id="Layer_41">
</g>
<g id="Layer_43">
</g>
</svg>
