<?xml version="1.0" encoding="utf-8"?>
<!-- Generator: Adobe Illustrator 16.0.0, SVG Export Plug-In . SVG Version: 6.00 Build 0)  -->
<!DOCTYPE svg PUBLIC "-//W3C//DTD SVG 1.1//EN" "http://www.w3.org/Graphics/SVG/1.1/DTD/svg11.dtd">
<svg version="1.1" xmlns="http://www.w3.org/2000/svg" xmlns:xlink="http://www.w3.org/1999/xlink" x="0px" y="0px"
	 width="841.89px" height="595.28px" viewBox="0 0 841.89 595.28" enable-background="new 0 0 841.89 595.28" xml:space="preserve">
<g id="Layer_1">
</g>
<g id="Layer_2">
</g>
<g id="Layer_3">
</g>
<g id="Layer_4">
</g>
<g id="Layer_5">
</g>
<g id="Layer_6">
</g>
<g id="Layer_7">
</g>
<g id="Layer_8">
</g>
<g id="Layer_9">
</g>
<g id="Layer_10">
</g>
<g id="Layer_11">
</g>
<g id="Layer_12">
</g>
<g id="Layer_13">
</g>
<g id="Layer_14">
</g>
<g id="Layer_15">
</g>
<g id="Layer_16">
</g>
<g id="Layer_17">
</g>
<g id="Layer_18">
</g>
<g id="Layer_19">
</g>
<g id="Layer_20">
</g>
<g id="Layer_21">
</g>
<g id="Layer_22">
</g>
<g id="Layer_24">
</g>
<g id="Layer_25">
</g>
<g id="Layer_26">
</g>
<g id="Layer_27">
</g>
<g id="Layer_28">
</g>
<g id="Layer_29">
</g>
<g id="Layer_30">
	<g>
		<path fill="none" stroke="#000000" stroke-miterlimit="10" d="M435.861,230.798"/>
		<g>
			<g>
				<g>
					<g>
						<g>
							<g>
								<rect x="415.696" y="457.471" fill="none" width="10.499" height="9.553"/>
							</g>
							<rect x="420.575" y="458.177" fill-rule="evenodd" clip-rule="evenodd" width="1.05" height="1.773"/>
							<rect x="420.574" y="461.357" fill-rule="evenodd" clip-rule="evenodd" width="1.05" height="1.773"/>
							<rect x="420.574" y="464.527" fill-rule="evenodd" clip-rule="evenodd" width="1.05" height="1.773"/>
						</g>
					</g>
					<g>
						<g>
							<g>
								<rect x="415.697" y="447.917" fill="none" width="10.499" height="9.554"/>
							</g>
							<rect x="420.575" y="448.623" fill-rule="evenodd" clip-rule="evenodd" width="1.05" height="1.773"/>
							<rect x="420.575" y="451.804" fill-rule="evenodd" clip-rule="evenodd" width="1.05" height="1.773"/>
							<rect x="420.575" y="454.974" fill-rule="evenodd" clip-rule="evenodd" width="1.05" height="1.773"/>
						</g>
					</g>
					<g>
						<g>
							<g>
								<rect x="415.698" y="438.364" fill="none" width="10.499" height="9.554"/>
							</g>
							<rect x="420.576" y="439.069" fill-rule="evenodd" clip-rule="evenodd" width="1.05" height="1.773"/>
							<rect x="420.575" y="442.25" fill-rule="evenodd" clip-rule="evenodd" width="1.051" height="1.773"/>
							<rect x="420.575" y="445.42" fill-rule="evenodd" clip-rule="evenodd" width="1.051" height="1.773"/>
						</g>
					</g>
					<g>
						<g>
							<g>
								<rect x="415.699" y="428.81" fill="none" width="10.499" height="9.554"/>
							</g>
							<rect x="420.577" y="429.516" fill-rule="evenodd" clip-rule="evenodd" width="1.05" height="1.773"/>
							<rect x="420.577" y="432.696" fill-rule="evenodd" clip-rule="evenodd" width="1.05" height="1.773"/>
							<rect x="420.576" y="435.866" fill-rule="evenodd" clip-rule="evenodd" width="1.05" height="1.773"/>
						</g>
					</g>
					<g>
						<g>
							<g>
								<rect x="415.699" y="419.256" fill="none" width="10.499" height="9.554"/>
							</g>
							<rect x="420.577" y="419.962" fill-rule="evenodd" clip-rule="evenodd" width="1.051" height="1.773"/>
							<rect x="420.577" y="423.143" fill-rule="evenodd" clip-rule="evenodd" width="1.05" height="1.773"/>
							<rect x="420.577" y="426.313" fill-rule="evenodd" clip-rule="evenodd" width="1.05" height="1.772"/>
						</g>
					</g>
					<g>
						<g>
							<g>
								<rect x="415.7" y="409.703" fill="none" width="10.499" height="9.554"/>
							</g>
							<rect x="420.578" y="410.409" fill-rule="evenodd" clip-rule="evenodd" width="1.05" height="1.773"/>
							<rect x="420.578" y="413.589" fill-rule="evenodd" clip-rule="evenodd" width="1.05" height="1.773"/>
							<rect x="420.578" y="416.76" fill-rule="evenodd" clip-rule="evenodd" width="1.05" height="1.772"/>
						</g>
					</g>
					<g>
						<g>
							<g>
								<rect x="415.701" y="400.149" fill="none" width="10.499" height="9.554"/>
							</g>
							<rect x="420.579" y="400.855" fill-rule="evenodd" clip-rule="evenodd" width="1.05" height="1.773"/>
							<rect x="420.579" y="404.036" fill-rule="evenodd" clip-rule="evenodd" width="1.05" height="1.773"/>
							<rect x="420.579" y="407.206" fill-rule="evenodd" clip-rule="evenodd" width="1.05" height="1.773"/>
						</g>
					</g>
					<g>
						<g>
							<g>
								<rect x="415.702" y="390.596" fill="none" width="10.499" height="9.553"/>
							</g>
							<rect x="420.58" y="391.302" fill-rule="evenodd" clip-rule="evenodd" width="1.05" height="1.773"/>
							<rect x="420.579" y="394.482" fill-rule="evenodd" clip-rule="evenodd" width="1.051" height="1.773"/>
							<rect x="420.58" y="397.652" fill-rule="evenodd" clip-rule="evenodd" width="1.05" height="1.773"/>
						</g>
					</g>
					<g>
						<g>
							<g>
								<rect x="415.702" y="381.042" fill="none" width="10.499" height="9.554"/>
							</g>
							<rect x="420.58" y="381.748" fill-rule="evenodd" clip-rule="evenodd" width="1.051" height="1.773"/>
							<rect x="420.58" y="384.929" fill-rule="evenodd" clip-rule="evenodd" width="1.05" height="1.773"/>
							<rect x="420.58" y="388.099" fill-rule="evenodd" clip-rule="evenodd" width="1.05" height="1.773"/>
						</g>
					</g>
					<g>
						<g>
							<g>
								<rect x="415.703" y="371.489" fill="none" width="10.499" height="9.554"/>
							</g>
							<rect x="420.582" y="372.194" fill-rule="evenodd" clip-rule="evenodd" width="1.05" height="1.773"/>
							<rect x="420.581" y="375.375" fill-rule="evenodd" clip-rule="evenodd" width="1.05" height="1.773"/>
							<rect x="420.581" y="378.545" fill-rule="evenodd" clip-rule="evenodd" width="1.05" height="1.773"/>
						</g>
					</g>
					<g>
						<g>
							<g>
								<rect x="415.704" y="361.935" fill="none" width="10.499" height="9.554"/>
							</g>
							<rect x="420.582" y="362.641" fill-rule="evenodd" clip-rule="evenodd" width="1.05" height="1.773"/>
							<rect x="420.582" y="365.821" fill-rule="evenodd" clip-rule="evenodd" width="1.05" height="1.773"/>
							<rect x="420.581" y="368.991" fill-rule="evenodd" clip-rule="evenodd" width="1.051" height="1.773"/>
						</g>
					</g>
					<g>
						<g>
							<g>
								<rect x="415.705" y="352.381" fill="none" width="10.499" height="9.554"/>
							</g>
							<rect x="420.583" y="353.088" fill-rule="evenodd" clip-rule="evenodd" width="1.05" height="1.772"/>
							<rect x="420.582" y="356.268" fill-rule="evenodd" clip-rule="evenodd" width="1.051" height="1.773"/>
							<rect x="420.582" y="359.438" fill-rule="evenodd" clip-rule="evenodd" width="1.05" height="1.772"/>
						</g>
					</g>
					<g>
						<g>
							<g>
								<rect x="415.705" y="342.828" fill="none" width="10.499" height="9.554"/>
							</g>
							<rect x="420.583" y="343.534" fill-rule="evenodd" clip-rule="evenodd" width="1.051" height="1.773"/>
							<rect x="420.583" y="346.714" fill-rule="evenodd" clip-rule="evenodd" width="1.05" height="1.773"/>
							<rect x="420.583" y="349.884" fill-rule="evenodd" clip-rule="evenodd" width="1.05" height="1.773"/>
						</g>
					</g>
					<g>
						<g>
							<g>
								<rect x="415.706" y="333.274" fill="none" width="10.499" height="9.554"/>
							</g>
							<rect x="420.584" y="333.98" fill-rule="evenodd" clip-rule="evenodd" width="1.05" height="1.773"/>
							<rect x="420.584" y="337.161" fill-rule="evenodd" clip-rule="evenodd" width="1.05" height="1.773"/>
							<rect x="420.584" y="340.331" fill-rule="evenodd" clip-rule="evenodd" width="1.05" height="1.773"/>
						</g>
					</g>
					<g>
						<g>
							<g>
								<rect x="415.707" y="323.721" fill="none" width="10.499" height="9.553"/>
							</g>
							<rect x="420.585" y="324.427" fill-rule="evenodd" clip-rule="evenodd" width="1.05" height="1.773"/>
							<rect x="420.585" y="327.607" fill-rule="evenodd" clip-rule="evenodd" width="1.05" height="1.773"/>
							<rect x="420.585" y="330.777" fill-rule="evenodd" clip-rule="evenodd" width="1.05" height="1.773"/>
						</g>
					</g>
					<g>
						<g>
							<g>
								<rect x="415.708" y="314.167" fill="none" width="10.499" height="9.554"/>
							</g>
							<rect x="420.586" y="314.873" fill-rule="evenodd" clip-rule="evenodd" width="1.05" height="1.773"/>
							<rect x="420.585" y="318.054" fill-rule="evenodd" clip-rule="evenodd" width="1.051" height="1.773"/>
							<rect x="420.585" y="321.224" fill-rule="evenodd" clip-rule="evenodd" width="1.05" height="1.773"/>
						</g>
					</g>
					<g>
						<g>
							<g>
								<rect x="415.708" y="304.614" fill="none" width="10.499" height="9.554"/>
							</g>
							<rect x="420.587" y="305.319" fill-rule="evenodd" clip-rule="evenodd" width="1.05" height="1.773"/>
							<rect x="420.586" y="308.5" fill-rule="evenodd" clip-rule="evenodd" width="1.05" height="1.773"/>
							<rect x="420.586" y="311.67" fill-rule="evenodd" clip-rule="evenodd" width="1.05" height="1.773"/>
						</g>
					</g>
					<g>
						<g>
							<g>
								<rect x="415.708" y="295.06" fill="none" width="10.499" height="9.554"/>
							</g>
							<rect x="420.587" y="295.766" fill-rule="evenodd" clip-rule="evenodd" width="1.051" height="1.773"/>
							<rect x="420.587" y="298.946" fill-rule="evenodd" clip-rule="evenodd" width="1.05" height="1.773"/>
							<rect x="420.587" y="302.116" fill-rule="evenodd" clip-rule="evenodd" width="1.05" height="1.773"/>
						</g>
					</g>
					<g>
						<g>
							<g>
								<rect x="415.709" y="285.506" fill="none" width="10.499" height="9.554"/>
							</g>
							<rect x="420.588" y="286.213" fill-rule="evenodd" clip-rule="evenodd" width="1.05" height="1.772"/>
							<rect x="420.588" y="289.393" fill-rule="evenodd" clip-rule="evenodd" width="1.05" height="1.773"/>
							<rect x="420.587" y="292.563" fill-rule="evenodd" clip-rule="evenodd" width="1.051" height="1.772"/>
						</g>
					</g>
					<g>
						<g>
							<g>
								<rect x="415.71" y="275.953" fill="none" width="10.499" height="9.554"/>
							</g>
							<rect x="420.589" y="276.659" fill-rule="evenodd" clip-rule="evenodd" width="1.05" height="1.773"/>
							<rect x="420.589" y="279.839" fill-rule="evenodd" clip-rule="evenodd" width="1.05" height="1.773"/>
							<rect x="420.588" y="283.009" fill-rule="evenodd" clip-rule="evenodd" width="1.05" height="1.773"/>
						</g>
					</g>
					<g>
						<g>
							<g>
								<rect x="415.712" y="266.399" fill="none" width="10.498" height="9.554"/>
							</g>
							<rect x="420.589" y="267.105" fill-rule="evenodd" clip-rule="evenodd" width="1.051" height="1.773"/>
							<rect x="420.589" y="270.286" fill-rule="evenodd" clip-rule="evenodd" width="1.051" height="1.773"/>
							<rect x="420.589" y="273.456" fill-rule="evenodd" clip-rule="evenodd" width="1.05" height="1.773"/>
						</g>
					</g>
				</g>
			</g>
		</g>
		<path fill="none" stroke="#000000" stroke-miterlimit="10" d="M420.945,266.229"/>
		<line fill="none" stroke="#000000" stroke-miterlimit="10" x1="420.945" y1="467.024" x2="481.191" y2="326.833"/>
		<line fill="none" stroke="#000000" stroke-miterlimit="10" x1="360.697" y1="326.833" x2="420.945" y2="467.024"/>
		<g>
			<g>
				<g>
					<g>
						<g>
							<g>
								<g>
									<rect x="415.696" y="258.4" fill="none" width="10.498" height="8.974"/>
								</g>
								<rect x="420.574" y="259.063" fill-rule="evenodd" clip-rule="evenodd" width="1.05" height="1.666"/>
								<rect x="420.574" y="262.051" fill-rule="evenodd" clip-rule="evenodd" width="1.05" height="1.666"/>
								<rect x="420.574" y="265.028" fill-rule="evenodd" clip-rule="evenodd" width="1.05" height="1.666"/>
							</g>
						</g>
						<g>
							<g>
								<g>
									<rect x="415.696" y="249.427" fill="none" width="10.498" height="8.974"/>
								</g>
								<rect x="420.574" y="250.09" fill-rule="evenodd" clip-rule="evenodd" width="1.05" height="1.665"/>
								<rect x="420.574" y="253.077" fill-rule="evenodd" clip-rule="evenodd" width="1.05" height="1.666"/>
								<rect x="420.574" y="256.055" fill-rule="evenodd" clip-rule="evenodd" width="1.05" height="1.666"/>
							</g>
						</g>
						<g>
							<g>
								<g>
									<rect x="415.696" y="240.453" fill="none" width="10.498" height="8.974"/>
								</g>
								<rect x="420.574" y="241.116" fill-rule="evenodd" clip-rule="evenodd" width="1.05" height="1.666"/>
								<rect x="420.574" y="244.104" fill-rule="evenodd" clip-rule="evenodd" width="1.05" height="1.666"/>
								<rect x="420.574" y="247.081" fill-rule="evenodd" clip-rule="evenodd" width="1.05" height="1.666"/>
							</g>
						</g>
						<g>
							<g>
								<g>
									<rect x="415.696" y="231.479" fill="none" width="10.498" height="8.974"/>
								</g>
								<rect x="420.574" y="232.143" fill-rule="evenodd" clip-rule="evenodd" width="1.05" height="1.665"/>
								<rect x="420.574" y="235.13" fill-rule="evenodd" clip-rule="evenodd" width="1.05" height="1.666"/>
								<rect x="420.574" y="238.107" fill-rule="evenodd" clip-rule="evenodd" width="1.05" height="1.666"/>
							</g>
						</g>
						<g>
							<g>
								<g>
									<rect x="415.696" y="222.506" fill="none" width="10.498" height="8.974"/>
								</g>
								<rect x="420.574" y="223.169" fill-rule="evenodd" clip-rule="evenodd" width="1.05" height="1.666"/>
								<rect x="420.574" y="226.156" fill-rule="evenodd" clip-rule="evenodd" width="1.05" height="1.666"/>
								<rect x="420.574" y="229.134" fill-rule="evenodd" clip-rule="evenodd" width="1.05" height="1.666"/>
							</g>
						</g>
						<g>
							<g>
								<g>
									<rect x="415.696" y="213.532" fill="none" width="10.498" height="8.974"/>
								</g>
								<rect x="420.574" y="214.195" fill-rule="evenodd" clip-rule="evenodd" width="1.05" height="1.665"/>
								<rect x="420.574" y="217.183" fill-rule="evenodd" clip-rule="evenodd" width="1.05" height="1.666"/>
								<rect x="420.574" y="220.16" fill-rule="evenodd" clip-rule="evenodd" width="1.05" height="1.666"/>
							</g>
						</g>
						<g>
							<g>
								<g>
									<rect x="415.696" y="204.559" fill="none" width="10.498" height="8.974"/>
								</g>
								<rect x="420.574" y="205.222" fill-rule="evenodd" clip-rule="evenodd" width="1.05" height="1.666"/>
								<rect x="420.574" y="208.209" fill-rule="evenodd" clip-rule="evenodd" width="1.05" height="1.666"/>
								<rect x="420.574" y="211.187" fill-rule="evenodd" clip-rule="evenodd" width="1.05" height="1.666"/>
							</g>
						</g>
						<g>
							<g>
								<g>
									<rect x="415.696" y="195.585" fill="none" width="10.498" height="8.974"/>
								</g>
								<rect x="420.574" y="196.248" fill-rule="evenodd" clip-rule="evenodd" width="1.05" height="1.665"/>
								<rect x="420.574" y="199.235" fill-rule="evenodd" clip-rule="evenodd" width="1.05" height="1.666"/>
								<rect x="420.574" y="202.213" fill-rule="evenodd" clip-rule="evenodd" width="1.05" height="1.666"/>
							</g>
						</g>
						<g>
							<g>
								<g>
									<rect x="415.696" y="186.611" fill="none" width="10.498" height="8.974"/>
								</g>
								<rect x="420.574" y="187.274" fill-rule="evenodd" clip-rule="evenodd" width="1.05" height="1.666"/>
								<rect x="420.574" y="190.262" fill-rule="evenodd" clip-rule="evenodd" width="1.05" height="1.666"/>
								<rect x="420.574" y="193.239" fill-rule="evenodd" clip-rule="evenodd" width="1.05" height="1.666"/>
							</g>
						</g>
					</g>
				</g>
			</g>
			<line fill="none" stroke="#000000" stroke-miterlimit="10" x1="386.588" y1="266.378" x2="391.676" y2="296.06"/>
			<line fill="none" stroke="#000000" stroke-miterlimit="10" x1="420.945" y1="186.611" x2="386.588" y2="266.557"/>
			<line fill="none" stroke="#000000" stroke-miterlimit="10" x1="455.301" y1="266.557" x2="420.945" y2="186.611"/>
			<line fill="none" stroke="#000000" stroke-miterlimit="10" x1="455.301" y1="266.557" x2="450.275" y2="295.881"/>
		</g>
		<line fill="none" stroke="#000000" stroke-miterlimit="10" x1="360.697" y1="326.833" x2="420.83" y2="265.507"/>
		<line fill="none" stroke="#000000" stroke-miterlimit="10" x1="420.83" y1="265.507" x2="481.191" y2="326.833"/>
	</g>
</g>
<g id="Layer_31">
</g>
<g id="Layer_32">
</g>
<g id="Layer_33">
</g>
<g id="Layer_34">
</g>
<g id="Layer_35">
</g>
<g id="Layer_36">
</g>
<g id="Layer_37">
</g>
<g id="Layer_38">
</g>
<g id="Layer_39">
</g>
<g id="Layer_40">
</g>
<g id="Layer_41">
</g>
<g id="Layer_43">
</g>
</svg>
