<?xml version="1.0" encoding="utf-8"?>
<!-- Generator: Adobe Illustrator 16.0.0, SVG Export Plug-In . SVG Version: 6.00 Build 0)  -->
<!DOCTYPE svg PUBLIC "-//W3C//DTD SVG 1.1//EN" "http://www.w3.org/Graphics/SVG/1.1/DTD/svg11.dtd">
<svg version="1.1" xmlns="http://www.w3.org/2000/svg" xmlns:xlink="http://www.w3.org/1999/xlink" x="0px" y="0px"
	 width="841.89px" height="595.28px" viewBox="0 0 841.89 595.28" enable-background="new 0 0 841.89 595.28" xml:space="preserve">
<g id="Layer_1">
</g>
<g id="Layer_2">
</g>
<g id="Layer_3">
</g>
<g id="Layer_4">
</g>
<g id="Layer_5">
</g>
<g id="Layer_6">
</g>
<g id="Layer_7">
</g>
<g id="Layer_8">
</g>
<g id="Layer_9">
</g>
<g id="Layer_10">
</g>
<g id="Layer_11">
</g>
<g id="Layer_12">
</g>
<g id="Layer_13">
	<g>
		<polyline id="pion_32_" fill="none" stroke="#000000" stroke-miterlimit="10" points="521.739,369.104 420.835,268.728 
			320.511,369.221 		"/>
		<polyline fill="none" stroke="#000000" stroke-miterlimit="10" points="520.951,369.221 420.731,469.44 320.512,369.221 
			420.731,269.001 		"/>
		<g>
			<g>
				<g>
					<g>
						<g>
							<g>
								<rect x="415.482" y="459.706" fill="none" width="10.499" height="9.544"/>
							</g>
							<rect x="420.361" y="460.411" fill-rule="evenodd" clip-rule="evenodd" width="1.05" height="1.771"/>
							<rect x="420.361" y="463.588" fill-rule="evenodd" clip-rule="evenodd" width="1.05" height="1.771"/>
							<rect x="420.36" y="466.755" fill-rule="evenodd" clip-rule="evenodd" width="1.05" height="1.771"/>
						</g>
					</g>
					<g>
						<g>
							<g>
								<rect x="415.483" y="450.161" fill="none" width="10.499" height="9.545"/>
							</g>
							<rect x="420.362" y="450.866" fill-rule="evenodd" clip-rule="evenodd" width="1.05" height="1.771"/>
							<rect x="420.361" y="454.044" fill-rule="evenodd" clip-rule="evenodd" width="1.05" height="1.771"/>
							<rect x="420.361" y="457.211" fill-rule="evenodd" clip-rule="evenodd" width="1.05" height="1.771"/>
						</g>
					</g>
					<g>
						<g>
							<g>
								<rect x="415.484" y="440.616" fill="none" width="10.499" height="9.544"/>
							</g>
							<rect x="420.362" y="441.322" fill-rule="evenodd" clip-rule="evenodd" width="1.05" height="1.771"/>
							<rect x="420.362" y="444.499" fill-rule="evenodd" clip-rule="evenodd" width="1.05" height="1.772"/>
							<rect x="420.362" y="447.666" fill-rule="evenodd" clip-rule="evenodd" width="1.05" height="1.772"/>
						</g>
					</g>
					<g>
						<g>
							<g>
								<rect x="415.484" y="431.072" fill="none" width="10.5" height="9.544"/>
							</g>
							<rect x="420.363" y="431.777" fill-rule="evenodd" clip-rule="evenodd" width="1.05" height="1.771"/>
							<rect x="420.363" y="434.955" fill-rule="evenodd" clip-rule="evenodd" width="1.05" height="1.771"/>
							<rect x="420.362" y="438.122" fill-rule="evenodd" clip-rule="evenodd" width="1.05" height="1.772"/>
						</g>
					</g>
					<g>
						<g>
							<g>
								<rect x="415.486" y="421.528" fill="none" width="10.499" height="9.544"/>
							</g>
							<rect x="420.364" y="422.233" fill-rule="evenodd" clip-rule="evenodd" width="1.05" height="1.771"/>
							<rect x="420.363" y="425.41" fill-rule="evenodd" clip-rule="evenodd" width="1.05" height="1.771"/>
							<rect x="420.363" y="428.577" fill-rule="evenodd" clip-rule="evenodd" width="1.05" height="1.771"/>
						</g>
					</g>
					<g>
						<g>
							<g>
								<rect x="415.486" y="411.983" fill="none" width="10.499" height="9.544"/>
							</g>
							<rect x="420.364" y="412.688" fill-rule="evenodd" clip-rule="evenodd" width="1.05" height="1.771"/>
							<rect x="420.364" y="415.866" fill-rule="evenodd" clip-rule="evenodd" width="1.05" height="1.771"/>
							<rect x="420.364" y="419.033" fill-rule="evenodd" clip-rule="evenodd" width="1.05" height="1.771"/>
						</g>
					</g>
					<g>
						<g>
							<g>
								<rect x="415.487" y="402.438" fill="none" width="10.499" height="9.544"/>
							</g>
							<rect x="420.365" y="403.144" fill-rule="evenodd" clip-rule="evenodd" width="1.05" height="1.771"/>
							<rect x="420.365" y="406.321" fill-rule="evenodd" clip-rule="evenodd" width="1.05" height="1.771"/>
							<rect x="420.365" y="409.488" fill-rule="evenodd" clip-rule="evenodd" width="1.05" height="1.771"/>
						</g>
					</g>
					<g>
						<g>
							<g>
								<rect x="415.487" y="392.894" fill="none" width="10.5" height="9.544"/>
							</g>
							<rect x="420.366" y="393.599" fill-rule="evenodd" clip-rule="evenodd" width="1.05" height="1.771"/>
							<rect x="420.366" y="396.777" fill-rule="evenodd" clip-rule="evenodd" width="1.05" height="1.771"/>
							<rect x="420.365" y="399.944" fill-rule="evenodd" clip-rule="evenodd" width="1.05" height="1.771"/>
						</g>
					</g>
					<g>
						<g>
							<g>
								<rect x="415.489" y="383.349" fill="none" width="10.499" height="9.545"/>
							</g>
							<rect x="420.367" y="384.055" fill-rule="evenodd" clip-rule="evenodd" width="1.05" height="1.771"/>
							<rect x="420.366" y="387.232" fill-rule="evenodd" clip-rule="evenodd" width="1.05" height="1.771"/>
							<rect x="420.366" y="390.399" fill-rule="evenodd" clip-rule="evenodd" width="1.05" height="1.771"/>
						</g>
					</g>
					<g>
						<g>
							<g>
								<rect x="415.489" y="373.805" fill="none" width="10.499" height="9.544"/>
							</g>
							<rect x="420.367" y="374.51" fill-rule="evenodd" clip-rule="evenodd" width="1.05" height="1.771"/>
							<rect x="420.367" y="377.687" fill-rule="evenodd" clip-rule="evenodd" width="1.05" height="1.772"/>
							<rect x="420.367" y="380.854" fill-rule="evenodd" clip-rule="evenodd" width="1.05" height="1.772"/>
						</g>
					</g>
					<g>
						<g>
							<g>
								<rect x="415.49" y="364.26" fill="none" width="10.499" height="9.544"/>
							</g>
							<rect x="420.368" y="364.966" fill-rule="evenodd" clip-rule="evenodd" width="1.05" height="1.771"/>
							<rect x="420.368" y="368.143" fill-rule="evenodd" clip-rule="evenodd" width="1.05" height="1.771"/>
							<rect x="420.368" y="371.31" fill-rule="evenodd" clip-rule="evenodd" width="1.05" height="1.772"/>
						</g>
					</g>
					<g>
						<g>
							<g>
								<rect x="415.49" y="354.716" fill="none" width="10.5" height="9.544"/>
							</g>
							<rect x="420.369" y="355.421" fill-rule="evenodd" clip-rule="evenodd" width="1.05" height="1.771"/>
							<rect x="420.369" y="358.599" fill-rule="evenodd" clip-rule="evenodd" width="1.05" height="1.771"/>
							<rect x="420.368" y="361.766" fill-rule="evenodd" clip-rule="evenodd" width="1.05" height="1.771"/>
						</g>
					</g>
					<g>
						<g>
							<g>
								<rect x="415.492" y="345.171" fill="none" width="10.499" height="9.544"/>
							</g>
							<rect x="420.37" y="345.877" fill-rule="evenodd" clip-rule="evenodd" width="1.05" height="1.771"/>
							<rect x="420.369" y="349.054" fill-rule="evenodd" clip-rule="evenodd" width="1.05" height="1.771"/>
							<rect x="420.369" y="352.221" fill-rule="evenodd" clip-rule="evenodd" width="1.05" height="1.771"/>
						</g>
					</g>
					<g>
						<g>
							<g>
								<rect x="415.492" y="335.627" fill="none" width="10.499" height="9.544"/>
							</g>
							<rect x="420.37" y="336.332" fill-rule="evenodd" clip-rule="evenodd" width="1.05" height="1.771"/>
							<rect x="420.37" y="339.51" fill-rule="evenodd" clip-rule="evenodd" width="1.05" height="1.771"/>
							<rect x="420.37" y="342.677" fill-rule="evenodd" clip-rule="evenodd" width="1.05" height="1.771"/>
						</g>
					</g>
					<g>
						<g>
							<g>
								<rect x="415.493" y="326.083" fill="none" width="10.499" height="9.544"/>
							</g>
							<rect x="420.371" y="326.788" fill-rule="evenodd" clip-rule="evenodd" width="1.05" height="1.771"/>
							<rect x="420.371" y="329.965" fill-rule="evenodd" clip-rule="evenodd" width="1.05" height="1.771"/>
							<rect x="420.371" y="333.132" fill-rule="evenodd" clip-rule="evenodd" width="1.05" height="1.771"/>
						</g>
					</g>
					<g>
						<g>
							<g>
								<rect x="415.493" y="316.538" fill="none" width="10.5" height="9.545"/>
							</g>
							<rect x="420.372" y="317.243" fill-rule="evenodd" clip-rule="evenodd" width="1.05" height="1.771"/>
							<rect x="420.372" y="320.421" fill-rule="evenodd" clip-rule="evenodd" width="1.05" height="1.771"/>
							<rect x="420.371" y="323.588" fill-rule="evenodd" clip-rule="evenodd" width="1.05" height="1.771"/>
						</g>
					</g>
					<g>
						<g>
							<g>
								<rect x="415.495" y="306.993" fill="none" width="10.499" height="9.544"/>
							</g>
							<rect x="420.373" y="307.699" fill-rule="evenodd" clip-rule="evenodd" width="1.05" height="1.771"/>
							<rect x="420.372" y="310.876" fill-rule="evenodd" clip-rule="evenodd" width="1.05" height="1.772"/>
							<rect x="420.372" y="314.043" fill-rule="evenodd" clip-rule="evenodd" width="1.05" height="1.772"/>
						</g>
					</g>
					<g>
						<g>
							<g>
								<rect x="415.495" y="297.449" fill="none" width="10.499" height="9.544"/>
							</g>
							<rect x="420.373" y="298.154" fill-rule="evenodd" clip-rule="evenodd" width="1.05" height="1.771"/>
							<rect x="420.373" y="301.332" fill-rule="evenodd" clip-rule="evenodd" width="1.05" height="1.771"/>
							<rect x="420.373" y="304.499" fill-rule="evenodd" clip-rule="evenodd" width="1.05" height="1.772"/>
						</g>
					</g>
					<g>
						<g>
							<g>
								<rect x="415.496" y="287.905" fill="none" width="10.499" height="9.544"/>
							</g>
							<rect x="420.374" y="288.61" fill-rule="evenodd" clip-rule="evenodd" width="1.05" height="1.771"/>
							<rect x="420.374" y="291.787" fill-rule="evenodd" clip-rule="evenodd" width="1.05" height="1.771"/>
							<rect x="420.374" y="294.954" fill-rule="evenodd" clip-rule="evenodd" width="1.05" height="1.771"/>
						</g>
					</g>
					<g>
						<g>
							<g>
								<rect x="415.497" y="278.36" fill="none" width="10.499" height="9.544"/>
							</g>
							<rect x="420.375" y="279.065" fill-rule="evenodd" clip-rule="evenodd" width="1.05" height="1.771"/>
							<rect x="420.375" y="282.243" fill-rule="evenodd" clip-rule="evenodd" width="1.05" height="1.771"/>
							<rect x="420.374" y="285.41" fill-rule="evenodd" clip-rule="evenodd" width="1.05" height="1.771"/>
						</g>
					</g>
					<g>
						<g>
							<g>
								<rect x="415.498" y="268.815" fill="none" width="10.499" height="9.544"/>
							</g>
							<rect x="420.376" y="269.521" fill-rule="evenodd" clip-rule="evenodd" width="1.05" height="1.771"/>
							<rect x="420.375" y="272.698" fill-rule="evenodd" clip-rule="evenodd" width="1.05" height="1.771"/>
							<rect x="420.375" y="275.865" fill-rule="evenodd" clip-rule="evenodd" width="1.05" height="1.771"/>
						</g>
					</g>
				</g>
			</g>
		</g>
		<line fill="none" stroke="#000000" stroke-miterlimit="10" x1="420.849" y1="469.482" x2="420.849" y2="331.514"/>
		<line fill="none" stroke="#000000" stroke-miterlimit="10" x1="483.202" y1="331.472" x2="420.487" y2="331.472"/>
		<path fill="none" stroke="#000000" stroke-miterlimit="10" d="M420.731,268.645"/>
		<line fill="none" stroke="#000000" stroke-miterlimit="10" x1="483.202" y1="331.472" x2="420.731" y2="469.44"/>
	</g>
	<path fill="none" stroke="#000000" stroke-miterlimit="10" d="M420.359,331.514"/>
	<path fill="none" stroke="#000000" stroke-miterlimit="10" d="M421.131,469"/>
	<line fill="none" stroke="#000000" stroke-miterlimit="10" x1="358.66" y1="331.031" x2="420.849" y2="331.514"/>
	<line fill="none" stroke="#000000" stroke-miterlimit="10" x1="358.66" y1="331.031" x2="421.131" y2="469"/>
</g>
<g id="Layer_14">
</g>
<g id="Layer_15">
</g>
<g id="Layer_16">
</g>
<g id="Layer_17">
</g>
<g id="Layer_18">
</g>
<g id="Layer_19">
</g>
<g id="Layer_20">
</g>
<g id="Layer_21">
</g>
<g id="Layer_22">
</g>
<g id="Layer_24">
</g>
<g id="Layer_25">
</g>
<g id="Layer_26">
</g>
<g id="Layer_27">
</g>
<g id="Layer_28">
</g>
<g id="Layer_29">
</g>
<g id="Layer_30">
</g>
<g id="Layer_31">
</g>
<g id="Layer_32">
</g>
<g id="Layer_33">
</g>
<g id="Layer_34">
</g>
<g id="Layer_35">
</g>
<g id="Layer_36">
</g>
<g id="Layer_37">
</g>
<g id="Layer_38">
</g>
<g id="Layer_39">
</g>
<g id="Layer_40">
</g>
<g id="Layer_41">
</g>
<g id="Layer_43">
</g>
</svg>
