<?xml version="1.0" encoding="utf-8"?>
<!-- Generator: Adobe Illustrator 16.0.0, SVG Export Plug-In . SVG Version: 6.00 Build 0)  -->
<!DOCTYPE svg PUBLIC "-//W3C//DTD SVG 1.1//EN" "http://www.w3.org/Graphics/SVG/1.1/DTD/svg11.dtd">
<svg version="1.1" xmlns="http://www.w3.org/2000/svg" xmlns:xlink="http://www.w3.org/1999/xlink" x="0px" y="0px"
	 width="841.89px" height="595.28px" viewBox="0 0 841.89 595.28" enable-background="new 0 0 841.89 595.28" xml:space="preserve">
<g id="Layer_1">
</g>
<g id="Layer_2">
</g>
<g id="Layer_3">
</g>
<g id="Layer_4">
</g>
<g id="Layer_5">
</g>
<g id="Layer_6">
</g>
<g id="Layer_7">
</g>
<g id="Layer_8">
</g>
<g id="Layer_9">
</g>
<g id="Layer_10">
</g>
<g id="Layer_11">
</g>
<g id="Layer_12">
</g>
<g id="Layer_13">
</g>
<g id="Layer_14">
</g>
<g id="Layer_15">
	<g>
		<g>
			
				<rect x="349.684" y="295.939" transform="matrix(0.7071 -0.7071 0.7071 0.7071 -136.1939 404.8082)" fill="none" stroke="#000000" stroke-miterlimit="10" width="141.731" height="141.732"/>
			<polyline id="pion_34_" fill="none" stroke="#000000" stroke-miterlimit="10" points="504.662,369.5 420.654,266.311 
				337.287,369.5 			"/>
			<g>
				<g>
					<g>
						<g>
							<g>
								<g>
									
										<rect x="415.357" y="379.756" transform="matrix(-0.0039 1 -1 -0.0039 806.7468 -33.5865)" fill="none" width="9.488" height="10.499"/>
								</g>
								<rect x="419.742" y="380.963" fill-rule="evenodd" clip-rule="evenodd" width="1.05" height="1.761"/>
								<rect x="419.729" y="384.122" fill-rule="evenodd" clip-rule="evenodd" width="1.05" height="1.761"/>
								<rect x="419.716" y="387.271" fill-rule="evenodd" clip-rule="evenodd" width="1.051" height="1.761"/>
							</g>
						</g>
						<g>
							<g>
								<g>
									
										<rect x="415.394" y="370.268" transform="matrix(-0.0039 1 -1 -0.0039 797.2955 -43.1493)" fill="none" width="9.489" height="10.499"/>
								</g>
								<rect x="419.779" y="371.474" fill-rule="evenodd" clip-rule="evenodd" width="1.05" height="1.761"/>
								<rect x="419.768" y="374.633" fill-rule="evenodd" clip-rule="evenodd" width="1.049" height="1.761"/>
								<rect x="419.754" y="377.782" fill-rule="evenodd" clip-rule="evenodd" width="1.05" height="1.761"/>
							</g>
						</g>
						<g>
							<g>
								<g>
									
										<rect x="415.431" y="360.779" transform="matrix(-0.0039 1 -1 -0.0039 787.8442 -52.7121)" fill="none" width="9.489" height="10.499"/>
								</g>
								<rect x="419.815" y="361.986" fill-rule="evenodd" clip-rule="evenodd" width="1.051" height="1.761"/>
								<rect x="419.804" y="365.145" fill-rule="evenodd" clip-rule="evenodd" width="1.05" height="1.761"/>
								<rect x="419.792" y="368.293" fill-rule="evenodd" clip-rule="evenodd" width="1.05" height="1.761"/>
							</g>
						</g>
						<g>
							<g>
								<g>
									
										<rect x="415.468" y="351.29" transform="matrix(-0.0039 1 -1 -0.0039 778.3929 -62.275)" fill="none" width="9.488" height="10.499"/>
								</g>
								<rect x="419.853" y="352.497" fill-rule="evenodd" clip-rule="evenodd" width="1.051" height="1.761"/>
								<rect x="419.841" y="355.656" fill-rule="evenodd" clip-rule="evenodd" width="1.05" height="1.761"/>
								<rect x="419.829" y="358.805" fill-rule="evenodd" clip-rule="evenodd" width="1.05" height="1.761"/>
							</g>
						</g>
						<g>
							<g>
								<g>
									
										<rect x="415.505" y="341.802" transform="matrix(-0.0039 1 -1 -0.0039 768.9419 -71.8376)" fill="none" width="9.489" height="10.499"/>
								</g>
								<rect x="419.89" y="343.009" fill-rule="evenodd" clip-rule="evenodd" width="1.051" height="1.761"/>
								<rect x="419.878" y="346.168" fill-rule="evenodd" clip-rule="evenodd" width="1.05" height="1.761"/>
								<rect x="419.866" y="349.316" fill-rule="evenodd" clip-rule="evenodd" width="1.05" height="1.761"/>
							</g>
						</g>
						<g>
							<g>
								<g>
									
										<rect x="415.543" y="332.314" transform="matrix(-0.0039 1 -1 -0.0039 759.491 -81.401)" fill="none" width="9.489" height="10.498"/>
								</g>
								<rect x="419.928" y="333.521" fill-rule="evenodd" clip-rule="evenodd" width="1.05" height="1.761"/>
								<rect x="419.916" y="336.679" fill-rule="evenodd" clip-rule="evenodd" width="1.05" height="1.761"/>
								<rect x="419.904" y="339.828" fill-rule="evenodd" clip-rule="evenodd" width="1.049" height="1.761"/>
							</g>
						</g>
						<g>
							<g>
								<g>
									
										<rect x="415.58" y="322.825" transform="matrix(-0.0039 1 -1 -0.0039 750.0399 -90.9637)" fill="none" width="9.488" height="10.498"/>
								</g>
								<rect x="419.965" y="324.031" fill-rule="evenodd" clip-rule="evenodd" width="1.05" height="1.761"/>
								<rect x="419.952" y="327.19" fill-rule="evenodd" clip-rule="evenodd" width="1.051" height="1.761"/>
								<rect x="419.941" y="330.339" fill-rule="evenodd" clip-rule="evenodd" width="1.05" height="1.761"/>
							</g>
						</g>
						<g>
							<g>
								<g>
									
										<rect x="415.617" y="313.336" transform="matrix(-0.004 1 -1 -0.004 740.6317 -100.4935)" fill="none" width="9.489" height="10.499"/>
								</g>
								<rect x="420.002" y="314.543" fill-rule="evenodd" clip-rule="evenodd" width="1.05" height="1.761"/>
								<rect x="419.99" y="317.702" fill-rule="evenodd" clip-rule="evenodd" width="1.051" height="1.761"/>
								<rect x="419.978" y="320.85" fill-rule="evenodd" clip-rule="evenodd" width="1.05" height="1.761"/>
							</g>
						</g>
						<g>
							<g>
								<g>
									
										<rect x="415.655" y="303.847" transform="matrix(-0.0039 1 -1 -0.0039 731.1377 -110.0899)" fill="none" width="9.488" height="10.499"/>
								</g>
								<rect x="420.04" y="305.054" fill-rule="evenodd" clip-rule="evenodd" width="1.05" height="1.761"/>
								<rect x="420.027" y="308.213" fill-rule="evenodd" clip-rule="evenodd" width="1.051" height="1.761"/>
								<rect x="420.015" y="311.362" fill-rule="evenodd" clip-rule="evenodd" width="1.05" height="1.761"/>
							</g>
						</g>
						<g>
							<g>
								<g>
									
										<rect x="415.692" y="294.359" transform="matrix(-0.0039 1 -1 -0.0039 721.6866 -119.6525)" fill="none" width="9.489" height="10.499"/>
								</g>
								<rect x="420.077" y="295.566" fill-rule="evenodd" clip-rule="evenodd" width="1.05" height="1.761"/>
								<rect x="420.065" y="298.725" fill-rule="evenodd" clip-rule="evenodd" width="1.05" height="1.761"/>
								<rect x="420.052" y="301.873" fill-rule="evenodd" clip-rule="evenodd" width="1.05" height="1.762"/>
							</g>
						</g>
						<g>
							<g>
								<g>
									
										<rect x="415.729" y="284.87" transform="matrix(-0.0039 1 -1 -0.0039 712.2353 -129.2154)" fill="none" width="9.488" height="10.499"/>
								</g>
								<rect x="420.115" y="286.077" fill-rule="evenodd" clip-rule="evenodd" width="1.05" height="1.761"/>
								<rect x="420.102" y="289.236" fill-rule="evenodd" clip-rule="evenodd" width="1.05" height="1.761"/>
								<rect x="420.089" y="292.385" fill-rule="evenodd" clip-rule="evenodd" width="1.05" height="1.761"/>
							</g>
						</g>
						<g>
							<g>
								<g>
									
										<rect x="415.766" y="275.382" transform="matrix(-0.0039 1 -1 -0.0039 702.784 -138.7782)" fill="none" width="9.489" height="10.499"/>
								</g>
								<rect x="420.152" y="276.589" fill-rule="evenodd" clip-rule="evenodd" width="1.05" height="1.761"/>
								<rect x="420.139" y="279.748" fill-rule="evenodd" clip-rule="evenodd" width="1.05" height="1.761"/>
								<rect x="420.126" y="282.896" fill-rule="evenodd" clip-rule="evenodd" width="1.051" height="1.761"/>
							</g>
						</g>
						<g>
							<g>
								<g>
									
										<rect x="415.803" y="265.893" transform="matrix(-0.004 1 -1 -0.004 693.376 -148.3128)" fill="none" width="9.489" height="10.5"/>
								</g>
								<rect x="420.189" y="267.1" fill-rule="evenodd" clip-rule="evenodd" width="1.05" height="1.761"/>
								<rect x="420.177" y="270.259" fill-rule="evenodd" clip-rule="evenodd" width="1.05" height="1.762"/>
								<rect x="420.164" y="273.407" fill-rule="evenodd" clip-rule="evenodd" width="1.051" height="1.761"/>
							</g>
						</g>
					</g>
				</g>
			</g>
			<path fill="none" stroke="#000000" stroke-miterlimit="10" d="M420.551,266.229"/>
			<g>
				<g>
					<g>
						<g>
							<g>
								<g>
									
										<rect x="466.656" y="331.406" transform="matrix(0.695 -0.719 0.719 0.695 -98.2251 441.7444)" fill="none" width="9.882" height="10.499"/>
								</g>
								
									<rect x="468.672" y="338" transform="matrix(0.7189 0.6952 -0.6952 0.7189 367.5062 -230.8807)" fill-rule="evenodd" clip-rule="evenodd" width="1.05" height="1.835"/>
								
									<rect x="470.959" y="335.634" transform="matrix(0.7184 0.6956 -0.6956 0.7184 366.8734 -233.2029)" fill-rule="evenodd" clip-rule="evenodd" width="1.049" height="1.835"/>
								
									<rect x="473.238" y="333.277" transform="matrix(0.7184 0.6956 -0.6956 0.7184 365.8753 -235.4523)" fill-rule="evenodd" clip-rule="evenodd" width="1.049" height="1.835"/>
							</g>
						</g>
						<g>
							<g>
								<g>
									
										<rect x="459.787" y="338.511" transform="matrix(0.6951 -0.7189 0.7189 0.6951 -105.438 438.913)" fill="none" width="9.882" height="10.499"/>
								</g>
								
									<rect x="461.803" y="345.105" transform="matrix(0.7195 0.6944 -0.6944 0.7195 369.9552 -224.0186)" fill-rule="evenodd" clip-rule="evenodd" width="1.05" height="1.834"/>
								
									<rect x="464.09" y="342.739" transform="matrix(0.7189 0.6952 -0.6952 0.7189 369.5128 -226.3629)" fill-rule="evenodd" clip-rule="evenodd" width="1.05" height="1.835"/>
								
									<rect x="466.369" y="340.382" transform="matrix(0.7191 0.6949 -0.6949 0.7191 368.3239 -228.5774)" fill-rule="evenodd" clip-rule="evenodd" width="1.05" height="1.834"/>
							</g>
						</g>
						<g>
							<g>
								<g>
									
										<rect x="452.919" y="345.616" transform="matrix(0.695 -0.719 0.719 0.695 -112.6339 436.1814)" fill="none" width="9.882" height="10.499"/>
								</g>
								
									<rect x="454.935" y="352.209" transform="matrix(0.7189 0.6952 -0.6952 0.7189 373.522 -217.3367)" fill-rule="evenodd" clip-rule="evenodd" width="1.05" height="1.834"/>
								
									<rect x="457.221" y="349.844" transform="matrix(0.7193 0.6947 -0.6947 0.7193 372.1522 -219.536)" fill-rule="evenodd" clip-rule="evenodd" width="1.051" height="1.834"/>
								
									<rect x="459.5" y="347.487" transform="matrix(0.7193 0.6947 -0.6947 0.7193 371.1542 -221.7811)" fill-rule="evenodd" clip-rule="evenodd" width="1.051" height="1.834"/>
							</g>
						</g>
						<g>
							<g>
								<g>
									
										<rect x="446.05" y="352.72" transform="matrix(0.6951 -0.7189 0.7189 0.6951 -119.8418 433.3694)" fill="none" width="9.882" height="10.5"/>
								</g>
								
									<rect x="448.066" y="359.314" transform="matrix(0.7184 0.6956 -0.6956 0.7184 376.8987 -210.6108)" fill-rule="evenodd" clip-rule="evenodd" width="1.049" height="1.835"/>
								
									<rect x="450.353" y="356.949" transform="matrix(0.7189 0.6952 -0.6952 0.7189 375.5283 -212.8192)" fill-rule="evenodd" clip-rule="evenodd" width="1.05" height="1.834"/>
								
									<rect x="452.632" y="354.591" transform="matrix(0.7189 0.6952 -0.6952 0.7189 374.5303 -215.0663)" fill-rule="evenodd" clip-rule="evenodd" width="1.05" height="1.834"/>
							</g>
						</g>
						<g>
							<g>
								<g>
									
										<rect x="439.181" y="359.825" transform="matrix(0.695 -0.719 0.719 0.695 -127.0367 430.6575)" fill="none" width="9.882" height="10.499"/>
								</g>
								
									<rect x="441.197" y="366.418" transform="matrix(0.7191 0.6949 -0.6949 0.7191 379.3462 -203.7714)" fill-rule="evenodd" clip-rule="evenodd" width="1.05" height="1.834"/>
								
									<rect x="443.484" y="364.053" transform="matrix(0.7186 0.6954 -0.6954 0.7186 378.7142 -206.0671)" fill-rule="evenodd" clip-rule="evenodd" width="1.049" height="1.834"/>
								
									<rect x="445.763" y="361.695" transform="matrix(0.7184 0.6956 -0.6956 0.7184 377.9072 -208.3383)" fill-rule="evenodd" clip-rule="evenodd" width="1.049" height="1.835"/>
							</g>
						</g>
						<g>
							<g>
								<g>
									
										<rect x="432.313" y="366.929" transform="matrix(0.6951 -0.7189 0.7189 0.6951 -134.2455 427.826)" fill="none" width="9.882" height="10.499"/>
								</g>
								
									<rect x="434.329" y="373.523" transform="matrix(0.7195 0.6944 -0.6944 0.7195 381.9847 -196.9689)" fill-rule="evenodd" clip-rule="evenodd" width="1.05" height="1.834"/>
								
									<rect x="436.615" y="371.158" transform="matrix(0.7191 0.6949 -0.6949 0.7191 381.3524 -199.256)" fill-rule="evenodd" clip-rule="evenodd" width="1.05" height="1.834"/>
								
									<rect x="438.895" y="368.8" transform="matrix(0.7191 0.6949 -0.6949 0.7191 380.3545 -201.5021)" fill-rule="evenodd" clip-rule="evenodd" width="1.05" height="1.834"/>
							</g>
						</g>
						<g>
							<g>
								<g>
									
										<rect x="425.444" y="374.034" transform="matrix(0.695 -0.719 0.719 0.695 -141.4442 425.0944)" fill="none" width="9.882" height="10.499"/>
								</g>
								
									<rect x="427.46" y="380.628" transform="matrix(0.7189 0.6952 -0.6952 0.7189 385.553 -190.2483)" fill-rule="evenodd" clip-rule="evenodd" width="1.05" height="1.834"/>
								
									<rect x="429.747" y="378.263" transform="matrix(0.7193 0.6947 -0.6947 0.7193 384.1823 -192.4731)" fill-rule="evenodd" clip-rule="evenodd" width="1.051" height="1.834"/>
								
									<rect x="432.026" y="375.905" transform="matrix(0.7193 0.6947 -0.6947 0.7193 383.1844 -194.7182)" fill-rule="evenodd" clip-rule="evenodd" width="1.051" height="1.834"/>
							</g>
						</g>
						<g>
							<g>
								<g>
									
										<rect x="418.575" y="381.138" transform="matrix(0.6951 -0.7189 0.7189 0.6951 -148.6492 422.2824)" fill="none" width="9.882" height="10.5"/>
								</g>
								
									<rect x="420.592" y="387.732" transform="matrix(0.7184 0.6956 -0.6956 0.7184 388.9306 -183.4968)" fill-rule="evenodd" clip-rule="evenodd" width="1.049" height="1.835"/>
								
									<rect x="422.878" y="385.367" transform="matrix(0.7189 0.6952 -0.6952 0.7189 387.5593 -185.7307)" fill-rule="evenodd" clip-rule="evenodd" width="1.05" height="1.834"/>
								
									<rect x="425.158" y="383.01" transform="matrix(0.7189 0.6952 -0.6952 0.7189 386.5613 -187.9779)" fill-rule="evenodd" clip-rule="evenodd" width="1.05" height="1.834"/>
							</g>
						</g>
					</g>
				</g>
			</g>
		</g>
		<g>
			<g>
				<g>
					<g>
						<g>
							<g>
								
									<rect x="364.307" y="330.716" transform="matrix(-0.6914 -0.7224 0.7224 -0.6914 381.8498 835.0217)" fill="none" width="9.881" height="10.498"/>
							</g>
							
								<rect x="370.888" y="337.534" transform="matrix(0.7221 -0.6918 0.6918 0.7221 -130.92 351.0197)" fill-rule="evenodd" clip-rule="evenodd" width="1.05" height="1.833"/>
							
								<rect x="368.615" y="335.157" transform="matrix(0.7225 -0.6914 0.6914 0.7225 -129.9161 348.4655)" fill-rule="evenodd" clip-rule="evenodd" width="1.05" height="1.834"/>
							
								<rect x="366.347" y="332.789" transform="matrix(0.7225 -0.6914 0.6914 0.7225 -128.9077 346.2408)" fill-rule="evenodd" clip-rule="evenodd" width="1.05" height="1.833"/>
						</g>
					</g>
					<g>
						<g>
							<g>
								
									<rect x="371.14" y="337.854" transform="matrix(-0.6914 -0.7225 0.7225 -0.6914 388.1937 852.0325)" fill="none" width="9.879" height="10.499"/>
							</g>
							
								<rect x="377.72" y="344.672" transform="matrix(0.7227 -0.6911 0.6911 0.7227 -133.9713 357.2283)" fill-rule="evenodd" clip-rule="evenodd" width="1.05" height="1.834"/>
							
								<rect x="375.445" y="342.296" transform="matrix(0.7225 -0.6914 0.6914 0.7225 -132.9555 355.1685)" fill-rule="evenodd" clip-rule="evenodd" width="1.05" height="1.833"/>
							
								<rect x="373.178" y="339.927" transform="matrix(0.7225 -0.6914 0.6914 0.7225 -131.9469 352.9442)" fill-rule="evenodd" clip-rule="evenodd" width="1.05" height="1.833"/>
						</g>
					</g>
					<g>
						<g>
							<g>
								
									<rect x="377.969" y="344.992" transform="matrix(-0.6914 -0.7224 0.7224 -0.6914 394.6452 869.0385)" fill="none" width="9.881" height="10.498"/>
							</g>
							
								<rect x="384.55" y="351.81" transform="matrix(0.7221 -0.6918 0.6918 0.7221 -136.9993 364.4393)" fill-rule="evenodd" clip-rule="evenodd" width="1.05" height="1.833"/>
							
								<rect x="382.277" y="349.433" transform="matrix(0.7227 -0.6911 0.6911 0.7227 -135.9988 361.698)" fill-rule="evenodd" clip-rule="evenodd" width="1.05" height="1.834"/>
							
								<rect x="380.01" y="347.065" transform="matrix(0.7225 -0.6914 0.6914 0.7225 -134.9864 359.6477)" fill-rule="evenodd" clip-rule="evenodd" width="1.05" height="1.833"/>
						</g>
					</g>
					<g>
						<g>
							<g>
								
									<rect x="384.802" y="352.13" transform="matrix(-0.6914 -0.7225 0.7225 -0.6914 400.9869 886.0492)" fill="none" width="9.879" height="10.499"/>
							</g>
							
								<rect x="391.382" y="358.948" transform="matrix(0.7225 -0.6914 0.6914 0.7225 -140.0461 370.8073)" fill-rule="evenodd" clip-rule="evenodd" width="1.05" height="1.833"/>
							
								<rect x="389.107" y="356.572" transform="matrix(0.7225 -0.6914 0.6914 0.7225 -139.0342 368.5754)" fill-rule="evenodd" clip-rule="evenodd" width="1.05" height="1.833"/>
							
								<rect x="386.841" y="354.203" transform="matrix(0.7225 -0.6914 0.6914 0.7225 -138.0258 366.3511)" fill-rule="evenodd" clip-rule="evenodd" width="1.05" height="1.834"/>
						</g>
					</g>
					<g>
						<g>
							<g>
								
									<rect x="391.631" y="359.268" transform="matrix(-0.6914 -0.7224 0.7224 -0.6914 407.4406 903.0552)" fill="none" width="9.881" height="10.498"/>
							</g>
							
								<rect x="398.213" y="366.086" transform="matrix(0.7221 -0.6918 0.6918 0.7221 -143.0785 377.8588)" fill-rule="evenodd" clip-rule="evenodd" width="1.05" height="1.833"/>
							
								<rect x="395.939" y="363.709" transform="matrix(0.7225 -0.6914 0.6914 0.7225 -142.0734 375.2791)" fill-rule="evenodd" clip-rule="evenodd" width="1.05" height="1.834"/>
							
								<rect x="393.672" y="361.341" transform="matrix(0.7225 -0.6914 0.6914 0.7225 -141.0651 373.0545)" fill-rule="evenodd" clip-rule="evenodd" width="1.05" height="1.833"/>
						</g>
					</g>
					<g>
						<g>
							<g>
								
									<rect x="398.464" y="366.406" transform="matrix(-0.6914 -0.7225 0.7225 -0.6914 413.7802 920.0659)" fill="none" width="9.879" height="10.499"/>
							</g>
							
								<rect x="405.044" y="373.224" transform="matrix(0.7227 -0.6911 0.6911 0.7227 -146.1281 384.0287)" fill-rule="evenodd" clip-rule="evenodd" width="1.05" height="1.834"/>
							
								<rect x="402.769" y="370.847" transform="matrix(0.7225 -0.6914 0.6914 0.7225 -145.1129 381.9822)" fill-rule="evenodd" clip-rule="evenodd" width="1.05" height="1.833"/>
							
								<rect x="400.503" y="368.479" transform="matrix(0.7225 -0.6914 0.6914 0.7225 -144.1042 379.7579)" fill-rule="evenodd" clip-rule="evenodd" width="1.05" height="1.833"/>
						</g>
					</g>
					<g>
						<g>
							<g>
								
									<rect x="405.293" y="373.544" transform="matrix(-0.6914 -0.7224 0.7224 -0.6914 420.236 937.072)" fill="none" width="9.881" height="10.498"/>
							</g>
							
								<rect x="411.875" y="380.362" transform="matrix(0.7221 -0.6918 0.6918 0.7221 -149.1577 391.2784)" fill-rule="evenodd" clip-rule="evenodd" width="1.05" height="1.833"/>
							
								<rect x="409.601" y="377.985" transform="matrix(0.7227 -0.6911 0.6911 0.7227 -148.1555 388.4984)" fill-rule="evenodd" clip-rule="evenodd" width="1.05" height="1.834"/>
							
								<rect x="407.334" y="375.617" transform="matrix(0.7225 -0.6914 0.6914 0.7225 -147.1438 386.4614)" fill-rule="evenodd" clip-rule="evenodd" width="1.05" height="1.833"/>
						</g>
					</g>
					<g>
						<g>
							<g>
								
									<rect x="412.126" y="380.681" transform="matrix(-0.6914 -0.7225 0.7225 -0.6914 426.5734 954.0825)" fill="none" width="9.879" height="10.499"/>
							</g>
							
								<rect x="418.706" y="387.5" transform="matrix(0.7225 -0.6914 0.6914 0.7225 -152.2034 397.6209)" fill-rule="evenodd" clip-rule="evenodd" width="1.05" height="1.833"/>
							
								<rect x="416.431" y="385.123" transform="matrix(0.7225 -0.6914 0.6914 0.7225 -151.1916 395.3891)" fill-rule="evenodd" clip-rule="evenodd" width="1.05" height="1.833"/>
							
								<rect x="414.165" y="382.755" transform="matrix(0.7225 -0.6914 0.6914 0.7225 -150.1831 393.1648)" fill-rule="evenodd" clip-rule="evenodd" width="1.05" height="1.834"/>
						</g>
					</g>
				</g>
			</g>
		</g>
	</g>
	<line fill="none" stroke="#000000" stroke-miterlimit="10" x1="420.082" y1="389.75" x2="504.662" y2="369.5"/>
	<line fill="none" stroke="#000000" stroke-miterlimit="10" x1="420.082" y1="389.75" x2="337.287" y2="369.5"/>
	<line fill="none" stroke="#000000" stroke-miterlimit="10" x1="504.662" y1="369.5" x2="420.551" y2="467.023"/>
	<line fill="none" stroke="#000000" stroke-miterlimit="10" x1="420.551" y1="467.023" x2="337.287" y2="369.5"/>
	<g>
		<g>
			<g>
				<g>
					<g>
						<g>
							
								<rect x="417.666" y="457.487" transform="matrix(-0.3769 0.9263 -0.9263 -0.3769 1010.0593 245.9644)" fill="none" width="9.256" height="10.499"/>
						</g>
						
							<rect x="423.075" y="459.078" transform="matrix(-0.9263 -0.3767 0.3767 -0.9263 642.7516 1045.5569)" fill-rule="evenodd" clip-rule="evenodd" width="1.05" height="1.718"/>
						
							<rect x="421.913" y="461.932" transform="matrix(-0.9263 -0.3767 0.3767 -0.9263 639.4396 1050.6182)" fill-rule="evenodd" clip-rule="evenodd" width="1.05" height="1.718"/>
						
							<rect x="420.756" y="464.777" transform="matrix(-0.9263 -0.3767 0.3767 -0.9263 636.1379 1055.662)" fill-rule="evenodd" clip-rule="evenodd" width="1.05" height="1.718"/>
					</g>
				</g>
				<g>
					<g>
						<g>
							
								<rect x="421.155" y="448.914" transform="matrix(-0.3768 0.9263 -0.9263 -0.3768 1006.9032 230.8832)" fill="none" width="9.255" height="10.499"/>
						</g>
						
							<rect x="426.562" y="450.504" transform="matrix(-0.9262 -0.3771 0.3771 -0.9262 652.4505 1030.4518)" fill-rule="evenodd" clip-rule="evenodd" width="1.05" height="1.718"/>
						
							<rect x="425.401" y="453.359" transform="matrix(-0.9263 -0.3767 0.3767 -0.9263 649.3879 1035.416)" fill-rule="evenodd" clip-rule="evenodd" width="1.05" height="1.718"/>
						
							<rect x="424.244" y="456.203" transform="matrix(-0.9263 -0.3767 0.3767 -0.9263 646.0871 1040.46)" fill-rule="evenodd" clip-rule="evenodd" width="1.05" height="1.718"/>
					</g>
				</g>
				<g>
					<g>
						<g>
							
								<rect x="424.642" y="440.34" transform="matrix(-0.3769 0.9263 -0.9263 -0.3769 1003.7814 215.8934)" fill="none" width="9.256" height="10.499"/>
						</g>
						
							<rect x="430.05" y="441.931" transform="matrix(-0.9263 -0.3767 0.3767 -0.9263 662.6478 1015.1534)" fill-rule="evenodd" clip-rule="evenodd" width="1.05" height="1.718"/>
						
							<rect x="428.89" y="444.785" transform="matrix(-0.9263 -0.3767 0.3767 -0.9263 659.337 1020.214)" fill-rule="evenodd" clip-rule="evenodd" width="1.05" height="1.718"/>
						
							<rect x="427.732" y="447.629" transform="matrix(-0.9262 -0.3771 0.3771 -0.9262 655.787 1025.356)" fill-rule="evenodd" clip-rule="evenodd" width="1.05" height="1.718"/>
					</g>
				</g>
				<g>
					<g>
						<g>
							
								<rect x="428.13" y="431.766" transform="matrix(-0.3769 0.9263 -0.9263 -0.3769 1000.6422 200.8582)" fill="none" width="9.256" height="10.499"/>
						</g>
						
							<rect x="433.538" y="433.357" transform="matrix(-0.9263 -0.3767 0.3767 -0.9263 672.5961 999.9512)" fill-rule="evenodd" clip-rule="evenodd" width="1.05" height="1.718"/>
						
							<rect x="432.377" y="436.211" transform="matrix(-0.9263 -0.3767 0.3767 -0.9263 669.2843 1005.0116)" fill-rule="evenodd" clip-rule="evenodd" width="1.05" height="1.718"/>
						
							<rect x="431.22" y="439.056" transform="matrix(-0.9263 -0.3767 0.3767 -0.9263 665.9833 1010.0566)" fill-rule="evenodd" clip-rule="evenodd" width="1.05" height="1.718"/>
					</g>
				</g>
				<g>
					<g>
						<g>
							
								<rect x="431.619" y="423.193" transform="matrix(-0.3768 0.9263 -0.9263 -0.3768 997.4798 185.7675)" fill="none" width="9.256" height="10.498"/>
						</g>
						
							<rect x="437.026" y="424.783" transform="matrix(-0.9263 -0.3767 0.3767 -0.9263 682.5452 984.7491)" fill-rule="evenodd" clip-rule="evenodd" width="1.05" height="1.718"/>
						
							<rect x="435.865" y="427.637" transform="matrix(-0.9262 -0.3771 0.3771 -0.9262 678.9918 989.9141)" fill-rule="evenodd" clip-rule="evenodd" width="1.05" height="1.718"/>
						
							<rect x="434.708" y="430.483" transform="matrix(-0.9263 -0.3767 0.3767 -0.9263 675.9325 994.8546)" fill-rule="evenodd" clip-rule="evenodd" width="1.05" height="1.718"/>
					</g>
				</g>
				<g>
					<g>
						<g>
							
								<rect x="435.106" y="414.619" transform="matrix(-0.3769 0.9263 -0.9263 -0.3769 994.3635 170.7873)" fill="none" width="9.256" height="10.499"/>
						</g>
						
							<rect x="440.514" y="416.209" transform="matrix(-0.9263 -0.3767 0.3767 -0.9263 692.4934 969.547)" fill-rule="evenodd" clip-rule="evenodd" width="1.05" height="1.718"/>
						
							<rect x="439.353" y="419.064" transform="matrix(-0.9263 -0.3767 0.3767 -0.9263 689.1815 974.6083)" fill-rule="evenodd" clip-rule="evenodd" width="1.05" height="1.718"/>
						
							<rect x="438.195" y="421.909" transform="matrix(-0.9263 -0.3767 0.3767 -0.9263 685.8798 979.6522)" fill-rule="evenodd" clip-rule="evenodd" width="1.05" height="1.718"/>
					</g>
				</g>
				<g>
					<g>
						<g>
							
								<rect x="438.594" y="406.045" transform="matrix(-0.3768 0.9263 -0.9263 -0.3768 991.2048 155.7088)" fill="none" width="9.255" height="10.499"/>
						</g>
						
							<rect x="444.002" y="407.636" transform="matrix(-0.9262 -0.3771 0.3771 -0.9262 702.2066 954.4558)" fill-rule="evenodd" clip-rule="evenodd" width="1.05" height="1.718"/>
						
							<rect x="442.841" y="410.49" transform="matrix(-0.9263 -0.3767 0.3767 -0.9263 699.1297 959.4061)" fill-rule="evenodd" clip-rule="evenodd" width="1.05" height="1.718"/>
						
							<rect x="441.684" y="413.335" transform="matrix(-0.9263 -0.3767 0.3767 -0.9263 695.8289 964.4502)" fill-rule="evenodd" clip-rule="evenodd" width="1.05" height="1.718"/>
					</g>
				</g>
				<g>
					<g>
						<g>
							
								<rect x="442.082" y="397.472" transform="matrix(-0.3769 0.9263 -0.9263 -0.3769 988.0856 140.7163)" fill="none" width="9.256" height="10.499"/>
						</g>
						
							<rect x="447.49" y="399.063" transform="matrix(-0.9263 -0.3767 0.3767 -0.9263 712.3897 939.1436)" fill-rule="evenodd" clip-rule="evenodd" width="1.05" height="1.718"/>
						
							<rect x="446.329" y="401.917" transform="matrix(-0.9263 -0.3767 0.3767 -0.9263 709.0789 944.2041)" fill-rule="evenodd" clip-rule="evenodd" width="1.05" height="1.718"/>
						
							<rect x="445.171" y="404.761" transform="matrix(-0.9262 -0.3771 0.3771 -0.9262 705.5431 949.3599)" fill-rule="evenodd" clip-rule="evenodd" width="1.05" height="1.718"/>
					</g>
				</g>
				<g>
					<g>
						<g>
							
								<rect x="445.57" y="388.898" transform="matrix(-0.3769 0.9263 -0.9263 -0.3769 984.9464 125.6812)" fill="none" width="9.256" height="10.499"/>
						</g>
						
							<rect x="450.977" y="390.489" transform="matrix(-0.9263 -0.3767 0.3767 -0.9263 722.3379 923.9413)" fill-rule="evenodd" clip-rule="evenodd" width="1.05" height="1.718"/>
						
							<rect x="449.816" y="393.343" transform="matrix(-0.9263 -0.3767 0.3767 -0.9263 719.0261 929.0018)" fill-rule="evenodd" clip-rule="evenodd" width="1.05" height="1.718"/>
						
							<rect x="448.659" y="396.188" transform="matrix(-0.9263 -0.3767 0.3767 -0.9263 715.7252 934.0468)" fill-rule="evenodd" clip-rule="evenodd" width="1.05" height="1.718"/>
					</g>
				</g>
				<g>
					<g>
						<g>
							
								<rect x="449.058" y="380.325" transform="matrix(-0.3768 0.9263 -0.9263 -0.3768 981.7808 110.5936)" fill="none" width="9.256" height="10.498"/>
						</g>
						
							<rect x="454.466" y="381.915" transform="matrix(-0.9263 -0.3767 0.3767 -0.9263 732.287 908.7394)" fill-rule="evenodd" clip-rule="evenodd" width="1.05" height="1.718"/>
						
							<rect x="453.305" y="384.769" transform="matrix(-0.9262 -0.3771 0.3771 -0.9262 728.7478 913.9182)" fill-rule="evenodd" clip-rule="evenodd" width="1.05" height="1.718"/>
						
							<rect x="452.147" y="387.614" transform="matrix(-0.9263 -0.3767 0.3767 -0.9263 725.6743 918.8447)" fill-rule="evenodd" clip-rule="evenodd" width="1.05" height="1.718"/>
					</g>
				</g>
			</g>
		</g>
	</g>
	<g>
		<g>
			<g>
				<g>
					<g>
						<g>
							
								<rect x="382.846" y="380.382" transform="matrix(-0.3766 -0.9264 0.9264 -0.3766 176.127 889.7926)" fill="none" width="9.248" height="10.499"/>
						</g>
						
							<rect x="387.963" y="387.687" transform="matrix(0.9265 -0.3763 0.3763 0.9265 -117.6495 174.7344)" fill-rule="evenodd" clip-rule="evenodd" width="1.05" height="1.716"/>
						
							<rect x="386.804" y="384.834" transform="matrix(0.9263 -0.3767 0.3767 0.9263 -116.7526 174.3059)" fill-rule="evenodd" clip-rule="evenodd" width="1.05" height="1.717"/>
						
							<rect x="385.648" y="381.991" transform="matrix(0.9263 -0.3767 0.3767 0.9263 -115.7669 173.661)" fill-rule="evenodd" clip-rule="evenodd" width="1.05" height="1.717"/>
					</g>
				</g>
				<g>
					<g>
						<g>
							
								<rect x="386.328" y="388.949" transform="matrix(-0.3765 -0.9264 0.9264 -0.3765 172.9736 904.8082)" fill="none" width="9.249" height="10.499"/>
						</g>
						
							<rect x="391.445" y="396.254" transform="matrix(0.9263 -0.3767 0.3767 0.9263 -120.7124 176.8951)" fill-rule="evenodd" clip-rule="evenodd" width="1.05" height="1.717"/>
						
							<rect x="390.286" y="393.402" transform="matrix(0.9263 -0.3767 0.3767 0.9263 -119.7233 176.2486)" fill-rule="evenodd" clip-rule="evenodd" width="1.05" height="1.716"/>
						
							<rect x="389.13" y="390.559" transform="matrix(0.9265 -0.3763 0.3763 0.9265 -118.6446 175.3848)" fill-rule="evenodd" clip-rule="evenodd" width="1.05" height="1.717"/>
					</g>
				</g>
				<g>
					<g>
						<g>
							
								<rect x="389.81" y="397.517" transform="matrix(-0.3766 -0.9264 0.9264 -0.3766 169.8398 919.832)" fill="none" width="9.248" height="10.498"/>
						</g>
						
							<rect x="394.927" y="404.822" transform="matrix(0.9265 -0.3763 0.3763 0.9265 -123.5853 178.6142)" fill-rule="evenodd" clip-rule="evenodd" width="1.05" height="1.717"/>
						
							<rect x="393.768" y="401.97" transform="matrix(0.9263 -0.3767 0.3767 0.9263 -122.6941 178.1912)" fill-rule="evenodd" clip-rule="evenodd" width="1.05" height="1.717"/>
						
							<rect x="392.613" y="399.127" transform="matrix(0.9263 -0.3767 0.3767 0.9263 -121.7083 177.5466)" fill-rule="evenodd" clip-rule="evenodd" width="1.05" height="1.716"/>
					</g>
				</g>
				<g>
					<g>
						<g>
							
								<rect x="393.292" y="406.085" transform="matrix(-0.3764 -0.9264 0.9264 -0.3764 166.6349 934.8246)" fill="none" width="9.248" height="10.499"/>
						</g>
						
							<rect x="398.41" y="413.389" transform="matrix(0.9263 -0.3767 0.3767 0.9263 -126.6537 180.7807)" fill-rule="evenodd" clip-rule="evenodd" width="1.05" height="1.716"/>
						
							<rect x="397.25" y="410.537" transform="matrix(0.9265 -0.3763 0.3763 0.9265 -125.5651 179.9085)" fill-rule="evenodd" clip-rule="evenodd" width="1.05" height="1.717"/>
						
							<rect x="396.095" y="407.694" transform="matrix(0.9263 -0.3767 0.3767 0.9263 -124.679 179.4894)" fill-rule="evenodd" clip-rule="evenodd" width="1.05" height="1.717"/>
					</g>
				</g>
				<g>
					<g>
						<g>
							
								<rect x="396.774" y="414.652" transform="matrix(-0.3766 -0.9264 0.9264 -0.3766 163.5527 949.8713)" fill="none" width="9.248" height="10.499"/>
						</g>
						
							<rect x="401.892" y="421.957" transform="matrix(0.9263 -0.3767 0.3767 0.9263 -129.6245 182.7235)" fill-rule="evenodd" clip-rule="evenodd" width="1.05" height="1.717"/>
						
							<rect x="400.733" y="419.105" transform="matrix(0.9263 -0.3767 0.3767 0.9263 -128.6356 182.0767)" fill-rule="evenodd" clip-rule="evenodd" width="1.05" height="1.717"/>
						
							<rect x="399.578" y="416.262" transform="matrix(0.9265 -0.3763 0.3763 0.9265 -127.5481 181.2048)" fill-rule="evenodd" clip-rule="evenodd" width="1.05" height="1.717"/>
					</g>
				</g>
				<g>
					<g>
						<g>
							
								<rect x="400.257" y="423.22" transform="matrix(-0.3766 -0.9264 0.9264 -0.3766 160.4096 964.8909)" fill="none" width="9.248" height="10.499"/>
						</g>
						
							<rect x="405.375" y="430.524" transform="matrix(0.9265 -0.3763 0.3763 0.9265 -132.4888 184.4343)" fill-rule="evenodd" clip-rule="evenodd" width="1.05" height="1.717"/>
						
							<rect x="404.214" y="427.672" transform="matrix(0.9265 -0.3764 0.3764 0.9265 -131.5206 183.8316)" fill-rule="evenodd" clip-rule="evenodd" width="1.051" height="1.717"/>
						
							<rect x="403.059" y="424.83" transform="matrix(0.9263 -0.3767 0.3767 0.9263 -130.6205 183.3748)" fill-rule="evenodd" clip-rule="evenodd" width="1.05" height="1.716"/>
					</g>
				</g>
				<g>
					<g>
						<g>
							
								<rect x="403.739" y="431.788" transform="matrix(-0.3765 -0.9264 0.9264 -0.3765 157.2549 979.9054)" fill="none" width="9.249" height="10.498"/>
						</g>
						
							<rect x="408.856" y="439.092" transform="matrix(0.9263 -0.3767 0.3767 0.9263 -135.5659 186.6089)" fill-rule="evenodd" clip-rule="evenodd" width="1.05" height="1.716"/>
						
							<rect x="407.697" y="436.24" transform="matrix(0.9263 -0.3767 0.3767 0.9263 -134.577 185.962)" fill-rule="evenodd" clip-rule="evenodd" width="1.05" height="1.716"/>
						
							<rect x="406.542" y="433.397" transform="matrix(0.9265 -0.3763 0.3763 0.9265 -133.4839 185.0845)" fill-rule="evenodd" clip-rule="evenodd" width="1.05" height="1.717"/>
					</g>
				</g>
				<g>
					<g>
						<g>
							
								<rect x="407.221" y="440.355" transform="matrix(-0.3765 -0.9264 0.9264 -0.3765 154.0687 994.905)" fill="none" width="9.248" height="10.499"/>
						</g>
						
							<rect x="412.338" y="447.66" transform="matrix(0.9265 -0.3763 0.3763 0.9265 -138.4246 188.314)" fill-rule="evenodd" clip-rule="evenodd" width="1.05" height="1.717"/>
						
							<rect x="411.179" y="444.807" transform="matrix(0.9263 -0.3767 0.3767 0.9263 -137.5477 187.9047)" fill-rule="evenodd" clip-rule="evenodd" width="1.05" height="1.717"/>
						
							<rect x="410.024" y="441.965" transform="matrix(0.9263 -0.3767 0.3767 0.9263 -136.5619 187.2602)" fill-rule="evenodd" clip-rule="evenodd" width="1.05" height="1.716"/>
					</g>
				</g>
				<g>
					<g>
						<g>
							
								<rect x="410.703" y="448.923" transform="matrix(-0.3765 -0.9264 0.9264 -0.3765 150.9675 1009.9445)" fill="none" width="9.249" height="10.499"/>
						</g>
						
							<rect x="415.821" y="456.227" transform="matrix(0.9263 -0.3767 0.3767 0.9263 -141.5073 190.4943)" fill-rule="evenodd" clip-rule="evenodd" width="1.05" height="1.716"/>
						
							<rect x="414.662" y="453.375" transform="matrix(0.9265 -0.3763 0.3763 0.9265 -140.4044 189.6082)" fill-rule="evenodd" clip-rule="evenodd" width="1.05" height="1.717"/>
						
							<rect x="413.506" y="450.532" transform="matrix(0.9263 -0.3767 0.3767 0.9263 -139.5326 189.203)" fill-rule="evenodd" clip-rule="evenodd" width="1.05" height="1.717"/>
					</g>
				</g>
				<g>
					<g>
						<g>
							
								<rect x="414.186" y="457.49" transform="matrix(-0.3766 -0.9264 0.9264 -0.3766 147.8353 1024.9696)" fill="none" width="9.248" height="10.499"/>
						</g>
						
							<rect x="419.303" y="464.795" transform="matrix(0.9263 -0.3767 0.3767 0.9263 -144.478 192.437)" fill-rule="evenodd" clip-rule="evenodd" width="1.05" height="1.717"/>
						
							<rect x="418.144" y="461.943" transform="matrix(0.9263 -0.3767 0.3767 0.9263 -143.4891 191.7903)" fill-rule="evenodd" clip-rule="evenodd" width="1.05" height="1.717"/>
						
							<rect x="416.988" y="459.1" transform="matrix(0.9266 -0.376 0.376 0.9266 -142.2933 190.7086)" fill-rule="evenodd" clip-rule="evenodd" width="1.051" height="1.717"/>
					</g>
				</g>
			</g>
		</g>
	</g>
	<line fill="none" stroke="#000000" stroke-miterlimit="10" x1="420.551" y1="467.023" x2="420.082" y2="389.75"/>
</g>
<g id="Layer_16">
</g>
<g id="Layer_17">
</g>
<g id="Layer_18">
</g>
<g id="Layer_19">
</g>
<g id="Layer_20">
</g>
<g id="Layer_21">
</g>
<g id="Layer_22">
</g>
<g id="Layer_24">
</g>
<g id="Layer_25">
</g>
<g id="Layer_26">
</g>
<g id="Layer_27">
</g>
<g id="Layer_28">
</g>
<g id="Layer_29">
</g>
<g id="Layer_30">
</g>
<g id="Layer_31">
</g>
<g id="Layer_32">
</g>
<g id="Layer_33">
</g>
<g id="Layer_34">
</g>
<g id="Layer_35">
</g>
<g id="Layer_36">
</g>
<g id="Layer_37">
</g>
<g id="Layer_38">
</g>
<g id="Layer_39">
</g>
<g id="Layer_40">
</g>
<g id="Layer_41">
</g>
<g id="Layer_43">
</g>
</svg>
