<?xml version="1.0" encoding="utf-8"?>
<!-- Generator: Adobe Illustrator 16.0.0, SVG Export Plug-In . SVG Version: 6.00 Build 0)  -->
<!DOCTYPE svg PUBLIC "-//W3C//DTD SVG 1.1//EN" "http://www.w3.org/Graphics/SVG/1.1/DTD/svg11.dtd">
<svg version="1.1" xmlns="http://www.w3.org/2000/svg" xmlns:xlink="http://www.w3.org/1999/xlink" x="0px" y="0px"
	 width="841.89px" height="595.28px" viewBox="0 0 841.89 595.28" enable-background="new 0 0 841.89 595.28" xml:space="preserve">
<g id="Layer_1">
</g>
<g id="Layer_2">
</g>
<g id="Layer_3">
</g>
<g id="Layer_4">
</g>
<g id="Layer_5">
	<polygon fill="none" stroke="#000000" stroke-miterlimit="10" points="562.166,438.99 420.434,438.99 278.702,438.99 
		278.702,297.257 278.702,155.524 420.434,155.524 562.166,155.524 562.166,297.257 	"/>
	<g>
		<g>
			<path fill="none" stroke="#A7A9AC" stroke-width="0.7" stroke-miterlimit="10" d="M420.435,297.257"/>
		</g>
	</g>
	<g id="pion_5_">
		<g>
			<g>
				<g>
					<g>
						<g>
							<rect x="415.186" y="155.015" fill="none" width="10.498" height="9.483"/>
						</g>
						<rect x="419.756" y="162.037" fill-rule="evenodd" clip-rule="evenodd" width="1.05" height="1.76"/>
						<rect x="419.756" y="158.88" fill-rule="evenodd" clip-rule="evenodd" width="1.05" height="1.76"/>
						<rect x="419.756" y="155.733" fill-rule="evenodd" clip-rule="evenodd" width="1.05" height="1.76"/>
					</g>
				</g>
				<g>
					<g>
						<g>
							<rect x="415.186" y="164.498" fill="none" width="10.498" height="9.483"/>
						</g>
						<rect x="419.756" y="171.52" fill-rule="evenodd" clip-rule="evenodd" width="1.05" height="1.76"/>
						<rect x="419.756" y="168.362" fill-rule="evenodd" clip-rule="evenodd" width="1.05" height="1.761"/>
						<rect x="419.756" y="165.216" fill-rule="evenodd" clip-rule="evenodd" width="1.05" height="1.76"/>
					</g>
				</g>
				<g>
					<g>
						<g>
							<rect x="415.186" y="173.98" fill="none" width="10.498" height="9.482"/>
						</g>
						<rect x="419.756" y="181.002" fill-rule="evenodd" clip-rule="evenodd" width="1.05" height="1.76"/>
						<rect x="419.756" y="177.846" fill-rule="evenodd" clip-rule="evenodd" width="1.05" height="1.76"/>
						<rect x="419.756" y="174.699" fill-rule="evenodd" clip-rule="evenodd" width="1.05" height="1.76"/>
					</g>
				</g>
				<g>
					<g>
						<g>
							<rect x="415.186" y="183.463" fill="none" width="10.498" height="9.483"/>
						</g>
						<rect x="419.756" y="190.485" fill-rule="evenodd" clip-rule="evenodd" width="1.05" height="1.76"/>
						<rect x="419.756" y="187.328" fill-rule="evenodd" clip-rule="evenodd" width="1.05" height="1.76"/>
						<rect x="419.756" y="184.182" fill-rule="evenodd" clip-rule="evenodd" width="1.05" height="1.76"/>
					</g>
				</g>
				<g>
					<g>
						<g>
							<rect x="415.186" y="192.946" fill="none" width="10.498" height="9.482"/>
						</g>
						<rect x="419.756" y="199.968" fill-rule="evenodd" clip-rule="evenodd" width="1.05" height="1.761"/>
						<rect x="419.756" y="196.811" fill-rule="evenodd" clip-rule="evenodd" width="1.05" height="1.76"/>
						<rect x="419.756" y="193.665" fill-rule="evenodd" clip-rule="evenodd" width="1.05" height="1.76"/>
					</g>
				</g>
				<g>
					<g>
						<g>
							<rect x="415.186" y="202.429" fill="none" width="10.498" height="9.483"/>
						</g>
						<rect x="419.756" y="209.451" fill-rule="evenodd" clip-rule="evenodd" width="1.05" height="1.76"/>
						<rect x="419.756" y="206.294" fill-rule="evenodd" clip-rule="evenodd" width="1.05" height="1.76"/>
						<rect x="419.756" y="203.147" fill-rule="evenodd" clip-rule="evenodd" width="1.05" height="1.76"/>
					</g>
				</g>
				<g>
					<g>
						<g>
							<rect x="415.186" y="211.912" fill="none" width="10.498" height="9.483"/>
						</g>
						<rect x="419.756" y="218.934" fill-rule="evenodd" clip-rule="evenodd" width="1.05" height="1.76"/>
						<rect x="419.756" y="215.777" fill-rule="evenodd" clip-rule="evenodd" width="1.05" height="1.76"/>
						<rect x="419.756" y="212.63" fill-rule="evenodd" clip-rule="evenodd" width="1.05" height="1.761"/>
					</g>
				</g>
				<g>
					<g>
						<g>
							<rect x="415.186" y="221.395" fill="none" width="10.498" height="9.483"/>
						</g>
						<rect x="419.756" y="228.417" fill-rule="evenodd" clip-rule="evenodd" width="1.05" height="1.76"/>
						<rect x="419.756" y="225.26" fill-rule="evenodd" clip-rule="evenodd" width="1.05" height="1.76"/>
						<rect x="419.756" y="222.113" fill-rule="evenodd" clip-rule="evenodd" width="1.05" height="1.76"/>
					</g>
				</g>
				<g>
					<g>
						<g>
							<rect x="415.186" y="230.877" fill="none" width="10.498" height="9.483"/>
						</g>
						<rect x="419.756" y="237.899" fill-rule="evenodd" clip-rule="evenodd" width="1.05" height="1.76"/>
						<rect x="419.756" y="234.742" fill-rule="evenodd" clip-rule="evenodd" width="1.05" height="1.761"/>
						<rect x="419.756" y="231.596" fill-rule="evenodd" clip-rule="evenodd" width="1.05" height="1.76"/>
					</g>
				</g>
				<g>
					<g>
						<g>
							<rect x="415.186" y="240.36" fill="none" width="10.498" height="9.482"/>
						</g>
						<rect x="419.756" y="247.382" fill-rule="evenodd" clip-rule="evenodd" width="1.05" height="1.76"/>
						<rect x="419.756" y="244.226" fill-rule="evenodd" clip-rule="evenodd" width="1.05" height="1.76"/>
						<rect x="419.756" y="241.079" fill-rule="evenodd" clip-rule="evenodd" width="1.05" height="1.76"/>
					</g>
				</g>
				<g>
					<g>
						<g>
							<rect x="415.186" y="249.843" fill="none" width="10.498" height="9.483"/>
						</g>
						<rect x="419.756" y="256.865" fill-rule="evenodd" clip-rule="evenodd" width="1.05" height="1.76"/>
						<rect x="419.756" y="253.708" fill-rule="evenodd" clip-rule="evenodd" width="1.05" height="1.76"/>
						<rect x="419.756" y="250.562" fill-rule="evenodd" clip-rule="evenodd" width="1.05" height="1.76"/>
					</g>
				</g>
				<g>
					<g>
						<g>
							<rect x="415.186" y="259.326" fill="none" width="10.498" height="9.482"/>
						</g>
						<rect x="419.756" y="266.348" fill-rule="evenodd" clip-rule="evenodd" width="1.05" height="1.761"/>
						<rect x="419.756" y="263.191" fill-rule="evenodd" clip-rule="evenodd" width="1.05" height="1.76"/>
						<rect x="419.756" y="260.044" fill-rule="evenodd" clip-rule="evenodd" width="1.05" height="1.76"/>
					</g>
				</g>
				<g>
					<g>
						<g>
							<rect x="415.186" y="268.809" fill="none" width="10.498" height="9.483"/>
						</g>
						<rect x="419.756" y="275.831" fill-rule="evenodd" clip-rule="evenodd" width="1.05" height="1.76"/>
						<rect x="419.756" y="272.674" fill-rule="evenodd" clip-rule="evenodd" width="1.05" height="1.76"/>
						<rect x="419.756" y="269.527" fill-rule="evenodd" clip-rule="evenodd" width="1.05" height="1.76"/>
					</g>
				</g>
				<g>
					<g>
						<g>
							<rect x="415.186" y="278.292" fill="none" width="10.498" height="9.482"/>
						</g>
						<rect x="419.756" y="285.313" fill-rule="evenodd" clip-rule="evenodd" width="1.05" height="1.761"/>
						<rect x="419.756" y="282.157" fill-rule="evenodd" clip-rule="evenodd" width="1.05" height="1.76"/>
						<rect x="419.756" y="279.01" fill-rule="evenodd" clip-rule="evenodd" width="1.05" height="1.76"/>
					</g>
				</g>
				<g>
					<g>
						<g>
							<rect x="415.186" y="287.774" fill="none" width="10.498" height="9.483"/>
						</g>
						<rect x="419.756" y="294.797" fill-rule="evenodd" clip-rule="evenodd" width="1.05" height="1.76"/>
						<rect x="419.756" y="291.64" fill-rule="evenodd" clip-rule="evenodd" width="1.05" height="1.76"/>
						<rect x="419.756" y="288.493" fill-rule="evenodd" clip-rule="evenodd" width="1.05" height="1.76"/>
					</g>
				</g>
				<g>
					<g>
						<g>
							<rect x="415.186" y="297.257" fill="none" width="10.498" height="9.483"/>
						</g>
						<rect x="419.756" y="304.279" fill-rule="evenodd" clip-rule="evenodd" width="1.05" height="1.76"/>
						<rect x="419.756" y="301.123" fill-rule="evenodd" clip-rule="evenodd" width="1.05" height="1.76"/>
						<rect x="419.756" y="297.976" fill-rule="evenodd" clip-rule="evenodd" width="1.05" height="1.761"/>
					</g>
				</g>
				<g>
					<g>
						<g>
							<rect x="415.186" y="306.74" fill="none" width="10.498" height="9.482"/>
						</g>
						<rect x="419.756" y="313.762" fill-rule="evenodd" clip-rule="evenodd" width="1.05" height="1.76"/>
						<rect x="419.756" y="310.605" fill-rule="evenodd" clip-rule="evenodd" width="1.05" height="1.76"/>
						<rect x="419.756" y="307.459" fill-rule="evenodd" clip-rule="evenodd" width="1.05" height="1.76"/>
					</g>
				</g>
				<g>
					<g>
						<g>
							<rect x="415.186" y="316.223" fill="none" width="10.498" height="9.483"/>
						</g>
						<rect x="419.756" y="323.245" fill-rule="evenodd" clip-rule="evenodd" width="1.05" height="1.76"/>
						<rect x="419.756" y="320.088" fill-rule="evenodd" clip-rule="evenodd" width="1.05" height="1.761"/>
						<rect x="419.756" y="316.941" fill-rule="evenodd" clip-rule="evenodd" width="1.05" height="1.76"/>
					</g>
				</g>
				<g>
					<g>
						<g>
							<rect x="415.186" y="325.706" fill="none" width="10.498" height="9.482"/>
						</g>
						<rect x="419.756" y="332.728" fill-rule="evenodd" clip-rule="evenodd" width="1.05" height="1.76"/>
						<rect x="419.756" y="329.571" fill-rule="evenodd" clip-rule="evenodd" width="1.05" height="1.76"/>
						<rect x="419.756" y="326.424" fill-rule="evenodd" clip-rule="evenodd" width="1.05" height="1.76"/>
					</g>
				</g>
				<g>
					<g>
						<g>
							<rect x="415.186" y="335.188" fill="none" width="10.498" height="9.483"/>
						</g>
						<rect x="419.756" y="342.211" fill-rule="evenodd" clip-rule="evenodd" width="1.05" height="1.76"/>
						<rect x="419.756" y="339.054" fill-rule="evenodd" clip-rule="evenodd" width="1.05" height="1.76"/>
						<rect x="419.756" y="335.907" fill-rule="evenodd" clip-rule="evenodd" width="1.05" height="1.76"/>
					</g>
				</g>
				<g>
					<g>
						<g>
							<rect x="415.186" y="344.672" fill="none" width="10.498" height="9.482"/>
						</g>
						<rect x="419.756" y="351.693" fill-rule="evenodd" clip-rule="evenodd" width="1.05" height="1.761"/>
						<rect x="419.756" y="348.537" fill-rule="evenodd" clip-rule="evenodd" width="1.05" height="1.76"/>
						<rect x="419.756" y="345.39" fill-rule="evenodd" clip-rule="evenodd" width="1.05" height="1.76"/>
					</g>
				</g>
				<g>
					<g>
						<g>
							<rect x="415.186" y="354.154" fill="none" width="10.498" height="9.483"/>
						</g>
						<rect x="419.756" y="361.177" fill-rule="evenodd" clip-rule="evenodd" width="1.05" height="1.76"/>
						<rect x="419.756" y="358.02" fill-rule="evenodd" clip-rule="evenodd" width="1.05" height="1.76"/>
						<rect x="419.756" y="354.873" fill-rule="evenodd" clip-rule="evenodd" width="1.05" height="1.76"/>
					</g>
				</g>
				<g>
					<g>
						<g>
							<rect x="415.186" y="363.637" fill="none" width="10.498" height="9.483"/>
						</g>
						<rect x="419.756" y="370.659" fill-rule="evenodd" clip-rule="evenodd" width="1.05" height="1.76"/>
						<rect x="419.756" y="367.502" fill-rule="evenodd" clip-rule="evenodd" width="1.05" height="1.76"/>
						<rect x="419.756" y="364.355" fill-rule="evenodd" clip-rule="evenodd" width="1.05" height="1.761"/>
					</g>
				</g>
				<g>
					<g>
						<g>
							<rect x="415.186" y="373.12" fill="none" width="10.498" height="9.483"/>
						</g>
						<rect x="419.756" y="380.142" fill-rule="evenodd" clip-rule="evenodd" width="1.05" height="1.76"/>
						<rect x="419.756" y="376.985" fill-rule="evenodd" clip-rule="evenodd" width="1.05" height="1.76"/>
						<rect x="419.756" y="373.839" fill-rule="evenodd" clip-rule="evenodd" width="1.05" height="1.76"/>
					</g>
				</g>
				<g>
					<g>
						<g>
							<rect x="415.186" y="382.603" fill="none" width="10.498" height="9.483"/>
						</g>
						<rect x="419.756" y="389.625" fill-rule="evenodd" clip-rule="evenodd" width="1.05" height="1.76"/>
						<rect x="419.756" y="386.468" fill-rule="evenodd" clip-rule="evenodd" width="1.05" height="1.761"/>
						<rect x="419.756" y="383.321" fill-rule="evenodd" clip-rule="evenodd" width="1.05" height="1.76"/>
					</g>
				</g>
				<g>
					<g>
						<g>
							<rect x="415.186" y="392.086" fill="none" width="10.498" height="9.482"/>
						</g>
						<rect x="419.756" y="399.108" fill-rule="evenodd" clip-rule="evenodd" width="1.05" height="1.76"/>
						<rect x="419.756" y="395.951" fill-rule="evenodd" clip-rule="evenodd" width="1.05" height="1.76"/>
						<rect x="419.756" y="392.804" fill-rule="evenodd" clip-rule="evenodd" width="1.05" height="1.76"/>
					</g>
				</g>
				<g>
					<g>
						<g>
							<rect x="415.186" y="401.568" fill="none" width="10.498" height="9.483"/>
						</g>
						<rect x="419.756" y="408.591" fill-rule="evenodd" clip-rule="evenodd" width="1.05" height="1.76"/>
						<rect x="419.756" y="405.434" fill-rule="evenodd" clip-rule="evenodd" width="1.05" height="1.76"/>
						<rect x="419.756" y="402.287" fill-rule="evenodd" clip-rule="evenodd" width="1.05" height="1.76"/>
					</g>
				</g>
				<g>
					<g>
						<g>
							<rect x="415.186" y="411.052" fill="none" width="10.498" height="9.482"/>
						</g>
						<rect x="419.756" y="418.073" fill-rule="evenodd" clip-rule="evenodd" width="1.05" height="1.761"/>
						<rect x="419.756" y="414.917" fill-rule="evenodd" clip-rule="evenodd" width="1.05" height="1.76"/>
						<rect x="419.756" y="411.77" fill-rule="evenodd" clip-rule="evenodd" width="1.05" height="1.76"/>
					</g>
				</g>
				<g>
					<g>
						<g>
							<rect x="415.186" y="420.534" fill="none" width="10.498" height="9.483"/>
						</g>
						<rect x="419.756" y="427.557" fill-rule="evenodd" clip-rule="evenodd" width="1.05" height="1.76"/>
						<rect x="419.756" y="424.399" fill-rule="evenodd" clip-rule="evenodd" width="1.05" height="1.76"/>
						<rect x="419.756" y="421.253" fill-rule="evenodd" clip-rule="evenodd" width="1.05" height="1.76"/>
					</g>
				</g>
				<g>
					<g>
						<g>
							<rect x="415.186" y="430.017" fill="none" width="10.498" height="9.483"/>
						</g>
						<rect x="419.756" y="437.039" fill-rule="evenodd" clip-rule="evenodd" width="1.05" height="1.76"/>
						<rect x="419.756" y="433.882" fill-rule="evenodd" clip-rule="evenodd" width="1.05" height="1.76"/>
						<rect x="419.756" y="430.735" fill-rule="evenodd" clip-rule="evenodd" width="1.05" height="1.761"/>
					</g>
				</g>
			</g>
		</g>
	</g>
	<g id="pion_6_">
		<g>
			<g>
				<g>
					<g>
						<g>
							<rect x="553.193" y="292.008" fill="none" width="9.483" height="10.499"/>
						</g>
						<rect x="553.895" y="296.579" fill-rule="evenodd" clip-rule="evenodd" width="1.76" height="1.05"/>
						<rect x="557.052" y="296.579" fill-rule="evenodd" clip-rule="evenodd" width="1.76" height="1.05"/>
						<rect x="560.198" y="296.579" fill-rule="evenodd" clip-rule="evenodd" width="1.76" height="1.05"/>
					</g>
				</g>
				<g>
					<g>
						<g>
							<rect x="543.711" y="292.008" fill="none" width="9.482" height="10.499"/>
						</g>
						<rect x="544.412" y="296.579" fill-rule="evenodd" clip-rule="evenodd" width="1.76" height="1.05"/>
						<rect x="547.568" y="296.579" fill-rule="evenodd" clip-rule="evenodd" width="1.761" height="1.05"/>
						<rect x="550.715" y="296.579" fill-rule="evenodd" clip-rule="evenodd" width="1.761" height="1.05"/>
					</g>
				</g>
				<g>
					<g>
						<g>
							<rect x="534.229" y="292.008" fill="none" width="9.482" height="10.499"/>
						</g>
						<rect x="534.929" y="296.579" fill-rule="evenodd" clip-rule="evenodd" width="1.761" height="1.05"/>
						<rect x="538.086" y="296.579" fill-rule="evenodd" clip-rule="evenodd" width="1.76" height="1.05"/>
						<rect x="541.232" y="296.579" fill-rule="evenodd" clip-rule="evenodd" width="1.76" height="1.05"/>
					</g>
				</g>
				<g>
					<g>
						<g>
							<rect x="524.745" y="292.008" fill="none" width="9.483" height="10.499"/>
						</g>
						<rect x="525.446" y="296.579" fill-rule="evenodd" clip-rule="evenodd" width="1.76" height="1.05"/>
						<rect x="528.604" y="296.579" fill-rule="evenodd" clip-rule="evenodd" width="1.76" height="1.05"/>
						<rect x="531.75" y="296.579" fill-rule="evenodd" clip-rule="evenodd" width="1.76" height="1.05"/>
					</g>
				</g>
				<g>
					<g>
						<g>
							<rect x="515.263" y="292.008" fill="none" width="9.482" height="10.499"/>
						</g>
						<rect x="515.963" y="296.579" fill-rule="evenodd" clip-rule="evenodd" width="1.761" height="1.05"/>
						<rect x="519.12" y="296.579" fill-rule="evenodd" clip-rule="evenodd" width="1.761" height="1.05"/>
						<rect x="522.267" y="296.579" fill-rule="evenodd" clip-rule="evenodd" width="1.761" height="1.05"/>
					</g>
				</g>
				<g>
					<g>
						<g>
							<rect x="505.779" y="292.008" fill="none" width="9.483" height="10.499"/>
						</g>
						<rect x="506.48" y="296.579" fill-rule="evenodd" clip-rule="evenodd" width="1.76" height="1.05"/>
						<rect x="509.637" y="296.579" fill-rule="evenodd" clip-rule="evenodd" width="1.761" height="1.05"/>
						<rect x="512.784" y="296.579" fill-rule="evenodd" clip-rule="evenodd" width="1.76" height="1.05"/>
					</g>
				</g>
				<g>
					<g>
						<g>
							<rect x="496.297" y="292.008" fill="none" width="9.482" height="10.499"/>
						</g>
						<rect x="496.998" y="296.579" fill-rule="evenodd" clip-rule="evenodd" width="1.76" height="1.05"/>
						<rect x="500.154" y="296.579" fill-rule="evenodd" clip-rule="evenodd" width="1.76" height="1.05"/>
						<rect x="503.301" y="296.579" fill-rule="evenodd" clip-rule="evenodd" width="1.761" height="1.05"/>
					</g>
				</g>
				<g>
					<g>
						<g>
							<rect x="486.814" y="292.008" fill="none" width="9.482" height="10.499"/>
						</g>
						<rect x="487.515" y="296.579" fill-rule="evenodd" clip-rule="evenodd" width="1.76" height="1.05"/>
						<rect x="490.672" y="296.579" fill-rule="evenodd" clip-rule="evenodd" width="1.76" height="1.05"/>
						<rect x="493.818" y="296.579" fill-rule="evenodd" clip-rule="evenodd" width="1.76" height="1.05"/>
					</g>
				</g>
				<g>
					<g>
						<g>
							<rect x="477.331" y="292.008" fill="none" width="9.483" height="10.499"/>
						</g>
						<rect x="478.031" y="296.579" fill-rule="evenodd" clip-rule="evenodd" width="1.761" height="1.05"/>
						<rect x="481.188" y="296.579" fill-rule="evenodd" clip-rule="evenodd" width="1.761" height="1.05"/>
						<rect x="484.336" y="296.579" fill-rule="evenodd" clip-rule="evenodd" width="1.76" height="1.05"/>
					</g>
				</g>
				<g>
					<g>
						<g>
							<rect x="467.849" y="292.008" fill="none" width="9.482" height="10.499"/>
						</g>
						<rect x="468.549" y="296.579" fill-rule="evenodd" clip-rule="evenodd" width="1.76" height="1.05"/>
						<rect x="471.706" y="296.579" fill-rule="evenodd" clip-rule="evenodd" width="1.76" height="1.05"/>
						<rect x="474.853" y="296.579" fill-rule="evenodd" clip-rule="evenodd" width="1.76" height="1.05"/>
					</g>
				</g>
				<g>
					<g>
						<g>
							<rect x="458.365" y="292.008" fill="none" width="9.483" height="10.499"/>
						</g>
						<rect x="459.066" y="296.579" fill-rule="evenodd" clip-rule="evenodd" width="1.76" height="1.05"/>
						<rect x="462.223" y="296.579" fill-rule="evenodd" clip-rule="evenodd" width="1.761" height="1.05"/>
						<rect x="465.369" y="296.579" fill-rule="evenodd" clip-rule="evenodd" width="1.761" height="1.05"/>
					</g>
				</g>
				<g>
					<g>
						<g>
							<rect x="448.883" y="292.008" fill="none" width="9.482" height="10.499"/>
						</g>
						<rect x="449.583" y="296.579" fill-rule="evenodd" clip-rule="evenodd" width="1.761" height="1.05"/>
						<rect x="452.74" y="296.579" fill-rule="evenodd" clip-rule="evenodd" width="1.76" height="1.05"/>
						<rect x="455.887" y="296.579" fill-rule="evenodd" clip-rule="evenodd" width="1.76" height="1.05"/>
					</g>
				</g>
				<g>
					<g>
						<g>
							<rect x="439.399" y="292.008" fill="none" width="9.483" height="10.499"/>
						</g>
						<rect x="440.101" y="296.579" fill-rule="evenodd" clip-rule="evenodd" width="1.76" height="1.05"/>
						<rect x="443.258" y="296.579" fill-rule="evenodd" clip-rule="evenodd" width="1.76" height="1.05"/>
						<rect x="446.404" y="296.579" fill-rule="evenodd" clip-rule="evenodd" width="1.76" height="1.05"/>
					</g>
				</g>
				<g>
					<g>
						<g>
							<rect x="429.917" y="292.008" fill="none" width="9.482" height="10.499"/>
						</g>
						<rect x="430.617" y="296.579" fill-rule="evenodd" clip-rule="evenodd" width="1.761" height="1.05"/>
						<rect x="433.774" y="296.579" fill-rule="evenodd" clip-rule="evenodd" width="1.761" height="1.05"/>
						<rect x="436.921" y="296.579" fill-rule="evenodd" clip-rule="evenodd" width="1.761" height="1.05"/>
					</g>
				</g>
				<g>
					<g>
						<g>
							<rect x="420.434" y="292.008" fill="none" width="9.483" height="10.499"/>
						</g>
						<rect x="421.135" y="296.579" fill-rule="evenodd" clip-rule="evenodd" width="1.76" height="1.05"/>
						<rect x="424.292" y="296.579" fill-rule="evenodd" clip-rule="evenodd" width="1.76" height="1.05"/>
						<rect x="427.438" y="296.579" fill-rule="evenodd" clip-rule="evenodd" width="1.76" height="1.05"/>
					</g>
				</g>
				<g>
					<g>
						<g>
							<rect x="410.951" y="292.008" fill="none" width="9.482" height="10.499"/>
						</g>
						<rect x="411.652" y="296.579" fill-rule="evenodd" clip-rule="evenodd" width="1.76" height="1.05"/>
						<rect x="414.809" y="296.579" fill-rule="evenodd" clip-rule="evenodd" width="1.76" height="1.05"/>
						<rect x="417.955" y="296.579" fill-rule="evenodd" clip-rule="evenodd" width="1.761" height="1.05"/>
					</g>
				</g>
				<g>
					<g>
						<g>
							<rect x="401.469" y="292.008" fill="none" width="9.482" height="10.499"/>
						</g>
						<rect x="402.169" y="296.579" fill-rule="evenodd" clip-rule="evenodd" width="1.761" height="1.05"/>
						<rect x="405.326" y="296.579" fill-rule="evenodd" clip-rule="evenodd" width="1.76" height="1.05"/>
						<rect x="408.473" y="296.579" fill-rule="evenodd" clip-rule="evenodd" width="1.76" height="1.05"/>
					</g>
				</g>
				<g>
					<g>
						<g>
							<rect x="391.985" y="292.008" fill="none" width="9.483" height="10.499"/>
						</g>
						<rect x="392.687" y="296.579" fill-rule="evenodd" clip-rule="evenodd" width="1.76" height="1.05"/>
						<rect x="395.843" y="296.579" fill-rule="evenodd" clip-rule="evenodd" width="1.761" height="1.05"/>
						<rect x="398.99" y="296.579" fill-rule="evenodd" clip-rule="evenodd" width="1.76" height="1.05"/>
					</g>
				</g>
				<g>
					<g>
						<g>
							<rect x="382.503" y="292.008" fill="none" width="9.482" height="10.499"/>
						</g>
						<rect x="383.203" y="296.579" fill-rule="evenodd" clip-rule="evenodd" width="1.76" height="1.05"/>
						<rect x="386.36" y="296.579" fill-rule="evenodd" clip-rule="evenodd" width="1.76" height="1.05"/>
						<rect x="389.507" y="296.579" fill-rule="evenodd" clip-rule="evenodd" width="1.761" height="1.05"/>
					</g>
				</g>
				<g>
					<g>
						<g>
							<rect x="373.02" y="292.008" fill="none" width="9.483" height="10.499"/>
						</g>
						<rect x="373.721" y="296.579" fill-rule="evenodd" clip-rule="evenodd" width="1.76" height="1.05"/>
						<rect x="376.877" y="296.579" fill-rule="evenodd" clip-rule="evenodd" width="1.761" height="1.05"/>
						<rect x="380.023" y="296.579" fill-rule="evenodd" clip-rule="evenodd" width="1.761" height="1.05"/>
					</g>
				</g>
				<g>
					<g>
						<g>
							<rect x="363.537" y="292.008" fill="none" width="9.482" height="10.499"/>
						</g>
						<rect x="364.237" y="296.579" fill-rule="evenodd" clip-rule="evenodd" width="1.761" height="1.05"/>
						<rect x="367.395" y="296.579" fill-rule="evenodd" clip-rule="evenodd" width="1.76" height="1.05"/>
						<rect x="370.541" y="296.579" fill-rule="evenodd" clip-rule="evenodd" width="1.76" height="1.05"/>
					</g>
				</g>
				<g>
					<g>
						<g>
							<rect x="354.055" y="292.008" fill="none" width="9.482" height="10.499"/>
						</g>
						<rect x="354.755" y="296.579" fill-rule="evenodd" clip-rule="evenodd" width="1.76" height="1.05"/>
						<rect x="357.912" y="296.579" fill-rule="evenodd" clip-rule="evenodd" width="1.76" height="1.05"/>
						<rect x="361.059" y="296.579" fill-rule="evenodd" clip-rule="evenodd" width="1.76" height="1.05"/>
					</g>
				</g>
				<g>
					<g>
						<g>
							<rect x="344.571" y="292.008" fill="none" width="9.483" height="10.499"/>
						</g>
						<rect x="345.271" y="296.579" fill-rule="evenodd" clip-rule="evenodd" width="1.761" height="1.05"/>
						<rect x="348.429" y="296.579" fill-rule="evenodd" clip-rule="evenodd" width="1.761" height="1.05"/>
						<rect x="351.575" y="296.579" fill-rule="evenodd" clip-rule="evenodd" width="1.761" height="1.05"/>
					</g>
				</g>
				<g>
					<g>
						<g>
							<rect x="335.088" y="292.008" fill="none" width="9.483" height="10.499"/>
						</g>
						<rect x="335.789" y="296.579" fill-rule="evenodd" clip-rule="evenodd" width="1.76" height="1.05"/>
						<rect x="338.946" y="296.579" fill-rule="evenodd" clip-rule="evenodd" width="1.76" height="1.05"/>
						<rect x="342.093" y="296.579" fill-rule="evenodd" clip-rule="evenodd" width="1.76" height="1.05"/>
					</g>
				</g>
				<g>
					<g>
						<g>
							<rect x="325.605" y="292.008" fill="none" width="9.482" height="10.499"/>
						</g>
						<rect x="326.307" y="296.579" fill-rule="evenodd" clip-rule="evenodd" width="1.76" height="1.05"/>
						<rect x="329.463" y="296.579" fill-rule="evenodd" clip-rule="evenodd" width="1.761" height="1.05"/>
						<rect x="332.609" y="296.579" fill-rule="evenodd" clip-rule="evenodd" width="1.761" height="1.05"/>
					</g>
				</g>
				<g>
					<g>
						<g>
							<rect x="316.123" y="292.008" fill="none" width="9.482" height="10.499"/>
						</g>
						<rect x="316.823" y="296.579" fill-rule="evenodd" clip-rule="evenodd" width="1.761" height="1.05"/>
						<rect x="319.98" y="296.579" fill-rule="evenodd" clip-rule="evenodd" width="1.76" height="1.05"/>
						<rect x="323.127" y="296.579" fill-rule="evenodd" clip-rule="evenodd" width="1.76" height="1.05"/>
					</g>
				</g>
				<g>
					<g>
						<g>
							<rect x="306.64" y="292.008" fill="none" width="9.483" height="10.499"/>
						</g>
						<rect x="307.341" y="296.579" fill-rule="evenodd" clip-rule="evenodd" width="1.76" height="1.05"/>
						<rect x="310.498" y="296.579" fill-rule="evenodd" clip-rule="evenodd" width="1.76" height="1.05"/>
						<rect x="313.645" y="296.579" fill-rule="evenodd" clip-rule="evenodd" width="1.76" height="1.05"/>
					</g>
				</g>
				<g>
					<g>
						<g>
							<rect x="297.157" y="292.008" fill="none" width="9.482" height="10.499"/>
						</g>
						<rect x="297.857" y="296.579" fill-rule="evenodd" clip-rule="evenodd" width="1.761" height="1.05"/>
						<rect x="301.015" y="296.579" fill-rule="evenodd" clip-rule="evenodd" width="1.76" height="1.05"/>
						<rect x="304.161" y="296.579" fill-rule="evenodd" clip-rule="evenodd" width="1.761" height="1.05"/>
					</g>
				</g>
				<g>
					<g>
						<g>
							<rect x="287.674" y="292.008" fill="none" width="9.483" height="10.499"/>
						</g>
						<rect x="288.375" y="296.579" fill-rule="evenodd" clip-rule="evenodd" width="1.76" height="1.05"/>
						<rect x="291.532" y="296.579" fill-rule="evenodd" clip-rule="evenodd" width="1.76" height="1.05"/>
						<rect x="294.679" y="296.579" fill-rule="evenodd" clip-rule="evenodd" width="1.76" height="1.05"/>
					</g>
				</g>
				<g>
					<g>
						<g>
							<rect x="278.191" y="292.008" fill="none" width="9.482" height="10.499"/>
						</g>
						<rect x="278.893" y="296.579" fill-rule="evenodd" clip-rule="evenodd" width="1.76" height="1.05"/>
						<rect x="282.049" y="296.579" fill-rule="evenodd" clip-rule="evenodd" width="1.76" height="1.05"/>
						<rect x="285.195" y="296.579" fill-rule="evenodd" clip-rule="evenodd" width="1.761" height="1.05"/>
					</g>
				</g>
			</g>
		</g>
	</g>
</g>
<g id="Layer_6">
</g>
<g id="Layer_7">
</g>
<g id="Layer_8">
</g>
<g id="Layer_9">
</g>
<g id="Layer_10">
</g>
<g id="Layer_11">
</g>
<g id="Layer_12">
</g>
<g id="Layer_13">
</g>
<g id="Layer_14">
</g>
<g id="Layer_15">
</g>
<g id="Layer_16">
</g>
<g id="Layer_17">
</g>
<g id="Layer_18">
</g>
<g id="Layer_19">
</g>
<g id="Layer_20">
</g>
<g id="Layer_21">
</g>
<g id="Layer_22">
</g>
<g id="Layer_24">
</g>
<g id="Layer_25">
</g>
<g id="Layer_26">
</g>
<g id="Layer_27">
</g>
<g id="Layer_28">
</g>
<g id="Layer_29">
</g>
<g id="Layer_30">
</g>
<g id="Layer_31">
</g>
<g id="Layer_32">
</g>
<g id="Layer_33">
</g>
<g id="Layer_34">
</g>
<g id="Layer_35">
</g>
<g id="Layer_36">
</g>
<g id="Layer_37">
</g>
<g id="Layer_38">
</g>
<g id="Layer_39">
</g>
<g id="Layer_40">
</g>
<g id="Layer_41">
</g>
<g id="Layer_43">
</g>
</svg>
