<?xml version="1.0" encoding="utf-8"?>
<!-- Generator: Adobe Illustrator 16.0.0, SVG Export Plug-In . SVG Version: 6.00 Build 0)  -->
<!DOCTYPE svg PUBLIC "-//W3C//DTD SVG 1.1//EN" "http://www.w3.org/Graphics/SVG/1.1/DTD/svg11.dtd">
<svg version="1.1" xmlns="http://www.w3.org/2000/svg" xmlns:xlink="http://www.w3.org/1999/xlink" x="0px" y="0px"
	 width="841.89px" height="595.28px" viewBox="0 0 841.89 595.28" enable-background="new 0 0 841.89 595.28" xml:space="preserve">
<g id="Layer_1">
</g>
<g id="Layer_2">
</g>
<g id="Layer_3">
</g>
<g id="Layer_4">
</g>
<g id="Layer_5">
</g>
<g id="Layer_6">
</g>
<g id="Layer_7">
</g>
<g id="Layer_8">
</g>
<g id="Layer_9">
</g>
<g id="Layer_10">
</g>
<g id="Layer_11">
</g>
<g id="Layer_12">
</g>
<g id="Layer_13">
</g>
<g id="Layer_14">
</g>
<g id="Layer_15">
</g>
<g id="Layer_16">
</g>
<g id="Layer_17">
</g>
<g id="Layer_18">
</g>
<g id="Layer_19">
</g>
<g id="Layer_20">
</g>
<g id="Layer_21">
</g>
<g id="Layer_22">
</g>
<g id="Layer_24">
</g>
<g id="Layer_25">
</g>
<g id="Layer_26">
</g>
<g id="Layer_27">
</g>
<g id="Layer_28">
</g>
<g id="Layer_29">
</g>
<g id="Layer_30">
</g>
<g id="Layer_31">
</g>
<g id="Layer_32">
</g>
<g id="Layer_33">
</g>
<g id="Layer_34">
</g>
<g id="Layer_35">
</g>
<g id="Layer_36">
</g>
<g id="Layer_37">
</g>
<g id="Layer_38">
</g>
<g id="Layer_39">
</g>
<g id="Layer_40">
	<g>
		<g>
			<g>
				<g>
					<g>
						<g>
							<rect x="415.211" y="382.781" fill="none" width="10.499" height="9.346"/>
						</g>
						<rect x="420.089" y="383.472" fill-rule="evenodd" clip-rule="evenodd" width="1.05" height="1.734"/>
						<rect x="420.089" y="386.583" fill-rule="evenodd" clip-rule="evenodd" width="1.05" height="1.734"/>
						<rect x="420.089" y="389.685" fill-rule="evenodd" clip-rule="evenodd" width="1.05" height="1.734"/>
					</g>
				</g>
				<g>
					<g>
						<g>
							<rect x="415.211" y="373.436" fill="none" width="10.499" height="9.346"/>
						</g>
						<rect x="420.089" y="374.126" fill-rule="evenodd" clip-rule="evenodd" width="1.05" height="1.734"/>
						<rect x="420.089" y="377.237" fill-rule="evenodd" clip-rule="evenodd" width="1.05" height="1.734"/>
						<rect x="420.089" y="380.339" fill-rule="evenodd" clip-rule="evenodd" width="1.05" height="1.734"/>
					</g>
				</g>
				<g>
					<g>
						<g>
							<rect x="415.211" y="364.089" fill="none" width="10.499" height="9.347"/>
						</g>
						<rect x="420.089" y="364.78" fill-rule="evenodd" clip-rule="evenodd" width="1.05" height="1.734"/>
						<rect x="420.089" y="367.892" fill-rule="evenodd" clip-rule="evenodd" width="1.05" height="1.734"/>
						<rect x="420.089" y="370.992" fill-rule="evenodd" clip-rule="evenodd" width="1.05" height="1.735"/>
					</g>
				</g>
				<g>
					<g>
						<g>
							<rect x="415.211" y="354.743" fill="none" width="10.499" height="9.346"/>
						</g>
						<rect x="420.089" y="355.435" fill-rule="evenodd" clip-rule="evenodd" width="1.05" height="1.734"/>
						<rect x="420.089" y="358.546" fill-rule="evenodd" clip-rule="evenodd" width="1.05" height="1.734"/>
						<rect x="420.089" y="361.646" fill-rule="evenodd" clip-rule="evenodd" width="1.05" height="1.735"/>
					</g>
				</g>
				<g>
					<g>
						<g>
							<rect x="415.211" y="345.397" fill="none" width="10.499" height="9.346"/>
						</g>
						<rect x="420.089" y="346.089" fill-rule="evenodd" clip-rule="evenodd" width="1.05" height="1.734"/>
						<rect x="420.089" y="349.2" fill-rule="evenodd" clip-rule="evenodd" width="1.05" height="1.734"/>
						<rect x="420.089" y="352.301" fill-rule="evenodd" clip-rule="evenodd" width="1.05" height="1.734"/>
					</g>
				</g>
				<g>
					<g>
						<g>
							<rect x="415.211" y="336.052" fill="none" width="10.499" height="9.346"/>
						</g>
						<rect x="420.089" y="336.742" fill-rule="evenodd" clip-rule="evenodd" width="1.05" height="1.735"/>
						<rect x="420.089" y="339.854" fill-rule="evenodd" clip-rule="evenodd" width="1.05" height="1.735"/>
						<rect x="420.089" y="342.955" fill-rule="evenodd" clip-rule="evenodd" width="1.05" height="1.734"/>
					</g>
				</g>
				<g>
					<g>
						<g>
							<rect x="415.211" y="326.706" fill="none" width="10.499" height="9.346"/>
						</g>
						<rect x="420.089" y="327.396" fill-rule="evenodd" clip-rule="evenodd" width="1.05" height="1.735"/>
						<rect x="420.089" y="330.508" fill-rule="evenodd" clip-rule="evenodd" width="1.05" height="1.735"/>
						<rect x="420.089" y="333.609" fill-rule="evenodd" clip-rule="evenodd" width="1.05" height="1.734"/>
					</g>
				</g>
				<g>
					<g>
						<g>
							<rect x="415.211" y="317.36" fill="none" width="10.499" height="9.346"/>
						</g>
						<rect x="420.089" y="318.051" fill-rule="evenodd" clip-rule="evenodd" width="1.05" height="1.734"/>
						<rect x="420.089" y="321.162" fill-rule="evenodd" clip-rule="evenodd" width="1.05" height="1.734"/>
						<rect x="420.089" y="324.263" fill-rule="evenodd" clip-rule="evenodd" width="1.05" height="1.735"/>
					</g>
				</g>
				<g>
					<g>
						<g>
							<rect x="415.211" y="308.015" fill="none" width="10.499" height="9.346"/>
						</g>
						<rect x="420.089" y="308.705" fill-rule="evenodd" clip-rule="evenodd" width="1.05" height="1.734"/>
						<rect x="420.089" y="311.816" fill-rule="evenodd" clip-rule="evenodd" width="1.05" height="1.734"/>
						<rect x="420.089" y="314.917" fill-rule="evenodd" clip-rule="evenodd" width="1.05" height="1.735"/>
					</g>
				</g>
				<g>
					<g>
						<g>
							<rect x="415.211" y="298.669" fill="none" width="10.499" height="9.346"/>
						</g>
						<rect x="420.089" y="299.359" fill-rule="evenodd" clip-rule="evenodd" width="1.05" height="1.734"/>
						<rect x="420.089" y="302.471" fill-rule="evenodd" clip-rule="evenodd" width="1.05" height="1.734"/>
						<rect x="420.089" y="305.571" fill-rule="evenodd" clip-rule="evenodd" width="1.05" height="1.735"/>
					</g>
				</g>
				<g>
					<g>
						<g>
							<rect x="415.211" y="289.323" fill="none" width="10.499" height="9.346"/>
						</g>
						<rect x="420.089" y="290.013" fill-rule="evenodd" clip-rule="evenodd" width="1.05" height="1.735"/>
						<rect x="420.089" y="293.124" fill-rule="evenodd" clip-rule="evenodd" width="1.05" height="1.735"/>
						<rect x="420.089" y="296.226" fill-rule="evenodd" clip-rule="evenodd" width="1.05" height="1.734"/>
					</g>
				</g>
				<g>
					<g>
						<g>
							<rect x="415.211" y="279.977" fill="none" width="10.499" height="9.346"/>
						</g>
						<rect x="420.089" y="280.667" fill-rule="evenodd" clip-rule="evenodd" width="1.051" height="1.735"/>
						<rect x="420.089" y="283.778" fill-rule="evenodd" clip-rule="evenodd" width="1.051" height="1.735"/>
						<rect x="420.089" y="286.88" fill-rule="evenodd" clip-rule="evenodd" width="1.05" height="1.734"/>
					</g>
				</g>
				<g>
					<g>
						<g>
							<rect x="415.211" y="270.631" fill="none" width="10.499" height="9.347"/>
						</g>
						<rect x="420.089" y="271.321" fill-rule="evenodd" clip-rule="evenodd" width="1.051" height="1.735"/>
						<rect x="420.089" y="274.433" fill-rule="evenodd" clip-rule="evenodd" width="1.051" height="1.735"/>
						<rect x="420.089" y="277.534" fill-rule="evenodd" clip-rule="evenodd" width="1.051" height="1.734"/>
					</g>
				</g>
				<g>
					<g>
						<g>
							<rect x="415.211" y="261.285" fill="none" width="10.499" height="9.346"/>
						</g>
						<rect x="420.089" y="261.976" fill-rule="evenodd" clip-rule="evenodd" width="1.051" height="1.734"/>
						<rect x="420.089" y="265.087" fill-rule="evenodd" clip-rule="evenodd" width="1.051" height="1.734"/>
						<rect x="420.089" y="268.188" fill-rule="evenodd" clip-rule="evenodd" width="1.051" height="1.734"/>
					</g>
				</g>
				<g>
					<g>
						<g>
							<rect x="415.211" y="251.939" fill="none" width="10.499" height="9.346"/>
						</g>
						<rect x="420.089" y="252.63" fill-rule="evenodd" clip-rule="evenodd" width="1.051" height="1.734"/>
						<rect x="420.089" y="255.741" fill-rule="evenodd" clip-rule="evenodd" width="1.051" height="1.734"/>
						<rect x="420.089" y="258.843" fill-rule="evenodd" clip-rule="evenodd" width="1.051" height="1.734"/>
					</g>
				</g>
				<g>
					<g>
						<g>
							<rect x="415.211" y="242.594" fill="none" width="10.499" height="9.346"/>
						</g>
						<rect x="420.089" y="243.284" fill-rule="evenodd" clip-rule="evenodd" width="1.051" height="1.734"/>
						<rect x="420.089" y="246.396" fill-rule="evenodd" clip-rule="evenodd" width="1.051" height="1.734"/>
						<rect x="420.089" y="249.497" fill-rule="evenodd" clip-rule="evenodd" width="1.051" height="1.734"/>
					</g>
				</g>
				<g>
					<g>
						<g>
							<rect x="415.211" y="233.248" fill="none" width="10.499" height="9.346"/>
						</g>
						<rect x="420.089" y="233.938" fill-rule="evenodd" clip-rule="evenodd" width="1.051" height="1.734"/>
						<rect x="420.089" y="237.05" fill-rule="evenodd" clip-rule="evenodd" width="1.051" height="1.734"/>
						<rect x="420.089" y="240.15" fill-rule="evenodd" clip-rule="evenodd" width="1.051" height="1.735"/>
					</g>
				</g>
				<g>
					<g>
						<g>
							<rect x="415.211" y="223.901" fill="none" width="10.499" height="9.347"/>
						</g>
						<rect x="420.089" y="224.593" fill-rule="evenodd" clip-rule="evenodd" width="1.051" height="1.734"/>
						<rect x="420.089" y="227.704" fill-rule="evenodd" clip-rule="evenodd" width="1.051" height="1.734"/>
						<rect x="420.089" y="230.805" fill-rule="evenodd" clip-rule="evenodd" width="1.051" height="1.735"/>
					</g>
				</g>
				<g>
					<g>
						<g>
							<rect x="415.211" y="214.556" fill="none" width="10.499" height="9.346"/>
						</g>
						<rect x="420.09" y="215.247" fill-rule="evenodd" clip-rule="evenodd" width="1.05" height="1.734"/>
						<rect x="420.089" y="218.358" fill-rule="evenodd" clip-rule="evenodd" width="1.051" height="1.734"/>
						<rect x="420.089" y="221.459" fill-rule="evenodd" clip-rule="evenodd" width="1.051" height="1.735"/>
					</g>
				</g>
				<g>
					<g>
						<g>
							<rect x="415.211" y="205.21" fill="none" width="10.499" height="9.346"/>
						</g>
						<rect x="420.09" y="205.9" fill-rule="evenodd" clip-rule="evenodd" width="1.05" height="1.735"/>
						<rect x="420.09" y="209.012" fill-rule="evenodd" clip-rule="evenodd" width="1.05" height="1.735"/>
						<rect x="420.09" y="212.113" fill-rule="evenodd" clip-rule="evenodd" width="1.05" height="1.734"/>
					</g>
				</g>
				<g>
					<g>
						<g>
							<rect x="415.212" y="195.864" fill="none" width="10.498" height="9.346"/>
						</g>
						<rect x="420.09" y="196.555" fill-rule="evenodd" clip-rule="evenodd" width="1.05" height="1.735"/>
						<rect x="420.09" y="199.666" fill-rule="evenodd" clip-rule="evenodd" width="1.05" height="1.735"/>
						<rect x="420.09" y="202.768" fill-rule="evenodd" clip-rule="evenodd" width="1.05" height="1.734"/>
					</g>
				</g>
				<g>
					<g>
						<g>
							<rect x="415.212" y="186.519" fill="none" width="10.498" height="9.346"/>
						</g>
						<rect x="420.09" y="187.209" fill-rule="evenodd" clip-rule="evenodd" width="1.05" height="1.734"/>
						<rect x="420.09" y="190.32" fill-rule="evenodd" clip-rule="evenodd" width="1.05" height="1.734"/>
						<rect x="420.09" y="193.422" fill-rule="evenodd" clip-rule="evenodd" width="1.05" height="1.734"/>
					</g>
				</g>
			</g>
		</g>
	</g>
	<path fill="none" stroke="#000000" stroke-miterlimit="10" d="M420.611,323.372"/>
	<line fill="none" stroke="#000000" stroke-miterlimit="10" x1="420.461" y1="186.519" x2="386.104" y2="266.465"/>
	<line fill="none" stroke="#000000" stroke-miterlimit="10" x1="454.816" y1="266.465" x2="420.461" y2="186.519"/>
	<line fill="none" stroke="#000000" stroke-miterlimit="10" x1="454.815" y1="312.181" x2="491.408" y2="250.288"/>
	<line fill="none" stroke="#000000" stroke-miterlimit="10" x1="451.047" y1="288.619" x2="483.408" y2="251.539"/>
	<line fill="none" stroke="#000000" stroke-miterlimit="10" x1="386.104" y1="312.181" x2="337.043" y2="230.039"/>
	<line fill="none" stroke="#000000" stroke-miterlimit="10" x1="389.225" y1="289.87" x2="337.043" y2="230.039"/>
	<line fill="none" stroke="#000000" stroke-miterlimit="10" x1="491.408" y1="250.288" x2="483.408" y2="251.539"/>
	<line fill="none" stroke="#000000" stroke-miterlimit="10" x1="487.408" y1="257.44" x2="504.072" y2="276.372"/>
	<line fill="none" stroke="#000000" stroke-miterlimit="10" x1="491.738" y1="250.288" x2="504.072" y2="276.372"/>
	<g>
		<line fill="none" stroke="#000000" stroke-miterlimit="10" x1="386.165" y1="266.839" x2="389.796" y2="289.376"/>
		<line fill="none" stroke="#000000" stroke-miterlimit="10" x1="386.165" y1="266.839" x2="386.104" y2="266.465"/>
		<line fill="none" stroke="#000000" stroke-miterlimit="10" x1="454.816" y1="266.465" x2="454.752" y2="266.845"/>
		<line fill="none" stroke="#000000" stroke-miterlimit="10" x1="454.752" y1="266.845" x2="450.918" y2="289.376"/>
		<line fill="none" stroke="#000000" stroke-miterlimit="10" x1="391.331" y1="289.081" x2="420.611" y2="266.465"/>
		<line fill="none" stroke="#000000" stroke-miterlimit="10" x1="386.104" y1="266.76" x2="386.165" y2="266.839"/>
		<line fill="none" stroke="#000000" stroke-miterlimit="10" x1="420.591" y1="311.821" x2="420.461" y2="311.992"/>
		<line fill="none" stroke="#000000" stroke-miterlimit="10" x1="454.752" y1="266.845" x2="454.816" y2="266.76"/>
		<line fill="none" stroke="#000000" stroke-miterlimit="10" x1="449.081" y1="289.081" x2="420.741" y2="266.636"/>
		<line fill="none" stroke="#000000" stroke-miterlimit="10" x1="389.796" y1="289.376" x2="403.282" y2="289.376"/>
		<line fill="none" stroke="#000000" stroke-miterlimit="10" x1="420.557" y1="289.376" x2="437.639" y2="289.376"/>
		<line fill="none" stroke="#000000" stroke-miterlimit="10" x1="420.557" y1="289.376" x2="403.282" y2="289.376"/>
		<path fill="none" stroke="#000000" stroke-miterlimit="10" d="M387.796,288.619"/>
		<line fill="none" stroke="#000000" stroke-miterlimit="10" x1="437.639" y1="289.376" x2="450.918" y2="289.376"/>
		<path fill="none" stroke="#000000" stroke-miterlimit="10" d="M450.918,289.376"/>
	</g>
	<line fill="none" stroke="#000000" stroke-miterlimit="10" x1="420.46" y1="392.127" x2="386.104" y2="312.181"/>
	<line fill="none" stroke="#000000" stroke-miterlimit="10" x1="454.815" y1="312.181" x2="420.46" y2="392.127"/>
	<line fill="none" stroke="#000000" stroke-miterlimit="10" x1="386.164" y1="311.807" x2="389.795" y2="289.27"/>
	<line fill="none" stroke="#000000" stroke-miterlimit="10" x1="386.164" y1="311.807" x2="386.104" y2="312.181"/>
	<line fill="none" stroke="#000000" stroke-miterlimit="10" x1="454.815" y1="312.181" x2="454.751" y2="311.801"/>
	<line fill="none" stroke="#000000" stroke-miterlimit="10" x1="454.751" y1="311.801" x2="450.917" y2="289.27"/>
	<path fill="none" stroke="#000000" stroke-miterlimit="10" d="M386.164,311.807"/>
	<path fill="none" stroke="#000000" stroke-miterlimit="10" d="M403.281,289.27"/>
	<line fill="none" stroke="#000000" stroke-miterlimit="10" x1="386.104" y1="311.886" x2="386.164" y2="311.807"/>
	<line fill="none" stroke="#000000" stroke-miterlimit="10" x1="454.751" y1="311.801" x2="454.815" y2="311.886"/>
</g>
<g id="Layer_41">
</g>
<g id="Layer_43">
</g>
</svg>
