<?xml version="1.0" encoding="utf-8"?>
<!-- Generator: Adobe Illustrator 16.0.0, SVG Export Plug-In . SVG Version: 6.00 Build 0)  -->
<!DOCTYPE svg PUBLIC "-//W3C//DTD SVG 1.1//EN" "http://www.w3.org/Graphics/SVG/1.1/DTD/svg11.dtd">
<svg version="1.1" xmlns="http://www.w3.org/2000/svg" xmlns:xlink="http://www.w3.org/1999/xlink" x="0px" y="0px"
	 width="841.89px" height="595.28px" viewBox="0 0 841.89 595.28" enable-background="new 0 0 841.89 595.28" xml:space="preserve">
<g id="Layer_1">
</g>
<g id="Layer_2">
</g>
<g id="Layer_3">
</g>
<g id="Layer_4">
</g>
<g id="Layer_5">
</g>
<g id="Layer_6">
</g>
<g id="Layer_7">
</g>
<g id="Layer_8">
</g>
<g id="Layer_9">
</g>
<g id="Layer_10">
</g>
<g id="Layer_11">
</g>
<g id="Layer_12">
</g>
<g id="Layer_13">
</g>
<g id="Layer_14">
</g>
<g id="Layer_15">
</g>
<g id="Layer_16">
</g>
<g id="Layer_17">
</g>
<g id="Layer_18">
</g>
<g id="Layer_19">
</g>
<g id="Layer_20">
</g>
<g id="Layer_21">
</g>
<g id="Layer_22">
</g>
<g id="Layer_24">
</g>
<g id="Layer_25">
</g>
<g id="Layer_26">
</g>
<g id="Layer_27">
</g>
<g id="Layer_28">
</g>
<g id="Layer_29">
</g>
<g id="Layer_30">
</g>
<g id="Layer_31">
</g>
<g id="Layer_32">
</g>
<g id="Layer_33">
</g>
<g id="Layer_34">
	<g>
		<line fill="none" stroke="#000000" stroke-miterlimit="10" x1="420.943" y1="297.325" x2="420.945" y2="217.379"/>
		<path fill="none" stroke="#000000" stroke-miterlimit="10" d="M420.945,296.969"/>
		<line fill="none" stroke="#000000" stroke-miterlimit="10" x1="386.589" y1="297.325" x2="420.945" y2="497.764"/>
		<line fill="none" stroke="#000000" stroke-miterlimit="10" x1="420.945" y1="217.379" x2="386.589" y2="297.325"/>
		<line fill="none" stroke="#000000" stroke-miterlimit="10" x1="455.301" y1="297.325" x2="420.945" y2="217.379"/>
		<line fill="none" stroke="#000000" stroke-miterlimit="10" x1="450.274" y1="326.648" x2="420.945" y2="296.969"/>
		<line fill="none" stroke="#000000" stroke-miterlimit="10" x1="391.677" y1="327.007" x2="420.943" y2="297.325"/>
		<line fill="none" stroke="#000000" stroke-miterlimit="10" x1="455.301" y1="297.325" x2="420.945" y2="497.764"/>
		<g>
			<g>
				<g>
					<g>
						<g>
							<g>
								<rect x="415.846" y="297.325" fill="none" width="10.499" height="9.545"/>
							</g>
							<rect x="420.417" y="304.393" fill-rule="evenodd" clip-rule="evenodd" width="1.05" height="1.772"/>
							<rect x="420.417" y="301.216" fill-rule="evenodd" clip-rule="evenodd" width="1.05" height="1.771"/>
							<rect x="420.417" y="298.049" fill-rule="evenodd" clip-rule="evenodd" width="1.05" height="1.771"/>
						</g>
					</g>
					<g>
						<g>
							<g>
								<rect x="415.846" y="306.87" fill="none" width="10.499" height="9.544"/>
							</g>
							<rect x="420.417" y="313.938" fill-rule="evenodd" clip-rule="evenodd" width="1.05" height="1.771"/>
							<rect x="420.417" y="310.76" fill-rule="evenodd" clip-rule="evenodd" width="1.05" height="1.772"/>
							<rect x="420.417" y="307.593" fill-rule="evenodd" clip-rule="evenodd" width="1.05" height="1.772"/>
						</g>
					</g>
					<g>
						<g>
							<g>
								<rect x="415.846" y="316.414" fill="none" width="10.499" height="9.545"/>
							</g>
							<rect x="420.417" y="323.482" fill-rule="evenodd" clip-rule="evenodd" width="1.05" height="1.771"/>
							<rect x="420.417" y="320.305" fill-rule="evenodd" clip-rule="evenodd" width="1.05" height="1.771"/>
							<rect x="420.417" y="317.138" fill-rule="evenodd" clip-rule="evenodd" width="1.05" height="1.771"/>
						</g>
					</g>
					<g>
						<g>
							<g>
								<rect x="415.846" y="325.959" fill="none" width="10.499" height="9.545"/>
							</g>
							<rect x="420.417" y="333.027" fill-rule="evenodd" clip-rule="evenodd" width="1.05" height="1.771"/>
							<rect x="420.417" y="329.85" fill-rule="evenodd" clip-rule="evenodd" width="1.05" height="1.771"/>
							<rect x="420.417" y="326.683" fill-rule="evenodd" clip-rule="evenodd" width="1.05" height="1.771"/>
						</g>
					</g>
					<g>
						<g>
							<g>
								<rect x="415.846" y="335.504" fill="none" width="10.499" height="9.545"/>
							</g>
							<rect x="420.417" y="342.572" fill-rule="evenodd" clip-rule="evenodd" width="1.05" height="1.771"/>
							<rect x="420.417" y="339.395" fill-rule="evenodd" clip-rule="evenodd" width="1.05" height="1.771"/>
							<rect x="420.417" y="336.228" fill-rule="evenodd" clip-rule="evenodd" width="1.05" height="1.771"/>
						</g>
					</g>
					<g>
						<g>
							<g>
								<rect x="415.846" y="345.049" fill="none" width="10.499" height="9.545"/>
							</g>
							<rect x="420.417" y="352.116" fill-rule="evenodd" clip-rule="evenodd" width="1.05" height="1.772"/>
							<rect x="420.417" y="348.939" fill-rule="evenodd" clip-rule="evenodd" width="1.05" height="1.771"/>
							<rect x="420.417" y="345.771" fill-rule="evenodd" clip-rule="evenodd" width="1.05" height="1.771"/>
						</g>
					</g>
					<g>
						<g>
							<g>
								<rect x="415.846" y="354.594" fill="none" width="10.499" height="9.544"/>
							</g>
							<rect x="420.417" y="361.661" fill-rule="evenodd" clip-rule="evenodd" width="1.05" height="1.771"/>
							<rect x="420.417" y="358.483" fill-rule="evenodd" clip-rule="evenodd" width="1.05" height="1.771"/>
							<rect x="420.417" y="355.316" fill-rule="evenodd" clip-rule="evenodd" width="1.05" height="1.771"/>
						</g>
					</g>
					<g>
						<g>
							<g>
								<rect x="415.846" y="364.138" fill="none" width="10.499" height="9.545"/>
							</g>
							<rect x="420.417" y="371.206" fill-rule="evenodd" clip-rule="evenodd" width="1.05" height="1.771"/>
							<rect x="420.417" y="368.028" fill-rule="evenodd" clip-rule="evenodd" width="1.05" height="1.771"/>
							<rect x="420.417" y="364.861" fill-rule="evenodd" clip-rule="evenodd" width="1.05" height="1.771"/>
						</g>
					</g>
					<g>
						<g>
							<g>
								<rect x="415.846" y="373.683" fill="none" width="10.499" height="9.545"/>
							</g>
							<rect x="420.417" y="380.751" fill-rule="evenodd" clip-rule="evenodd" width="1.05" height="1.771"/>
							<rect x="420.417" y="377.573" fill-rule="evenodd" clip-rule="evenodd" width="1.05" height="1.771"/>
							<rect x="420.417" y="374.406" fill-rule="evenodd" clip-rule="evenodd" width="1.05" height="1.771"/>
						</g>
					</g>
					<g>
						<g>
							<g>
								<rect x="415.846" y="383.228" fill="none" width="10.499" height="9.545"/>
							</g>
							<rect x="420.417" y="390.295" fill-rule="evenodd" clip-rule="evenodd" width="1.05" height="1.771"/>
							<rect x="420.417" y="387.117" fill-rule="evenodd" clip-rule="evenodd" width="1.05" height="1.772"/>
							<rect x="420.417" y="383.95" fill-rule="evenodd" clip-rule="evenodd" width="1.05" height="1.772"/>
						</g>
					</g>
					<g>
						<g>
							<g>
								<rect x="415.846" y="392.772" fill="none" width="10.499" height="9.544"/>
							</g>
							<rect x="420.417" y="399.84" fill-rule="evenodd" clip-rule="evenodd" width="1.05" height="1.771"/>
							<rect x="420.417" y="396.662" fill-rule="evenodd" clip-rule="evenodd" width="1.05" height="1.771"/>
							<rect x="420.417" y="393.495" fill-rule="evenodd" clip-rule="evenodd" width="1.05" height="1.771"/>
						</g>
					</g>
					<g>
						<g>
							<g>
								<rect x="415.846" y="402.316" fill="none" width="10.499" height="9.545"/>
							</g>
							<rect x="420.417" y="409.385" fill-rule="evenodd" clip-rule="evenodd" width="1.05" height="1.771"/>
							<rect x="420.417" y="406.207" fill-rule="evenodd" clip-rule="evenodd" width="1.05" height="1.771"/>
							<rect x="420.417" y="403.04" fill-rule="evenodd" clip-rule="evenodd" width="1.05" height="1.771"/>
						</g>
					</g>
					<g>
						<g>
							<g>
								<rect x="415.846" y="411.861" fill="none" width="10.499" height="9.545"/>
							</g>
							<rect x="420.417" y="418.93" fill-rule="evenodd" clip-rule="evenodd" width="1.05" height="1.771"/>
							<rect x="420.417" y="415.752" fill-rule="evenodd" clip-rule="evenodd" width="1.05" height="1.771"/>
							<rect x="420.417" y="412.585" fill-rule="evenodd" clip-rule="evenodd" width="1.05" height="1.771"/>
						</g>
					</g>
					<g>
						<g>
							<g>
								<rect x="415.846" y="421.406" fill="none" width="10.499" height="9.545"/>
							</g>
							<rect x="420.417" y="428.474" fill-rule="evenodd" clip-rule="evenodd" width="1.05" height="1.772"/>
							<rect x="420.417" y="425.297" fill-rule="evenodd" clip-rule="evenodd" width="1.05" height="1.771"/>
							<rect x="420.417" y="422.129" fill-rule="evenodd" clip-rule="evenodd" width="1.05" height="1.772"/>
						</g>
					</g>
					<g>
						<g>
							<g>
								<rect x="415.846" y="430.951" fill="none" width="10.499" height="9.544"/>
							</g>
							<rect x="420.417" y="438.019" fill-rule="evenodd" clip-rule="evenodd" width="1.05" height="1.771"/>
							<rect x="420.417" y="434.841" fill-rule="evenodd" clip-rule="evenodd" width="1.05" height="1.772"/>
							<rect x="420.417" y="431.674" fill-rule="evenodd" clip-rule="evenodd" width="1.05" height="1.771"/>
						</g>
					</g>
					<g>
						<g>
							<g>
								<rect x="415.846" y="440.495" fill="none" width="10.499" height="9.545"/>
							</g>
							<rect x="420.417" y="447.563" fill-rule="evenodd" clip-rule="evenodd" width="1.05" height="1.771"/>
							<rect x="420.417" y="444.386" fill-rule="evenodd" clip-rule="evenodd" width="1.05" height="1.771"/>
							<rect x="420.417" y="441.219" fill-rule="evenodd" clip-rule="evenodd" width="1.05" height="1.771"/>
						</g>
					</g>
					<g>
						<g>
							<g>
								<rect x="415.846" y="450.04" fill="none" width="10.499" height="9.545"/>
							</g>
							<rect x="420.417" y="457.108" fill-rule="evenodd" clip-rule="evenodd" width="1.05" height="1.771"/>
							<rect x="420.417" y="453.931" fill-rule="evenodd" clip-rule="evenodd" width="1.05" height="1.771"/>
							<rect x="420.417" y="450.764" fill-rule="evenodd" clip-rule="evenodd" width="1.05" height="1.771"/>
						</g>
					</g>
					<g>
						<g>
							<g>
								<rect x="415.846" y="459.585" fill="none" width="10.499" height="9.545"/>
							</g>
							<rect x="420.417" y="466.652" fill-rule="evenodd" clip-rule="evenodd" width="1.05" height="1.772"/>
							<rect x="420.417" y="463.476" fill-rule="evenodd" clip-rule="evenodd" width="1.05" height="1.771"/>
							<rect x="420.417" y="460.309" fill-rule="evenodd" clip-rule="evenodd" width="1.05" height="1.771"/>
						</g>
					</g>
					<g>
						<g>
							<g>
								<rect x="415.846" y="469.13" fill="none" width="10.499" height="9.544"/>
							</g>
							<rect x="420.417" y="476.197" fill-rule="evenodd" clip-rule="evenodd" width="1.05" height="1.771"/>
							<rect x="420.417" y="473.02" fill-rule="evenodd" clip-rule="evenodd" width="1.05" height="1.772"/>
							<rect x="420.417" y="469.853" fill-rule="evenodd" clip-rule="evenodd" width="1.05" height="1.771"/>
						</g>
					</g>
					<g>
						<g>
							<g>
								<rect x="415.846" y="478.674" fill="none" width="10.499" height="9.545"/>
							</g>
							<rect x="420.417" y="485.742" fill-rule="evenodd" clip-rule="evenodd" width="1.05" height="1.771"/>
							<rect x="420.417" y="482.564" fill-rule="evenodd" clip-rule="evenodd" width="1.05" height="1.771"/>
							<rect x="420.417" y="479.397" fill-rule="evenodd" clip-rule="evenodd" width="1.05" height="1.771"/>
						</g>
					</g>
					<g>
						<g>
							<g>
								<rect x="415.846" y="488.219" fill="none" width="10.499" height="9.545"/>
							</g>
							<rect x="420.417" y="495.287" fill-rule="evenodd" clip-rule="evenodd" width="1.05" height="1.771"/>
							<rect x="420.417" y="492.109" fill-rule="evenodd" clip-rule="evenodd" width="1.05" height="1.771"/>
							<rect x="420.417" y="488.942" fill-rule="evenodd" clip-rule="evenodd" width="1.05" height="1.771"/>
						</g>
					</g>
				</g>
			</g>
		</g>
	</g>
</g>
<g id="Layer_35">
</g>
<g id="Layer_36">
</g>
<g id="Layer_37">
</g>
<g id="Layer_38">
</g>
<g id="Layer_39">
</g>
<g id="Layer_40">
</g>
<g id="Layer_41">
</g>
<g id="Layer_43">
</g>
</svg>
