<?xml version="1.0" encoding="utf-8"?>
<!-- Generator: Adobe Illustrator 16.0.0, SVG Export Plug-In . SVG Version: 6.00 Build 0)  -->
<!DOCTYPE svg PUBLIC "-//W3C//DTD SVG 1.1//EN" "http://www.w3.org/Graphics/SVG/1.1/DTD/svg11.dtd">
<svg version="1.1" xmlns="http://www.w3.org/2000/svg" xmlns:xlink="http://www.w3.org/1999/xlink" x="0px" y="0px"
	 width="841.89px" height="595.28px" viewBox="0 0 841.89 595.28" enable-background="new 0 0 841.89 595.28" xml:space="preserve">
<g id="Layer_1">
</g>
<g id="Layer_2">
</g>
<g id="Layer_3">
</g>
<g id="Layer_4">
</g>
<g id="Layer_5">
</g>
<g id="Layer_6">
</g>
<g id="Layer_7">
</g>
<g id="Layer_8">
</g>
<g id="Layer_9">
</g>
<g id="Layer_10">
</g>
<g id="Layer_11">
</g>
<g id="Layer_12">
</g>
<g id="Layer_13">
</g>
<g id="Layer_14">
</g>
<g id="Layer_15">
</g>
<g id="Layer_16">
</g>
<g id="Layer_17">
</g>
<g id="Layer_18">
</g>
<g id="Layer_19">
</g>
<g id="Layer_20">
</g>
<g id="Layer_21">
</g>
<g id="Layer_22">
</g>
<g id="Layer_24">
	<g>
		<g>
			<polyline display="none" fill="none" stroke="#000000" stroke-miterlimit="10" points="431.999,319.082 423.246,452.218 
				521.373,356.471 421.097,456.691 320.876,356.471 419.164,452.217 320.517,353.464 421.206,451.092 			"/>
			<polyline id="pion_7_" fill="none" stroke="#000000" stroke-miterlimit="10" points="483.209,319.082 420.841,256.338 
				320.517,356.831 			"/>
			
				<line display="none" fill="none" stroke="#000000" stroke-miterlimit="10" x1="321.032" y1="353.467" x2="420.737" y2="256.255"/>
			<g id="gora_1_" display="none">
				<polygon display="inline" fill="#FFFFFF" stroke="#000000" stroke-width="0.7" stroke-miterlimit="10" points="490.114,319.082 
					421.095,451.467 320.876,354.675 420.737,256.255 				"/>
				<g display="inline">
					<g>
						<g>
							<g>
								<g>
									<g>
										
											<rect x="416.436" y="441.102" transform="matrix(0.0017 1 -1 0.0017 866.7137 24.5269)" fill="none" width="9.273" height="10.499"/>
									</g>
									<rect x="420.696" y="442.399" fill-rule="evenodd" clip-rule="evenodd" width="1.05" height="1.721"/>
									<rect x="420.702" y="445.486" fill-rule="evenodd" clip-rule="evenodd" width="1.05" height="1.721"/>
									<rect x="420.707" y="448.563" fill-rule="evenodd" clip-rule="evenodd" width="1.05" height="1.721"/>
								</g>
							</g>
							<g>
								<g>
									<g>
										
											<rect x="416.42" y="431.828" transform="matrix(0.0018 1 -1 0.0018 857.3798 15.2392)" fill="none" width="9.273" height="10.499"/>
									</g>
									<rect x="420.679" y="433.126" fill-rule="evenodd" clip-rule="evenodd" width="1.05" height="1.722"/>
									<rect x="420.685" y="436.213" fill-rule="evenodd" clip-rule="evenodd" width="1.05" height="1.722"/>
									<rect x="420.69" y="439.29" fill-rule="evenodd" clip-rule="evenodd" width="1.05" height="1.722"/>
								</g>
							</g>
							<g>
								<g>
									<g>
										
											<rect x="416.404" y="422.555" transform="matrix(0.0018 1 -1 0.0018 848.0902 5.9994)" fill="none" width="9.272" height="10.499"/>
									</g>
									<rect x="420.664" y="423.854" fill-rule="evenodd" clip-rule="evenodd" width="1.05" height="1.721"/>
									<rect x="420.669" y="426.94" fill-rule="evenodd" clip-rule="evenodd" width="1.05" height="1.721"/>
									<rect x="420.674" y="430.018" fill-rule="evenodd" clip-rule="evenodd" width="1.05" height="1.721"/>
								</g>
							</g>
							<g>
								<g>
									<g>
										
											<rect x="416.387" y="413.282" transform="matrix(0.0018 1 -1 0.0018 838.801 -3.2405)" fill="none" width="9.273" height="10.499"/>
									</g>
									<rect x="420.647" y="414.58" fill-rule="evenodd" clip-rule="evenodd" width="1.05" height="1.722"/>
									<rect x="420.652" y="417.667" fill-rule="evenodd" clip-rule="evenodd" width="1.05" height="1.722"/>
									<rect x="420.657" y="420.744" fill-rule="evenodd" clip-rule="evenodd" width="1.05" height="1.722"/>
								</g>
							</g>
							<g>
								<g>
									<g>
										
											<rect x="416.371" y="404.009" transform="matrix(0.0017 1 -1 0.0017 829.5558 -12.4373)" fill="none" width="9.272" height="10.5"/>
									</g>
									<rect x="420.631" y="405.308" fill-rule="evenodd" clip-rule="evenodd" width="1.05" height="1.721"/>
									<rect x="420.636" y="408.395" fill-rule="evenodd" clip-rule="evenodd" width="1.05" height="1.721"/>
									<rect x="420.642" y="411.472" fill-rule="evenodd" clip-rule="evenodd" width="1.05" height="1.721"/>
								</g>
							</g>
							<g>
								<g>
									<g>
										
											<rect x="416.354" y="394.736" transform="matrix(0.0018 1 -1 0.0018 820.2228 -21.7208)" fill="none" width="9.273" height="10.499"/>
									</g>
									<rect x="420.614" y="396.034" fill-rule="evenodd" clip-rule="evenodd" width="1.05" height="1.722"/>
									<rect x="420.619" y="399.121" fill-rule="evenodd" clip-rule="evenodd" width="1.05" height="1.722"/>
									<rect x="420.625" y="402.198" fill-rule="evenodd" clip-rule="evenodd" width="1.05" height="1.722"/>
								</g>
							</g>
							<g>
								<g>
									<g>
										
											<rect x="416.338" y="385.463" transform="matrix(0.0018 1 -1 0.0018 810.9332 -30.9606)" fill="none" width="9.272" height="10.499"/>
									</g>
									<rect x="420.598" y="386.762" fill-rule="evenodd" clip-rule="evenodd" width="1.05" height="1.721"/>
									<rect x="420.604" y="389.849" fill-rule="evenodd" clip-rule="evenodd" width="1.05" height="1.721"/>
									<rect x="420.609" y="392.926" fill-rule="evenodd" clip-rule="evenodd" width="1.05" height="1.721"/>
								</g>
							</g>
							<g>
								<g>
									<g>
										
											<rect x="416.322" y="376.191" transform="matrix(0.0018 1 -1 0.0018 801.6439 -40.2005)" fill="none" width="9.273" height="10.499"/>
									</g>
									<rect x="420.582" y="377.488" fill-rule="evenodd" clip-rule="evenodd" width="1.05" height="1.722"/>
									<rect x="420.587" y="380.575" fill-rule="evenodd" clip-rule="evenodd" width="1.05" height="1.722"/>
									<rect x="420.592" y="383.652" fill-rule="evenodd" clip-rule="evenodd" width="1.05" height="1.722"/>
								</g>
							</g>
							<g>
								<g>
									<g>
										
											<rect x="416.305" y="366.917" transform="matrix(0.0017 1 -1 0.0017 792.3988 -49.4012)" fill="none" width="9.272" height="10.5"/>
									</g>
									<rect x="420.565" y="368.216" fill-rule="evenodd" clip-rule="evenodd" width="1.05" height="1.721"/>
									<rect x="420.571" y="371.303" fill-rule="evenodd" clip-rule="evenodd" width="1.05" height="1.721"/>
									<rect x="420.576" y="374.38" fill-rule="evenodd" clip-rule="evenodd" width="1.05" height="1.721"/>
								</g>
							</g>
							<g>
								<g>
									<g>
										
											<rect x="416.289" y="357.645" transform="matrix(0.0018 1 -1 0.0018 783.0657 -58.6807)" fill="none" width="9.273" height="10.499"/>
									</g>
									<rect x="420.549" y="358.942" fill-rule="evenodd" clip-rule="evenodd" width="1.05" height="1.722"/>
									<rect x="420.554" y="362.029" fill-rule="evenodd" clip-rule="evenodd" width="1.05" height="1.722"/>
									<rect x="420.559" y="365.106" fill-rule="evenodd" clip-rule="evenodd" width="1.05" height="1.722"/>
								</g>
							</g>
							<g>
								<g>
									<g>
										
											<rect x="416.273" y="348.372" transform="matrix(0.0018 1 -1 0.0018 773.7761 -67.9205)" fill="none" width="9.272" height="10.499"/>
									</g>
									<rect x="420.532" y="349.67" fill-rule="evenodd" clip-rule="evenodd" width="1.05" height="1.721"/>
									<rect x="420.538" y="352.757" fill-rule="evenodd" clip-rule="evenodd" width="1.05" height="1.721"/>
									<rect x="420.543" y="355.834" fill-rule="evenodd" clip-rule="evenodd" width="1.05" height="1.721"/>
								</g>
							</g>
							<g>
								<g>
									<g>
										
											<rect x="416.256" y="339.099" transform="matrix(0.0018 1 -1 0.0018 764.4869 -77.1605)" fill="none" width="9.273" height="10.499"/>
									</g>
									<rect x="420.516" y="340.396" fill-rule="evenodd" clip-rule="evenodd" width="1.05" height="1.722"/>
									<rect x="420.521" y="343.483" fill-rule="evenodd" clip-rule="evenodd" width="1.05" height="1.722"/>
									<rect x="420.527" y="346.56" fill-rule="evenodd" clip-rule="evenodd" width="1.05" height="1.722"/>
								</g>
							</g>
							<g>
								<g>
									<g>
										
											<rect x="416.24" y="329.825" transform="matrix(0.0017 1 -1 0.0017 755.2417 -86.3651)" fill="none" width="9.272" height="10.5"/>
									</g>
									<rect x="420.499" y="331.124" fill-rule="evenodd" clip-rule="evenodd" width="1.05" height="1.721"/>
									<rect x="420.505" y="334.211" fill-rule="evenodd" clip-rule="evenodd" width="1.05" height="1.721"/>
									<rect x="420.511" y="337.288" fill-rule="evenodd" clip-rule="evenodd" width="1.05" height="1.721"/>
								</g>
							</g>
							<g>
								<g>
									<g>
										
											<rect x="416.224" y="320.553" transform="matrix(0.0018 1 -1 0.0018 745.9086 -95.6407)" fill="none" width="9.273" height="10.499"/>
									</g>
									<rect x="420.483" y="321.851" fill-rule="evenodd" clip-rule="evenodd" width="1.05" height="1.721"/>
									<rect x="420.489" y="324.938" fill-rule="evenodd" clip-rule="evenodd" width="1.05" height="1.722"/>
									<rect x="420.494" y="328.015" fill-rule="evenodd" clip-rule="evenodd" width="1.05" height="1.721"/>
								</g>
							</g>
							<g>
								<g>
									<g>
										
											<rect x="416.208" y="311.28" transform="matrix(0.0018 1 -1 0.0018 736.6191 -104.8805)" fill="none" width="9.272" height="10.499"/>
									</g>
									<rect x="420.467" y="312.577" fill-rule="evenodd" clip-rule="evenodd" width="1.05" height="1.722"/>
									<rect x="420.472" y="315.665" fill-rule="evenodd" clip-rule="evenodd" width="1.05" height="1.721"/>
									<rect x="420.478" y="318.741" fill-rule="evenodd" clip-rule="evenodd" width="1.05" height="1.722"/>
								</g>
							</g>
							<g>
								<g>
									<g>
										
											<rect x="416.191" y="302.007" transform="matrix(0.0018 1 -1 0.0018 727.3298 -114.1204)" fill="none" width="9.273" height="10.499"/>
									</g>
									<rect x="420.451" y="303.305" fill-rule="evenodd" clip-rule="evenodd" width="1.05" height="1.721"/>
									<rect x="420.456" y="306.392" fill-rule="evenodd" clip-rule="evenodd" width="1.05" height="1.722"/>
									<rect x="420.461" y="309.469" fill-rule="evenodd" clip-rule="evenodd" width="1.05" height="1.721"/>
								</g>
							</g>
							<g>
								<g>
									<g>
										
											<rect x="416.174" y="292.733" transform="matrix(0.0017 1 -1 0.0017 718.0845 -123.3291)" fill="none" width="9.273" height="10.5"/>
									</g>
									<rect x="420.434" y="294.032" fill-rule="evenodd" clip-rule="evenodd" width="1.05" height="1.721"/>
									<rect x="420.439" y="297.119" fill-rule="evenodd" clip-rule="evenodd" width="1.05" height="1.721"/>
									<rect x="420.445" y="300.195" fill-rule="evenodd" clip-rule="evenodd" width="1.05" height="1.722"/>
								</g>
							</g>
							<g>
								<g>
									<g>
										
											<rect x="416.158" y="283.461" transform="matrix(0.0018 1 -1 0.0018 708.7513 -132.601)" fill="none" width="9.273" height="10.499"/>
									</g>
									<rect x="420.418" y="284.759" fill-rule="evenodd" clip-rule="evenodd" width="1.05" height="1.721"/>
									<rect x="420.423" y="287.846" fill-rule="evenodd" clip-rule="evenodd" width="1.05" height="1.721"/>
									<rect x="420.429" y="290.923" fill-rule="evenodd" clip-rule="evenodd" width="1.05" height="1.721"/>
								</g>
							</g>
							<g>
								<g>
									<g>
										
											<rect x="416.142" y="274.188" transform="matrix(0.0018 1 -1 0.0018 699.4618 -141.8407)" fill="none" width="9.273" height="10.499"/>
									</g>
									<rect x="420.401" y="275.486" fill-rule="evenodd" clip-rule="evenodd" width="1.05" height="1.721"/>
									<rect x="420.407" y="278.573" fill-rule="evenodd" clip-rule="evenodd" width="1.05" height="1.721"/>
									<rect x="420.413" y="281.65" fill-rule="evenodd" clip-rule="evenodd" width="1.05" height="1.721"/>
								</g>
							</g>
							<g>
								<g>
									<g>
										
											<rect x="416.125" y="264.915" transform="matrix(0.0018 1 -1 0.0018 690.1725 -151.0807)" fill="none" width="9.273" height="10.499"/>
									</g>
									<rect x="420.385" y="266.213" fill-rule="evenodd" clip-rule="evenodd" width="1.05" height="1.721"/>
									<rect x="420.391" y="269.3" fill-rule="evenodd" clip-rule="evenodd" width="1.05" height="1.721"/>
									<rect x="420.396" y="272.377" fill-rule="evenodd" clip-rule="evenodd" width="1.05" height="1.721"/>
								</g>
							</g>
							<g>
								<g>
									<g>
										
											<rect x="416.109" y="255.642" transform="matrix(0.0018 1 -1 0.0018 680.883 -160.3204)" fill="none" width="9.273" height="10.499"/>
									</g>
									<rect x="420.368" y="256.94" fill-rule="evenodd" clip-rule="evenodd" width="1.05" height="1.721"/>
									<rect x="420.374" y="260.027" fill-rule="evenodd" clip-rule="evenodd" width="1.05" height="1.721"/>
									<rect x="420.379" y="263.104" fill-rule="evenodd" clip-rule="evenodd" width="1.05" height="1.721"/>
								</g>
							</g>
						</g>
					</g>
				</g>
			</g>
		</g>
		<polyline fill="none" stroke="#000000" stroke-miterlimit="10" points="420.737,457.051 320.518,356.831 420.737,256.611 		"/>
		<g>
			<g>
				<path fill="none" stroke="#000000" stroke-width="0.7" stroke-miterlimit="10" d="M322.774,266.59"/>
			</g>
		</g>
		<g>
			<g>
				<path fill="none" stroke="#000000" stroke-width="0.7" stroke-miterlimit="10" d="M323.135,467.024"/>
			</g>
		</g>
		<line fill="none" stroke="#000000" stroke-miterlimit="10" x1="420.455" y1="456.716" x2="420.879" y2="318.747"/>
		<line fill="none" stroke="#000000" stroke-miterlimit="10" x1="483.209" y1="319.082" x2="420.673" y2="319.082"/>
		<path fill="none" stroke="#000000" stroke-miterlimit="10" d="M420.737,256.255"/>
		<line fill="none" stroke="#000000" stroke-miterlimit="10" x1="483.209" y1="319.082" x2="420.737" y2="457.051"/>
		<g>
			<g>
				<g>
					<g>
						<g>
							<g>
								
									<rect x="415.943" y="309.085" transform="matrix(-0.0038 1 -1 -0.0038 736.6241 -105.1561)" fill="none" width="9.494" height="10.499"/>
							</g>
							<rect x="420.331" y="310.29" fill-rule="evenodd" clip-rule="evenodd" width="1.05" height="1.762"/>
							<rect x="420.319" y="313.45" fill-rule="evenodd" clip-rule="evenodd" width="1.05" height="1.763"/>
							<rect x="420.308" y="316.601" fill-rule="evenodd" clip-rule="evenodd" width="1.05" height="1.763"/>
						</g>
					</g>
					<g>
						<g>
							<g>
								
									<rect x="415.979" y="299.591" transform="matrix(-0.0037 1 -1 -0.0037 727.1223 -114.7544)" fill="none" width="9.495" height="10.499"/>
							</g>
							<rect x="420.366" y="300.795" fill-rule="evenodd" clip-rule="evenodd" width="1.05" height="1.763"/>
							<rect x="420.355" y="303.956" fill-rule="evenodd" clip-rule="evenodd" width="1.05" height="1.763"/>
							<rect x="420.343" y="307.106" fill-rule="evenodd" clip-rule="evenodd" width="1.05" height="1.763"/>
						</g>
					</g>
					<g>
						<g>
							<g>
								
									<rect x="416.015" y="290.096" transform="matrix(-0.0038 1 -1 -0.0038 717.7066 -124.2889)" fill="none" width="9.494" height="10.499"/>
							</g>
							<rect x="420.402" y="291.301" fill-rule="evenodd" clip-rule="evenodd" width="1.05" height="1.762"/>
							<rect x="420.391" y="294.461" fill-rule="evenodd" clip-rule="evenodd" width="1.05" height="1.762"/>
							<rect x="420.379" y="297.612" fill-rule="evenodd" clip-rule="evenodd" width="1.05" height="1.762"/>
						</g>
					</g>
					<g>
						<g>
							<g>
								
									<rect x="416.05" y="280.602" transform="matrix(-0.0037 1 -1 -0.0037 708.2049 -133.8847)" fill="none" width="9.494" height="10.499"/>
							</g>
							<rect x="420.438" y="281.806" fill-rule="evenodd" clip-rule="evenodd" width="1.05" height="1.762"/>
							<rect x="420.426" y="284.967" fill-rule="evenodd" clip-rule="evenodd" width="1.05" height="1.763"/>
							<rect x="420.414" y="288.118" fill-rule="evenodd" clip-rule="evenodd" width="1.05" height="1.762"/>
						</g>
					</g>
					<g>
						<g>
							<g>
								
									<rect x="416.085" y="271.108" transform="matrix(-0.0037 1 -1 -0.0037 698.746 -143.4497)" fill="none" width="9.495" height="10.499"/>
							</g>
							<rect x="420.473" y="272.312" fill-rule="evenodd" clip-rule="evenodd" width="1.05" height="1.763"/>
							<rect x="420.461" y="275.473" fill-rule="evenodd" clip-rule="evenodd" width="1.05" height="1.762"/>
							<rect x="420.449" y="278.623" fill-rule="evenodd" clip-rule="evenodd" width="1.05" height="1.762"/>
						</g>
					</g>
					<g>
						<g>
							<g>
								
									<rect x="416.121" y="261.613" transform="matrix(-0.0038 1 -1 -0.0038 689.3304 -152.987)" fill="none" width="9.495" height="10.499"/>
							</g>
							<rect x="420.509" y="262.817" fill-rule="evenodd" clip-rule="evenodd" width="1.05" height="1.762"/>
							<rect x="420.497" y="265.978" fill-rule="evenodd" clip-rule="evenodd" width="1.05" height="1.762"/>
							<rect x="420.485" y="269.128" fill-rule="evenodd" clip-rule="evenodd" width="1.05" height="1.763"/>
						</g>
					</g>
					<g>
						<g>
							<g>
								
									<rect x="416.157" y="252.119" transform="matrix(-0.0037 1 -1 -0.0037 679.8287 -162.5802)" fill="none" width="9.494" height="10.499"/>
							</g>
							<rect x="420.544" y="253.323" fill-rule="evenodd" clip-rule="evenodd" width="1.05" height="1.762"/>
							<rect x="420.533" y="256.483" fill-rule="evenodd" clip-rule="evenodd" width="1.05" height="1.763"/>
							<rect x="420.521" y="259.634" fill-rule="evenodd" clip-rule="evenodd" width="1.05" height="1.762"/>
						</g>
					</g>
					<g>
						<g>
							<g>
								
									<rect x="416.192" y="242.624" transform="matrix(-0.0038 1 -1 -0.0038 670.4131 -172.1196)" fill="none" width="9.495" height="10.499"/>
							</g>
							<rect x="420.58" y="243.828" fill-rule="evenodd" clip-rule="evenodd" width="1.05" height="1.763"/>
							<rect x="420.568" y="246.989" fill-rule="evenodd" clip-rule="evenodd" width="1.05" height="1.762"/>
							<rect x="420.556" y="250.14" fill-rule="evenodd" clip-rule="evenodd" width="1.05" height="1.762"/>
						</g>
					</g>
					<g>
						<g>
							<g>
								
									<rect x="416.228" y="233.13" transform="matrix(-0.0037 1 -1 -0.0037 660.9114 -181.7104)" fill="none" width="9.495" height="10.499"/>
							</g>
							<rect x="420.616" y="234.334" fill-rule="evenodd" clip-rule="evenodd" width="1.05" height="1.762"/>
							<rect x="420.604" y="237.495" fill-rule="evenodd" clip-rule="evenodd" width="1.05" height="1.762"/>
							<rect x="420.592" y="240.645" fill-rule="evenodd" clip-rule="evenodd" width="1.05" height="1.763"/>
						</g>
					</g>
					<g>
						<g>
							<g>
								
									<rect x="416.263" y="223.635" transform="matrix(-0.0037 1 -1 -0.0037 651.4524 -191.2755)" fill="none" width="9.494" height="10.499"/>
							</g>
							<rect x="420.651" y="224.839" fill-rule="evenodd" clip-rule="evenodd" width="1.05" height="1.762"/>
							<rect x="420.639" y="228" fill-rule="evenodd" clip-rule="evenodd" width="1.05" height="1.763"/>
							<rect x="420.627" y="231.151" fill-rule="evenodd" clip-rule="evenodd" width="1.05" height="1.762"/>
						</g>
					</g>
					<g>
						<g>
							<g>
								
									<rect x="416.299" y="214.141" transform="matrix(-0.0038 1 -1 -0.0038 642.0367 -200.8178)" fill="none" width="9.495" height="10.499"/>
							</g>
							<rect x="420.686" y="215.345" fill-rule="evenodd" clip-rule="evenodd" width="1.05" height="1.763"/>
							<rect x="420.675" y="218.506" fill-rule="evenodd" clip-rule="evenodd" width="1.05" height="1.762"/>
							<rect x="420.663" y="221.656" fill-rule="evenodd" clip-rule="evenodd" width="1.05" height="1.762"/>
						</g>
					</g>
					<g>
						<g>
							<g>
								
									<rect x="416.334" y="204.646" transform="matrix(-0.0037 1 -1 -0.0037 632.5352 -210.4059)" fill="none" width="9.495" height="10.499"/>
							</g>
							<rect x="420.722" y="205.851" fill-rule="evenodd" clip-rule="evenodd" width="1.05" height="1.762"/>
							<rect x="420.71" y="209.011" fill-rule="evenodd" clip-rule="evenodd" width="1.05" height="1.762"/>
							<rect x="420.699" y="212.162" fill-rule="evenodd" clip-rule="evenodd" width="1.05" height="1.763"/>
						</g>
					</g>
					<g>
						<g>
							<g>
								
									<rect x="416.37" y="195.152" transform="matrix(-0.0038 1 -1 -0.0038 623.1195 -219.9503)" fill="none" width="9.494" height="10.499"/>
							</g>
							<rect x="420.758" y="196.356" fill-rule="evenodd" clip-rule="evenodd" width="1.05" height="1.762"/>
							<rect x="420.746" y="199.517" fill-rule="evenodd" clip-rule="evenodd" width="1.05" height="1.763"/>
							<rect x="420.734" y="202.667" fill-rule="evenodd" clip-rule="evenodd" width="1.05" height="1.762"/>
						</g>
					</g>
					<g>
						<g>
							<g>
								
									<rect x="416.405" y="185.657" transform="matrix(-0.0037 1 -1 -0.0037 613.6177 -229.5363)" fill="none" width="9.495" height="10.499"/>
							</g>
							<rect x="420.793" y="186.861" fill-rule="evenodd" clip-rule="evenodd" width="1.05" height="1.763"/>
							<rect x="420.781" y="190.022" fill-rule="evenodd" clip-rule="evenodd" width="1.05" height="1.762"/>
							<rect x="420.769" y="193.173" fill-rule="evenodd" clip-rule="evenodd" width="1.05" height="1.762"/>
						</g>
					</g>
					<g>
						<g>
							<g>
								
									<rect x="416.441" y="176.163" transform="matrix(-0.0037 1 -1 -0.0037 604.1589 -239.1013)" fill="none" width="9.495" height="10.499"/>
							</g>
							<rect x="420.829" y="177.367" fill-rule="evenodd" clip-rule="evenodd" width="1.05" height="1.762"/>
							<rect x="420.817" y="180.528" fill-rule="evenodd" clip-rule="evenodd" width="1.05" height="1.762"/>
							<rect x="420.805" y="183.678" fill-rule="evenodd" clip-rule="evenodd" width="1.05" height="1.763"/>
						</g>
					</g>
				</g>
			</g>
		</g>
		<line fill="none" stroke="#000000" stroke-miterlimit="10" x1="386.85" y1="256.611" x2="391.937" y2="286.293"/>
		<line fill="none" stroke="#000000" stroke-miterlimit="10" x1="421.206" y1="176.665" x2="386.85" y2="256.611"/>
		<line fill="none" stroke="#000000" stroke-miterlimit="10" x1="455.563" y1="256.611" x2="421.206" y2="176.665"/>
		<line fill="none" stroke="#000000" stroke-miterlimit="10" x1="455.563" y1="256.611" x2="450.537" y2="285.936"/>
	</g>
</g>
<g id="Layer_25">
</g>
<g id="Layer_26">
</g>
<g id="Layer_27">
</g>
<g id="Layer_28">
</g>
<g id="Layer_29">
</g>
<g id="Layer_30">
</g>
<g id="Layer_31">
</g>
<g id="Layer_32">
</g>
<g id="Layer_33">
</g>
<g id="Layer_34">
</g>
<g id="Layer_35">
</g>
<g id="Layer_36">
</g>
<g id="Layer_37">
</g>
<g id="Layer_38">
</g>
<g id="Layer_39">
</g>
<g id="Layer_40">
</g>
<g id="Layer_41">
</g>
<g id="Layer_43">
</g>
</svg>
