<?xml version="1.0" encoding="utf-8"?>
<!-- Generator: Adobe Illustrator 16.0.0, SVG Export Plug-In . SVG Version: 6.00 Build 0)  -->
<!DOCTYPE svg PUBLIC "-//W3C//DTD SVG 1.1//EN" "http://www.w3.org/Graphics/SVG/1.1/DTD/svg11.dtd">
<svg version="1.1" xmlns="http://www.w3.org/2000/svg" xmlns:xlink="http://www.w3.org/1999/xlink" x="0px" y="0px"
	 width="841.89px" height="595.28px" viewBox="0 0 841.89 595.28" enable-background="new 0 0 841.89 595.28" xml:space="preserve">
<g id="Layer_1">
</g>
<g id="Layer_2">
</g>
<g id="Layer_3">
	<polygon fill="none" stroke="#000000" stroke-miterlimit="10" points="562.677,438.99 420.944,438.99 279.213,438.99 
		279.213,297.257 279.213,155.524 420.944,155.524 562.677,155.524 562.677,297.257 	"/>
	<g id="pion_1_">
		<g>
			<g>
				<g>
					<g>
						<g>
							<rect x="415.696" y="155.015" fill="none" width="10.499" height="9.483"/>
						</g>
						<rect x="420.267" y="162.037" fill-rule="evenodd" clip-rule="evenodd" width="1.05" height="1.76"/>
						<rect x="420.267" y="158.88" fill-rule="evenodd" clip-rule="evenodd" width="1.05" height="1.76"/>
						<rect x="420.267" y="155.733" fill-rule="evenodd" clip-rule="evenodd" width="1.05" height="1.76"/>
					</g>
				</g>
				<g>
					<g>
						<g>
							<rect x="415.696" y="164.498" fill="none" width="10.499" height="9.483"/>
						</g>
						<rect x="420.267" y="171.52" fill-rule="evenodd" clip-rule="evenodd" width="1.05" height="1.76"/>
						<rect x="420.267" y="168.362" fill-rule="evenodd" clip-rule="evenodd" width="1.05" height="1.761"/>
						<rect x="420.267" y="165.216" fill-rule="evenodd" clip-rule="evenodd" width="1.05" height="1.76"/>
					</g>
				</g>
				<g>
					<g>
						<g>
							<rect x="415.696" y="173.98" fill="none" width="10.499" height="9.482"/>
						</g>
						<rect x="420.267" y="181.002" fill-rule="evenodd" clip-rule="evenodd" width="1.05" height="1.76"/>
						<rect x="420.267" y="177.846" fill-rule="evenodd" clip-rule="evenodd" width="1.05" height="1.76"/>
						<rect x="420.267" y="174.699" fill-rule="evenodd" clip-rule="evenodd" width="1.05" height="1.76"/>
					</g>
				</g>
				<g>
					<g>
						<g>
							<rect x="415.696" y="183.463" fill="none" width="10.499" height="9.483"/>
						</g>
						<rect x="420.267" y="190.485" fill-rule="evenodd" clip-rule="evenodd" width="1.05" height="1.76"/>
						<rect x="420.267" y="187.328" fill-rule="evenodd" clip-rule="evenodd" width="1.05" height="1.76"/>
						<rect x="420.267" y="184.182" fill-rule="evenodd" clip-rule="evenodd" width="1.05" height="1.761"/>
					</g>
				</g>
				<g>
					<g>
						<g>
							<rect x="415.696" y="192.946" fill="none" width="10.499" height="9.482"/>
						</g>
						<rect x="420.267" y="199.968" fill-rule="evenodd" clip-rule="evenodd" width="1.05" height="1.761"/>
						<rect x="420.267" y="196.811" fill-rule="evenodd" clip-rule="evenodd" width="1.05" height="1.76"/>
						<rect x="420.267" y="193.665" fill-rule="evenodd" clip-rule="evenodd" width="1.05" height="1.76"/>
					</g>
				</g>
				<g>
					<g>
						<g>
							<rect x="415.696" y="202.429" fill="none" width="10.499" height="9.483"/>
						</g>
						<rect x="420.267" y="209.451" fill-rule="evenodd" clip-rule="evenodd" width="1.05" height="1.76"/>
						<rect x="420.267" y="206.294" fill-rule="evenodd" clip-rule="evenodd" width="1.05" height="1.76"/>
						<rect x="420.267" y="203.147" fill-rule="evenodd" clip-rule="evenodd" width="1.05" height="1.76"/>
					</g>
				</g>
				<g>
					<g>
						<g>
							<rect x="415.696" y="211.912" fill="none" width="10.499" height="9.483"/>
						</g>
						<rect x="420.267" y="218.934" fill-rule="evenodd" clip-rule="evenodd" width="1.05" height="1.761"/>
						<rect x="420.267" y="215.777" fill-rule="evenodd" clip-rule="evenodd" width="1.05" height="1.76"/>
						<rect x="420.267" y="212.63" fill-rule="evenodd" clip-rule="evenodd" width="1.05" height="1.761"/>
					</g>
				</g>
				<g>
					<g>
						<g>
							<rect x="415.696" y="221.395" fill="none" width="10.499" height="9.483"/>
						</g>
						<rect x="420.267" y="228.417" fill-rule="evenodd" clip-rule="evenodd" width="1.05" height="1.76"/>
						<rect x="420.267" y="225.26" fill-rule="evenodd" clip-rule="evenodd" width="1.05" height="1.76"/>
						<rect x="420.267" y="222.113" fill-rule="evenodd" clip-rule="evenodd" width="1.05" height="1.76"/>
					</g>
				</g>
				<g>
					<g>
						<g>
							<rect x="415.696" y="230.878" fill="none" width="10.499" height="9.482"/>
						</g>
						<rect x="420.267" y="237.899" fill-rule="evenodd" clip-rule="evenodd" width="1.05" height="1.76"/>
						<rect x="420.267" y="234.742" fill-rule="evenodd" clip-rule="evenodd" width="1.05" height="1.761"/>
						<rect x="420.267" y="231.596" fill-rule="evenodd" clip-rule="evenodd" width="1.05" height="1.76"/>
					</g>
				</g>
				<g>
					<g>
						<g>
							<rect x="415.696" y="240.36" fill="none" width="10.499" height="9.482"/>
						</g>
						<rect x="420.267" y="247.382" fill-rule="evenodd" clip-rule="evenodd" width="1.05" height="1.76"/>
						<rect x="420.267" y="244.226" fill-rule="evenodd" clip-rule="evenodd" width="1.05" height="1.76"/>
						<rect x="420.267" y="241.079" fill-rule="evenodd" clip-rule="evenodd" width="1.05" height="1.76"/>
					</g>
				</g>
				<g>
					<g>
						<g>
							<rect x="415.696" y="249.843" fill="none" width="10.499" height="9.483"/>
						</g>
						<rect x="420.267" y="256.865" fill-rule="evenodd" clip-rule="evenodd" width="1.05" height="1.76"/>
						<rect x="420.267" y="253.708" fill-rule="evenodd" clip-rule="evenodd" width="1.05" height="1.761"/>
						<rect x="420.267" y="250.562" fill-rule="evenodd" clip-rule="evenodd" width="1.05" height="1.76"/>
					</g>
				</g>
				<g>
					<g>
						<g>
							<rect x="415.696" y="259.326" fill="none" width="10.499" height="9.482"/>
						</g>
						<rect x="420.267" y="266.348" fill-rule="evenodd" clip-rule="evenodd" width="1.05" height="1.761"/>
						<rect x="420.267" y="263.191" fill-rule="evenodd" clip-rule="evenodd" width="1.05" height="1.76"/>
						<rect x="420.267" y="260.044" fill-rule="evenodd" clip-rule="evenodd" width="1.05" height="1.76"/>
					</g>
				</g>
				<g>
					<g>
						<g>
							<rect x="415.696" y="268.809" fill="none" width="10.499" height="9.483"/>
						</g>
						<rect x="420.267" y="275.831" fill-rule="evenodd" clip-rule="evenodd" width="1.05" height="1.76"/>
						<rect x="420.267" y="272.674" fill-rule="evenodd" clip-rule="evenodd" width="1.05" height="1.76"/>
						<rect x="420.267" y="269.527" fill-rule="evenodd" clip-rule="evenodd" width="1.05" height="1.76"/>
					</g>
				</g>
				<g>
					<g>
						<g>
							<rect x="415.696" y="278.292" fill="none" width="10.499" height="9.482"/>
						</g>
						<rect x="420.267" y="285.313" fill-rule="evenodd" clip-rule="evenodd" width="1.05" height="1.761"/>
						<rect x="420.267" y="282.157" fill-rule="evenodd" clip-rule="evenodd" width="1.05" height="1.76"/>
						<rect x="420.267" y="279.011" fill-rule="evenodd" clip-rule="evenodd" width="1.05" height="1.76"/>
					</g>
				</g>
				<g>
					<g>
						<g>
							<rect x="415.696" y="287.774" fill="none" width="10.499" height="9.483"/>
						</g>
						<rect x="420.267" y="294.797" fill-rule="evenodd" clip-rule="evenodd" width="1.05" height="1.76"/>
						<rect x="420.267" y="291.64" fill-rule="evenodd" clip-rule="evenodd" width="1.05" height="1.76"/>
						<rect x="420.267" y="288.493" fill-rule="evenodd" clip-rule="evenodd" width="1.05" height="1.76"/>
					</g>
				</g>
				<g>
					<g>
						<g>
							<rect x="415.696" y="297.257" fill="none" width="10.499" height="9.483"/>
						</g>
						<rect x="420.267" y="304.279" fill-rule="evenodd" clip-rule="evenodd" width="1.05" height="1.76"/>
						<rect x="420.267" y="301.123" fill-rule="evenodd" clip-rule="evenodd" width="1.05" height="1.76"/>
						<rect x="420.267" y="297.976" fill-rule="evenodd" clip-rule="evenodd" width="1.05" height="1.761"/>
					</g>
				</g>
				<g>
					<g>
						<g>
							<rect x="415.696" y="306.74" fill="none" width="10.499" height="9.482"/>
						</g>
						<rect x="420.267" y="313.762" fill-rule="evenodd" clip-rule="evenodd" width="1.05" height="1.76"/>
						<rect x="420.267" y="310.605" fill-rule="evenodd" clip-rule="evenodd" width="1.05" height="1.76"/>
						<rect x="420.267" y="307.459" fill-rule="evenodd" clip-rule="evenodd" width="1.05" height="1.76"/>
					</g>
				</g>
				<g>
					<g>
						<g>
							<rect x="415.696" y="316.223" fill="none" width="10.499" height="9.483"/>
						</g>
						<rect x="420.267" y="323.245" fill-rule="evenodd" clip-rule="evenodd" width="1.05" height="1.76"/>
						<rect x="420.267" y="320.088" fill-rule="evenodd" clip-rule="evenodd" width="1.05" height="1.761"/>
						<rect x="420.267" y="316.941" fill-rule="evenodd" clip-rule="evenodd" width="1.05" height="1.76"/>
					</g>
				</g>
				<g>
					<g>
						<g>
							<rect x="415.696" y="325.706" fill="none" width="10.499" height="9.482"/>
						</g>
						<rect x="420.267" y="332.728" fill-rule="evenodd" clip-rule="evenodd" width="1.05" height="1.76"/>
						<rect x="420.267" y="329.571" fill-rule="evenodd" clip-rule="evenodd" width="1.05" height="1.76"/>
						<rect x="420.267" y="326.425" fill-rule="evenodd" clip-rule="evenodd" width="1.05" height="1.76"/>
					</g>
				</g>
				<g>
					<g>
						<g>
							<rect x="415.696" y="335.188" fill="none" width="10.499" height="9.483"/>
						</g>
						<rect x="420.267" y="342.211" fill-rule="evenodd" clip-rule="evenodd" width="1.05" height="1.76"/>
						<rect x="420.267" y="339.054" fill-rule="evenodd" clip-rule="evenodd" width="1.05" height="1.76"/>
						<rect x="420.267" y="335.907" fill-rule="evenodd" clip-rule="evenodd" width="1.05" height="1.761"/>
					</g>
				</g>
				<g>
					<g>
						<g>
							<rect x="415.696" y="344.672" fill="none" width="10.499" height="9.482"/>
						</g>
						<rect x="420.267" y="351.693" fill-rule="evenodd" clip-rule="evenodd" width="1.05" height="1.761"/>
						<rect x="420.267" y="348.537" fill-rule="evenodd" clip-rule="evenodd" width="1.05" height="1.76"/>
						<rect x="420.267" y="345.39" fill-rule="evenodd" clip-rule="evenodd" width="1.05" height="1.76"/>
					</g>
				</g>
				<g>
					<g>
						<g>
							<rect x="415.696" y="354.154" fill="none" width="10.499" height="9.483"/>
						</g>
						<rect x="420.267" y="361.177" fill-rule="evenodd" clip-rule="evenodd" width="1.05" height="1.76"/>
						<rect x="420.267" y="358.02" fill-rule="evenodd" clip-rule="evenodd" width="1.05" height="1.76"/>
						<rect x="420.267" y="354.873" fill-rule="evenodd" clip-rule="evenodd" width="1.05" height="1.76"/>
					</g>
				</g>
				<g>
					<g>
						<g>
							<rect x="415.696" y="363.637" fill="none" width="10.499" height="9.483"/>
						</g>
						<rect x="420.267" y="370.659" fill-rule="evenodd" clip-rule="evenodd" width="1.05" height="1.76"/>
						<rect x="420.267" y="367.502" fill-rule="evenodd" clip-rule="evenodd" width="1.05" height="1.76"/>
						<rect x="420.267" y="364.355" fill-rule="evenodd" clip-rule="evenodd" width="1.05" height="1.761"/>
					</g>
				</g>
				<g>
					<g>
						<g>
							<rect x="415.696" y="373.12" fill="none" width="10.499" height="9.483"/>
						</g>
						<rect x="420.267" y="380.142" fill-rule="evenodd" clip-rule="evenodd" width="1.05" height="1.76"/>
						<rect x="420.267" y="376.985" fill-rule="evenodd" clip-rule="evenodd" width="1.05" height="1.76"/>
						<rect x="420.267" y="373.839" fill-rule="evenodd" clip-rule="evenodd" width="1.05" height="1.76"/>
					</g>
				</g>
				<g>
					<g>
						<g>
							<rect x="415.696" y="382.603" fill="none" width="10.499" height="9.483"/>
						</g>
						<rect x="420.267" y="389.625" fill-rule="evenodd" clip-rule="evenodd" width="1.05" height="1.76"/>
						<rect x="420.267" y="386.468" fill-rule="evenodd" clip-rule="evenodd" width="1.05" height="1.761"/>
						<rect x="420.267" y="383.321" fill-rule="evenodd" clip-rule="evenodd" width="1.05" height="1.76"/>
					</g>
				</g>
				<g>
					<g>
						<g>
							<rect x="415.696" y="392.086" fill="none" width="10.499" height="9.482"/>
						</g>
						<rect x="420.267" y="399.108" fill-rule="evenodd" clip-rule="evenodd" width="1.05" height="1.76"/>
						<rect x="420.267" y="395.951" fill-rule="evenodd" clip-rule="evenodd" width="1.05" height="1.76"/>
						<rect x="420.267" y="392.804" fill-rule="evenodd" clip-rule="evenodd" width="1.05" height="1.76"/>
					</g>
				</g>
				<g>
					<g>
						<g>
							<rect x="415.696" y="401.568" fill="none" width="10.499" height="9.483"/>
						</g>
						<rect x="420.267" y="408.591" fill-rule="evenodd" clip-rule="evenodd" width="1.05" height="1.76"/>
						<rect x="420.267" y="405.434" fill-rule="evenodd" clip-rule="evenodd" width="1.05" height="1.761"/>
						<rect x="420.267" y="402.287" fill-rule="evenodd" clip-rule="evenodd" width="1.05" height="1.76"/>
					</g>
				</g>
				<g>
					<g>
						<g>
							<rect x="415.696" y="411.052" fill="none" width="10.499" height="9.482"/>
						</g>
						<rect x="420.267" y="418.073" fill-rule="evenodd" clip-rule="evenodd" width="1.05" height="1.761"/>
						<rect x="420.267" y="414.917" fill-rule="evenodd" clip-rule="evenodd" width="1.05" height="1.76"/>
						<rect x="420.267" y="411.77" fill-rule="evenodd" clip-rule="evenodd" width="1.05" height="1.76"/>
					</g>
				</g>
				<g>
					<g>
						<g>
							<rect x="415.696" y="420.534" fill="none" width="10.499" height="9.483"/>
						</g>
						<rect x="420.267" y="427.557" fill-rule="evenodd" clip-rule="evenodd" width="1.05" height="1.76"/>
						<rect x="420.267" y="424.399" fill-rule="evenodd" clip-rule="evenodd" width="1.05" height="1.76"/>
						<rect x="420.267" y="421.253" fill-rule="evenodd" clip-rule="evenodd" width="1.05" height="1.76"/>
					</g>
				</g>
				<g>
					<g>
						<g>
							<rect x="415.696" y="430.017" fill="none" width="10.499" height="9.483"/>
						</g>
						<rect x="420.267" y="437.039" fill-rule="evenodd" clip-rule="evenodd" width="1.05" height="1.76"/>
						<rect x="420.267" y="433.882" fill-rule="evenodd" clip-rule="evenodd" width="1.05" height="1.76"/>
						<rect x="420.267" y="430.735" fill-rule="evenodd" clip-rule="evenodd" width="1.05" height="1.761"/>
					</g>
				</g>
			</g>
		</g>
	</g>
</g>
<g id="Layer_4">
</g>
<g id="Layer_5">
</g>
<g id="Layer_6">
</g>
<g id="Layer_7">
</g>
<g id="Layer_8">
</g>
<g id="Layer_9">
</g>
<g id="Layer_10">
</g>
<g id="Layer_11">
</g>
<g id="Layer_12">
</g>
<g id="Layer_13">
</g>
<g id="Layer_14">
</g>
<g id="Layer_15">
</g>
<g id="Layer_16">
</g>
<g id="Layer_17">
</g>
<g id="Layer_18">
</g>
<g id="Layer_19">
</g>
<g id="Layer_20">
</g>
<g id="Layer_21">
</g>
<g id="Layer_22">
</g>
<g id="Layer_24">
</g>
<g id="Layer_25">
</g>
<g id="Layer_26">
</g>
<g id="Layer_27">
</g>
<g id="Layer_28">
</g>
<g id="Layer_29">
</g>
<g id="Layer_30">
</g>
<g id="Layer_31">
</g>
<g id="Layer_32">
</g>
<g id="Layer_33">
</g>
<g id="Layer_34">
</g>
<g id="Layer_35">
</g>
<g id="Layer_36">
</g>
<g id="Layer_37">
</g>
<g id="Layer_38">
</g>
<g id="Layer_39">
</g>
<g id="Layer_40">
</g>
<g id="Layer_41">
</g>
<g id="Layer_43">
</g>
</svg>
