<?xml version="1.0" encoding="utf-8"?>
<!-- Generator: Adobe Illustrator 16.0.0, SVG Export Plug-In . SVG Version: 6.00 Build 0)  -->
<!DOCTYPE svg PUBLIC "-//W3C//DTD SVG 1.1//EN" "http://www.w3.org/Graphics/SVG/1.1/DTD/svg11.dtd">
<svg version="1.1" xmlns="http://www.w3.org/2000/svg" xmlns:xlink="http://www.w3.org/1999/xlink" x="0px" y="0px"
	 width="841.89px" height="595.28px" viewBox="0 0 841.89 595.28" enable-background="new 0 0 841.89 595.28" xml:space="preserve">
<g id="Layer_1">
</g>
<g id="Layer_2">
</g>
<g id="Layer_3">
</g>
<g id="Layer_4">
</g>
<g id="Layer_5">
</g>
<g id="Layer_6">
</g>
<g id="Layer_7">
</g>
<g id="Layer_8">
</g>
<g id="Layer_9">
</g>
<g id="Layer_10">
</g>
<g id="Layer_11">
</g>
<g id="Layer_12">
	<g>
		<polyline display="none" fill="none" stroke="#000000" stroke-miterlimit="10" points="431.998,360.472 423.246,493.607 
			521.372,397.86 421.097,498.081 320.876,397.86 419.164,493.606 320.517,394.854 421.206,492.481 		"/>
		<polyline id="pion_30_" fill="none" stroke="#000000" stroke-miterlimit="10" points="521.745,398.104 420.841,297.728 
			320.517,398.221 		"/>
		<line display="none" fill="none" stroke="#000000" stroke-miterlimit="10" x1="321.032" y1="394.856" x2="420.737" y2="297.645"/>
		<g id="gora" display="none">
			<polygon display="inline" fill="#FFFFFF" stroke="#000000" stroke-width="0.7" stroke-miterlimit="10" points="490.113,360.472 
				421.095,492.856 320.876,396.064 420.737,297.645 			"/>
			<g display="inline">
				<g>
					<g>
						<g>
							<g>
								<g>
									
										<rect x="416.437" y="482.491" transform="matrix(0.0018 1 -1 0.0018 908.0588 65.7949)" fill="none" width="9.273" height="10.499"/>
								</g>
								<rect x="420.696" y="483.789" fill-rule="evenodd" clip-rule="evenodd" width="1.05" height="1.721"/>
								<rect x="420.702" y="486.876" fill-rule="evenodd" clip-rule="evenodd" width="1.05" height="1.721"/>
								<rect x="420.707" y="489.953" fill-rule="evenodd" clip-rule="evenodd" width="1.05" height="1.721"/>
							</g>
						</g>
						<g>
							<g>
								<g>
									
										<rect x="416.42" y="473.218" transform="matrix(0.0017 1 -1 0.0017 898.7916 56.5804)" fill="none" width="9.273" height="10.499"/>
								</g>
								<rect x="420.679" y="474.516" fill-rule="evenodd" clip-rule="evenodd" width="1.05" height="1.721"/>
								<rect x="420.685" y="477.603" fill-rule="evenodd" clip-rule="evenodd" width="1.05" height="1.721"/>
								<rect x="420.69" y="480.679" fill-rule="evenodd" clip-rule="evenodd" width="1.05" height="1.722"/>
							</g>
						</g>
						<g>
							<g>
								<g>
									
										<rect x="416.404" y="463.945" transform="matrix(0.0018 1 -1 0.0018 889.48 47.3152)" fill="none" width="9.273" height="10.499"/>
								</g>
								<rect x="420.664" y="465.243" fill-rule="evenodd" clip-rule="evenodd" width="1.05" height="1.721"/>
								<rect x="420.669" y="468.33" fill-rule="evenodd" clip-rule="evenodd" width="1.05" height="1.721"/>
								<rect x="420.674" y="471.407" fill-rule="evenodd" clip-rule="evenodd" width="1.05" height="1.721"/>
							</g>
						</g>
						<g>
							<g>
								<g>
									
										<rect x="416.387" y="454.672" transform="matrix(0.0017 1 -1 0.0017 880.213 38.0994)" fill="none" width="9.273" height="10.499"/>
								</g>
								<rect x="420.647" y="455.969" fill-rule="evenodd" clip-rule="evenodd" width="1.05" height="1.722"/>
								<rect x="420.652" y="459.057" fill-rule="evenodd" clip-rule="evenodd" width="1.05" height="1.721"/>
								<rect x="420.657" y="462.134" fill-rule="evenodd" clip-rule="evenodd" width="1.05" height="1.722"/>
							</g>
						</g>
						<g>
							<g>
								<g>
									
										<rect x="416.371" y="445.399" transform="matrix(0.0018 1 -1 0.0018 870.9015 28.8352)" fill="none" width="9.273" height="10.499"/>
								</g>
								<rect x="420.631" y="446.697" fill-rule="evenodd" clip-rule="evenodd" width="1.05" height="1.721"/>
								<rect x="420.636" y="449.784" fill-rule="evenodd" clip-rule="evenodd" width="1.05" height="1.721"/>
								<rect x="420.642" y="452.861" fill-rule="evenodd" clip-rule="evenodd" width="1.05" height="1.721"/>
							</g>
						</g>
						<g>
							<g>
								<g>
									
										<rect x="416.354" y="436.126" transform="matrix(0.0017 1 -1 0.0017 861.6345 19.6184)" fill="none" width="9.273" height="10.499"/>
								</g>
								<rect x="420.614" y="437.424" fill-rule="evenodd" clip-rule="evenodd" width="1.05" height="1.721"/>
								<rect x="420.619" y="440.511" fill-rule="evenodd" clip-rule="evenodd" width="1.05" height="1.721"/>
								<rect x="420.625" y="443.588" fill-rule="evenodd" clip-rule="evenodd" width="1.05" height="1.721"/>
							</g>
						</g>
						<g>
							<g>
								<g>
									
										<rect x="416.338" y="426.853" transform="matrix(0.0018 1 -1 0.0018 852.323 10.3552)" fill="none" width="9.273" height="10.499"/>
								</g>
								<rect x="420.598" y="428.151" fill-rule="evenodd" clip-rule="evenodd" width="1.05" height="1.721"/>
								<rect x="420.604" y="431.238" fill-rule="evenodd" clip-rule="evenodd" width="1.05" height="1.721"/>
								<rect x="420.609" y="434.315" fill-rule="evenodd" clip-rule="evenodd" width="1.05" height="1.721"/>
							</g>
						</g>
						<g>
							<g>
								<g>
									
										<rect x="416.322" y="417.58" transform="matrix(0.0017 1 -1 0.0017 843.056 1.1375)" fill="none" width="9.273" height="10.499"/>
								</g>
								<rect x="420.582" y="418.878" fill-rule="evenodd" clip-rule="evenodd" width="1.05" height="1.721"/>
								<rect x="420.587" y="421.965" fill-rule="evenodd" clip-rule="evenodd" width="1.05" height="1.721"/>
								<rect x="420.592" y="425.042" fill-rule="evenodd" clip-rule="evenodd" width="1.05" height="1.721"/>
							</g>
						</g>
						<g>
							<g>
								<g>
									
										<rect x="416.305" y="408.307" transform="matrix(0.0018 1 -1 0.0018 833.7445 -8.1248)" fill="none" width="9.273" height="10.499"/>
								</g>
								<rect x="420.565" y="409.605" fill-rule="evenodd" clip-rule="evenodd" width="1.05" height="1.721"/>
								<rect x="420.571" y="412.692" fill-rule="evenodd" clip-rule="evenodd" width="1.05" height="1.721"/>
								<rect x="420.576" y="415.769" fill-rule="evenodd" clip-rule="evenodd" width="1.05" height="1.721"/>
							</g>
						</g>
						<g>
							<g>
								<g>
									
										<rect x="416.289" y="399.034" transform="matrix(0.0017 1 -1 0.0017 824.4772 -17.3437)" fill="none" width="9.273" height="10.499"/>
								</g>
								<rect x="420.549" y="400.332" fill-rule="evenodd" clip-rule="evenodd" width="1.05" height="1.721"/>
								<rect x="420.554" y="403.419" fill-rule="evenodd" clip-rule="evenodd" width="1.05" height="1.722"/>
								<rect x="420.559" y="406.496" fill-rule="evenodd" clip-rule="evenodd" width="1.05" height="1.721"/>
							</g>
						</g>
						<g>
							<g>
								<g>
									
										<rect x="416.273" y="389.761" transform="matrix(0.0018 1 -1 0.0018 815.1657 -26.605)" fill="none" width="9.272" height="10.499"/>
								</g>
								<rect x="420.532" y="391.059" fill-rule="evenodd" clip-rule="evenodd" width="1.05" height="1.721"/>
								<rect x="420.538" y="394.146" fill-rule="evenodd" clip-rule="evenodd" width="1.05" height="1.721"/>
								<rect x="420.543" y="397.223" fill-rule="evenodd" clip-rule="evenodd" width="1.05" height="1.721"/>
							</g>
						</g>
						<g>
							<g>
								<g>
									
										<rect x="416.256" y="380.488" transform="matrix(0.0017 1 -1 0.0017 805.8987 -35.8246)" fill="none" width="9.273" height="10.499"/>
								</g>
								<rect x="420.516" y="381.786" fill-rule="evenodd" clip-rule="evenodd" width="1.05" height="1.721"/>
								<rect x="420.521" y="384.873" fill-rule="evenodd" clip-rule="evenodd" width="1.05" height="1.721"/>
								<rect x="420.527" y="387.95" fill-rule="evenodd" clip-rule="evenodd" width="1.05" height="1.721"/>
							</g>
						</g>
						<g>
							<g>
								<g>
									
										<rect x="416.24" y="371.215" transform="matrix(0.0018 1 -1 0.0018 796.5869 -45.0852)" fill="none" width="9.273" height="10.499"/>
								</g>
								<rect x="420.499" y="372.513" fill-rule="evenodd" clip-rule="evenodd" width="1.05" height="1.721"/>
								<rect x="420.505" y="375.6" fill-rule="evenodd" clip-rule="evenodd" width="1.05" height="1.721"/>
								<rect x="420.511" y="378.677" fill-rule="evenodd" clip-rule="evenodd" width="1.05" height="1.721"/>
							</g>
						</g>
						<g>
							<g>
								<g>
									
										<rect x="416.224" y="361.942" transform="matrix(0.0017 1 -1 0.0017 787.3199 -54.3059)" fill="none" width="9.273" height="10.499"/>
								</g>
								<rect x="420.483" y="363.24" fill-rule="evenodd" clip-rule="evenodd" width="1.05" height="1.721"/>
								<rect x="420.489" y="366.327" fill-rule="evenodd" clip-rule="evenodd" width="1.05" height="1.721"/>
								<rect x="420.494" y="369.404" fill-rule="evenodd" clip-rule="evenodd" width="1.05" height="1.721"/>
							</g>
						</g>
						<g>
							<g>
								<g>
									
										<rect x="416.207" y="352.669" transform="matrix(0.0018 1 -1 0.0018 778.0084 -63.5652)" fill="none" width="9.273" height="10.499"/>
								</g>
								<rect x="420.467" y="353.967" fill-rule="evenodd" clip-rule="evenodd" width="1.05" height="1.721"/>
								<rect x="420.472" y="357.054" fill-rule="evenodd" clip-rule="evenodd" width="1.05" height="1.721"/>
								<rect x="420.478" y="360.131" fill-rule="evenodd" clip-rule="evenodd" width="1.05" height="1.721"/>
							</g>
						</g>
						<g>
							<g>
								<g>
									
										<rect x="416.191" y="343.396" transform="matrix(0.0017 1 -1 0.0017 768.7413 -72.7868)" fill="none" width="9.273" height="10.499"/>
								</g>
								<rect x="420.451" y="344.694" fill-rule="evenodd" clip-rule="evenodd" width="1.05" height="1.721"/>
								<rect x="420.456" y="347.781" fill-rule="evenodd" clip-rule="evenodd" width="1.05" height="1.721"/>
								<rect x="420.461" y="350.858" fill-rule="evenodd" clip-rule="evenodd" width="1.05" height="1.721"/>
							</g>
						</g>
						<g>
							<g>
								<g>
									
										<rect x="416.175" y="334.123" transform="matrix(0.0018 1 -1 0.0018 759.4299 -82.0452)" fill="none" width="9.273" height="10.499"/>
								</g>
								<rect x="420.434" y="335.421" fill-rule="evenodd" clip-rule="evenodd" width="1.05" height="1.721"/>
								<rect x="420.439" y="338.508" fill-rule="evenodd" clip-rule="evenodd" width="1.05" height="1.721"/>
								<rect x="420.445" y="341.585" fill-rule="evenodd" clip-rule="evenodd" width="1.05" height="1.721"/>
							</g>
						</g>
						<g>
							<g>
								<g>
									
										<rect x="416.158" y="324.85" transform="matrix(0.0017 1 -1 0.0017 750.1628 -91.2678)" fill="none" width="9.273" height="10.499"/>
								</g>
								<rect x="420.418" y="326.148" fill-rule="evenodd" clip-rule="evenodd" width="1.05" height="1.721"/>
								<rect x="420.423" y="329.235" fill-rule="evenodd" clip-rule="evenodd" width="1.05" height="1.721"/>
								<rect x="420.429" y="332.313" fill-rule="evenodd" clip-rule="evenodd" width="1.05" height="1.721"/>
							</g>
						</g>
						<g>
							<g>
								<g>
									
										<rect x="416.142" y="315.577" transform="matrix(0.0018 1 -1 0.0018 740.8513 -100.5251)" fill="none" width="9.273" height="10.499"/>
								</g>
								<rect x="420.401" y="316.875" fill-rule="evenodd" clip-rule="evenodd" width="1.05" height="1.721"/>
								<rect x="420.407" y="319.962" fill-rule="evenodd" clip-rule="evenodd" width="1.05" height="1.721"/>
								<rect x="420.413" y="323.04" fill-rule="evenodd" clip-rule="evenodd" width="1.05" height="1.721"/>
							</g>
						</g>
						<g>
							<g>
								<g>
									
										<rect x="416.125" y="306.305" transform="matrix(0.0018 1 -1 0.0018 731.5621 -109.7651)" fill="none" width="9.273" height="10.499"/>
								</g>
								<rect x="420.385" y="307.602" fill-rule="evenodd" clip-rule="evenodd" width="1.05" height="1.721"/>
								<rect x="420.391" y="310.689" fill-rule="evenodd" clip-rule="evenodd" width="1.05" height="1.721"/>
								<rect x="420.396" y="313.766" fill-rule="evenodd" clip-rule="evenodd" width="1.05" height="1.721"/>
							</g>
						</g>
						<g>
							<g>
								<g>
									
										<rect x="416.109" y="297.031" transform="matrix(0.0017 1 -1 0.0017 722.2948 -118.989)" fill="none" width="9.273" height="10.499"/>
								</g>
								<rect x="420.368" y="298.33" fill-rule="evenodd" clip-rule="evenodd" width="1.05" height="1.721"/>
								<rect x="420.374" y="301.417" fill-rule="evenodd" clip-rule="evenodd" width="1.05" height="1.721"/>
								<rect x="420.379" y="304.494" fill-rule="evenodd" clip-rule="evenodd" width="1.05" height="1.721"/>
							</g>
						</g>
					</g>
				</g>
			</g>
		</g>
	</g>
	<path fill="none" stroke="#000000" stroke-miterlimit="10" d="M420.737,298.001"/>
	<polyline fill="none" stroke="#000000" stroke-miterlimit="10" points="520.957,398.221 420.737,498.44 320.518,398.221 	"/>
	<g>
		<g>
			<g>
				<g>
					<g>
						<g>
							
								<rect x="416.644" y="350.734" transform="matrix(0.0068 1 -1 0.0068 774.2437 -67.559)" fill="none" width="8.975" height="10.499"/>
						</g>
						
							<rect x="420.74" y="352.158" transform="matrix(-1 0.007 -0.007 -1 844.9816 703.0367)" fill-rule="evenodd" clip-rule="evenodd" width="1.05" height="1.666"/>
						
							<rect x="420.76" y="355.147" transform="matrix(-1 0.007 -0.007 -1 845.0441 709.0112)" fill-rule="evenodd" clip-rule="evenodd" width="1.05" height="1.666"/>
						
							<rect x="420.781" y="358.124" transform="matrix(-1 0.0065 -0.0065 -1 844.9393 715.1641)" fill-rule="evenodd" clip-rule="evenodd" width="1.05" height="1.666"/>
					</g>
				</g>
				<g>
					<g>
						<g>
							
								<rect x="416.583" y="341.759" transform="matrix(0.0067 1 -1 0.0067 765.2316 -76.3935)" fill="none" width="8.976" height="10.499"/>
						</g>
						
							<rect x="420.679" y="343.183" transform="matrix(-1 0.0065 -0.0065 -1 844.6388 685.2836)" fill-rule="evenodd" clip-rule="evenodd" width="1.05" height="1.666"/>
						
							<rect x="420.699" y="346.171" transform="matrix(-1 0.007 -0.007 -1 844.8588 691.0625)" fill-rule="evenodd" clip-rule="evenodd" width="1.05" height="1.666"/>
						
							<rect x="420.72" y="349.15" transform="matrix(-1 0.007 -0.007 -1 844.9211 697.0175)" fill-rule="evenodd" clip-rule="evenodd" width="1.05" height="1.666"/>
					</g>
				</g>
				<g>
					<g>
						<g>
							
								<rect x="416.523" y="332.784" transform="matrix(0.0067 1 -1 0.0067 756.1957 -85.2478)" fill="none" width="8.975" height="10.499"/>
						</g>
						
							<rect x="420.619" y="334.208" transform="matrix(-1 0.007 -0.007 -1 844.6147 667.1353)" fill-rule="evenodd" clip-rule="evenodd" width="1.05" height="1.666"/>
						
							<rect x="420.639" y="337.196" transform="matrix(-1 0.0065 -0.0065 -1 844.5193 673.3093)" fill-rule="evenodd" clip-rule="evenodd" width="1.05" height="1.666"/>
						
							<rect x="420.659" y="340.174" transform="matrix(-1 0.007 -0.007 -1 844.7374 679.0675)" fill-rule="evenodd" clip-rule="evenodd" width="1.05" height="1.666"/>
					</g>
				</g>
				<g>
					<g>
						<g>
							
								<rect x="416.462" y="323.808" transform="matrix(0.0067 1 -1 0.0067 747.1606 -94.1018)" fill="none" width="8.975" height="10.499"/>
						</g>
						
							<rect x="420.558" y="325.232" transform="matrix(-1 0.0065 -0.0065 -1 844.2808 649.382)" fill-rule="evenodd" clip-rule="evenodd" width="1.05" height="1.666"/>
						
							<rect x="420.578" y="328.22" transform="matrix(-1 0.007 -0.007 -1 844.4919 655.1611)" fill-rule="evenodd" clip-rule="evenodd" width="1.05" height="1.666"/>
						
							<rect x="420.598" y="331.199" transform="matrix(-1 0.0065 -0.0065 -1 844.3987 661.3156)" fill-rule="evenodd" clip-rule="evenodd" width="1.05" height="1.666"/>
					</g>
				</g>
				<g>
					<g>
						<g>
							
								<rect x="416.401" y="314.834" transform="matrix(0.0068 1 -1 0.0068 738.1027 -102.973)" fill="none" width="8.976" height="10.499"/>
						</g>
						
							<rect x="420.497" y="316.258" transform="matrix(-1 0.007 -0.007 -1 844.2458 631.237)" fill-rule="evenodd" clip-rule="evenodd" width="1.05" height="1.666"/>
						
							<rect x="420.518" y="319.245" transform="matrix(-1 0.0065 -0.0065 -1 844.1607 637.4078)" fill-rule="evenodd" clip-rule="evenodd" width="1.05" height="1.666"/>
						
							<rect x="420.538" y="322.223" transform="matrix(-1 0.007 -0.007 -1 844.369 643.1674)" fill-rule="evenodd" clip-rule="evenodd" width="1.05" height="1.666"/>
					</g>
				</g>
				<g>
					<g>
						<g>
							
								<rect x="416.341" y="305.858" transform="matrix(0.0067 1 -1 0.0067 729.0898 -111.8101)" fill="none" width="8.975" height="10.499"/>
						</g>
						
							<rect x="420.437" y="307.282" transform="matrix(-1 0.0065 -0.0065 -1 843.9207 613.4818)" fill-rule="evenodd" clip-rule="evenodd" width="1.05" height="1.666"/>
						
							<rect x="420.457" y="310.27" transform="matrix(-1 0.007 -0.007 -1 844.123 619.2628)" fill-rule="evenodd" clip-rule="evenodd" width="1.05" height="1.666"/>
						
							<rect x="420.477" y="313.248" transform="matrix(-1 0.0065 -0.0065 -1 844.0406 625.4141)" fill-rule="evenodd" clip-rule="evenodd" width="1.05" height="1.666"/>
					</g>
				</g>
				<g>
					<g>
						<g>
							
								<rect x="416.28" y="296.883" transform="matrix(0.0067 1 -1 0.0067 720.0547 -120.6637)" fill="none" width="8.976" height="10.499"/>
						</g>
						
							<rect x="420.376" y="298.307" transform="matrix(-1 0.007 -0.007 -1 843.879 595.3356)" fill-rule="evenodd" clip-rule="evenodd" width="1.05" height="1.666"/>
						
							<rect x="420.396" y="301.294" transform="matrix(-1 0.0065 -0.0065 -1 843.8007 601.5076)" fill-rule="evenodd" clip-rule="evenodd" width="1.05" height="1.666"/>
						
							<rect x="420.416" y="304.273" transform="matrix(-1 0.007 -0.007 -1 844.0002 607.2687)" fill-rule="evenodd" clip-rule="evenodd" width="1.05" height="1.666"/>
					</g>
				</g>
			</g>
		</g>
	</g>
	<line fill="none" stroke="#000000" stroke-miterlimit="10" x1="420.737" y1="498.44" x2="421.162" y2="360.472"/>
	<line fill="none" stroke="#000000" stroke-miterlimit="10" x1="483.208" y1="360.472" x2="420.673" y2="360.472"/>
	<path fill="none" stroke="#000000" stroke-miterlimit="10" d="M420.737,297.645"/>
	<line fill="none" stroke="#000000" stroke-miterlimit="10" x1="483.208" y1="360.472" x2="420.737" y2="498.44"/>
</g>
<g id="Layer_13">
</g>
<g id="Layer_14">
</g>
<g id="Layer_15">
</g>
<g id="Layer_16">
</g>
<g id="Layer_17">
</g>
<g id="Layer_18">
</g>
<g id="Layer_19">
</g>
<g id="Layer_20">
</g>
<g id="Layer_21">
</g>
<g id="Layer_22">
</g>
<g id="Layer_24">
</g>
<g id="Layer_25">
</g>
<g id="Layer_26">
</g>
<g id="Layer_27">
</g>
<g id="Layer_28">
</g>
<g id="Layer_29">
</g>
<g id="Layer_30">
</g>
<g id="Layer_31">
</g>
<g id="Layer_32">
</g>
<g id="Layer_33">
</g>
<g id="Layer_34">
</g>
<g id="Layer_35">
</g>
<g id="Layer_36">
</g>
<g id="Layer_37">
</g>
<g id="Layer_38">
</g>
<g id="Layer_39">
</g>
<g id="Layer_40">
</g>
<g id="Layer_41">
</g>
<g id="Layer_43">
</g>
</svg>
