<?xml version="1.0" encoding="utf-8"?>
<!-- Generator: Adobe Illustrator 16.0.0, SVG Export Plug-In . SVG Version: 6.00 Build 0)  -->
<!DOCTYPE svg PUBLIC "-//W3C//DTD SVG 1.1//EN" "http://www.w3.org/Graphics/SVG/1.1/DTD/svg11.dtd">
<svg version="1.1" xmlns="http://www.w3.org/2000/svg" xmlns:xlink="http://www.w3.org/1999/xlink" x="0px" y="0px"
	 width="841.89px" height="595.28px" viewBox="0 0 841.89 595.28" enable-background="new 0 0 841.89 595.28" xml:space="preserve">
<g id="Layer_1">
</g>
<g id="Layer_2">
</g>
<g id="Layer_3">
</g>
<g id="Layer_4">
</g>
<g id="Layer_5">
</g>
<g id="Layer_6">
	<g>
		<polygon fill="none" stroke="#000000" stroke-miterlimit="10" points="300.532,177.353 290.486,309.039 279.213,439.373 
			279.213,297.64 279.213,155.907 420.944,155.907 562.677,155.907 432.219,167.306 		"/>
		<g>
			<g>
				<path fill="none" stroke="#000000" stroke-width="0.7" stroke-miterlimit="10" d="M420.944,155.915"/>
			</g>
		</g>
		<g>
			<g>
				<path fill="none" stroke="#000000" stroke-width="0.7" stroke-miterlimit="10" d="M290.486,309.047"/>
			</g>
		</g>
		<g>
			<g>
				<g>
					<g>
						<g>
							<g>
								
									<rect x="411.606" y="292.801" transform="matrix(0.9959 -0.091 0.091 0.9959 -25.3958 39.1193)" fill="none" width="9.358" height="10.499"/>
							</g>
							
								<rect x="412.64" y="297.313" transform="matrix(0.0912 0.9958 -0.9958 0.0912 672.4391 -140.4468)" fill-rule="evenodd" clip-rule="evenodd" width="1.05" height="1.737"/>
							
								<rect x="415.743" y="297.03" transform="matrix(0.0912 0.9958 -0.9958 0.0912 674.9763 -143.7938)" fill-rule="evenodd" clip-rule="evenodd" width="1.05" height="1.737"/>
							
								<rect x="418.834" y="296.747" transform="matrix(0.0907 0.9959 -0.9959 0.0907 677.7297 -146.9989)" fill-rule="evenodd" clip-rule="evenodd" width="1.05" height="1.737"/>
						</g>
					</g>
					<g>
						<g>
							<g>
								
									<rect x="402.288" y="293.653" transform="matrix(0.9959 -0.091 0.091 0.9959 -25.5132 38.2769)" fill="none" width="9.357" height="10.499"/>
							</g>
							
								<rect x="403.322" y="298.165" transform="matrix(0.0907 0.9959 -0.9959 0.0907 665.0172 -130.2719)" fill-rule="evenodd" clip-rule="evenodd" width="1.05" height="1.737"/>
							
								<rect x="406.424" y="297.881" transform="matrix(0.0907 0.9959 -0.9959 0.0907 667.5739 -133.6079)" fill-rule="evenodd" clip-rule="evenodd" width="1.05" height="1.737"/>
							
								<rect x="409.516" y="297.599" transform="matrix(0.0911 0.9958 -0.9958 0.0911 669.9026 -137.0649)" fill-rule="evenodd" clip-rule="evenodd" width="1.05" height="1.737"/>
						</g>
					</g>
					<g>
						<g>
							<g>
								
									<rect x="392.97" y="294.505" transform="matrix(0.9959 -0.091 0.091 0.9959 -25.6294 37.4324)" fill="none" width="9.357" height="10.499"/>
							</g>
							
								<rect x="394.003" y="299.017" transform="matrix(0.0911 0.9958 -0.9958 0.0911 657.2155 -120.328)" fill-rule="evenodd" clip-rule="evenodd" width="1.05" height="1.737"/>
							
								<rect x="397.105" y="298.733" transform="matrix(0.0907 0.9959 -0.9959 0.0907 659.9305 -123.5647)" fill-rule="evenodd" clip-rule="evenodd" width="1.05" height="1.737"/>
							
								<rect x="400.198" y="298.451" transform="matrix(0.0912 0.9958 -0.9958 0.0912 662.2633 -127.0225)" fill-rule="evenodd" clip-rule="evenodd" width="1.05" height="1.737"/>
						</g>
					</g>
					<g>
						<g>
							<g>
								
									<rect x="383.651" y="295.356" transform="matrix(0.9958 -0.0911 0.0911 0.9958 -25.7593 36.6094)" fill="none" width="9.357" height="10.499"/>
							</g>
							
								<rect x="384.685" y="299.868" transform="matrix(0.0911 0.9958 -0.9958 0.0911 649.5943 -110.2745)" fill-rule="evenodd" clip-rule="evenodd" width="1.05" height="1.737"/>
							
								<rect x="387.787" y="299.585" transform="matrix(0.0912 0.9958 -0.9958 0.0912 652.1139 -113.6324)" fill-rule="evenodd" clip-rule="evenodd" width="1.05" height="1.737"/>
							
								<rect x="390.879" y="299.302" transform="matrix(0.0912 0.9958 -0.9958 0.0912 654.6427 -116.9688)" fill-rule="evenodd" clip-rule="evenodd" width="1.05" height="1.737"/>
						</g>
					</g>
					<g>
						<g>
							<g>
								
									<rect x="374.333" y="296.208" transform="matrix(0.9959 -0.091 0.091 0.9959 -25.8618 35.7433)" fill="none" width="9.357" height="10.499"/>
							</g>
							
								<rect x="375.367" y="300.72" transform="matrix(0.0912 0.9958 -0.9958 0.0912 641.9561 -100.2322)" fill-rule="evenodd" clip-rule="evenodd" width="1.05" height="1.737"/>
							
								<rect x="378.469" y="300.437" transform="matrix(0.0911 0.9958 -0.9958 0.0911 644.5104 -103.5674)" fill-rule="evenodd" clip-rule="evenodd" width="1.05" height="1.737"/>
							
								<rect x="381.561" y="300.154" transform="matrix(0.0911 0.9958 -0.9958 0.0911 647.0394 -106.9038)" fill-rule="evenodd" clip-rule="evenodd" width="1.05" height="1.737"/>
						</g>
					</g>
					<g>
						<g>
							<g>
								
									<rect x="365.014" y="297.06" transform="matrix(0.9958 -0.0911 0.0911 0.9958 -25.9905 34.9175)" fill="none" width="9.358" height="10.499"/>
							</g>
							
								<rect x="366.048" y="301.572" transform="matrix(0.0912 0.9958 -0.9958 0.0912 634.3354 -90.1785)" fill-rule="evenodd" clip-rule="evenodd" width="1.05" height="1.737"/>
							
								<rect x="369.15" y="301.288" transform="matrix(0.0911 0.9958 -0.9958 0.0911 636.8892 -93.5139)" fill-rule="evenodd" clip-rule="evenodd" width="1.05" height="1.737"/>
							
								<rect x="372.242" y="301.005" transform="matrix(0.0907 0.9959 -0.9959 0.0907 639.5854 -96.7375)" fill-rule="evenodd" clip-rule="evenodd" width="1.05" height="1.737"/>
						</g>
					</g>
					<g>
						<g>
							<g>
								
									<rect x="355.696" y="297.912" transform="matrix(0.9959 -0.091 0.091 0.9959 -26.0941 34.0544)" fill="none" width="9.357" height="10.499"/>
							</g>
							
								<rect x="356.729" y="302.423" transform="matrix(0.0907 0.9959 -0.9959 0.0907 626.9081 -79.988)" fill-rule="evenodd" clip-rule="evenodd" width="1.05" height="1.737"/>
							
								<rect x="359.832" y="302.14" transform="matrix(0.0911 0.9958 -0.9958 0.0911 629.2679 -83.4603)" fill-rule="evenodd" clip-rule="evenodd" width="1.05" height="1.737"/>
							
								<rect x="362.924" y="301.857" transform="matrix(0.0907 0.9959 -0.9959 0.0907 631.9606 -86.683)" fill-rule="evenodd" clip-rule="evenodd" width="1.05" height="1.737"/>
						</g>
					</g>
					<g>
						<g>
							<g>
								
									<rect x="346.378" y="298.763" transform="matrix(0.9959 -0.091 0.091 0.9959 -26.2103 33.2099)" fill="none" width="9.357" height="10.499"/>
							</g>
							
								<rect x="347.411" y="303.275" transform="matrix(0.0907 0.9959 -0.9959 0.0907 619.2668 -69.9451)" fill-rule="evenodd" clip-rule="evenodd" width="1.05" height="1.737"/>
							
								<rect x="350.514" y="302.992" transform="matrix(0.0912 0.9958 -0.9958 0.0912 621.631 -73.418)" fill-rule="evenodd" clip-rule="evenodd" width="1.05" height="1.737"/>
							
								<rect x="353.605" y="302.709" transform="matrix(0.0911 0.9958 -0.9958 0.0911 624.1757 -76.7422)" fill-rule="evenodd" clip-rule="evenodd" width="1.05" height="1.737"/>
						</g>
					</g>
					<g>
						<g>
							<g>
								
									<rect x="337.059" y="299.615" transform="matrix(0.9959 -0.091 0.091 0.9959 -26.3265 32.3653)" fill="none" width="9.357" height="10.499"/>
							</g>
							
								<rect x="338.093" y="304.127" transform="matrix(0.0912 0.9958 -0.9958 0.0912 611.473 -60.0171)" fill-rule="evenodd" clip-rule="evenodd" width="1.05" height="1.737"/>
							
								<rect x="341.195" y="303.844" transform="matrix(0.0911 0.9958 -0.9958 0.0911 614.026 -63.3528)" fill-rule="evenodd" clip-rule="evenodd" width="1.05" height="1.737"/>
							
								<rect x="344.287" y="303.561" transform="matrix(0.0911 0.9958 -0.9958 0.0911 616.5545 -66.6887)" fill-rule="evenodd" clip-rule="evenodd" width="1.05" height="1.737"/>
						</g>
					</g>
					<g>
						<g>
							<g>
								
									<rect x="327.741" y="300.466" transform="matrix(0.9959 -0.091 0.091 0.9959 -26.4426 31.5208)" fill="none" width="9.357" height="10.499"/>
							</g>
							
								<rect x="328.774" y="304.979" transform="matrix(0.0911 0.9958 -0.9958 0.0911 603.8674 -49.9518)" fill-rule="evenodd" clip-rule="evenodd" width="1.05" height="1.737"/>
							
								<rect x="331.877" y="304.695" transform="matrix(0.0912 0.9958 -0.9958 0.0912 606.3896 -53.3108)" fill-rule="evenodd" clip-rule="evenodd" width="1.05" height="1.737"/>
							
								<rect x="334.969" y="304.412" transform="matrix(0.0912 0.9958 -0.9958 0.0912 608.918 -56.6467)" fill-rule="evenodd" clip-rule="evenodd" width="1.05" height="1.737"/>
						</g>
					</g>
					<g>
						<g>
							<g>
								
									<rect x="318.422" y="301.318" transform="matrix(0.9958 -0.0911 0.0911 0.9958 -26.5732 30.6945)" fill="none" width="9.357" height="10.499"/>
							</g>
							
								<rect x="319.456" y="305.83" transform="matrix(0.0911 0.9958 -0.9958 0.0911 596.2462 -39.8982)" fill-rule="evenodd" clip-rule="evenodd" width="1.05" height="1.737"/>
							
								<rect x="322.558" y="305.547" transform="matrix(0.0907 0.9959 -0.9959 0.0907 598.9304 -43.1289)" fill-rule="evenodd" clip-rule="evenodd" width="1.05" height="1.737"/>
							
								<rect x="325.65" y="305.264" transform="matrix(0.0912 0.9958 -0.9958 0.0912 601.2974 -46.593)" fill-rule="evenodd" clip-rule="evenodd" width="1.05" height="1.737"/>
						</g>
					</g>
					<g>
						<g>
							<g>
								
									<rect x="309.104" y="302.17" transform="matrix(0.9959 -0.091 0.091 0.9959 -26.675 29.8318)" fill="none" width="9.357" height="10.499"/>
							</g>
							
								<rect x="310.138" y="306.682" transform="matrix(0.0912 0.9958 -0.9958 0.0912 588.6107 -29.8564)" fill-rule="evenodd" clip-rule="evenodd" width="1.05" height="1.737"/>
							
								<rect x="313.24" y="306.398" transform="matrix(0.0907 0.9959 -0.9959 0.0907 591.3199 -33.0627)" fill-rule="evenodd" clip-rule="evenodd" width="1.05" height="1.737"/>
							
								<rect x="316.332" y="306.116" transform="matrix(0.0911 0.9958 -0.9958 0.0911 593.6913 -36.5275)" fill-rule="evenodd" clip-rule="evenodd" width="1.05" height="1.737"/>
						</g>
					</g>
					<g>
						<g>
							<g>
								
									<rect x="299.785" y="303.022" transform="matrix(0.9958 -0.0911 0.0911 0.9958 -26.8057 29.0045)" fill="none" width="9.357" height="10.499"/>
							</g>
							
								<rect x="300.819" y="307.534" transform="matrix(0.0912 0.9958 -0.9958 0.0912 580.9901 -19.8027)" fill-rule="evenodd" clip-rule="evenodd" width="1.05" height="1.737"/>
							
								<rect x="303.921" y="307.25" transform="matrix(0.0911 0.9958 -0.9958 0.0911 583.5411 -23.1376)" fill-rule="evenodd" clip-rule="evenodd" width="1.05" height="1.737"/>
							
								<rect x="307.014" y="306.968" transform="matrix(0.0912 0.9958 -0.9958 0.0912 586.0559 -26.4858)" fill-rule="evenodd" clip-rule="evenodd" width="1.05" height="1.737"/>
						</g>
					</g>
					<g>
						<g>
							<g>
								
									<rect x="290.467" y="303.874" transform="matrix(0.9959 -0.091 0.091 0.9959 -26.9073 28.1428)" fill="none" width="9.357" height="10.499"/>
							</g>
							
								<rect x="291.501" y="308.386" transform="matrix(0.0911 0.9958 -0.9958 0.0911 573.3831 -9.7371)" fill-rule="evenodd" clip-rule="evenodd" width="1.05" height="1.737"/>
							
								<rect x="294.603" y="308.102" transform="matrix(0.0911 0.9958 -0.9958 0.0911 575.9199 -13.084)" fill-rule="evenodd" clip-rule="evenodd" width="1.05" height="1.737"/>
							
								<rect x="297.695" y="307.819" transform="matrix(0.0912 0.9958 -0.9958 0.0912 578.4351 -16.4319)" fill-rule="evenodd" clip-rule="evenodd" width="1.05" height="1.737"/>
						</g>
					</g>
				</g>
			</g>
		</g>
		<g>
			<g>
				<g>
					<g>
						<g>
							<rect x="415.695" y="155.397" fill="none" width="10.499" height="12.769"/>
						</g>
						<rect x="420.266" y="164.853" fill-rule="evenodd" clip-rule="evenodd" width="1.05" height="2.37"/>
						<rect x="420.266" y="160.602" fill-rule="evenodd" clip-rule="evenodd" width="1.05" height="2.37"/>
						<rect x="420.266" y="156.365" fill-rule="evenodd" clip-rule="evenodd" width="1.05" height="2.37"/>
					</g>
				</g>
			</g>
		</g>
		<g>
			<g>
				<g>
					<g>
						<g>
							<rect x="278.702" y="292.391" fill="none" width="12.653" height="10.499"/>
						</g>
						<rect x="279.637" y="296.962" fill-rule="evenodd" clip-rule="evenodd" width="2.349" height="1.05"/>
						<rect x="283.85" y="296.962" fill-rule="evenodd" clip-rule="evenodd" width="2.349" height="1.05"/>
						<rect x="288.048" y="296.962" fill-rule="evenodd" clip-rule="evenodd" width="2.349" height="1.05"/>
					</g>
				</g>
			</g>
		</g>
		<g>
			<g>
				<g>
					<g>
						<g>
							<g>
								
									<rect x="427.635" y="166.713" transform="matrix(0.0901 -0.9959 0.9959 0.0901 222.1137 587.0278)" fill="none" width="9.348" height="10.499"/>
							</g>
							
								<rect x="431.35" y="174.183" transform="matrix(0.9959 0.0902 -0.0902 0.9959 17.5501 -38.2417)" fill-rule="evenodd" clip-rule="evenodd" width="1.05" height="1.735"/>
							
								<rect x="431.63" y="171.084" transform="matrix(0.996 0.0897 -0.0897 0.996 17.1744 -38.0875)" fill-rule="evenodd" clip-rule="evenodd" width="1.05" height="1.735"/>
							
								<rect x="431.909" y="167.995" transform="matrix(0.9959 0.0902 -0.0902 0.9959 16.9942 -38.3174)" fill-rule="evenodd" clip-rule="evenodd" width="1.05" height="1.735"/>
						</g>
					</g>
					<g>
						<g>
							<g>
								
									<rect x="426.794" y="176.022" transform="matrix(0.0901 -0.9959 0.9959 0.0901 212.0742 594.6599)" fill="none" width="9.347" height="10.499"/>
							</g>
							
								<rect x="430.508" y="183.493" transform="matrix(0.9959 0.0902 -0.0902 0.9959 18.3864 -38.1278)" fill-rule="evenodd" clip-rule="evenodd" width="1.05" height="1.735"/>
							
								<rect x="430.788" y="180.394" transform="matrix(0.996 0.0897 -0.0897 0.996 18.0065 -37.9744)" fill-rule="evenodd" clip-rule="evenodd" width="1.05" height="1.735"/>
							
								<rect x="431.068" y="177.305" transform="matrix(0.9959 0.0902 -0.0902 0.9959 17.8305 -38.2035)" fill-rule="evenodd" clip-rule="evenodd" width="1.05" height="1.735"/>
						</g>
					</g>
					<g>
						<g>
							<g>
								
									<rect x="425.951" y="185.331" transform="matrix(0.0901 -0.9959 0.9959 0.0901 202.0387 602.2935)" fill="none" width="9.348" height="10.499"/>
							</g>
							
								<rect x="429.667" y="192.803" transform="matrix(0.9959 0.0902 -0.0902 0.9959 19.2227 -38.014)" fill-rule="evenodd" clip-rule="evenodd" width="1.05" height="1.735"/>
							
								<rect x="429.947" y="189.703" transform="matrix(0.996 0.0897 -0.0897 0.996 18.8385 -37.8613)" fill-rule="evenodd" clip-rule="evenodd" width="1.05" height="1.735"/>
							
								<rect x="430.226" y="186.614" transform="matrix(0.9959 0.0902 -0.0902 0.9959 18.6668 -38.0897)" fill-rule="evenodd" clip-rule="evenodd" width="1.05" height="1.735"/>
						</g>
					</g>
					<g>
						<g>
							<g>
								
									<rect x="425.11" y="194.641" transform="matrix(0.0901 -0.9959 0.9959 0.0901 192.0012 609.9261)" fill="none" width="9.348" height="10.499"/>
							</g>
							
								<rect x="428.825" y="202.112" transform="matrix(0.996 0.0898 -0.0898 0.996 19.9576 -37.7276)" fill-rule="evenodd" clip-rule="evenodd" width="1.05" height="1.735"/>
							
								<rect x="429.105" y="199.013" transform="matrix(0.9959 0.0902 -0.0902 0.9959 19.7806 -37.938)" fill-rule="evenodd" clip-rule="evenodd" width="1.05" height="1.736"/>
							
								<rect x="429.385" y="195.924" transform="matrix(0.9959 0.0902 -0.0902 0.9959 19.513 -37.993)" fill-rule="evenodd" clip-rule="evenodd" width="1.05" height="1.735"/>
						</g>
					</g>
					<g>
						<g>
							<g>
								
									<rect x="424.268" y="203.95" transform="matrix(0.0901 -0.9959 0.9959 0.0901 181.9635 617.559)" fill="none" width="9.348" height="10.499"/>
							</g>
							
								<rect x="427.983" y="211.422" transform="matrix(0.996 0.0898 -0.0898 0.996 20.7899 -37.6145)" fill-rule="evenodd" clip-rule="evenodd" width="1.05" height="1.735"/>
							
								<rect x="428.263" y="208.322" transform="matrix(0.9959 0.0902 -0.0902 0.9959 20.6273 -37.8412)" fill-rule="evenodd" clip-rule="evenodd" width="1.05" height="1.735"/>
							
								<rect x="428.543" y="205.233" transform="matrix(0.9959 0.0902 -0.0902 0.9959 20.3497 -37.8791)" fill-rule="evenodd" clip-rule="evenodd" width="1.05" height="1.735"/>
						</g>
					</g>
					<g>
						<g>
							<g>
								
									<rect x="423.426" y="213.26" transform="matrix(0.0901 -0.9959 0.9959 0.0901 171.9258 625.1918)" fill="none" width="9.348" height="10.499"/>
							</g>
							
								<rect x="427.141" y="220.731" transform="matrix(0.996 0.0898 -0.0898 0.996 21.6224 -37.5013)" fill-rule="evenodd" clip-rule="evenodd" width="1.05" height="1.735"/>
							
								<rect x="427.422" y="217.632" transform="matrix(0.9959 0.0902 -0.0902 0.9959 21.4639 -37.7273)" fill-rule="evenodd" clip-rule="evenodd" width="1.05" height="1.735"/>
							
								<rect x="427.701" y="214.543" transform="matrix(0.996 0.0898 -0.0898 0.996 21.0691 -37.5765)" fill-rule="evenodd" clip-rule="evenodd" width="1.05" height="1.735"/>
						</g>
					</g>
					<g>
						<g>
							<g>
								
									<rect x="422.584" y="222.569" transform="matrix(0.0901 -0.9959 0.9959 0.0901 161.888 632.8246)" fill="none" width="9.348" height="10.499"/>
							</g>
							
								<rect x="426.3" y="230.04" transform="matrix(0.9959 0.0902 -0.0902 0.9959 22.5792 -37.5754)" fill-rule="evenodd" clip-rule="evenodd" width="1.05" height="1.735"/>
							
								<rect x="426.58" y="226.941" transform="matrix(0.9959 0.0902 -0.0902 0.9959 22.3006 -37.6133)" fill-rule="evenodd" clip-rule="evenodd" width="1.05" height="1.735"/>
							
								<rect x="426.859" y="223.852" transform="matrix(0.996 0.0898 -0.0898 0.996 21.9015 -37.4633)" fill-rule="evenodd" clip-rule="evenodd" width="1.05" height="1.735"/>
						</g>
					</g>
					<g>
						<g>
							<g>
								
									<rect x="421.742" y="231.879" transform="matrix(0.0901 -0.9959 0.9959 0.0901 151.8503 640.4574)" fill="none" width="9.348" height="10.499"/>
							</g>
							
								<rect x="425.458" y="239.35" transform="matrix(0.9959 0.0902 -0.0902 0.9959 23.4042 -37.4446)" fill-rule="evenodd" clip-rule="evenodd" width="1.05" height="1.735"/>
							
								<rect x="425.738" y="236.251" transform="matrix(0.9959 0.0902 -0.0902 0.9959 23.1373 -37.4994)" fill-rule="evenodd" clip-rule="evenodd" width="1.05" height="1.735"/>
							
								<rect x="426.017" y="233.162" transform="matrix(0.996 0.0898 -0.0898 0.996 22.7339 -37.3502)" fill-rule="evenodd" clip-rule="evenodd" width="1.05" height="1.735"/>
						</g>
					</g>
					<g>
						<g>
							<g>
								
									<rect x="420.901" y="241.188" transform="matrix(0.0901 -0.9959 0.9959 0.0901 141.8126 648.0902)" fill="none" width="9.348" height="10.499"/>
							</g>
							
								<rect x="424.616" y="248.66" transform="matrix(0.9959 0.0902 -0.0902 0.9959 24.2405 -37.3307)" fill-rule="evenodd" clip-rule="evenodd" width="1.05" height="1.735"/>
							
								<rect x="424.896" y="245.56" transform="matrix(0.9959 0.0902 -0.0902 0.9959 23.974 -37.3855)" fill-rule="evenodd" clip-rule="evenodd" width="1.05" height="1.735"/>
							
								<rect x="425.176" y="242.471" transform="matrix(0.9959 0.0902 -0.0902 0.9959 23.6845 -37.4064)" fill-rule="evenodd" clip-rule="evenodd" width="1.05" height="1.735"/>
						</g>
					</g>
					<g>
						<g>
							<g>
								
									<rect x="420.059" y="250.498" transform="matrix(0.09 -0.9959 0.9959 0.09 131.7956 655.7383)" fill="none" width="9.348" height="10.499"/>
							</g>
							
								<rect x="423.774" y="257.969" transform="matrix(0.996 0.0897 -0.0897 0.996 24.9397 -37.0319)" fill-rule="evenodd" clip-rule="evenodd" width="1.05" height="1.735"/>
							
								<rect x="424.055" y="254.87" transform="matrix(0.996 0.0897 -0.0897 0.996 24.6627 -37.0696)" fill-rule="evenodd" clip-rule="evenodd" width="1.05" height="1.735"/>
							
								<rect x="424.334" y="251.781" transform="matrix(0.9959 0.0902 -0.0902 0.9959 24.5208 -37.2925)" fill-rule="evenodd" clip-rule="evenodd" width="1.05" height="1.735"/>
						</g>
					</g>
					<g>
						<g>
							<g>
								
									<rect x="419.218" y="259.808" transform="matrix(0.0901 -0.9959 0.9959 0.0901 121.7354 663.3546)" fill="none" width="9.347" height="10.499"/>
							</g>
							
								<rect x="422.932" y="267.278" transform="matrix(0.996 0.0897 -0.0897 0.996 25.7717 -36.9189)" fill-rule="evenodd" clip-rule="evenodd" width="1.05" height="1.735"/>
							
								<rect x="423.213" y="264.179" transform="matrix(0.996 0.0897 -0.0897 0.996 25.4947 -36.9565)" fill-rule="evenodd" clip-rule="evenodd" width="1.05" height="1.735"/>
							
								<rect x="423.492" y="261.09" transform="matrix(0.9959 0.0902 -0.0902 0.9959 25.3571 -37.1786)" fill-rule="evenodd" clip-rule="evenodd" width="1.05" height="1.735"/>
						</g>
					</g>
					<g>
						<g>
							<g>
								
									<rect x="418.376" y="269.117" transform="matrix(0.0901 -0.9959 0.9959 0.0901 111.6998 670.9886)" fill="none" width="9.348" height="10.499"/>
							</g>
							
								<rect x="422.091" y="276.588" transform="matrix(0.9959 0.0902 -0.0902 0.9959 26.7493 -36.9891)" fill-rule="evenodd" clip-rule="evenodd" width="1.05" height="1.736"/>
							
								<rect x="422.371" y="273.489" transform="matrix(0.9959 0.0902 -0.0902 0.9959 26.4709 -37.027)" fill-rule="evenodd" clip-rule="evenodd" width="1.05" height="1.735"/>
							
								<rect x="422.65" y="270.4" transform="matrix(0.996 0.0897 -0.0897 0.996 26.0507 -36.8809)" fill-rule="evenodd" clip-rule="evenodd" width="1.05" height="1.735"/>
						</g>
					</g>
					<g>
						<g>
							<g>
								
									<rect x="417.534" y="278.426" transform="matrix(0.0901 -0.9959 0.9959 0.0901 101.6624 678.6212)" fill="none" width="9.348" height="10.499"/>
							</g>
							
								<rect x="421.249" y="285.897" transform="matrix(0.9959 0.0902 -0.0902 0.9959 27.5856 -36.8752)" fill-rule="evenodd" clip-rule="evenodd" width="1.05" height="1.735"/>
							
								<rect x="421.529" y="282.798" transform="matrix(0.9959 0.0902 -0.0902 0.9959 27.3072 -36.9131)" fill-rule="evenodd" clip-rule="evenodd" width="1.05" height="1.735"/>
							
								<rect x="421.808" y="279.709" transform="matrix(0.996 0.0897 -0.0897 0.996 26.8827 -36.7678)" fill-rule="evenodd" clip-rule="evenodd" width="1.05" height="1.735"/>
						</g>
					</g>
					<g>
						<g>
							<g>
								
									<rect x="416.692" y="287.736" transform="matrix(0.0901 -0.9959 0.9959 0.0901 91.6246 686.254)" fill="none" width="9.348" height="10.499"/>
							</g>
							
								<rect x="420.407" y="295.207" transform="matrix(0.9959 0.0902 -0.0902 0.9959 28.4219 -36.7613)" fill-rule="evenodd" clip-rule="evenodd" width="1.05" height="1.735"/>
							
								<rect x="420.687" y="292.108" transform="matrix(0.9959 0.0902 -0.0902 0.9959 28.1435 -36.7992)" fill-rule="evenodd" clip-rule="evenodd" width="1.05" height="1.735"/>
							
								<rect x="420.967" y="289.018" transform="matrix(0.9959 0.0902 -0.0902 0.9959 27.866 -36.837)" fill-rule="evenodd" clip-rule="evenodd" width="1.05" height="1.736"/>
						</g>
					</g>
				</g>
			</g>
		</g>
	</g>
	<g>
		<g>
			<g>
				<g>
					<g>
						<g>
							
								<rect x="277.848" y="430.827" transform="matrix(-0.7071 0.7071 -0.7071 -0.7071 790.626 544.6658)" fill="none" width="9.323" height="10.499"/>
						</g>
						
							<rect x="284.29" y="433.123" transform="matrix(-0.7071 -0.7071 0.7071 -0.7071 179.3333 942.2593)" fill-rule="evenodd" clip-rule="evenodd" width="1.05" height="1.73"/>
						
							<rect x="282.095" y="435.318" transform="matrix(-0.7071 -0.7071 0.7071 -0.7071 174.0353 944.4535)" fill-rule="evenodd" clip-rule="evenodd" width="1.05" height="1.73"/>
						
							<rect x="279.908" y="437.505" transform="matrix(-0.7071 -0.7071 0.7071 -0.7071 168.7542 946.641)" fill-rule="evenodd" clip-rule="evenodd" width="1.05" height="1.73"/>
					</g>
				</g>
				<g>
					<g>
						<g>
							
								<rect x="284.44" y="424.235" transform="matrix(-0.7071 0.7071 -0.7071 -0.7071 797.2183 528.7506)" fill="none" width="9.323" height="10.499"/>
						</g>
						
							<rect x="290.882" y="426.531" transform="matrix(-0.7073 -0.7069 0.7069 -0.7073 195.4153 935.6981)" fill-rule="evenodd" clip-rule="evenodd" width="1.05" height="1.73"/>
						
							<rect x="288.687" y="428.725" transform="matrix(-0.7069 -0.7073 0.7073 -0.7069 189.7829 937.8284)" fill-rule="evenodd" clip-rule="evenodd" width="1.05" height="1.73"/>
						
							<rect x="286.5" y="430.913" transform="matrix(-0.7069 -0.7073 0.7073 -0.7069 184.5018 940.0148)" fill-rule="evenodd" clip-rule="evenodd" width="1.05" height="1.73"/>
					</g>
				</g>
				<g>
					<g>
						<g>
							
								<rect x="291.032" y="417.643" transform="matrix(-0.7071 0.7071 -0.7071 -0.7071 803.8102 512.8356)" fill="none" width="9.322" height="10.499"/>
						</g>
						
							<rect x="297.474" y="419.939" transform="matrix(-0.7071 -0.7071 0.7071 -0.7071 211.1633 929.0746)" fill-rule="evenodd" clip-rule="evenodd" width="1.05" height="1.73"/>
						
							<rect x="295.279" y="422.133" transform="matrix(-0.7073 -0.7069 0.7069 -0.7073 206.0318 931.2985)" fill-rule="evenodd" clip-rule="evenodd" width="1.05" height="1.73"/>
						
							<rect x="293.092" y="424.321" transform="matrix(-0.7071 -0.7071 0.7071 -0.7071 200.584 933.4567)" fill-rule="evenodd" clip-rule="evenodd" width="1.05" height="1.73"/>
					</g>
				</g>
				<g>
					<g>
						<g>
							
								<rect x="297.624" y="411.051" transform="matrix(-0.7071 0.7071 -0.7071 -0.7071 810.4052 496.9022)" fill="none" width="9.323" height="10.499"/>
						</g>
						
							<rect x="304.066" y="413.346" transform="matrix(-0.7069 -0.7073 0.7073 -0.7069 226.9109 922.4566)" fill-rule="evenodd" clip-rule="evenodd" width="1.05" height="1.73"/>
						
							<rect x="301.872" y="415.541" transform="matrix(-0.7071 -0.7071 0.7071 -0.7071 221.7803 924.6769)" fill-rule="evenodd" clip-rule="evenodd" width="1.05" height="1.73"/>
						
							<rect x="299.685" y="417.728" transform="matrix(-0.7069 -0.7073 0.7073 -0.7069 216.3322 926.8364)" fill-rule="evenodd" clip-rule="evenodd" width="1.05" height="1.73"/>
					</g>
				</g>
				<g>
					<g>
						<g>
							
								<rect x="304.216" y="404.459" transform="matrix(-0.7071 0.7071 -0.7071 -0.7071 816.9919 481.0246)" fill="none" width="9.323" height="10.499"/>
						</g>
						
							<rect x="310.659" y="406.754" transform="matrix(-0.7069 -0.7073 0.7073 -0.7069 242.8261 915.8674)" fill-rule="evenodd" clip-rule="evenodd" width="1.05" height="1.73"/>
						
							<rect x="308.464" y="408.949" transform="matrix(-0.7073 -0.7069 0.7069 -0.7073 237.8621 918.1078)" fill-rule="evenodd" clip-rule="evenodd" width="1.05" height="1.73"/>
						
							<rect x="306.277" y="411.136" transform="matrix(-0.7073 -0.7069 0.7069 -0.7073 232.581 920.2964)" fill-rule="evenodd" clip-rule="evenodd" width="1.05" height="1.73"/>
					</g>
				</g>
				<g>
					<g>
						<g>
							
								<rect x="310.809" y="397.867" transform="matrix(-0.7071 0.7071 -0.7071 -0.7071 823.5869 465.091)" fill="none" width="9.323" height="10.499"/>
						</g>
						
							<rect x="317.251" y="400.162" transform="matrix(-0.7069 -0.7073 0.7073 -0.7069 258.7413 909.2782)" fill-rule="evenodd" clip-rule="evenodd" width="1.05" height="1.73"/>
						
							<rect x="315.056" y="402.357" transform="matrix(-0.7071 -0.7071 0.7071 -0.7071 253.61 911.4926)" fill-rule="evenodd" clip-rule="evenodd" width="1.05" height="1.73"/>
						
							<rect x="312.869" y="404.544" transform="matrix(-0.7071 -0.7071 0.7071 -0.7071 248.3289 913.6801)" fill-rule="evenodd" clip-rule="evenodd" width="1.05" height="1.73"/>
					</g>
				</g>
				<g>
					<g>
						<g>
							
								<rect x="317.401" y="391.274" transform="matrix(-0.7071 0.7071 -0.7071 -0.7071 830.1793 449.1758)" fill="none" width="9.323" height="10.499"/>
						</g>
						
							<rect x="323.843" y="393.57" transform="matrix(-0.7073 -0.7069 0.7069 -0.7073 274.9901 902.7218)" fill-rule="evenodd" clip-rule="evenodd" width="1.05" height="1.73"/>
						
							<rect x="321.649" y="395.765" transform="matrix(-0.7071 -0.7071 0.7071 -0.7071 269.5248 904.9001)" fill-rule="evenodd" clip-rule="evenodd" width="1.05" height="1.73"/>
						
							<rect x="319.461" y="397.952" transform="matrix(-0.7071 -0.7071 0.7071 -0.7071 264.2439 907.0872)" fill-rule="evenodd" clip-rule="evenodd" width="1.05" height="1.73"/>
					</g>
				</g>
				<g>
					<g>
						<g>
							
								<rect x="323.993" y="384.682" transform="matrix(-0.7071 0.7071 -0.7071 -0.7071 836.7727 433.2421)" fill="none" width="9.323" height="10.499"/>
						</g>
						
							<rect x="330.435" y="386.977" transform="matrix(-0.7071 -0.7071 0.7071 -0.7071 290.7383 896.1128)" fill-rule="evenodd" clip-rule="evenodd" width="1.05" height="1.73"/>
						
							<rect x="328.24" y="389.172" transform="matrix(-0.7071 -0.7071 0.7071 -0.7071 285.4395 898.3076)" fill-rule="evenodd" clip-rule="evenodd" width="1.05" height="1.73"/>
						
							<rect x="326.053" y="391.36" transform="matrix(-0.7069 -0.7073 0.7073 -0.7069 279.9918 900.48)" fill-rule="evenodd" clip-rule="evenodd" width="1.05" height="1.73"/>
					</g>
				</g>
				<g>
					<g>
						<g>
							
								<rect x="330.585" y="378.09" transform="matrix(-0.7071 0.7071 -0.7071 -0.7071 843.363 417.3458)" fill="none" width="9.323" height="10.499"/>
						</g>
						
							<rect x="337.027" y="380.385" transform="matrix(-0.7071 -0.7071 0.7071 -0.7071 306.6529 889.5208)" fill-rule="evenodd" clip-rule="evenodd" width="1.05" height="1.73"/>
						
							<rect x="334.833" y="382.58" transform="matrix(-0.7071 -0.7071 0.7071 -0.7071 301.3547 891.7153)" fill-rule="evenodd" clip-rule="evenodd" width="1.05" height="1.73"/>
						
							<rect x="332.645" y="384.767" transform="matrix(-0.7069 -0.7073 0.7073 -0.7069 295.907 893.8908)" fill-rule="evenodd" clip-rule="evenodd" width="1.05" height="1.73"/>
					</g>
				</g>
				<g>
					<g>
						<g>
							
								<rect x="337.177" y="371.497" transform="matrix(-0.7071 0.7071 -0.7071 -0.7071 849.9553 401.4307)" fill="none" width="9.323" height="10.499"/>
						</g>
						
							<rect x="343.62" y="373.793" transform="matrix(-0.7069 -0.7073 0.7073 -0.7069 322.4008 882.9218)" fill-rule="evenodd" clip-rule="evenodd" width="1.05" height="1.73"/>
						
							<rect x="341.425" y="375.988" transform="matrix(-0.7073 -0.7069 0.7069 -0.7073 317.4369 885.1316)" fill-rule="evenodd" clip-rule="evenodd" width="1.05" height="1.73"/>
						
							<rect x="339.237" y="378.175" transform="matrix(-0.7071 -0.7071 0.7071 -0.7071 311.9888 887.3105)" fill-rule="evenodd" clip-rule="evenodd" width="1.05" height="1.73"/>
					</g>
				</g>
				<g>
					<g>
						<g>
							
								<rect x="343.769" y="364.905" transform="matrix(-0.7071 0.7071 -0.7071 -0.7071 856.5471 385.5156)" fill="none" width="9.323" height="10.499"/>
						</g>
						
							<rect x="350.212" y="367.201" transform="matrix(-0.7071 -0.7071 0.7071 -0.7071 338.4833 876.3362)" fill-rule="evenodd" clip-rule="evenodd" width="1.05" height="1.73"/>
						
							<rect x="348.017" y="369.395" transform="matrix(-0.7071 -0.7071 0.7071 -0.7071 333.1851 878.5308)" fill-rule="evenodd" clip-rule="evenodd" width="1.05" height="1.73"/>
						
							<rect x="345.83" y="371.583" transform="matrix(-0.7071 -0.7071 0.7071 -0.7071 327.904 880.7183)" fill-rule="evenodd" clip-rule="evenodd" width="1.05" height="1.73"/>
					</g>
				</g>
				<g>
					<g>
						<g>
							
								<rect x="350.362" y="358.313" transform="matrix(-0.7071 0.7071 -0.7071 -0.7071 863.1396 369.6191)" fill="none" width="9.323" height="10.499"/>
						</g>
						
							<rect x="356.804" y="360.609" transform="matrix(-0.7071 -0.7071 0.7071 -0.7071 354.3979 869.7441)" fill-rule="evenodd" clip-rule="evenodd" width="1.05" height="1.73"/>
						
							<rect x="354.609" y="362.803" transform="matrix(-0.7071 -0.7071 0.7071 -0.7071 349.0997 871.9387)" fill-rule="evenodd" clip-rule="evenodd" width="1.05" height="1.73"/>
						
							<rect x="352.422" y="364.991" transform="matrix(-0.7071 -0.7071 0.7071 -0.7071 343.8186 874.1262)" fill-rule="evenodd" clip-rule="evenodd" width="1.05" height="1.73"/>
					</g>
				</g>
				<g>
					<g>
						<g>
							
								<rect x="356.954" y="351.721" transform="matrix(-0.7071 0.7072 -0.7072 -0.7071 869.7317 353.648)" fill="none" width="9.323" height="10.499"/>
						</g>
						
							<rect x="363.396" y="354.016" transform="matrix(-0.7071 -0.7071 0.7071 -0.7071 370.3131 863.1519)" fill-rule="evenodd" clip-rule="evenodd" width="1.05" height="1.73"/>
						
							<rect x="361.201" y="356.211" transform="matrix(-0.7073 -0.7069 0.7069 -0.7073 365.1816 865.3452)" fill-rule="evenodd" clip-rule="evenodd" width="1.05" height="1.73"/>
						
							<rect x="359.014" y="358.398" transform="matrix(-0.7071 -0.7071 0.7071 -0.7071 359.7338 867.5339)" fill-rule="evenodd" clip-rule="evenodd" width="1.05" height="1.73"/>
					</g>
				</g>
				<g>
					<g>
						<g>
							
								<rect x="363.546" y="345.128" transform="matrix(-0.7071 0.7071 -0.7071 -0.7071 876.3242 337.7895)" fill="none" width="9.323" height="10.499"/>
						</g>
						
							<rect x="369.988" y="347.424" transform="matrix(-0.7069 -0.7073 0.7073 -0.7069 386.0607 856.5646)" fill-rule="evenodd" clip-rule="evenodd" width="1.05" height="1.73"/>
						
							<rect x="367.794" y="349.619" transform="matrix(-0.7073 -0.7069 0.7069 -0.7073 381.0967 858.7498)" fill-rule="evenodd" clip-rule="evenodd" width="1.05" height="1.73"/>
						
							<rect x="365.607" y="351.806" transform="matrix(-0.7071 -0.7071 0.7071 -0.7071 375.649 860.9417)" fill-rule="evenodd" clip-rule="evenodd" width="1.05" height="1.73"/>
					</g>
				</g>
				<g>
					<g>
						<g>
							
								<rect x="370.138" y="338.536" transform="matrix(-0.7071 0.7071 -0.7071 -0.7071 882.9162 321.8559)" fill="none" width="9.323" height="10.499"/>
						</g>
						
							<rect x="376.581" y="340.832" transform="matrix(-0.7069 -0.7073 0.7073 -0.7069 401.9759 849.9753)" fill-rule="evenodd" clip-rule="evenodd" width="1.05" height="1.73"/>
						
							<rect x="374.385" y="343.027" transform="matrix(-0.7071 -0.7071 0.7071 -0.7071 396.8442 852.162)" fill-rule="evenodd" clip-rule="evenodd" width="1.05" height="1.73"/>
						
							<rect x="372.198" y="345.214" transform="matrix(-0.7071 -0.7071 0.7071 -0.7071 391.5636 854.3496)" fill-rule="evenodd" clip-rule="evenodd" width="1.05" height="1.73"/>
					</g>
				</g>
				<g>
					<g>
						<g>
							
								<rect x="376.73" y="331.944" transform="matrix(-0.7071 0.7071 -0.7071 -0.7071 889.5081 305.9409)" fill="none" width="9.323" height="10.499"/>
						</g>
						
							<rect x="383.173" y="334.24" transform="matrix(-0.7071 -0.7071 0.7071 -0.7071 418.058 843.3752)" fill-rule="evenodd" clip-rule="evenodd" width="1.05" height="1.73"/>
						
							<rect x="380.978" y="336.434" transform="matrix(-0.7071 -0.7071 0.7071 -0.7071 412.7599 845.5698)" fill-rule="evenodd" clip-rule="evenodd" width="1.05" height="1.73"/>
						
							<rect x="378.791" y="338.622" transform="matrix(-0.7073 -0.7069 0.7069 -0.7073 407.6461 847.7476)" fill-rule="evenodd" clip-rule="evenodd" width="1.05" height="1.73"/>
					</g>
				</g>
				<g>
					<g>
						<g>
							
								<rect x="383.322" y="325.352" transform="matrix(-0.7071 0.7071 -0.7071 -0.7071 896.1003 290.0257)" fill="none" width="9.323" height="10.499"/>
						</g>
						
							<rect x="389.765" y="327.647" transform="matrix(-0.7073 -0.7069 0.7069 -0.7073 434.1399 836.7684)" fill-rule="evenodd" clip-rule="evenodd" width="1.05" height="1.73"/>
						
							<rect x="387.57" y="329.842" transform="matrix(-0.7069 -0.7073 0.7073 -0.7069 428.5075 838.9907)" fill-rule="evenodd" clip-rule="evenodd" width="1.05" height="1.73"/>
						
							<rect x="385.383" y="332.03" transform="matrix(-0.7069 -0.7073 0.7073 -0.7069 423.2264 841.1772)" fill-rule="evenodd" clip-rule="evenodd" width="1.05" height="1.73"/>
					</g>
				</g>
				<g>
					<g>
						<g>
							
								<rect x="389.915" y="318.76" transform="matrix(-0.7071 0.7071 -0.7071 -0.7071 902.6908 274.0918)" fill="none" width="9.323" height="10.499"/>
						</g>
						
							<rect x="396.357" y="321.055" transform="matrix(-0.7073 -0.7069 0.7069 -0.7073 450.0551 830.1731)" fill-rule="evenodd" clip-rule="evenodd" width="1.05" height="1.73"/>
						
							<rect x="394.162" y="323.25" transform="matrix(-0.7071 -0.7071 0.7071 -0.7071 444.5894 832.3849)" fill-rule="evenodd" clip-rule="evenodd" width="1.05" height="1.73"/>
						
							<rect x="391.975" y="325.437" transform="matrix(-0.7071 -0.7071 0.7071 -0.7071 439.3083 834.5724)" fill-rule="evenodd" clip-rule="evenodd" width="1.05" height="1.73"/>
					</g>
				</g>
				<g>
					<g>
						<g>
							
								<rect x="396.507" y="312.167" transform="matrix(-0.7071 0.7071 -0.7071 -0.7071 909.2845 258.1955)" fill="none" width="9.323" height="10.499"/>
						</g>
						
							<rect x="402.949" y="314.463" transform="matrix(-0.7069 -0.7073 0.7073 -0.7069 465.6355 823.619)" fill-rule="evenodd" clip-rule="evenodd" width="1.05" height="1.73"/>
						
							<rect x="400.755" y="316.658" transform="matrix(-0.7073 -0.7069 0.7069 -0.7073 460.6715 825.7736)" fill-rule="evenodd" clip-rule="evenodd" width="1.05" height="1.73"/>
						
							<rect x="398.567" y="318.845" transform="matrix(-0.7069 -0.7073 0.7073 -0.7069 455.0568 827.9988)" fill-rule="evenodd" clip-rule="evenodd" width="1.05" height="1.73"/>
					</g>
				</g>
				<g>
					<g>
						<g>
							
								<rect x="403.099" y="305.575" transform="matrix(-0.7071 0.7071 -0.7071 -0.7071 915.8768 242.2803)" fill="none" width="9.323" height="10.499"/>
						</g>
						
							<rect x="409.541" y="307.871" transform="matrix(-0.7073 -0.7069 0.7069 -0.7073 481.8846 816.982)" fill-rule="evenodd" clip-rule="evenodd" width="1.05" height="1.73"/>
						
							<rect x="407.347" y="310.065" transform="matrix(-0.7069 -0.7073 0.7073 -0.7069 476.2522 819.2227)" fill-rule="evenodd" clip-rule="evenodd" width="1.05" height="1.73"/>
						
							<rect x="405.159" y="312.253" transform="matrix(-0.7071 -0.7071 0.7071 -0.7071 471.1386 821.3878)" fill-rule="evenodd" clip-rule="evenodd" width="1.05" height="1.73"/>
					</g>
				</g>
				<g>
					<g>
						<g>
							
								<rect x="409.691" y="298.983" transform="matrix(-0.7071 0.7071 -0.7071 -0.7071 922.4717 226.3845)" fill="none" width="9.323" height="10.499"/>
						</g>
						
							<rect x="416.134" y="301.279" transform="matrix(-0.7069 -0.7073 0.7073 -0.7069 497.4658 810.4405)" fill-rule="evenodd" clip-rule="evenodd" width="1.05" height="1.73"/>
						
							<rect x="413.939" y="303.473" transform="matrix(-0.7073 -0.7069 0.7069 -0.7073 492.5015 812.5827)" fill-rule="evenodd" clip-rule="evenodd" width="1.05" height="1.73"/>
						
							<rect x="411.752" y="305.661" transform="matrix(-0.7073 -0.7069 0.7069 -0.7073 487.2208 814.7714)" fill-rule="evenodd" clip-rule="evenodd" width="1.05" height="1.73"/>
					</g>
				</g>
				<g>
					<g>
						<g>
							
								<rect x="416.283" y="292.391" transform="matrix(-0.7071 0.7071 -0.7071 -0.7071 929.0579 210.4318)" fill="none" width="9.323" height="10.499"/>
						</g>
						
							<rect x="422.726" y="294.686" transform="matrix(-0.7071 -0.7071 0.7071 -0.7071 513.5477 803.8214)" fill-rule="evenodd" clip-rule="evenodd" width="1.05" height="1.73"/>
						
							<rect x="420.531" y="296.881" transform="matrix(-0.7071 -0.7071 0.7071 -0.7071 508.2494 806.0165)" fill-rule="evenodd" clip-rule="evenodd" width="1.05" height="1.73"/>
						
							<rect x="418.344" y="299.068" transform="matrix(-0.7071 -0.7071 0.7071 -0.7071 502.9684 808.2035)" fill-rule="evenodd" clip-rule="evenodd" width="1.05" height="1.73"/>
					</g>
				</g>
				<g>
					<g>
						<g>
							
								<rect x="422.876" y="285.798" transform="matrix(-0.7071 0.7071 -0.7071 -0.7071 935.6534 194.5354)" fill="none" width="9.322" height="10.499"/>
						</g>
						
							<rect x="429.318" y="288.094" transform="matrix(-0.7071 -0.7071 0.7071 -0.7071 529.4629 797.2292)" fill-rule="evenodd" clip-rule="evenodd" width="1.05" height="1.73"/>
						
							<rect x="427.123" y="290.289" transform="matrix(-0.7073 -0.7069 0.7069 -0.7073 524.3314 799.3918)" fill-rule="evenodd" clip-rule="evenodd" width="1.05" height="1.73"/>
						
							<rect x="424.936" y="292.476" transform="matrix(-0.7073 -0.7069 0.7069 -0.7073 519.0503 801.5803)" fill-rule="evenodd" clip-rule="evenodd" width="1.05" height="1.73"/>
					</g>
				</g>
				<g>
					<g>
						<g>
							
								<rect x="429.468" y="279.206" transform="matrix(-0.7071 0.7071 -0.7071 -0.7071 942.2454 178.6208)" fill="none" width="9.323" height="10.499"/>
						</g>
						
							<rect x="435.91" y="281.502" transform="matrix(-0.7069 -0.7073 0.7073 -0.7069 545.2106 790.6725)" fill-rule="evenodd" clip-rule="evenodd" width="1.05" height="1.73"/>
						
							<rect x="433.715" y="283.697" transform="matrix(-0.7071 -0.7071 0.7071 -0.7071 540.0793 792.8317)" fill-rule="evenodd" clip-rule="evenodd" width="1.05" height="1.73"/>
						
							<rect x="431.528" y="285.884" transform="matrix(-0.7071 -0.7071 0.7071 -0.7071 534.7982 795.0192)" fill-rule="evenodd" clip-rule="evenodd" width="1.05" height="1.73"/>
					</g>
				</g>
				<g>
					<g>
						<g>
							
								<rect x="436.06" y="272.614" transform="matrix(-0.7071 0.7071 -0.7071 -0.7071 948.8378 162.7056)" fill="none" width="9.323" height="10.499"/>
						</g>
						
							<rect x="442.502" y="274.91" transform="matrix(-0.7073 -0.7069 0.7069 -0.7073 561.4594 784.0057)" fill-rule="evenodd" clip-rule="evenodd" width="1.05" height="1.73"/>
						
							<rect x="440.308" y="277.104" transform="matrix(-0.7069 -0.7073 0.7073 -0.7069 555.827 786.2771)" fill-rule="evenodd" clip-rule="evenodd" width="1.05" height="1.73"/>
						
							<rect x="438.12" y="279.292" transform="matrix(-0.7073 -0.7069 0.7069 -0.7073 550.8805 788.3901)" fill-rule="evenodd" clip-rule="evenodd" width="1.05" height="1.73"/>
					</g>
				</g>
				<g>
					<g>
						<g>
							
								<rect x="442.652" y="266.022" transform="matrix(-0.7071 0.7071 -0.7071 -0.7071 955.4296 146.7906)" fill="none" width="9.323" height="10.499"/>
						</g>
						
							<rect x="449.094" y="268.317" transform="matrix(-0.7073 -0.7069 0.7069 -0.7073 577.3745 777.4104)" fill-rule="evenodd" clip-rule="evenodd" width="1.05" height="1.73"/>
						
							<rect x="446.9" y="270.512" transform="matrix(-0.7069 -0.7073 0.7073 -0.7069 571.7421 779.6879)" fill-rule="evenodd" clip-rule="evenodd" width="1.05" height="1.73"/>
						
							<rect x="444.712" y="272.699" transform="matrix(-0.7071 -0.7071 0.7071 -0.7071 566.6285 781.8346)" fill-rule="evenodd" clip-rule="evenodd" width="1.05" height="1.73"/>
					</g>
				</g>
				<g>
					<g>
						<g>
							
								<rect x="449.244" y="259.429" transform="matrix(-0.7071 0.7071 -0.7071 -0.7071 962.0219 130.8754)" fill="none" width="9.323" height="10.499"/>
						</g>
						
							<rect x="455.687" y="261.725" transform="matrix(-0.7073 -0.7069 0.7069 -0.7073 593.2897 770.8151)" fill-rule="evenodd" clip-rule="evenodd" width="1.05" height="1.73"/>
						
							<rect x="453.492" y="263.92" transform="matrix(-0.7069 -0.7073 0.7073 -0.7069 587.6573 773.0986)" fill-rule="evenodd" clip-rule="evenodd" width="1.05" height="1.73"/>
						
							<rect x="451.305" y="266.107" transform="matrix(-0.7069 -0.7073 0.7073 -0.7069 582.3762 775.2852)" fill-rule="evenodd" clip-rule="evenodd" width="1.05" height="1.73"/>
					</g>
				</g>
				<g>
					<g>
						<g>
							
								<rect x="455.837" y="252.837" transform="matrix(-0.7071 0.7071 -0.7071 -0.7071 968.6089 114.9414)" fill="none" width="9.323" height="10.499"/>
						</g>
						
							<rect x="462.279" y="255.133" transform="matrix(-0.7071 -0.7071 0.7071 -0.7071 609.0376 764.2682)" fill-rule="evenodd" clip-rule="evenodd" width="1.05" height="1.73"/>
						
							<rect x="460.084" y="257.328" transform="matrix(-0.7073 -0.7069 0.7069 -0.7073 603.9061 766.4155)" fill-rule="evenodd" clip-rule="evenodd" width="1.05" height="1.73"/>
						
							<rect x="457.897" y="259.515" transform="matrix(-0.7073 -0.7069 0.7069 -0.7073 598.6251 768.6041)" fill-rule="evenodd" clip-rule="evenodd" width="1.05" height="1.73"/>
					</g>
				</g>
				<g>
					<g>
						<g>
							
								<rect x="462.429" y="246.245" transform="matrix(-0.7071 0.7071 -0.7071 -0.7071 975.2061 99.0452)" fill="none" width="9.323" height="10.499"/>
						</g>
						
							<rect x="468.871" y="248.541" transform="matrix(-0.7071 -0.7071 0.7071 -0.7071 624.9524 757.6758)" fill-rule="evenodd" clip-rule="evenodd" width="1.05" height="1.73"/>
						
							<rect x="466.676" y="250.735" transform="matrix(-0.7071 -0.7071 0.7071 -0.7071 619.6544 759.8699)" fill-rule="evenodd" clip-rule="evenodd" width="1.05" height="1.73"/>
						
							<rect x="464.489" y="252.923" transform="matrix(-0.7071 -0.7071 0.7071 -0.7071 614.3733 762.0574)" fill-rule="evenodd" clip-rule="evenodd" width="1.05" height="1.73"/>
					</g>
				</g>
				<g>
					<g>
						<g>
							
								<rect x="469.021" y="239.653" transform="matrix(-0.7071 0.7071 -0.7071 -0.7071 981.8045 83.1492)" fill="none" width="9.323" height="10.499"/>
						</g>
						
							<rect x="475.463" y="241.948" transform="matrix(-0.7071 -0.7071 0.7071 -0.7071 640.8672 751.0833)" fill-rule="evenodd" clip-rule="evenodd" width="1.05" height="1.73"/>
						
							<rect x="473.269" y="244.143" transform="matrix(-0.7071 -0.7071 0.7071 -0.7071 635.569 753.2779)" fill-rule="evenodd" clip-rule="evenodd" width="1.05" height="1.73"/>
						
							<rect x="471.081" y="246.331" transform="matrix(-0.7073 -0.7069 0.7069 -0.7073 630.455 755.4132)" fill-rule="evenodd" clip-rule="evenodd" width="1.05" height="1.73"/>
					</g>
				</g>
				<g>
					<g>
						<g>
							
								<rect x="475.613" y="233.06" transform="matrix(-0.7071 0.7071 -0.7071 -0.7071 988.384 67.1966)" fill="none" width="9.323" height="10.499"/>
						</g>
						
							<rect x="482.055" y="235.356" transform="matrix(-0.7071 -0.7071 0.7071 -0.7071 656.7823 744.491)" fill-rule="evenodd" clip-rule="evenodd" width="1.05" height="1.73"/>
						
							<rect x="479.861" y="237.551" transform="matrix(-0.7069 -0.7073 0.7073 -0.7069 651.3169 746.7422)" fill-rule="evenodd" clip-rule="evenodd" width="1.05" height="1.73"/>
						
							<rect x="477.674" y="239.738" transform="matrix(-0.7073 -0.7069 0.7069 -0.7073 646.3706 748.818)" fill-rule="evenodd" clip-rule="evenodd" width="1.05" height="1.73"/>
					</g>
				</g>
				<g>
					<g>
						<g>
							
								<rect x="482.205" y="226.468" transform="matrix(-0.7071 0.7071 -0.7071 -0.7071 994.9891 51.3196)" fill="none" width="9.323" height="10.499"/>
						</g>
						
							<rect x="488.647" y="228.764" transform="matrix(-0.7073 -0.7069 0.7069 -0.7073 672.8641 737.8386)" fill-rule="evenodd" clip-rule="evenodd" width="1.05" height="1.73"/>
						
							<rect x="486.453" y="230.958" transform="matrix(-0.7071 -0.7071 0.7071 -0.7071 667.3994 740.0933)" fill-rule="evenodd" clip-rule="evenodd" width="1.05" height="1.73"/>
						
							<rect x="484.266" y="233.146" transform="matrix(-0.7071 -0.7071 0.7071 -0.7071 662.1183 742.2808)" fill-rule="evenodd" clip-rule="evenodd" width="1.05" height="1.73"/>
					</g>
				</g>
				<g>
					<g>
						<g>
							
								<rect x="488.798" y="219.876" transform="matrix(-0.7071 0.7071 -0.7071 -0.7071 1001.5681 35.3667)" fill="none" width="9.323" height="10.499"/>
						</g>
						
							<rect x="495.24" y="222.172" transform="matrix(-0.7071 -0.7071 0.7071 -0.7071 688.6127 731.3065)" fill-rule="evenodd" clip-rule="evenodd" width="1.05" height="1.73"/>
						
							<rect x="493.045" y="224.366" transform="matrix(-0.7071 -0.7071 0.7071 -0.7071 683.314 733.5013)" fill-rule="evenodd" clip-rule="evenodd" width="1.05" height="1.73"/>
						
							<rect x="490.857" y="226.554" transform="matrix(-0.7071 -0.7071 0.7071 -0.7071 678.0328 735.6888)" fill-rule="evenodd" clip-rule="evenodd" width="1.05" height="1.73"/>
					</g>
				</g>
				<g>
					<g>
						<g>
							
								<rect x="495.39" y="213.284" transform="matrix(-0.7071 0.7071 -0.7071 -0.7071 1008.167 19.4704)" fill="none" width="9.323" height="10.499"/>
						</g>
						
							<rect x="501.832" y="215.58" transform="matrix(-0.7071 -0.7071 0.7071 -0.7071 704.5273 724.7144)" fill-rule="evenodd" clip-rule="evenodd" width="1.05" height="1.73"/>
						
							<rect x="499.637" y="217.774" transform="matrix(-0.7071 -0.7071 0.7071 -0.7071 699.2291 726.909)" fill-rule="evenodd" clip-rule="evenodd" width="1.05" height="1.73"/>
						
							<rect x="497.45" y="219.962" transform="matrix(-0.7071 -0.7071 0.7071 -0.7071 693.9481 729.0965)" fill-rule="evenodd" clip-rule="evenodd" width="1.05" height="1.73"/>
					</g>
				</g>
				<g>
					<g>
						<g>
							
								<rect x="501.982" y="206.692" transform="matrix(-0.7071 0.7071 -0.7071 -0.7071 1014.7593 3.5553)" fill="none" width="9.323" height="10.499"/>
						</g>
						
							<rect x="508.424" y="208.987" transform="matrix(-0.7073 -0.7069 0.7069 -0.7073 720.6092 718.0524)" fill-rule="evenodd" clip-rule="evenodd" width="1.05" height="1.73"/>
						
							<rect x="506.229" y="211.182" transform="matrix(-0.7069 -0.7073 0.7073 -0.7069 714.9768 720.385)" fill-rule="evenodd" clip-rule="evenodd" width="1.05" height="1.73"/>
						
							<rect x="504.042" y="213.369" transform="matrix(-0.7069 -0.7073 0.7073 -0.7069 709.6957 722.5715)" fill-rule="evenodd" clip-rule="evenodd" width="1.05" height="1.73"/>
					</g>
				</g>
				<g>
					<g>
						<g>
							
								<rect x="508.574" y="200.099" transform="matrix(-0.7071 0.7071 -0.7071 -0.7071 1021.3431 -12.3785)" fill="none" width="9.323" height="10.499"/>
						</g>
						
							<rect x="515.016" y="202.395" transform="matrix(-0.7073 -0.7069 0.7069 -0.7073 736.5244 711.457)" fill-rule="evenodd" clip-rule="evenodd" width="1.05" height="1.73"/>
						
							<rect x="512.822" y="204.59" transform="matrix(-0.7069 -0.7073 0.7073 -0.7069 730.892 713.7958)" fill-rule="evenodd" clip-rule="evenodd" width="1.05" height="1.73"/>
						
							<rect x="510.634" y="206.777" transform="matrix(-0.7071 -0.7071 0.7071 -0.7071 725.778 715.9117)" fill-rule="evenodd" clip-rule="evenodd" width="1.05" height="1.73"/>
					</g>
				</g>
				<g>
					<g>
						<g>
							
								<rect x="515.166" y="193.507" transform="matrix(-0.7071 0.7071 -0.7071 -0.7071 1027.943 -28.2747)" fill="none" width="9.323" height="10.499"/>
						</g>
						
							<rect x="521.608" y="195.803" transform="matrix(-0.7069 -0.7073 0.7073 -0.7069 752.1047 705.0133)" fill-rule="evenodd" clip-rule="evenodd" width="1.05" height="1.73"/>
						
							<rect x="519.414" y="197.998" transform="matrix(-0.7071 -0.7071 0.7071 -0.7071 746.9741 707.1324)" fill-rule="evenodd" clip-rule="evenodd" width="1.05" height="1.73"/>
						
							<rect x="517.227" y="200.185" transform="matrix(-0.7071 -0.7071 0.7071 -0.7071 741.693 709.3199)" fill-rule="evenodd" clip-rule="evenodd" width="1.05" height="1.73"/>
					</g>
				</g>
				<g>
					<g>
						<g>
							
								<rect x="521.758" y="186.915" transform="matrix(-0.7071 0.7071 -0.7071 -0.7071 1034.5353 -44.1899)" fill="none" width="9.323" height="10.499"/>
						</g>
						
							<rect x="528.2" y="189.211" transform="matrix(-0.7071 -0.7071 0.7071 -0.7071 768.1871 698.3453)" fill-rule="evenodd" clip-rule="evenodd" width="1.05" height="1.73"/>
						
							<rect x="526.006" y="191.405" transform="matrix(-0.7073 -0.7069 0.7069 -0.7073 763.056 700.4622)" fill-rule="evenodd" clip-rule="evenodd" width="1.05" height="1.73"/>
						
							<rect x="523.818" y="193.593" transform="matrix(-0.7071 -0.7071 0.7071 -0.7071 757.608 702.727)" fill-rule="evenodd" clip-rule="evenodd" width="1.05" height="1.73"/>
					</g>
				</g>
				<g>
					<g>
						<g>
							
								<rect x="528.351" y="180.323" transform="matrix(-0.7071 0.7071 -0.7071 -0.7071 1041.1368 -60.0859)" fill="none" width="9.323" height="10.499"/>
						</g>
						
							<rect x="534.793" y="182.618" transform="matrix(-0.7069 -0.7073 0.7073 -0.7069 783.9351 691.8348)" fill-rule="evenodd" clip-rule="evenodd" width="1.05" height="1.73"/>
						
							<rect x="532.598" y="184.813" transform="matrix(-0.7073 -0.7069 0.7069 -0.7073 778.9712 693.8668)" fill-rule="evenodd" clip-rule="evenodd" width="1.05" height="1.73"/>
						
							<rect x="530.411" y="187" transform="matrix(-0.7073 -0.7069 0.7069 -0.7073 773.6901 696.0554)" fill-rule="evenodd" clip-rule="evenodd" width="1.05" height="1.73"/>
					</g>
				</g>
				<g>
					<g>
						<g>
							
								<rect x="534.943" y="173.73" transform="matrix(-0.7071 0.7071 -0.7071 -0.7071 1047.72 -76.0199)" fill="none" width="9.323" height="10.499"/>
						</g>
						
							<rect x="541.385" y="176.026" transform="matrix(-0.7071 -0.7071 0.7071 -0.7071 800.017 685.1606)" fill-rule="evenodd" clip-rule="evenodd" width="1.05" height="1.73"/>
						
							<rect x="539.19" y="178.221" transform="matrix(-0.7069 -0.7073 0.7073 -0.7069 794.5515 687.4395)" fill-rule="evenodd" clip-rule="evenodd" width="1.05" height="1.73"/>
						
							<rect x="537.003" y="180.409" transform="matrix(-0.7071 -0.7071 0.7071 -0.7071 789.4376 689.5431)" fill-rule="evenodd" clip-rule="evenodd" width="1.05" height="1.73"/>
					</g>
				</g>
				<g>
					<g>
						<g>
							
								<rect x="541.535" y="167.139" transform="matrix(-0.7071 0.7071 -0.7071 -0.7071 1054.3022 -91.9533)" fill="none" width="9.323" height="10.499"/>
						</g>
						
							<rect x="547.977" y="169.434" transform="matrix(-0.7073 -0.7069 0.7069 -0.7073 816.0991 678.4808)" fill-rule="evenodd" clip-rule="evenodd" width="1.05" height="1.73"/>
						
							<rect x="545.783" y="171.628" transform="matrix(-0.7071 -0.7071 0.7071 -0.7071 810.634 680.7629)" fill-rule="evenodd" clip-rule="evenodd" width="1.05" height="1.73"/>
						
							<rect x="543.595" y="173.816" transform="matrix(-0.7071 -0.7071 0.7071 -0.7071 805.3529 682.9504)" fill-rule="evenodd" clip-rule="evenodd" width="1.05" height="1.73"/>
					</g>
				</g>
				<g>
					<g>
						<g>
							
								<rect x="548.127" y="160.546" transform="matrix(-0.7071 0.7071 -0.7071 -0.7071 1060.9039 -107.8495)" fill="none" width="9.323" height="10.499"/>
						</g>
						
							<rect x="554.569" y="162.842" transform="matrix(-0.7069 -0.7073 0.7073 -0.7069 831.6798 672.0668)" fill-rule="evenodd" clip-rule="evenodd" width="1.05" height="1.73"/>
						
							<rect x="552.375" y="165.036" transform="matrix(-0.7069 -0.7073 0.7073 -0.7069 826.3819 674.261)" fill-rule="evenodd" clip-rule="evenodd" width="1.05" height="1.73"/>
						
							<rect x="550.187" y="167.224" transform="matrix(-0.7069 -0.7073 0.7073 -0.7069 821.1008 676.4475)" fill-rule="evenodd" clip-rule="evenodd" width="1.05" height="1.73"/>
					</g>
				</g>
				<g>
					<g>
						<g>
							
								<rect x="554.719" y="153.954" transform="matrix(-0.7071 0.7071 -0.7071 -0.7071 1067.4962 -123.7646)" fill="none" width="9.323" height="10.499"/>
						</g>
						
							<rect x="561.162" y="156.25" transform="matrix(-0.7071 -0.7071 0.7071 -0.7071 847.762 665.384)" fill-rule="evenodd" clip-rule="evenodd" width="1.05" height="1.73"/>
						
							<rect x="558.967" y="158.444" transform="matrix(-0.7071 -0.7071 0.7071 -0.7071 842.4637 667.5786)" fill-rule="evenodd" clip-rule="evenodd" width="1.05" height="1.73"/>
						
							<rect x="556.779" y="160.632" transform="matrix(-0.7071 -0.7071 0.7071 -0.7071 837.1827 669.7661)" fill-rule="evenodd" clip-rule="evenodd" width="1.05" height="1.73"/>
					</g>
				</g>
			</g>
		</g>
	</g>
</g>
<g id="Layer_7">
</g>
<g id="Layer_8">
</g>
<g id="Layer_9">
</g>
<g id="Layer_10">
</g>
<g id="Layer_11">
</g>
<g id="Layer_12">
</g>
<g id="Layer_13">
</g>
<g id="Layer_14">
</g>
<g id="Layer_15">
</g>
<g id="Layer_16">
</g>
<g id="Layer_17">
</g>
<g id="Layer_18">
</g>
<g id="Layer_19">
</g>
<g id="Layer_20">
</g>
<g id="Layer_21">
</g>
<g id="Layer_22">
</g>
<g id="Layer_24">
</g>
<g id="Layer_25">
</g>
<g id="Layer_26">
</g>
<g id="Layer_27">
</g>
<g id="Layer_28">
</g>
<g id="Layer_29">
</g>
<g id="Layer_30">
</g>
<g id="Layer_31">
</g>
<g id="Layer_32">
</g>
<g id="Layer_33">
</g>
<g id="Layer_34">
</g>
<g id="Layer_35">
</g>
<g id="Layer_36">
</g>
<g id="Layer_37">
</g>
<g id="Layer_38">
</g>
<g id="Layer_39">
</g>
<g id="Layer_40">
</g>
<g id="Layer_41">
</g>
<g id="Layer_43">
</g>
</svg>
