<?xml version="1.0" encoding="utf-8"?>
<!-- Generator: Adobe Illustrator 16.0.0, SVG Export Plug-In . SVG Version: 6.00 Build 0)  -->
<!DOCTYPE svg PUBLIC "-//W3C//DTD SVG 1.1//EN" "http://www.w3.org/Graphics/SVG/1.1/DTD/svg11.dtd">
<svg version="1.1" xmlns="http://www.w3.org/2000/svg" xmlns:xlink="http://www.w3.org/1999/xlink" x="0px" y="0px"
	 width="841.89px" height="595.28px" viewBox="0 0 841.89 595.28" enable-background="new 0 0 841.89 595.28" xml:space="preserve">
<g id="Layer_1">
</g>
<g id="Layer_2">
</g>
<g id="Layer_3">
</g>
<g id="Layer_4">
</g>
<g id="Layer_5">
</g>
<g id="Layer_6">
</g>
<g id="Layer_7">
</g>
<g id="Layer_8">
</g>
<g id="Layer_9">
</g>
<g id="Layer_10">
</g>
<g id="Layer_11">
</g>
<g id="Layer_12">
</g>
<g id="Layer_13">
</g>
<g id="Layer_14">
</g>
<g id="Layer_15">
</g>
<g id="Layer_16">
</g>
<g id="Layer_17">
</g>
<g id="Layer_18">
</g>
<g id="Layer_19">
</g>
<g id="Layer_20">
</g>
<g id="Layer_21">
</g>
<g id="Layer_22">
</g>
<g id="Layer_24">
</g>
<g id="Layer_25">
</g>
<g id="Layer_26">
</g>
<g id="Layer_27">
</g>
<g id="Layer_28">
</g>
<g id="Layer_29">
</g>
<g id="Layer_30">
</g>
<g id="Layer_31">
</g>
<g id="Layer_32">
</g>
<g id="Layer_33">
</g>
<g id="Layer_34">
	<line fill="none" stroke="#000000" stroke-miterlimit="10" x1="420.943" y1="266.586" x2="420.945" y2="186.64"/>
	<path fill="none" stroke="#000000" stroke-miterlimit="10" d="M420.945,266.229"/>
	<line fill="none" stroke="#000000" stroke-miterlimit="10" x1="386.589" y1="266.586" x2="420.945" y2="467.024"/>
	<line fill="none" stroke="#000000" stroke-miterlimit="10" x1="420.945" y1="186.64" x2="386.589" y2="266.586"/>
	<line fill="none" stroke="#000000" stroke-miterlimit="10" x1="455.301" y1="266.586" x2="420.945" y2="186.64"/>
	<line fill="none" stroke="#000000" stroke-miterlimit="10" x1="450.274" y1="295.909" x2="420.945" y2="266.229"/>
	<line fill="none" stroke="#000000" stroke-miterlimit="10" x1="391.677" y1="296.268" x2="420.943" y2="266.586"/>
	<line fill="none" stroke="#000000" stroke-miterlimit="10" x1="455.301" y1="266.586" x2="420.945" y2="467.024"/>
	<g>
		<g>
			<g>
				<g>
					<g>
						<g>
							<rect x="415.846" y="266.586" fill="none" width="10.499" height="9.545"/>
						</g>
						<rect x="420.417" y="273.654" fill-rule="evenodd" clip-rule="evenodd" width="1.05" height="1.771"/>
						<rect x="420.417" y="270.477" fill-rule="evenodd" clip-rule="evenodd" width="1.05" height="1.771"/>
						<rect x="420.417" y="267.309" fill-rule="evenodd" clip-rule="evenodd" width="1.05" height="1.772"/>
					</g>
				</g>
				<g>
					<g>
						<g>
							<rect x="415.846" y="276.131" fill="none" width="10.499" height="9.545"/>
						</g>
						<rect x="420.417" y="283.198" fill-rule="evenodd" clip-rule="evenodd" width="1.05" height="1.771"/>
						<rect x="420.417" y="280.021" fill-rule="evenodd" clip-rule="evenodd" width="1.05" height="1.771"/>
						<rect x="420.417" y="276.854" fill-rule="evenodd" clip-rule="evenodd" width="1.05" height="1.771"/>
					</g>
				</g>
				<g>
					<g>
						<g>
							<rect x="415.846" y="285.676" fill="none" width="10.499" height="9.544"/>
						</g>
						<rect x="420.417" y="292.743" fill-rule="evenodd" clip-rule="evenodd" width="1.05" height="1.771"/>
						<rect x="420.417" y="289.565" fill-rule="evenodd" clip-rule="evenodd" width="1.05" height="1.771"/>
						<rect x="420.417" y="286.398" fill-rule="evenodd" clip-rule="evenodd" width="1.05" height="1.771"/>
					</g>
				</g>
				<g>
					<g>
						<g>
							<rect x="415.846" y="295.22" fill="none" width="10.499" height="9.545"/>
						</g>
						<rect x="420.417" y="302.288" fill-rule="evenodd" clip-rule="evenodd" width="1.05" height="1.771"/>
						<rect x="420.417" y="299.11" fill-rule="evenodd" clip-rule="evenodd" width="1.05" height="1.771"/>
						<rect x="420.417" y="295.943" fill-rule="evenodd" clip-rule="evenodd" width="1.05" height="1.771"/>
					</g>
				</g>
				<g>
					<g>
						<g>
							<rect x="415.846" y="304.765" fill="none" width="10.499" height="9.545"/>
						</g>
						<rect x="420.417" y="311.832" fill-rule="evenodd" clip-rule="evenodd" width="1.05" height="1.772"/>
						<rect x="420.417" y="308.655" fill-rule="evenodd" clip-rule="evenodd" width="1.05" height="1.771"/>
						<rect x="420.417" y="305.488" fill-rule="evenodd" clip-rule="evenodd" width="1.05" height="1.771"/>
					</g>
				</g>
				<g>
					<g>
						<g>
							<rect x="415.846" y="314.31" fill="none" width="10.499" height="9.545"/>
						</g>
						<rect x="420.417" y="321.377" fill-rule="evenodd" clip-rule="evenodd" width="1.05" height="1.771"/>
						<rect x="420.417" y="318.199" fill-rule="evenodd" clip-rule="evenodd" width="1.05" height="1.772"/>
						<rect x="420.417" y="315.032" fill-rule="evenodd" clip-rule="evenodd" width="1.05" height="1.772"/>
					</g>
				</g>
				<g>
					<g>
						<g>
							<rect x="415.846" y="323.854" fill="none" width="10.499" height="9.544"/>
						</g>
						<rect x="420.417" y="330.922" fill-rule="evenodd" clip-rule="evenodd" width="1.05" height="1.771"/>
						<rect x="420.417" y="327.744" fill-rule="evenodd" clip-rule="evenodd" width="1.05" height="1.771"/>
						<rect x="420.417" y="324.577" fill-rule="evenodd" clip-rule="evenodd" width="1.05" height="1.771"/>
					</g>
				</g>
				<g>
					<g>
						<g>
							<rect x="415.846" y="333.398" fill="none" width="10.499" height="9.545"/>
						</g>
						<rect x="420.417" y="340.467" fill-rule="evenodd" clip-rule="evenodd" width="1.05" height="1.771"/>
						<rect x="420.417" y="337.289" fill-rule="evenodd" clip-rule="evenodd" width="1.05" height="1.771"/>
						<rect x="420.417" y="334.122" fill-rule="evenodd" clip-rule="evenodd" width="1.05" height="1.771"/>
					</g>
				</g>
				<g>
					<g>
						<g>
							<rect x="415.846" y="342.943" fill="none" width="10.499" height="9.545"/>
						</g>
						<rect x="420.417" y="350.012" fill-rule="evenodd" clip-rule="evenodd" width="1.05" height="1.771"/>
						<rect x="420.417" y="346.834" fill-rule="evenodd" clip-rule="evenodd" width="1.05" height="1.771"/>
						<rect x="420.417" y="343.667" fill-rule="evenodd" clip-rule="evenodd" width="1.05" height="1.771"/>
					</g>
				</g>
				<g>
					<g>
						<g>
							<rect x="415.846" y="352.488" fill="none" width="10.499" height="9.545"/>
						</g>
						<rect x="420.417" y="359.556" fill-rule="evenodd" clip-rule="evenodd" width="1.05" height="1.772"/>
						<rect x="420.417" y="356.379" fill-rule="evenodd" clip-rule="evenodd" width="1.05" height="1.771"/>
						<rect x="420.417" y="353.211" fill-rule="evenodd" clip-rule="evenodd" width="1.05" height="1.771"/>
					</g>
				</g>
				<g>
					<g>
						<g>
							<rect x="415.846" y="362.033" fill="none" width="10.499" height="9.544"/>
						</g>
						<rect x="420.417" y="369.101" fill-rule="evenodd" clip-rule="evenodd" width="1.05" height="1.771"/>
						<rect x="420.417" y="365.923" fill-rule="evenodd" clip-rule="evenodd" width="1.05" height="1.772"/>
						<rect x="420.417" y="362.756" fill-rule="evenodd" clip-rule="evenodd" width="1.05" height="1.771"/>
					</g>
				</g>
				<g>
					<g>
						<g>
							<rect x="415.846" y="371.577" fill="none" width="10.499" height="9.545"/>
						</g>
						<rect x="420.417" y="378.646" fill-rule="evenodd" clip-rule="evenodd" width="1.05" height="1.771"/>
						<rect x="420.417" y="375.468" fill-rule="evenodd" clip-rule="evenodd" width="1.05" height="1.771"/>
						<rect x="420.417" y="372.301" fill-rule="evenodd" clip-rule="evenodd" width="1.05" height="1.771"/>
					</g>
				</g>
				<g>
					<g>
						<g>
							<rect x="415.846" y="381.122" fill="none" width="10.499" height="9.545"/>
						</g>
						<rect x="420.417" y="388.19" fill-rule="evenodd" clip-rule="evenodd" width="1.05" height="1.771"/>
						<rect x="420.417" y="385.013" fill-rule="evenodd" clip-rule="evenodd" width="1.05" height="1.771"/>
						<rect x="420.417" y="381.846" fill-rule="evenodd" clip-rule="evenodd" width="1.05" height="1.771"/>
					</g>
				</g>
				<g>
					<g>
						<g>
							<rect x="415.846" y="390.667" fill="none" width="10.499" height="9.545"/>
						</g>
						<rect x="420.417" y="397.734" fill-rule="evenodd" clip-rule="evenodd" width="1.05" height="1.771"/>
						<rect x="420.417" y="394.558" fill-rule="evenodd" clip-rule="evenodd" width="1.05" height="1.771"/>
						<rect x="420.417" y="391.391" fill-rule="evenodd" clip-rule="evenodd" width="1.05" height="1.771"/>
					</g>
				</g>
				<g>
					<g>
						<g>
							<rect x="415.846" y="400.212" fill="none" width="10.499" height="9.544"/>
						</g>
						<rect x="420.417" y="407.279" fill-rule="evenodd" clip-rule="evenodd" width="1.05" height="1.771"/>
						<rect x="420.417" y="404.102" fill-rule="evenodd" clip-rule="evenodd" width="1.05" height="1.771"/>
						<rect x="420.417" y="400.935" fill-rule="evenodd" clip-rule="evenodd" width="1.05" height="1.771"/>
					</g>
				</g>
				<g>
					<g>
						<g>
							<rect x="415.846" y="409.756" fill="none" width="10.499" height="9.545"/>
						</g>
						<rect x="420.417" y="416.824" fill-rule="evenodd" clip-rule="evenodd" width="1.05" height="1.771"/>
						<rect x="420.417" y="413.646" fill-rule="evenodd" clip-rule="evenodd" width="1.05" height="1.771"/>
						<rect x="420.417" y="410.479" fill-rule="evenodd" clip-rule="evenodd" width="1.05" height="1.771"/>
					</g>
				</g>
				<g>
					<g>
						<g>
							<rect x="415.846" y="419.301" fill="none" width="10.499" height="9.545"/>
						</g>
						<rect x="420.417" y="426.369" fill-rule="evenodd" clip-rule="evenodd" width="1.05" height="1.771"/>
						<rect x="420.417" y="423.191" fill-rule="evenodd" clip-rule="evenodd" width="1.05" height="1.771"/>
						<rect x="420.417" y="420.024" fill-rule="evenodd" clip-rule="evenodd" width="1.05" height="1.771"/>
					</g>
				</g>
				<g>
					<g>
						<g>
							<rect x="415.846" y="428.846" fill="none" width="10.499" height="9.545"/>
						</g>
						<rect x="420.417" y="435.914" fill-rule="evenodd" clip-rule="evenodd" width="1.05" height="1.771"/>
						<rect x="420.417" y="432.736" fill-rule="evenodd" clip-rule="evenodd" width="1.05" height="1.771"/>
						<rect x="420.417" y="429.568" fill-rule="evenodd" clip-rule="evenodd" width="1.05" height="1.772"/>
					</g>
				</g>
				<g>
					<g>
						<g>
							<rect x="415.846" y="438.391" fill="none" width="10.499" height="9.545"/>
						</g>
						<rect x="420.417" y="445.458" fill-rule="evenodd" clip-rule="evenodd" width="1.05" height="1.771"/>
						<rect x="420.417" y="442.28" fill-rule="evenodd" clip-rule="evenodd" width="1.05" height="1.772"/>
						<rect x="420.417" y="439.113" fill-rule="evenodd" clip-rule="evenodd" width="1.05" height="1.771"/>
					</g>
				</g>
				<g>
					<g>
						<g>
							<rect x="415.846" y="447.936" fill="none" width="10.499" height="9.544"/>
						</g>
						<rect x="420.417" y="455.003" fill-rule="evenodd" clip-rule="evenodd" width="1.05" height="1.771"/>
						<rect x="420.417" y="451.825" fill-rule="evenodd" clip-rule="evenodd" width="1.05" height="1.771"/>
						<rect x="420.417" y="448.658" fill-rule="evenodd" clip-rule="evenodd" width="1.05" height="1.771"/>
					</g>
				</g>
				<g>
					<g>
						<g>
							<rect x="415.846" y="457.479" fill="none" width="10.499" height="9.545"/>
						</g>
						<rect x="420.417" y="464.548" fill-rule="evenodd" clip-rule="evenodd" width="1.05" height="1.771"/>
						<rect x="420.417" y="461.37" fill-rule="evenodd" clip-rule="evenodd" width="1.05" height="1.771"/>
						<rect x="420.417" y="458.203" fill-rule="evenodd" clip-rule="evenodd" width="1.05" height="1.771"/>
					</g>
				</g>
			</g>
		</g>
	</g>
</g>
<g id="Layer_35">
</g>
<g id="Layer_36">
</g>
<g id="Layer_37">
</g>
<g id="Layer_38">
</g>
<g id="Layer_39">
</g>
<g id="Layer_40">
</g>
<g id="Layer_41">
</g>
<g id="Layer_43">
</g>
</svg>
