<?xml version="1.0" encoding="utf-8"?>
<!-- Generator: Adobe Illustrator 16.0.0, SVG Export Plug-In . SVG Version: 6.00 Build 0)  -->
<!DOCTYPE svg PUBLIC "-//W3C//DTD SVG 1.1//EN" "http://www.w3.org/Graphics/SVG/1.1/DTD/svg11.dtd">
<svg version="1.1" xmlns="http://www.w3.org/2000/svg" xmlns:xlink="http://www.w3.org/1999/xlink" x="0px" y="0px"
	 width="841.89px" height="595.28px" viewBox="0 0 841.89 595.28" enable-background="new 0 0 841.89 595.28" xml:space="preserve">
<g id="Layer_1">
</g>
<g id="Layer_2">
</g>
<g id="Layer_3">
</g>
<g id="Layer_4">
</g>
<g id="Layer_5">
</g>
<g id="Layer_6">
</g>
<g id="Layer_7">
</g>
<g id="Layer_8">
</g>
<g id="Layer_9">
</g>
<g id="Layer_10">
</g>
<g id="Layer_11">
</g>
<g id="Layer_12">
</g>
<g id="Layer_13">
</g>
<g id="Layer_14">
</g>
<g id="Layer_15">
</g>
<g id="Layer_16">
</g>
<g id="Layer_17">
</g>
<g id="Layer_18">
</g>
<g id="Layer_19">
</g>
<g id="Layer_20">
</g>
<g id="Layer_21">
</g>
<g id="Layer_22">
	<g>
		<g>
			<g>
				<g>
					<g>
						<g>
							<g>
								<rect x="415.441" y="488.418" fill="none" width="10.499" height="9.346"/>
							</g>
							<rect x="420.319" y="489.108" fill-rule="evenodd" clip-rule="evenodd" width="1.05" height="1.734"/>
							<rect x="420.319" y="492.22" fill-rule="evenodd" clip-rule="evenodd" width="1.05" height="1.734"/>
							<rect x="420.319" y="495.32" fill-rule="evenodd" clip-rule="evenodd" width="1.05" height="1.735"/>
						</g>
					</g>
					<g>
						<g>
							<g>
								<rect x="415.441" y="479.071" fill="none" width="10.499" height="9.347"/>
							</g>
							<rect x="420.319" y="479.762" fill-rule="evenodd" clip-rule="evenodd" width="1.05" height="1.735"/>
							<rect x="420.319" y="482.873" fill-rule="evenodd" clip-rule="evenodd" width="1.05" height="1.735"/>
							<rect x="420.319" y="485.975" fill-rule="evenodd" clip-rule="evenodd" width="1.05" height="1.734"/>
						</g>
					</g>
					<g>
						<g>
							<g>
								<rect x="415.441" y="469.726" fill="none" width="10.499" height="9.346"/>
							</g>
							<rect x="420.319" y="470.416" fill-rule="evenodd" clip-rule="evenodd" width="1.05" height="1.734"/>
							<rect x="420.319" y="473.527" fill-rule="evenodd" clip-rule="evenodd" width="1.05" height="1.734"/>
							<rect x="420.319" y="476.629" fill-rule="evenodd" clip-rule="evenodd" width="1.05" height="1.734"/>
						</g>
					</g>
					<g>
						<g>
							<g>
								<rect x="415.441" y="460.379" fill="none" width="10.499" height="9.347"/>
							</g>
							<rect x="420.319" y="461.069" fill-rule="evenodd" clip-rule="evenodd" width="1.05" height="1.735"/>
							<rect x="420.319" y="464.181" fill-rule="evenodd" clip-rule="evenodd" width="1.05" height="1.735"/>
							<rect x="420.319" y="467.282" fill-rule="evenodd" clip-rule="evenodd" width="1.05" height="1.734"/>
						</g>
					</g>
					<g>
						<g>
							<g>
								<rect x="415.441" y="451.033" fill="none" width="10.499" height="9.346"/>
							</g>
							<rect x="420.319" y="451.724" fill-rule="evenodd" clip-rule="evenodd" width="1.05" height="1.734"/>
							<rect x="420.319" y="454.835" fill-rule="evenodd" clip-rule="evenodd" width="1.05" height="1.734"/>
							<rect x="420.319" y="457.937" fill-rule="evenodd" clip-rule="evenodd" width="1.05" height="1.734"/>
						</g>
					</g>
					<g>
						<g>
							<g>
								<rect x="415.441" y="441.687" fill="none" width="10.499" height="9.347"/>
							</g>
							<rect x="420.319" y="442.377" fill-rule="evenodd" clip-rule="evenodd" width="1.05" height="1.735"/>
							<rect x="420.319" y="445.488" fill-rule="evenodd" clip-rule="evenodd" width="1.05" height="1.735"/>
							<rect x="420.319" y="448.59" fill-rule="evenodd" clip-rule="evenodd" width="1.05" height="1.735"/>
						</g>
					</g>
					<g>
						<g>
							<g>
								<rect x="415.441" y="432.341" fill="none" width="10.499" height="9.346"/>
							</g>
							<rect x="420.319" y="433.031" fill-rule="evenodd" clip-rule="evenodd" width="1.05" height="1.734"/>
							<rect x="420.319" y="436.143" fill-rule="evenodd" clip-rule="evenodd" width="1.05" height="1.734"/>
							<rect x="420.319" y="439.244" fill-rule="evenodd" clip-rule="evenodd" width="1.05" height="1.734"/>
						</g>
					</g>
					<g>
						<g>
							<g>
								<rect x="415.442" y="422.994" fill="none" width="10.499" height="9.347"/>
							</g>
							<rect x="420.319" y="423.685" fill-rule="evenodd" clip-rule="evenodd" width="1.05" height="1.735"/>
							<rect x="420.319" y="426.796" fill-rule="evenodd" clip-rule="evenodd" width="1.05" height="1.735"/>
							<rect x="420.319" y="429.897" fill-rule="evenodd" clip-rule="evenodd" width="1.05" height="1.735"/>
						</g>
					</g>
					<g>
						<g>
							<g>
								<rect x="415.441" y="413.648" fill="none" width="10.499" height="9.346"/>
							</g>
							<rect x="420.319" y="414.339" fill-rule="evenodd" clip-rule="evenodd" width="1.05" height="1.734"/>
							<rect x="420.319" y="417.45" fill-rule="evenodd" clip-rule="evenodd" width="1.05" height="1.734"/>
							<rect x="420.319" y="420.552" fill-rule="evenodd" clip-rule="evenodd" width="1.05" height="1.734"/>
						</g>
					</g>
					<g>
						<g>
							<g>
								<rect x="415.441" y="404.302" fill="none" width="10.499" height="9.347"/>
							</g>
							<rect x="420.319" y="404.992" fill-rule="evenodd" clip-rule="evenodd" width="1.05" height="1.735"/>
							<rect x="420.319" y="408.104" fill-rule="evenodd" clip-rule="evenodd" width="1.05" height="1.734"/>
							<rect x="420.319" y="411.205" fill-rule="evenodd" clip-rule="evenodd" width="1.05" height="1.735"/>
						</g>
					</g>
					<g>
						<g>
							<g>
								<rect x="415.441" y="394.956" fill="none" width="10.499" height="9.346"/>
							</g>
							<rect x="420.319" y="395.646" fill-rule="evenodd" clip-rule="evenodd" width="1.05" height="1.734"/>
							<rect x="420.319" y="398.758" fill-rule="evenodd" clip-rule="evenodd" width="1.05" height="1.734"/>
							<rect x="420.319" y="401.859" fill-rule="evenodd" clip-rule="evenodd" width="1.05" height="1.734"/>
						</g>
					</g>
					<g>
						<g>
							<g>
								<rect x="415.441" y="385.609" fill="none" width="10.499" height="9.347"/>
							</g>
							<rect x="420.319" y="386.301" fill-rule="evenodd" clip-rule="evenodd" width="1.05" height="1.734"/>
							<rect x="420.319" y="389.412" fill-rule="evenodd" clip-rule="evenodd" width="1.05" height="1.734"/>
							<rect x="420.319" y="392.513" fill-rule="evenodd" clip-rule="evenodd" width="1.05" height="1.735"/>
						</g>
					</g>
					<g>
						<g>
							<g>
								<rect x="415.441" y="376.264" fill="none" width="10.499" height="9.346"/>
							</g>
							<rect x="420.319" y="376.954" fill-rule="evenodd" clip-rule="evenodd" width="1.05" height="1.734"/>
							<rect x="420.319" y="380.065" fill-rule="evenodd" clip-rule="evenodd" width="1.05" height="1.735"/>
							<rect x="420.319" y="383.167" fill-rule="evenodd" clip-rule="evenodd" width="1.05" height="1.734"/>
						</g>
					</g>
					<g>
						<g>
							<g>
								<rect x="415.441" y="366.917" fill="none" width="10.499" height="9.347"/>
							</g>
							<rect x="420.319" y="367.608" fill-rule="evenodd" clip-rule="evenodd" width="1.05" height="1.734"/>
							<rect x="420.319" y="370.72" fill-rule="evenodd" clip-rule="evenodd" width="1.05" height="1.734"/>
							<rect x="420.319" y="373.82" fill-rule="evenodd" clip-rule="evenodd" width="1.05" height="1.735"/>
						</g>
					</g>
					<g>
						<g>
							<g>
								<rect x="415.441" y="357.571" fill="none" width="10.499" height="9.346"/>
							</g>
							<rect x="420.319" y="358.262" fill-rule="evenodd" clip-rule="evenodd" width="1.05" height="1.735"/>
							<rect x="420.319" y="361.373" fill-rule="evenodd" clip-rule="evenodd" width="1.05" height="1.735"/>
							<rect x="420.319" y="364.475" fill-rule="evenodd" clip-rule="evenodd" width="1.05" height="1.734"/>
						</g>
					</g>
					<g>
						<g>
							<g>
								<rect x="415.441" y="348.225" fill="none" width="10.499" height="9.347"/>
							</g>
							<rect x="420.319" y="348.916" fill-rule="evenodd" clip-rule="evenodd" width="1.05" height="1.734"/>
							<rect x="420.319" y="352.027" fill-rule="evenodd" clip-rule="evenodd" width="1.05" height="1.734"/>
							<rect x="420.319" y="355.128" fill-rule="evenodd" clip-rule="evenodd" width="1.05" height="1.735"/>
						</g>
					</g>
					<g>
						<g>
							<g>
								<rect x="415.441" y="338.879" fill="none" width="10.499" height="9.346"/>
							</g>
							<rect x="420.319" y="339.569" fill-rule="evenodd" clip-rule="evenodd" width="1.05" height="1.735"/>
							<rect x="420.319" y="342.681" fill-rule="evenodd" clip-rule="evenodd" width="1.05" height="1.735"/>
							<rect x="420.319" y="345.782" fill-rule="evenodd" clip-rule="evenodd" width="1.05" height="1.734"/>
						</g>
					</g>
					<g>
						<g>
							<g>
								<rect x="415.441" y="329.533" fill="none" width="10.499" height="9.346"/>
							</g>
							<rect x="420.319" y="330.224" fill-rule="evenodd" clip-rule="evenodd" width="1.05" height="1.734"/>
							<rect x="420.319" y="333.335" fill-rule="evenodd" clip-rule="evenodd" width="1.05" height="1.734"/>
							<rect x="420.319" y="336.436" fill-rule="evenodd" clip-rule="evenodd" width="1.05" height="1.735"/>
						</g>
					</g>
					<g>
						<g>
							<g>
								<rect x="415.441" y="320.187" fill="none" width="10.499" height="9.347"/>
							</g>
							<rect x="420.319" y="320.877" fill-rule="evenodd" clip-rule="evenodd" width="1.05" height="1.735"/>
							<rect x="420.319" y="323.988" fill-rule="evenodd" clip-rule="evenodd" width="1.05" height="1.735"/>
							<rect x="420.319" y="327.09" fill-rule="evenodd" clip-rule="evenodd" width="1.05" height="1.734"/>
						</g>
					</g>
					<g>
						<g>
							<g>
								<rect x="415.441" y="310.841" fill="none" width="10.499" height="9.346"/>
							</g>
							<rect x="420.319" y="311.531" fill-rule="evenodd" clip-rule="evenodd" width="1.05" height="1.734"/>
							<rect x="420.319" y="314.643" fill-rule="evenodd" clip-rule="evenodd" width="1.05" height="1.734"/>
							<rect x="420.319" y="317.744" fill-rule="evenodd" clip-rule="evenodd" width="1.05" height="1.734"/>
						</g>
					</g>
					<g>
						<g>
							<g>
								<rect x="415.441" y="301.494" fill="none" width="10.499" height="9.347"/>
							</g>
							<rect x="420.319" y="302.185" fill-rule="evenodd" clip-rule="evenodd" width="1.05" height="1.735"/>
							<rect x="420.319" y="305.296" fill-rule="evenodd" clip-rule="evenodd" width="1.05" height="1.735"/>
							<rect x="420.319" y="308.397" fill-rule="evenodd" clip-rule="evenodd" width="1.05" height="1.735"/>
						</g>
					</g>
					<g>
						<g>
							<g>
								<rect x="415.441" y="292.148" fill="none" width="10.499" height="9.346"/>
							</g>
							<rect x="420.319" y="292.839" fill-rule="evenodd" clip-rule="evenodd" width="1.05" height="1.734"/>
							<rect x="420.319" y="295.95" fill-rule="evenodd" clip-rule="evenodd" width="1.05" height="1.735"/>
							<rect x="420.319" y="299.052" fill-rule="evenodd" clip-rule="evenodd" width="1.05" height="1.734"/>
						</g>
					</g>
					<g>
						<g>
							<g>
								<rect x="415.44" y="282.802" fill="none" width="10.499" height="9.346"/>
							</g>
							<rect x="420.319" y="283.493" fill-rule="evenodd" clip-rule="evenodd" width="1.05" height="1.735"/>
							<rect x="420.319" y="286.604" fill-rule="evenodd" clip-rule="evenodd" width="1.05" height="1.735"/>
							<rect x="420.319" y="289.705" fill-rule="evenodd" clip-rule="evenodd" width="1.05" height="1.735"/>
						</g>
					</g>
					<g>
						<g>
							<g>
								<rect x="415.44" y="273.456" fill="none" width="10.499" height="9.346"/>
							</g>
							<rect x="420.319" y="274.146" fill-rule="evenodd" clip-rule="evenodd" width="1.05" height="1.735"/>
							<rect x="420.319" y="277.258" fill-rule="evenodd" clip-rule="evenodd" width="1.05" height="1.735"/>
							<rect x="420.319" y="280.359" fill-rule="evenodd" clip-rule="evenodd" width="1.05" height="1.735"/>
						</g>
					</g>
					<g>
						<g>
							<g>
								<rect x="415.44" y="264.11" fill="none" width="10.499" height="9.346"/>
							</g>
							<rect x="420.319" y="264.8" fill-rule="evenodd" clip-rule="evenodd" width="1.05" height="1.735"/>
							<rect x="420.319" y="267.912" fill-rule="evenodd" clip-rule="evenodd" width="1.05" height="1.735"/>
							<rect x="420.319" y="271.013" fill-rule="evenodd" clip-rule="evenodd" width="1.05" height="1.735"/>
						</g>
					</g>
					<g>
						<g>
							<g>
								<rect x="415.44" y="254.764" fill="none" width="10.499" height="9.346"/>
							</g>
							<rect x="420.319" y="255.454" fill-rule="evenodd" clip-rule="evenodd" width="1.05" height="1.735"/>
							<rect x="420.319" y="258.565" fill-rule="evenodd" clip-rule="evenodd" width="1.05" height="1.735"/>
							<rect x="420.319" y="261.667" fill-rule="evenodd" clip-rule="evenodd" width="1.05" height="1.734"/>
						</g>
					</g>
					<g>
						<g>
							<g>
								<rect x="415.44" y="245.417" fill="none" width="10.499" height="9.346"/>
							</g>
							<rect x="420.319" y="246.108" fill-rule="evenodd" clip-rule="evenodd" width="1.05" height="1.735"/>
							<rect x="420.319" y="249.219" fill-rule="evenodd" clip-rule="evenodd" width="1.05" height="1.735"/>
							<rect x="420.319" y="252.321" fill-rule="evenodd" clip-rule="evenodd" width="1.05" height="1.734"/>
						</g>
					</g>
					<g>
						<g>
							<g>
								<rect x="415.44" y="236.071" fill="none" width="10.499" height="9.346"/>
							</g>
							<rect x="420.319" y="236.762" fill-rule="evenodd" clip-rule="evenodd" width="1.05" height="1.735"/>
							<rect x="420.319" y="239.873" fill-rule="evenodd" clip-rule="evenodd" width="1.05" height="1.735"/>
							<rect x="420.319" y="242.975" fill-rule="evenodd" clip-rule="evenodd" width="1.05" height="1.734"/>
						</g>
					</g>
					<g>
						<g>
							<g>
								<rect x="415.44" y="226.725" fill="none" width="10.499" height="9.346"/>
							</g>
							<rect x="420.319" y="227.416" fill-rule="evenodd" clip-rule="evenodd" width="1.05" height="1.735"/>
							<rect x="420.319" y="230.527" fill-rule="evenodd" clip-rule="evenodd" width="1.05" height="1.735"/>
							<rect x="420.319" y="233.628" fill-rule="evenodd" clip-rule="evenodd" width="1.05" height="1.735"/>
						</g>
					</g>
					<g>
						<g>
							<g>
								<rect x="415.44" y="217.379" fill="none" width="10.499" height="9.346"/>
							</g>
							<rect x="420.318" y="218.069" fill-rule="evenodd" clip-rule="evenodd" width="1.05" height="1.735"/>
							<rect x="420.318" y="221.181" fill-rule="evenodd" clip-rule="evenodd" width="1.05" height="1.735"/>
							<rect x="420.318" y="224.282" fill-rule="evenodd" clip-rule="evenodd" width="1.05" height="1.735"/>
						</g>
					</g>
				</g>
			</g>
		</g>
		<path fill="none" stroke="#000000" stroke-miterlimit="10" d="M420.691,296.969"/>
		<line fill="none" stroke="#000000" stroke-miterlimit="10" x1="386.333" y1="297.325" x2="391.42" y2="327.007"/>
		<line fill="none" stroke="#000000" stroke-miterlimit="10" x1="420.69" y1="217.379" x2="386.333" y2="297.325"/>
		<line fill="none" stroke="#000000" stroke-miterlimit="10" x1="455.046" y1="297.325" x2="420.69" y2="217.379"/>
		<line fill="none" stroke="#000000" stroke-miterlimit="10" x1="420.691" y1="296.969" x2="450.374" y2="327.007"/>
		<polyline fill="none" stroke="#000000" stroke-miterlimit="10" points="420.691,296.969 391.421,327.007 320.47,397.545 
			420.691,497.764 520.91,397.545 450.374,327.007 		"/>
		<line fill="none" stroke="#000000" stroke-miterlimit="10" x1="455.046" y1="297.325" x2="450.02" y2="326.649"/>
	</g>
</g>
<g id="Layer_24">
</g>
<g id="Layer_25">
</g>
<g id="Layer_26">
</g>
<g id="Layer_27">
</g>
<g id="Layer_28">
</g>
<g id="Layer_29">
</g>
<g id="Layer_30">
</g>
<g id="Layer_31">
</g>
<g id="Layer_32">
</g>
<g id="Layer_33">
</g>
<g id="Layer_34">
</g>
<g id="Layer_35">
</g>
<g id="Layer_36">
</g>
<g id="Layer_37">
</g>
<g id="Layer_38">
</g>
<g id="Layer_39">
</g>
<g id="Layer_40">
</g>
<g id="Layer_41">
</g>
<g id="Layer_43">
</g>
</svg>
