<?xml version="1.0" encoding="utf-8"?>
<!-- Generator: Adobe Illustrator 16.0.0, SVG Export Plug-In . SVG Version: 6.00 Build 0)  -->
<!DOCTYPE svg PUBLIC "-//W3C//DTD SVG 1.1//EN" "http://www.w3.org/Graphics/SVG/1.1/DTD/svg11.dtd">
<svg version="1.1" xmlns="http://www.w3.org/2000/svg" xmlns:xlink="http://www.w3.org/1999/xlink" x="0px" y="0px"
	 width="841.89px" height="595.28px" viewBox="0 0 841.89 595.28" enable-background="new 0 0 841.89 595.28" xml:space="preserve">
<g id="Layer_1">
</g>
<g id="Layer_2">
</g>
<g id="Layer_3">
</g>
<g id="Layer_4">
</g>
<g id="Layer_5">
</g>
<g id="Layer_6">
</g>
<g id="Layer_7">
</g>
<g id="Layer_8">
</g>
<g id="Layer_9">
</g>
<g id="Layer_10">
</g>
<g id="Layer_11">
</g>
<g id="Layer_12">
</g>
<g id="Layer_13">
</g>
<g id="Layer_14">
</g>
<g id="Layer_15">
</g>
<g id="Layer_16">
</g>
<g id="Layer_17">
</g>
<g id="Layer_18">
</g>
<g id="Layer_19">
</g>
<g id="Layer_20">
</g>
<g id="Layer_21">
</g>
<g id="Layer_22">
</g>
<g id="Layer_24">
</g>
<g id="Layer_25">
</g>
<g id="Layer_26">
</g>
<g id="Layer_27">
	<g>
		<g>
			<g>
				<polyline id="pion_38_" fill="none" stroke="#000000" stroke-miterlimit="10" points="504.632,400.24 420.625,297.051 
					337.257,400.24 				"/>
				<g>
					<g>
						<g>
							<g>
								<g>
									<g>
										
											<rect x="415.327" y="410.497" transform="matrix(-0.0039 1 -1 -0.0039 837.4567 -2.6955)" fill="none" width="9.488" height="10.499"/>
									</g>
									<rect x="419.712" y="411.703" fill-rule="evenodd" clip-rule="evenodd" width="1.05" height="1.762"/>
									<rect x="419.7" y="414.862" fill-rule="evenodd" clip-rule="evenodd" width="1.05" height="1.762"/>
									<rect x="419.687" y="418.01" fill-rule="evenodd" clip-rule="evenodd" width="1.05" height="1.762"/>
								</g>
							</g>
							<g>
								<g>
									<g>
										
											<rect x="415.364" y="401.008" transform="matrix(-0.0039 1 -1 -0.0039 828.0054 -12.2587)" fill="none" width="9.488" height="10.499"/>
									</g>
									<rect x="419.749" y="402.215" fill-rule="evenodd" clip-rule="evenodd" width="1.05" height="1.761"/>
									<rect x="419.737" y="405.374" fill-rule="evenodd" clip-rule="evenodd" width="1.05" height="1.761"/>
									<rect x="419.724" y="408.522" fill-rule="evenodd" clip-rule="evenodd" width="1.05" height="1.761"/>
								</g>
							</g>
							<g>
								<g>
									<g>
										
											<rect x="415.401" y="391.52" transform="matrix(-0.004 1 -1 -0.004 818.5758 -21.8009)" fill="none" width="9.489" height="10.499"/>
									</g>
									<rect x="419.787" y="392.727" fill-rule="evenodd" clip-rule="evenodd" width="1.05" height="1.761"/>
									<rect x="419.774" y="395.885" fill-rule="evenodd" clip-rule="evenodd" width="1.05" height="1.762"/>
									<rect x="419.762" y="399.033" fill-rule="evenodd" clip-rule="evenodd" width="1.05" height="1.762"/>
								</g>
							</g>
							<g>
								<g>
									<g>
										
											<rect x="415.438" y="382.031" transform="matrix(-0.0039 1 -1 -0.0039 809.1033 -31.3845)" fill="none" width="9.488" height="10.499"/>
									</g>
									<rect x="419.824" y="383.237" fill-rule="evenodd" clip-rule="evenodd" width="1.05" height="1.762"/>
									<rect x="419.811" y="386.396" fill-rule="evenodd" clip-rule="evenodd" width="1.05" height="1.761"/>
									<rect x="419.799" y="389.544" fill-rule="evenodd" clip-rule="evenodd" width="1.05" height="1.762"/>
								</g>
							</g>
							<g>
								<g>
									<g>
										
											<rect x="415.476" y="372.542" transform="matrix(-0.004 1 -1 -0.004 799.6736 -40.9282)" fill="none" width="9.488" height="10.499"/>
									</g>
									<rect x="419.861" y="373.749" fill-rule="evenodd" clip-rule="evenodd" width="1.05" height="1.762"/>
									<rect x="419.849" y="376.908" fill-rule="evenodd" clip-rule="evenodd" width="1.05" height="1.761"/>
									<rect x="419.836" y="380.057" fill-rule="evenodd" clip-rule="evenodd" width="1.05" height="1.761"/>
								</g>
							</g>
							<g>
								<g>
									<g>
										
											<rect x="415.513" y="363.054" transform="matrix(-0.0039 1 -1 -0.0039 790.2012 -50.5106)" fill="none" width="9.489" height="10.499"/>
									</g>
									<rect x="419.898" y="364.261" fill-rule="evenodd" clip-rule="evenodd" width="1.05" height="1.761"/>
									<rect x="419.886" y="367.419" fill-rule="evenodd" clip-rule="evenodd" width="1.05" height="1.762"/>
									<rect x="419.874" y="370.567" fill-rule="evenodd" clip-rule="evenodd" width="1.05" height="1.762"/>
								</g>
							</g>
							<g>
								<g>
									<g>
										
											<rect x="415.55" y="353.565" transform="matrix(-0.0039 1 -1 -0.0039 780.7499 -60.0734)" fill="none" width="9.488" height="10.499"/>
									</g>
									<rect x="419.936" y="354.771" fill-rule="evenodd" clip-rule="evenodd" width="1.05" height="1.762"/>
									<rect x="419.923" y="357.93" fill-rule="evenodd" clip-rule="evenodd" width="1.05" height="1.762"/>
									<rect x="419.911" y="361.079" fill-rule="evenodd" clip-rule="evenodd" width="1.05" height="1.762"/>
								</g>
							</g>
							<g>
								<g>
									<g>
										
											<rect x="415.587" y="344.076" transform="matrix(-0.0039 1 -1 -0.0039 771.2985 -69.6364)" fill="none" width="9.488" height="10.499"/>
									</g>
									<rect x="419.973" y="345.283" fill-rule="evenodd" clip-rule="evenodd" width="1.05" height="1.762"/>
									<rect x="419.96" y="348.442" fill-rule="evenodd" clip-rule="evenodd" width="1.05" height="1.761"/>
									<rect x="419.948" y="351.591" fill-rule="evenodd" clip-rule="evenodd" width="1.05" height="1.761"/>
								</g>
							</g>
							<g>
								<g>
									<g>
										
											<rect x="415.624" y="334.588" transform="matrix(-0.004 1 -1 -0.004 761.8691 -79.1817)" fill="none" width="9.489" height="10.499"/>
									</g>
									<rect x="420.01" y="335.795" fill-rule="evenodd" clip-rule="evenodd" width="1.05" height="1.761"/>
									<rect x="419.998" y="338.954" fill-rule="evenodd" clip-rule="evenodd" width="1.05" height="1.761"/>
									<rect x="419.985" y="342.103" fill-rule="evenodd" clip-rule="evenodd" width="1.05" height="1.761"/>
								</g>
							</g>
							<g>
								<g>
									<g>
										
											<rect x="415.662" y="325.099" transform="matrix(-0.0039 1 -1 -0.0039 752.3966 -88.7624)" fill="none" width="9.488" height="10.499"/>
									</g>
									<rect x="420.047" y="326.306" fill-rule="evenodd" clip-rule="evenodd" width="1.05" height="1.762"/>
									<rect x="420.035" y="329.464" fill-rule="evenodd" clip-rule="evenodd" width="1.05" height="1.762"/>
									<rect x="420.022" y="332.613" fill-rule="evenodd" clip-rule="evenodd" width="1.05" height="1.762"/>
								</g>
							</g>
							<g>
								<g>
									<g>
										
											<rect x="415.699" y="315.611" transform="matrix(-0.0039 1 -1 -0.0039 742.9454 -98.3256)" fill="none" width="9.488" height="10.499"/>
									</g>
									<rect x="420.084" y="316.817" fill-rule="evenodd" clip-rule="evenodd" width="1.05" height="1.762"/>
									<rect x="420.072" y="319.977" fill-rule="evenodd" clip-rule="evenodd" width="1.05" height="1.761"/>
									<rect x="420.06" y="323.125" fill-rule="evenodd" clip-rule="evenodd" width="1.05" height="1.761"/>
								</g>
							</g>
							<g>
								<g>
									<g>
										
											<rect x="415.736" y="306.122" transform="matrix(-0.004 1 -1 -0.004 733.5159 -107.8722)" fill="none" width="9.489" height="10.499"/>
									</g>
									<rect x="420.122" y="307.329" fill-rule="evenodd" clip-rule="evenodd" width="1.05" height="1.761"/>
									<rect x="420.11" y="310.488" fill-rule="evenodd" clip-rule="evenodd" width="1.05" height="1.761"/>
									<rect x="420.097" y="313.637" fill-rule="evenodd" clip-rule="evenodd" width="1.05" height="1.761"/>
								</g>
							</g>
							<g>
								<g>
									<g>
										
											<rect x="415.774" y="296.633" transform="matrix(-0.0039 1 -1 -0.0039 724.0432 -117.4514)" fill="none" width="9.488" height="10.499"/>
									</g>
									<rect x="420.159" y="297.841" fill-rule="evenodd" clip-rule="evenodd" width="1.05" height="1.761"/>
									<rect x="420.146" y="300.999" fill-rule="evenodd" clip-rule="evenodd" width="1.05" height="1.762"/>
									<rect x="420.134" y="304.147" fill-rule="evenodd" clip-rule="evenodd" width="1.05" height="1.762"/>
								</g>
							</g>
						</g>
					</g>
				</g>
				<path fill="none" stroke="#000000" stroke-miterlimit="10" d="M420.521,296.969"/>
				<g>
					<g>
						<g>
							<g>
								<g>
									<g>
										
											<rect x="466.626" y="362.147" transform="matrix(0.6951 -0.7189 0.7189 0.6951 -120.3419 451.0569)" fill="none" width="9.882" height="10.498"/>
									</g>
									
										<rect x="468.642" y="368.74" transform="matrix(0.7186 0.6954 -0.6954 0.7186 389.0651 -222.2446)" fill-rule="evenodd" clip-rule="evenodd" width="1.05" height="1.835"/>
									
										<rect x="470.929" y="366.375" transform="matrix(0.7186 0.6954 -0.6954 0.7186 388.0637 -224.5002)" fill-rule="evenodd" clip-rule="evenodd" width="1.05" height="1.835"/>
									
										<rect x="473.208" y="364.018" transform="matrix(0.7186 0.6954 -0.6954 0.7186 387.0657 -226.7485)" fill-rule="evenodd" clip-rule="evenodd" width="1.05" height="1.835"/>
								</g>
							</g>
							<g>
								<g>
									<g>
										
											<rect x="459.758" y="369.251" transform="matrix(0.6951 -0.7189 0.7189 0.6951 -127.5443 448.2853)" fill="none" width="9.882" height="10.499"/>
									</g>
									
										<rect x="461.773" y="375.845" transform="matrix(0.7186 0.6954 -0.6954 0.7186 392.0728 -215.4692)" fill-rule="evenodd" clip-rule="evenodd" width="1.05" height="1.835"/>
									
										<rect x="464.06" y="373.48" transform="matrix(0.7186 0.6954 -0.6954 0.7186 391.0714 -217.7249)" fill-rule="evenodd" clip-rule="evenodd" width="1.05" height="1.835"/>
									
										<rect x="466.339" y="371.122" transform="matrix(0.7186 0.6954 -0.6954 0.7186 390.0735 -219.9731)" fill-rule="evenodd" clip-rule="evenodd" width="1.05" height="1.835"/>
								</g>
							</g>
							<g>
								<g>
									<g>
										
											<rect x="452.889" y="376.356" transform="matrix(0.6951 -0.7189 0.7189 0.6951 -134.7465 445.5135)" fill="none" width="9.882" height="10.499"/>
									</g>
									
										<rect x="454.905" y="382.95" transform="matrix(0.7191 0.6949 -0.6949 0.7191 394.6844 -208.6534)" fill-rule="evenodd" clip-rule="evenodd" width="1.05" height="1.834"/>
									
										<rect x="457.192" y="380.584" transform="matrix(0.7191 0.6949 -0.6949 0.7191 393.6832 -210.9067)" fill-rule="evenodd" clip-rule="evenodd" width="1.05" height="1.834"/>
									
										<rect x="459.471" y="378.227" transform="matrix(0.7186 0.6954 -0.6954 0.7186 393.0812 -213.1978)" fill-rule="evenodd" clip-rule="evenodd" width="1.05" height="1.835"/>
								</g>
							</g>
							<g>
								<g>
									<g>
										
											<rect x="446.02" y="383.46" transform="matrix(0.6951 -0.7189 0.7189 0.6951 -141.9486 442.7417)" fill="none" width="9.882" height="10.499"/>
									</g>
									
										<rect x="448.036" y="390.054" transform="matrix(0.7191 0.6949 -0.6949 0.7191 397.692 -201.8846)" fill-rule="evenodd" clip-rule="evenodd" width="1.05" height="1.834"/>
									
										<rect x="450.323" y="387.689" transform="matrix(0.7191 0.6949 -0.6949 0.7191 396.6907 -204.138)" fill-rule="evenodd" clip-rule="evenodd" width="1.05" height="1.834"/>
									
										<rect x="452.602" y="385.332" transform="matrix(0.7191 0.6949 -0.6949 0.7191 395.6928 -206.3842)" fill-rule="evenodd" clip-rule="evenodd" width="1.05" height="1.834"/>
								</g>
							</g>
							<g>
								<g>
									<g>
										
											<rect x="439.152" y="390.565" transform="matrix(0.6951 -0.7189 0.7189 0.6951 -149.1508 439.9699)" fill="none" width="9.882" height="10.499"/>
									</g>
									
										<rect x="441.168" y="397.159" transform="matrix(0.7191 0.6949 -0.6949 0.7191 400.6996 -195.1158)" fill-rule="evenodd" clip-rule="evenodd" width="1.05" height="1.834"/>
									
										<rect x="443.454" y="394.793" transform="matrix(0.7191 0.6949 -0.6949 0.7191 399.6983 -197.3693)" fill-rule="evenodd" clip-rule="evenodd" width="1.05" height="1.834"/>
									
										<rect x="445.734" y="392.436" transform="matrix(0.7191 0.6949 -0.6949 0.7191 398.7003 -199.6154)" fill-rule="evenodd" clip-rule="evenodd" width="1.05" height="1.834"/>
								</g>
							</g>
							<g>
								<g>
									<g>
										
											<rect x="432.283" y="397.669" transform="matrix(0.6951 -0.7189 0.7189 0.6951 -156.3528 437.1981)" fill="none" width="9.882" height="10.499"/>
									</g>
									
										<rect x="434.299" y="404.263" transform="matrix(0.7191 0.6949 -0.6949 0.7191 403.7071 -188.347)" fill-rule="evenodd" clip-rule="evenodd" width="1.05" height="1.834"/>
									
										<rect x="436.586" y="401.898" transform="matrix(0.7191 0.6949 -0.6949 0.7191 402.7058 -190.6005)" fill-rule="evenodd" clip-rule="evenodd" width="1.05" height="1.834"/>
									
										<rect x="438.865" y="399.541" transform="matrix(0.7191 0.6949 -0.6949 0.7191 401.7079 -192.8466)" fill-rule="evenodd" clip-rule="evenodd" width="1.05" height="1.834"/>
								</g>
							</g>
							<g>
								<g>
									<g>
										
											<rect x="425.414" y="404.774" transform="matrix(0.6951 -0.7189 0.7189 0.6951 -163.555 434.4263)" fill="none" width="9.882" height="10.499"/>
									</g>
									
										<rect x="427.43" y="411.368" transform="matrix(0.7191 0.6949 -0.6949 0.7191 406.7147 -181.5783)" fill-rule="evenodd" clip-rule="evenodd" width="1.05" height="1.834"/>
									
										<rect x="429.717" y="409.002" transform="matrix(0.7191 0.6949 -0.6949 0.7191 405.7134 -183.8317)" fill-rule="evenodd" clip-rule="evenodd" width="1.05" height="1.834"/>
									
										<rect x="431.996" y="406.645" transform="matrix(0.7191 0.6949 -0.6949 0.7191 404.7155 -186.0779)" fill-rule="evenodd" clip-rule="evenodd" width="1.05" height="1.834"/>
								</g>
							</g>
							<g>
								<g>
									<g>
										
											<rect x="418.545" y="411.879" transform="matrix(0.695 -0.719 0.719 0.695 -170.7561 431.6953)" fill="none" width="9.883" height="10.498"/>
									</g>
									
										<rect x="420.562" y="418.472" transform="matrix(0.7191 0.6949 -0.6949 0.7191 409.7226 -174.8094)" fill-rule="evenodd" clip-rule="evenodd" width="1.05" height="1.835"/>
									
										<rect x="422.848" y="416.107" transform="matrix(0.7191 0.6949 -0.6949 0.7191 408.7213 -177.0628)" fill-rule="evenodd" clip-rule="evenodd" width="1.05" height="1.835"/>
									
										<rect x="425.128" y="413.75" transform="matrix(0.7191 0.6949 -0.6949 0.7191 407.7234 -179.309)" fill-rule="evenodd" clip-rule="evenodd" width="1.05" height="1.835"/>
								</g>
							</g>
						</g>
					</g>
				</g>
			</g>
			<g>
				<g>
					<g>
						<g>
							<g>
								<g>
									
										<rect x="364.278" y="361.457" transform="matrix(-0.6914 -0.7225 0.7225 -0.6914 359.5729 886.9965)" fill="none" width="9.88" height="10.499"/>
								</g>
								
									<rect x="370.859" y="368.274" transform="matrix(0.7227 -0.6911 0.6911 0.7227 -152.1857 359.0305)" fill-rule="evenodd" clip-rule="evenodd" width="1.05" height="1.834"/>
								
									<rect x="368.584" y="365.898" transform="matrix(0.7223 -0.6916 0.6916 0.7223 -151.1801 357.1494)" fill-rule="evenodd" clip-rule="evenodd" width="1.051" height="1.833"/>
								
									<rect x="366.318" y="363.529" transform="matrix(0.7225 -0.6913 0.6913 0.7225 -150.1684 354.7429)" fill-rule="evenodd" clip-rule="evenodd" width="1.05" height="1.834"/>
							</g>
						</g>
						<g>
							<g>
								<g>
									
										<rect x="371.109" y="368.594" transform="matrix(-0.6914 -0.7225 0.7225 -0.6914 365.9704 904.0044)" fill="none" width="9.88" height="10.499"/>
								</g>
								
									<rect x="377.69" y="375.412" transform="matrix(0.7227 -0.6911 0.6911 0.7227 -155.2247 365.7305)" fill-rule="evenodd" clip-rule="evenodd" width="1.05" height="1.834"/>
								
									<rect x="375.415" y="373.036" transform="matrix(0.7223 -0.6916 0.6916 0.7223 -154.2197 363.8562)" fill-rule="evenodd" clip-rule="evenodd" width="1.051" height="1.834"/>
								
									<rect x="373.149" y="370.667" transform="matrix(0.7221 -0.6918 0.6918 0.7221 -153.2142 361.8001)" fill-rule="evenodd" clip-rule="evenodd" width="1.05" height="1.833"/>
							</g>
						</g>
						<g>
							<g>
								<g>
									
										<rect x="377.94" y="375.732" transform="matrix(-0.6914 -0.7225 0.7225 -0.6914 372.3679 921.0123)" fill="none" width="9.88" height="10.499"/>
								</g>
								
									<rect x="384.521" y="382.55" transform="matrix(0.7227 -0.6911 0.6911 0.7227 -158.2638 372.4305)" fill-rule="evenodd" clip-rule="evenodd" width="1.05" height="1.834"/>
								
									<rect x="382.247" y="380.174" transform="matrix(0.7227 -0.6911 0.6911 0.7227 -157.2522 370.2002)" fill-rule="evenodd" clip-rule="evenodd" width="1.05" height="1.834"/>
								
									<rect x="379.98" y="377.805" transform="matrix(0.7221 -0.6918 0.6918 0.7221 -156.2537 368.5099)" fill-rule="evenodd" clip-rule="evenodd" width="1.05" height="1.833"/>
							</g>
						</g>
						<g>
							<g>
								<g>
									
										<rect x="384.771" y="382.869" transform="matrix(-0.6914 -0.7225 0.7225 -0.6914 378.7278 938.0195)" fill="none" width="9.88" height="10.499"/>
								</g>
								
									<rect x="391.351" y="389.688" transform="matrix(0.7223 -0.6916 0.6916 0.7223 -161.3104 379.5022)" fill-rule="evenodd" clip-rule="evenodd" width="1.051" height="1.833"/>
								
									<rect x="389.078" y="387.311" transform="matrix(0.7227 -0.6911 0.6911 0.7227 -160.2912 376.9003)" fill-rule="evenodd" clip-rule="evenodd" width="1.05" height="1.834"/>
								
									<rect x="386.811" y="384.943" transform="matrix(0.7225 -0.6913 0.6913 0.7225 -159.2866 374.8528)" fill-rule="evenodd" clip-rule="evenodd" width="1.05" height="1.834"/>
							</g>
						</g>
						<g>
							<g>
								<g>
									
										<rect x="391.602" y="390.008" transform="matrix(-0.6914 -0.7225 0.7225 -0.6914 385.1622 955.0299)" fill="none" width="9.88" height="10.499"/>
								</g>
								
									<rect x="398.183" y="396.826" transform="matrix(0.7227 -0.6911 0.6911 0.7227 -164.3425 385.8309)" fill-rule="evenodd" clip-rule="evenodd" width="1.05" height="1.834"/>
								
									<rect x="395.909" y="394.449" transform="matrix(0.7223 -0.6916 0.6916 0.7223 -163.338 383.9764)" fill-rule="evenodd" clip-rule="evenodd" width="1.051" height="1.833"/>
								
									<rect x="393.642" y="392.081" transform="matrix(0.7225 -0.6913 0.6913 0.7225 -162.3257 381.556)" fill-rule="evenodd" clip-rule="evenodd" width="1.05" height="1.834"/>
							</g>
						</g>
						<g>
							<g>
								<g>
									
										<rect x="398.433" y="397.146" transform="matrix(-0.6914 -0.7225 0.7225 -0.6914 391.5598 972.0378)" fill="none" width="9.88" height="10.499"/>
								</g>
								
									<rect x="405.014" y="403.964" transform="matrix(0.7227 -0.6911 0.6911 0.7227 -167.3815 392.5309)" fill-rule="evenodd" clip-rule="evenodd" width="1.05" height="1.834"/>
								
									<rect x="402.74" y="401.588" transform="matrix(0.7227 -0.6911 0.6911 0.7227 -166.3699 390.3006)" fill-rule="evenodd" clip-rule="evenodd" width="1.05" height="1.834"/>
								
									<rect x="400.473" y="399.219" transform="matrix(0.7221 -0.6918 0.6918 0.7221 -165.3727 388.6397)" fill-rule="evenodd" clip-rule="evenodd" width="1.05" height="1.833"/>
							</g>
						</g>
						<g>
							<g>
								<g>
									
										<rect x="405.264" y="404.284" transform="matrix(-0.6914 -0.7225 0.7225 -0.6914 397.9572 989.0458)" fill="none" width="9.88" height="10.499"/>
								</g>
								
									<rect x="411.845" y="411.102" transform="matrix(0.7223 -0.6916 0.6916 0.7223 -170.429 399.6225)" fill-rule="evenodd" clip-rule="evenodd" width="1.051" height="1.833"/>
								
									<rect x="409.571" y="408.725" transform="matrix(0.7227 -0.6911 0.6911 0.7227 -169.4089 397.0006)" fill-rule="evenodd" clip-rule="evenodd" width="1.05" height="1.834"/>
								
									<rect x="407.304" y="406.357" transform="matrix(0.7221 -0.6918 0.6918 0.7221 -168.4125 395.3497)" fill-rule="evenodd" clip-rule="evenodd" width="1.05" height="1.834"/>
							</g>
						</g>
						<g>
							<g>
								<g>
									
										<rect x="412.095" y="411.421" transform="matrix(-0.6914 -0.7225 0.7225 -0.6914 404.3144 1006.0529)" fill="none" width="9.88" height="10.499"/>
								</g>
								
									<rect x="418.676" y="418.24" transform="matrix(0.7223 -0.6916 0.6916 0.7223 -173.4686 406.3293)" fill-rule="evenodd" clip-rule="evenodd" width="1.051" height="1.834"/>
								
									<rect x="416.402" y="415.863" transform="matrix(0.7227 -0.6911 0.6911 0.7227 -172.448 403.7007)" fill-rule="evenodd" clip-rule="evenodd" width="1.05" height="1.834"/>
								
									<rect x="414.135" y="413.495" transform="matrix(0.7225 -0.6913 0.6913 0.7225 -171.4439 401.6659)" fill-rule="evenodd" clip-rule="evenodd" width="1.05" height="1.834"/>
							</g>
						</g>
					</g>
				</g>
			</g>
		</g>
		<line fill="none" stroke="#000000" stroke-miterlimit="10" x1="420.052" y1="420.49" x2="504.632" y2="400.24"/>
		<line fill="none" stroke="#000000" stroke-miterlimit="10" x1="420.052" y1="420.49" x2="337.257" y2="400.24"/>
		<line fill="none" stroke="#000000" stroke-miterlimit="10" x1="504.632" y1="400.24" x2="420.521" y2="497.764"/>
		<line fill="none" stroke="#000000" stroke-miterlimit="10" x1="420.521" y1="497.764" x2="337.257" y2="400.24"/>
		<g>
			<g>
				<g>
					<g>
						<g>
							<g>
								
									<rect x="417.637" y="488.228" transform="matrix(-0.3768 0.9263 -0.9263 -0.3768 1038.4789 288.2745)" fill="none" width="9.256" height="10.499"/>
							</g>
							
								<rect x="423.045" y="489.818" transform="matrix(-0.926 -0.3775 0.3775 -0.926 630.5863 1104.9399)" fill-rule="evenodd" clip-rule="evenodd" width="1.05" height="1.718"/>
							
								<rect x="421.884" y="492.672" transform="matrix(-0.9263 -0.3767 0.3767 -0.9263 627.8032 1109.8228)" fill-rule="evenodd" clip-rule="evenodd" width="1.05" height="1.718"/>
							
								<rect x="420.726" y="495.517" transform="matrix(-0.926 -0.3775 0.3775 -0.926 623.9698 1115.0416)" fill-rule="evenodd" clip-rule="evenodd" width="1.05" height="1.718"/>
						</g>
					</g>
					<g>
						<g>
							<g>
								
									<rect x="421.125" y="479.654" transform="matrix(-0.3768 0.9263 -0.9263 -0.3768 1035.3474 273.2637)" fill="none" width="9.256" height="10.499"/>
							</g>
							
								<rect x="426.533" y="481.245" transform="matrix(-0.9263 -0.3767 0.3767 -0.9263 641.0632 1089.5602)" fill-rule="evenodd" clip-rule="evenodd" width="1.05" height="1.718"/>
							
								<rect x="425.371" y="484.099" transform="matrix(-0.9263 -0.3767 0.3767 -0.9263 637.7513 1094.6216)" fill-rule="evenodd" clip-rule="evenodd" width="1.05" height="1.718"/>
							
								<rect x="424.214" y="486.944" transform="matrix(-0.9263 -0.3767 0.3767 -0.9263 634.4505 1099.6655)" fill-rule="evenodd" clip-rule="evenodd" width="1.05" height="1.718"/>
						</g>
					</g>
					<g>
						<g>
							<g>
								
									<rect x="424.612" y="471.08" transform="matrix(-0.3768 0.9263 -0.9263 -0.3768 1032.1992 258.2045)" fill="none" width="9.256" height="10.499"/>
							</g>
							
								<rect x="430.02" y="472.671" transform="matrix(-0.9263 -0.3767 0.3767 -0.9263 651.0115 1074.3579)" fill-rule="evenodd" clip-rule="evenodd" width="1.05" height="1.718"/>
							
								<rect x="428.859" y="475.525" transform="matrix(-0.926 -0.3775 0.3775 -0.926 647.1803 1079.6062)" fill-rule="evenodd" clip-rule="evenodd" width="1.05" height="1.718"/>
							
								<rect x="427.702" y="478.37" transform="matrix(-0.9263 -0.3767 0.3767 -0.9263 644.3987 1084.4634)" fill-rule="evenodd" clip-rule="evenodd" width="1.05" height="1.718"/>
						</g>
					</g>
					<g>
						<g>
							<g>
								
									<rect x="428.101" y="462.506" transform="matrix(-0.3768 0.9263 -0.9263 -0.3768 1029.0684 243.1932)" fill="none" width="9.256" height="10.499"/>
							</g>
							
								<rect x="433.509" y="464.097" transform="matrix(-0.926 -0.3775 0.3775 -0.926 660.4489 1059.3512)" fill-rule="evenodd" clip-rule="evenodd" width="1.05" height="1.718"/>
							
								<rect x="432.348" y="466.952" transform="matrix(-0.9263 -0.3767 0.3767 -0.9263 657.6487 1064.2173)" fill-rule="evenodd" clip-rule="evenodd" width="1.05" height="1.718"/>
							
								<rect x="431.19" y="469.796" transform="matrix(-0.926 -0.3775 0.3775 -0.926 653.8314 1069.4526)" fill-rule="evenodd" clip-rule="evenodd" width="1.05" height="1.718"/>
						</g>
					</g>
					<g>
						<g>
							<g>
								
									<rect x="431.588" y="453.932" transform="matrix(-0.3769 0.9263 -0.9263 -0.3769 1025.9399 228.1868)" fill="none" width="9.256" height="10.5"/>
							</g>
							
								<rect x="436.996" y="455.523" transform="matrix(-0.9263 -0.3767 0.3767 -0.9263 670.9088 1043.9537)" fill-rule="evenodd" clip-rule="evenodd" width="1.05" height="1.718"/>
							
								<rect x="435.835" y="458.378" transform="matrix(-0.9263 -0.3767 0.3767 -0.9263 667.5964 1049.0151)" fill-rule="evenodd" clip-rule="evenodd" width="1.05" height="1.718"/>
							
								<rect x="434.678" y="461.222" transform="matrix(-0.9263 -0.3767 0.3767 -0.9263 664.2952 1054.059)" fill-rule="evenodd" clip-rule="evenodd" width="1.05" height="1.718"/>
						</g>
					</g>
					<g>
						<g>
							<g>
								
									<rect x="435.076" y="445.359" transform="matrix(-0.3768 0.9263 -0.9263 -0.3768 1022.7808 213.0997)" fill="none" width="9.256" height="10.499"/>
							</g>
							
								<rect x="440.484" y="446.95" transform="matrix(-0.9263 -0.3767 0.3767 -0.9263 680.8568 1028.7526)" fill-rule="evenodd" clip-rule="evenodd" width="1.05" height="1.718"/>
							
								<rect x="439.323" y="449.804" transform="matrix(-0.926 -0.3775 0.3775 -0.926 677.0428 1034.0175)" fill-rule="evenodd" clip-rule="evenodd" width="1.05" height="1.718"/>
							
								<rect x="438.166" y="452.649" transform="matrix(-0.9263 -0.3767 0.3767 -0.9263 674.2441 1038.8579)" fill-rule="evenodd" clip-rule="evenodd" width="1.05" height="1.718"/>
						</g>
					</g>
					<g>
						<g>
							<g>
								
									<rect x="438.565" y="436.786" transform="matrix(-0.3768 0.9263 -0.9263 -0.3768 1019.6507 198.0876)" fill="none" width="9.256" height="10.499"/>
							</g>
							
								<rect x="443.972" y="438.377" transform="matrix(-0.9263 -0.3767 0.3767 -0.9263 690.8051 1013.5504)" fill-rule="evenodd" clip-rule="evenodd" width="1.05" height="1.718"/>
							
								<rect x="442.811" y="441.23" transform="matrix(-0.9263 -0.3767 0.3767 -0.9263 687.4933 1018.6108)" fill-rule="evenodd" clip-rule="evenodd" width="1.05" height="1.718"/>
							
								<rect x="441.654" y="444.076" transform="matrix(-0.9263 -0.3767 0.3767 -0.9263 684.1923 1023.6558)" fill-rule="evenodd" clip-rule="evenodd" width="1.05" height="1.718"/>
						</g>
					</g>
					<g>
						<g>
							<g>
								
									<rect x="442.052" y="428.212" transform="matrix(-0.3768 0.9263 -0.9263 -0.3768 1016.5011 183.0297)" fill="none" width="9.256" height="10.499"/>
							</g>
							
								<rect x="447.46" y="429.802" transform="matrix(-0.9263 -0.3767 0.3767 -0.9263 700.7533 998.3481)" fill-rule="evenodd" clip-rule="evenodd" width="1.05" height="1.718"/>
							
								<rect x="446.299" y="432.657" transform="matrix(-0.9263 -0.3767 0.3767 -0.9263 697.4413 1003.4095)" fill-rule="evenodd" clip-rule="evenodd" width="1.05" height="1.718"/>
							
								<rect x="445.142" y="435.502" transform="matrix(-0.9263 -0.3767 0.3767 -0.9263 694.1406 1008.4535)" fill-rule="evenodd" clip-rule="evenodd" width="1.05" height="1.718"/>
						</g>
					</g>
					<g>
						<g>
							<g>
								
									<rect x="445.54" y="419.638" transform="matrix(-0.3768 0.9263 -0.9263 -0.3768 1013.3715 168.0171)" fill="none" width="9.256" height="10.499"/>
							</g>
							
								<rect x="450.948" y="421.229" transform="matrix(-0.9263 -0.3767 0.3767 -0.9263 710.7024 983.1461)" fill-rule="evenodd" clip-rule="evenodd" width="1.05" height="1.718"/>
							
								<rect x="449.787" y="424.084" transform="matrix(-0.9263 -0.3767 0.3767 -0.9263 707.3905 988.2075)" fill-rule="evenodd" clip-rule="evenodd" width="1.05" height="1.718"/>
							
								<rect x="448.629" y="426.928" transform="matrix(-0.9263 -0.3767 0.3767 -0.9263 704.0887 993.2513)" fill-rule="evenodd" clip-rule="evenodd" width="1.05" height="1.718"/>
						</g>
					</g>
					<g>
						<g>
							<g>
								
									<rect x="449.028" y="411.064" transform="matrix(-0.3769 0.9263 -0.9263 -0.3769 1010.2448 153.009)" fill="none" width="9.256" height="10.5"/>
							</g>
							
								<rect x="454.436" y="412.656" transform="matrix(-0.9263 -0.3767 0.3767 -0.9263 720.6505 967.9448)" fill-rule="evenodd" clip-rule="evenodd" width="1.05" height="1.718"/>
							
								<rect x="453.275" y="415.51" transform="matrix(-0.9263 -0.3767 0.3767 -0.9263 717.3383 973.0052)" fill-rule="evenodd" clip-rule="evenodd" width="1.05" height="1.718"/>
							
								<rect x="452.117" y="418.355" transform="matrix(-0.9263 -0.3767 0.3767 -0.9263 714.0368 978.05)" fill-rule="evenodd" clip-rule="evenodd" width="1.05" height="1.718"/>
						</g>
					</g>
				</g>
			</g>
		</g>
		<g>
			<g>
				<g>
					<g>
						<g>
							<g>
								
									<rect x="382.816" y="411.122" transform="matrix(-0.3766 -0.9264 0.9264 -0.3766 147.6081 932.0804)" fill="none" width="9.248" height="10.499"/>
							</g>
							
								<rect x="387.933" y="418.427" transform="matrix(0.9263 -0.3767 0.3767 0.9263 -129.3229 177.2054)" fill-rule="evenodd" clip-rule="evenodd" width="1.05" height="1.717"/>
							
								<rect x="386.774" y="415.575" transform="matrix(0.9267 -0.3759 0.3759 0.9267 -128.1271 176.1145)" fill-rule="evenodd" clip-rule="evenodd" width="1.05" height="1.717"/>
							
								<rect x="385.619" y="412.731" transform="matrix(0.9263 -0.3767 0.3767 0.9263 -127.3481 175.9141)" fill-rule="evenodd" clip-rule="evenodd" width="1.05" height="1.717"/>
						</g>
					</g>
					<g>
						<g>
							<g>
								
									<rect x="386.298" y="419.689" transform="matrix(-0.3765 -0.9264 0.9264 -0.3765 144.4395 947.088)" fill="none" width="9.248" height="10.499"/>
							</g>
							
								<rect x="391.416" y="426.994" transform="matrix(0.9267 -0.3759 0.3759 0.9267 -132.0792 178.6966)" fill-rule="evenodd" clip-rule="evenodd" width="1.05" height="1.717"/>
							
								<rect x="390.256" y="424.142" transform="matrix(0.9263 -0.3767 0.3767 0.9263 -131.3046 178.5015)" fill-rule="evenodd" clip-rule="evenodd" width="1.05" height="1.716"/>
							
								<rect x="389.101" y="421.3" transform="matrix(0.9263 -0.3767 0.3767 0.9263 -130.319 177.8569)" fill-rule="evenodd" clip-rule="evenodd" width="1.05" height="1.716"/>
						</g>
					</g>
					<g>
						<g>
							<g>
								
									<rect x="389.78" y="428.257" transform="matrix(-0.3765 -0.9264 0.9264 -0.3765 141.3002 962.11)" fill="none" width="9.249" height="10.499"/>
							</g>
							
								<rect x="394.898" y="435.562" transform="matrix(0.9263 -0.3767 0.3767 0.9263 -135.2644 181.0909)" fill-rule="evenodd" clip-rule="evenodd" width="1.05" height="1.716"/>
							
								<rect x="393.738" y="432.71" transform="matrix(0.9263 -0.3767 0.3767 0.9263 -134.2753 180.4442)" fill-rule="evenodd" clip-rule="evenodd" width="1.05" height="1.716"/>
							
								<rect x="392.583" y="429.867" transform="matrix(0.9263 -0.3767 0.3767 0.9263 -133.2896 179.7996)" fill-rule="evenodd" clip-rule="evenodd" width="1.05" height="1.716"/>
						</g>
					</g>
					<g>
						<g>
							<g>
								
									<rect x="393.262" y="436.825" transform="matrix(-0.3766 -0.9264 0.9264 -0.3766 138.1774 977.14)" fill="none" width="9.248" height="10.499"/>
							</g>
							
								<rect x="398.38" y="444.13" transform="matrix(0.9263 -0.3767 0.3767 0.9263 -138.235 183.0336)" fill-rule="evenodd" clip-rule="evenodd" width="1.05" height="1.716"/>
							
								<rect x="397.221" y="441.277" transform="matrix(0.9263 -0.3767 0.3767 0.9263 -137.2461 182.3869)" fill-rule="evenodd" clip-rule="evenodd" width="1.05" height="1.717"/>
							
								<rect x="396.065" y="438.434" transform="matrix(0.9264 -0.3765 0.3765 0.9264 -136.2151 181.6489)" fill-rule="evenodd" clip-rule="evenodd" width="1.05" height="1.716"/>
						</g>
					</g>
					<g>
						<g>
							<g>
								
									<rect x="396.745" y="445.392" transform="matrix(-0.3765 -0.9264 0.9264 -0.3765 135.0079 992.1465)" fill="none" width="9.248" height="10.499"/>
							</g>
							
								<rect x="401.862" y="452.697" transform="matrix(0.9263 -0.3767 0.3767 0.9263 -141.2057 184.9763)" fill-rule="evenodd" clip-rule="evenodd" width="1.05" height="1.716"/>
							
								<rect x="400.703" y="449.845" transform="matrix(0.9264 -0.3765 0.3765 0.9264 -140.1701 184.2348)" fill-rule="evenodd" clip-rule="evenodd" width="1.05" height="1.717"/>
							
								<rect x="399.547" y="447.002" transform="matrix(0.9263 -0.3767 0.3767 0.9263 -139.2311 183.6849)" fill-rule="evenodd" clip-rule="evenodd" width="1.05" height="1.717"/>
						</g>
					</g>
					<g>
						<g>
							<g>
								
									<rect x="400.227" y="453.96" transform="matrix(-0.3766 -0.9264 0.9264 -0.3766 131.8907 1007.1787)" fill="none" width="9.248" height="10.499"/>
							</g>
							
								<rect x="405.344" y="461.264" transform="matrix(0.9263 -0.3767 0.3767 0.9263 -144.1765 186.919)" fill-rule="evenodd" clip-rule="evenodd" width="1.05" height="1.717"/>
							
								<rect x="404.185" y="458.412" transform="matrix(0.9267 -0.3759 0.3759 0.9267 -142.9521 185.8002)" fill-rule="evenodd" clip-rule="evenodd" width="1.05" height="1.717"/>
							
								<rect x="403.03" y="455.569" transform="matrix(0.9263 -0.3767 0.3767 0.9263 -142.2017 185.6277)" fill-rule="evenodd" clip-rule="evenodd" width="1.05" height="1.717"/>
						</g>
					</g>
					<g>
						<g>
							<g>
								
									<rect x="403.709" y="462.527" transform="matrix(-0.3765 -0.9264 0.9264 -0.3765 128.7205 1022.1846)" fill="none" width="9.248" height="10.499"/>
							</g>
							
								<rect x="408.827" y="469.832" transform="matrix(0.9267 -0.3759 0.3759 0.9267 -146.9042 188.3823)" fill-rule="evenodd" clip-rule="evenodd" width="1.05" height="1.717"/>
							
								<rect x="407.667" y="466.98" transform="matrix(0.9263 -0.3767 0.3767 0.9263 -146.1582 188.2151)" fill-rule="evenodd" clip-rule="evenodd" width="1.05" height="1.716"/>
							
								<rect x="406.512" y="464.138" transform="matrix(0.9263 -0.3767 0.3767 0.9263 -145.1725 187.5705)" fill-rule="evenodd" clip-rule="evenodd" width="1.05" height="1.716"/>
						</g>
					</g>
					<g>
						<g>
							<g>
								
									<rect x="407.191" y="471.095" transform="matrix(-0.3765 -0.9264 0.9264 -0.3765 125.5815 1037.2069)" fill="none" width="9.249" height="10.499"/>
							</g>
							
								<rect x="412.309" y="478.4" transform="matrix(0.9263 -0.3767 0.3767 0.9263 -150.118 190.8045)" fill-rule="evenodd" clip-rule="evenodd" width="1.05" height="1.716"/>
							
								<rect x="411.15" y="475.548" transform="matrix(0.9263 -0.3767 0.3767 0.9263 -149.1289 190.1578)" fill-rule="evenodd" clip-rule="evenodd" width="1.05" height="1.716"/>
							
								<rect x="409.994" y="472.705" transform="matrix(0.9263 -0.3767 0.3767 0.9263 -148.1432 189.5131)" fill-rule="evenodd" clip-rule="evenodd" width="1.05" height="1.716"/>
						</g>
					</g>
					<g>
						<g>
							<g>
								
									<rect x="410.674" y="479.663" transform="matrix(-0.3766 -0.9264 0.9264 -0.3766 122.4601 1052.2383)" fill="none" width="9.248" height="10.499"/>
							</g>
							
								<rect x="415.791" y="486.968" transform="matrix(0.9263 -0.3767 0.3767 0.9263 -153.0886 192.7472)" fill-rule="evenodd" clip-rule="evenodd" width="1.05" height="1.716"/>
							
								<rect x="414.632" y="484.115" transform="matrix(0.9263 -0.3767 0.3767 0.9263 -152.0997 192.1005)" fill-rule="evenodd" clip-rule="evenodd" width="1.05" height="1.717"/>
							
								<rect x="413.476" y="481.272" transform="matrix(0.9264 -0.3765 0.3765 0.9264 -151.0629 191.3569)" fill-rule="evenodd" clip-rule="evenodd" width="1.05" height="1.716"/>
						</g>
					</g>
					<g>
						<g>
							<g>
								
									<rect x="414.156" y="488.23" transform="matrix(-0.3765 -0.9264 0.9264 -0.3765 119.2889 1067.2433)" fill="none" width="9.248" height="10.499"/>
							</g>
							
								<rect x="419.273" y="495.535" transform="matrix(0.9263 -0.3767 0.3767 0.9263 -156.0593 194.6899)" fill-rule="evenodd" clip-rule="evenodd" width="1.05" height="1.716"/>
							
								<rect x="418.114" y="492.682" transform="matrix(0.9264 -0.3765 0.3765 0.9264 -155.0179 193.9427)" fill-rule="evenodd" clip-rule="evenodd" width="1.05" height="1.717"/>
							
								<rect x="416.958" y="489.84" transform="matrix(0.9263 -0.3767 0.3767 0.9263 -154.0847 193.3986)" fill-rule="evenodd" clip-rule="evenodd" width="1.05" height="1.717"/>
						</g>
					</g>
				</g>
			</g>
		</g>
		<line fill="none" stroke="#000000" stroke-miterlimit="10" x1="420.521" y1="497.764" x2="420.052" y2="420.49"/>
		<g>
			<g>
				<g>
					<g>
						<g>
							<g>
								<g>
									<rect x="415.695" y="294.292" fill="none" width="10.499" height="8.974"/>
								</g>
								<rect x="420.573" y="294.955" fill-rule="evenodd" clip-rule="evenodd" width="1.05" height="1.665"/>
								<rect x="420.573" y="297.942" fill-rule="evenodd" clip-rule="evenodd" width="1.05" height="1.666"/>
								<rect x="420.573" y="300.92" fill-rule="evenodd" clip-rule="evenodd" width="1.05" height="1.666"/>
							</g>
						</g>
						<g>
							<g>
								<g>
									<rect x="415.695" y="285.318" fill="none" width="10.499" height="8.974"/>
								</g>
								<rect x="420.573" y="285.981" fill-rule="evenodd" clip-rule="evenodd" width="1.05" height="1.666"/>
								<rect x="420.573" y="288.969" fill-rule="evenodd" clip-rule="evenodd" width="1.05" height="1.666"/>
								<rect x="420.573" y="291.946" fill-rule="evenodd" clip-rule="evenodd" width="1.05" height="1.666"/>
							</g>
						</g>
						<g>
							<g>
								<g>
									<rect x="415.695" y="276.345" fill="none" width="10.499" height="8.974"/>
								</g>
								<rect x="420.573" y="277.008" fill-rule="evenodd" clip-rule="evenodd" width="1.05" height="1.665"/>
								<rect x="420.573" y="279.995" fill-rule="evenodd" clip-rule="evenodd" width="1.05" height="1.666"/>
								<rect x="420.573" y="282.973" fill-rule="evenodd" clip-rule="evenodd" width="1.05" height="1.666"/>
							</g>
						</g>
						<g>
							<g>
								<g>
									<rect x="415.695" y="267.371" fill="none" width="10.499" height="8.974"/>
								</g>
								<rect x="420.573" y="268.034" fill-rule="evenodd" clip-rule="evenodd" width="1.05" height="1.666"/>
								<rect x="420.573" y="271.021" fill-rule="evenodd" clip-rule="evenodd" width="1.05" height="1.666"/>
								<rect x="420.573" y="273.999" fill-rule="evenodd" clip-rule="evenodd" width="1.05" height="1.666"/>
							</g>
						</g>
						<g>
							<g>
								<g>
									<rect x="415.695" y="258.397" fill="none" width="10.499" height="8.974"/>
								</g>
								<rect x="420.573" y="259.061" fill-rule="evenodd" clip-rule="evenodd" width="1.05" height="1.665"/>
								<rect x="420.573" y="262.048" fill-rule="evenodd" clip-rule="evenodd" width="1.05" height="1.666"/>
								<rect x="420.573" y="265.025" fill-rule="evenodd" clip-rule="evenodd" width="1.05" height="1.666"/>
							</g>
						</g>
						<g>
							<g>
								<g>
									<rect x="415.695" y="249.424" fill="none" width="10.499" height="8.974"/>
								</g>
								<rect x="420.573" y="250.087" fill-rule="evenodd" clip-rule="evenodd" width="1.05" height="1.666"/>
								<rect x="420.573" y="253.074" fill-rule="evenodd" clip-rule="evenodd" width="1.05" height="1.666"/>
								<rect x="420.573" y="256.052" fill-rule="evenodd" clip-rule="evenodd" width="1.05" height="1.666"/>
							</g>
						</g>
						<g>
							<g>
								<g>
									<rect x="415.695" y="240.45" fill="none" width="10.499" height="8.974"/>
								</g>
								<rect x="420.573" y="241.113" fill-rule="evenodd" clip-rule="evenodd" width="1.05" height="1.665"/>
								<rect x="420.573" y="244.101" fill-rule="evenodd" clip-rule="evenodd" width="1.05" height="1.666"/>
								<rect x="420.573" y="247.078" fill-rule="evenodd" clip-rule="evenodd" width="1.05" height="1.666"/>
							</g>
						</g>
						<g>
							<g>
								<g>
									<rect x="415.695" y="231.477" fill="none" width="10.499" height="8.974"/>
								</g>
								<rect x="420.573" y="232.14" fill-rule="evenodd" clip-rule="evenodd" width="1.05" height="1.666"/>
								<rect x="420.573" y="235.127" fill-rule="evenodd" clip-rule="evenodd" width="1.05" height="1.666"/>
								<rect x="420.573" y="238.104" fill-rule="evenodd" clip-rule="evenodd" width="1.05" height="1.666"/>
							</g>
						</g>
						<g>
							<g>
								<g>
									<rect x="415.695" y="222.503" fill="none" width="10.499" height="8.974"/>
								</g>
								<rect x="420.573" y="223.166" fill-rule="evenodd" clip-rule="evenodd" width="1.05" height="1.665"/>
								<rect x="420.573" y="226.153" fill-rule="evenodd" clip-rule="evenodd" width="1.05" height="1.666"/>
								<rect x="420.573" y="229.131" fill-rule="evenodd" clip-rule="evenodd" width="1.05" height="1.666"/>
							</g>
						</g>
					</g>
				</g>
			</g>
			<line fill="none" stroke="#000000" stroke-miterlimit="10" x1="386.588" y1="302.27" x2="391.675" y2="331.951"/>
			<line fill="none" stroke="#000000" stroke-miterlimit="10" x1="420.945" y1="222.503" x2="386.588" y2="302.448"/>
			<line fill="none" stroke="#000000" stroke-miterlimit="10" x1="455.301" y1="302.448" x2="420.945" y2="222.503"/>
			<line fill="none" stroke="#000000" stroke-miterlimit="10" x1="455.301" y1="302.448" x2="450.275" y2="331.772"/>
		</g>
	</g>
</g>
<g id="Layer_28">
</g>
<g id="Layer_29">
</g>
<g id="Layer_30">
</g>
<g id="Layer_31">
</g>
<g id="Layer_32">
</g>
<g id="Layer_33">
</g>
<g id="Layer_34">
</g>
<g id="Layer_35">
</g>
<g id="Layer_36">
</g>
<g id="Layer_37">
</g>
<g id="Layer_38">
</g>
<g id="Layer_39">
</g>
<g id="Layer_40">
</g>
<g id="Layer_41">
</g>
<g id="Layer_43">
</g>
</svg>
