<?xml version="1.0" encoding="utf-8"?>
<!-- Generator: Adobe Illustrator 16.0.0, SVG Export Plug-In . SVG Version: 6.00 Build 0)  -->
<!DOCTYPE svg PUBLIC "-//W3C//DTD SVG 1.1//EN" "http://www.w3.org/Graphics/SVG/1.1/DTD/svg11.dtd">
<svg version="1.1" xmlns="http://www.w3.org/2000/svg" xmlns:xlink="http://www.w3.org/1999/xlink" x="0px" y="0px"
	 width="841.89px" height="595.28px" viewBox="0 0 841.89 595.28" enable-background="new 0 0 841.89 595.28" xml:space="preserve">
<g id="Layer_1">
</g>
<g id="Layer_2">
</g>
<g id="Layer_3">
</g>
<g id="Layer_4">
</g>
<g id="Layer_5">
</g>
<g id="Layer_6">
</g>
<g id="Layer_7">
</g>
<g id="Layer_8">
</g>
<g id="Layer_9">
</g>
<g id="Layer_10">
</g>
<g id="Layer_11">
</g>
<g id="Layer_12">
</g>
<g id="Layer_13">
</g>
<g id="Layer_14">
</g>
<g id="Layer_15">
</g>
<g id="Layer_16">
</g>
<g id="Layer_17">
</g>
<g id="Layer_18">
</g>
<g id="Layer_19">
</g>
<g id="Layer_20">
</g>
<g id="Layer_21">
</g>
<g id="Layer_22">
</g>
<g id="Layer_24">
</g>
<g id="Layer_25">
</g>
<g id="Layer_26">
</g>
<g id="Layer_27">
</g>
<g id="Layer_28">
</g>
<g id="Layer_29">
</g>
<g id="Layer_30">
</g>
<g id="Layer_31">
</g>
<g id="Layer_32">
</g>
<g id="Layer_33">
</g>
<g id="Layer_34">
</g>
<g id="Layer_35">
</g>
<g id="Layer_36">
</g>
<g id="Layer_37">
</g>
<g id="Layer_38">
</g>
<g id="Layer_39">
</g>
<g id="Layer_40">
</g>
<g id="Layer_41">
	<g>
		<g>
			<g>
				<g>
					<g>
						<g>
							<g>
								
									<rect x="415.959" y="412.903" transform="matrix(-0.0012 1 -1 -0.0012 839.4537 -2.1329)" fill="none" width="9.666" height="10.498"/>
							</g>
							<rect x="420.425" y="414.034" fill-rule="evenodd" clip-rule="evenodd" width="1.05" height="1.794"/>
							<rect x="420.421" y="417.251" fill-rule="evenodd" clip-rule="evenodd" width="1.05" height="1.794"/>
							<rect x="420.417" y="420.459" fill-rule="evenodd" clip-rule="evenodd" width="1.05" height="1.794"/>
						</g>
					</g>
					<g>
						<g>
							<g>
								
									<rect x="415.971" y="403.237" transform="matrix(-0.0012 1 -1 -0.0012 829.7994 -11.8223)" fill="none" width="9.666" height="10.498"/>
							</g>
							<rect x="420.437" y="404.368" fill-rule="evenodd" clip-rule="evenodd" width="1.05" height="1.794"/>
							<rect x="420.433" y="407.585" fill-rule="evenodd" clip-rule="evenodd" width="1.05" height="1.794"/>
							<rect x="420.429" y="410.792" fill-rule="evenodd" clip-rule="evenodd" width="1.05" height="1.794"/>
						</g>
					</g>
					<g>
						<g>
							<g>
								
									<rect x="415.982" y="393.57" transform="matrix(-0.0012 1 -1 -0.0012 820.1442 -21.5118)" fill="none" width="9.666" height="10.499"/>
							</g>
							<rect x="420.449" y="394.701" fill-rule="evenodd" clip-rule="evenodd" width="1.049" height="1.794"/>
							<rect x="420.444" y="397.918" fill-rule="evenodd" clip-rule="evenodd" width="1.05" height="1.795"/>
							<rect x="420.44" y="401.126" fill-rule="evenodd" clip-rule="evenodd" width="1.05" height="1.794"/>
						</g>
					</g>
					<g>
						<g>
							<g>
								
									<rect x="415.993" y="383.904" transform="matrix(-0.0012 1 -1 -0.0012 810.4899 -31.2013)" fill="none" width="9.667" height="10.499"/>
							</g>
							<rect x="420.459" y="385.035" fill-rule="evenodd" clip-rule="evenodd" width="1.05" height="1.794"/>
							<rect x="420.456" y="388.252" fill-rule="evenodd" clip-rule="evenodd" width="1.05" height="1.795"/>
							<rect x="420.453" y="391.46" fill-rule="evenodd" clip-rule="evenodd" width="1.049" height="1.794"/>
						</g>
					</g>
					<g>
						<g>
							<g>
								
									<rect x="416.005" y="374.237" transform="matrix(-0.0012 1 -1 -0.0012 800.8351 -40.8912)" fill="none" width="9.666" height="10.499"/>
							</g>
							<rect x="420.471" y="375.367" fill-rule="evenodd" clip-rule="evenodd" width="1.05" height="1.795"/>
							<rect x="420.467" y="378.586" fill-rule="evenodd" clip-rule="evenodd" width="1.05" height="1.794"/>
							<rect x="420.463" y="381.793" fill-rule="evenodd" clip-rule="evenodd" width="1.05" height="1.795"/>
						</g>
					</g>
					<g>
						<g>
							<g>
								
									<rect x="416.017" y="364.571" transform="matrix(-0.0012 1 -1 -0.0012 791.1809 -50.5806)" fill="none" width="9.666" height="10.499"/>
							</g>
							<rect x="420.482" y="365.701" fill-rule="evenodd" clip-rule="evenodd" width="1.05" height="1.795"/>
							<rect x="420.479" y="368.92" fill-rule="evenodd" clip-rule="evenodd" width="1.05" height="1.794"/>
							<rect x="420.475" y="372.127" fill-rule="evenodd" clip-rule="evenodd" width="1.05" height="1.794"/>
						</g>
					</g>
					<g>
						<g>
							<g>
								
									<rect x="416.028" y="354.905" transform="matrix(-0.0012 1 -1 -0.0012 781.5261 -60.2706)" fill="none" width="9.667" height="10.499"/>
							</g>
							<rect x="420.494" y="356.036" fill-rule="evenodd" clip-rule="evenodd" width="1.05" height="1.794"/>
							<rect x="420.49" y="359.253" fill-rule="evenodd" clip-rule="evenodd" width="1.05" height="1.794"/>
							<rect x="420.486" y="362.461" fill-rule="evenodd" clip-rule="evenodd" width="1.05" height="1.794"/>
						</g>
					</g>
					<g>
						<g>
							<g>
								
									<rect x="416.041" y="345.238" transform="matrix(-0.0012 1 -1 -0.0012 771.8713 -69.9605)" fill="none" width="9.666" height="10.499"/>
							</g>
							<rect x="420.506" y="346.37" fill-rule="evenodd" clip-rule="evenodd" width="1.05" height="1.794"/>
							<rect x="420.502" y="349.587" fill-rule="evenodd" clip-rule="evenodd" width="1.05" height="1.794"/>
							<rect x="420.498" y="352.795" fill-rule="evenodd" clip-rule="evenodd" width="1.05" height="1.794"/>
						</g>
					</g>
					<g>
						<g>
							<g>
								
									<rect x="416.052" y="335.572" transform="matrix(-0.0012 1 -1 -0.0012 762.217 -79.65)" fill="none" width="9.666" height="10.499"/>
							</g>
							<rect x="420.518" y="336.703" fill-rule="evenodd" clip-rule="evenodd" width="1.05" height="1.794"/>
							<rect x="420.514" y="339.921" fill-rule="evenodd" clip-rule="evenodd" width="1.05" height="1.794"/>
							<rect x="420.51" y="343.128" fill-rule="evenodd" clip-rule="evenodd" width="1.05" height="1.794"/>
						</g>
					</g>
					<g>
						<g>
							<g>
								
									<rect x="416.064" y="325.906" transform="matrix(-0.0012 1 -1 -0.0012 752.5623 -89.3399)" fill="none" width="9.666" height="10.499"/>
							</g>
							<rect x="420.529" y="327.037" fill-rule="evenodd" clip-rule="evenodd" width="1.05" height="1.794"/>
							<rect x="420.525" y="330.254" fill-rule="evenodd" clip-rule="evenodd" width="1.05" height="1.795"/>
							<rect x="420.521" y="333.462" fill-rule="evenodd" clip-rule="evenodd" width="1.05" height="1.794"/>
						</g>
					</g>
					<g>
						<g>
							<g>
								
									<rect x="416.075" y="316.24" transform="matrix(-0.0012 1 -1 -0.0012 742.908 -99.0294)" fill="none" width="9.667" height="10.499"/>
							</g>
							<rect x="420.541" y="317.371" fill-rule="evenodd" clip-rule="evenodd" width="1.05" height="1.794"/>
							<rect x="420.537" y="320.588" fill-rule="evenodd" clip-rule="evenodd" width="1.05" height="1.794"/>
							<rect x="420.533" y="323.795" fill-rule="evenodd" clip-rule="evenodd" width="1.05" height="1.795"/>
						</g>
					</g>
					<g>
						<g>
							<g>
								
									<rect x="416.087" y="306.573" transform="matrix(-0.0012 1 -1 -0.0012 733.2528 -108.7188)" fill="none" width="9.666" height="10.5"/>
							</g>
							<rect x="420.553" y="307.703" fill-rule="evenodd" clip-rule="evenodd" width="1.05" height="1.795"/>
							<rect x="420.549" y="310.922" fill-rule="evenodd" clip-rule="evenodd" width="1.05" height="1.794"/>
							<rect x="420.545" y="314.129" fill-rule="evenodd" clip-rule="evenodd" width="1.05" height="1.795"/>
						</g>
					</g>
					<g>
						<g>
							<g>
								
									<rect x="416.098" y="296.907" transform="matrix(-0.0012 1 -1 -0.0012 723.5984 -118.4083)" fill="none" width="9.667" height="10.5"/>
							</g>
							<rect x="420.564" y="298.037" fill-rule="evenodd" clip-rule="evenodd" width="1.05" height="1.795"/>
							<rect x="420.561" y="301.256" fill-rule="evenodd" clip-rule="evenodd" width="1.05" height="1.794"/>
							<rect x="420.557" y="304.463" fill-rule="evenodd" clip-rule="evenodd" width="1.05" height="1.794"/>
						</g>
					</g>
				</g>
			</g>
		</g>
		<path fill="none" stroke="#000000" stroke-miterlimit="10" d="M420.938,354.23"/>
		<line fill="none" stroke="#000000" stroke-miterlimit="10" x1="455.142" y1="343.039" x2="491.734" y2="281.146"/>
		<line fill="none" stroke="#000000" stroke-miterlimit="10" x1="450.691" y1="320.128" x2="483.734" y2="282.397"/>
		<line fill="none" stroke="#000000" stroke-miterlimit="10" x1="386.43" y1="343.039" x2="337.369" y2="260.897"/>
		<line fill="none" stroke="#000000" stroke-miterlimit="10" x1="389.551" y1="320.729" x2="337.369" y2="260.897"/>
		<line fill="none" stroke="#000000" stroke-miterlimit="10" x1="491.734" y1="281.146" x2="483.734" y2="282.397"/>
		<line fill="none" stroke="#000000" stroke-miterlimit="10" x1="487.734" y1="288.299" x2="504.398" y2="307.23"/>
		<line fill="none" stroke="#000000" stroke-miterlimit="10" x1="492.064" y1="281.146" x2="504.398" y2="307.23"/>
		<g>
			<line fill="none" stroke="#000000" stroke-miterlimit="10" x1="391.657" y1="319.939" x2="420.938" y2="297.323"/>
			<line fill="none" stroke="#000000" stroke-miterlimit="10" x1="420.917" y1="342.68" x2="420.787" y2="342.851"/>
			<line fill="none" stroke="#000000" stroke-miterlimit="10" x1="449.407" y1="319.939" x2="421.067" y2="297.494"/>
			<line fill="none" stroke="#000000" stroke-miterlimit="10" x1="390.122" y1="320.234" x2="403.608" y2="320.234"/>
			<line fill="none" stroke="#000000" stroke-miterlimit="10" x1="420.883" y1="320.234" x2="437.965" y2="320.234"/>
			<line fill="none" stroke="#000000" stroke-miterlimit="10" x1="420.883" y1="320.234" x2="403.608" y2="320.234"/>
			<path fill="none" stroke="#000000" stroke-miterlimit="10" d="M388.122,319.478"/>
			<line fill="none" stroke="#000000" stroke-miterlimit="10" x1="437.965" y1="320.234" x2="451.244" y2="320.234"/>
			<path fill="none" stroke="#000000" stroke-miterlimit="10" d="M451.244,320.234"/>
		</g>
		<line fill="none" stroke="#000000" stroke-miterlimit="10" x1="420.786" y1="422.985" x2="386.43" y2="343.039"/>
		<line fill="none" stroke="#000000" stroke-miterlimit="10" x1="455.142" y1="343.039" x2="420.786" y2="422.985"/>
		<line fill="none" stroke="#000000" stroke-miterlimit="10" x1="386.49" y1="342.665" x2="390.121" y2="320.128"/>
		<line fill="none" stroke="#000000" stroke-miterlimit="10" x1="386.49" y1="342.665" x2="386.43" y2="343.039"/>
		<line fill="none" stroke="#000000" stroke-miterlimit="10" x1="455.142" y1="343.039" x2="455.077" y2="342.659"/>
		<line fill="none" stroke="#000000" stroke-miterlimit="10" x1="455.077" y1="342.659" x2="451.243" y2="320.128"/>
		<path fill="none" stroke="#000000" stroke-miterlimit="10" d="M386.49,342.665"/>
		<path fill="none" stroke="#000000" stroke-miterlimit="10" d="M403.607,320.128"/>
		<line fill="none" stroke="#000000" stroke-miterlimit="10" x1="386.43" y1="342.744" x2="386.49" y2="342.665"/>
		<line fill="none" stroke="#000000" stroke-miterlimit="10" x1="455.077" y1="342.659" x2="455.142" y2="342.744"/>
	</g>
</g>
<g id="Layer_43">
</g>
</svg>
