<?xml version="1.0" encoding="utf-8"?>
<!-- Generator: Adobe Illustrator 16.0.0, SVG Export Plug-In . SVG Version: 6.00 Build 0)  -->
<!DOCTYPE svg PUBLIC "-//W3C//DTD SVG 1.1//EN" "http://www.w3.org/Graphics/SVG/1.1/DTD/svg11.dtd">
<svg version="1.1" xmlns="http://www.w3.org/2000/svg" xmlns:xlink="http://www.w3.org/1999/xlink" x="0px" y="0px"
	 width="841.89px" height="595.28px" viewBox="0 0 841.89 595.28" enable-background="new 0 0 841.89 595.28" xml:space="preserve">
<g id="Layer_1">
</g>
<g id="Layer_2">
</g>
<g id="Layer_3">
</g>
<g id="Layer_4">
</g>
<g id="Layer_5">
</g>
<g id="Layer_6">
</g>
<g id="Layer_7">
</g>
<g id="Layer_8">
</g>
<g id="Layer_9">
</g>
<g id="Layer_10">
</g>
<g id="Layer_11">
</g>
<g id="Layer_12">
</g>
<g id="Layer_13">
</g>
<g id="Layer_14">
</g>
<g id="Layer_15">
</g>
<g id="Layer_16">
</g>
<g id="Layer_17">
</g>
<g id="Layer_18">
</g>
<g id="Layer_19">
</g>
<g id="Layer_20">
</g>
<g id="Layer_21">
</g>
<g id="Layer_22">
</g>
<g id="Layer_24">
</g>
<g id="Layer_25">
</g>
<g id="Layer_26">
</g>
<g id="Layer_27">
</g>
<g id="Layer_28">
	<g>
		<g>
			<line fill="none" stroke="#000000" stroke-miterlimit="10" x1="413.832" y1="263.438" x2="330.464" y2="366.627"/>
			<line fill="none" stroke="#000000" stroke-miterlimit="10" x1="468.302" y1="330.346" x2="413.832" y2="263.438"/>
			<g>
				<g>
					<g>
						<g>
							<g>
								<g>
									
										<rect x="408.534" y="376.883" transform="matrix(-0.0039 1 -1 -0.0039 797.024 -29.6473)" fill="none" width="9.488" height="10.499"/>
								</g>
								<rect x="412.919" y="378.09" fill-rule="evenodd" clip-rule="evenodd" width="1.05" height="1.762"/>
								<rect x="412.907" y="381.249" fill-rule="evenodd" clip-rule="evenodd" width="1.05" height="1.762"/>
								<rect x="412.894" y="384.397" fill-rule="evenodd" clip-rule="evenodd" width="1.05" height="1.762"/>
							</g>
						</g>
						<g>
							<g>
								<g>
									
										<rect x="408.571" y="367.395" transform="matrix(-0.0039 1 -1 -0.0039 787.5729 -39.2106)" fill="none" width="9.488" height="10.499"/>
								</g>
								<rect x="412.956" y="368.601" fill-rule="evenodd" clip-rule="evenodd" width="1.05" height="1.762"/>
								<rect x="412.944" y="371.761" fill-rule="evenodd" clip-rule="evenodd" width="1.05" height="1.761"/>
								<rect x="412.932" y="374.909" fill-rule="evenodd" clip-rule="evenodd" width="1.05" height="1.761"/>
							</g>
						</g>
						<g>
							<g>
								<g>
									
										<rect x="408.608" y="357.906" transform="matrix(-0.004 1 -1 -0.004 778.1429 -48.7544)" fill="none" width="9.489" height="10.499"/>
								</g>
								<rect x="412.994" y="359.113" fill-rule="evenodd" clip-rule="evenodd" width="1.05" height="1.761"/>
								<rect x="412.981" y="362.272" fill-rule="evenodd" clip-rule="evenodd" width="1.05" height="1.761"/>
								<rect x="412.969" y="365.421" fill-rule="evenodd" clip-rule="evenodd" width="1.05" height="1.761"/>
							</g>
						</g>
						<g>
							<g>
								<g>
									
										<rect x="408.645" y="348.417" transform="matrix(-0.0039 1 -1 -0.0039 768.6708 -58.3363)" fill="none" width="9.488" height="10.499"/>
								</g>
								<rect x="413.031" y="349.625" fill-rule="evenodd" clip-rule="evenodd" width="1.05" height="1.761"/>
								<rect x="413.018" y="352.783" fill-rule="evenodd" clip-rule="evenodd" width="1.05" height="1.762"/>
								<rect x="413.006" y="355.932" fill-rule="evenodd" clip-rule="evenodd" width="1.05" height="1.762"/>
							</g>
						</g>
						<g>
							<g>
								<g>
									
										<rect x="408.683" y="338.929" transform="matrix(-0.0039 1 -1 -0.0039 759.22 -67.899)" fill="none" width="9.488" height="10.499"/>
								</g>
								<rect x="413.068" y="340.136" fill-rule="evenodd" clip-rule="evenodd" width="1.05" height="1.762"/>
								<rect x="413.056" y="343.294" fill-rule="evenodd" clip-rule="evenodd" width="1.05" height="1.762"/>
								<rect x="413.043" y="346.443" fill-rule="evenodd" clip-rule="evenodd" width="1.05" height="1.762"/>
							</g>
						</g>
						<g>
							<g>
								<g>
									
										<rect x="408.72" y="329.44" transform="matrix(-0.004 1 -1 -0.004 749.7898 -77.4447)" fill="none" width="9.488" height="10.499"/>
								</g>
								<rect x="413.105" y="330.647" fill-rule="evenodd" clip-rule="evenodd" width="1.05" height="1.762"/>
								<rect x="413.093" y="333.807" fill-rule="evenodd" clip-rule="evenodd" width="1.05" height="1.761"/>
								<rect x="413.081" y="336.955" fill-rule="evenodd" clip-rule="evenodd" width="1.05" height="1.761"/>
							</g>
						</g>
						<g>
							<g>
								<g>
									
										<rect x="408.757" y="319.952" transform="matrix(-0.0039 1 -1 -0.0039 740.3177 -87.0249)" fill="none" width="9.489" height="10.499"/>
								</g>
								<rect x="413.143" y="321.159" fill-rule="evenodd" clip-rule="evenodd" width="1.05" height="1.761"/>
								<rect x="413.13" y="324.318" fill-rule="evenodd" clip-rule="evenodd" width="1.05" height="1.761"/>
								<rect x="413.118" y="327.467" fill-rule="evenodd" clip-rule="evenodd" width="1.05" height="1.761"/>
							</g>
						</g>
						<g>
							<g>
								<g>
									
										<rect x="408.795" y="310.464" transform="matrix(-0.0039 1 -1 -0.0039 730.8667 -96.588)" fill="none" width="9.488" height="10.499"/>
								</g>
								<rect x="413.18" y="311.671" fill-rule="evenodd" clip-rule="evenodd" width="1.05" height="1.761"/>
								<rect x="413.167" y="314.829" fill-rule="evenodd" clip-rule="evenodd" width="1.05" height="1.762"/>
								<rect x="413.155" y="317.978" fill-rule="evenodd" clip-rule="evenodd" width="1.05" height="1.762"/>
							</g>
						</g>
						<g>
							<g>
								<g>
									
										<rect x="408.832" y="300.975" transform="matrix(-0.004 1 -1 -0.004 721.437 -106.1346)" fill="none" width="9.488" height="10.499"/>
								</g>
								<rect x="413.217" y="302.183" fill-rule="evenodd" clip-rule="evenodd" width="1.05" height="1.761"/>
								<rect x="413.205" y="305.34" fill-rule="evenodd" clip-rule="evenodd" width="1.05" height="1.762"/>
								<rect x="413.192" y="308.489" fill-rule="evenodd" clip-rule="evenodd" width="1.05" height="1.762"/>
							</g>
						</g>
						<g>
							<g>
								<g>
									
										<rect x="408.869" y="291.487" transform="matrix(-0.0039 1 -1 -0.0039 711.965 -115.7133)" fill="none" width="9.488" height="10.499"/>
								</g>
								<rect x="413.254" y="292.693" fill-rule="evenodd" clip-rule="evenodd" width="1.05" height="1.762"/>
								<rect x="413.242" y="295.853" fill-rule="evenodd" clip-rule="evenodd" width="1.05" height="1.761"/>
								<rect x="413.23" y="299.001" fill-rule="evenodd" clip-rule="evenodd" width="1.05" height="1.761"/>
							</g>
						</g>
						<g>
							<g>
								<g>
									
										<rect x="408.906" y="281.998" transform="matrix(-0.0039 1 -1 -0.0039 702.5138 -125.2765)" fill="none" width="9.488" height="10.499"/>
								</g>
								<rect x="413.292" y="283.205" fill-rule="evenodd" clip-rule="evenodd" width="1.05" height="1.762"/>
								<rect x="413.279" y="286.364" fill-rule="evenodd" clip-rule="evenodd" width="1.05" height="1.761"/>
								<rect x="413.267" y="289.513" fill-rule="evenodd" clip-rule="evenodd" width="1.05" height="1.761"/>
							</g>
						</g>
						<g>
							<g>
								<g>
									
										<rect x="408.943" y="272.51" transform="matrix(-0.004 1 -1 -0.004 693.0839 -134.8247)" fill="none" width="9.489" height="10.499"/>
								</g>
								<rect x="413.329" y="273.717" fill-rule="evenodd" clip-rule="evenodd" width="1.05" height="1.761"/>
								<rect x="413.317" y="276.875" fill-rule="evenodd" clip-rule="evenodd" width="1.05" height="1.762"/>
								<rect x="413.304" y="280.024" fill-rule="evenodd" clip-rule="evenodd" width="1.05" height="1.761"/>
							</g>
						</g>
						<g>
							<g>
								<g>
									
										<rect x="408.981" y="263.021" transform="matrix(-0.0039 1 -1 -0.0039 683.6117 -144.4022)" fill="none" width="9.488" height="10.499"/>
								</g>
								<rect x="413.366" y="264.229" fill-rule="evenodd" clip-rule="evenodd" width="1.05" height="1.761"/>
								<rect x="413.354" y="267.386" fill-rule="evenodd" clip-rule="evenodd" width="1.05" height="1.762"/>
								<rect x="413.341" y="270.535" fill-rule="evenodd" clip-rule="evenodd" width="1.05" height="1.762"/>
							</g>
						</g>
					</g>
				</g>
			</g>
			<path fill="none" stroke="#000000" stroke-miterlimit="10" d="M413.728,263.354"/>
			<line fill="none" stroke="#000000" stroke-miterlimit="10" x1="413.259" y1="387.067" x2="468.208" y2="330.229"/>
		</g>
		<g>
			<g>
				<g>
					<g>
						<g>
							<g>
								
									<rect x="357.485" y="327.842" transform="matrix(-0.6914 -0.7225 0.7225 -0.6914 372.368 825.2331)" fill="none" width="9.88" height="10.499"/>
							</g>
							
								<rect x="364.066" y="334.66" transform="matrix(0.7227 -0.6911 0.6911 0.7227 -130.8378 345.0159)" fill-rule="evenodd" clip-rule="evenodd" width="1.05" height="1.834"/>
							
								<rect x="361.791" y="332.283" transform="matrix(0.7223 -0.6916 0.6916 0.7223 -129.8189 343.116)" fill-rule="evenodd" clip-rule="evenodd" width="1.051" height="1.833"/>
							
								<rect x="359.525" y="329.915" transform="matrix(0.7225 -0.6913 0.6913 0.7225 -128.8141 340.7193)" fill-rule="evenodd" clip-rule="evenodd" width="1.05" height="1.834"/>
						</g>
					</g>
					<g>
						<g>
							<g>
								
									<rect x="364.316" y="334.98" transform="matrix(-0.6914 -0.7225 0.7225 -0.6914 378.7655 842.241)" fill="none" width="9.88" height="10.499"/>
							</g>
							
								<rect x="370.897" y="341.798" transform="matrix(0.7227 -0.6911 0.6911 0.7227 -133.8768 351.716)" fill-rule="evenodd" clip-rule="evenodd" width="1.05" height="1.834"/>
							
								<rect x="368.623" y="339.422" transform="matrix(0.7227 -0.6911 0.6911 0.7227 -132.8651 349.4857)" fill-rule="evenodd" clip-rule="evenodd" width="1.05" height="1.834"/>
							
								<rect x="366.356" y="337.053" transform="matrix(0.7221 -0.6918 0.6918 0.7221 -131.8468 347.7576)" fill-rule="evenodd" clip-rule="evenodd" width="1.05" height="1.833"/>
						</g>
					</g>
					<g>
						<g>
							<g>
								
									<rect x="371.147" y="342.118" transform="matrix(-0.6914 -0.7225 0.7225 -0.6914 385.1276 859.2504)" fill="none" width="9.88" height="10.499"/>
							</g>
							
								<rect x="377.727" y="348.936" transform="matrix(0.7223 -0.6916 0.6916 0.7223 -136.9103 358.7623)" fill-rule="evenodd" clip-rule="evenodd" width="1.051" height="1.834"/>
							
								<rect x="375.454" y="346.559" transform="matrix(0.7227 -0.6911 0.6911 0.7227 -135.9042 356.1857)" fill-rule="evenodd" clip-rule="evenodd" width="1.05" height="1.834"/>
							
								<rect x="373.187" y="344.191" transform="matrix(0.7225 -0.6913 0.6913 0.7225 -134.8931 354.126)" fill-rule="evenodd" clip-rule="evenodd" width="1.05" height="1.834"/>
						</g>
					</g>
					<g>
						<g>
							<g>
								
									<rect x="377.978" y="349.257" transform="matrix(-0.6914 -0.7225 0.7225 -0.6914 391.5598 876.2586)" fill="none" width="9.88" height="10.499"/>
							</g>
							
								<rect x="384.559" y="356.074" transform="matrix(0.7227 -0.6911 0.6911 0.7227 -139.9555 365.1163)" fill-rule="evenodd" clip-rule="evenodd" width="1.05" height="1.834"/>
							
								<rect x="382.285" y="353.698" transform="matrix(0.7223 -0.6916 0.6916 0.7223 -138.9379 363.2364)" fill-rule="evenodd" clip-rule="evenodd" width="1.051" height="1.834"/>
							
								<rect x="380.018" y="351.329" transform="matrix(0.7225 -0.6913 0.6913 0.7225 -137.9323 360.8292)" fill-rule="evenodd" clip-rule="evenodd" width="1.05" height="1.834"/>
						</g>
					</g>
					<g>
						<g>
							<g>
								
									<rect x="384.809" y="356.394" transform="matrix(-0.6914 -0.7225 0.7225 -0.6914 397.9209 893.2671)" fill="none" width="9.88" height="10.499"/>
							</g>
							
								<rect x="391.39" y="363.212" transform="matrix(0.7223 -0.6916 0.6916 0.7223 -142.9892 372.1757)" fill-rule="evenodd" clip-rule="evenodd" width="1.051" height="1.833"/>
							
								<rect x="389.116" y="360.836" transform="matrix(0.7227 -0.6911 0.6911 0.7227 -141.9829 369.586)" fill-rule="evenodd" clip-rule="evenodd" width="1.05" height="1.834"/>
							
								<rect x="386.849" y="358.467" transform="matrix(0.7221 -0.6918 0.6918 0.7221 -140.9659 367.8874)" fill-rule="evenodd" clip-rule="evenodd" width="1.05" height="1.833"/>
						</g>
					</g>
					<g>
						<g>
							<g>
								
									<rect x="391.64" y="363.533" transform="matrix(-0.6914 -0.7225 0.7225 -0.6914 404.3541 910.2761)" fill="none" width="9.88" height="10.499"/>
							</g>
							
								<rect x="398.221" y="370.35" transform="matrix(0.7227 -0.6911 0.6911 0.7227 -146.0342 378.5166)" fill-rule="evenodd" clip-rule="evenodd" width="1.05" height="1.834"/>
							
								<rect x="395.947" y="367.974" transform="matrix(0.7223 -0.6916 0.6916 0.7223 -145.0168 376.6499)" fill-rule="evenodd" clip-rule="evenodd" width="1.051" height="1.833"/>
							
								<rect x="393.68" y="365.605" transform="matrix(0.7225 -0.6913 0.6913 0.7225 -144.0113 374.2359)" fill-rule="evenodd" clip-rule="evenodd" width="1.05" height="1.834"/>
						</g>
					</g>
					<g>
						<g>
							<g>
								
									<rect x="398.471" y="370.671" transform="matrix(-0.6914 -0.7225 0.7225 -0.6914 410.7516 927.2841)" fill="none" width="9.88" height="10.499"/>
							</g>
							
								<rect x="405.052" y="377.488" transform="matrix(0.7227 -0.6911 0.6911 0.7227 -149.0732 385.2167)" fill-rule="evenodd" clip-rule="evenodd" width="1.05" height="1.834"/>
							
								<rect x="402.778" y="375.112" transform="matrix(0.7227 -0.6911 0.6911 0.7227 -148.0616 382.9864)" fill-rule="evenodd" clip-rule="evenodd" width="1.05" height="1.834"/>
							
								<rect x="400.511" y="372.743" transform="matrix(0.7221 -0.6918 0.6918 0.7221 -147.0454 381.3073)" fill-rule="evenodd" clip-rule="evenodd" width="1.05" height="1.833"/>
						</g>
					</g>
					<g>
						<g>
							<g>
								
									<rect x="405.302" y="377.808" transform="matrix(-0.6914 -0.7225 0.7225 -0.6914 417.1107 944.2925)" fill="none" width="9.88" height="10.499"/>
							</g>
							
								<rect x="411.883" y="384.626" transform="matrix(0.7223 -0.6916 0.6916 0.7223 -152.1078 392.296)" fill-rule="evenodd" clip-rule="evenodd" width="1.051" height="1.833"/>
							
								<rect x="409.609" y="382.25" transform="matrix(0.7227 -0.6911 0.6911 0.7227 -151.1006 389.6864)" fill-rule="evenodd" clip-rule="evenodd" width="1.05" height="1.834"/>
							
								<rect x="407.342" y="379.881" transform="matrix(0.7221 -0.6918 0.6918 0.7221 -150.0852 388.0173)" fill-rule="evenodd" clip-rule="evenodd" width="1.05" height="1.834"/>
						</g>
					</g>
				</g>
			</g>
		</g>
	</g>
	<line fill="none" stroke="#000000" stroke-miterlimit="10" x1="413.259" y1="386.877" x2="330.464" y2="366.627"/>
	<line fill="none" stroke="#000000" stroke-miterlimit="10" x1="413.728" y1="464.151" x2="330.464" y2="366.627"/>
	<line fill="none" stroke="#000000" stroke-miterlimit="10" x1="413.728" y1="464.151" x2="468.302" y2="330.346"/>
	<g>
		<g>
			<g>
				<g>
					<g>
						<g>
							
								<rect x="376.023" y="377.509" transform="matrix(-0.3766 -0.9264 0.9264 -0.3766 169.3963 879.5169)" fill="none" width="9.248" height="10.499"/>
						</g>
						
							<rect x="381.14" y="384.813" transform="matrix(0.9264 -0.3765 0.3765 0.9264 -117.1245 172.0836)" fill-rule="evenodd" clip-rule="evenodd" width="1.05" height="1.717"/>
						
							<rect x="379.981" y="381.962" transform="matrix(0.9263 -0.3767 0.3767 0.9263 -116.173 171.5242)" fill-rule="evenodd" clip-rule="evenodd" width="1.05" height="1.716"/>
						
							<rect x="378.826" y="379.118" transform="matrix(0.9267 -0.3759 0.3759 0.9267 -115.0069 170.4535)" fill-rule="evenodd" clip-rule="evenodd" width="1.05" height="1.717"/>
					</g>
				</g>
				<g>
					<g>
						<g>
							
								<rect x="379.505" y="386.077" transform="matrix(-0.3765 -0.9264 0.9264 -0.3765 166.2082 894.5178)" fill="none" width="9.249" height="10.499"/>
						</g>
						
							<rect x="384.622" y="393.382" transform="matrix(0.9263 -0.3767 0.3767 0.9263 -120.1327 174.1137)" fill-rule="evenodd" clip-rule="evenodd" width="1.05" height="1.716"/>
						
							<rect x="383.463" y="390.529" transform="matrix(0.9263 -0.3767 0.3767 0.9263 -119.1436 173.4669)" fill-rule="evenodd" clip-rule="evenodd" width="1.05" height="1.716"/>
						
							<rect x="382.308" y="387.686" transform="matrix(0.9264 -0.3765 0.3765 0.9264 -118.1202 172.7346)" fill-rule="evenodd" clip-rule="evenodd" width="1.05" height="1.716"/>
					</g>
				</g>
				<g>
					<g>
						<g>
							
								<rect x="382.987" y="394.644" transform="matrix(-0.3766 -0.9264 0.9264 -0.3766 163.109 909.5572)" fill="none" width="9.248" height="10.499"/>
						</g>
						
							<rect x="388.105" y="401.949" transform="matrix(0.9263 -0.3767 0.3767 0.9263 -123.1034 176.0564)" fill-rule="evenodd" clip-rule="evenodd" width="1.05" height="1.716"/>
						
							<rect x="386.945" y="399.096" transform="matrix(0.9264 -0.3765 0.3765 0.9264 -122.0751 175.3205)" fill-rule="evenodd" clip-rule="evenodd" width="1.05" height="1.717"/>
						
							<rect x="385.79" y="396.254" transform="matrix(0.9263 -0.3767 0.3767 0.9263 -121.1286 174.765)" fill-rule="evenodd" clip-rule="evenodd" width="1.05" height="1.716"/>
					</g>
				</g>
				<g>
					<g>
						<g>
							
								<rect x="386.469" y="403.212" transform="matrix(-0.3766 -0.9264 0.9264 -0.3766 159.9657 924.5765)" fill="none" width="9.248" height="10.499"/>
						</g>
						
							<rect x="391.587" y="410.516" transform="matrix(0.9263 -0.3767 0.3767 0.9263 -126.0742 177.9991)" fill-rule="evenodd" clip-rule="evenodd" width="1.05" height="1.717"/>
						
							<rect x="390.428" y="407.664" transform="matrix(0.9267 -0.3759 0.3759 0.9267 -124.8859 176.9078)" fill-rule="evenodd" clip-rule="evenodd" width="1.05" height="1.717"/>
						
							<rect x="389.272" y="404.821" transform="matrix(0.9263 -0.3767 0.3767 0.9263 -124.0994 176.7077)" fill-rule="evenodd" clip-rule="evenodd" width="1.05" height="1.717"/>
					</g>
				</g>
				<g>
					<g>
						<g>
							
								<rect x="389.952" y="411.78" transform="matrix(-0.3765 -0.9264 0.9264 -0.3765 156.7759 939.5757)" fill="none" width="9.249" height="10.499"/>
						</g>
						
							<rect x="395.069" y="419.084" transform="matrix(0.9267 -0.3759 0.3759 0.9267 -128.838 179.4898)" fill-rule="evenodd" clip-rule="evenodd" width="1.05" height="1.717"/>
						
							<rect x="393.91" y="416.232" transform="matrix(0.9263 -0.3767 0.3767 0.9263 -128.056 179.2951)" fill-rule="evenodd" clip-rule="evenodd" width="1.05" height="1.716"/>
						
							<rect x="392.754" y="413.389" transform="matrix(0.9263 -0.3767 0.3767 0.9263 -127.0703 178.6505)" fill-rule="evenodd" clip-rule="evenodd" width="1.05" height="1.716"/>
					</g>
				</g>
				<g>
					<g>
						<g>
							
								<rect x="393.434" y="420.348" transform="matrix(-0.3766 -0.9264 0.9264 -0.3766 153.6781 954.6166)" fill="none" width="9.248" height="10.499"/>
						</g>
						
							<rect x="398.551" y="427.652" transform="matrix(0.9264 -0.3765 0.3765 0.9264 -131.9725 181.7916)" fill-rule="evenodd" clip-rule="evenodd" width="1.05" height="1.716"/>
						
							<rect x="397.392" y="424.8" transform="matrix(0.9263 -0.3767 0.3767 0.9263 -131.0268 181.2378)" fill-rule="evenodd" clip-rule="evenodd" width="1.05" height="1.717"/>
						
							<rect x="396.237" y="421.957" transform="matrix(0.9263 -0.3767 0.3767 0.9263 -130.0409 180.5932)" fill-rule="evenodd" clip-rule="evenodd" width="1.05" height="1.716"/>
					</g>
				</g>
				<g>
					<g>
						<g>
							
								<rect x="396.916" y="428.915" transform="matrix(-0.3765 -0.9264 0.9264 -0.3765 150.5088 969.6238)" fill="none" width="9.248" height="10.499"/>
						</g>
						
							<rect x="402.034" y="436.22" transform="matrix(0.9263 -0.3767 0.3767 0.9263 -134.9865 183.8273)" fill-rule="evenodd" clip-rule="evenodd" width="1.05" height="1.717"/>
						
							<rect x="400.875" y="433.367" transform="matrix(0.9267 -0.3759 0.3759 0.9267 -133.781 182.7193)" fill-rule="evenodd" clip-rule="evenodd" width="1.05" height="1.717"/>
						
							<rect x="399.719" y="430.524" transform="matrix(0.9264 -0.3765 0.3765 0.9264 -132.9681 182.4426)" fill-rule="evenodd" clip-rule="evenodd" width="1.05" height="1.717"/>
					</g>
				</g>
				<g>
					<g>
						<g>
							
								<rect x="400.398" y="437.482" transform="matrix(-0.3766 -0.9264 0.9264 -0.3766 147.3917 984.6555)" fill="none" width="9.248" height="10.499"/>
						</g>
						
							<rect x="405.516" y="444.788" transform="matrix(0.9267 -0.3759 0.3759 0.9267 -137.7332 185.3013)" fill-rule="evenodd" clip-rule="evenodd" width="1.05" height="1.717"/>
						
							<rect x="404.356" y="441.935" transform="matrix(0.9264 -0.3765 0.3765 0.9264 -136.9231 185.0284)" fill-rule="evenodd" clip-rule="evenodd" width="1.05" height="1.716"/>
						
							<rect x="403.201" y="439.092" transform="matrix(0.9267 -0.3759 0.3759 0.9267 -135.7622 184.0136)" fill-rule="evenodd" clip-rule="evenodd" width="1.05" height="1.717"/>
					</g>
				</g>
				<g>
					<g>
						<g>
							
								<rect x="403.88" y="446.05" transform="matrix(-0.3765 -0.9264 0.9264 -0.3765 144.226 999.665)" fill="none" width="9.249" height="10.499"/>
						</g>
						
							<rect x="408.998" y="453.355" transform="matrix(0.9263 -0.3767 0.3767 0.9263 -140.928 187.7127)" fill-rule="evenodd" clip-rule="evenodd" width="1.05" height="1.716"/>
						
							<rect x="407.839" y="450.503" transform="matrix(0.9263 -0.3767 0.3767 0.9263 -139.9389 187.066)" fill-rule="evenodd" clip-rule="evenodd" width="1.05" height="1.716"/>
						
							<rect x="406.683" y="447.66" transform="matrix(0.9263 -0.3767 0.3767 0.9263 -138.9532 186.4213)" fill-rule="evenodd" clip-rule="evenodd" width="1.05" height="1.716"/>
					</g>
				</g>
				<g>
					<g>
						<g>
							
								<rect x="407.363" y="454.618" transform="matrix(-0.3765 -0.9264 0.9264 -0.3765 141.0772 1014.6825)" fill="none" width="9.248" height="10.499"/>
						</g>
						
							<rect x="412.48" y="461.923" transform="matrix(0.9263 -0.3767 0.3767 0.9263 -143.8989 189.6555)" fill-rule="evenodd" clip-rule="evenodd" width="1.05" height="1.717"/>
						
							<rect x="411.321" y="459.071" transform="matrix(0.9267 -0.3759 0.3759 0.9267 -142.6762 188.5308)" fill-rule="evenodd" clip-rule="evenodd" width="1.05" height="1.717"/>
						
							<rect x="410.165" y="456.227" transform="matrix(0.9263 -0.3767 0.3767 0.9263 -141.9241 188.3641)" fill-rule="evenodd" clip-rule="evenodd" width="1.05" height="1.717"/>
					</g>
				</g>
			</g>
		</g>
	</g>
	<line fill="none" stroke="#000000" stroke-miterlimit="10" x1="413.728" y1="464.151" x2="413.259" y2="386.877"/>
	<g>
		<g>
			<g>
				<g>
					<g>
						<g>
							<g>
								<rect x="408.582" y="263.229" fill="none" width="10.499" height="8.974"/>
							</g>
							<rect x="413.46" y="263.892" fill-rule="evenodd" clip-rule="evenodd" width="1.05" height="1.666"/>
							<rect x="413.46" y="266.879" fill-rule="evenodd" clip-rule="evenodd" width="1.05" height="1.666"/>
							<rect x="413.46" y="269.856" fill-rule="evenodd" clip-rule="evenodd" width="1.05" height="1.666"/>
						</g>
					</g>
					<g>
						<g>
							<g>
								<rect x="408.582" y="254.255" fill="none" width="10.499" height="8.974"/>
							</g>
							<rect x="413.46" y="254.918" fill-rule="evenodd" clip-rule="evenodd" width="1.05" height="1.665"/>
							<rect x="413.46" y="257.905" fill-rule="evenodd" clip-rule="evenodd" width="1.05" height="1.666"/>
							<rect x="413.46" y="260.883" fill-rule="evenodd" clip-rule="evenodd" width="1.05" height="1.666"/>
						</g>
					</g>
					<g>
						<g>
							<g>
								<rect x="408.582" y="245.281" fill="none" width="10.499" height="8.974"/>
							</g>
							<rect x="413.46" y="245.944" fill-rule="evenodd" clip-rule="evenodd" width="1.05" height="1.666"/>
							<rect x="413.46" y="248.932" fill-rule="evenodd" clip-rule="evenodd" width="1.05" height="1.666"/>
							<rect x="413.46" y="251.909" fill-rule="evenodd" clip-rule="evenodd" width="1.05" height="1.666"/>
						</g>
					</g>
					<g>
						<g>
							<g>
								<rect x="408.582" y="236.308" fill="none" width="10.499" height="8.974"/>
							</g>
							<rect x="413.46" y="236.971" fill-rule="evenodd" clip-rule="evenodd" width="1.05" height="1.665"/>
							<rect x="413.46" y="239.958" fill-rule="evenodd" clip-rule="evenodd" width="1.05" height="1.666"/>
							<rect x="413.46" y="242.936" fill-rule="evenodd" clip-rule="evenodd" width="1.05" height="1.666"/>
						</g>
					</g>
					<g>
						<g>
							<g>
								<rect x="408.582" y="227.334" fill="none" width="10.499" height="8.974"/>
							</g>
							<rect x="413.46" y="227.997" fill-rule="evenodd" clip-rule="evenodd" width="1.05" height="1.666"/>
							<rect x="413.46" y="230.984" fill-rule="evenodd" clip-rule="evenodd" width="1.05" height="1.666"/>
							<rect x="413.46" y="233.962" fill-rule="evenodd" clip-rule="evenodd" width="1.05" height="1.666"/>
						</g>
					</g>
					<g>
						<g>
							<g>
								<rect x="408.582" y="218.36" fill="none" width="10.499" height="8.974"/>
							</g>
							<rect x="413.46" y="219.023" fill-rule="evenodd" clip-rule="evenodd" width="1.05" height="1.665"/>
							<rect x="413.46" y="222.011" fill-rule="evenodd" clip-rule="evenodd" width="1.05" height="1.666"/>
							<rect x="413.46" y="224.988" fill-rule="evenodd" clip-rule="evenodd" width="1.05" height="1.666"/>
						</g>
					</g>
					<g>
						<g>
							<g>
								<rect x="408.582" y="209.387" fill="none" width="10.499" height="8.974"/>
							</g>
							<rect x="413.46" y="210.05" fill-rule="evenodd" clip-rule="evenodd" width="1.05" height="1.666"/>
							<rect x="413.46" y="213.037" fill-rule="evenodd" clip-rule="evenodd" width="1.05" height="1.666"/>
							<rect x="413.46" y="216.015" fill-rule="evenodd" clip-rule="evenodd" width="1.05" height="1.666"/>
						</g>
					</g>
					<g>
						<g>
							<g>
								<rect x="408.582" y="200.413" fill="none" width="10.499" height="8.974"/>
							</g>
							<rect x="413.46" y="201.076" fill-rule="evenodd" clip-rule="evenodd" width="1.05" height="1.665"/>
							<rect x="413.46" y="204.063" fill-rule="evenodd" clip-rule="evenodd" width="1.05" height="1.666"/>
							<rect x="413.46" y="207.041" fill-rule="evenodd" clip-rule="evenodd" width="1.05" height="1.666"/>
						</g>
					</g>
					<g>
						<g>
							<g>
								<rect x="408.582" y="191.439" fill="none" width="10.499" height="8.974"/>
							</g>
							<rect x="413.46" y="192.103" fill-rule="evenodd" clip-rule="evenodd" width="1.05" height="1.666"/>
							<rect x="413.46" y="195.09" fill-rule="evenodd" clip-rule="evenodd" width="1.05" height="1.666"/>
							<rect x="413.46" y="198.067" fill-rule="evenodd" clip-rule="evenodd" width="1.05" height="1.666"/>
						</g>
					</g>
				</g>
			</g>
		</g>
		<line fill="none" stroke="#000000" stroke-miterlimit="10" x1="379.475" y1="271.206" x2="384.562" y2="300.888"/>
		<line fill="none" stroke="#000000" stroke-miterlimit="10" x1="413.832" y1="191.439" x2="379.475" y2="271.385"/>
		<line fill="none" stroke="#000000" stroke-miterlimit="10" x1="448.188" y1="271.385" x2="413.832" y2="191.439"/>
		<line fill="none" stroke="#000000" stroke-miterlimit="10" x1="448.188" y1="271.385" x2="443.162" y2="300.709"/>
	</g>
</g>
<g id="Layer_29">
</g>
<g id="Layer_30">
</g>
<g id="Layer_31">
</g>
<g id="Layer_32">
</g>
<g id="Layer_33">
</g>
<g id="Layer_34">
</g>
<g id="Layer_35">
</g>
<g id="Layer_36">
</g>
<g id="Layer_37">
</g>
<g id="Layer_38">
</g>
<g id="Layer_39">
</g>
<g id="Layer_40">
</g>
<g id="Layer_41">
</g>
<g id="Layer_43">
</g>
</svg>
