<?xml version="1.0" encoding="utf-8"?>
<!-- Generator: Adobe Illustrator 16.0.0, SVG Export Plug-In . SVG Version: 6.00 Build 0)  -->
<!DOCTYPE svg PUBLIC "-//W3C//DTD SVG 1.1//EN" "http://www.w3.org/Graphics/SVG/1.1/DTD/svg11.dtd">
<svg version="1.1" xmlns="http://www.w3.org/2000/svg" xmlns:xlink="http://www.w3.org/1999/xlink" x="0px" y="0px"
	 width="841.89px" height="595.28px" viewBox="0 0 841.89 595.28" enable-background="new 0 0 841.89 595.28" xml:space="preserve">
<g id="Layer_1">
</g>
<g id="Layer_2">
</g>
<g id="Layer_3">
</g>
<g id="Layer_4">
</g>
<g id="Layer_5">
</g>
<g id="Layer_6">
</g>
<g id="Layer_7">
</g>
<g id="Layer_8">
</g>
<g id="Layer_9">
</g>
<g id="Layer_10">
</g>
<g id="Layer_11">
</g>
<g id="Layer_12">
</g>
<g id="Layer_13">
</g>
<g id="Layer_14">
</g>
<g id="Layer_15">
</g>
<g id="Layer_16">
</g>
<g id="Layer_17">
	<g>
		<g>
			
				<rect x="350.08" y="298.813" transform="matrix(0.7071 -0.7071 0.7071 0.7071 -138.1103 405.9297)" fill="none" stroke="#000000" stroke-miterlimit="10" width="141.731" height="141.732"/>
			<path fill="none" stroke="#000000" stroke-miterlimit="10" d="M353.52,231.796"/>
			<line fill="none" stroke="#000000" stroke-miterlimit="10" x1="421.05" y1="269.185" x2="366.794" y2="336.341"/>
			<line fill="none" stroke="#000000" stroke-miterlimit="10" x1="475.521" y1="336.093" x2="421.05" y2="269.185"/>
			<g>
				<g>
					<g>
						<g>
							<g>
								<g>
									
										<rect x="415.752" y="382.63" transform="matrix(-0.0039 1 -1 -0.0039 810.0173 -31.0962)" fill="none" width="9.488" height="10.499"/>
								</g>
								<rect x="420.137" y="383.837" fill-rule="evenodd" clip-rule="evenodd" width="1.05" height="1.761"/>
								<rect x="420.125" y="386.996" fill-rule="evenodd" clip-rule="evenodd" width="1.05" height="1.761"/>
								<rect x="420.112" y="390.145" fill-rule="evenodd" clip-rule="evenodd" width="1.05" height="1.761"/>
							</g>
						</g>
						<g>
							<g>
								<g>
									
										<rect x="415.789" y="373.142" transform="matrix(-0.004 1 -1 -0.004 800.5881 -40.6395)" fill="none" width="9.489" height="10.499"/>
								</g>
								<rect x="420.174" y="374.348" fill-rule="evenodd" clip-rule="evenodd" width="1.05" height="1.761"/>
								<rect x="420.162" y="377.507" fill-rule="evenodd" clip-rule="evenodd" width="1.05" height="1.761"/>
								<rect x="420.15" y="380.656" fill-rule="evenodd" clip-rule="evenodd" width="1.05" height="1.761"/>
							</g>
						</g>
						<g>
							<g>
								<g>
									
										<rect x="415.826" y="363.653" transform="matrix(-0.0039 1 -1 -0.0039 791.1154 -50.2223)" fill="none" width="9.489" height="10.499"/>
								</g>
								<rect x="420.212" y="364.86" fill-rule="evenodd" clip-rule="evenodd" width="1.05" height="1.761"/>
								<rect x="420.199" y="368.019" fill-rule="evenodd" clip-rule="evenodd" width="1.05" height="1.761"/>
								<rect x="420.187" y="371.167" fill-rule="evenodd" clip-rule="evenodd" width="1.05" height="1.761"/>
							</g>
						</g>
						<g>
							<g>
								<g>
									
										<rect x="415.864" y="354.164" transform="matrix(-0.0039 1 -1 -0.0039 781.664 -59.7852)" fill="none" width="9.488" height="10.499"/>
								</g>
								<rect x="420.249" y="355.371" fill-rule="evenodd" clip-rule="evenodd" width="1.05" height="1.761"/>
								<rect x="420.237" y="358.53" fill-rule="evenodd" clip-rule="evenodd" width="1.05" height="1.761"/>
								<rect x="420.224" y="361.679" fill-rule="evenodd" clip-rule="evenodd" width="1.05" height="1.761"/>
							</g>
						</g>
						<g>
							<g>
								<g>
									
										<rect x="415.901" y="344.676" transform="matrix(-0.0039 1 -1 -0.0039 772.2132 -69.348)" fill="none" width="9.489" height="10.499"/>
								</g>
								<rect x="420.286" y="345.883" fill-rule="evenodd" clip-rule="evenodd" width="1.05" height="1.761"/>
								<rect x="420.274" y="349.042" fill-rule="evenodd" clip-rule="evenodd" width="1.05" height="1.761"/>
								<rect x="420.261" y="352.19" fill-rule="evenodd" clip-rule="evenodd" width="1.05" height="1.761"/>
							</g>
						</g>
						<g>
							<g>
								<g>
									
										<rect x="415.938" y="335.187" transform="matrix(-0.004 1 -1 -0.004 762.7833 -78.8934)" fill="none" width="9.489" height="10.499"/>
								</g>
								<rect x="420.324" y="336.395" fill-rule="evenodd" clip-rule="evenodd" width="1.05" height="1.761"/>
								<rect x="420.311" y="339.553" fill-rule="evenodd" clip-rule="evenodd" width="1.05" height="1.761"/>
								<rect x="420.299" y="342.702" fill-rule="evenodd" clip-rule="evenodd" width="1.05" height="1.761"/>
							</g>
						</g>
						<g>
							<g>
								<g>
									
										<rect x="415.976" y="325.699" transform="matrix(-0.0039 1 -1 -0.0039 753.3109 -88.4739)" fill="none" width="9.488" height="10.499"/>
								</g>
								<rect x="420.361" y="326.906" fill-rule="evenodd" clip-rule="evenodd" width="1.05" height="1.761"/>
								<rect x="420.348" y="330.064" fill-rule="evenodd" clip-rule="evenodd" width="1.05" height="1.761"/>
								<rect x="420.336" y="333.213" fill-rule="evenodd" clip-rule="evenodd" width="1.05" height="1.761"/>
							</g>
						</g>
						<g>
							<g>
								<g>
									
										<rect x="416.013" y="316.21" transform="matrix(-0.0039 1 -1 -0.0039 743.8599 -98.037)" fill="none" width="9.489" height="10.499"/>
								</g>
								<rect x="420.398" y="317.417" fill-rule="evenodd" clip-rule="evenodd" width="1.05" height="1.761"/>
								<rect x="420.386" y="320.576" fill-rule="evenodd" clip-rule="evenodd" width="1.05" height="1.761"/>
								<rect x="420.373" y="323.724" fill-rule="evenodd" clip-rule="evenodd" width="1.05" height="1.761"/>
							</g>
						</g>
						<g>
							<g>
								<g>
									
										<rect x="416.05" y="306.721" transform="matrix(-0.004 1 -1 -0.004 734.4301 -107.5837)" fill="none" width="9.488" height="10.499"/>
								</g>
								<rect x="420.435" y="307.928" fill-rule="evenodd" clip-rule="evenodd" width="1.05" height="1.761"/>
								<rect x="420.423" y="311.087" fill-rule="evenodd" clip-rule="evenodd" width="1.05" height="1.761"/>
								<rect x="420.411" y="314.236" fill-rule="evenodd" clip-rule="evenodd" width="1.05" height="1.761"/>
							</g>
						</g>
						<g>
							<g>
								<g>
									
										<rect x="416.087" y="297.233" transform="matrix(-0.0039 1 -1 -0.0039 724.9576 -117.1627)" fill="none" width="9.489" height="10.499"/>
								</g>
								<rect x="420.473" y="298.44" fill-rule="evenodd" clip-rule="evenodd" width="1.05" height="1.761"/>
								<rect x="420.46" y="301.599" fill-rule="evenodd" clip-rule="evenodd" width="1.05" height="1.761"/>
								<rect x="420.448" y="304.747" fill-rule="evenodd" clip-rule="evenodd" width="1.05" height="1.761"/>
							</g>
						</g>
						<g>
							<g>
								<g>
									
										<rect x="416.124" y="287.744" transform="matrix(-0.0039 1 -1 -0.0039 715.5062 -126.7257)" fill="none" width="9.489" height="10.499"/>
								</g>
								<rect x="420.51" y="288.951" fill-rule="evenodd" clip-rule="evenodd" width="1.05" height="1.761"/>
								<rect x="420.498" y="292.11" fill-rule="evenodd" clip-rule="evenodd" width="1.05" height="1.761"/>
								<rect x="420.485" y="295.259" fill-rule="evenodd" clip-rule="evenodd" width="1.05" height="1.761"/>
							</g>
						</g>
						<g>
							<g>
								<g>
									
										<rect x="416.162" y="278.256" transform="matrix(-0.004 1 -1 -0.004 706.0768 -136.2741)" fill="none" width="9.488" height="10.499"/>
								</g>
								<rect x="420.547" y="279.463" fill-rule="evenodd" clip-rule="evenodd" width="1.05" height="1.761"/>
								<rect x="420.535" y="282.622" fill-rule="evenodd" clip-rule="evenodd" width="1.05" height="1.761"/>
								<rect x="420.522" y="285.77" fill-rule="evenodd" clip-rule="evenodd" width="1.05" height="1.761"/>
							</g>
						</g>
						<g>
							<g>
								<g>
									
										<rect x="416.199" y="268.767" transform="matrix(-0.0039 1 -1 -0.0039 696.6044 -145.8517)" fill="none" width="9.489" height="10.499"/>
								</g>
								<rect x="420.584" y="269.974" fill-rule="evenodd" clip-rule="evenodd" width="1.05" height="1.761"/>
								<rect x="420.572" y="273.133" fill-rule="evenodd" clip-rule="evenodd" width="1.05" height="1.762"/>
								<rect x="420.56" y="276.281" fill-rule="evenodd" clip-rule="evenodd" width="1.05" height="1.761"/>
							</g>
						</g>
					</g>
				</g>
			</g>
			<path fill="none" stroke="#000000" stroke-miterlimit="10" d="M420.946,269.103"/>
			<line fill="none" stroke="#000000" stroke-miterlimit="10" x1="420.478" y1="392.814" x2="475.427" y2="335.978"/>
		</g>
		<line fill="none" stroke="#000000" stroke-miterlimit="10" x1="366.89" y1="335.962" x2="420.876" y2="392.374"/>
	</g>
	<line fill="none" stroke="#000000" stroke-miterlimit="10" x1="420.946" y1="469.897" x2="475.521" y2="336.093"/>
	<line fill="none" stroke="#000000" stroke-miterlimit="10" x1="366.89" y1="335.962" x2="420.946" y2="469.897"/>
	<line fill="none" stroke="#000000" stroke-miterlimit="10" x1="420.946" y1="469.897" x2="420.48" y2="391.961"/>
</g>
<g id="Layer_18">
</g>
<g id="Layer_19">
</g>
<g id="Layer_20">
</g>
<g id="Layer_21">
</g>
<g id="Layer_22">
</g>
<g id="Layer_24">
</g>
<g id="Layer_25">
</g>
<g id="Layer_26">
</g>
<g id="Layer_27">
</g>
<g id="Layer_28">
</g>
<g id="Layer_29">
</g>
<g id="Layer_30">
</g>
<g id="Layer_31">
</g>
<g id="Layer_32">
</g>
<g id="Layer_33">
</g>
<g id="Layer_34">
</g>
<g id="Layer_35">
</g>
<g id="Layer_36">
</g>
<g id="Layer_37">
</g>
<g id="Layer_38">
</g>
<g id="Layer_39">
</g>
<g id="Layer_40">
</g>
<g id="Layer_41">
</g>
<g id="Layer_43">
</g>
</svg>
