<?xml version="1.0" encoding="utf-8"?>
<!-- Generator: Adobe Illustrator 16.0.0, SVG Export Plug-In . SVG Version: 6.00 Build 0)  -->
<!DOCTYPE svg PUBLIC "-//W3C//DTD SVG 1.1//EN" "http://www.w3.org/Graphics/SVG/1.1/DTD/svg11.dtd">
<svg version="1.1" xmlns="http://www.w3.org/2000/svg" xmlns:xlink="http://www.w3.org/1999/xlink" x="0px" y="0px"
	 width="841.89px" height="595.28px" viewBox="0 0 841.89 595.28" enable-background="new 0 0 841.89 595.28" xml:space="preserve">
<g id="Layer_1">
</g>
<g id="Layer_2">
</g>
<g id="Layer_3">
</g>
<g id="Layer_4">
</g>
<g id="Layer_5">
</g>
<g id="Layer_6">
</g>
<g id="Layer_7">
</g>
<g id="Layer_8">
</g>
<g id="Layer_9">
</g>
<g id="Layer_10">
</g>
<g id="Layer_11">
</g>
<g id="Layer_12">
</g>
<g id="Layer_13">
</g>
<g id="Layer_14">
</g>
<g id="Layer_15">
</g>
<g id="Layer_16">
</g>
<g id="Layer_17">
</g>
<g id="Layer_18">
</g>
<g id="Layer_19">
</g>
<g id="Layer_20">
</g>
<g id="Layer_21">
</g>
<g id="Layer_22">
</g>
<g id="Layer_24">
</g>
<g id="Layer_25">
</g>
<g id="Layer_26">
</g>
<g id="Layer_27">
</g>
<g id="Layer_28">
</g>
<g id="Layer_29">
</g>
<g id="Layer_30">
</g>
<g id="Layer_31">
</g>
<g id="Layer_32">
</g>
<g id="Layer_33">
</g>
<g id="Layer_34">
</g>
<g id="Layer_35">
</g>
<g id="Layer_36">
</g>
<g id="Layer_37">
</g>
<g id="Layer_38">
</g>
<g id="Layer_39">
</g>
<g id="Layer_40">
</g>
<g id="Layer_41">
	<g>
		<g>
			<g>
				<g>
					<g>
						<g>
							
								<rect x="415.958" y="382.045" transform="matrix(-0.0012 1 -1 -0.0012 808.5958 -33.0282)" fill="none" width="9.667" height="10.498"/>
						</g>
						<rect x="420.425" y="383.175" fill-rule="evenodd" clip-rule="evenodd" width="1.05" height="1.794"/>
						<rect x="420.421" y="386.393" fill-rule="evenodd" clip-rule="evenodd" width="1.05" height="1.794"/>
						<rect x="420.417" y="389.6" fill-rule="evenodd" clip-rule="evenodd" width="1.05" height="1.795"/>
					</g>
				</g>
				<g>
					<g>
						<g>
							
								<rect x="415.971" y="372.378" transform="matrix(-0.0012 1 -1 -0.0012 798.941 -42.7181)" fill="none" width="9.666" height="10.498"/>
						</g>
						<rect x="420.437" y="373.508" fill-rule="evenodd" clip-rule="evenodd" width="1.05" height="1.795"/>
						<rect x="420.433" y="376.727" fill-rule="evenodd" clip-rule="evenodd" width="1.05" height="1.794"/>
						<rect x="420.429" y="379.934" fill-rule="evenodd" clip-rule="evenodd" width="1.05" height="1.795"/>
					</g>
				</g>
				<g>
					<g>
						<g>
							
								<rect x="415.981" y="362.712" transform="matrix(-0.0012 1 -1 -0.0012 789.2863 -52.4071)" fill="none" width="9.667" height="10.499"/>
						</g>
						<rect x="420.449" y="363.842" fill-rule="evenodd" clip-rule="evenodd" width="1.049" height="1.795"/>
						<rect x="420.444" y="367.061" fill-rule="evenodd" clip-rule="evenodd" width="1.05" height="1.794"/>
						<rect x="420.44" y="370.268" fill-rule="evenodd" clip-rule="evenodd" width="1.05" height="1.794"/>
					</g>
				</g>
				<g>
					<g>
						<g>
							
								<rect x="415.994" y="353.045" transform="matrix(-0.0012 1 -1 -0.0012 779.6311 -62.0975)" fill="none" width="9.666" height="10.499"/>
						</g>
						<rect x="420.459" y="354.176" fill-rule="evenodd" clip-rule="evenodd" width="1.05" height="1.794"/>
						<rect x="420.456" y="357.394" fill-rule="evenodd" clip-rule="evenodd" width="1.05" height="1.794"/>
						<rect x="420.453" y="360.602" fill-rule="evenodd" clip-rule="evenodd" width="1.049" height="1.794"/>
					</g>
				</g>
				<g>
					<g>
						<g>
							
								<rect x="416.005" y="343.379" transform="matrix(-0.0012 1 -1 -0.0012 769.9768 -71.787)" fill="none" width="9.666" height="10.499"/>
						</g>
						<rect x="420.471" y="344.51" fill-rule="evenodd" clip-rule="evenodd" width="1.05" height="1.794"/>
						<rect x="420.467" y="347.728" fill-rule="evenodd" clip-rule="evenodd" width="1.05" height="1.794"/>
						<rect x="420.463" y="350.935" fill-rule="evenodd" clip-rule="evenodd" width="1.05" height="1.795"/>
					</g>
				</g>
				<g>
					<g>
						<g>
							
								<rect x="416.017" y="333.713" transform="matrix(-0.0012 1 -1 -0.0012 760.3225 -81.4764)" fill="none" width="9.666" height="10.499"/>
						</g>
						<rect x="420.482" y="334.843" fill-rule="evenodd" clip-rule="evenodd" width="1.05" height="1.794"/>
						<rect x="420.479" y="338.061" fill-rule="evenodd" clip-rule="evenodd" width="1.05" height="1.795"/>
						<rect x="420.475" y="341.269" fill-rule="evenodd" clip-rule="evenodd" width="1.05" height="1.794"/>
					</g>
				</g>
				<g>
					<g>
						<g>
							
								<rect x="416.028" y="324.046" transform="matrix(-0.0012 1 -1 -0.0012 750.6677 -91.1664)" fill="none" width="9.667" height="10.499"/>
						</g>
						<rect x="420.494" y="325.177" fill-rule="evenodd" clip-rule="evenodd" width="1.05" height="1.794"/>
						<rect x="420.49" y="328.395" fill-rule="evenodd" clip-rule="evenodd" width="1.05" height="1.795"/>
						<rect x="420.486" y="331.603" fill-rule="evenodd" clip-rule="evenodd" width="1.05" height="1.794"/>
					</g>
				</g>
				<g>
					<g>
						<g>
							
								<rect x="416.041" y="314.38" transform="matrix(-0.0012 1 -1 -0.0012 741.0129 -100.8563)" fill="none" width="9.666" height="10.499"/>
						</g>
						<rect x="420.506" y="315.511" fill-rule="evenodd" clip-rule="evenodd" width="1.05" height="1.794"/>
						<rect x="420.502" y="318.729" fill-rule="evenodd" clip-rule="evenodd" width="1.05" height="1.794"/>
						<rect x="420.498" y="321.936" fill-rule="evenodd" clip-rule="evenodd" width="1.05" height="1.795"/>
					</g>
				</g>
				<g>
					<g>
						<g>
							
								<rect x="416.052" y="304.714" transform="matrix(-0.0012 1 -1 -0.0012 731.3587 -110.5458)" fill="none" width="9.666" height="10.499"/>
						</g>
						<rect x="420.518" y="305.844" fill-rule="evenodd" clip-rule="evenodd" width="1.05" height="1.795"/>
						<rect x="420.514" y="309.063" fill-rule="evenodd" clip-rule="evenodd" width="1.05" height="1.794"/>
						<rect x="420.51" y="312.27" fill-rule="evenodd" clip-rule="evenodd" width="1.05" height="1.795"/>
					</g>
				</g>
				<g>
					<g>
						<g>
							
								<rect x="416.063" y="295.048" transform="matrix(-0.0012 1 -1 -0.0012 721.7043 -120.2353)" fill="none" width="9.667" height="10.499"/>
						</g>
						<rect x="420.529" y="296.178" fill-rule="evenodd" clip-rule="evenodd" width="1.05" height="1.794"/>
						<rect x="420.525" y="299.396" fill-rule="evenodd" clip-rule="evenodd" width="1.05" height="1.794"/>
						<rect x="420.521" y="302.604" fill-rule="evenodd" clip-rule="evenodd" width="1.05" height="1.794"/>
					</g>
				</g>
				<g>
					<g>
						<g>
							
								<rect x="416.076" y="285.381" transform="matrix(-0.0012 1 -1 -0.0012 712.0492 -129.9257)" fill="none" width="9.666" height="10.499"/>
						</g>
						<rect x="420.541" y="286.512" fill-rule="evenodd" clip-rule="evenodd" width="1.05" height="1.794"/>
						<rect x="420.537" y="289.73" fill-rule="evenodd" clip-rule="evenodd" width="1.05" height="1.794"/>
						<rect x="420.533" y="292.938" fill-rule="evenodd" clip-rule="evenodd" width="1.05" height="1.794"/>
					</g>
				</g>
				<g>
					<g>
						<g>
							
								<rect x="416.087" y="275.714" transform="matrix(-0.0012 1 -1 -0.0012 702.3944 -139.6146)" fill="none" width="9.666" height="10.5"/>
						</g>
						<rect x="420.553" y="276.846" fill-rule="evenodd" clip-rule="evenodd" width="1.05" height="1.794"/>
						<rect x="420.549" y="280.064" fill-rule="evenodd" clip-rule="evenodd" width="1.05" height="1.794"/>
						<rect x="420.545" y="283.271" fill-rule="evenodd" clip-rule="evenodd" width="1.05" height="1.794"/>
					</g>
				</g>
				<g>
					<g>
						<g>
							
								<rect x="416.099" y="266.048" transform="matrix(-0.0012 1 -1 -0.0012 692.7396 -149.3046)" fill="none" width="9.666" height="10.5"/>
						</g>
						<rect x="420.564" y="267.179" fill-rule="evenodd" clip-rule="evenodd" width="1.05" height="1.794"/>
						<rect x="420.561" y="270.396" fill-rule="evenodd" clip-rule="evenodd" width="1.05" height="1.795"/>
						<rect x="420.557" y="273.605" fill-rule="evenodd" clip-rule="evenodd" width="1.05" height="1.794"/>
					</g>
				</g>
			</g>
		</g>
	</g>
	<path fill="none" stroke="#000000" stroke-miterlimit="10" d="M420.938,323.372"/>
	<line fill="none" stroke="#000000" stroke-miterlimit="10" x1="455.142" y1="312.181" x2="491.734" y2="250.288"/>
	<line fill="none" stroke="#000000" stroke-miterlimit="10" x1="450.691" y1="289.27" x2="483.734" y2="251.539"/>
	<line fill="none" stroke="#000000" stroke-miterlimit="10" x1="386.43" y1="312.181" x2="337.369" y2="230.039"/>
	<line fill="none" stroke="#000000" stroke-miterlimit="10" x1="389.551" y1="289.87" x2="337.369" y2="230.039"/>
	<line fill="none" stroke="#000000" stroke-miterlimit="10" x1="491.734" y1="250.288" x2="483.734" y2="251.539"/>
	<line fill="none" stroke="#000000" stroke-miterlimit="10" x1="487.734" y1="257.44" x2="504.398" y2="276.372"/>
	<line fill="none" stroke="#000000" stroke-miterlimit="10" x1="492.064" y1="250.288" x2="504.398" y2="276.372"/>
	<g>
		<line fill="none" stroke="#000000" stroke-miterlimit="10" x1="391.657" y1="289.081" x2="420.938" y2="266.465"/>
		<line fill="none" stroke="#000000" stroke-miterlimit="10" x1="420.917" y1="311.821" x2="420.787" y2="311.992"/>
		<line fill="none" stroke="#000000" stroke-miterlimit="10" x1="449.407" y1="289.081" x2="421.067" y2="266.636"/>
		<line fill="none" stroke="#000000" stroke-miterlimit="10" x1="390.122" y1="289.376" x2="403.608" y2="289.376"/>
		<line fill="none" stroke="#000000" stroke-miterlimit="10" x1="420.883" y1="289.376" x2="437.965" y2="289.376"/>
		<line fill="none" stroke="#000000" stroke-miterlimit="10" x1="420.883" y1="289.376" x2="403.608" y2="289.376"/>
		<path fill="none" stroke="#000000" stroke-miterlimit="10" d="M388.122,288.619"/>
		<line fill="none" stroke="#000000" stroke-miterlimit="10" x1="437.965" y1="289.376" x2="451.244" y2="289.376"/>
		<path fill="none" stroke="#000000" stroke-miterlimit="10" d="M451.244,289.376"/>
	</g>
	<line fill="none" stroke="#000000" stroke-miterlimit="10" x1="420.786" y1="392.127" x2="386.43" y2="312.181"/>
	<line fill="none" stroke="#000000" stroke-miterlimit="10" x1="455.142" y1="312.181" x2="420.786" y2="392.127"/>
	<line fill="none" stroke="#000000" stroke-miterlimit="10" x1="386.49" y1="311.807" x2="390.121" y2="289.27"/>
	<line fill="none" stroke="#000000" stroke-miterlimit="10" x1="386.49" y1="311.807" x2="386.43" y2="312.181"/>
	<line fill="none" stroke="#000000" stroke-miterlimit="10" x1="455.142" y1="312.181" x2="455.077" y2="311.801"/>
	<line fill="none" stroke="#000000" stroke-miterlimit="10" x1="455.077" y1="311.801" x2="451.243" y2="289.27"/>
	<path fill="none" stroke="#000000" stroke-miterlimit="10" d="M386.49,311.807"/>
	<path fill="none" stroke="#000000" stroke-miterlimit="10" d="M403.607,289.27"/>
	<line fill="none" stroke="#000000" stroke-miterlimit="10" x1="386.43" y1="311.886" x2="386.49" y2="311.807"/>
	<line fill="none" stroke="#000000" stroke-miterlimit="10" x1="455.077" y1="311.801" x2="455.142" y2="311.886"/>
</g>
<g id="Layer_43">
</g>
</svg>
