<?xml version="1.0" encoding="utf-8"?>
<!-- Generator: Adobe Illustrator 16.0.0, SVG Export Plug-In . SVG Version: 6.00 Build 0)  -->
<!DOCTYPE svg PUBLIC "-//W3C//DTD SVG 1.1//EN" "http://www.w3.org/Graphics/SVG/1.1/DTD/svg11.dtd">
<svg version="1.1" xmlns="http://www.w3.org/2000/svg" xmlns:xlink="http://www.w3.org/1999/xlink" x="0px" y="0px"
	 width="841.89px" height="595.28px" viewBox="0 0 841.89 595.28" enable-background="new 0 0 841.89 595.28" xml:space="preserve">
<g id="Layer_1">
</g>
<g id="Layer_2">
</g>
<g id="Layer_3">
</g>
<g id="Layer_4">
</g>
<g id="Layer_5">
</g>
<g id="Layer_6">
</g>
<g id="Layer_7">
</g>
<g id="Layer_8">
</g>
<g id="Layer_9">
</g>
<g id="Layer_10">
</g>
<g id="Layer_11">
</g>
<g id="Layer_12">
</g>
<g id="Layer_13">
	<g>
		<polyline id="pion_32_" fill="none" stroke="#000000" stroke-miterlimit="10" points="521.304,397.134 420.399,296.758 
			320.075,397.251 		"/>
		<polyline fill="none" stroke="#000000" stroke-miterlimit="10" points="520.516,397.251 420.296,497.471 320.076,397.251 
			420.296,297.032 		"/>
		<g>
			<g>
				<g>
					<g>
						<g>
							<g>
								<rect x="415.047" y="487.736" fill="none" width="10.499" height="9.544"/>
							</g>
							<rect x="419.925" y="488.441" fill-rule="evenodd" clip-rule="evenodd" width="1.05" height="1.771"/>
							<rect x="419.925" y="491.619" fill-rule="evenodd" clip-rule="evenodd" width="1.05" height="1.771"/>
							<rect x="419.925" y="494.786" fill-rule="evenodd" clip-rule="evenodd" width="1.05" height="1.771"/>
						</g>
					</g>
					<g>
						<g>
							<g>
								<rect x="415.047" y="478.192" fill="none" width="10.499" height="9.544"/>
							</g>
							<rect x="419.926" y="478.897" fill-rule="evenodd" clip-rule="evenodd" width="1.05" height="1.771"/>
							<rect x="419.926" y="482.074" fill-rule="evenodd" clip-rule="evenodd" width="1.05" height="1.772"/>
							<rect x="419.925" y="485.242" fill-rule="evenodd" clip-rule="evenodd" width="1.05" height="1.771"/>
						</g>
					</g>
					<g>
						<g>
							<g>
								<rect x="415.048" y="468.647" fill="none" width="10.499" height="9.545"/>
							</g>
							<rect x="419.927" y="469.353" fill-rule="evenodd" clip-rule="evenodd" width="1.05" height="1.771"/>
							<rect x="419.926" y="472.53" fill-rule="evenodd" clip-rule="evenodd" width="1.05" height="1.772"/>
							<rect x="419.926" y="475.697" fill-rule="evenodd" clip-rule="evenodd" width="1.05" height="1.771"/>
						</g>
					</g>
					<g>
						<g>
							<g>
								<rect x="415.049" y="459.103" fill="none" width="10.5" height="9.544"/>
							</g>
							<rect x="419.927" y="459.808" fill-rule="evenodd" clip-rule="evenodd" width="1.05" height="1.771"/>
							<rect x="419.927" y="462.985" fill-rule="evenodd" clip-rule="evenodd" width="1.05" height="1.771"/>
							<rect x="419.927" y="466.152" fill-rule="evenodd" clip-rule="evenodd" width="1.05" height="1.772"/>
						</g>
					</g>
					<g>
						<g>
							<g>
								<rect x="415.05" y="449.558" fill="none" width="10.499" height="9.544"/>
							</g>
							<rect x="419.928" y="450.264" fill-rule="evenodd" clip-rule="evenodd" width="1.05" height="1.771"/>
							<rect x="419.928" y="453.441" fill-rule="evenodd" clip-rule="evenodd" width="1.05" height="1.771"/>
							<rect x="419.928" y="456.608" fill-rule="evenodd" clip-rule="evenodd" width="1.05" height="1.772"/>
						</g>
					</g>
					<g>
						<g>
							<g>
								<rect x="415.05" y="440.014" fill="none" width="10.499" height="9.544"/>
							</g>
							<rect x="419.929" y="440.719" fill-rule="evenodd" clip-rule="evenodd" width="1.05" height="1.772"/>
							<rect x="419.929" y="443.896" fill-rule="evenodd" clip-rule="evenodd" width="1.05" height="1.771"/>
							<rect x="419.928" y="447.063" fill-rule="evenodd" clip-rule="evenodd" width="1.05" height="1.771"/>
						</g>
					</g>
					<g>
						<g>
							<g>
								<rect x="415.051" y="430.469" fill="none" width="10.499" height="9.544"/>
							</g>
							<rect x="419.93" y="431.174" fill-rule="evenodd" clip-rule="evenodd" width="1.05" height="1.772"/>
							<rect x="419.929" y="434.352" fill-rule="evenodd" clip-rule="evenodd" width="1.05" height="1.771"/>
							<rect x="419.929" y="437.519" fill-rule="evenodd" clip-rule="evenodd" width="1.05" height="1.771"/>
						</g>
					</g>
					<g>
						<g>
							<g>
								<rect x="415.052" y="420.925" fill="none" width="10.5" height="9.544"/>
							</g>
							<rect x="419.93" y="421.63" fill-rule="evenodd" clip-rule="evenodd" width="1.05" height="1.771"/>
							<rect x="419.93" y="424.808" fill-rule="evenodd" clip-rule="evenodd" width="1.05" height="1.771"/>
							<rect x="419.93" y="427.975" fill-rule="evenodd" clip-rule="evenodd" width="1.05" height="1.771"/>
						</g>
					</g>
					<g>
						<g>
							<g>
								<rect x="415.053" y="411.38" fill="none" width="10.499" height="9.544"/>
							</g>
							<rect x="419.931" y="412.085" fill-rule="evenodd" clip-rule="evenodd" width="1.05" height="1.771"/>
							<rect x="419.931" y="415.262" fill-rule="evenodd" clip-rule="evenodd" width="1.05" height="1.772"/>
							<rect x="419.931" y="418.43" fill-rule="evenodd" clip-rule="evenodd" width="1.05" height="1.771"/>
						</g>
					</g>
					<g>
						<g>
							<g>
								<rect x="415.053" y="401.836" fill="none" width="10.499" height="9.545"/>
							</g>
							<rect x="419.932" y="402.541" fill-rule="evenodd" clip-rule="evenodd" width="1.05" height="1.771"/>
							<rect x="419.932" y="405.718" fill-rule="evenodd" clip-rule="evenodd" width="1.05" height="1.772"/>
							<rect x="419.931" y="408.886" fill-rule="evenodd" clip-rule="evenodd" width="1.05" height="1.771"/>
						</g>
					</g>
					<g>
						<g>
							<g>
								<rect x="415.054" y="392.291" fill="none" width="10.499" height="9.544"/>
							</g>
							<rect x="419.933" y="392.997" fill-rule="evenodd" clip-rule="evenodd" width="1.05" height="1.771"/>
							<rect x="419.932" y="396.174" fill-rule="evenodd" clip-rule="evenodd" width="1.05" height="1.771"/>
							<rect x="419.932" y="399.341" fill-rule="evenodd" clip-rule="evenodd" width="1.05" height="1.772"/>
						</g>
					</g>
					<g>
						<g>
							<g>
								<rect x="415.055" y="382.747" fill="none" width="10.5" height="9.544"/>
							</g>
							<rect x="419.933" y="383.452" fill-rule="evenodd" clip-rule="evenodd" width="1.05" height="1.771"/>
							<rect x="419.933" y="386.629" fill-rule="evenodd" clip-rule="evenodd" width="1.05" height="1.771"/>
							<rect x="419.933" y="389.796" fill-rule="evenodd" clip-rule="evenodd" width="1.05" height="1.772"/>
						</g>
					</g>
					<g>
						<g>
							<g>
								<rect x="415.056" y="373.202" fill="none" width="10.499" height="9.544"/>
							</g>
							<rect x="419.934" y="373.907" fill-rule="evenodd" clip-rule="evenodd" width="1.05" height="1.772"/>
							<rect x="419.934" y="377.085" fill-rule="evenodd" clip-rule="evenodd" width="1.05" height="1.771"/>
							<rect x="419.934" y="380.252" fill-rule="evenodd" clip-rule="evenodd" width="1.05" height="1.771"/>
						</g>
					</g>
					<g>
						<g>
							<g>
								<rect x="415.056" y="363.658" fill="none" width="10.499" height="9.544"/>
							</g>
							<rect x="419.935" y="364.363" fill-rule="evenodd" clip-rule="evenodd" width="1.05" height="1.772"/>
							<rect x="419.935" y="367.541" fill-rule="evenodd" clip-rule="evenodd" width="1.05" height="1.771"/>
							<rect x="419.934" y="370.708" fill-rule="evenodd" clip-rule="evenodd" width="1.05" height="1.771"/>
						</g>
					</g>
					<g>
						<g>
							<g>
								<rect x="415.057" y="354.113" fill="none" width="10.499" height="9.544"/>
							</g>
							<rect x="419.936" y="354.818" fill-rule="evenodd" clip-rule="evenodd" width="1.05" height="1.771"/>
							<rect x="419.935" y="357.996" fill-rule="evenodd" clip-rule="evenodd" width="1.05" height="1.771"/>
							<rect x="419.935" y="361.163" fill-rule="evenodd" clip-rule="evenodd" width="1.05" height="1.771"/>
						</g>
					</g>
					<g>
						<g>
							<g>
								<rect x="415.058" y="344.569" fill="none" width="10.5" height="9.544"/>
							</g>
							<rect x="419.936" y="345.274" fill-rule="evenodd" clip-rule="evenodd" width="1.05" height="1.771"/>
							<rect x="419.936" y="348.451" fill-rule="evenodd" clip-rule="evenodd" width="1.05" height="1.772"/>
							<rect x="419.936" y="351.619" fill-rule="evenodd" clip-rule="evenodd" width="1.05" height="1.771"/>
						</g>
					</g>
					<g>
						<g>
							<g>
								<rect x="415.059" y="335.024" fill="none" width="10.499" height="9.545"/>
							</g>
							<rect x="419.937" y="335.729" fill-rule="evenodd" clip-rule="evenodd" width="1.05" height="1.771"/>
							<rect x="419.937" y="338.906" fill-rule="evenodd" clip-rule="evenodd" width="1.05" height="1.772"/>
							<rect x="419.937" y="342.074" fill-rule="evenodd" clip-rule="evenodd" width="1.05" height="1.771"/>
						</g>
					</g>
					<g>
						<g>
							<g>
								<rect x="415.059" y="325.48" fill="none" width="10.499" height="9.544"/>
							</g>
							<rect x="419.938" y="326.185" fill-rule="evenodd" clip-rule="evenodd" width="1.05" height="1.771"/>
							<rect x="419.938" y="329.362" fill-rule="evenodd" clip-rule="evenodd" width="1.05" height="1.771"/>
							<rect x="419.938" y="332.529" fill-rule="evenodd" clip-rule="evenodd" width="1.05" height="1.772"/>
						</g>
					</g>
					<g>
						<g>
							<g>
								<rect x="415.06" y="315.935" fill="none" width="10.499" height="9.544"/>
							</g>
							<rect x="419.939" y="316.641" fill-rule="evenodd" clip-rule="evenodd" width="1.05" height="1.771"/>
							<rect x="419.938" y="319.818" fill-rule="evenodd" clip-rule="evenodd" width="1.05" height="1.771"/>
							<rect x="419.938" y="322.985" fill-rule="evenodd" clip-rule="evenodd" width="1.05" height="1.772"/>
						</g>
					</g>
					<g>
						<g>
							<g>
								<rect x="415.061" y="306.391" fill="none" width="10.499" height="9.544"/>
							</g>
							<rect x="419.939" y="307.095" fill-rule="evenodd" clip-rule="evenodd" width="1.05" height="1.772"/>
							<rect x="419.939" y="310.273" fill-rule="evenodd" clip-rule="evenodd" width="1.05" height="1.771"/>
							<rect x="419.938" y="313.44" fill-rule="evenodd" clip-rule="evenodd" width="1.05" height="1.771"/>
						</g>
					</g>
					<g>
						<g>
							<g>
								<rect x="415.062" y="296.846" fill="none" width="10.499" height="9.544"/>
							</g>
							<rect x="419.94" y="297.551" fill-rule="evenodd" clip-rule="evenodd" width="1.05" height="1.772"/>
							<rect x="419.94" y="300.729" fill-rule="evenodd" clip-rule="evenodd" width="1.05" height="1.771"/>
							<rect x="419.94" y="303.896" fill-rule="evenodd" clip-rule="evenodd" width="1.05" height="1.771"/>
						</g>
					</g>
				</g>
			</g>
		</g>
		<line fill="none" stroke="#000000" stroke-miterlimit="10" x1="420.413" y1="497.513" x2="420.413" y2="359.544"/>
		<line fill="none" stroke="#000000" stroke-miterlimit="10" x1="482.767" y1="359.502" x2="420.052" y2="359.502"/>
		<path fill="none" stroke="#000000" stroke-miterlimit="10" d="M420.296,296.675"/>
		<line fill="none" stroke="#000000" stroke-miterlimit="10" x1="482.767" y1="359.502" x2="420.296" y2="497.471"/>
	</g>
	<path fill="none" stroke="#000000" stroke-miterlimit="10" d="M419.924,359.544"/>
	<path fill="none" stroke="#000000" stroke-miterlimit="10" d="M421.131,497.513"/>
	<line fill="none" stroke="#000000" stroke-miterlimit="10" x1="358.225" y1="359.062" x2="420.413" y2="359.544"/>
	<line fill="none" stroke="#000000" stroke-miterlimit="10" x1="358.225" y1="359.062" x2="420.695" y2="497.031"/>
</g>
<g id="Layer_14">
</g>
<g id="Layer_15">
</g>
<g id="Layer_16">
</g>
<g id="Layer_17">
</g>
<g id="Layer_18">
</g>
<g id="Layer_19">
</g>
<g id="Layer_20">
</g>
<g id="Layer_21">
</g>
<g id="Layer_22">
</g>
<g id="Layer_24">
</g>
<g id="Layer_25">
</g>
<g id="Layer_26">
</g>
<g id="Layer_27">
</g>
<g id="Layer_28">
</g>
<g id="Layer_29">
</g>
<g id="Layer_30">
</g>
<g id="Layer_31">
</g>
<g id="Layer_32">
</g>
<g id="Layer_33">
</g>
<g id="Layer_34">
</g>
<g id="Layer_35">
</g>
<g id="Layer_36">
</g>
<g id="Layer_37">
</g>
<g id="Layer_38">
</g>
<g id="Layer_39">
</g>
<g id="Layer_40">
</g>
<g id="Layer_41">
</g>
<g id="Layer_43">
</g>
</svg>
