<?xml version="1.0" encoding="utf-8"?>
<!-- Generator: Adobe Illustrator 16.0.0, SVG Export Plug-In . SVG Version: 6.00 Build 0)  -->
<!DOCTYPE svg PUBLIC "-//W3C//DTD SVG 1.1//EN" "http://www.w3.org/Graphics/SVG/1.1/DTD/svg11.dtd">
<svg version="1.1" xmlns="http://www.w3.org/2000/svg" xmlns:xlink="http://www.w3.org/1999/xlink" x="0px" y="0px"
	 width="841.89px" height="595.28px" viewBox="0 0 841.89 595.28" enable-background="new 0 0 841.89 595.28" xml:space="preserve">
<g id="Layer_1">
</g>
<g id="Layer_2">
</g>
<g id="Layer_3">
</g>
<g id="Layer_4">
</g>
<g id="Layer_5">
</g>
<g id="Layer_6">
</g>
<g id="Layer_7">
</g>
<g id="Layer_8">
</g>
<g id="Layer_9">
</g>
<g id="Layer_10">
</g>
<g id="Layer_11">
</g>
<g id="Layer_12">
</g>
<g id="Layer_13">
</g>
<g id="Layer_14">
</g>
<g id="Layer_15">
</g>
<g id="Layer_16">
</g>
<g id="Layer_17">
</g>
<g id="Layer_18">
</g>
<g id="Layer_19">
</g>
<g id="Layer_20">
	<polyline fill="none" stroke="#000000" stroke-miterlimit="10" points="450.629,299.261 521.165,369.799 420.946,470.018 
		320.726,369.799 360.697,329.826 	"/>
	<line fill="none" stroke="#000000" stroke-miterlimit="10" x1="420.946" y1="470.018" x2="420.945" y2="189.633"/>
	<path fill="none" stroke="#000000" stroke-miterlimit="10" d="M420.946,269.223"/>
	<line fill="none" stroke="#000000" stroke-miterlimit="10" x1="360.698" y1="329.827" x2="420.946" y2="470.018"/>
	<line fill="none" stroke="#000000" stroke-miterlimit="10" x1="420.945" y1="189.633" x2="360.698" y2="329.827"/>
	<line fill="none" stroke="#000000" stroke-miterlimit="10" x1="455.302" y1="269.579" x2="420.945" y2="189.633"/>
	<line fill="none" stroke="#000000" stroke-miterlimit="10" x1="420.944" y1="314.812" x2="455.302" y2="269.579"/>
	<line fill="none" stroke="#000000" stroke-miterlimit="10" x1="420.944" y1="314.812" x2="450.629" y2="299.261"/>
	<path fill="none" stroke="#000000" stroke-miterlimit="10" d="M481.311,329.944"/>
	<g>
		<g>
			<g>
				<g>
					<g>
						<g>
							
								<rect x="360.697" y="324.586" transform="matrix(-1 -0.002 0.002 -1 730.8074 660.3978)" fill="none" width="10.07" height="10.499"/>
						</g>
						<rect x="368.153" y="329.471" fill-rule="evenodd" clip-rule="evenodd" width="1.869" height="1.05"/>
						<rect x="364.802" y="329.464" fill-rule="evenodd" clip-rule="evenodd" width="1.869" height="1.05"/>
						<rect x="361.46" y="329.458" fill-rule="evenodd" clip-rule="evenodd" width="1.869" height="1.05"/>
					</g>
				</g>
				<g>
					<g>
						<g>
							
								<rect x="370.767" y="324.606" transform="matrix(-1 -0.002 0.002 -1 750.948 660.4579)" fill="none" width="10.07" height="10.499"/>
						</g>
						<rect x="378.224" y="329.491" fill-rule="evenodd" clip-rule="evenodd" width="1.869" height="1.05"/>
						<rect x="374.871" y="329.484" fill-rule="evenodd" clip-rule="evenodd" width="1.869" height="1.05"/>
						<rect x="371.53" y="329.478" fill-rule="evenodd" clip-rule="evenodd" width="1.869" height="1.05"/>
					</g>
				</g>
				<g>
					<g>
						<g>
							
								<rect x="380.838" y="324.626" transform="matrix(-1 -0.002 0.002 -1 771.0885 660.5179)" fill="none" width="10.069" height="10.499"/>
						</g>
						<rect x="388.294" y="329.511" fill-rule="evenodd" clip-rule="evenodd" width="1.869" height="1.05"/>
						<rect x="384.941" y="329.504" fill-rule="evenodd" clip-rule="evenodd" width="1.869" height="1.05"/>
						<rect x="381.6" y="329.498" fill-rule="evenodd" clip-rule="evenodd" width="1.869" height="1.05"/>
					</g>
				</g>
				<g>
					<g>
						<g>
							
								<rect x="390.907" y="324.646" transform="matrix(-1 -0.002 0.002 -1 791.2272 660.578)" fill="none" width="10.07" height="10.499"/>
						</g>
						<rect x="398.364" y="329.531" fill-rule="evenodd" clip-rule="evenodd" width="1.869" height="1.05"/>
						<rect x="395.011" y="329.524" fill-rule="evenodd" clip-rule="evenodd" width="1.869" height="1.05"/>
						<rect x="391.67" y="329.518" fill-rule="evenodd" clip-rule="evenodd" width="1.869" height="1.05"/>
					</g>
				</g>
				<g>
					<g>
						<g>
							
								<rect x="400.977" y="324.666" transform="matrix(-1 -0.002 0.002 -1 811.3677 660.6381)" fill="none" width="10.07" height="10.499"/>
						</g>
						<rect x="408.434" y="329.551" fill-rule="evenodd" clip-rule="evenodd" width="1.869" height="1.05"/>
						<rect x="405.081" y="329.544" fill-rule="evenodd" clip-rule="evenodd" width="1.869" height="1.05"/>
						<rect x="401.74" y="329.538" fill-rule="evenodd" clip-rule="evenodd" width="1.869" height="1.05"/>
					</g>
				</g>
				<g>
					<g>
						<g>
							
								<rect x="411.048" y="324.686" transform="matrix(-1 -0.002 0.002 -1 831.5083 660.6981)" fill="none" width="10.069" height="10.499"/>
						</g>
						<rect x="418.504" y="329.571" fill-rule="evenodd" clip-rule="evenodd" width="1.869" height="1.05"/>
						<rect x="415.151" y="329.564" fill-rule="evenodd" clip-rule="evenodd" width="1.869" height="1.05"/>
						<rect x="411.81" y="329.558" fill-rule="evenodd" clip-rule="evenodd" width="1.869" height="1.05"/>
					</g>
				</g>
			</g>
		</g>
	</g>
	<line fill="none" stroke="#000000" stroke-miterlimit="10" x1="455.302" y1="269.579" x2="420.946" y2="470.018"/>
</g>
<g id="Layer_21">
</g>
<g id="Layer_22">
</g>
<g id="Layer_24">
</g>
<g id="Layer_25">
</g>
<g id="Layer_26">
</g>
<g id="Layer_27">
</g>
<g id="Layer_28">
</g>
<g id="Layer_29">
</g>
<g id="Layer_30">
</g>
<g id="Layer_31">
</g>
<g id="Layer_32">
</g>
<g id="Layer_33">
</g>
<g id="Layer_34">
</g>
<g id="Layer_35">
</g>
<g id="Layer_36">
</g>
<g id="Layer_37">
</g>
<g id="Layer_38">
</g>
<g id="Layer_39">
</g>
<g id="Layer_40">
</g>
<g id="Layer_41">
</g>
<g id="Layer_43">
</g>
</svg>
