<?xml version="1.0" encoding="utf-8"?>
<!-- Generator: Adobe Illustrator 16.0.0, SVG Export Plug-In . SVG Version: 6.00 Build 0)  -->
<!DOCTYPE svg PUBLIC "-//W3C//DTD SVG 1.1//EN" "http://www.w3.org/Graphics/SVG/1.1/DTD/svg11.dtd">
<svg version="1.1" xmlns="http://www.w3.org/2000/svg" xmlns:xlink="http://www.w3.org/1999/xlink" x="0px" y="0px"
	 width="841.89px" height="595.28px" viewBox="0 0 841.89 595.28" enable-background="new 0 0 841.89 595.28" xml:space="preserve">
<g id="Layer_1">
</g>
<g id="Layer_2">
</g>
<g id="Layer_3">
</g>
<g id="Layer_4">
</g>
<g id="Layer_5">
</g>
<g id="Layer_6">
</g>
<g id="Layer_7">
</g>
<g id="Layer_8">
</g>
<g id="Layer_9">
</g>
<g id="Layer_10">
</g>
<g id="Layer_11">
</g>
<g id="Layer_12">
</g>
<g id="Layer_13">
</g>
<g id="Layer_14">
</g>
<g id="Layer_15">
</g>
<g id="Layer_16">
	<g>
		<g>
			
				<rect x="350.079" y="295.937" transform="matrix(0.7071 -0.7071 0.7071 0.7071 -136.077 405.093)" fill="none" stroke="#000000" stroke-miterlimit="10" width="141.732" height="141.733"/>
			<line fill="none" stroke="#000000" stroke-miterlimit="10" x1="421.05" y1="266.312" x2="337.683" y2="369.5"/>
			<line fill="none" stroke="#000000" stroke-miterlimit="10" x1="475.521" y1="333.219" x2="421.05" y2="266.312"/>
			<g>
				<g>
					<g>
						<g>
							<g>
								<g>
									
										<rect x="415.752" y="379.756" transform="matrix(-0.0039 1 -1 -0.0039 807.1436 -33.9818)" fill="none" width="9.488" height="10.499"/>
								</g>
								<rect x="420.137" y="380.963" fill-rule="evenodd" clip-rule="evenodd" width="1.05" height="1.761"/>
								<rect x="420.125" y="384.122" fill-rule="evenodd" clip-rule="evenodd" width="1.05" height="1.761"/>
								<rect x="420.112" y="387.271" fill-rule="evenodd" clip-rule="evenodd" width="1.05" height="1.761"/>
							</g>
						</g>
						<g>
							<g>
								<g>
									
										<rect x="415.789" y="370.268" transform="matrix(-0.004 1 -1 -0.004 797.7141 -43.5249)" fill="none" width="9.489" height="10.499"/>
								</g>
								<rect x="420.174" y="371.475" fill-rule="evenodd" clip-rule="evenodd" width="1.05" height="1.761"/>
								<rect x="420.162" y="374.634" fill-rule="evenodd" clip-rule="evenodd" width="1.05" height="1.761"/>
								<rect x="420.15" y="377.782" fill-rule="evenodd" clip-rule="evenodd" width="1.05" height="1.761"/>
							</g>
						</g>
						<g>
							<g>
								<g>
									
										<rect x="415.827" y="360.779" transform="matrix(-0.0039 1 -1 -0.0039 788.2415 -53.1075)" fill="none" width="9.488" height="10.499"/>
								</g>
								<rect x="420.211" y="361.986" fill-rule="evenodd" clip-rule="evenodd" width="1.05" height="1.761"/>
								<rect x="420.199" y="365.145" fill-rule="evenodd" clip-rule="evenodd" width="1.05" height="1.761"/>
								<rect x="420.187" y="368.293" fill-rule="evenodd" clip-rule="evenodd" width="1.05" height="1.761"/>
							</g>
						</g>
						<g>
							<g>
								<g>
									
										<rect x="415.863" y="351.291" transform="matrix(-0.0039 1 -1 -0.0039 778.7904 -62.6701)" fill="none" width="9.489" height="10.499"/>
								</g>
								<rect x="420.249" y="352.498" fill-rule="evenodd" clip-rule="evenodd" width="1.05" height="1.761"/>
								<rect x="420.237" y="355.656" fill-rule="evenodd" clip-rule="evenodd" width="1.05" height="1.761"/>
								<rect x="420.224" y="358.805" fill-rule="evenodd" clip-rule="evenodd" width="1.05" height="1.761"/>
							</g>
						</g>
						<g>
							<g>
								<g>
									
										<rect x="415.901" y="341.802" transform="matrix(-0.0039 1 -1 -0.0039 769.3395 -72.233)" fill="none" width="9.488" height="10.499"/>
								</g>
								<rect x="420.286" y="343.009" fill-rule="evenodd" clip-rule="evenodd" width="1.05" height="1.761"/>
								<rect x="420.274" y="346.168" fill-rule="evenodd" clip-rule="evenodd" width="1.05" height="1.761"/>
								<rect x="420.261" y="349.316" fill-rule="evenodd" clip-rule="evenodd" width="1.05" height="1.761"/>
							</g>
						</g>
						<g>
							<g>
								<g>
									
										<rect x="415.938" y="332.314" transform="matrix(-0.004 1 -1 -0.004 759.9098 -81.7783)" fill="none" width="9.489" height="10.499"/>
								</g>
								<rect x="420.324" y="333.521" fill-rule="evenodd" clip-rule="evenodd" width="1.05" height="1.761"/>
								<rect x="420.311" y="336.679" fill-rule="evenodd" clip-rule="evenodd" width="1.05" height="1.761"/>
								<rect x="420.299" y="339.828" fill-rule="evenodd" clip-rule="evenodd" width="1.05" height="1.761"/>
							</g>
						</g>
						<g>
							<g>
								<g>
									
										<rect x="415.976" y="322.825" transform="matrix(-0.0039 1 -1 -0.0039 750.4374 -91.3587)" fill="none" width="9.488" height="10.499"/>
								</g>
								<rect x="420.361" y="324.032" fill-rule="evenodd" clip-rule="evenodd" width="1.05" height="1.761"/>
								<rect x="420.348" y="327.191" fill-rule="evenodd" clip-rule="evenodd" width="1.05" height="1.761"/>
								<rect x="420.336" y="330.339" fill-rule="evenodd" clip-rule="evenodd" width="1.05" height="1.761"/>
							</g>
						</g>
						<g>
							<g>
								<g>
									
										<rect x="416.013" y="313.337" transform="matrix(-0.0039 1 -1 -0.0039 740.9863 -100.9218)" fill="none" width="9.489" height="10.499"/>
								</g>
								<rect x="420.398" y="314.544" fill-rule="evenodd" clip-rule="evenodd" width="1.05" height="1.761"/>
								<rect x="420.386" y="317.702" fill-rule="evenodd" clip-rule="evenodd" width="1.05" height="1.761"/>
								<rect x="420.374" y="320.851" fill-rule="evenodd" clip-rule="evenodd" width="1.05" height="1.761"/>
							</g>
						</g>
						<g>
							<g>
								<g>
									
										<rect x="416.05" y="303.848" transform="matrix(-0.004 1 -1 -0.004 731.5568 -110.4684)" fill="none" width="9.488" height="10.499"/>
								</g>
								<rect x="420.435" y="305.055" fill-rule="evenodd" clip-rule="evenodd" width="1.05" height="1.761"/>
								<rect x="420.423" y="308.214" fill-rule="evenodd" clip-rule="evenodd" width="1.05" height="1.761"/>
								<rect x="420.411" y="311.362" fill-rule="evenodd" clip-rule="evenodd" width="1.05" height="1.761"/>
							</g>
						</g>
						<g>
							<g>
								<g>
									
										<rect x="416.087" y="294.36" transform="matrix(-0.0039 1 -1 -0.0039 722.0843 -120.0474)" fill="none" width="9.488" height="10.499"/>
								</g>
								<rect x="420.473" y="295.567" fill-rule="evenodd" clip-rule="evenodd" width="1.05" height="1.761"/>
								<rect x="420.46" y="298.725" fill-rule="evenodd" clip-rule="evenodd" width="1.05" height="1.761"/>
								<rect x="420.448" y="301.874" fill-rule="evenodd" clip-rule="evenodd" width="1.05" height="1.761"/>
							</g>
						</g>
						<g>
							<g>
								<g>
									
										<rect x="416.124" y="284.871" transform="matrix(-0.0039 1 -1 -0.0039 712.6332 -129.61)" fill="none" width="9.489" height="10.499"/>
								</g>
								<rect x="420.51" y="286.078" fill-rule="evenodd" clip-rule="evenodd" width="1.05" height="1.761"/>
								<rect x="420.498" y="289.237" fill-rule="evenodd" clip-rule="evenodd" width="1.05" height="1.761"/>
								<rect x="420.485" y="292.386" fill-rule="evenodd" clip-rule="evenodd" width="1.05" height="1.761"/>
							</g>
						</g>
						<g>
							<g>
								<g>
									
										<rect x="416.162" y="275.383" transform="matrix(-0.0039 1 -1 -0.0039 703.1821 -139.1732)" fill="none" width="9.488" height="10.499"/>
								</g>
								<rect x="420.547" y="276.59" fill-rule="evenodd" clip-rule="evenodd" width="1.05" height="1.761"/>
								<rect x="420.535" y="279.748" fill-rule="evenodd" clip-rule="evenodd" width="1.05" height="1.761"/>
								<rect x="420.522" y="282.897" fill-rule="evenodd" clip-rule="evenodd" width="1.05" height="1.761"/>
							</g>
						</g>
						<g>
							<g>
								<g>
									
										<rect x="416.199" y="265.894" transform="matrix(-0.004 1 -1 -0.004 693.7527 -148.7216)" fill="none" width="9.489" height="10.499"/>
								</g>
								<rect x="420.584" y="267.101" fill-rule="evenodd" clip-rule="evenodd" width="1.05" height="1.761"/>
								<rect x="420.572" y="270.26" fill-rule="evenodd" clip-rule="evenodd" width="1.05" height="1.761"/>
								<rect x="420.56" y="273.408" fill-rule="evenodd" clip-rule="evenodd" width="1.05" height="1.761"/>
							</g>
						</g>
					</g>
				</g>
			</g>
			<path fill="none" stroke="#000000" stroke-miterlimit="10" d="M420.946,266.228"/>
			<line fill="none" stroke="#000000" stroke-miterlimit="10" x1="420.478" y1="389.94" x2="475.427" y2="333.103"/>
		</g>
		<g>
			<g>
				<g>
					<g>
						<g>
							<g>
								
									<rect x="364.703" y="330.715" transform="matrix(-0.6914 -0.7225 0.7225 -0.6914 382.4844 835.3075)" fill="none" width="9.88" height="10.499"/>
							</g>
							
								<rect x="371.284" y="337.533" transform="matrix(0.7223 -0.6916 0.6916 0.7223 -130.8137 351.1316)" fill-rule="evenodd" clip-rule="evenodd" width="1.05" height="1.834"/>
							
								<rect x="369.01" y="335.157" transform="matrix(0.7227 -0.6911 0.6911 0.7227 -129.8101 348.5707)" fill-rule="evenodd" clip-rule="evenodd" width="1.05" height="1.834"/>
							
								<rect x="366.743" y="332.788" transform="matrix(0.7225 -0.6914 0.6914 0.7225 -128.7972 346.5142)" fill-rule="evenodd" clip-rule="evenodd" width="1.05" height="1.834"/>
						</g>
					</g>
					<g>
						<g>
							<g>
								
									<rect x="371.534" y="337.853" transform="matrix(-0.6914 -0.7225 0.7225 -0.6914 388.8814 852.3158)" fill="none" width="9.88" height="10.499"/>
							</g>
							
								<rect x="378.115" y="344.671" transform="matrix(0.7223 -0.6916 0.6916 0.7223 -133.8531 357.8382)" fill-rule="evenodd" clip-rule="evenodd" width="1.05" height="1.833"/>
							
								<rect x="375.841" y="342.295" transform="matrix(0.7225 -0.6914 0.6914 0.7225 -132.8452 355.4419)" fill-rule="evenodd" clip-rule="evenodd" width="1.05" height="1.834"/>
							
								<rect x="373.574" y="339.926" transform="matrix(0.7227 -0.6911 0.6911 0.7227 -131.8409 353.0477)" fill-rule="evenodd" clip-rule="evenodd" width="1.05" height="1.834"/>
						</g>
					</g>
					<g>
						<g>
							<g>
								
									<rect x="378.365" y="344.991" transform="matrix(-0.6914 -0.7225 0.7225 -0.6914 395.2961 869.3242)" fill="none" width="9.88" height="10.499"/>
							</g>
							
								<rect x="384.946" y="351.809" transform="matrix(0.7223 -0.6916 0.6916 0.7223 -136.8928 364.5449)" fill-rule="evenodd" clip-rule="evenodd" width="1.05" height="1.833"/>
							
								<rect x="382.672" y="349.433" transform="matrix(0.7225 -0.6914 0.6914 0.7225 -135.8845 362.1453)" fill-rule="evenodd" clip-rule="evenodd" width="1.05" height="1.834"/>
							
								<rect x="380.405" y="347.064" transform="matrix(0.7225 -0.6914 0.6914 0.7225 -134.8761 359.9211)" fill-rule="evenodd" clip-rule="evenodd" width="1.05" height="1.834"/>
						</g>
					</g>
					<g>
						<g>
							<g>
								
									<rect x="385.196" y="352.129" transform="matrix(-0.6914 -0.7225 0.7225 -0.6914 401.6752 886.3329)" fill="none" width="9.88" height="10.499"/>
							</g>
							
								<rect x="391.777" y="358.947" transform="matrix(0.7225 -0.6913 0.6913 0.7225 -139.9362 371.0727)" fill-rule="evenodd" clip-rule="evenodd" width="1.05" height="1.834"/>
							
								<rect x="389.503" y="356.571" transform="matrix(0.7225 -0.6914 0.6914 0.7225 -138.9241 368.8488)" fill-rule="evenodd" clip-rule="evenodd" width="1.05" height="1.834"/>
							
								<rect x="387.236" y="354.202" transform="matrix(0.7225 -0.6914 0.6914 0.7225 -137.9154 366.6245)" fill-rule="evenodd" clip-rule="evenodd" width="1.05" height="1.834"/>
						</g>
					</g>
					<g>
						<g>
							<g>
								
									<rect x="392.027" y="359.268" transform="matrix(-0.6914 -0.7225 0.7225 -0.6914 408.072 903.3417)" fill="none" width="9.88" height="10.499"/>
							</g>
							
								<rect x="398.608" y="366.085" transform="matrix(0.7223 -0.6916 0.6916 0.7223 -142.9719 377.9581)" fill-rule="evenodd" clip-rule="evenodd" width="1.05" height="1.834"/>
							
								<rect x="396.334" y="363.709" transform="matrix(0.7227 -0.6911 0.6911 0.7227 -141.9672 375.3713)" fill-rule="evenodd" clip-rule="evenodd" width="1.05" height="1.834"/>
							
								<rect x="394.067" y="361.34" transform="matrix(0.7225 -0.6914 0.6914 0.7225 -140.955 373.328)" fill-rule="evenodd" clip-rule="evenodd" width="1.05" height="1.834"/>
						</g>
					</g>
					<g>
						<g>
							<g>
								
									<rect x="398.858" y="366.405" transform="matrix(-0.6914 -0.7225 0.7225 -0.6914 414.469 920.35)" fill="none" width="9.88" height="10.499"/>
							</g>
							
								<rect x="405.439" y="373.223" transform="matrix(0.7223 -0.6916 0.6916 0.7223 -146.0114 384.6647)" fill-rule="evenodd" clip-rule="evenodd" width="1.05" height="1.833"/>
							
								<rect x="403.165" y="370.847" transform="matrix(0.7225 -0.6914 0.6914 0.7225 -145.0029 382.2557)" fill-rule="evenodd" clip-rule="evenodd" width="1.05" height="1.834"/>
							
								<rect x="400.899" y="368.478" transform="matrix(0.7227 -0.6911 0.6911 0.7227 -143.998 379.8482)" fill-rule="evenodd" clip-rule="evenodd" width="1.05" height="1.834"/>
						</g>
					</g>
					<g>
						<g>
							<g>
								
									<rect x="405.69" y="373.544" transform="matrix(-0.6914 -0.7225 0.7225 -0.6914 420.885 937.3585)" fill="none" width="9.88" height="10.499"/>
							</g>
							
								<rect x="412.27" y="380.362" transform="matrix(0.7223 -0.6916 0.6916 0.7223 -149.051 391.3714)" fill-rule="evenodd" clip-rule="evenodd" width="1.05" height="1.833"/>
							
								<rect x="409.996" y="377.985" transform="matrix(0.7225 -0.6914 0.6914 0.7225 -148.0422 388.9592)" fill-rule="evenodd" clip-rule="evenodd" width="1.05" height="1.834"/>
							
								<rect x="407.73" y="375.616" transform="matrix(0.7225 -0.6914 0.6914 0.7225 -147.0338 386.7349)" fill-rule="evenodd" clip-rule="evenodd" width="1.05" height="1.834"/>
						</g>
					</g>
					<g>
						<g>
							<g>
								
									<rect x="412.52" y="380.682" transform="matrix(-0.6914 -0.7225 0.7225 -0.6914 427.2628 954.3672)" fill="none" width="9.88" height="10.499"/>
							</g>
							
								<rect x="419.101" y="387.5" transform="matrix(0.7225 -0.6913 0.6913 0.7225 -152.0939 397.8859)" fill-rule="evenodd" clip-rule="evenodd" width="1.05" height="1.834"/>
							
								<rect x="416.827" y="385.123" transform="matrix(0.7225 -0.6914 0.6914 0.7225 -151.0818 395.6627)" fill-rule="evenodd" clip-rule="evenodd" width="1.05" height="1.834"/>
							
								<rect x="414.561" y="382.754" transform="matrix(0.7225 -0.6914 0.6914 0.7225 -150.0731 393.4384)" fill-rule="evenodd" clip-rule="evenodd" width="1.05" height="1.834"/>
						</g>
					</g>
				</g>
			</g>
		</g>
	</g>
	<line fill="none" stroke="#000000" stroke-miterlimit="10" x1="420.478" y1="389.75" x2="337.683" y2="369.5"/>
	<line fill="none" stroke="#000000" stroke-miterlimit="10" x1="420.946" y1="467.024" x2="337.683" y2="369.5"/>
	<line fill="none" stroke="#000000" stroke-miterlimit="10" x1="420.946" y1="467.024" x2="475.521" y2="333.219"/>
	<g>
		<g>
			<g>
				<g>
					<g>
						<g>
							
								<rect x="383.241" y="380.382" transform="matrix(-0.3765 -0.9264 0.9264 -0.3765 176.6608 890.1549)" fill="none" width="9.249" height="10.499"/>
						</g>
						
							<rect x="388.359" y="387.687" transform="matrix(0.9263 -0.3767 0.3767 0.9263 -117.7125 175.1016)" fill-rule="evenodd" clip-rule="evenodd" width="1.05" height="1.717"/>
						
							<rect x="387.199" y="384.834" transform="matrix(0.9263 -0.3767 0.3767 0.9263 -116.7234 174.4547)" fill-rule="evenodd" clip-rule="evenodd" width="1.05" height="1.717"/>
						
							<rect x="386.044" y="381.992" transform="matrix(0.9263 -0.3767 0.3767 0.9263 -115.7377 173.8101)" fill-rule="evenodd" clip-rule="evenodd" width="1.05" height="1.717"/>
					</g>
				</g>
				<g>
					<g>
						<g>
							
								<rect x="386.723" y="388.95" transform="matrix(-0.3766 -0.9264 0.9264 -0.3766 173.5276 905.179)" fill="none" width="9.248" height="10.499"/>
						</g>
						
							<rect x="391.841" y="396.254" transform="matrix(0.9265 -0.3763 0.3763 0.9265 -120.5884 176.8233)" fill-rule="evenodd" clip-rule="evenodd" width="1.05" height="1.717"/>
						
							<rect x="390.681" y="393.402" transform="matrix(0.9263 -0.3767 0.3767 0.9263 -119.6943 176.3974)" fill-rule="evenodd" clip-rule="evenodd" width="1.05" height="1.717"/>
						
							<rect x="389.526" y="390.559" transform="matrix(0.9265 -0.3763 0.3763 0.9265 -118.6155 175.5336)" fill-rule="evenodd" clip-rule="evenodd" width="1.05" height="1.717"/>
					</g>
				</g>
				<g>
					<g>
						<g>
							
								<rect x="390.205" y="397.517" transform="matrix(-0.3765 -0.9264 0.9264 -0.3765 170.3484 920.1833)" fill="none" width="9.248" height="10.499"/>
						</g>
						
							<rect x="395.323" y="404.822" transform="matrix(0.9264 -0.3765 0.3765 0.9264 -123.6143 178.896)" fill-rule="evenodd" clip-rule="evenodd" width="1.05" height="1.717"/>
						
							<rect x="394.164" y="401.97" transform="matrix(0.9265 -0.3763 0.3763 0.9265 -122.5682 178.1173)" fill-rule="evenodd" clip-rule="evenodd" width="1.05" height="1.717"/>
						
							<rect x="393.008" y="399.127" transform="matrix(0.9263 -0.3767 0.3767 0.9263 -121.6792 177.6956)" fill-rule="evenodd" clip-rule="evenodd" width="1.05" height="1.717"/>
					</g>
				</g>
				<g>
					<g>
						<g>
							
								<rect x="393.688" y="406.085" transform="matrix(-0.3766 -0.9264 0.9264 -0.3766 167.2404 935.2184)" fill="none" width="9.248" height="10.499"/>
						</g>
						
							<rect x="398.805" y="413.39" transform="matrix(0.9265 -0.3763 0.3763 0.9265 -126.5242 180.7031)" fill-rule="evenodd" clip-rule="evenodd" width="1.05" height="1.717"/>
						
							<rect x="397.646" y="410.537" transform="matrix(0.9263 -0.3767 0.3767 0.9263 -125.6357 180.283)" fill-rule="evenodd" clip-rule="evenodd" width="1.05" height="1.717"/>
						
							<rect x="396.49" y="407.695" transform="matrix(0.9263 -0.3767 0.3767 0.9263 -124.6501 179.6383)" fill-rule="evenodd" clip-rule="evenodd" width="1.05" height="1.717"/>
					</g>
				</g>
				<g>
					<g>
						<g>
							
								<rect x="397.17" y="414.652" transform="matrix(-0.3765 -0.9264 0.9264 -0.3765 164.0607 950.2219)" fill="none" width="9.248" height="10.499"/>
						</g>
						
							<rect x="402.288" y="421.957" transform="matrix(0.9263 -0.3767 0.3767 0.9263 -129.5955 182.8725)" fill-rule="evenodd" clip-rule="evenodd" width="1.05" height="1.717"/>
						
							<rect x="401.128" y="419.105" transform="matrix(0.9263 -0.3767 0.3767 0.9263 -128.6065 182.2257)" fill-rule="evenodd" clip-rule="evenodd" width="1.05" height="1.716"/>
						
							<rect x="399.973" y="416.262" transform="matrix(0.9265 -0.3763 0.3763 0.9265 -127.5193 181.3535)" fill-rule="evenodd" clip-rule="evenodd" width="1.05" height="1.717"/>
					</g>
				</g>
				<g>
					<g>
						<g>
							
								<rect x="400.652" y="423.221" transform="matrix(-0.3765 -0.9264 0.9264 -0.3765 160.9424 965.2532)" fill="none" width="9.249" height="10.499"/>
						</g>
						
							<rect x="405.77" y="430.525" transform="matrix(0.9263 -0.3767 0.3767 0.9263 -132.5662 184.8152)" fill-rule="evenodd" clip-rule="evenodd" width="1.05" height="1.716"/>
						
							<rect x="404.61" y="427.673" transform="matrix(0.9263 -0.3767 0.3767 0.9263 -131.5773 184.1684)" fill-rule="evenodd" clip-rule="evenodd" width="1.05" height="1.717"/>
						
							<rect x="403.455" y="424.83" transform="matrix(0.9263 -0.3767 0.3767 0.9263 -130.5916 183.5237)" fill-rule="evenodd" clip-rule="evenodd" width="1.05" height="1.717"/>
					</g>
				</g>
				<g>
					<g>
						<g>
							
								<rect x="404.134" y="431.788" transform="matrix(-0.3766 -0.9264 0.9264 -0.3766 157.8098 980.278)" fill="none" width="9.248" height="10.499"/>
						</g>
						
							<rect x="409.252" y="439.093" transform="matrix(0.9265 -0.3763 0.3763 0.9265 -135.4279 186.523)" fill-rule="evenodd" clip-rule="evenodd" width="1.05" height="1.717"/>
						
							<rect x="408.092" y="436.241" transform="matrix(0.9263 -0.3767 0.3767 0.9263 -134.5481 186.1111)" fill-rule="evenodd" clip-rule="evenodd" width="1.05" height="1.717"/>
						
							<rect x="406.937" y="433.397" transform="matrix(0.9265 -0.3763 0.3763 0.9265 -133.455 185.2334)" fill-rule="evenodd" clip-rule="evenodd" width="1.05" height="1.717"/>
					</g>
				</g>
				<g>
					<g>
						<g>
							
								<rect x="407.617" y="440.356" transform="matrix(-0.3765 -0.9264 0.9264 -0.3765 154.6284 995.28)" fill="none" width="9.248" height="10.499"/>
						</g>
						
							<rect x="412.734" y="447.66" transform="matrix(0.9264 -0.3765 0.3765 0.9264 -138.4623 188.604)" fill-rule="evenodd" clip-rule="evenodd" width="1.05" height="1.717"/>
						
							<rect x="411.575" y="444.808" transform="matrix(0.9265 -0.3763 0.3763 0.9265 -137.4078 187.817)" fill-rule="evenodd" clip-rule="evenodd" width="1.05" height="1.717"/>
						
							<rect x="410.419" y="441.965" transform="matrix(0.9263 -0.3767 0.3767 0.9263 -136.533 187.4092)" fill-rule="evenodd" clip-rule="evenodd" width="1.05" height="1.717"/>
					</g>
				</g>
				<g>
					<g>
						<g>
							
								<rect x="411.099" y="448.923" transform="matrix(-0.3766 -0.9264 0.9264 -0.3766 151.5226 1010.3174)" fill="none" width="9.248" height="10.499"/>
						</g>
						
							<rect x="416.216" y="456.228" transform="matrix(0.9265 -0.3763 0.3763 0.9265 -141.3637 190.4028)" fill-rule="evenodd" clip-rule="evenodd" width="1.05" height="1.717"/>
						
							<rect x="415.057" y="453.376" transform="matrix(0.9263 -0.3767 0.3767 0.9263 -140.4896 189.9966)" fill-rule="evenodd" clip-rule="evenodd" width="1.05" height="1.717"/>
						
							<rect x="413.902" y="450.533" transform="matrix(0.9263 -0.3767 0.3767 0.9263 -139.5037 189.3519)" fill-rule="evenodd" clip-rule="evenodd" width="1.05" height="1.716"/>
					</g>
				</g>
				<g>
					<g>
						<g>
							
								<rect x="414.581" y="457.491" transform="matrix(-0.3765 -0.9264 0.9264 -0.3765 148.3407 1025.3186)" fill="none" width="9.248" height="10.499"/>
						</g>
						
							<rect x="419.699" y="464.796" transform="matrix(0.9263 -0.3767 0.3767 0.9263 -144.4493 192.5861)" fill-rule="evenodd" clip-rule="evenodd" width="1.05" height="1.717"/>
						
							<rect x="418.539" y="461.944" transform="matrix(0.9263 -0.3767 0.3767 0.9263 -143.4603 191.9393)" fill-rule="evenodd" clip-rule="evenodd" width="1.05" height="1.716"/>
						
							<rect x="417.384" y="459.1" transform="matrix(0.9263 -0.3767 0.3767 0.9263 -142.4745 191.2946)" fill-rule="evenodd" clip-rule="evenodd" width="1.05" height="1.717"/>
					</g>
				</g>
			</g>
		</g>
	</g>
	<line fill="none" stroke="#000000" stroke-miterlimit="10" x1="420.946" y1="467.024" x2="420.478" y2="389.75"/>
</g>
<g id="Layer_17">
</g>
<g id="Layer_18">
</g>
<g id="Layer_19">
</g>
<g id="Layer_20">
</g>
<g id="Layer_21">
</g>
<g id="Layer_22">
</g>
<g id="Layer_24">
</g>
<g id="Layer_25">
</g>
<g id="Layer_26">
</g>
<g id="Layer_27">
</g>
<g id="Layer_28">
</g>
<g id="Layer_29">
</g>
<g id="Layer_30">
</g>
<g id="Layer_31">
</g>
<g id="Layer_32">
</g>
<g id="Layer_33">
</g>
<g id="Layer_34">
</g>
<g id="Layer_35">
</g>
<g id="Layer_36">
</g>
<g id="Layer_37">
</g>
<g id="Layer_38">
</g>
<g id="Layer_39">
</g>
<g id="Layer_40">
</g>
<g id="Layer_41">
</g>
<g id="Layer_43">
</g>
</svg>
