<?xml version="1.0" encoding="utf-8"?>
<!-- Generator: Adobe Illustrator 16.0.0, SVG Export Plug-In . SVG Version: 6.00 Build 0)  -->
<!DOCTYPE svg PUBLIC "-//W3C//DTD SVG 1.1//EN" "http://www.w3.org/Graphics/SVG/1.1/DTD/svg11.dtd">
<svg version="1.1" xmlns="http://www.w3.org/2000/svg" xmlns:xlink="http://www.w3.org/1999/xlink" x="0px" y="0px"
	 width="841.89px" height="595.28px" viewBox="0 0 841.89 595.28" enable-background="new 0 0 841.89 595.28" xml:space="preserve">
<g id="Layer_1">
</g>
<g id="Layer_2">
</g>
<g id="Layer_3">
</g>
<g id="Layer_4">
</g>
<g id="Layer_5">
</g>
<g id="Layer_6">
</g>
<g id="Layer_7">
</g>
<g id="Layer_8">
</g>
<g id="Layer_9">
</g>
<g id="Layer_10">
</g>
<g id="Layer_11">
</g>
<g id="Layer_12">
</g>
<g id="Layer_13">
</g>
<g id="Layer_14">
	<g>
		<g>
			<polyline id="pion_33_" fill="none" stroke="#000000" stroke-miterlimit="10" points="521.56,369.104 420.655,268.729 
				320.331,369.221 			"/>
			<polyline fill="none" stroke="#000000" stroke-miterlimit="10" points="520.771,369.221 420.552,469.441 320.331,369.221 
				420.552,269.002 			"/>
			<g>
				<g>
					<g>
						<g>
							<g>
								<g>
									<rect x="415.303" y="459.706" fill="none" width="10.499" height="9.544"/>
								</g>
								<rect x="420.181" y="460.41" fill-rule="evenodd" clip-rule="evenodd" width="1.051" height="1.772"/>
								<rect x="420.181" y="463.588" fill-rule="evenodd" clip-rule="evenodd" width="1.05" height="1.771"/>
								<rect x="420.181" y="466.755" fill-rule="evenodd" clip-rule="evenodd" width="1.05" height="1.771"/>
							</g>
						</g>
						<g>
							<g>
								<g>
									<rect x="415.303" y="450.161" fill="none" width="10.499" height="9.544"/>
								</g>
								<rect x="420.182" y="450.866" fill-rule="evenodd" clip-rule="evenodd" width="1.05" height="1.771"/>
								<rect x="420.182" y="454.044" fill-rule="evenodd" clip-rule="evenodd" width="1.05" height="1.771"/>
								<rect x="420.181" y="457.211" fill-rule="evenodd" clip-rule="evenodd" width="1.051" height="1.771"/>
							</g>
						</g>
						<g>
							<g>
								<g>
									<rect x="415.304" y="440.617" fill="none" width="10.499" height="9.544"/>
								</g>
								<rect x="420.183" y="441.322" fill-rule="evenodd" clip-rule="evenodd" width="1.05" height="1.771"/>
								<rect x="420.183" y="444.5" fill-rule="evenodd" clip-rule="evenodd" width="1.05" height="1.771"/>
								<rect x="420.182" y="447.667" fill-rule="evenodd" clip-rule="evenodd" width="1.05" height="1.771"/>
							</g>
						</g>
						<g>
							<g>
								<g>
									<rect x="415.306" y="431.072" fill="none" width="10.498" height="9.544"/>
								</g>
								<rect x="420.184" y="431.777" fill-rule="evenodd" clip-rule="evenodd" width="1.05" height="1.771"/>
								<rect x="420.183" y="434.955" fill-rule="evenodd" clip-rule="evenodd" width="1.051" height="1.771"/>
								<rect x="420.183" y="438.122" fill-rule="evenodd" clip-rule="evenodd" width="1.05" height="1.771"/>
							</g>
						</g>
						<g>
							<g>
								<g>
									<rect x="415.305" y="421.528" fill="none" width="10.499" height="9.544"/>
								</g>
								<rect x="420.184" y="422.233" fill-rule="evenodd" clip-rule="evenodd" width="1.05" height="1.771"/>
								<rect x="420.184" y="425.41" fill-rule="evenodd" clip-rule="evenodd" width="1.05" height="1.772"/>
								<rect x="420.184" y="428.578" fill-rule="evenodd" clip-rule="evenodd" width="1.05" height="1.771"/>
							</g>
						</g>
						<g>
							<g>
								<g>
									<rect x="415.306" y="411.983" fill="none" width="10.499" height="9.545"/>
								</g>
								<rect x="420.185" y="412.688" fill-rule="evenodd" clip-rule="evenodd" width="1.05" height="1.771"/>
								<rect x="420.185" y="415.866" fill-rule="evenodd" clip-rule="evenodd" width="1.05" height="1.771"/>
								<rect x="420.185" y="419.033" fill-rule="evenodd" clip-rule="evenodd" width="1.05" height="1.771"/>
							</g>
						</g>
						<g>
							<g>
								<g>
									<rect x="415.307" y="402.439" fill="none" width="10.499" height="9.544"/>
								</g>
								<rect x="420.186" y="403.144" fill-rule="evenodd" clip-rule="evenodd" width="1.05" height="1.771"/>
								<rect x="420.186" y="406.321" fill-rule="evenodd" clip-rule="evenodd" width="1.05" height="1.772"/>
								<rect x="420.185" y="409.488" fill-rule="evenodd" clip-rule="evenodd" width="1.051" height="1.772"/>
							</g>
						</g>
						<g>
							<g>
								<g>
									<rect x="415.308" y="392.894" fill="none" width="10.499" height="9.545"/>
								</g>
								<rect x="420.187" y="393.6" fill-rule="evenodd" clip-rule="evenodd" width="1.05" height="1.771"/>
								<rect x="420.186" y="396.777" fill-rule="evenodd" clip-rule="evenodd" width="1.051" height="1.772"/>
								<rect x="420.186" y="399.944" fill-rule="evenodd" clip-rule="evenodd" width="1.05" height="1.771"/>
							</g>
						</g>
						<g>
							<g>
								<g>
									<rect x="415.309" y="383.35" fill="none" width="10.499" height="9.544"/>
								</g>
								<rect x="420.187" y="384.055" fill-rule="evenodd" clip-rule="evenodd" width="1.051" height="1.771"/>
								<rect x="420.187" y="387.232" fill-rule="evenodd" clip-rule="evenodd" width="1.05" height="1.771"/>
								<rect x="420.187" y="390.399" fill-rule="evenodd" clip-rule="evenodd" width="1.05" height="1.772"/>
							</g>
						</g>
						<g>
							<g>
								<g>
									<rect x="415.309" y="373.805" fill="none" width="10.499" height="9.544"/>
								</g>
								<rect x="420.188" y="374.511" fill-rule="evenodd" clip-rule="evenodd" width="1.05" height="1.771"/>
								<rect x="420.188" y="377.688" fill-rule="evenodd" clip-rule="evenodd" width="1.05" height="1.772"/>
								<rect x="420.188" y="380.855" fill-rule="evenodd" clip-rule="evenodd" width="1.05" height="1.772"/>
							</g>
						</g>
						<g>
							<g>
								<g>
									<rect x="415.31" y="364.261" fill="none" width="10.499" height="9.544"/>
								</g>
								<rect x="420.188" y="364.966" fill-rule="evenodd" clip-rule="evenodd" width="1.05" height="1.771"/>
								<rect x="420.188" y="368.144" fill-rule="evenodd" clip-rule="evenodd" width="1.05" height="1.771"/>
								<rect x="420.188" y="371.31" fill-rule="evenodd" clip-rule="evenodd" width="1.051" height="1.772"/>
							</g>
						</g>
						<g>
							<g>
								<g>
									<rect x="415.311" y="354.717" fill="none" width="10.499" height="9.544"/>
								</g>
								<rect x="420.189" y="355.422" fill-rule="evenodd" clip-rule="evenodd" width="1.05" height="1.771"/>
								<rect x="420.188" y="358.599" fill-rule="evenodd" clip-rule="evenodd" width="1.051" height="1.771"/>
								<rect x="420.189" y="361.766" fill-rule="evenodd" clip-rule="evenodd" width="1.05" height="1.772"/>
							</g>
						</g>
						<g>
							<g>
								<g>
									<rect x="415.312" y="345.172" fill="none" width="10.499" height="9.544"/>
								</g>
								<rect x="420.189" y="345.877" fill-rule="evenodd" clip-rule="evenodd" width="1.051" height="1.771"/>
								<rect x="420.189" y="349.055" fill-rule="evenodd" clip-rule="evenodd" width="1.05" height="1.771"/>
								<rect x="420.189" y="352.222" fill-rule="evenodd" clip-rule="evenodd" width="1.05" height="1.771"/>
							</g>
						</g>
						<g>
							<g>
								<g>
									<rect x="415.312" y="335.627" fill="none" width="10.499" height="9.544"/>
								</g>
								<rect x="420.191" y="336.333" fill-rule="evenodd" clip-rule="evenodd" width="1.05" height="1.771"/>
								<rect x="420.19" y="339.51" fill-rule="evenodd" clip-rule="evenodd" width="1.05" height="1.771"/>
								<rect x="420.19" y="342.677" fill-rule="evenodd" clip-rule="evenodd" width="1.05" height="1.772"/>
							</g>
						</g>
						<g>
							<g>
								<g>
									<rect x="415.313" y="326.083" fill="none" width="10.499" height="9.544"/>
								</g>
								<rect x="420.191" y="326.789" fill-rule="evenodd" clip-rule="evenodd" width="1.05" height="1.771"/>
								<rect x="420.191" y="329.966" fill-rule="evenodd" clip-rule="evenodd" width="1.05" height="1.771"/>
								<rect x="420.19" y="333.133" fill-rule="evenodd" clip-rule="evenodd" width="1.051" height="1.771"/>
							</g>
						</g>
						<g>
							<g>
								<g>
									<rect x="415.314" y="316.539" fill="none" width="10.499" height="9.544"/>
								</g>
								<rect x="420.192" y="317.244" fill-rule="evenodd" clip-rule="evenodd" width="1.05" height="1.771"/>
								<rect x="420.192" y="320.421" fill-rule="evenodd" clip-rule="evenodd" width="1.05" height="1.771"/>
								<rect x="420.191" y="323.588" fill-rule="evenodd" clip-rule="evenodd" width="1.05" height="1.771"/>
							</g>
						</g>
						<g>
							<g>
								<g>
									<rect x="415.315" y="306.994" fill="none" width="10.498" height="9.544"/>
								</g>
								<rect x="420.192" y="307.699" fill-rule="evenodd" clip-rule="evenodd" width="1.051" height="1.772"/>
								<rect x="420.193" y="310.877" fill-rule="evenodd" clip-rule="evenodd" width="1.05" height="1.771"/>
								<rect x="420.192" y="314.044" fill-rule="evenodd" clip-rule="evenodd" width="1.05" height="1.771"/>
							</g>
						</g>
						<g>
							<g>
								<g>
									<rect x="415.315" y="297.45" fill="none" width="10.499" height="9.544"/>
								</g>
								<rect x="420.194" y="298.155" fill-rule="evenodd" clip-rule="evenodd" width="1.05" height="1.771"/>
								<rect x="420.193" y="301.333" fill-rule="evenodd" clip-rule="evenodd" width="1.05" height="1.771"/>
								<rect x="420.193" y="304.5" fill-rule="evenodd" clip-rule="evenodd" width="1.05" height="1.771"/>
							</g>
						</g>
						<g>
							<g>
								<g>
									<rect x="415.316" y="287.905" fill="none" width="10.499" height="9.544"/>
								</g>
								<rect x="420.194" y="288.61" fill-rule="evenodd" clip-rule="evenodd" width="1.05" height="1.772"/>
								<rect x="420.194" y="291.788" fill-rule="evenodd" clip-rule="evenodd" width="1.05" height="1.771"/>
								<rect x="420.194" y="294.955" fill-rule="evenodd" clip-rule="evenodd" width="1.05" height="1.771"/>
							</g>
						</g>
						<g>
							<g>
								<g>
									<rect x="415.317" y="278.361" fill="none" width="10.499" height="9.544"/>
								</g>
								<rect x="420.195" y="279.066" fill-rule="evenodd" clip-rule="evenodd" width="1.05" height="1.772"/>
								<rect x="420.194" y="282.244" fill-rule="evenodd" clip-rule="evenodd" width="1.051" height="1.771"/>
								<rect x="420.194" y="285.411" fill-rule="evenodd" clip-rule="evenodd" width="1.051" height="1.771"/>
							</g>
						</g>
						<g>
							<g>
								<g>
									<rect x="415.317" y="268.816" fill="none" width="10.5" height="9.544"/>
								</g>
								<rect x="420.196" y="269.521" fill-rule="evenodd" clip-rule="evenodd" width="1.05" height="1.771"/>
								<rect x="420.196" y="272.699" fill-rule="evenodd" clip-rule="evenodd" width="1.05" height="1.771"/>
								<rect x="420.195" y="275.866" fill-rule="evenodd" clip-rule="evenodd" width="1.05" height="1.771"/>
							</g>
						</g>
					</g>
				</g>
			</g>
			<path fill="none" stroke="#000000" stroke-miterlimit="10" d="M420.552,268.645"/>
			<g>
				<g>
					<g>
						<g>
							<g>
								<g>
									
										<rect x="476.337" y="330.535" transform="matrix(0.4125 -0.911 0.911 0.4125 -23.245 635.5269)" fill="none" width="9.466" height="10.499"/>
								</g>
								
									<rect x="479.104" y="337.716" transform="matrix(0.911 0.4123 -0.4123 0.911 182.2646 -167.6312)" fill-rule="evenodd" clip-rule="evenodd" width="1.05" height="1.757"/>
								
									<rect x="480.403" y="334.846" transform="matrix(0.911 0.4123 -0.4123 0.911 181.1967 -168.4225)" fill-rule="evenodd" clip-rule="evenodd" width="1.05" height="1.757"/>
								
									<rect x="481.699" y="331.985" transform="matrix(0.911 0.4123 -0.4123 0.911 180.1323 -169.2113)" fill-rule="evenodd" clip-rule="evenodd" width="1.05" height="1.757"/>
							</g>
						</g>
						<g>
							<g>
								<g>
									
										<rect x="472.433" y="339.158" transform="matrix(0.4125 -0.911 0.911 0.4125 -33.3943 637.0366)" fill="none" width="9.466" height="10.499"/>
								</g>
								
									<rect x="475.199" y="346.34" transform="matrix(0.911 0.4123 -0.4123 0.911 185.4726 -165.2545)" fill-rule="evenodd" clip-rule="evenodd" width="1.05" height="1.757"/>
								
									<rect x="476.499" y="343.469" transform="matrix(0.911 0.4123 -0.4123 0.911 184.4047 -166.0457)" fill-rule="evenodd" clip-rule="evenodd" width="1.05" height="1.757"/>
								
									<rect x="477.795" y="340.608" transform="matrix(0.9109 0.4126 -0.4126 0.9109 183.5352 -166.9474)" fill-rule="evenodd" clip-rule="evenodd" width="1.05" height="1.757"/>
							</g>
						</g>
						<g>
							<g>
								<g>
									
										<rect x="468.528" y="347.781" transform="matrix(0.4125 -0.911 0.911 0.4125 -43.5438 638.5457)" fill="none" width="9.466" height="10.498"/>
								</g>
								
									<rect x="471.295" y="354.963" transform="matrix(0.911 0.4123 -0.4123 0.911 188.6805 -162.8777)" fill-rule="evenodd" clip-rule="evenodd" width="1.05" height="1.757"/>
								
									<rect x="472.595" y="352.092" transform="matrix(0.911 0.4123 -0.4123 0.911 187.6127 -163.6689)" fill-rule="evenodd" clip-rule="evenodd" width="1.05" height="1.757"/>
								
									<rect x="473.891" y="349.231" transform="matrix(0.9109 0.4126 -0.4126 0.9109 186.7456 -164.5679)" fill-rule="evenodd" clip-rule="evenodd" width="1.05" height="1.757"/>
							</g>
						</g>
						<g>
							<g>
								<g>
									
										<rect x="464.624" y="356.404" transform="matrix(0.4125 -0.911 0.911 0.4125 -53.6931 640.0554)" fill="none" width="9.466" height="10.498"/>
								</g>
								
									<rect x="467.391" y="363.586" transform="matrix(0.9109 0.4126 -0.4126 0.9109 192.0899 -160.6066)" fill-rule="evenodd" clip-rule="evenodd" width="1.05" height="1.757"/>
								
									<rect x="468.691" y="360.715" transform="matrix(0.9109 0.4126 -0.4126 0.9109 191.0212 -161.3987)" fill-rule="evenodd" clip-rule="evenodd" width="1.05" height="1.757"/>
								
									<rect x="469.986" y="357.854" transform="matrix(0.9109 0.4126 -0.4126 0.9109 189.956 -162.1885)" fill-rule="evenodd" clip-rule="evenodd" width="1.05" height="1.757"/>
							</g>
						</g>
						<g>
							<g>
								<g>
									
										<rect x="460.72" y="365.027" transform="matrix(0.4126 -0.9109 0.9109 0.4126 -63.8679 641.5153)" fill="none" width="9.466" height="10.499"/>
								</g>
								
									<rect x="463.486" y="372.209" transform="matrix(0.9109 0.4126 -0.4126 0.9109 195.3003 -158.2271)" fill-rule="evenodd" clip-rule="evenodd" width="1.05" height="1.757"/>
								
									<rect x="464.786" y="369.338" transform="matrix(0.9109 0.4126 -0.4126 0.9109 194.2316 -159.0193)" fill-rule="evenodd" clip-rule="evenodd" width="1.05" height="1.757"/>
								
									<rect x="466.082" y="366.477" transform="matrix(0.9109 0.4126 -0.4126 0.9109 193.1663 -159.8088)" fill-rule="evenodd" clip-rule="evenodd" width="1.05" height="1.757"/>
							</g>
						</g>
						<g>
							<g>
								<g>
									
										<rect x="456.815" y="373.65" transform="matrix(0.4125 -0.911 0.911 0.4125 -73.9919 643.0742)" fill="none" width="9.466" height="10.499"/>
								</g>
								
									<rect x="459.582" y="380.832" transform="matrix(0.9109 0.4126 -0.4126 0.9109 198.5106 -155.8477)" fill-rule="evenodd" clip-rule="evenodd" width="1.05" height="1.757"/>
								
									<rect x="460.882" y="377.961" transform="matrix(0.9109 0.4126 -0.4126 0.9109 197.4419 -156.6398)" fill-rule="evenodd" clip-rule="evenodd" width="1.05" height="1.757"/>
								
									<rect x="462.177" y="375.1" transform="matrix(0.911 0.4123 -0.4123 0.911 196.172 -157.3271)" fill-rule="evenodd" clip-rule="evenodd" width="1.05" height="1.757"/>
							</g>
						</g>
						<g>
							<g>
								<g>
									
										<rect x="452.911" y="382.273" transform="matrix(0.4125 -0.911 0.911 0.4125 -84.1412 644.5838)" fill="none" width="9.466" height="10.499"/>
								</g>
								
									<rect x="455.678" y="389.455" transform="matrix(0.9109 0.4126 -0.4126 0.9109 201.721 -153.4681)" fill-rule="evenodd" clip-rule="evenodd" width="1.05" height="1.757"/>
								
									<rect x="456.977" y="386.584" transform="matrix(0.9109 0.4126 -0.4126 0.9109 200.6522 -154.2601)" fill-rule="evenodd" clip-rule="evenodd" width="1.05" height="1.757"/>
								
									<rect x="458.273" y="383.723" transform="matrix(0.911 0.4123 -0.4123 0.911 199.3799 -154.9504)" fill-rule="evenodd" clip-rule="evenodd" width="1.05" height="1.757"/>
							</g>
						</g>
						<g>
							<g>
								<g>
									
										<rect x="449.006" y="390.896" transform="matrix(0.4125 -0.911 0.911 0.4125 -94.2905 646.0934)" fill="none" width="9.466" height="10.499"/>
								</g>
								
									<rect x="451.773" y="398.078" transform="matrix(0.9109 0.4126 -0.4126 0.9109 204.9313 -151.0885)" fill-rule="evenodd" clip-rule="evenodd" width="1.05" height="1.757"/>
								
									<rect x="453.072" y="395.207" transform="matrix(0.911 0.4123 -0.4123 0.911 203.6524 -151.7848)" fill-rule="evenodd" clip-rule="evenodd" width="1.05" height="1.757"/>
								
									<rect x="454.368" y="392.346" transform="matrix(0.911 0.4123 -0.4123 0.911 202.588 -152.5736)" fill-rule="evenodd" clip-rule="evenodd" width="1.05" height="1.757"/>
							</g>
						</g>
						<g>
							<g>
								<g>
									
										<rect x="445.102" y="399.519" transform="matrix(0.4125 -0.911 0.911 0.4125 -104.4398 647.603)" fill="none" width="9.466" height="10.499"/>
								</g>
								
									<rect x="447.868" y="406.701" transform="matrix(0.911 0.4123 -0.4123 0.911 207.9283 -148.6168)" fill-rule="evenodd" clip-rule="evenodd" width="1.05" height="1.757"/>
								
									<rect x="449.168" y="403.83" transform="matrix(0.911 0.4123 -0.4123 0.911 206.8603 -149.408)" fill-rule="evenodd" clip-rule="evenodd" width="1.05" height="1.757"/>
								
									<rect x="450.464" y="400.969" transform="matrix(0.9109 0.4126 -0.4126 0.9109 206.0077 -150.2906)" fill-rule="evenodd" clip-rule="evenodd" width="1.05" height="1.757"/>
							</g>
						</g>
						<g>
							<g>
								<g>
									
										<rect x="441.198" y="408.142" transform="matrix(0.4125 -0.911 0.911 0.4125 -114.5891 649.1127)" fill="none" width="9.466" height="10.499"/>
								</g>
								
									<rect x="443.964" y="415.324" transform="matrix(0.911 0.4123 -0.4123 0.911 211.1362 -146.2401)" fill-rule="evenodd" clip-rule="evenodd" width="1.05" height="1.757"/>
								
									<rect x="445.264" y="412.453" transform="matrix(0.911 0.4123 -0.4123 0.911 210.0683 -147.0313)" fill-rule="evenodd" clip-rule="evenodd" width="1.05" height="1.757"/>
								
									<rect x="446.56" y="409.592" transform="matrix(0.9109 0.4126 -0.4126 0.9109 209.218 -147.9112)" fill-rule="evenodd" clip-rule="evenodd" width="1.05" height="1.757"/>
							</g>
						</g>
						<g>
							<g>
								<g>
									
										<rect x="437.293" y="416.765" transform="matrix(0.4125 -0.911 0.911 0.4125 -124.7383 650.6223)" fill="none" width="9.466" height="10.499"/>
								</g>
								
									<rect x="440.06" y="423.947" transform="matrix(0.9109 0.4126 -0.4126 0.9109 214.5623 -143.9498)" fill-rule="evenodd" clip-rule="evenodd" width="1.05" height="1.757"/>
								
									<rect x="441.36" y="421.076" transform="matrix(0.911 0.4123 -0.4123 0.911 213.2763 -144.6545)" fill-rule="evenodd" clip-rule="evenodd" width="1.05" height="1.757"/>
								
									<rect x="442.655" y="418.215" transform="matrix(0.9109 0.4126 -0.4126 0.9109 212.4284 -145.5317)" fill-rule="evenodd" clip-rule="evenodd" width="1.05" height="1.757"/>
							</g>
						</g>
						<g>
							<g>
								<g>
									
										<rect x="433.389" y="425.389" transform="matrix(0.4125 -0.911 0.911 0.4125 -134.8879 652.1315)" fill="none" width="9.466" height="10.498"/>
								</g>
								
									<rect x="436.155" y="432.57" transform="matrix(0.9109 0.4126 -0.4126 0.9109 217.7727 -141.5703)" fill-rule="evenodd" clip-rule="evenodd" width="1.05" height="1.757"/>
								
									<rect x="437.455" y="429.699" transform="matrix(0.911 0.4123 -0.4123 0.911 216.4843 -142.2778)" fill-rule="evenodd" clip-rule="evenodd" width="1.05" height="1.757"/>
								
									<rect x="438.751" y="426.838" transform="matrix(0.9109 0.4126 -0.4126 0.9109 215.6387 -143.152)" fill-rule="evenodd" clip-rule="evenodd" width="1.05" height="1.757"/>
							</g>
						</g>
						<g>
							<g>
								<g>
									
										<rect x="429.484" y="434.012" transform="matrix(0.4125 -0.911 0.911 0.4125 -145.0372 653.6411)" fill="none" width="9.466" height="10.498"/>
								</g>
								
									<rect x="432.251" y="441.193" transform="matrix(0.9109 0.4126 -0.4126 0.9109 220.9831 -139.1909)" fill-rule="evenodd" clip-rule="evenodd" width="1.05" height="1.757"/>
								
									<rect x="433.551" y="438.322" transform="matrix(0.9109 0.4126 -0.4126 0.9109 219.9143 -139.983)" fill-rule="evenodd" clip-rule="evenodd" width="1.05" height="1.757"/>
								
									<rect x="434.846" y="435.461" transform="matrix(0.911 0.4123 -0.4123 0.911 218.6277 -140.6895)" fill-rule="evenodd" clip-rule="evenodd" width="1.05" height="1.757"/>
							</g>
						</g>
						<g>
							<g>
								<g>
									
										<rect x="425.58" y="442.634" transform="matrix(0.4126 -0.9109 0.9109 0.4126 -155.2059 655.0958)" fill="none" width="9.466" height="10.499"/>
								</g>
								
									<rect x="428.347" y="449.816" transform="matrix(0.9109 0.4126 -0.4126 0.9109 224.1934 -136.8114)" fill-rule="evenodd" clip-rule="evenodd" width="1.05" height="1.757"/>
								
									<rect x="429.647" y="446.945" transform="matrix(0.9109 0.4126 -0.4126 0.9109 223.1247 -137.6035)" fill-rule="evenodd" clip-rule="evenodd" width="1.05" height="1.757"/>
								
									<rect x="430.942" y="444.084" transform="matrix(0.911 0.4123 -0.4123 0.911 221.8356 -138.3127)" fill-rule="evenodd" clip-rule="evenodd" width="1.05" height="1.757"/>
							</g>
						</g>
						<g>
							<g>
								<g>
									
										<rect x="421.675" y="451.257" transform="matrix(0.4125 -0.911 0.911 0.4125 -165.336 656.6599)" fill="none" width="9.466" height="10.499"/>
								</g>
								
									<rect x="424.442" y="458.439" transform="matrix(0.9109 0.4126 -0.4126 0.9109 227.4037 -134.4318)" fill-rule="evenodd" clip-rule="evenodd" width="1.05" height="1.757"/>
								
									<rect x="425.742" y="455.569" transform="matrix(0.9109 0.4126 -0.4126 0.9109 226.3351 -135.2241)" fill-rule="evenodd" clip-rule="evenodd" width="1.05" height="1.757"/>
								
									<rect x="427.037" y="452.707" transform="matrix(0.911 0.4123 -0.4123 0.911 225.0436 -135.936)" fill-rule="evenodd" clip-rule="evenodd" width="1.05" height="1.757"/>
							</g>
						</g>
						<g>
							<g>
								<g>
									
										<rect x="417.771" y="459.88" transform="matrix(0.4125 -0.911 0.911 0.4125 -175.4852 658.1696)" fill="none" width="9.466" height="10.499"/>
								</g>
								
									<rect x="420.537" y="467.062" transform="matrix(0.911 0.4123 -0.4123 0.911 230.3839 -131.9791)" fill-rule="evenodd" clip-rule="evenodd" width="1.05" height="1.757"/>
								
									<rect x="421.838" y="464.191" transform="matrix(0.9109 0.4126 -0.4126 0.9109 229.5454 -132.8444)" fill-rule="evenodd" clip-rule="evenodd" width="1.05" height="1.757"/>
								
									<rect x="423.133" y="461.33" transform="matrix(0.911 0.4123 -0.4123 0.911 228.2516 -133.5592)" fill-rule="evenodd" clip-rule="evenodd" width="1.05" height="1.757"/>
							</g>
						</g>
					</g>
				</g>
			</g>
		</g>
		<g>
			<g>
				<g>
					<g>
						<g>
							<g>
								
									<rect x="355.699" y="330.093" transform="matrix(-0.4125 -0.911 0.911 -0.4125 203.609 802.0037)" fill="none" width="9.466" height="10.499"/>
							</g>
							
								<rect x="361.069" y="337.402" transform="matrix(0.9111 -0.4123 0.4123 0.9111 -107.3015 179.1549)" fill-rule="evenodd" clip-rule="evenodd" width="1.049" height="1.757"/>
							
								<rect x="359.768" y="334.531" transform="matrix(0.911 -0.4123 0.4123 0.911 -106.2399 178.3825)" fill-rule="evenodd" clip-rule="evenodd" width="1.05" height="1.757"/>
							
								<rect x="358.473" y="331.67" transform="matrix(0.9109 -0.4126 0.4126 0.9109 -105.2349 177.7718)" fill-rule="evenodd" clip-rule="evenodd" width="1.05" height="1.757"/>
						</g>
					</g>
					<g>
						<g>
							<g>
								
									<rect x="359.603" y="338.716" transform="matrix(-0.4125 -0.911 0.911 -0.4125 201.2683 817.7401)" fill="none" width="9.466" height="10.499"/>
							</g>
							
								<rect x="364.973" y="346.025" transform="matrix(0.9111 -0.4123 0.4123 0.9111 -110.5092 181.5314)" fill-rule="evenodd" clip-rule="evenodd" width="1.049" height="1.757"/>
							
								<rect x="363.673" y="343.154" transform="matrix(0.9109 -0.4126 0.4126 0.9109 -109.5105 180.9409)" fill-rule="evenodd" clip-rule="evenodd" width="1.05" height="1.757"/>
							
								<rect x="362.377" y="340.293" transform="matrix(0.911 -0.4123 0.4123 0.911 -108.3834 179.9706)" fill-rule="evenodd" clip-rule="evenodd" width="1.05" height="1.757"/>
						</g>
					</g>
					<g>
						<g>
							<g>
								
									<rect x="363.507" y="347.34" transform="matrix(-0.4126 -0.9109 0.9109 -0.4126 198.9728 833.4925)" fill="none" width="9.466" height="10.498"/>
							</g>
							
								<rect x="368.877" y="354.648" transform="matrix(0.9111 -0.4123 0.4123 0.9111 -113.717 183.9078)" fill-rule="evenodd" clip-rule="evenodd" width="1.049" height="1.757"/>
							
								<rect x="367.577" y="351.777" transform="matrix(0.9109 -0.4126 0.4126 0.9109 -112.7209 183.3204)" fill-rule="evenodd" clip-rule="evenodd" width="1.05" height="1.757"/>
							
								<rect x="366.281" y="348.916" transform="matrix(0.911 -0.4123 0.4123 0.911 -111.5914 182.3474)" fill-rule="evenodd" clip-rule="evenodd" width="1.05" height="1.757"/>
						</g>
					</g>
					<g>
						<g>
							<g>
								
									<rect x="367.412" y="355.963" transform="matrix(-0.4125 -0.911 0.911 -0.4125 196.5876 849.2135)" fill="none" width="9.466" height="10.498"/>
							</g>
							
								<rect x="372.781" y="363.271" transform="matrix(0.9111 -0.4123 0.4123 0.9111 -116.9247 186.2843)" fill-rule="evenodd" clip-rule="evenodd" width="1.049" height="1.757"/>
							
								<rect x="371.482" y="360.4" transform="matrix(0.9109 -0.4126 0.4126 0.9109 -115.9312 185.6999)" fill-rule="evenodd" clip-rule="evenodd" width="1.05" height="1.757"/>
							
								<rect x="370.186" y="357.539" transform="matrix(0.911 -0.4123 0.4123 0.911 -114.7993 184.7241)" fill-rule="evenodd" clip-rule="evenodd" width="1.05" height="1.757"/>
						</g>
					</g>
					<g>
						<g>
							<g>
								
									<rect x="371.317" y="364.585" transform="matrix(-0.4125 -0.911 0.911 -0.4125 194.2477 864.9504)" fill="none" width="9.466" height="10.499"/>
							</g>
							
								<rect x="376.686" y="371.894" transform="matrix(0.9112 -0.4119 0.4119 0.9112 -120.0617 188.4704)" fill-rule="evenodd" clip-rule="evenodd" width="1.05" height="1.757"/>
							
								<rect x="375.386" y="369.023" transform="matrix(0.9109 -0.4126 0.4126 0.9109 -119.1415 188.0794)" fill-rule="evenodd" clip-rule="evenodd" width="1.05" height="1.757"/>
							
								<rect x="374.09" y="366.162" transform="matrix(0.911 -0.4123 0.4123 0.911 -118.0073 187.1009)" fill-rule="evenodd" clip-rule="evenodd" width="1.05" height="1.757"/>
						</g>
					</g>
					<g>
						<g>
							<g>
								
									<rect x="375.221" y="373.209" transform="matrix(-0.4125 -0.911 0.911 -0.4125 191.907 880.6869)" fill="none" width="9.466" height="10.499"/>
							</g>
							
								<rect x="380.59" y="380.517" transform="matrix(0.9112 -0.4119 0.4119 0.9112 -123.267 190.8441)" fill-rule="evenodd" clip-rule="evenodd" width="1.05" height="1.757"/>
							
								<rect x="379.29" y="377.646" transform="matrix(0.911 -0.4123 0.4123 0.911 -122.2797 190.2664)" fill-rule="evenodd" clip-rule="evenodd" width="1.05" height="1.757"/>
							
								<rect x="377.995" y="374.785" transform="matrix(0.911 -0.4123 0.4123 0.911 -121.2152 189.4778)" fill-rule="evenodd" clip-rule="evenodd" width="1.05" height="1.757"/>
						</g>
					</g>
					<g>
						<g>
							<g>
								
									<rect x="379.126" y="381.832" transform="matrix(-0.4125 -0.911 0.911 -0.4125 189.5663 896.4233)" fill="none" width="9.466" height="10.499"/>
							</g>
							
								<rect x="384.494" y="389.14" transform="matrix(0.9112 -0.4119 0.4119 0.9112 -126.4724 193.2178)" fill-rule="evenodd" clip-rule="evenodd" width="1.05" height="1.757"/>
							
								<rect x="383.194" y="386.269" transform="matrix(0.911 -0.4123 0.4123 0.911 -125.4877 192.6432)" fill-rule="evenodd" clip-rule="evenodd" width="1.05" height="1.757"/>
							
								<rect x="381.9" y="383.408" transform="matrix(0.9109 -0.4126 0.4126 0.9109 -124.4969 192.049)" fill-rule="evenodd" clip-rule="evenodd" width="1.05" height="1.757"/>
						</g>
					</g>
					<g>
						<g>
							<g>
								
									<rect x="383.03" y="390.455" transform="matrix(-0.4125 -0.911 0.911 -0.4125 187.2256 912.1599)" fill="none" width="9.466" height="10.499"/>
							</g>
							
								<rect x="388.399" y="397.763" transform="matrix(0.9112 -0.4119 0.4119 0.9112 -129.6777 195.5916)" fill-rule="evenodd" clip-rule="evenodd" width="1.05" height="1.757"/>
							
								<rect x="387.099" y="394.892" transform="matrix(0.911 -0.4123 0.4123 0.911 -128.6956 195.0202)" fill-rule="evenodd" clip-rule="evenodd" width="1.05" height="1.757"/>
							
								<rect x="385.804" y="392.031" transform="matrix(0.9109 -0.4126 0.4126 0.9109 -127.7073 194.4285)" fill-rule="evenodd" clip-rule="evenodd" width="1.05" height="1.757"/>
						</g>
					</g>
					<g>
						<g>
							<g>
								
									<rect x="386.934" y="399.078" transform="matrix(-0.4125 -0.911 0.911 -0.4125 184.8849 927.8963)" fill="none" width="9.466" height="10.499"/>
							</g>
							
								<rect x="392.304" y="406.386" transform="matrix(0.9111 -0.4123 0.4123 0.9111 -132.9631 198.167)" fill-rule="evenodd" clip-rule="evenodd" width="1.049" height="1.757"/>
							
								<rect x="391.004" y="403.515" transform="matrix(0.9109 -0.4126 0.4126 0.9109 -131.9829 197.5977)" fill-rule="evenodd" clip-rule="evenodd" width="1.05" height="1.757"/>
							
								<rect x="389.708" y="400.654" transform="matrix(0.9109 -0.4126 0.4126 0.9109 -130.9177 196.808)" fill-rule="evenodd" clip-rule="evenodd" width="1.05" height="1.757"/>
						</g>
					</g>
					<g>
						<g>
							<g>
								
									<rect x="390.838" y="407.701" transform="matrix(-0.4125 -0.911 0.911 -0.4125 182.5443 943.6328)" fill="none" width="9.466" height="10.499"/>
							</g>
							
								<rect x="396.208" y="415.009" transform="matrix(0.9111 -0.4123 0.4123 0.9111 -136.1709 200.5435)" fill-rule="evenodd" clip-rule="evenodd" width="1.049" height="1.757"/>
							
								<rect x="394.908" y="412.138" transform="matrix(0.9109 -0.4126 0.4126 0.9109 -135.1933 199.9772)" fill-rule="evenodd" clip-rule="evenodd" width="1.05" height="1.757"/>
							
								<rect x="393.612" y="409.277" transform="matrix(0.9109 -0.4126 0.4126 0.9109 -134.1281 199.1875)" fill-rule="evenodd" clip-rule="evenodd" width="1.05" height="1.757"/>
						</g>
					</g>
					<g>
						<g>
							<g>
								
									<rect x="394.743" y="416.324" transform="matrix(-0.4125 -0.911 0.911 -0.4125 180.2036 959.3693)" fill="none" width="9.466" height="10.499"/>
							</g>
							
								<rect x="400.113" y="423.632" transform="matrix(0.9111 -0.4123 0.4123 0.9111 -139.3785 202.92)" fill-rule="evenodd" clip-rule="evenodd" width="1.049" height="1.757"/>
							
								<rect x="398.813" y="420.761" transform="matrix(0.9109 -0.4126 0.4126 0.9109 -138.4036 202.3567)" fill-rule="evenodd" clip-rule="evenodd" width="1.05" height="1.757"/>
							
								<rect x="397.517" y="417.9" transform="matrix(0.911 -0.4123 0.4123 0.911 -137.255 201.3618)" fill-rule="evenodd" clip-rule="evenodd" width="1.05" height="1.757"/>
						</g>
					</g>
					<g>
						<g>
							<g>
								
									<rect x="398.647" y="424.947" transform="matrix(-0.4126 -0.9109 0.9109 -0.4126 177.9141 975.1269)" fill="none" width="9.466" height="10.498"/>
							</g>
							
								<rect x="404.017" y="432.255" transform="matrix(0.9111 -0.4123 0.4123 0.9111 -142.5863 205.2964)" fill-rule="evenodd" clip-rule="evenodd" width="1.049" height="1.757"/>
							
								<rect x="402.717" y="429.384" transform="matrix(0.9109 -0.4126 0.4126 0.9109 -141.614 204.7361)" fill-rule="evenodd" clip-rule="evenodd" width="1.05" height="1.757"/>
							
								<rect x="401.421" y="426.523" transform="matrix(0.911 -0.4123 0.4123 0.911 -140.463 203.7385)" fill-rule="evenodd" clip-rule="evenodd" width="1.05" height="1.757"/>
						</g>
					</g>
					<g>
						<g>
							<g>
								
									<rect x="402.552" y="433.57" transform="matrix(-0.4125 -0.911 0.911 -0.4125 175.5229 990.8426)" fill="none" width="9.466" height="10.498"/>
							</g>
							
								<rect x="407.921" y="440.878" transform="matrix(0.9111 -0.4123 0.4123 0.9111 -145.794 207.6729)" fill-rule="evenodd" clip-rule="evenodd" width="1.049" height="1.757"/>
							
								<rect x="406.621" y="438.008" transform="matrix(0.911 -0.4123 0.4123 0.911 -144.7354 206.9041)" fill-rule="evenodd" clip-rule="evenodd" width="1.05" height="1.757"/>
							
								<rect x="405.326" y="435.146" transform="matrix(0.911 -0.4123 0.4123 0.911 -143.6709 206.1155)" fill-rule="evenodd" clip-rule="evenodd" width="1.05" height="1.757"/>
						</g>
					</g>
					<g>
						<g>
							<g>
								
									<rect x="406.457" y="442.193" transform="matrix(-0.4125 -0.911 0.911 -0.4125 173.1829 1006.5795)" fill="none" width="9.466" height="10.499"/>
							</g>
							
								<rect x="411.825" y="449.501" transform="matrix(0.9112 -0.4119 0.4119 0.9112 -148.9095 209.8344)" fill-rule="evenodd" clip-rule="evenodd" width="1.05" height="1.757"/>
							
								<rect x="410.526" y="446.631" transform="matrix(0.911 -0.4123 0.4123 0.911 -147.9434 209.2809)" fill-rule="evenodd" clip-rule="evenodd" width="1.05" height="1.757"/>
							
								<rect x="409.231" y="443.769" transform="matrix(0.9109 -0.4126 0.4126 0.9109 -146.9694 208.7058)" fill-rule="evenodd" clip-rule="evenodd" width="1.05" height="1.757"/>
						</g>
					</g>
					<g>
						<g>
							<g>
								
									<rect x="410.361" y="450.816" transform="matrix(-0.4125 -0.911 0.911 -0.4125 170.8422 1022.316)" fill="none" width="9.466" height="10.499"/>
							</g>
							
								<rect x="415.73" y="458.124" transform="matrix(0.9112 -0.4119 0.4119 0.9112 -152.1149 212.2081)" fill-rule="evenodd" clip-rule="evenodd" width="1.05" height="1.757"/>
							
								<rect x="414.43" y="455.254" transform="matrix(0.911 -0.4123 0.4123 0.911 -151.1513 211.6576)" fill-rule="evenodd" clip-rule="evenodd" width="1.05" height="1.757"/>
							
								<rect x="413.135" y="452.392" transform="matrix(0.9109 -0.4126 0.4126 0.9109 -150.1797 211.0853)" fill-rule="evenodd" clip-rule="evenodd" width="1.05" height="1.757"/>
						</g>
					</g>
					<g>
						<g>
							<g>
								
									<rect x="414.265" y="459.439" transform="matrix(-0.4125 -0.911 0.911 -0.4125 168.5015 1038.0525)" fill="none" width="9.466" height="10.499"/>
							</g>
							
								<rect x="419.635" y="466.747" transform="matrix(0.9111 -0.4123 0.4123 0.9111 -155.4171 214.8027)" fill-rule="evenodd" clip-rule="evenodd" width="1.049" height="1.757"/>
							
								<rect x="418.334" y="463.877" transform="matrix(0.911 -0.4123 0.4123 0.911 -154.3593 214.0343)" fill-rule="evenodd" clip-rule="evenodd" width="1.05" height="1.757"/>
							
								<rect x="417.039" y="461.015" transform="matrix(0.9109 -0.4126 0.4126 0.9109 -153.3901 213.4648)" fill-rule="evenodd" clip-rule="evenodd" width="1.05" height="1.757"/>
						</g>
					</g>
				</g>
			</g>
		</g>
	</g>
</g>
<g id="Layer_15">
</g>
<g id="Layer_16">
</g>
<g id="Layer_17">
</g>
<g id="Layer_18">
</g>
<g id="Layer_19">
</g>
<g id="Layer_20">
</g>
<g id="Layer_21">
</g>
<g id="Layer_22">
</g>
<g id="Layer_24">
</g>
<g id="Layer_25">
</g>
<g id="Layer_26">
</g>
<g id="Layer_27">
</g>
<g id="Layer_28">
</g>
<g id="Layer_29">
</g>
<g id="Layer_30">
</g>
<g id="Layer_31">
</g>
<g id="Layer_32">
</g>
<g id="Layer_33">
</g>
<g id="Layer_34">
</g>
<g id="Layer_35">
</g>
<g id="Layer_36">
</g>
<g id="Layer_37">
</g>
<g id="Layer_38">
</g>
<g id="Layer_39">
</g>
<g id="Layer_40">
</g>
<g id="Layer_41">
</g>
<g id="Layer_43">
</g>
</svg>
