<?xml version="1.0" encoding="utf-8"?>
<!-- Generator: Adobe Illustrator 16.0.0, SVG Export Plug-In . SVG Version: 6.00 Build 0)  -->
<!DOCTYPE svg PUBLIC "-//W3C//DTD SVG 1.1//EN" "http://www.w3.org/Graphics/SVG/1.1/DTD/svg11.dtd">
<svg version="1.1" xmlns="http://www.w3.org/2000/svg" xmlns:xlink="http://www.w3.org/1999/xlink" x="0px" y="0px"
	 width="841.89px" height="595.28px" viewBox="0 0 841.89 595.28" enable-background="new 0 0 841.89 595.28" xml:space="preserve">
<g id="Layer_1">
</g>
<g id="Layer_2">
</g>
<g id="Layer_3">
</g>
<g id="Layer_4">
</g>
<g id="Layer_5">
</g>
<g id="Layer_6">
</g>
<g id="Layer_7">
</g>
<g id="Layer_8">
</g>
<g id="Layer_9">
</g>
<g id="Layer_10">
</g>
<g id="Layer_11">
</g>
<g id="Layer_12">
</g>
<g id="Layer_13">
</g>
<g id="Layer_14">
</g>
<g id="Layer_15">
</g>
<g id="Layer_16">
</g>
<g id="Layer_17">
</g>
<g id="Layer_18">
</g>
<g id="Layer_19">
</g>
<g id="Layer_20">
</g>
<g id="Layer_21">
</g>
<g id="Layer_22">
</g>
<g id="Layer_24">
</g>
<g id="Layer_25">
</g>
<g id="Layer_26">
</g>
<g id="Layer_27">
</g>
<g id="Layer_28">
</g>
<g id="Layer_29">
</g>
<g id="Layer_30">
	<g>
		<path fill="none" stroke="#000000" stroke-miterlimit="10" d="M435.861,261.537"/>
		<g>
			<g>
				<g>
					<g>
						<g>
							<g>
								<rect x="415.696" y="488.21" fill="none" width="10.499" height="9.554"/>
							</g>
							<rect x="420.575" y="488.916" fill-rule="evenodd" clip-rule="evenodd" width="1.05" height="1.773"/>
							<rect x="420.574" y="492.097" fill-rule="evenodd" clip-rule="evenodd" width="1.05" height="1.773"/>
							<rect x="420.574" y="495.267" fill-rule="evenodd" clip-rule="evenodd" width="1.05" height="1.773"/>
						</g>
					</g>
					<g>
						<g>
							<g>
								<rect x="415.697" y="478.657" fill="none" width="10.499" height="9.553"/>
							</g>
							<rect x="420.575" y="479.362" fill-rule="evenodd" clip-rule="evenodd" width="1.05" height="1.773"/>
							<rect x="420.575" y="482.543" fill-rule="evenodd" clip-rule="evenodd" width="1.05" height="1.773"/>
							<rect x="420.575" y="485.713" fill-rule="evenodd" clip-rule="evenodd" width="1.05" height="1.773"/>
						</g>
					</g>
					<g>
						<g>
							<g>
								<rect x="415.698" y="469.103" fill="none" width="10.499" height="9.554"/>
							</g>
							<rect x="420.576" y="469.809" fill-rule="evenodd" clip-rule="evenodd" width="1.05" height="1.773"/>
							<rect x="420.575" y="472.989" fill-rule="evenodd" clip-rule="evenodd" width="1.051" height="1.773"/>
							<rect x="420.575" y="476.159" fill-rule="evenodd" clip-rule="evenodd" width="1.051" height="1.773"/>
						</g>
					</g>
					<g>
						<g>
							<g>
								<rect x="415.699" y="459.549" fill="none" width="10.499" height="9.554"/>
							</g>
							<rect x="420.577" y="460.255" fill-rule="evenodd" clip-rule="evenodd" width="1.05" height="1.773"/>
							<rect x="420.577" y="463.436" fill-rule="evenodd" clip-rule="evenodd" width="1.05" height="1.773"/>
							<rect x="420.576" y="466.605" fill-rule="evenodd" clip-rule="evenodd" width="1.05" height="1.773"/>
						</g>
					</g>
					<g>
						<g>
							<g>
								<rect x="415.699" y="449.996" fill="none" width="10.499" height="9.554"/>
							</g>
							<rect x="420.577" y="450.702" fill-rule="evenodd" clip-rule="evenodd" width="1.051" height="1.772"/>
							<rect x="420.577" y="453.882" fill-rule="evenodd" clip-rule="evenodd" width="1.05" height="1.773"/>
							<rect x="420.577" y="457.052" fill-rule="evenodd" clip-rule="evenodd" width="1.05" height="1.773"/>
						</g>
					</g>
					<g>
						<g>
							<g>
								<rect x="415.7" y="440.442" fill="none" width="10.499" height="9.554"/>
							</g>
							<rect x="420.578" y="441.148" fill-rule="evenodd" clip-rule="evenodd" width="1.05" height="1.772"/>
							<rect x="420.578" y="444.329" fill-rule="evenodd" clip-rule="evenodd" width="1.05" height="1.772"/>
							<rect x="420.578" y="447.499" fill-rule="evenodd" clip-rule="evenodd" width="1.05" height="1.773"/>
						</g>
					</g>
					<g>
						<g>
							<g>
								<rect x="415.701" y="430.889" fill="none" width="10.499" height="9.554"/>
							</g>
							<rect x="420.579" y="431.595" fill-rule="evenodd" clip-rule="evenodd" width="1.05" height="1.773"/>
							<rect x="420.579" y="434.775" fill-rule="evenodd" clip-rule="evenodd" width="1.05" height="1.772"/>
							<rect x="420.579" y="437.945" fill-rule="evenodd" clip-rule="evenodd" width="1.05" height="1.773"/>
						</g>
					</g>
					<g>
						<g>
							<g>
								<rect x="415.702" y="421.335" fill="none" width="10.499" height="9.554"/>
							</g>
							<rect x="420.58" y="422.041" fill-rule="evenodd" clip-rule="evenodd" width="1.05" height="1.773"/>
							<rect x="420.579" y="425.222" fill-rule="evenodd" clip-rule="evenodd" width="1.051" height="1.773"/>
							<rect x="420.58" y="428.392" fill-rule="evenodd" clip-rule="evenodd" width="1.05" height="1.773"/>
						</g>
					</g>
					<g>
						<g>
							<g>
								<rect x="415.702" y="411.782" fill="none" width="10.499" height="9.553"/>
							</g>
							<rect x="420.58" y="412.487" fill-rule="evenodd" clip-rule="evenodd" width="1.051" height="1.773"/>
							<rect x="420.58" y="415.668" fill-rule="evenodd" clip-rule="evenodd" width="1.05" height="1.773"/>
							<rect x="420.58" y="418.838" fill-rule="evenodd" clip-rule="evenodd" width="1.05" height="1.773"/>
						</g>
					</g>
					<g>
						<g>
							<g>
								<rect x="415.703" y="402.228" fill="none" width="10.499" height="9.554"/>
							</g>
							<rect x="420.582" y="402.934" fill-rule="evenodd" clip-rule="evenodd" width="1.05" height="1.773"/>
							<rect x="420.581" y="406.114" fill-rule="evenodd" clip-rule="evenodd" width="1.05" height="1.773"/>
							<rect x="420.581" y="409.284" fill-rule="evenodd" clip-rule="evenodd" width="1.05" height="1.773"/>
						</g>
					</g>
					<g>
						<g>
							<g>
								<rect x="415.704" y="392.674" fill="none" width="10.499" height="9.554"/>
							</g>
							<rect x="420.582" y="393.38" fill-rule="evenodd" clip-rule="evenodd" width="1.05" height="1.773"/>
							<rect x="420.582" y="396.561" fill-rule="evenodd" clip-rule="evenodd" width="1.05" height="1.773"/>
							<rect x="420.581" y="399.73" fill-rule="evenodd" clip-rule="evenodd" width="1.051" height="1.773"/>
						</g>
					</g>
					<g>
						<g>
							<g>
								<rect x="415.705" y="383.121" fill="none" width="10.499" height="9.554"/>
							</g>
							<rect x="420.583" y="383.827" fill-rule="evenodd" clip-rule="evenodd" width="1.05" height="1.772"/>
							<rect x="420.582" y="387.007" fill-rule="evenodd" clip-rule="evenodd" width="1.051" height="1.773"/>
							<rect x="420.582" y="390.178" fill-rule="evenodd" clip-rule="evenodd" width="1.05" height="1.772"/>
						</g>
					</g>
					<g>
						<g>
							<g>
								<rect x="415.705" y="373.567" fill="none" width="10.499" height="9.554"/>
							</g>
							<rect x="420.583" y="374.273" fill-rule="evenodd" clip-rule="evenodd" width="1.051" height="1.773"/>
							<rect x="420.583" y="377.454" fill-rule="evenodd" clip-rule="evenodd" width="1.05" height="1.772"/>
							<rect x="420.583" y="380.624" fill-rule="evenodd" clip-rule="evenodd" width="1.05" height="1.773"/>
						</g>
					</g>
					<g>
						<g>
							<g>
								<rect x="415.706" y="364.014" fill="none" width="10.499" height="9.554"/>
							</g>
							<rect x="420.584" y="364.72" fill-rule="evenodd" clip-rule="evenodd" width="1.05" height="1.773"/>
							<rect x="420.584" y="367.9" fill-rule="evenodd" clip-rule="evenodd" width="1.05" height="1.772"/>
							<rect x="420.584" y="371.07" fill-rule="evenodd" clip-rule="evenodd" width="1.05" height="1.773"/>
						</g>
					</g>
					<g>
						<g>
							<g>
								<rect x="415.707" y="354.46" fill="none" width="10.499" height="9.553"/>
							</g>
							<rect x="420.585" y="355.166" fill-rule="evenodd" clip-rule="evenodd" width="1.05" height="1.773"/>
							<rect x="420.585" y="358.347" fill-rule="evenodd" clip-rule="evenodd" width="1.05" height="1.773"/>
							<rect x="420.585" y="361.517" fill-rule="evenodd" clip-rule="evenodd" width="1.05" height="1.773"/>
						</g>
					</g>
					<g>
						<g>
							<g>
								<rect x="415.708" y="344.907" fill="none" width="10.499" height="9.554"/>
							</g>
							<rect x="420.586" y="345.612" fill-rule="evenodd" clip-rule="evenodd" width="1.05" height="1.773"/>
							<rect x="420.585" y="348.793" fill-rule="evenodd" clip-rule="evenodd" width="1.051" height="1.773"/>
							<rect x="420.585" y="351.963" fill-rule="evenodd" clip-rule="evenodd" width="1.05" height="1.773"/>
						</g>
					</g>
					<g>
						<g>
							<g>
								<rect x="415.708" y="335.353" fill="none" width="10.499" height="9.554"/>
							</g>
							<rect x="420.587" y="336.059" fill-rule="evenodd" clip-rule="evenodd" width="1.05" height="1.773"/>
							<rect x="420.586" y="339.239" fill-rule="evenodd" clip-rule="evenodd" width="1.05" height="1.773"/>
							<rect x="420.586" y="342.409" fill-rule="evenodd" clip-rule="evenodd" width="1.05" height="1.773"/>
						</g>
					</g>
					<g>
						<g>
							<g>
								<rect x="415.708" y="325.799" fill="none" width="10.499" height="9.554"/>
							</g>
							<rect x="420.587" y="326.505" fill-rule="evenodd" clip-rule="evenodd" width="1.051" height="1.773"/>
							<rect x="420.587" y="329.686" fill-rule="evenodd" clip-rule="evenodd" width="1.05" height="1.773"/>
							<rect x="420.587" y="332.855" fill-rule="evenodd" clip-rule="evenodd" width="1.05" height="1.773"/>
						</g>
					</g>
					<g>
						<g>
							<g>
								<rect x="415.709" y="316.246" fill="none" width="10.499" height="9.554"/>
							</g>
							<rect x="420.588" y="316.952" fill-rule="evenodd" clip-rule="evenodd" width="1.05" height="1.772"/>
							<rect x="420.588" y="320.132" fill-rule="evenodd" clip-rule="evenodd" width="1.05" height="1.773"/>
							<rect x="420.587" y="323.303" fill-rule="evenodd" clip-rule="evenodd" width="1.051" height="1.772"/>
						</g>
					</g>
					<g>
						<g>
							<g>
								<rect x="415.71" y="306.692" fill="none" width="10.499" height="9.554"/>
							</g>
							<rect x="420.589" y="307.398" fill-rule="evenodd" clip-rule="evenodd" width="1.05" height="1.773"/>
							<rect x="420.589" y="310.579" fill-rule="evenodd" clip-rule="evenodd" width="1.05" height="1.772"/>
							<rect x="420.588" y="313.749" fill-rule="evenodd" clip-rule="evenodd" width="1.05" height="1.773"/>
						</g>
					</g>
					<g>
						<g>
							<g>
								<rect x="415.712" y="297.139" fill="none" width="10.498" height="9.554"/>
							</g>
							<rect x="420.589" y="297.845" fill-rule="evenodd" clip-rule="evenodd" width="1.051" height="1.773"/>
							<rect x="420.589" y="301.025" fill-rule="evenodd" clip-rule="evenodd" width="1.051" height="1.772"/>
							<rect x="420.589" y="304.195" fill-rule="evenodd" clip-rule="evenodd" width="1.05" height="1.773"/>
						</g>
					</g>
				</g>
			</g>
		</g>
		<path fill="none" stroke="#000000" stroke-miterlimit="10" d="M420.945,296.969"/>
		<line fill="none" stroke="#000000" stroke-miterlimit="10" x1="420.945" y1="497.764" x2="481.191" y2="357.572"/>
		<line fill="none" stroke="#000000" stroke-miterlimit="10" x1="360.697" y1="357.572" x2="420.945" y2="497.764"/>
		<g>
			<g>
				<g>
					<g>
						<g>
							<g>
								<g>
									<rect x="415.696" y="289.14" fill="none" width="10.498" height="8.974"/>
								</g>
								<rect x="420.574" y="289.803" fill-rule="evenodd" clip-rule="evenodd" width="1.05" height="1.665"/>
								<rect x="420.574" y="292.79" fill-rule="evenodd" clip-rule="evenodd" width="1.05" height="1.666"/>
								<rect x="420.574" y="295.768" fill-rule="evenodd" clip-rule="evenodd" width="1.05" height="1.666"/>
							</g>
						</g>
						<g>
							<g>
								<g>
									<rect x="415.696" y="280.166" fill="none" width="10.498" height="8.974"/>
								</g>
								<rect x="420.574" y="280.829" fill-rule="evenodd" clip-rule="evenodd" width="1.05" height="1.666"/>
								<rect x="420.574" y="283.816" fill-rule="evenodd" clip-rule="evenodd" width="1.05" height="1.666"/>
								<rect x="420.574" y="286.794" fill-rule="evenodd" clip-rule="evenodd" width="1.05" height="1.666"/>
							</g>
						</g>
						<g>
							<g>
								<g>
									<rect x="415.696" y="271.192" fill="none" width="10.498" height="8.974"/>
								</g>
								<rect x="420.574" y="271.855" fill-rule="evenodd" clip-rule="evenodd" width="1.05" height="1.665"/>
								<rect x="420.574" y="274.843" fill-rule="evenodd" clip-rule="evenodd" width="1.05" height="1.666"/>
								<rect x="420.574" y="277.82" fill-rule="evenodd" clip-rule="evenodd" width="1.05" height="1.666"/>
							</g>
						</g>
						<g>
							<g>
								<g>
									<rect x="415.696" y="262.219" fill="none" width="10.498" height="8.974"/>
								</g>
								<rect x="420.574" y="262.882" fill-rule="evenodd" clip-rule="evenodd" width="1.05" height="1.666"/>
								<rect x="420.574" y="265.869" fill-rule="evenodd" clip-rule="evenodd" width="1.05" height="1.666"/>
								<rect x="420.574" y="268.847" fill-rule="evenodd" clip-rule="evenodd" width="1.05" height="1.666"/>
							</g>
						</g>
						<g>
							<g>
								<g>
									<rect x="415.696" y="253.245" fill="none" width="10.498" height="8.974"/>
								</g>
								<rect x="420.574" y="253.908" fill-rule="evenodd" clip-rule="evenodd" width="1.05" height="1.665"/>
								<rect x="420.574" y="256.896" fill-rule="evenodd" clip-rule="evenodd" width="1.05" height="1.666"/>
								<rect x="420.574" y="259.873" fill-rule="evenodd" clip-rule="evenodd" width="1.05" height="1.666"/>
							</g>
						</g>
						<g>
							<g>
								<g>
									<rect x="415.696" y="244.271" fill="none" width="10.498" height="8.974"/>
								</g>
								<rect x="420.574" y="244.935" fill-rule="evenodd" clip-rule="evenodd" width="1.05" height="1.666"/>
								<rect x="420.574" y="247.922" fill-rule="evenodd" clip-rule="evenodd" width="1.05" height="1.666"/>
								<rect x="420.574" y="250.899" fill-rule="evenodd" clip-rule="evenodd" width="1.05" height="1.666"/>
							</g>
						</g>
						<g>
							<g>
								<g>
									<rect x="415.696" y="235.298" fill="none" width="10.498" height="8.974"/>
								</g>
								<rect x="420.574" y="235.961" fill-rule="evenodd" clip-rule="evenodd" width="1.05" height="1.665"/>
								<rect x="420.574" y="238.948" fill-rule="evenodd" clip-rule="evenodd" width="1.05" height="1.666"/>
								<rect x="420.574" y="241.926" fill-rule="evenodd" clip-rule="evenodd" width="1.05" height="1.666"/>
							</g>
						</g>
						<g>
							<g>
								<g>
									<rect x="415.696" y="226.324" fill="none" width="10.498" height="8.974"/>
								</g>
								<rect x="420.574" y="226.987" fill-rule="evenodd" clip-rule="evenodd" width="1.05" height="1.666"/>
								<rect x="420.574" y="229.975" fill-rule="evenodd" clip-rule="evenodd" width="1.05" height="1.666"/>
								<rect x="420.574" y="232.952" fill-rule="evenodd" clip-rule="evenodd" width="1.05" height="1.666"/>
							</g>
						</g>
						<g>
							<g>
								<g>
									<rect x="415.696" y="217.351" fill="none" width="10.498" height="8.974"/>
								</g>
								<rect x="420.574" y="218.014" fill-rule="evenodd" clip-rule="evenodd" width="1.05" height="1.665"/>
								<rect x="420.574" y="221.001" fill-rule="evenodd" clip-rule="evenodd" width="1.05" height="1.666"/>
								<rect x="420.574" y="223.979" fill-rule="evenodd" clip-rule="evenodd" width="1.05" height="1.666"/>
							</g>
						</g>
					</g>
				</g>
			</g>
			<line fill="none" stroke="#000000" stroke-miterlimit="10" x1="386.588" y1="297.117" x2="391.676" y2="326.799"/>
			<line fill="none" stroke="#000000" stroke-miterlimit="10" x1="420.945" y1="217.351" x2="386.588" y2="297.296"/>
			<line fill="none" stroke="#000000" stroke-miterlimit="10" x1="455.301" y1="297.296" x2="420.945" y2="217.351"/>
			<line fill="none" stroke="#000000" stroke-miterlimit="10" x1="455.301" y1="297.296" x2="450.275" y2="326.62"/>
		</g>
		<line fill="none" stroke="#000000" stroke-miterlimit="10" x1="360.697" y1="357.572" x2="420.83" y2="296.246"/>
		<line fill="none" stroke="#000000" stroke-miterlimit="10" x1="420.83" y1="296.246" x2="481.191" y2="357.572"/>
	</g>
</g>
<g id="Layer_31">
</g>
<g id="Layer_32">
</g>
<g id="Layer_33">
</g>
<g id="Layer_34">
</g>
<g id="Layer_35">
</g>
<g id="Layer_36">
</g>
<g id="Layer_37">
</g>
<g id="Layer_38">
</g>
<g id="Layer_39">
</g>
<g id="Layer_40">
</g>
<g id="Layer_41">
</g>
<g id="Layer_43">
</g>
</svg>
