<?xml version="1.0" encoding="utf-8"?>
<!-- Generator: Adobe Illustrator 16.0.0, SVG Export Plug-In . SVG Version: 6.00 Build 0)  -->
<!DOCTYPE svg PUBLIC "-//W3C//DTD SVG 1.1//EN" "http://www.w3.org/Graphics/SVG/1.1/DTD/svg11.dtd">
<svg version="1.1" xmlns="http://www.w3.org/2000/svg" xmlns:xlink="http://www.w3.org/1999/xlink" x="0px" y="0px"
	 width="841.89px" height="595.28px" viewBox="0 0 841.89 595.28" enable-background="new 0 0 841.89 595.28" xml:space="preserve">
<g id="Layer_1">
</g>
<g id="Layer_2">
</g>
<g id="Layer_3">
</g>
<g id="Layer_4">
</g>
<g id="Layer_5">
</g>
<g id="Layer_6">
</g>
<g id="Layer_7">
</g>
<g id="Layer_8">
</g>
<g id="Layer_9">
</g>
<g id="Layer_10">
</g>
<g id="Layer_11">
</g>
<g id="Layer_12">
</g>
<g id="Layer_13">
</g>
<g id="Layer_14">
</g>
<g id="Layer_15">
</g>
<g id="Layer_16">
</g>
<g id="Layer_17">
</g>
<g id="Layer_18">
</g>
<g id="Layer_19">
</g>
<g id="Layer_20">
</g>
<g id="Layer_21">
</g>
<g id="Layer_22">
</g>
<g id="Layer_24">
</g>
<g id="Layer_25">
</g>
<g id="Layer_26">
</g>
<g id="Layer_27">
</g>
<g id="Layer_28">
</g>
<g id="Layer_29">
</g>
<g id="Layer_30">
</g>
<g id="Layer_31">
</g>
<g id="Layer_32">
	<g>
		<line fill="none" stroke="#000000" stroke-miterlimit="10" x1="420.946" y1="497.763" x2="420.945" y2="217.378"/>
		<path fill="none" stroke="#000000" stroke-miterlimit="10" d="M420.946,296.968"/>
		<line fill="none" stroke="#000000" stroke-miterlimit="10" x1="360.698" y1="357.571" x2="420.946" y2="497.763"/>
		<line fill="none" stroke="#000000" stroke-miterlimit="10" x1="420.945" y1="217.378" x2="360.698" y2="357.571"/>
		<line fill="none" stroke="#000000" stroke-miterlimit="10" x1="455.301" y1="297.323" x2="420.945" y2="217.378"/>
		<line fill="none" stroke="#000000" stroke-miterlimit="10" x1="420.944" y1="342.558" x2="455.301" y2="297.323"/>
		<line fill="none" stroke="#000000" stroke-miterlimit="10" x1="420.944" y1="342.558" x2="450.628" y2="327.007"/>
		<g>
			<g>
				<g>
					<g>
						<g>
							<g>
								
									<rect x="360.697" y="352.332" transform="matrix(-1 -0.002 0.002 -1 730.7349 715.9062)" fill="none" width="10.07" height="10.499"/>
							</g>
							<rect x="368.153" y="357.217" fill-rule="evenodd" clip-rule="evenodd" width="1.869" height="1.05"/>
							<rect x="364.801" y="357.21" fill-rule="evenodd" clip-rule="evenodd" width="1.869" height="1.05"/>
							<rect x="361.459" y="357.203" fill-rule="evenodd" clip-rule="evenodd" width="1.869" height="1.051"/>
						</g>
					</g>
					<g>
						<g>
							<g>
								
									<rect x="370.767" y="352.352" transform="matrix(-1 -0.0019 0.0019 -1 750.9092 715.9304)" fill="none" width="10.07" height="10.499"/>
							</g>
							<rect x="378.223" y="357.236" fill-rule="evenodd" clip-rule="evenodd" width="1.869" height="1.05"/>
							<rect x="374.871" y="357.229" fill-rule="evenodd" clip-rule="evenodd" width="1.869" height="1.05"/>
							<rect x="371.529" y="357.224" fill-rule="evenodd" clip-rule="evenodd" width="1.869" height="1.05"/>
						</g>
					</g>
					<g>
						<g>
							<g>
								
									<rect x="380.836" y="352.371" transform="matrix(-1 -0.002 0.002 -1 771.014 716.0263)" fill="none" width="10.07" height="10.5"/>
							</g>
							<rect x="388.293" y="357.255" fill-rule="evenodd" clip-rule="evenodd" width="1.869" height="1.051"/>
							<rect x="384.941" y="357.25" fill-rule="evenodd" clip-rule="evenodd" width="1.869" height="1.05"/>
							<rect x="381.6" y="357.243" fill-rule="evenodd" clip-rule="evenodd" width="1.869" height="1.05"/>
						</g>
					</g>
					<g>
						<g>
							<g>
								
									<rect x="390.907" y="352.392" transform="matrix(-1 -0.0019 0.0019 -1 791.1893 716.0496)" fill="none" width="10.07" height="10.499"/>
							</g>
							<rect x="398.363" y="357.276" fill-rule="evenodd" clip-rule="evenodd" width="1.869" height="1.05"/>
							<rect x="395.011" y="357.27" fill-rule="evenodd" clip-rule="evenodd" width="1.869" height="1.05"/>
							<rect x="391.669" y="357.263" fill-rule="evenodd" clip-rule="evenodd" width="1.869" height="1.05"/>
						</g>
					</g>
					<g>
						<g>
							<g>
								
									<rect x="400.977" y="352.411" transform="matrix(-1 -0.0019 0.0019 -1 811.3289 716.1082)" fill="none" width="10.07" height="10.499"/>
							</g>
							<rect x="408.433" y="357.296" fill-rule="evenodd" clip-rule="evenodd" width="1.869" height="1.05"/>
							<rect x="405.081" y="357.289" fill-rule="evenodd" clip-rule="evenodd" width="1.869" height="1.051"/>
							<rect x="401.739" y="357.283" fill-rule="evenodd" clip-rule="evenodd" width="1.869" height="1.05"/>
						</g>
					</g>
					<g>
						<g>
							<g>
								
									<rect x="411.046" y="352.432" transform="matrix(-1 -0.0019 0.0019 -1 831.4686 716.1676)" fill="none" width="10.07" height="10.498"/>
							</g>
							<rect x="418.503" y="357.316" fill-rule="evenodd" clip-rule="evenodd" width="1.869" height="1.05"/>
							<rect x="415.151" y="357.31" fill-rule="evenodd" clip-rule="evenodd" width="1.869" height="1.05"/>
							<rect x="411.81" y="357.303" fill-rule="evenodd" clip-rule="evenodd" width="1.869" height="1.05"/>
						</g>
					</g>
				</g>
			</g>
		</g>
		<line fill="none" stroke="#000000" stroke-miterlimit="10" x1="455.301" y1="297.323" x2="420.946" y2="497.763"/>
	</g>
</g>
<g id="Layer_33">
</g>
<g id="Layer_34">
</g>
<g id="Layer_35">
</g>
<g id="Layer_36">
</g>
<g id="Layer_37">
</g>
<g id="Layer_38">
</g>
<g id="Layer_39">
</g>
<g id="Layer_40">
</g>
<g id="Layer_41">
</g>
<g id="Layer_43">
</g>
</svg>
