<?xml version="1.0" encoding="utf-8"?>
<!-- Generator: Adobe Illustrator 16.0.0, SVG Export Plug-In . SVG Version: 6.00 Build 0)  -->
<!DOCTYPE svg PUBLIC "-//W3C//DTD SVG 1.1//EN" "http://www.w3.org/Graphics/SVG/1.1/DTD/svg11.dtd">
<svg version="1.1" xmlns="http://www.w3.org/2000/svg" xmlns:xlink="http://www.w3.org/1999/xlink" x="0px" y="0px"
	 width="841.89px" height="595.28px" viewBox="0 0 841.89 595.28" enable-background="new 0 0 841.89 595.28" xml:space="preserve">
<g id="Layer_1">
</g>
<g id="Layer_2">
</g>
<g id="Layer_3">
</g>
<g id="Layer_4">
</g>
<g id="Layer_5">
</g>
<g id="Layer_6">
</g>
<g id="Layer_7">
</g>
<g id="Layer_8">
</g>
<g id="Layer_9">
</g>
<g id="Layer_10">
</g>
<g id="Layer_11">
</g>
<g id="Layer_12">
</g>
<g id="Layer_13">
</g>
<g id="Layer_14">
</g>
<g id="Layer_15">
</g>
<g id="Layer_16">
</g>
<g id="Layer_17">
</g>
<g id="Layer_18">
</g>
<g id="Layer_19">
</g>
<g id="Layer_20">
</g>
<g id="Layer_21">
</g>
<g id="Layer_22">
</g>
<g id="Layer_24">
	<g>
		<polyline id="pion_9_" fill="none" stroke="#000000" stroke-miterlimit="10" points="483.057,359.795 420.689,297.051 
			358.322,359.795 		"/>
		<line fill="none" stroke="#000000" stroke-miterlimit="10" x1="420.305" y1="497.429" x2="420.729" y2="359.46"/>
		<line fill="none" stroke="#000000" stroke-miterlimit="10" x1="483.057" y1="359.795" x2="420.521" y2="359.795"/>
		<path fill="none" stroke="#000000" stroke-miterlimit="10" d="M420.586,296.968"/>
		<line fill="none" stroke="#000000" stroke-miterlimit="10" x1="483.057" y1="359.795" x2="420.586" y2="497.764"/>
		<g>
			<g>
				<g>
					<g>
						<g>
							<g>
								
									<rect x="415.792" y="349.798" transform="matrix(-0.0038 1 -1 -0.0038 777.1848 -64.1369)" fill="none" width="9.494" height="10.499"/>
							</g>
							<rect x="420.18" y="351.003" fill-rule="evenodd" clip-rule="evenodd" width="1.05" height="1.762"/>
							<rect x="420.168" y="354.163" fill-rule="evenodd" clip-rule="evenodd" width="1.05" height="1.763"/>
							<rect x="420.156" y="357.313" fill-rule="evenodd" clip-rule="evenodd" width="1.05" height="1.763"/>
						</g>
					</g>
					<g>
						<g>
							<g>
								
									<rect x="415.827" y="340.304" transform="matrix(-0.0037 1 -1 -0.0037 767.6827 -73.7392)" fill="none" width="9.495" height="10.499"/>
							</g>
							<rect x="420.215" y="341.508" fill-rule="evenodd" clip-rule="evenodd" width="1.05" height="1.763"/>
							<rect x="420.204" y="344.669" fill-rule="evenodd" clip-rule="evenodd" width="1.05" height="1.763"/>
							<rect x="420.192" y="347.819" fill-rule="evenodd" clip-rule="evenodd" width="1.05" height="1.763"/>
						</g>
					</g>
					<g>
						<g>
							<g>
								
									<rect x="415.863" y="330.809" transform="matrix(-0.0038 1 -1 -0.0038 758.2673 -83.2697)" fill="none" width="9.494" height="10.499"/>
							</g>
							<rect x="420.25" y="332.013" fill-rule="evenodd" clip-rule="evenodd" width="1.051" height="1.763"/>
							<rect x="420.238" y="335.175" fill-rule="evenodd" clip-rule="evenodd" width="1.051" height="1.762"/>
							<rect x="420.227" y="338.325" fill-rule="evenodd" clip-rule="evenodd" width="1.051" height="1.762"/>
						</g>
					</g>
					<g>
						<g>
							<g>
								
									<rect x="415.899" y="321.315" transform="matrix(-0.0037 1 -1 -0.0037 748.7659 -92.8694)" fill="none" width="9.494" height="10.499"/>
							</g>
							<rect x="420.287" y="322.52" fill-rule="evenodd" clip-rule="evenodd" width="1.05" height="1.762"/>
							<rect x="420.275" y="325.68" fill-rule="evenodd" clip-rule="evenodd" width="1.05" height="1.763"/>
							<rect x="420.263" y="328.83" fill-rule="evenodd" clip-rule="evenodd" width="1.05" height="1.763"/>
						</g>
					</g>
					<g>
						<g>
							<g>
								
									<rect x="415.934" y="311.821" transform="matrix(-0.0037 1 -1 -0.0037 739.3069 -102.435)" fill="none" width="9.495" height="10.498"/>
							</g>
							<rect x="420.322" y="313.024" fill-rule="evenodd" clip-rule="evenodd" width="1.05" height="1.763"/>
							<rect x="420.31" y="316.185" fill-rule="evenodd" clip-rule="evenodd" width="1.05" height="1.763"/>
							<rect x="420.298" y="319.336" fill-rule="evenodd" clip-rule="evenodd" width="1.05" height="1.763"/>
						</g>
					</g>
					<g>
						<g>
							<g>
								
									<rect x="415.97" y="302.326" transform="matrix(-0.0038 1 -1 -0.0038 729.8909 -111.968)" fill="none" width="9.494" height="10.499"/>
							</g>
							<rect x="420.358" y="303.53" fill-rule="evenodd" clip-rule="evenodd" width="1.05" height="1.763"/>
							<rect x="420.346" y="306.691" fill-rule="evenodd" clip-rule="evenodd" width="1.05" height="1.762"/>
							<rect x="420.334" y="309.842" fill-rule="evenodd" clip-rule="evenodd" width="1.05" height="1.762"/>
						</g>
					</g>
					<g>
						<g>
							<g>
								
									<rect x="416.005" y="292.831" transform="matrix(-0.0037 1 -1 -0.0037 720.3892 -121.565)" fill="none" width="9.494" height="10.499"/>
							</g>
							<rect x="420.393" y="294.036" fill-rule="evenodd" clip-rule="evenodd" width="1.05" height="1.762"/>
							<rect x="420.381" y="297.196" fill-rule="evenodd" clip-rule="evenodd" width="1.05" height="1.763"/>
							<rect x="420.37" y="300.347" fill-rule="evenodd" clip-rule="evenodd" width="1.05" height="1.763"/>
						</g>
					</g>
					<g>
						<g>
							<g>
								
									<rect x="416.041" y="283.337" transform="matrix(-0.0038 1 -1 -0.0038 710.9738 -131.1004)" fill="none" width="9.495" height="10.499"/>
							</g>
							<rect x="420.428" y="284.541" fill-rule="evenodd" clip-rule="evenodd" width="1.051" height="1.763"/>
							<rect x="420.416" y="287.702" fill-rule="evenodd" clip-rule="evenodd" width="1.051" height="1.762"/>
							<rect x="420.404" y="290.853" fill-rule="evenodd" clip-rule="evenodd" width="1.051" height="1.762"/>
						</g>
					</g>
					<g>
						<g>
							<g>
								
									<rect x="416.076" y="273.842" transform="matrix(-0.0037 1 -1 -0.0037 701.472 -140.6954)" fill="none" width="9.495" height="10.499"/>
							</g>
							<rect x="420.464" y="275.047" fill-rule="evenodd" clip-rule="evenodd" width="1.05" height="1.762"/>
							<rect x="420.453" y="278.208" fill-rule="evenodd" clip-rule="evenodd" width="1.05" height="1.762"/>
							<rect x="420.441" y="281.358" fill-rule="evenodd" clip-rule="evenodd" width="1.05" height="1.763"/>
						</g>
					</g>
					<g>
						<g>
							<g>
								
									<rect x="416.112" y="264.348" transform="matrix(-0.0037 1 -1 -0.0037 692.0133 -150.2608)" fill="none" width="9.494" height="10.498"/>
							</g>
							<rect x="420.5" y="265.552" fill-rule="evenodd" clip-rule="evenodd" width="1.05" height="1.762"/>
							<rect x="420.488" y="268.713" fill-rule="evenodd" clip-rule="evenodd" width="1.05" height="1.763"/>
							<rect x="420.476" y="271.864" fill-rule="evenodd" clip-rule="evenodd" width="1.05" height="1.762"/>
						</g>
					</g>
					<g>
						<g>
							<g>
								
									<rect x="416.147" y="254.853" transform="matrix(-0.0038 1 -1 -0.0038 682.5974 -159.7986)" fill="none" width="9.495" height="10.499"/>
							</g>
							<rect x="420.536" y="256.058" fill-rule="evenodd" clip-rule="evenodd" width="1.05" height="1.763"/>
							<rect x="420.524" y="259.219" fill-rule="evenodd" clip-rule="evenodd" width="1.05" height="1.762"/>
							<rect x="420.512" y="262.369" fill-rule="evenodd" clip-rule="evenodd" width="1.05" height="1.762"/>
						</g>
					</g>
					<g>
						<g>
							<g>
								
									<rect x="416.183" y="245.359" transform="matrix(-0.0037 1 -1 -0.0037 673.0956 -169.3907)" fill="none" width="9.495" height="10.499"/>
							</g>
							<rect x="420.571" y="246.563" fill-rule="evenodd" clip-rule="evenodd" width="1.05" height="1.762"/>
							<rect x="420.559" y="249.724" fill-rule="evenodd" clip-rule="evenodd" width="1.05" height="1.762"/>
							<rect x="420.547" y="252.875" fill-rule="evenodd" clip-rule="evenodd" width="1.05" height="1.763"/>
						</g>
					</g>
					<g>
						<g>
							<g>
								
									<rect x="416.219" y="235.864" transform="matrix(-0.0038 1 -1 -0.0038 663.6802 -178.9311)" fill="none" width="9.494" height="10.499"/>
							</g>
							<rect x="420.605" y="237.069" fill-rule="evenodd" clip-rule="evenodd" width="1.051" height="1.762"/>
							<rect x="420.594" y="240.229" fill-rule="evenodd" clip-rule="evenodd" width="1.051" height="1.763"/>
							<rect x="420.582" y="243.38" fill-rule="evenodd" clip-rule="evenodd" width="1.051" height="1.762"/>
						</g>
					</g>
					<g>
						<g>
							<g>
								
									<rect x="416.254" y="226.37" transform="matrix(-0.0037 1 -1 -0.0037 654.1783 -188.5213)" fill="none" width="9.495" height="10.499"/>
							</g>
							<rect x="420.642" y="227.574" fill-rule="evenodd" clip-rule="evenodd" width="1.05" height="1.763"/>
							<rect x="420.63" y="230.735" fill-rule="evenodd" clip-rule="evenodd" width="1.05" height="1.762"/>
							<rect x="420.619" y="233.886" fill-rule="evenodd" clip-rule="evenodd" width="1.05" height="1.762"/>
						</g>
					</g>
					<g>
						<g>
							<g>
								
									<rect x="416.29" y="216.876" transform="matrix(-0.0037 1 -1 -0.0037 644.7198 -198.0865)" fill="none" width="9.495" height="10.498"/>
							</g>
							<rect x="420.677" y="218.08" fill-rule="evenodd" clip-rule="evenodd" width="1.05" height="1.762"/>
							<rect x="420.666" y="221.241" fill-rule="evenodd" clip-rule="evenodd" width="1.05" height="1.762"/>
							<rect x="420.654" y="224.391" fill-rule="evenodd" clip-rule="evenodd" width="1.05" height="1.763"/>
						</g>
					</g>
				</g>
			</g>
		</g>
		<line fill="none" stroke="#000000" stroke-miterlimit="10" x1="386.699" y1="297.324" x2="391.607" y2="325.967"/>
		<line fill="none" stroke="#000000" stroke-miterlimit="10" x1="421.055" y1="217.378" x2="386.699" y2="297.324"/>
		<line fill="none" stroke="#000000" stroke-miterlimit="10" x1="455.412" y1="297.324" x2="421.055" y2="217.378"/>
		<line fill="none" stroke="#000000" stroke-miterlimit="10" x1="455.412" y1="297.324" x2="450.385" y2="326.648"/>
		<line fill="none" stroke="#000000" stroke-miterlimit="10" x1="358.385" y1="359.46" x2="420.305" y2="497.429"/>
		<line fill="none" stroke="#000000" stroke-miterlimit="10" x1="420.666" y1="359.795" x2="358.322" y2="359.795"/>
	</g>
</g>
<g id="Layer_25">
</g>
<g id="Layer_26">
</g>
<g id="Layer_27">
</g>
<g id="Layer_28">
</g>
<g id="Layer_29">
</g>
<g id="Layer_30">
</g>
<g id="Layer_31">
</g>
<g id="Layer_32">
</g>
<g id="Layer_33">
</g>
<g id="Layer_34">
</g>
<g id="Layer_35">
</g>
<g id="Layer_36">
</g>
<g id="Layer_37">
</g>
<g id="Layer_38">
</g>
<g id="Layer_39">
</g>
<g id="Layer_40">
</g>
<g id="Layer_41">
</g>
<g id="Layer_43">
</g>
</svg>
