<?xml version="1.0" encoding="utf-8"?>
<!-- Generator: Adobe Illustrator 16.0.0, SVG Export Plug-In . SVG Version: 6.00 Build 0)  -->
<!DOCTYPE svg PUBLIC "-//W3C//DTD SVG 1.1//EN" "http://www.w3.org/Graphics/SVG/1.1/DTD/svg11.dtd">
<svg version="1.1" xmlns="http://www.w3.org/2000/svg" xmlns:xlink="http://www.w3.org/1999/xlink" x="0px" y="0px"
	 width="841.89px" height="595.28px" viewBox="0 0 841.89 595.28" enable-background="new 0 0 841.89 595.28" xml:space="preserve">
<g id="Layer_1">
</g>
<g id="Layer_2">
</g>
<g id="Layer_3">
</g>
<g id="Layer_4">
	<g>
		<polyline fill="none" stroke="#000000" stroke-miterlimit="10" points="279.212,427.854 279.212,438.977 420.944,438.977 
			562.677,438.977 562.677,297.245 		"/>
		<polygon fill="none" stroke="#000000" stroke-miterlimit="10" points="268.055,427.854 279.212,427.854 279.211,297.245 		"/>
		<g id="pion_2_">
			<g>
				<g>
					<g>
						<g>
							<g>
								<rect x="415.694" y="296.734" fill="none" width="10.5" height="9.483"/>
							</g>
							<rect x="420.266" y="303.756" fill-rule="evenodd" clip-rule="evenodd" width="1.05" height="1.76"/>
							<rect x="420.266" y="300.599" fill-rule="evenodd" clip-rule="evenodd" width="1.05" height="1.76"/>
							<rect x="420.266" y="297.452" fill-rule="evenodd" clip-rule="evenodd" width="1.05" height="1.761"/>
						</g>
					</g>
					<g>
						<g>
							<g>
								<rect x="415.694" y="306.217" fill="none" width="10.5" height="9.482"/>
							</g>
							<rect x="420.266" y="313.239" fill-rule="evenodd" clip-rule="evenodd" width="1.05" height="1.76"/>
							<rect x="420.266" y="310.082" fill-rule="evenodd" clip-rule="evenodd" width="1.05" height="1.76"/>
							<rect x="420.266" y="306.936" fill-rule="evenodd" clip-rule="evenodd" width="1.05" height="1.76"/>
						</g>
					</g>
					<g>
						<g>
							<g>
								<rect x="415.694" y="315.699" fill="none" width="10.5" height="9.483"/>
							</g>
							<rect x="420.266" y="322.722" fill-rule="evenodd" clip-rule="evenodd" width="1.05" height="1.76"/>
							<rect x="420.266" y="319.564" fill-rule="evenodd" clip-rule="evenodd" width="1.05" height="1.761"/>
							<rect x="420.266" y="316.418" fill-rule="evenodd" clip-rule="evenodd" width="1.05" height="1.76"/>
						</g>
					</g>
					<g>
						<g>
							<g>
								<rect x="415.694" y="325.183" fill="none" width="10.5" height="9.482"/>
							</g>
							<rect x="420.266" y="332.205" fill-rule="evenodd" clip-rule="evenodd" width="1.05" height="1.76"/>
							<rect x="420.266" y="329.048" fill-rule="evenodd" clip-rule="evenodd" width="1.05" height="1.76"/>
							<rect x="420.266" y="325.901" fill-rule="evenodd" clip-rule="evenodd" width="1.05" height="1.76"/>
						</g>
					</g>
					<g>
						<g>
							<g>
								<rect x="415.694" y="334.665" fill="none" width="10.5" height="9.483"/>
							</g>
							<rect x="420.266" y="341.688" fill-rule="evenodd" clip-rule="evenodd" width="1.05" height="1.76"/>
							<rect x="420.266" y="338.53" fill-rule="evenodd" clip-rule="evenodd" width="1.05" height="1.76"/>
							<rect x="420.266" y="335.384" fill-rule="evenodd" clip-rule="evenodd" width="1.05" height="1.76"/>
						</g>
					</g>
					<g>
						<g>
							<g>
								<rect x="415.694" y="344.148" fill="none" width="10.5" height="9.482"/>
							</g>
							<rect x="420.266" y="351.17" fill-rule="evenodd" clip-rule="evenodd" width="1.05" height="1.761"/>
							<rect x="420.266" y="348.013" fill-rule="evenodd" clip-rule="evenodd" width="1.05" height="1.76"/>
							<rect x="420.266" y="344.867" fill-rule="evenodd" clip-rule="evenodd" width="1.05" height="1.76"/>
						</g>
					</g>
					<g>
						<g>
							<g>
								<rect x="415.694" y="353.631" fill="none" width="10.5" height="9.483"/>
							</g>
							<rect x="420.266" y="360.653" fill-rule="evenodd" clip-rule="evenodd" width="1.05" height="1.76"/>
							<rect x="420.266" y="357.496" fill-rule="evenodd" clip-rule="evenodd" width="1.05" height="1.76"/>
							<rect x="420.266" y="354.35" fill-rule="evenodd" clip-rule="evenodd" width="1.05" height="1.76"/>
						</g>
					</g>
					<g>
						<g>
							<g>
								<rect x="415.694" y="363.114" fill="none" width="10.5" height="9.483"/>
							</g>
							<rect x="420.266" y="370.136" fill-rule="evenodd" clip-rule="evenodd" width="1.05" height="1.76"/>
							<rect x="420.266" y="366.979" fill-rule="evenodd" clip-rule="evenodd" width="1.05" height="1.76"/>
							<rect x="420.266" y="363.832" fill-rule="evenodd" clip-rule="evenodd" width="1.05" height="1.761"/>
						</g>
					</g>
					<g>
						<g>
							<g>
								<rect x="415.694" y="372.597" fill="none" width="10.5" height="9.483"/>
							</g>
							<rect x="420.266" y="379.619" fill-rule="evenodd" clip-rule="evenodd" width="1.05" height="1.76"/>
							<rect x="420.266" y="376.462" fill-rule="evenodd" clip-rule="evenodd" width="1.05" height="1.76"/>
							<rect x="420.266" y="373.315" fill-rule="evenodd" clip-rule="evenodd" width="1.05" height="1.76"/>
						</g>
					</g>
					<g>
						<g>
							<g>
								<rect x="415.694" y="382.08" fill="none" width="10.5" height="9.483"/>
							</g>
							<rect x="420.266" y="389.102" fill-rule="evenodd" clip-rule="evenodd" width="1.05" height="1.76"/>
							<rect x="420.266" y="385.944" fill-rule="evenodd" clip-rule="evenodd" width="1.05" height="1.761"/>
							<rect x="420.266" y="382.798" fill-rule="evenodd" clip-rule="evenodd" width="1.05" height="1.76"/>
						</g>
					</g>
					<g>
						<g>
							<g>
								<rect x="415.694" y="391.563" fill="none" width="10.5" height="9.482"/>
							</g>
							<rect x="420.266" y="398.584" fill-rule="evenodd" clip-rule="evenodd" width="1.05" height="1.76"/>
							<rect x="420.266" y="395.428" fill-rule="evenodd" clip-rule="evenodd" width="1.05" height="1.76"/>
							<rect x="420.266" y="392.281" fill-rule="evenodd" clip-rule="evenodd" width="1.05" height="1.76"/>
						</g>
					</g>
					<g>
						<g>
							<g>
								<rect x="415.694" y="401.045" fill="none" width="10.5" height="9.483"/>
							</g>
							<rect x="420.266" y="408.067" fill-rule="evenodd" clip-rule="evenodd" width="1.05" height="1.76"/>
							<rect x="420.266" y="404.91" fill-rule="evenodd" clip-rule="evenodd" width="1.05" height="1.76"/>
							<rect x="420.266" y="401.764" fill-rule="evenodd" clip-rule="evenodd" width="1.05" height="1.76"/>
						</g>
					</g>
					<g>
						<g>
							<g>
								<rect x="415.694" y="410.528" fill="none" width="10.5" height="9.482"/>
							</g>
							<rect x="420.266" y="417.55" fill-rule="evenodd" clip-rule="evenodd" width="1.05" height="1.761"/>
							<rect x="420.266" y="414.393" fill-rule="evenodd" clip-rule="evenodd" width="1.05" height="1.76"/>
							<rect x="420.266" y="411.247" fill-rule="evenodd" clip-rule="evenodd" width="1.05" height="1.76"/>
						</g>
					</g>
					<g>
						<g>
							<g>
								<rect x="415.694" y="420.011" fill="none" width="10.5" height="9.483"/>
							</g>
							<rect x="420.266" y="427.033" fill-rule="evenodd" clip-rule="evenodd" width="1.05" height="1.76"/>
							<rect x="420.266" y="423.876" fill-rule="evenodd" clip-rule="evenodd" width="1.05" height="1.76"/>
							<rect x="420.266" y="420.729" fill-rule="evenodd" clip-rule="evenodd" width="1.05" height="1.76"/>
						</g>
					</g>
					<g>
						<g>
							<g>
								<rect x="415.694" y="429.494" fill="none" width="10.5" height="9.483"/>
							</g>
							<rect x="420.266" y="436.516" fill-rule="evenodd" clip-rule="evenodd" width="1.05" height="1.76"/>
							<rect x="420.266" y="433.359" fill-rule="evenodd" clip-rule="evenodd" width="1.05" height="1.76"/>
							<rect x="420.266" y="430.212" fill-rule="evenodd" clip-rule="evenodd" width="1.05" height="1.761"/>
						</g>
					</g>
				</g>
			</g>
		</g>
		<line fill="none" stroke="#000000" stroke-miterlimit="10" x1="279.211" y1="297.245" x2="562.677" y2="297.245"/>
	</g>
</g>
<g id="Layer_5">
</g>
<g id="Layer_6">
</g>
<g id="Layer_7">
</g>
<g id="Layer_8">
</g>
<g id="Layer_9">
</g>
<g id="Layer_10">
</g>
<g id="Layer_11">
</g>
<g id="Layer_12">
</g>
<g id="Layer_13">
</g>
<g id="Layer_14">
</g>
<g id="Layer_15">
</g>
<g id="Layer_16">
</g>
<g id="Layer_17">
</g>
<g id="Layer_18">
</g>
<g id="Layer_19">
</g>
<g id="Layer_20">
</g>
<g id="Layer_21">
</g>
<g id="Layer_22">
</g>
<g id="Layer_24">
</g>
<g id="Layer_25">
</g>
<g id="Layer_26">
</g>
<g id="Layer_27">
</g>
<g id="Layer_28">
</g>
<g id="Layer_29">
</g>
<g id="Layer_30">
</g>
<g id="Layer_31">
</g>
<g id="Layer_32">
</g>
<g id="Layer_33">
</g>
<g id="Layer_34">
</g>
<g id="Layer_35">
</g>
<g id="Layer_36">
</g>
<g id="Layer_37">
</g>
<g id="Layer_38">
</g>
<g id="Layer_39">
</g>
<g id="Layer_40">
</g>
<g id="Layer_41">
</g>
<g id="Layer_43">
</g>
</svg>
