<?xml version="1.0" encoding="utf-8"?>
<!-- Generator: Adobe Illustrator 16.0.0, SVG Export Plug-In . SVG Version: 6.00 Build 0)  -->
<!DOCTYPE svg PUBLIC "-//W3C//DTD SVG 1.1//EN" "http://www.w3.org/Graphics/SVG/1.1/DTD/svg11.dtd">
<svg version="1.1" xmlns="http://www.w3.org/2000/svg" xmlns:xlink="http://www.w3.org/1999/xlink" x="0px" y="0px"
	 width="841.89px" height="595.28px" viewBox="0 0 841.89 595.28" enable-background="new 0 0 841.89 595.28" xml:space="preserve">
<g id="Layer_1">
</g>
<g id="Layer_2">
</g>
<g id="Layer_3">
</g>
<g id="Layer_4">
</g>
<g id="Layer_5">
	<polygon fill="none" stroke="#000000" stroke-miterlimit="10" points="562.677,439.373 420.944,439.373 279.213,439.373 
		279.213,297.64 279.213,155.907 420.944,155.907 562.677,155.907 562.677,297.64 	"/>
	<g>
		<g>
			<path fill="none" stroke="#A7A9AC" stroke-width="0.7" stroke-miterlimit="10" d="M420.945,297.64"/>
		</g>
	</g>
	<g id="pion_5_">
		<g>
			<g>
				<g>
					<g>
						<g>
							<rect x="415.695" y="155.397" fill="none" width="10.5" height="9.483"/>
						</g>
						<rect x="420.267" y="162.419" fill-rule="evenodd" clip-rule="evenodd" width="1.05" height="1.76"/>
						<rect x="420.267" y="159.263" fill-rule="evenodd" clip-rule="evenodd" width="1.05" height="1.76"/>
						<rect x="420.267" y="156.116" fill-rule="evenodd" clip-rule="evenodd" width="1.05" height="1.76"/>
					</g>
				</g>
				<g>
					<g>
						<g>
							<rect x="415.695" y="164.88" fill="none" width="10.5" height="9.483"/>
						</g>
						<rect x="420.267" y="171.902" fill-rule="evenodd" clip-rule="evenodd" width="1.05" height="1.76"/>
						<rect x="420.267" y="168.745" fill-rule="evenodd" clip-rule="evenodd" width="1.05" height="1.761"/>
						<rect x="420.267" y="165.599" fill-rule="evenodd" clip-rule="evenodd" width="1.05" height="1.76"/>
					</g>
				</g>
				<g>
					<g>
						<g>
							<rect x="415.695" y="174.363" fill="none" width="10.5" height="9.482"/>
						</g>
						<rect x="420.267" y="181.385" fill-rule="evenodd" clip-rule="evenodd" width="1.05" height="1.76"/>
						<rect x="420.267" y="178.229" fill-rule="evenodd" clip-rule="evenodd" width="1.05" height="1.76"/>
						<rect x="420.267" y="175.082" fill-rule="evenodd" clip-rule="evenodd" width="1.05" height="1.76"/>
					</g>
				</g>
				<g>
					<g>
						<g>
							<rect x="415.695" y="183.846" fill="none" width="10.5" height="9.483"/>
						</g>
						<rect x="420.267" y="190.868" fill-rule="evenodd" clip-rule="evenodd" width="1.05" height="1.76"/>
						<rect x="420.267" y="187.711" fill-rule="evenodd" clip-rule="evenodd" width="1.05" height="1.76"/>
						<rect x="420.267" y="184.564" fill-rule="evenodd" clip-rule="evenodd" width="1.05" height="1.76"/>
					</g>
				</g>
				<g>
					<g>
						<g>
							<rect x="415.695" y="193.329" fill="none" width="10.5" height="9.482"/>
						</g>
						<rect x="420.267" y="200.351" fill-rule="evenodd" clip-rule="evenodd" width="1.05" height="1.761"/>
						<rect x="420.267" y="197.194" fill-rule="evenodd" clip-rule="evenodd" width="1.05" height="1.76"/>
						<rect x="420.267" y="194.047" fill-rule="evenodd" clip-rule="evenodd" width="1.05" height="1.76"/>
					</g>
				</g>
				<g>
					<g>
						<g>
							<rect x="415.695" y="202.812" fill="none" width="10.5" height="9.483"/>
						</g>
						<rect x="420.267" y="209.834" fill-rule="evenodd" clip-rule="evenodd" width="1.05" height="1.76"/>
						<rect x="420.267" y="206.677" fill-rule="evenodd" clip-rule="evenodd" width="1.05" height="1.76"/>
						<rect x="420.267" y="203.53" fill-rule="evenodd" clip-rule="evenodd" width="1.05" height="1.76"/>
					</g>
				</g>
				<g>
					<g>
						<g>
							<rect x="415.695" y="212.294" fill="none" width="10.5" height="9.483"/>
						</g>
						<rect x="420.267" y="219.316" fill-rule="evenodd" clip-rule="evenodd" width="1.05" height="1.76"/>
						<rect x="420.267" y="216.16" fill-rule="evenodd" clip-rule="evenodd" width="1.05" height="1.76"/>
						<rect x="420.267" y="213.013" fill-rule="evenodd" clip-rule="evenodd" width="1.05" height="1.761"/>
					</g>
				</g>
				<g>
					<g>
						<g>
							<rect x="415.695" y="221.777" fill="none" width="10.5" height="9.483"/>
						</g>
						<rect x="420.267" y="228.8" fill-rule="evenodd" clip-rule="evenodd" width="1.05" height="1.76"/>
						<rect x="420.267" y="225.643" fill-rule="evenodd" clip-rule="evenodd" width="1.05" height="1.76"/>
						<rect x="420.267" y="222.496" fill-rule="evenodd" clip-rule="evenodd" width="1.05" height="1.76"/>
					</g>
				</g>
				<g>
					<g>
						<g>
							<rect x="415.695" y="231.26" fill="none" width="10.5" height="9.483"/>
						</g>
						<rect x="420.267" y="238.282" fill-rule="evenodd" clip-rule="evenodd" width="1.05" height="1.76"/>
						<rect x="420.267" y="235.125" fill-rule="evenodd" clip-rule="evenodd" width="1.05" height="1.761"/>
						<rect x="420.267" y="231.979" fill-rule="evenodd" clip-rule="evenodd" width="1.05" height="1.76"/>
					</g>
				</g>
				<g>
					<g>
						<g>
							<rect x="415.695" y="240.743" fill="none" width="10.5" height="9.482"/>
						</g>
						<rect x="420.267" y="247.765" fill-rule="evenodd" clip-rule="evenodd" width="1.05" height="1.76"/>
						<rect x="420.267" y="244.608" fill-rule="evenodd" clip-rule="evenodd" width="1.05" height="1.76"/>
						<rect x="420.267" y="241.462" fill-rule="evenodd" clip-rule="evenodd" width="1.05" height="1.76"/>
					</g>
				</g>
				<g>
					<g>
						<g>
							<rect x="415.695" y="250.226" fill="none" width="10.5" height="9.483"/>
						</g>
						<rect x="420.267" y="257.248" fill-rule="evenodd" clip-rule="evenodd" width="1.05" height="1.76"/>
						<rect x="420.267" y="254.091" fill-rule="evenodd" clip-rule="evenodd" width="1.05" height="1.76"/>
						<rect x="420.267" y="250.944" fill-rule="evenodd" clip-rule="evenodd" width="1.05" height="1.76"/>
					</g>
				</g>
				<g>
					<g>
						<g>
							<rect x="415.695" y="259.709" fill="none" width="10.5" height="9.482"/>
						</g>
						<rect x="420.267" y="266.73" fill-rule="evenodd" clip-rule="evenodd" width="1.05" height="1.761"/>
						<rect x="420.267" y="263.574" fill-rule="evenodd" clip-rule="evenodd" width="1.05" height="1.76"/>
						<rect x="420.267" y="260.427" fill-rule="evenodd" clip-rule="evenodd" width="1.05" height="1.76"/>
					</g>
				</g>
				<g>
					<g>
						<g>
							<rect x="415.695" y="269.191" fill="none" width="10.5" height="9.483"/>
						</g>
						<rect x="420.267" y="276.214" fill-rule="evenodd" clip-rule="evenodd" width="1.05" height="1.76"/>
						<rect x="420.267" y="273.057" fill-rule="evenodd" clip-rule="evenodd" width="1.05" height="1.76"/>
						<rect x="420.267" y="269.91" fill-rule="evenodd" clip-rule="evenodd" width="1.05" height="1.76"/>
					</g>
				</g>
				<g>
					<g>
						<g>
							<rect x="415.695" y="278.675" fill="none" width="10.5" height="9.482"/>
						</g>
						<rect x="420.267" y="285.696" fill-rule="evenodd" clip-rule="evenodd" width="1.05" height="1.761"/>
						<rect x="420.267" y="282.54" fill-rule="evenodd" clip-rule="evenodd" width="1.05" height="1.76"/>
						<rect x="420.267" y="279.393" fill-rule="evenodd" clip-rule="evenodd" width="1.05" height="1.76"/>
					</g>
				</g>
				<g>
					<g>
						<g>
							<rect x="415.695" y="288.157" fill="none" width="10.5" height="9.483"/>
						</g>
						<rect x="420.267" y="295.18" fill-rule="evenodd" clip-rule="evenodd" width="1.05" height="1.76"/>
						<rect x="420.267" y="292.022" fill-rule="evenodd" clip-rule="evenodd" width="1.05" height="1.76"/>
						<rect x="420.267" y="288.876" fill-rule="evenodd" clip-rule="evenodd" width="1.05" height="1.76"/>
					</g>
				</g>
				<g>
					<g>
						<g>
							<rect x="415.695" y="297.64" fill="none" width="10.5" height="9.483"/>
						</g>
						<rect x="420.267" y="304.662" fill-rule="evenodd" clip-rule="evenodd" width="1.05" height="1.76"/>
						<rect x="420.267" y="301.505" fill-rule="evenodd" clip-rule="evenodd" width="1.05" height="1.76"/>
						<rect x="420.267" y="298.358" fill-rule="evenodd" clip-rule="evenodd" width="1.05" height="1.761"/>
					</g>
				</g>
				<g>
					<g>
						<g>
							<rect x="415.695" y="307.123" fill="none" width="10.5" height="9.482"/>
						</g>
						<rect x="420.267" y="314.145" fill-rule="evenodd" clip-rule="evenodd" width="1.05" height="1.76"/>
						<rect x="420.267" y="310.988" fill-rule="evenodd" clip-rule="evenodd" width="1.05" height="1.76"/>
						<rect x="420.267" y="307.842" fill-rule="evenodd" clip-rule="evenodd" width="1.05" height="1.76"/>
					</g>
				</g>
				<g>
					<g>
						<g>
							<rect x="415.695" y="316.605" fill="none" width="10.5" height="9.483"/>
						</g>
						<rect x="420.267" y="323.628" fill-rule="evenodd" clip-rule="evenodd" width="1.05" height="1.76"/>
						<rect x="420.267" y="320.471" fill-rule="evenodd" clip-rule="evenodd" width="1.05" height="1.761"/>
						<rect x="420.267" y="317.324" fill-rule="evenodd" clip-rule="evenodd" width="1.05" height="1.76"/>
					</g>
				</g>
				<g>
					<g>
						<g>
							<rect x="415.695" y="326.089" fill="none" width="10.5" height="9.482"/>
						</g>
						<rect x="420.267" y="333.111" fill-rule="evenodd" clip-rule="evenodd" width="1.05" height="1.76"/>
						<rect x="420.267" y="329.954" fill-rule="evenodd" clip-rule="evenodd" width="1.05" height="1.76"/>
						<rect x="420.267" y="326.807" fill-rule="evenodd" clip-rule="evenodd" width="1.05" height="1.76"/>
					</g>
				</g>
				<g>
					<g>
						<g>
							<rect x="415.695" y="335.571" fill="none" width="10.5" height="9.483"/>
						</g>
						<rect x="420.267" y="342.594" fill-rule="evenodd" clip-rule="evenodd" width="1.05" height="1.76"/>
						<rect x="420.267" y="339.437" fill-rule="evenodd" clip-rule="evenodd" width="1.05" height="1.76"/>
						<rect x="420.267" y="336.29" fill-rule="evenodd" clip-rule="evenodd" width="1.05" height="1.76"/>
					</g>
				</g>
				<g>
					<g>
						<g>
							<rect x="415.695" y="345.055" fill="none" width="10.5" height="9.482"/>
						</g>
						<rect x="420.267" y="352.076" fill-rule="evenodd" clip-rule="evenodd" width="1.05" height="1.761"/>
						<rect x="420.267" y="348.919" fill-rule="evenodd" clip-rule="evenodd" width="1.05" height="1.76"/>
						<rect x="420.267" y="345.773" fill-rule="evenodd" clip-rule="evenodd" width="1.05" height="1.76"/>
					</g>
				</g>
				<g>
					<g>
						<g>
							<rect x="415.695" y="354.537" fill="none" width="10.5" height="9.483"/>
						</g>
						<rect x="420.267" y="361.56" fill-rule="evenodd" clip-rule="evenodd" width="1.05" height="1.76"/>
						<rect x="420.267" y="358.402" fill-rule="evenodd" clip-rule="evenodd" width="1.05" height="1.76"/>
						<rect x="420.267" y="355.256" fill-rule="evenodd" clip-rule="evenodd" width="1.05" height="1.76"/>
					</g>
				</g>
				<g>
					<g>
						<g>
							<rect x="415.695" y="364.02" fill="none" width="10.5" height="9.483"/>
						</g>
						<rect x="420.267" y="371.042" fill-rule="evenodd" clip-rule="evenodd" width="1.05" height="1.76"/>
						<rect x="420.267" y="367.885" fill-rule="evenodd" clip-rule="evenodd" width="1.05" height="1.76"/>
						<rect x="420.267" y="364.738" fill-rule="evenodd" clip-rule="evenodd" width="1.05" height="1.761"/>
					</g>
				</g>
				<g>
					<g>
						<g>
							<rect x="415.695" y="373.503" fill="none" width="10.5" height="9.483"/>
						</g>
						<rect x="420.267" y="380.525" fill-rule="evenodd" clip-rule="evenodd" width="1.05" height="1.76"/>
						<rect x="420.267" y="377.368" fill-rule="evenodd" clip-rule="evenodd" width="1.05" height="1.76"/>
						<rect x="420.267" y="374.222" fill-rule="evenodd" clip-rule="evenodd" width="1.05" height="1.76"/>
					</g>
				</g>
				<g>
					<g>
						<g>
							<rect x="415.695" y="382.986" fill="none" width="10.5" height="9.483"/>
						</g>
						<rect x="420.267" y="390.008" fill-rule="evenodd" clip-rule="evenodd" width="1.05" height="1.76"/>
						<rect x="420.267" y="386.851" fill-rule="evenodd" clip-rule="evenodd" width="1.05" height="1.761"/>
						<rect x="420.267" y="383.704" fill-rule="evenodd" clip-rule="evenodd" width="1.05" height="1.76"/>
					</g>
				</g>
				<g>
					<g>
						<g>
							<rect x="415.695" y="392.469" fill="none" width="10.5" height="9.482"/>
						</g>
						<rect x="420.267" y="399.491" fill-rule="evenodd" clip-rule="evenodd" width="1.05" height="1.76"/>
						<rect x="420.267" y="396.334" fill-rule="evenodd" clip-rule="evenodd" width="1.05" height="1.76"/>
						<rect x="420.267" y="393.187" fill-rule="evenodd" clip-rule="evenodd" width="1.05" height="1.76"/>
					</g>
				</g>
				<g>
					<g>
						<g>
							<rect x="415.695" y="401.951" fill="none" width="10.5" height="9.483"/>
						</g>
						<rect x="420.267" y="408.974" fill-rule="evenodd" clip-rule="evenodd" width="1.05" height="1.76"/>
						<rect x="420.267" y="405.816" fill-rule="evenodd" clip-rule="evenodd" width="1.05" height="1.76"/>
						<rect x="420.267" y="402.67" fill-rule="evenodd" clip-rule="evenodd" width="1.05" height="1.76"/>
					</g>
				</g>
				<g>
					<g>
						<g>
							<rect x="415.695" y="411.435" fill="none" width="10.5" height="9.482"/>
						</g>
						<rect x="420.267" y="418.456" fill-rule="evenodd" clip-rule="evenodd" width="1.05" height="1.761"/>
						<rect x="420.267" y="415.299" fill-rule="evenodd" clip-rule="evenodd" width="1.05" height="1.76"/>
						<rect x="420.267" y="412.153" fill-rule="evenodd" clip-rule="evenodd" width="1.05" height="1.76"/>
					</g>
				</g>
				<g>
					<g>
						<g>
							<rect x="415.695" y="420.917" fill="none" width="10.5" height="9.483"/>
						</g>
						<rect x="420.267" y="427.939" fill-rule="evenodd" clip-rule="evenodd" width="1.05" height="1.76"/>
						<rect x="420.267" y="424.782" fill-rule="evenodd" clip-rule="evenodd" width="1.05" height="1.76"/>
						<rect x="420.267" y="421.636" fill-rule="evenodd" clip-rule="evenodd" width="1.05" height="1.76"/>
					</g>
				</g>
				<g>
					<g>
						<g>
							<rect x="415.695" y="430.4" fill="none" width="10.5" height="9.483"/>
						</g>
						<rect x="420.267" y="437.422" fill-rule="evenodd" clip-rule="evenodd" width="1.05" height="1.76"/>
						<rect x="420.267" y="434.265" fill-rule="evenodd" clip-rule="evenodd" width="1.05" height="1.76"/>
						<rect x="420.267" y="431.118" fill-rule="evenodd" clip-rule="evenodd" width="1.05" height="1.761"/>
					</g>
				</g>
			</g>
		</g>
	</g>
	<g id="pion_6_">
		<g>
			<g>
				<g>
					<g>
						<g>
							<rect x="553.705" y="292.391" fill="none" width="9.482" height="10.499"/>
						</g>
						<rect x="554.405" y="296.961" fill-rule="evenodd" clip-rule="evenodd" width="1.761" height="1.05"/>
						<rect x="557.563" y="296.961" fill-rule="evenodd" clip-rule="evenodd" width="1.76" height="1.05"/>
						<rect x="560.709" y="296.961" fill-rule="evenodd" clip-rule="evenodd" width="1.76" height="1.05"/>
					</g>
				</g>
				<g>
					<g>
						<g>
							<rect x="544.222" y="292.391" fill="none" width="9.483" height="10.499"/>
						</g>
						<rect x="544.922" y="296.961" fill-rule="evenodd" clip-rule="evenodd" width="1.761" height="1.05"/>
						<rect x="548.079" y="296.961" fill-rule="evenodd" clip-rule="evenodd" width="1.761" height="1.05"/>
						<rect x="551.227" y="296.961" fill-rule="evenodd" clip-rule="evenodd" width="1.76" height="1.05"/>
					</g>
				</g>
				<g>
					<g>
						<g>
							<rect x="534.739" y="292.391" fill="none" width="9.482" height="10.499"/>
						</g>
						<rect x="535.439" y="296.961" fill-rule="evenodd" clip-rule="evenodd" width="1.76" height="1.05"/>
						<rect x="538.597" y="296.961" fill-rule="evenodd" clip-rule="evenodd" width="1.76" height="1.05"/>
						<rect x="541.743" y="296.961" fill-rule="evenodd" clip-rule="evenodd" width="1.761" height="1.05"/>
					</g>
				</g>
				<g>
					<g>
						<g>
							<rect x="525.256" y="292.391" fill="none" width="9.483" height="10.499"/>
						</g>
						<rect x="525.957" y="296.961" fill-rule="evenodd" clip-rule="evenodd" width="1.76" height="1.05"/>
						<rect x="529.113" y="296.961" fill-rule="evenodd" clip-rule="evenodd" width="1.761" height="1.05"/>
						<rect x="532.26" y="296.961" fill-rule="evenodd" clip-rule="evenodd" width="1.761" height="1.05"/>
					</g>
				</g>
				<g>
					<g>
						<g>
							<rect x="515.773" y="292.391" fill="none" width="9.482" height="10.499"/>
						</g>
						<rect x="516.474" y="296.961" fill-rule="evenodd" clip-rule="evenodd" width="1.761" height="1.05"/>
						<rect x="519.631" y="296.961" fill-rule="evenodd" clip-rule="evenodd" width="1.76" height="1.05"/>
						<rect x="522.777" y="296.961" fill-rule="evenodd" clip-rule="evenodd" width="1.76" height="1.05"/>
					</g>
				</g>
				<g>
					<g>
						<g>
							<rect x="506.291" y="292.391" fill="none" width="9.482" height="10.499"/>
						</g>
						<rect x="506.991" y="296.961" fill-rule="evenodd" clip-rule="evenodd" width="1.76" height="1.05"/>
						<rect x="510.148" y="296.961" fill-rule="evenodd" clip-rule="evenodd" width="1.76" height="1.05"/>
						<rect x="513.295" y="296.961" fill-rule="evenodd" clip-rule="evenodd" width="1.76" height="1.05"/>
					</g>
				</g>
				<g>
					<g>
						<g>
							<rect x="496.808" y="292.391" fill="none" width="9.483" height="10.499"/>
						</g>
						<rect x="497.508" y="296.961" fill-rule="evenodd" clip-rule="evenodd" width="1.761" height="1.05"/>
						<rect x="500.665" y="296.961" fill-rule="evenodd" clip-rule="evenodd" width="1.761" height="1.05"/>
						<rect x="503.812" y="296.961" fill-rule="evenodd" clip-rule="evenodd" width="1.761" height="1.05"/>
					</g>
				</g>
				<g>
					<g>
						<g>
							<rect x="487.324" y="292.391" fill="none" width="9.483" height="10.499"/>
						</g>
						<rect x="488.025" y="296.961" fill-rule="evenodd" clip-rule="evenodd" width="1.76" height="1.05"/>
						<rect x="491.183" y="296.961" fill-rule="evenodd" clip-rule="evenodd" width="1.76" height="1.05"/>
						<rect x="494.329" y="296.961" fill-rule="evenodd" clip-rule="evenodd" width="1.76" height="1.05"/>
					</g>
				</g>
				<g>
					<g>
						<g>
							<rect x="477.842" y="292.391" fill="none" width="9.482" height="10.499"/>
						</g>
						<rect x="478.543" y="296.961" fill-rule="evenodd" clip-rule="evenodd" width="1.76" height="1.05"/>
						<rect x="481.699" y="296.961" fill-rule="evenodd" clip-rule="evenodd" width="1.761" height="1.05"/>
						<rect x="484.846" y="296.961" fill-rule="evenodd" clip-rule="evenodd" width="1.761" height="1.05"/>
					</g>
				</g>
				<g>
					<g>
						<g>
							<rect x="468.359" y="292.391" fill="none" width="9.482" height="10.499"/>
						</g>
						<rect x="469.06" y="296.961" fill-rule="evenodd" clip-rule="evenodd" width="1.761" height="1.05"/>
						<rect x="472.217" y="296.961" fill-rule="evenodd" clip-rule="evenodd" width="1.76" height="1.05"/>
						<rect x="475.363" y="296.961" fill-rule="evenodd" clip-rule="evenodd" width="1.76" height="1.05"/>
					</g>
				</g>
				<g>
					<g>
						<g>
							<rect x="458.876" y="292.391" fill="none" width="9.483" height="10.499"/>
						</g>
						<rect x="459.577" y="296.961" fill-rule="evenodd" clip-rule="evenodd" width="1.76" height="1.05"/>
						<rect x="462.734" y="296.961" fill-rule="evenodd" clip-rule="evenodd" width="1.76" height="1.05"/>
						<rect x="465.881" y="296.961" fill-rule="evenodd" clip-rule="evenodd" width="1.76" height="1.05"/>
					</g>
				</g>
				<g>
					<g>
						<g>
							<rect x="449.394" y="292.391" fill="none" width="9.482" height="10.499"/>
						</g>
						<rect x="450.094" y="296.961" fill-rule="evenodd" clip-rule="evenodd" width="1.761" height="1.05"/>
						<rect x="453.251" y="296.961" fill-rule="evenodd" clip-rule="evenodd" width="1.76" height="1.05"/>
						<rect x="456.397" y="296.961" fill-rule="evenodd" clip-rule="evenodd" width="1.761" height="1.05"/>
					</g>
				</g>
				<g>
					<g>
						<g>
							<rect x="439.91" y="292.391" fill="none" width="9.483" height="10.499"/>
						</g>
						<rect x="440.611" y="296.961" fill-rule="evenodd" clip-rule="evenodd" width="1.76" height="1.05"/>
						<rect x="443.768" y="296.961" fill-rule="evenodd" clip-rule="evenodd" width="1.761" height="1.05"/>
						<rect x="446.915" y="296.961" fill-rule="evenodd" clip-rule="evenodd" width="1.76" height="1.05"/>
					</g>
				</g>
				<g>
					<g>
						<g>
							<rect x="430.428" y="292.391" fill="none" width="9.482" height="10.499"/>
						</g>
						<rect x="431.128" y="296.961" fill-rule="evenodd" clip-rule="evenodd" width="1.761" height="1.05"/>
						<rect x="434.285" y="296.961" fill-rule="evenodd" clip-rule="evenodd" width="1.76" height="1.05"/>
						<rect x="437.432" y="296.961" fill-rule="evenodd" clip-rule="evenodd" width="1.76" height="1.05"/>
					</g>
				</g>
				<g>
					<g>
						<g>
							<rect x="420.945" y="292.391" fill="none" width="9.482" height="10.499"/>
						</g>
						<rect x="421.646" y="296.961" fill-rule="evenodd" clip-rule="evenodd" width="1.76" height="1.05"/>
						<rect x="424.803" y="296.961" fill-rule="evenodd" clip-rule="evenodd" width="1.76" height="1.05"/>
						<rect x="427.949" y="296.961" fill-rule="evenodd" clip-rule="evenodd" width="1.76" height="1.05"/>
					</g>
				</g>
				<g>
					<g>
						<g>
							<rect x="411.462" y="292.391" fill="none" width="9.483" height="10.499"/>
						</g>
						<rect x="412.162" y="296.961" fill-rule="evenodd" clip-rule="evenodd" width="1.761" height="1.05"/>
						<rect x="415.319" y="296.961" fill-rule="evenodd" clip-rule="evenodd" width="1.761" height="1.05"/>
						<rect x="418.466" y="296.961" fill-rule="evenodd" clip-rule="evenodd" width="1.761" height="1.05"/>
					</g>
				</g>
				<g>
					<g>
						<g>
							<rect x="401.979" y="292.391" fill="none" width="9.482" height="10.499"/>
						</g>
						<rect x="402.68" y="296.961" fill-rule="evenodd" clip-rule="evenodd" width="1.76" height="1.05"/>
						<rect x="405.837" y="296.961" fill-rule="evenodd" clip-rule="evenodd" width="1.76" height="1.05"/>
						<rect x="408.983" y="296.961" fill-rule="evenodd" clip-rule="evenodd" width="1.76" height="1.05"/>
					</g>
				</g>
				<g>
					<g>
						<g>
							<rect x="392.496" y="292.391" fill="none" width="9.483" height="10.499"/>
						</g>
						<rect x="393.197" y="296.961" fill-rule="evenodd" clip-rule="evenodd" width="1.76" height="1.05"/>
						<rect x="396.354" y="296.961" fill-rule="evenodd" clip-rule="evenodd" width="1.761" height="1.05"/>
						<rect x="399.5" y="296.961" fill-rule="evenodd" clip-rule="evenodd" width="1.761" height="1.05"/>
					</g>
				</g>
				<g>
					<g>
						<g>
							<rect x="383.014" y="292.391" fill="none" width="9.482" height="10.499"/>
						</g>
						<rect x="383.714" y="296.961" fill-rule="evenodd" clip-rule="evenodd" width="1.761" height="1.05"/>
						<rect x="386.871" y="296.961" fill-rule="evenodd" clip-rule="evenodd" width="1.76" height="1.05"/>
						<rect x="390.018" y="296.961" fill-rule="evenodd" clip-rule="evenodd" width="1.76" height="1.05"/>
					</g>
				</g>
				<g>
					<g>
						<g>
							<rect x="373.53" y="292.391" fill="none" width="9.483" height="10.499"/>
						</g>
						<rect x="374.231" y="296.961" fill-rule="evenodd" clip-rule="evenodd" width="1.76" height="1.05"/>
						<rect x="377.389" y="296.961" fill-rule="evenodd" clip-rule="evenodd" width="1.76" height="1.05"/>
						<rect x="380.535" y="296.961" fill-rule="evenodd" clip-rule="evenodd" width="1.76" height="1.05"/>
					</g>
				</g>
				<g>
					<g>
						<g>
							<rect x="364.048" y="292.391" fill="none" width="9.482" height="10.499"/>
						</g>
						<rect x="364.748" y="296.961" fill-rule="evenodd" clip-rule="evenodd" width="1.761" height="1.05"/>
						<rect x="367.905" y="296.961" fill-rule="evenodd" clip-rule="evenodd" width="1.761" height="1.05"/>
						<rect x="371.052" y="296.961" fill-rule="evenodd" clip-rule="evenodd" width="1.761" height="1.05"/>
					</g>
				</g>
				<g>
					<g>
						<g>
							<rect x="354.564" y="292.391" fill="none" width="9.483" height="10.499"/>
						</g>
						<rect x="355.266" y="296.961" fill-rule="evenodd" clip-rule="evenodd" width="1.76" height="1.05"/>
						<rect x="358.422" y="296.961" fill-rule="evenodd" clip-rule="evenodd" width="1.761" height="1.05"/>
						<rect x="361.569" y="296.961" fill-rule="evenodd" clip-rule="evenodd" width="1.76" height="1.05"/>
					</g>
				</g>
				<g>
					<g>
						<g>
							<rect x="345.082" y="292.391" fill="none" width="9.482" height="10.499"/>
						</g>
						<rect x="345.783" y="296.961" fill-rule="evenodd" clip-rule="evenodd" width="1.76" height="1.05"/>
						<rect x="348.939" y="296.961" fill-rule="evenodd" clip-rule="evenodd" width="1.76" height="1.05"/>
						<rect x="352.086" y="296.961" fill-rule="evenodd" clip-rule="evenodd" width="1.761" height="1.05"/>
					</g>
				</g>
				<g>
					<g>
						<g>
							<rect x="335.6" y="292.391" fill="none" width="9.482" height="10.499"/>
						</g>
						<rect x="336.3" y="296.961" fill-rule="evenodd" clip-rule="evenodd" width="1.761" height="1.05"/>
						<rect x="339.457" y="296.961" fill-rule="evenodd" clip-rule="evenodd" width="1.76" height="1.05"/>
						<rect x="342.604" y="296.961" fill-rule="evenodd" clip-rule="evenodd" width="1.76" height="1.05"/>
					</g>
				</g>
				<g>
					<g>
						<g>
							<rect x="326.116" y="292.391" fill="none" width="9.483" height="10.499"/>
						</g>
						<rect x="326.816" y="296.961" fill-rule="evenodd" clip-rule="evenodd" width="1.761" height="1.05"/>
						<rect x="329.974" y="296.961" fill-rule="evenodd" clip-rule="evenodd" width="1.761" height="1.05"/>
						<rect x="333.121" y="296.961" fill-rule="evenodd" clip-rule="evenodd" width="1.76" height="1.05"/>
					</g>
				</g>
				<g>
					<g>
						<g>
							<rect x="316.634" y="292.391" fill="none" width="9.482" height="10.499"/>
						</g>
						<rect x="317.334" y="296.961" fill-rule="evenodd" clip-rule="evenodd" width="1.761" height="1.05"/>
						<rect x="320.491" y="296.961" fill-rule="evenodd" clip-rule="evenodd" width="1.76" height="1.05"/>
						<rect x="323.638" y="296.961" fill-rule="evenodd" clip-rule="evenodd" width="1.761" height="1.05"/>
					</g>
				</g>
				<g>
					<g>
						<g>
							<rect x="307.15" y="292.391" fill="none" width="9.483" height="10.499"/>
						</g>
						<rect x="307.852" y="296.961" fill-rule="evenodd" clip-rule="evenodd" width="1.76" height="1.05"/>
						<rect x="311.008" y="296.961" fill-rule="evenodd" clip-rule="evenodd" width="1.761" height="1.05"/>
						<rect x="314.155" y="296.961" fill-rule="evenodd" clip-rule="evenodd" width="1.76" height="1.05"/>
					</g>
				</g>
				<g>
					<g>
						<g>
							<rect x="297.668" y="292.391" fill="none" width="9.482" height="10.499"/>
						</g>
						<rect x="298.368" y="296.961" fill-rule="evenodd" clip-rule="evenodd" width="1.761" height="1.05"/>
						<rect x="301.525" y="296.961" fill-rule="evenodd" clip-rule="evenodd" width="1.76" height="1.05"/>
						<rect x="304.672" y="296.961" fill-rule="evenodd" clip-rule="evenodd" width="1.76" height="1.05"/>
					</g>
				</g>
				<g>
					<g>
						<g>
							<rect x="288.185" y="292.391" fill="none" width="9.483" height="10.499"/>
						</g>
						<rect x="288.886" y="296.961" fill-rule="evenodd" clip-rule="evenodd" width="1.76" height="1.05"/>
						<rect x="292.043" y="296.961" fill-rule="evenodd" clip-rule="evenodd" width="1.76" height="1.05"/>
						<rect x="295.189" y="296.961" fill-rule="evenodd" clip-rule="evenodd" width="1.76" height="1.05"/>
					</g>
				</g>
				<g>
					<g>
						<g>
							<rect x="278.702" y="292.391" fill="none" width="9.482" height="10.499"/>
						</g>
						<rect x="279.402" y="296.961" fill-rule="evenodd" clip-rule="evenodd" width="1.761" height="1.05"/>
						<rect x="282.56" y="296.961" fill-rule="evenodd" clip-rule="evenodd" width="1.761" height="1.05"/>
						<rect x="285.706" y="296.961" fill-rule="evenodd" clip-rule="evenodd" width="1.761" height="1.05"/>
					</g>
				</g>
			</g>
		</g>
	</g>
</g>
<g id="Layer_6">
</g>
<g id="Layer_7">
</g>
<g id="Layer_8">
</g>
<g id="Layer_9">
</g>
<g id="Layer_10">
</g>
<g id="Layer_11">
</g>
<g id="Layer_12">
</g>
<g id="Layer_13">
</g>
<g id="Layer_14">
</g>
<g id="Layer_15">
</g>
<g id="Layer_16">
</g>
<g id="Layer_17">
</g>
<g id="Layer_18">
</g>
<g id="Layer_19">
</g>
<g id="Layer_20">
</g>
<g id="Layer_21">
</g>
<g id="Layer_22">
</g>
<g id="Layer_24">
</g>
<g id="Layer_25">
</g>
<g id="Layer_26">
</g>
<g id="Layer_27">
</g>
<g id="Layer_28">
</g>
<g id="Layer_29">
</g>
<g id="Layer_30">
</g>
<g id="Layer_31">
</g>
<g id="Layer_32">
</g>
<g id="Layer_33">
</g>
<g id="Layer_34">
</g>
<g id="Layer_35">
</g>
<g id="Layer_36">
</g>
<g id="Layer_37">
</g>
<g id="Layer_38">
</g>
<g id="Layer_39">
</g>
<g id="Layer_40">
</g>
<g id="Layer_41">
</g>
<g id="Layer_43">
</g>
</svg>
