<?xml version="1.0" encoding="utf-8"?>
<!-- Generator: Adobe Illustrator 16.0.0, SVG Export Plug-In . SVG Version: 6.00 Build 0)  -->
<!DOCTYPE svg PUBLIC "-//W3C//DTD SVG 1.1//EN" "http://www.w3.org/Graphics/SVG/1.1/DTD/svg11.dtd">
<svg version="1.1" xmlns="http://www.w3.org/2000/svg" xmlns:xlink="http://www.w3.org/1999/xlink" x="0px" y="0px"
	 width="841.89px" height="595.28px" viewBox="0 0 841.89 595.28" enable-background="new 0 0 841.89 595.28" xml:space="preserve">
<g id="Layer_1">
</g>
<g id="Layer_2">
</g>
<g id="Layer_3">
</g>
<g id="Layer_4">
</g>
<g id="Layer_5">
</g>
<g id="Layer_6">
</g>
<g id="Layer_7">
</g>
<g id="Layer_8">
</g>
<g id="Layer_9">
</g>
<g id="Layer_10">
</g>
<g id="Layer_11">
</g>
<g id="Layer_12">
	<g>
		<polyline display="none" fill="none" stroke="#000000" stroke-miterlimit="10" points="431.557,359.477 422.805,492.612 
			520.931,396.865 420.656,497.086 320.435,396.865 418.723,492.611 320.076,393.858 420.765,491.486 		"/>
		<polyline id="pion_30_" fill="none" stroke="#000000" stroke-miterlimit="10" points="521.304,397.108 420.4,296.732 
			320.076,397.226 		"/>
		<line display="none" fill="none" stroke="#000000" stroke-miterlimit="10" x1="320.591" y1="393.861" x2="420.296" y2="296.649"/>
		<g id="gora" display="none">
			<polygon display="inline" fill="#FFFFFF" stroke="#000000" stroke-width="0.7" stroke-miterlimit="10" points="489.672,359.477 
				420.654,491.861 320.435,395.069 420.296,296.649 			"/>
			<g display="inline">
				<g>
					<g>
						<g>
							<g>
								<g>
									
										<rect x="415.996" y="481.496" transform="matrix(0.0018 1 -1 0.0018 906.6235 65.2425)" fill="none" width="9.273" height="10.499"/>
								</g>
								<rect x="420.255" y="482.794" fill-rule="evenodd" clip-rule="evenodd" width="1.05" height="1.721"/>
								<rect x="420.261" y="485.881" fill-rule="evenodd" clip-rule="evenodd" width="1.05" height="1.721"/>
								<rect x="420.266" y="488.958" fill-rule="evenodd" clip-rule="evenodd" width="1.05" height="1.721"/>
							</g>
						</g>
						<g>
							<g>
								<g>
									
										<rect x="415.979" y="472.223" transform="matrix(0.0017 1 -1 0.0017 897.3563 56.0279)" fill="none" width="9.273" height="10.499"/>
								</g>
								<rect x="420.239" y="473.521" fill-rule="evenodd" clip-rule="evenodd" width="1.05" height="1.721"/>
								<rect x="420.244" y="476.608" fill-rule="evenodd" clip-rule="evenodd" width="1.05" height="1.721"/>
								<rect x="420.25" y="479.684" fill-rule="evenodd" clip-rule="evenodd" width="1.05" height="1.722"/>
							</g>
						</g>
						<g>
							<g>
								<g>
									
										<rect x="415.963" y="462.95" transform="matrix(0.0018 1 -1 0.0018 888.045 46.7625)" fill="none" width="9.273" height="10.499"/>
								</g>
								<rect x="420.223" y="464.248" fill-rule="evenodd" clip-rule="evenodd" width="1.05" height="1.721"/>
								<rect x="420.228" y="467.335" fill-rule="evenodd" clip-rule="evenodd" width="1.05" height="1.721"/>
								<rect x="420.233" y="470.412" fill-rule="evenodd" clip-rule="evenodd" width="1.05" height="1.721"/>
							</g>
						</g>
						<g>
							<g>
								<g>
									
										<rect x="415.946" y="453.677" transform="matrix(0.0017 1 -1 0.0017 878.7778 37.5469)" fill="none" width="9.273" height="10.499"/>
								</g>
								<rect x="420.206" y="454.974" fill-rule="evenodd" clip-rule="evenodd" width="1.05" height="1.722"/>
								<rect x="420.211" y="458.062" fill-rule="evenodd" clip-rule="evenodd" width="1.05" height="1.721"/>
								<rect x="420.217" y="461.138" fill-rule="evenodd" clip-rule="evenodd" width="1.05" height="1.722"/>
							</g>
						</g>
						<g>
							<g>
								<g>
									
										<rect x="415.93" y="444.404" transform="matrix(0.0018 1 -1 0.0018 869.4663 28.2828)" fill="none" width="9.273" height="10.499"/>
								</g>
								<rect x="420.19" y="445.702" fill-rule="evenodd" clip-rule="evenodd" width="1.05" height="1.721"/>
								<rect x="420.195" y="448.789" fill-rule="evenodd" clip-rule="evenodd" width="1.05" height="1.721"/>
								<rect x="420.201" y="451.866" fill-rule="evenodd" clip-rule="evenodd" width="1.05" height="1.721"/>
							</g>
						</g>
						<g>
							<g>
								<g>
									
										<rect x="415.914" y="435.131" transform="matrix(0.0017 1 -1 0.0017 860.1992 19.066)" fill="none" width="9.273" height="10.499"/>
								</g>
								<rect x="420.173" y="436.429" fill-rule="evenodd" clip-rule="evenodd" width="1.05" height="1.721"/>
								<rect x="420.178" y="439.516" fill-rule="evenodd" clip-rule="evenodd" width="1.05" height="1.721"/>
								<rect x="420.184" y="442.593" fill-rule="evenodd" clip-rule="evenodd" width="1.05" height="1.721"/>
							</g>
						</g>
						<g>
							<g>
								<g>
									
										<rect x="415.897" y="425.858" transform="matrix(0.0018 1 -1 0.0018 850.8878 9.8028)" fill="none" width="9.273" height="10.499"/>
								</g>
								<rect x="420.157" y="427.156" fill-rule="evenodd" clip-rule="evenodd" width="1.05" height="1.721"/>
								<rect x="420.163" y="430.243" fill-rule="evenodd" clip-rule="evenodd" width="1.05" height="1.721"/>
								<rect x="420.168" y="433.32" fill-rule="evenodd" clip-rule="evenodd" width="1.05" height="1.721"/>
							</g>
						</g>
						<g>
							<g>
								<g>
									
										<rect x="415.881" y="416.585" transform="matrix(0.0017 1 -1 0.0017 841.6207 0.585)" fill="none" width="9.273" height="10.499"/>
								</g>
								<rect x="420.141" y="417.883" fill-rule="evenodd" clip-rule="evenodd" width="1.05" height="1.721"/>
								<rect x="420.146" y="420.97" fill-rule="evenodd" clip-rule="evenodd" width="1.05" height="1.721"/>
								<rect x="420.151" y="424.047" fill-rule="evenodd" clip-rule="evenodd" width="1.05" height="1.721"/>
							</g>
						</g>
						<g>
							<g>
								<g>
									
										<rect x="415.865" y="407.312" transform="matrix(0.0018 1 -1 0.0018 832.3092 -8.6772)" fill="none" width="9.273" height="10.499"/>
								</g>
								<rect x="420.124" y="408.61" fill-rule="evenodd" clip-rule="evenodd" width="1.05" height="1.721"/>
								<rect x="420.13" y="411.697" fill-rule="evenodd" clip-rule="evenodd" width="1.05" height="1.721"/>
								<rect x="420.135" y="414.774" fill-rule="evenodd" clip-rule="evenodd" width="1.05" height="1.721"/>
							</g>
						</g>
						<g>
							<g>
								<g>
									
										<rect x="415.848" y="398.039" transform="matrix(0.0017 1 -1 0.0017 823.042 -17.8961)" fill="none" width="9.273" height="10.499"/>
								</g>
								<rect x="420.108" y="399.337" fill-rule="evenodd" clip-rule="evenodd" width="1.05" height="1.721"/>
								<rect x="420.113" y="402.424" fill-rule="evenodd" clip-rule="evenodd" width="1.05" height="1.722"/>
								<rect x="420.118" y="405.501" fill-rule="evenodd" clip-rule="evenodd" width="1.05" height="1.721"/>
							</g>
						</g>
						<g>
							<g>
								<g>
									
										<rect x="415.832" y="388.766" transform="matrix(0.0018 1 -1 0.0018 813.7305 -27.1574)" fill="none" width="9.272" height="10.499"/>
								</g>
								<rect x="420.091" y="390.064" fill-rule="evenodd" clip-rule="evenodd" width="1.05" height="1.721"/>
								<rect x="420.097" y="393.151" fill-rule="evenodd" clip-rule="evenodd" width="1.05" height="1.721"/>
								<rect x="420.103" y="396.228" fill-rule="evenodd" clip-rule="evenodd" width="1.05" height="1.721"/>
							</g>
						</g>
						<g>
							<g>
								<g>
									
										<rect x="415.815" y="379.493" transform="matrix(0.0017 1 -1 0.0017 804.4634 -36.3771)" fill="none" width="9.273" height="10.499"/>
								</g>
								<rect x="420.075" y="380.791" fill-rule="evenodd" clip-rule="evenodd" width="1.05" height="1.721"/>
								<rect x="420.081" y="383.878" fill-rule="evenodd" clip-rule="evenodd" width="1.05" height="1.721"/>
								<rect x="420.086" y="386.955" fill-rule="evenodd" clip-rule="evenodd" width="1.05" height="1.721"/>
							</g>
						</g>
						<g>
							<g>
								<g>
									
										<rect x="415.799" y="370.22" transform="matrix(0.0018 1 -1 0.0018 795.1517 -45.6376)" fill="none" width="9.273" height="10.499"/>
								</g>
								<rect x="420.059" y="371.518" fill-rule="evenodd" clip-rule="evenodd" width="1.05" height="1.721"/>
								<rect x="420.064" y="374.605" fill-rule="evenodd" clip-rule="evenodd" width="1.05" height="1.721"/>
								<rect x="420.07" y="377.682" fill-rule="evenodd" clip-rule="evenodd" width="1.05" height="1.721"/>
							</g>
						</g>
						<g>
							<g>
								<g>
									
										<rect x="415.783" y="360.947" transform="matrix(0.0017 1 -1 0.0017 785.8846 -54.8583)" fill="none" width="9.273" height="10.499"/>
								</g>
								<rect x="420.042" y="362.245" fill-rule="evenodd" clip-rule="evenodd" width="1.05" height="1.721"/>
								<rect x="420.048" y="365.332" fill-rule="evenodd" clip-rule="evenodd" width="1.05" height="1.721"/>
								<rect x="420.053" y="368.409" fill-rule="evenodd" clip-rule="evenodd" width="1.05" height="1.721"/>
							</g>
						</g>
						<g>
							<g>
								<g>
									
										<rect x="415.766" y="351.674" transform="matrix(0.0018 1 -1 0.0018 776.5731 -64.1176)" fill="none" width="9.273" height="10.499"/>
								</g>
								<rect x="420.026" y="352.972" fill-rule="evenodd" clip-rule="evenodd" width="1.05" height="1.721"/>
								<rect x="420.031" y="356.059" fill-rule="evenodd" clip-rule="evenodd" width="1.05" height="1.721"/>
								<rect x="420.037" y="359.136" fill-rule="evenodd" clip-rule="evenodd" width="1.05" height="1.721"/>
							</g>
						</g>
						<g>
							<g>
								<g>
									
										<rect x="415.75" y="342.401" transform="matrix(0.0017 1 -1 0.0017 767.3061 -73.3393)" fill="none" width="9.273" height="10.499"/>
								</g>
								<rect x="420.01" y="343.699" fill-rule="evenodd" clip-rule="evenodd" width="1.05" height="1.721"/>
								<rect x="420.015" y="346.786" fill-rule="evenodd" clip-rule="evenodd" width="1.05" height="1.721"/>
								<rect x="420.021" y="349.863" fill-rule="evenodd" clip-rule="evenodd" width="1.05" height="1.721"/>
							</g>
						</g>
						<g>
							<g>
								<g>
									
										<rect x="415.734" y="333.128" transform="matrix(0.0018 1 -1 0.0018 757.9946 -82.5976)" fill="none" width="9.273" height="10.499"/>
								</g>
								<rect x="419.993" y="334.426" fill-rule="evenodd" clip-rule="evenodd" width="1.05" height="1.721"/>
								<rect x="419.999" y="337.513" fill-rule="evenodd" clip-rule="evenodd" width="1.05" height="1.721"/>
								<rect x="420.004" y="340.59" fill-rule="evenodd" clip-rule="evenodd" width="1.05" height="1.721"/>
							</g>
						</g>
						<g>
							<g>
								<g>
									
										<rect x="415.717" y="323.855" transform="matrix(0.0018 1 -1 0.0018 748.7054 -91.8376)" fill="none" width="9.273" height="10.499"/>
								</g>
								<rect x="419.977" y="325.153" fill-rule="evenodd" clip-rule="evenodd" width="1.05" height="1.721"/>
								<rect x="419.982" y="328.24" fill-rule="evenodd" clip-rule="evenodd" width="1.05" height="1.721"/>
								<rect x="419.988" y="331.317" fill-rule="evenodd" clip-rule="evenodd" width="1.05" height="1.721"/>
							</g>
						</g>
						<g>
							<g>
								<g>
									
										<rect x="415.701" y="314.582" transform="matrix(0.0017 1 -1 0.0017 739.438 -101.0605)" fill="none" width="9.273" height="10.499"/>
								</g>
								<rect x="419.96" y="315.88" fill-rule="evenodd" clip-rule="evenodd" width="1.05" height="1.721"/>
								<rect x="419.966" y="318.967" fill-rule="evenodd" clip-rule="evenodd" width="1.05" height="1.721"/>
								<rect x="419.971" y="322.044" fill-rule="evenodd" clip-rule="evenodd" width="1.05" height="1.721"/>
							</g>
						</g>
						<g>
							<g>
								<g>
									
										<rect x="415.685" y="305.31" transform="matrix(0.0018 1 -1 0.0018 730.1268 -110.3175)" fill="none" width="9.273" height="10.499"/>
								</g>
								<rect x="419.944" y="306.607" fill-rule="evenodd" clip-rule="evenodd" width="1.05" height="1.721"/>
								<rect x="419.95" y="309.694" fill-rule="evenodd" clip-rule="evenodd" width="1.05" height="1.721"/>
								<rect x="419.955" y="312.771" fill-rule="evenodd" clip-rule="evenodd" width="1.05" height="1.721"/>
							</g>
						</g>
						<g>
							<g>
								<g>
									
										<rect x="415.668" y="296.036" transform="matrix(0.0017 1 -1 0.0017 720.8595 -119.5414)" fill="none" width="9.273" height="10.499"/>
								</g>
								<rect x="419.927" y="297.334" fill-rule="evenodd" clip-rule="evenodd" width="1.05" height="1.721"/>
								<rect x="419.933" y="300.421" fill-rule="evenodd" clip-rule="evenodd" width="1.05" height="1.721"/>
								<rect x="419.938" y="303.499" fill-rule="evenodd" clip-rule="evenodd" width="1.05" height="1.721"/>
							</g>
						</g>
					</g>
				</g>
			</g>
		</g>
	</g>
	<path fill="none" stroke="#000000" stroke-miterlimit="10" d="M420.296,297.006"/>
	<polyline fill="none" stroke="#000000" stroke-miterlimit="10" points="520.516,397.226 420.296,497.445 320.077,397.226 	"/>
	<g>
		<g>
			<g>
				<g>
					<g>
						<g>
							
								<rect x="416.203" y="349.739" transform="matrix(0.0068 1 -1 0.0068 772.8107 -68.1064)" fill="none" width="8.975" height="10.499"/>
						</g>
						
							<rect x="420.299" y="351.163" transform="matrix(-1 0.007 -0.007 -1 844.0928 701.0496)" fill-rule="evenodd" clip-rule="evenodd" width="1.05" height="1.666"/>
						
							<rect x="420.32" y="354.152" transform="matrix(-1 0.007 -0.007 -1 844.1553 707.0241)" fill-rule="evenodd" clip-rule="evenodd" width="1.05" height="1.666"/>
						
							<rect x="420.34" y="357.129" transform="matrix(-1 0.0065 -0.0065 -1 844.051 713.1768)" fill-rule="evenodd" clip-rule="evenodd" width="1.05" height="1.666"/>
					</g>
				</g>
				<g>
					<g>
						<g>
							
								<rect x="416.142" y="340.764" transform="matrix(0.0067 1 -1 0.0067 763.7985 -76.9409)" fill="none" width="8.976" height="10.499"/>
						</g>
						
							<rect x="420.239" y="342.188" transform="matrix(-1 0.0065 -0.0065 -1 843.7515 683.2949)" fill-rule="evenodd" clip-rule="evenodd" width="1.05" height="1.666"/>
						
							<rect x="420.259" y="345.176" transform="matrix(-1 0.007 -0.007 -1 843.9716 689.0741)" fill-rule="evenodd" clip-rule="evenodd" width="1.05" height="1.666"/>
						
							<rect x="420.279" y="348.155" transform="matrix(-1 0.007 -0.007 -1 844.0323 695.0304)" fill-rule="evenodd" clip-rule="evenodd" width="1.05" height="1.666"/>
					</g>
				</g>
				<g>
					<g>
						<g>
							
								<rect x="416.082" y="331.788" transform="matrix(0.0067 1 -1 0.0067 754.7626 -85.7953)" fill="none" width="8.975" height="10.499"/>
						</g>
						
							<rect x="420.178" y="333.213" transform="matrix(-1 0.007 -0.007 -1 843.726 665.1482)" fill-rule="evenodd" clip-rule="evenodd" width="1.05" height="1.666"/>
						
							<rect x="420.198" y="336.201" transform="matrix(-1 0.0065 -0.0065 -1 843.6305 671.322)" fill-rule="evenodd" clip-rule="evenodd" width="1.05" height="1.666"/>
						
							<rect x="420.218" y="339.179" transform="matrix(-1 0.007 -0.007 -1 843.8472 677.0817)" fill-rule="evenodd" clip-rule="evenodd" width="1.05" height="1.666"/>
					</g>
				</g>
				<g>
					<g>
						<g>
							
								<rect x="416.021" y="322.813" transform="matrix(0.0067 1 -1 0.0067 745.7275 -94.6493)" fill="none" width="8.975" height="10.499"/>
						</g>
						
							<rect x="420.117" y="324.237" transform="matrix(-1 0.0065 -0.0065 -1 843.3925 647.3947)" fill-rule="evenodd" clip-rule="evenodd" width="1.05" height="1.666"/>
						
							<rect x="420.137" y="327.225" transform="matrix(-1 0.007 -0.007 -1 843.6031 653.174)" fill-rule="evenodd" clip-rule="evenodd" width="1.05" height="1.666"/>
						
							<rect x="420.157" y="330.204" transform="matrix(-1 0.0065 -0.0065 -1 843.5109 659.3282)" fill-rule="evenodd" clip-rule="evenodd" width="1.05" height="1.666"/>
					</g>
				</g>
				<g>
					<g>
						<g>
							
								<rect x="415.96" y="313.839" transform="matrix(0.0068 1 -1 0.0068 736.6697 -103.5204)" fill="none" width="8.976" height="10.499"/>
						</g>
						
							<rect x="420.056" y="315.262" transform="matrix(-1 0.007 -0.007 -1 843.3571 629.2499)" fill-rule="evenodd" clip-rule="evenodd" width="1.05" height="1.666"/>
						
							<rect x="420.077" y="318.25" transform="matrix(-1 0.0065 -0.0065 -1 843.2725 635.4205)" fill-rule="evenodd" clip-rule="evenodd" width="1.05" height="1.666"/>
						
							<rect x="420.097" y="321.228" transform="matrix(-1 0.007 -0.007 -1 843.4803 641.1803)" fill-rule="evenodd" clip-rule="evenodd" width="1.05" height="1.666"/>
					</g>
				</g>
				<g>
					<g>
						<g>
							
								<rect x="415.9" y="304.863" transform="matrix(0.0067 1 -1 0.0067 727.6568 -112.3576)" fill="none" width="8.975" height="10.499"/>
						</g>
						
							<rect x="419.996" y="306.287" transform="matrix(-1 0.0065 -0.0065 -1 843.0324 611.4945)" fill-rule="evenodd" clip-rule="evenodd" width="1.05" height="1.666"/>
						
							<rect x="420.016" y="309.275" transform="matrix(-1 0.007 -0.007 -1 843.2343 617.2757)" fill-rule="evenodd" clip-rule="evenodd" width="1.05" height="1.666"/>
						
							<rect x="420.036" y="312.253" transform="matrix(-1 0.0065 -0.0065 -1 843.1523 623.4268)" fill-rule="evenodd" clip-rule="evenodd" width="1.05" height="1.666"/>
					</g>
				</g>
				<g>
					<g>
						<g>
							
								<rect x="415.839" y="295.888" transform="matrix(0.0067 1 -1 0.0067 718.6216 -121.2112)" fill="none" width="8.976" height="10.499"/>
						</g>
						
							<rect x="419.935" y="297.312" transform="matrix(-1 0.007 -0.007 -1 842.9902 593.3485)" fill-rule="evenodd" clip-rule="evenodd" width="1.05" height="1.666"/>
						
							<rect x="419.955" y="300.299" transform="matrix(-1 0.0065 -0.0065 -1 842.9124 599.5203)" fill-rule="evenodd" clip-rule="evenodd" width="1.05" height="1.666"/>
						
							<rect x="419.975" y="303.278" transform="matrix(-1 0.007 -0.007 -1 843.1115 605.2815)" fill-rule="evenodd" clip-rule="evenodd" width="1.05" height="1.666"/>
					</g>
				</g>
			</g>
		</g>
	</g>
	<line fill="none" stroke="#000000" stroke-miterlimit="10" x1="420.296" y1="497.445" x2="420.721" y2="359.477"/>
	<line fill="none" stroke="#000000" stroke-miterlimit="10" x1="482.767" y1="359.477" x2="420.232" y2="359.477"/>
	<path fill="none" stroke="#000000" stroke-miterlimit="10" d="M420.296,296.649"/>
	<line fill="none" stroke="#000000" stroke-miterlimit="10" x1="482.767" y1="359.477" x2="420.296" y2="497.445"/>
</g>
<g id="Layer_13">
</g>
<g id="Layer_14">
</g>
<g id="Layer_15">
</g>
<g id="Layer_16">
</g>
<g id="Layer_17">
</g>
<g id="Layer_18">
</g>
<g id="Layer_19">
</g>
<g id="Layer_20">
</g>
<g id="Layer_21">
</g>
<g id="Layer_22">
</g>
<g id="Layer_24">
</g>
<g id="Layer_25">
</g>
<g id="Layer_26">
</g>
<g id="Layer_27">
</g>
<g id="Layer_28">
</g>
<g id="Layer_29">
</g>
<g id="Layer_30">
</g>
<g id="Layer_31">
</g>
<g id="Layer_32">
</g>
<g id="Layer_33">
</g>
<g id="Layer_34">
</g>
<g id="Layer_35">
</g>
<g id="Layer_36">
</g>
<g id="Layer_37">
</g>
<g id="Layer_38">
</g>
<g id="Layer_39">
</g>
<g id="Layer_40">
</g>
<g id="Layer_41">
</g>
<g id="Layer_43">
</g>
</svg>
