<?xml version="1.0" encoding="utf-8"?>
<!-- Generator: Adobe Illustrator 16.0.0, SVG Export Plug-In . SVG Version: 6.00 Build 0)  -->
<!DOCTYPE svg PUBLIC "-//W3C//DTD SVG 1.1//EN" "http://www.w3.org/Graphics/SVG/1.1/DTD/svg11.dtd">
<svg version="1.1" xmlns="http://www.w3.org/2000/svg" xmlns:xlink="http://www.w3.org/1999/xlink" x="0px" y="0px"
	 width="841.89px" height="595.28px" viewBox="0 0 841.89 595.28" enable-background="new 0 0 841.89 595.28" xml:space="preserve">
<g id="Layer_1">
</g>
<g id="Layer_2">
</g>
<g id="Layer_3">
	<polygon fill="none" stroke="#000000" stroke-miterlimit="10" points="562.677,439.373 420.944,439.373 279.213,439.373 
		279.213,297.64 279.213,155.907 420.944,155.907 562.677,155.907 562.677,297.64 	"/>
	<g id="pion_1_">
		<g>
			<g>
				<g>
					<g>
						<g>
							<rect x="415.696" y="155.397" fill="none" width="10.499" height="9.483"/>
						</g>
						<rect x="420.267" y="162.419" fill-rule="evenodd" clip-rule="evenodd" width="1.05" height="1.76"/>
						<rect x="420.267" y="159.263" fill-rule="evenodd" clip-rule="evenodd" width="1.05" height="1.76"/>
						<rect x="420.267" y="156.116" fill-rule="evenodd" clip-rule="evenodd" width="1.05" height="1.76"/>
					</g>
				</g>
				<g>
					<g>
						<g>
							<rect x="415.696" y="164.88" fill="none" width="10.499" height="9.483"/>
						</g>
						<rect x="420.267" y="171.902" fill-rule="evenodd" clip-rule="evenodd" width="1.05" height="1.76"/>
						<rect x="420.267" y="168.745" fill-rule="evenodd" clip-rule="evenodd" width="1.05" height="1.761"/>
						<rect x="420.267" y="165.599" fill-rule="evenodd" clip-rule="evenodd" width="1.05" height="1.76"/>
					</g>
				</g>
				<g>
					<g>
						<g>
							<rect x="415.696" y="174.363" fill="none" width="10.499" height="9.482"/>
						</g>
						<rect x="420.267" y="181.385" fill-rule="evenodd" clip-rule="evenodd" width="1.05" height="1.76"/>
						<rect x="420.267" y="178.229" fill-rule="evenodd" clip-rule="evenodd" width="1.05" height="1.76"/>
						<rect x="420.267" y="175.082" fill-rule="evenodd" clip-rule="evenodd" width="1.05" height="1.76"/>
					</g>
				</g>
				<g>
					<g>
						<g>
							<rect x="415.696" y="183.846" fill="none" width="10.499" height="9.483"/>
						</g>
						<rect x="420.267" y="190.868" fill-rule="evenodd" clip-rule="evenodd" width="1.05" height="1.76"/>
						<rect x="420.267" y="187.711" fill-rule="evenodd" clip-rule="evenodd" width="1.05" height="1.76"/>
						<rect x="420.267" y="184.564" fill-rule="evenodd" clip-rule="evenodd" width="1.05" height="1.76"/>
					</g>
				</g>
				<g>
					<g>
						<g>
							<rect x="415.696" y="193.329" fill="none" width="10.499" height="9.482"/>
						</g>
						<rect x="420.267" y="200.351" fill-rule="evenodd" clip-rule="evenodd" width="1.05" height="1.761"/>
						<rect x="420.267" y="197.194" fill-rule="evenodd" clip-rule="evenodd" width="1.05" height="1.76"/>
						<rect x="420.267" y="194.047" fill-rule="evenodd" clip-rule="evenodd" width="1.05" height="1.76"/>
					</g>
				</g>
				<g>
					<g>
						<g>
							<rect x="415.696" y="202.812" fill="none" width="10.499" height="9.483"/>
						</g>
						<rect x="420.267" y="209.834" fill-rule="evenodd" clip-rule="evenodd" width="1.05" height="1.76"/>
						<rect x="420.267" y="206.677" fill-rule="evenodd" clip-rule="evenodd" width="1.05" height="1.76"/>
						<rect x="420.267" y="203.53" fill-rule="evenodd" clip-rule="evenodd" width="1.05" height="1.76"/>
					</g>
				</g>
				<g>
					<g>
						<g>
							<rect x="415.696" y="212.294" fill="none" width="10.499" height="9.483"/>
						</g>
						<rect x="420.267" y="219.316" fill-rule="evenodd" clip-rule="evenodd" width="1.05" height="1.76"/>
						<rect x="420.267" y="216.16" fill-rule="evenodd" clip-rule="evenodd" width="1.05" height="1.76"/>
						<rect x="420.267" y="213.013" fill-rule="evenodd" clip-rule="evenodd" width="1.05" height="1.761"/>
					</g>
				</g>
				<g>
					<g>
						<g>
							<rect x="415.696" y="221.777" fill="none" width="10.499" height="9.483"/>
						</g>
						<rect x="420.267" y="228.8" fill-rule="evenodd" clip-rule="evenodd" width="1.05" height="1.76"/>
						<rect x="420.267" y="225.643" fill-rule="evenodd" clip-rule="evenodd" width="1.05" height="1.76"/>
						<rect x="420.267" y="222.496" fill-rule="evenodd" clip-rule="evenodd" width="1.05" height="1.76"/>
					</g>
				</g>
				<g>
					<g>
						<g>
							<rect x="415.696" y="231.26" fill="none" width="10.499" height="9.483"/>
						</g>
						<rect x="420.267" y="238.282" fill-rule="evenodd" clip-rule="evenodd" width="1.05" height="1.76"/>
						<rect x="420.267" y="235.125" fill-rule="evenodd" clip-rule="evenodd" width="1.05" height="1.761"/>
						<rect x="420.267" y="231.979" fill-rule="evenodd" clip-rule="evenodd" width="1.05" height="1.76"/>
					</g>
				</g>
				<g>
					<g>
						<g>
							<rect x="415.696" y="240.743" fill="none" width="10.499" height="9.482"/>
						</g>
						<rect x="420.267" y="247.765" fill-rule="evenodd" clip-rule="evenodd" width="1.05" height="1.76"/>
						<rect x="420.267" y="244.608" fill-rule="evenodd" clip-rule="evenodd" width="1.05" height="1.76"/>
						<rect x="420.267" y="241.462" fill-rule="evenodd" clip-rule="evenodd" width="1.05" height="1.76"/>
					</g>
				</g>
				<g>
					<g>
						<g>
							<rect x="415.696" y="250.226" fill="none" width="10.499" height="9.483"/>
						</g>
						<rect x="420.267" y="257.248" fill-rule="evenodd" clip-rule="evenodd" width="1.05" height="1.76"/>
						<rect x="420.267" y="254.091" fill-rule="evenodd" clip-rule="evenodd" width="1.05" height="1.76"/>
						<rect x="420.267" y="250.944" fill-rule="evenodd" clip-rule="evenodd" width="1.05" height="1.76"/>
					</g>
				</g>
				<g>
					<g>
						<g>
							<rect x="415.696" y="259.709" fill="none" width="10.499" height="9.482"/>
						</g>
						<rect x="420.267" y="266.73" fill-rule="evenodd" clip-rule="evenodd" width="1.05" height="1.761"/>
						<rect x="420.267" y="263.574" fill-rule="evenodd" clip-rule="evenodd" width="1.05" height="1.76"/>
						<rect x="420.267" y="260.427" fill-rule="evenodd" clip-rule="evenodd" width="1.05" height="1.76"/>
					</g>
				</g>
				<g>
					<g>
						<g>
							<rect x="415.696" y="269.191" fill="none" width="10.499" height="9.483"/>
						</g>
						<rect x="420.267" y="276.214" fill-rule="evenodd" clip-rule="evenodd" width="1.05" height="1.76"/>
						<rect x="420.267" y="273.057" fill-rule="evenodd" clip-rule="evenodd" width="1.05" height="1.76"/>
						<rect x="420.267" y="269.91" fill-rule="evenodd" clip-rule="evenodd" width="1.05" height="1.76"/>
					</g>
				</g>
				<g>
					<g>
						<g>
							<rect x="415.696" y="278.675" fill="none" width="10.499" height="9.482"/>
						</g>
						<rect x="420.267" y="285.696" fill-rule="evenodd" clip-rule="evenodd" width="1.05" height="1.761"/>
						<rect x="420.267" y="282.54" fill-rule="evenodd" clip-rule="evenodd" width="1.05" height="1.76"/>
						<rect x="420.267" y="279.393" fill-rule="evenodd" clip-rule="evenodd" width="1.05" height="1.76"/>
					</g>
				</g>
				<g>
					<g>
						<g>
							<rect x="415.696" y="288.157" fill="none" width="10.499" height="9.483"/>
						</g>
						<rect x="420.267" y="295.18" fill-rule="evenodd" clip-rule="evenodd" width="1.05" height="1.76"/>
						<rect x="420.267" y="292.022" fill-rule="evenodd" clip-rule="evenodd" width="1.05" height="1.76"/>
						<rect x="420.267" y="288.876" fill-rule="evenodd" clip-rule="evenodd" width="1.05" height="1.76"/>
					</g>
				</g>
				<g>
					<g>
						<g>
							<rect x="415.696" y="297.64" fill="none" width="10.499" height="9.483"/>
						</g>
						<rect x="420.267" y="304.662" fill-rule="evenodd" clip-rule="evenodd" width="1.05" height="1.76"/>
						<rect x="420.267" y="301.505" fill-rule="evenodd" clip-rule="evenodd" width="1.05" height="1.76"/>
						<rect x="420.267" y="298.358" fill-rule="evenodd" clip-rule="evenodd" width="1.05" height="1.761"/>
					</g>
				</g>
				<g>
					<g>
						<g>
							<rect x="415.696" y="307.123" fill="none" width="10.499" height="9.482"/>
						</g>
						<rect x="420.267" y="314.145" fill-rule="evenodd" clip-rule="evenodd" width="1.05" height="1.76"/>
						<rect x="420.267" y="310.988" fill-rule="evenodd" clip-rule="evenodd" width="1.05" height="1.76"/>
						<rect x="420.267" y="307.842" fill-rule="evenodd" clip-rule="evenodd" width="1.05" height="1.76"/>
					</g>
				</g>
				<g>
					<g>
						<g>
							<rect x="415.696" y="316.605" fill="none" width="10.499" height="9.483"/>
						</g>
						<rect x="420.267" y="323.628" fill-rule="evenodd" clip-rule="evenodd" width="1.05" height="1.76"/>
						<rect x="420.267" y="320.471" fill-rule="evenodd" clip-rule="evenodd" width="1.05" height="1.761"/>
						<rect x="420.267" y="317.324" fill-rule="evenodd" clip-rule="evenodd" width="1.05" height="1.76"/>
					</g>
				</g>
				<g>
					<g>
						<g>
							<rect x="415.696" y="326.089" fill="none" width="10.499" height="9.482"/>
						</g>
						<rect x="420.267" y="333.111" fill-rule="evenodd" clip-rule="evenodd" width="1.05" height="1.76"/>
						<rect x="420.267" y="329.954" fill-rule="evenodd" clip-rule="evenodd" width="1.05" height="1.76"/>
						<rect x="420.267" y="326.807" fill-rule="evenodd" clip-rule="evenodd" width="1.05" height="1.76"/>
					</g>
				</g>
				<g>
					<g>
						<g>
							<rect x="415.696" y="335.571" fill="none" width="10.499" height="9.483"/>
						</g>
						<rect x="420.267" y="342.594" fill-rule="evenodd" clip-rule="evenodd" width="1.05" height="1.76"/>
						<rect x="420.267" y="339.437" fill-rule="evenodd" clip-rule="evenodd" width="1.05" height="1.76"/>
						<rect x="420.267" y="336.29" fill-rule="evenodd" clip-rule="evenodd" width="1.05" height="1.76"/>
					</g>
				</g>
				<g>
					<g>
						<g>
							<rect x="415.696" y="345.055" fill="none" width="10.499" height="9.482"/>
						</g>
						<rect x="420.267" y="352.076" fill-rule="evenodd" clip-rule="evenodd" width="1.05" height="1.761"/>
						<rect x="420.267" y="348.919" fill-rule="evenodd" clip-rule="evenodd" width="1.05" height="1.76"/>
						<rect x="420.267" y="345.773" fill-rule="evenodd" clip-rule="evenodd" width="1.05" height="1.76"/>
					</g>
				</g>
				<g>
					<g>
						<g>
							<rect x="415.696" y="354.537" fill="none" width="10.499" height="9.483"/>
						</g>
						<rect x="420.267" y="361.56" fill-rule="evenodd" clip-rule="evenodd" width="1.05" height="1.76"/>
						<rect x="420.267" y="358.402" fill-rule="evenodd" clip-rule="evenodd" width="1.05" height="1.76"/>
						<rect x="420.267" y="355.256" fill-rule="evenodd" clip-rule="evenodd" width="1.05" height="1.76"/>
					</g>
				</g>
				<g>
					<g>
						<g>
							<rect x="415.696" y="364.02" fill="none" width="10.499" height="9.483"/>
						</g>
						<rect x="420.267" y="371.042" fill-rule="evenodd" clip-rule="evenodd" width="1.05" height="1.76"/>
						<rect x="420.267" y="367.885" fill-rule="evenodd" clip-rule="evenodd" width="1.05" height="1.76"/>
						<rect x="420.267" y="364.738" fill-rule="evenodd" clip-rule="evenodd" width="1.05" height="1.761"/>
					</g>
				</g>
				<g>
					<g>
						<g>
							<rect x="415.696" y="373.503" fill="none" width="10.499" height="9.483"/>
						</g>
						<rect x="420.267" y="380.525" fill-rule="evenodd" clip-rule="evenodd" width="1.05" height="1.76"/>
						<rect x="420.267" y="377.368" fill-rule="evenodd" clip-rule="evenodd" width="1.05" height="1.76"/>
						<rect x="420.267" y="374.222" fill-rule="evenodd" clip-rule="evenodd" width="1.05" height="1.76"/>
					</g>
				</g>
				<g>
					<g>
						<g>
							<rect x="415.696" y="382.986" fill="none" width="10.499" height="9.483"/>
						</g>
						<rect x="420.267" y="390.008" fill-rule="evenodd" clip-rule="evenodd" width="1.05" height="1.76"/>
						<rect x="420.267" y="386.851" fill-rule="evenodd" clip-rule="evenodd" width="1.05" height="1.761"/>
						<rect x="420.267" y="383.704" fill-rule="evenodd" clip-rule="evenodd" width="1.05" height="1.76"/>
					</g>
				</g>
				<g>
					<g>
						<g>
							<rect x="415.696" y="392.469" fill="none" width="10.499" height="9.482"/>
						</g>
						<rect x="420.267" y="399.491" fill-rule="evenodd" clip-rule="evenodd" width="1.05" height="1.76"/>
						<rect x="420.267" y="396.334" fill-rule="evenodd" clip-rule="evenodd" width="1.05" height="1.76"/>
						<rect x="420.267" y="393.187" fill-rule="evenodd" clip-rule="evenodd" width="1.05" height="1.76"/>
					</g>
				</g>
				<g>
					<g>
						<g>
							<rect x="415.696" y="401.951" fill="none" width="10.499" height="9.483"/>
						</g>
						<rect x="420.267" y="408.974" fill-rule="evenodd" clip-rule="evenodd" width="1.05" height="1.76"/>
						<rect x="420.267" y="405.816" fill-rule="evenodd" clip-rule="evenodd" width="1.05" height="1.76"/>
						<rect x="420.267" y="402.67" fill-rule="evenodd" clip-rule="evenodd" width="1.05" height="1.76"/>
					</g>
				</g>
				<g>
					<g>
						<g>
							<rect x="415.696" y="411.435" fill="none" width="10.499" height="9.482"/>
						</g>
						<rect x="420.267" y="418.456" fill-rule="evenodd" clip-rule="evenodd" width="1.05" height="1.761"/>
						<rect x="420.267" y="415.299" fill-rule="evenodd" clip-rule="evenodd" width="1.05" height="1.76"/>
						<rect x="420.267" y="412.153" fill-rule="evenodd" clip-rule="evenodd" width="1.05" height="1.76"/>
					</g>
				</g>
				<g>
					<g>
						<g>
							<rect x="415.696" y="420.917" fill="none" width="10.499" height="9.483"/>
						</g>
						<rect x="420.267" y="427.939" fill-rule="evenodd" clip-rule="evenodd" width="1.05" height="1.76"/>
						<rect x="420.267" y="424.782" fill-rule="evenodd" clip-rule="evenodd" width="1.05" height="1.76"/>
						<rect x="420.267" y="421.636" fill-rule="evenodd" clip-rule="evenodd" width="1.05" height="1.76"/>
					</g>
				</g>
				<g>
					<g>
						<g>
							<rect x="415.696" y="430.4" fill="none" width="10.499" height="9.483"/>
						</g>
						<rect x="420.267" y="437.422" fill-rule="evenodd" clip-rule="evenodd" width="1.05" height="1.76"/>
						<rect x="420.267" y="434.265" fill-rule="evenodd" clip-rule="evenodd" width="1.05" height="1.76"/>
						<rect x="420.267" y="431.118" fill-rule="evenodd" clip-rule="evenodd" width="1.05" height="1.761"/>
					</g>
				</g>
			</g>
		</g>
	</g>
</g>
<g id="Layer_4">
</g>
<g id="Layer_5">
</g>
<g id="Layer_6">
</g>
<g id="Layer_7">
</g>
<g id="Layer_8">
</g>
<g id="Layer_9">
</g>
<g id="Layer_10">
</g>
<g id="Layer_11">
</g>
<g id="Layer_12">
</g>
<g id="Layer_13">
</g>
<g id="Layer_14">
</g>
<g id="Layer_15">
</g>
<g id="Layer_16">
</g>
<g id="Layer_17">
</g>
<g id="Layer_18">
</g>
<g id="Layer_19">
</g>
<g id="Layer_20">
</g>
<g id="Layer_21">
</g>
<g id="Layer_22">
</g>
<g id="Layer_24">
</g>
<g id="Layer_25">
</g>
<g id="Layer_26">
</g>
<g id="Layer_27">
</g>
<g id="Layer_28">
</g>
<g id="Layer_29">
</g>
<g id="Layer_30">
</g>
<g id="Layer_31">
</g>
<g id="Layer_32">
</g>
<g id="Layer_33">
</g>
<g id="Layer_34">
</g>
<g id="Layer_35">
</g>
<g id="Layer_36">
</g>
<g id="Layer_37">
</g>
<g id="Layer_38">
</g>
<g id="Layer_39">
</g>
<g id="Layer_40">
</g>
<g id="Layer_41">
</g>
<g id="Layer_43">
</g>
</svg>
