<?xml version="1.0" encoding="utf-8"?>
<!-- Generator: Adobe Illustrator 16.0.0, SVG Export Plug-In . SVG Version: 6.00 Build 0)  -->
<!DOCTYPE svg PUBLIC "-//W3C//DTD SVG 1.1//EN" "http://www.w3.org/Graphics/SVG/1.1/DTD/svg11.dtd">
<svg version="1.1" xmlns="http://www.w3.org/2000/svg" xmlns:xlink="http://www.w3.org/1999/xlink" x="0px" y="0px"
	 width="841.89px" height="595.28px" viewBox="0 0 841.89 595.28" enable-background="new 0 0 841.89 595.28" xml:space="preserve">
<g id="Layer_1">
</g>
<g id="Layer_2">
</g>
<g id="Layer_3">
</g>
<g id="Layer_4">
</g>
<g id="Layer_5">
</g>
<g id="Layer_6">
</g>
<g id="Layer_7">
</g>
<g id="Layer_8">
</g>
<g id="Layer_9">
</g>
<g id="Layer_10">
</g>
<g id="Layer_11">
</g>
<g id="Layer_12">
</g>
<g id="Layer_13">
</g>
<g id="Layer_14">
	<g>
		<g>
			<polyline id="pion_33_" fill="none" stroke="#000000" stroke-miterlimit="10" points="521.304,397.41 420.399,297.035 
				320.075,397.527 			"/>
			<polyline fill="none" stroke="#000000" stroke-miterlimit="10" points="520.515,397.527 420.296,497.748 320.075,397.527 
				420.296,297.309 			"/>
			<g>
				<g>
					<g>
						<g>
							<g>
								<g>
									<rect x="415.047" y="488.012" fill="none" width="10.499" height="9.544"/>
								</g>
								<rect x="419.925" y="488.717" fill-rule="evenodd" clip-rule="evenodd" width="1.051" height="1.772"/>
								<rect x="419.925" y="491.895" fill-rule="evenodd" clip-rule="evenodd" width="1.05" height="1.771"/>
								<rect x="419.925" y="495.062" fill-rule="evenodd" clip-rule="evenodd" width="1.05" height="1.771"/>
							</g>
						</g>
						<g>
							<g>
								<g>
									<rect x="415.047" y="478.468" fill="none" width="10.499" height="9.544"/>
								</g>
								<rect x="419.926" y="479.173" fill-rule="evenodd" clip-rule="evenodd" width="1.05" height="1.771"/>
								<rect x="419.926" y="482.351" fill-rule="evenodd" clip-rule="evenodd" width="1.05" height="1.771"/>
								<rect x="419.925" y="485.518" fill-rule="evenodd" clip-rule="evenodd" width="1.051" height="1.771"/>
							</g>
						</g>
						<g>
							<g>
								<g>
									<rect x="415.048" y="468.923" fill="none" width="10.499" height="9.544"/>
								</g>
								<rect x="419.927" y="469.628" fill-rule="evenodd" clip-rule="evenodd" width="1.05" height="1.771"/>
								<rect x="419.927" y="472.806" fill-rule="evenodd" clip-rule="evenodd" width="1.05" height="1.771"/>
								<rect x="419.926" y="475.973" fill-rule="evenodd" clip-rule="evenodd" width="1.05" height="1.771"/>
							</g>
						</g>
						<g>
							<g>
								<g>
									<rect x="415.05" y="459.379" fill="none" width="10.498" height="9.544"/>
								</g>
								<rect x="419.928" y="460.084" fill-rule="evenodd" clip-rule="evenodd" width="1.05" height="1.771"/>
								<rect x="419.927" y="463.262" fill-rule="evenodd" clip-rule="evenodd" width="1.051" height="1.771"/>
								<rect x="419.927" y="466.429" fill-rule="evenodd" clip-rule="evenodd" width="1.05" height="1.771"/>
							</g>
						</g>
						<g>
							<g>
								<g>
									<rect x="415.049" y="449.834" fill="none" width="10.499" height="9.544"/>
								</g>
								<rect x="419.928" y="450.54" fill-rule="evenodd" clip-rule="evenodd" width="1.05" height="1.771"/>
								<rect x="419.928" y="453.717" fill-rule="evenodd" clip-rule="evenodd" width="1.05" height="1.772"/>
								<rect x="419.928" y="456.884" fill-rule="evenodd" clip-rule="evenodd" width="1.05" height="1.771"/>
							</g>
						</g>
						<g>
							<g>
								<g>
									<rect x="415.05" y="440.29" fill="none" width="10.499" height="9.545"/>
								</g>
								<rect x="419.929" y="440.995" fill-rule="evenodd" clip-rule="evenodd" width="1.05" height="1.771"/>
								<rect x="419.929" y="444.173" fill-rule="evenodd" clip-rule="evenodd" width="1.05" height="1.771"/>
								<rect x="419.929" y="447.34" fill-rule="evenodd" clip-rule="evenodd" width="1.05" height="1.771"/>
							</g>
						</g>
						<g>
							<g>
								<g>
									<rect x="415.051" y="430.746" fill="none" width="10.499" height="9.544"/>
								</g>
								<rect x="419.93" y="431.451" fill-rule="evenodd" clip-rule="evenodd" width="1.05" height="1.771"/>
								<rect x="419.93" y="434.628" fill-rule="evenodd" clip-rule="evenodd" width="1.05" height="1.772"/>
								<rect x="419.929" y="437.795" fill-rule="evenodd" clip-rule="evenodd" width="1.051" height="1.772"/>
							</g>
						</g>
						<g>
							<g>
								<g>
									<rect x="415.052" y="421.201" fill="none" width="10.499" height="9.545"/>
								</g>
								<rect x="419.931" y="421.906" fill-rule="evenodd" clip-rule="evenodd" width="1.05" height="1.771"/>
								<rect x="419.93" y="425.083" fill-rule="evenodd" clip-rule="evenodd" width="1.051" height="1.772"/>
								<rect x="419.93" y="428.251" fill-rule="evenodd" clip-rule="evenodd" width="1.05" height="1.771"/>
							</g>
						</g>
						<g>
							<g>
								<g>
									<rect x="415.053" y="411.656" fill="none" width="10.499" height="9.544"/>
								</g>
								<rect x="419.931" y="412.362" fill-rule="evenodd" clip-rule="evenodd" width="1.051" height="1.771"/>
								<rect x="419.931" y="415.539" fill-rule="evenodd" clip-rule="evenodd" width="1.05" height="1.771"/>
								<rect x="419.931" y="418.706" fill-rule="evenodd" clip-rule="evenodd" width="1.05" height="1.772"/>
							</g>
						</g>
						<g>
							<g>
								<g>
									<rect x="415.053" y="402.112" fill="none" width="10.499" height="9.544"/>
								</g>
								<rect x="419.932" y="402.817" fill-rule="evenodd" clip-rule="evenodd" width="1.05" height="1.771"/>
								<rect x="419.932" y="405.994" fill-rule="evenodd" clip-rule="evenodd" width="1.05" height="1.772"/>
								<rect x="419.932" y="409.162" fill-rule="evenodd" clip-rule="evenodd" width="1.05" height="1.772"/>
							</g>
						</g>
						<g>
							<g>
								<g>
									<rect x="415.054" y="392.568" fill="none" width="10.499" height="9.544"/>
								</g>
								<rect x="419.933" y="393.273" fill-rule="evenodd" clip-rule="evenodd" width="1.05" height="1.771"/>
								<rect x="419.933" y="396.45" fill-rule="evenodd" clip-rule="evenodd" width="1.05" height="1.771"/>
								<rect x="419.932" y="399.617" fill-rule="evenodd" clip-rule="evenodd" width="1.051" height="1.772"/>
							</g>
						</g>
						<g>
							<g>
								<g>
									<rect x="415.055" y="383.023" fill="none" width="10.499" height="9.544"/>
								</g>
								<rect x="419.934" y="383.729" fill-rule="evenodd" clip-rule="evenodd" width="1.05" height="1.771"/>
								<rect x="419.933" y="386.906" fill-rule="evenodd" clip-rule="evenodd" width="1.051" height="1.771"/>
								<rect x="419.933" y="390.073" fill-rule="evenodd" clip-rule="evenodd" width="1.05" height="1.772"/>
							</g>
						</g>
						<g>
							<g>
								<g>
									<rect x="415.056" y="373.479" fill="none" width="10.499" height="9.544"/>
								</g>
								<rect x="419.934" y="374.184" fill-rule="evenodd" clip-rule="evenodd" width="1.051" height="1.771"/>
								<rect x="419.934" y="377.361" fill-rule="evenodd" clip-rule="evenodd" width="1.05" height="1.771"/>
								<rect x="419.934" y="380.528" fill-rule="evenodd" clip-rule="evenodd" width="1.05" height="1.771"/>
							</g>
						</g>
						<g>
							<g>
								<g>
									<rect x="415.056" y="363.934" fill="none" width="10.499" height="9.544"/>
								</g>
								<rect x="419.935" y="364.64" fill-rule="evenodd" clip-rule="evenodd" width="1.05" height="1.771"/>
								<rect x="419.935" y="367.817" fill-rule="evenodd" clip-rule="evenodd" width="1.05" height="1.771"/>
								<rect x="419.935" y="370.984" fill-rule="evenodd" clip-rule="evenodd" width="1.05" height="1.772"/>
							</g>
						</g>
						<g>
							<g>
								<g>
									<rect x="415.057" y="354.39" fill="none" width="10.499" height="9.544"/>
								</g>
								<rect x="419.936" y="355.095" fill-rule="evenodd" clip-rule="evenodd" width="1.05" height="1.771"/>
								<rect x="419.936" y="358.272" fill-rule="evenodd" clip-rule="evenodd" width="1.05" height="1.771"/>
								<rect x="419.935" y="361.439" fill-rule="evenodd" clip-rule="evenodd" width="1.051" height="1.771"/>
							</g>
						</g>
						<g>
							<g>
								<g>
									<rect x="415.058" y="344.845" fill="none" width="10.499" height="9.544"/>
								</g>
								<rect x="419.937" y="345.551" fill-rule="evenodd" clip-rule="evenodd" width="1.05" height="1.771"/>
								<rect x="419.937" y="348.728" fill-rule="evenodd" clip-rule="evenodd" width="1.05" height="1.771"/>
								<rect x="419.936" y="351.895" fill-rule="evenodd" clip-rule="evenodd" width="1.05" height="1.771"/>
							</g>
						</g>
						<g>
							<g>
								<g>
									<rect x="415.06" y="335.301" fill="none" width="10.498" height="9.544"/>
								</g>
								<rect x="419.937" y="336.006" fill-rule="evenodd" clip-rule="evenodd" width="1.051" height="1.772"/>
								<rect x="419.937" y="339.184" fill-rule="evenodd" clip-rule="evenodd" width="1.05" height="1.771"/>
								<rect x="419.937" y="342.351" fill-rule="evenodd" clip-rule="evenodd" width="1.05" height="1.771"/>
							</g>
						</g>
						<g>
							<g>
								<g>
									<rect x="415.059" y="325.756" fill="none" width="10.499" height="9.544"/>
								</g>
								<rect x="419.938" y="326.462" fill-rule="evenodd" clip-rule="evenodd" width="1.05" height="1.771"/>
								<rect x="419.938" y="329.639" fill-rule="evenodd" clip-rule="evenodd" width="1.05" height="1.771"/>
								<rect x="419.938" y="332.806" fill-rule="evenodd" clip-rule="evenodd" width="1.05" height="1.771"/>
							</g>
						</g>
						<g>
							<g>
								<g>
									<rect x="415.06" y="316.212" fill="none" width="10.499" height="9.544"/>
								</g>
								<rect x="419.938" y="316.917" fill-rule="evenodd" clip-rule="evenodd" width="1.05" height="1.772"/>
								<rect x="419.938" y="320.095" fill-rule="evenodd" clip-rule="evenodd" width="1.05" height="1.771"/>
								<rect x="419.938" y="323.262" fill-rule="evenodd" clip-rule="evenodd" width="1.05" height="1.771"/>
							</g>
						</g>
						<g>
							<g>
								<g>
									<rect x="415.061" y="306.667" fill="none" width="10.499" height="9.544"/>
								</g>
								<rect x="419.939" y="307.372" fill-rule="evenodd" clip-rule="evenodd" width="1.05" height="1.772"/>
								<rect x="419.938" y="310.55" fill-rule="evenodd" clip-rule="evenodd" width="1.051" height="1.771"/>
								<rect x="419.938" y="313.717" fill-rule="evenodd" clip-rule="evenodd" width="1.051" height="1.771"/>
							</g>
						</g>
						<g>
							<g>
								<g>
									<rect x="415.061" y="297.123" fill="none" width="10.5" height="9.544"/>
								</g>
								<rect x="419.94" y="297.828" fill-rule="evenodd" clip-rule="evenodd" width="1.05" height="1.771"/>
								<rect x="419.94" y="301.006" fill-rule="evenodd" clip-rule="evenodd" width="1.05" height="1.771"/>
								<rect x="419.939" y="304.173" fill-rule="evenodd" clip-rule="evenodd" width="1.05" height="1.771"/>
							</g>
						</g>
					</g>
				</g>
			</g>
			<path fill="none" stroke="#000000" stroke-miterlimit="10" d="M420.296,296.951"/>
			<g>
				<g>
					<g>
						<g>
							<g>
								<g>
									
										<rect x="476.082" y="358.841" transform="matrix(0.4125 -0.911 0.911 0.4125 -49.1819 651.9249)" fill="none" width="9.466" height="10.499"/>
								</g>
								
									<rect x="478.848" y="366.023" transform="matrix(0.911 0.4123 -0.4123 0.911 193.9126 -165.0078)" fill-rule="evenodd" clip-rule="evenodd" width="1.05" height="1.757"/>
								
									<rect x="480.148" y="363.153" transform="matrix(0.911 0.4123 -0.4123 0.911 192.8447 -165.7991)" fill-rule="evenodd" clip-rule="evenodd" width="1.05" height="1.757"/>
								
									<rect x="481.444" y="360.291" transform="matrix(0.911 0.4123 -0.4123 0.911 191.7802 -166.5879)" fill-rule="evenodd" clip-rule="evenodd" width="1.05" height="1.757"/>
							</g>
						</g>
						<g>
							<g>
								<g>
									
										<rect x="472.177" y="367.464" transform="matrix(0.4125 -0.911 0.911 0.4125 -59.3312 653.4346)" fill="none" width="9.466" height="10.499"/>
								</g>
								
									<rect x="474.944" y="374.646" transform="matrix(0.911 0.4123 -0.4123 0.911 197.1206 -162.6311)" fill-rule="evenodd" clip-rule="evenodd" width="1.05" height="1.757"/>
								
									<rect x="476.243" y="371.776" transform="matrix(0.911 0.4123 -0.4123 0.911 196.0527 -163.4224)" fill-rule="evenodd" clip-rule="evenodd" width="1.05" height="1.757"/>
								
									<rect x="477.539" y="368.914" transform="matrix(0.9109 0.4126 -0.4126 0.9109 195.1931 -164.3195)" fill-rule="evenodd" clip-rule="evenodd" width="1.05" height="1.757"/>
							</g>
						</g>
						<g>
							<g>
								<g>
									
										<rect x="468.272" y="376.088" transform="matrix(0.4125 -0.911 0.911 0.4125 -69.4808 654.9438)" fill="none" width="9.466" height="10.498"/>
								</g>
								
									<rect x="471.039" y="383.269" transform="matrix(0.911 0.4123 -0.4123 0.911 200.3286 -160.2543)" fill-rule="evenodd" clip-rule="evenodd" width="1.05" height="1.757"/>
								
									<rect x="472.339" y="380.399" transform="matrix(0.911 0.4123 -0.4123 0.911 199.2606 -161.0456)" fill-rule="evenodd" clip-rule="evenodd" width="1.05" height="1.757"/>
								
									<rect x="473.635" y="377.537" transform="matrix(0.9109 0.4126 -0.4126 0.9109 198.4034 -161.94)" fill-rule="evenodd" clip-rule="evenodd" width="1.05" height="1.757"/>
							</g>
						</g>
						<g>
							<g>
								<g>
									
										<rect x="464.368" y="384.711" transform="matrix(0.4125 -0.911 0.911 0.4125 -79.63 656.4534)" fill="none" width="9.466" height="10.498"/>
								</g>
								
									<rect x="467.135" y="391.892" transform="matrix(0.9109 0.4126 -0.4126 0.9109 203.7477 -157.9786)" fill-rule="evenodd" clip-rule="evenodd" width="1.05" height="1.757"/>
								
									<rect x="468.435" y="389.022" transform="matrix(0.9109 0.4126 -0.4126 0.9109 202.679 -158.7708)" fill-rule="evenodd" clip-rule="evenodd" width="1.05" height="1.757"/>
								
									<rect x="469.731" y="386.16" transform="matrix(0.9109 0.4126 -0.4126 0.9109 201.6138 -159.5605)" fill-rule="evenodd" clip-rule="evenodd" width="1.05" height="1.757"/>
							</g>
						</g>
						<g>
							<g>
								<g>
									
										<rect x="460.464" y="393.334" transform="matrix(0.4126 -0.9109 0.9109 0.4126 -89.8036 657.9109)" fill="none" width="9.466" height="10.499"/>
								</g>
								
									<rect x="463.231" y="400.515" transform="matrix(0.9109 0.4126 -0.4126 0.9109 206.9581 -155.5992)" fill-rule="evenodd" clip-rule="evenodd" width="1.05" height="1.757"/>
								
									<rect x="464.53" y="397.645" transform="matrix(0.9109 0.4126 -0.4126 0.9109 205.8893 -156.3914)" fill-rule="evenodd" clip-rule="evenodd" width="1.05" height="1.757"/>
								
									<rect x="465.826" y="394.783" transform="matrix(0.9109 0.4126 -0.4126 0.9109 204.8241 -157.1808)" fill-rule="evenodd" clip-rule="evenodd" width="1.05" height="1.757"/>
							</g>
						</g>
						<g>
							<g>
								<g>
									
										<rect x="456.559" y="401.957" transform="matrix(0.4125 -0.911 0.911 0.4125 -99.9288 659.4722)" fill="none" width="9.466" height="10.499"/>
								</g>
								
									<rect x="459.326" y="409.138" transform="matrix(0.9109 0.4126 -0.4126 0.9109 210.1685 -153.2197)" fill-rule="evenodd" clip-rule="evenodd" width="1.05" height="1.757"/>
								
									<rect x="460.626" y="406.268" transform="matrix(0.9109 0.4126 -0.4126 0.9109 209.0997 -154.0118)" fill-rule="evenodd" clip-rule="evenodd" width="1.05" height="1.757"/>
								
									<rect x="461.921" y="403.406" transform="matrix(0.911 0.4123 -0.4123 0.911 207.82 -154.7037)" fill-rule="evenodd" clip-rule="evenodd" width="1.05" height="1.757"/>
							</g>
						</g>
						<g>
							<g>
								<g>
									
										<rect x="452.655" y="410.58" transform="matrix(0.4125 -0.911 0.911 0.4125 -110.0781 660.9819)" fill="none" width="9.466" height="10.499"/>
								</g>
								
									<rect x="455.422" y="417.761" transform="matrix(0.9109 0.4126 -0.4126 0.9109 213.3788 -150.8402)" fill-rule="evenodd" clip-rule="evenodd" width="1.05" height="1.757"/>
								
									<rect x="456.721" y="414.891" transform="matrix(0.9109 0.4126 -0.4126 0.9109 212.3101 -151.6322)" fill-rule="evenodd" clip-rule="evenodd" width="1.05" height="1.757"/>
								
									<rect x="458.017" y="412.029" transform="matrix(0.911 0.4123 -0.4123 0.911 211.028 -152.327)" fill-rule="evenodd" clip-rule="evenodd" width="1.05" height="1.757"/>
							</g>
						</g>
						<g>
							<g>
								<g>
									
										<rect x="448.751" y="419.203" transform="matrix(0.4125 -0.911 0.911 0.4125 -120.2274 662.4915)" fill="none" width="9.466" height="10.499"/>
								</g>
								
									<rect x="451.517" y="426.384" transform="matrix(0.9109 0.4126 -0.4126 0.9109 216.5891 -148.4605)" fill-rule="evenodd" clip-rule="evenodd" width="1.05" height="1.757"/>
								
									<rect x="452.817" y="423.514" transform="matrix(0.911 0.4123 -0.4123 0.911 215.3004 -149.1614)" fill-rule="evenodd" clip-rule="evenodd" width="1.05" height="1.757"/>
								
									<rect x="454.112" y="420.653" transform="matrix(0.911 0.4123 -0.4123 0.911 214.2359 -149.9502)" fill-rule="evenodd" clip-rule="evenodd" width="1.05" height="1.757"/>
							</g>
						</g>
						<g>
							<g>
								<g>
									
										<rect x="444.846" y="427.826" transform="matrix(0.4125 -0.911 0.911 0.4125 -130.3767 664.0011)" fill="none" width="9.466" height="10.499"/>
								</g>
								
									<rect x="447.612" y="435.008" transform="matrix(0.911 0.4123 -0.4123 0.911 219.5762 -145.9934)" fill-rule="evenodd" clip-rule="evenodd" width="1.05" height="1.757"/>
								
									<rect x="448.912" y="432.137" transform="matrix(0.911 0.4123 -0.4123 0.911 218.5083 -146.7847)" fill-rule="evenodd" clip-rule="evenodd" width="1.05" height="1.757"/>
								
									<rect x="450.208" y="429.276" transform="matrix(0.9109 0.4126 -0.4126 0.9109 217.6655 -147.6627)" fill-rule="evenodd" clip-rule="evenodd" width="1.05" height="1.757"/>
							</g>
						</g>
						<g>
							<g>
								<g>
									
										<rect x="440.942" y="436.449" transform="matrix(0.4125 -0.911 0.911 0.4125 -140.5259 665.5107)" fill="none" width="9.466" height="10.499"/>
								</g>
								
									<rect x="443.708" y="443.631" transform="matrix(0.911 0.4123 -0.4123 0.911 222.7842 -143.6167)" fill-rule="evenodd" clip-rule="evenodd" width="1.05" height="1.757"/>
								
									<rect x="445.008" y="440.76" transform="matrix(0.911 0.4123 -0.4123 0.911 221.7163 -144.4079)" fill-rule="evenodd" clip-rule="evenodd" width="1.05" height="1.757"/>
								
									<rect x="446.304" y="437.899" transform="matrix(0.9109 0.4126 -0.4126 0.9109 220.8759 -145.2832)" fill-rule="evenodd" clip-rule="evenodd" width="1.05" height="1.757"/>
							</g>
						</g>
						<g>
							<g>
								<g>
									
										<rect x="437.038" y="445.072" transform="matrix(0.4125 -0.911 0.911 0.4125 -150.6752 667.0204)" fill="none" width="9.466" height="10.499"/>
								</g>
								
									<rect x="439.804" y="452.254" transform="matrix(0.9109 0.4126 -0.4126 0.9109 226.2202 -141.3219)" fill-rule="evenodd" clip-rule="evenodd" width="1.05" height="1.757"/>
								
									<rect x="441.104" y="449.383" transform="matrix(0.911 0.4123 -0.4123 0.911 224.9243 -142.0312)" fill-rule="evenodd" clip-rule="evenodd" width="1.05" height="1.757"/>
								
									<rect x="442.4" y="446.522" transform="matrix(0.9109 0.4126 -0.4126 0.9109 224.0862 -142.9038)" fill-rule="evenodd" clip-rule="evenodd" width="1.05" height="1.757"/>
							</g>
						</g>
						<g>
							<g>
								<g>
									
										<rect x="433.133" y="453.695" transform="matrix(0.4125 -0.911 0.911 0.4125 -160.8248 668.5295)" fill="none" width="9.466" height="10.498"/>
								</g>
								
									<rect x="435.9" y="460.877" transform="matrix(0.9109 0.4126 -0.4126 0.9109 229.4305 -138.9424)" fill-rule="evenodd" clip-rule="evenodd" width="1.05" height="1.757"/>
								
									<rect x="437.199" y="458.006" transform="matrix(0.911 0.4123 -0.4123 0.911 228.1322 -139.6544)" fill-rule="evenodd" clip-rule="evenodd" width="1.05" height="1.757"/>
								
									<rect x="438.495" y="455.145" transform="matrix(0.9109 0.4126 -0.4126 0.9109 227.2965 -140.524)" fill-rule="evenodd" clip-rule="evenodd" width="1.05" height="1.757"/>
							</g>
						</g>
						<g>
							<g>
								<g>
									
										<rect x="429.229" y="462.318" transform="matrix(0.4125 -0.911 0.911 0.4125 -170.9741 670.0392)" fill="none" width="9.466" height="10.498"/>
								</g>
								
									<rect x="431.995" y="469.5" transform="matrix(0.9109 0.4126 -0.4126 0.9109 232.6409 -136.5629)" fill-rule="evenodd" clip-rule="evenodd" width="1.05" height="1.757"/>
								
									<rect x="433.295" y="466.629" transform="matrix(0.9109 0.4126 -0.4126 0.9109 231.5722 -137.3551)" fill-rule="evenodd" clip-rule="evenodd" width="1.05" height="1.757"/>
								
									<rect x="434.59" y="463.768" transform="matrix(0.911 0.4123 -0.4123 0.911 230.2756 -138.066)" fill-rule="evenodd" clip-rule="evenodd" width="1.05" height="1.757"/>
							</g>
						</g>
						<g>
							<g>
								<g>
									
										<rect x="425.324" y="470.941" transform="matrix(0.4126 -0.9109 0.9109 0.4126 -181.1417 671.4914)" fill="none" width="9.466" height="10.499"/>
								</g>
								
									<rect x="428.091" y="478.123" transform="matrix(0.9109 0.4126 -0.4126 0.9109 235.8513 -134.1835)" fill-rule="evenodd" clip-rule="evenodd" width="1.05" height="1.757"/>
								
									<rect x="429.391" y="475.252" transform="matrix(0.9109 0.4126 -0.4126 0.9109 234.7825 -134.9756)" fill-rule="evenodd" clip-rule="evenodd" width="1.05" height="1.757"/>
								
									<rect x="430.686" y="472.391" transform="matrix(0.911 0.4123 -0.4123 0.911 233.4836 -135.6893)" fill-rule="evenodd" clip-rule="evenodd" width="1.05" height="1.757"/>
							</g>
						</g>
						<g>
							<g>
								<g>
									
										<rect x="421.419" y="479.564" transform="matrix(0.4125 -0.911 0.911 0.4125 -191.2729 673.058)" fill="none" width="9.466" height="10.499"/>
								</g>
								
									<rect x="424.186" y="486.746" transform="matrix(0.9109 0.4126 -0.4126 0.9109 239.0616 -131.8038)" fill-rule="evenodd" clip-rule="evenodd" width="1.05" height="1.757"/>
								
									<rect x="425.486" y="483.875" transform="matrix(0.9109 0.4126 -0.4126 0.9109 237.9929 -132.5961)" fill-rule="evenodd" clip-rule="evenodd" width="1.05" height="1.757"/>
								
									<rect x="426.781" y="481.014" transform="matrix(0.911 0.4123 -0.4123 0.911 236.6916 -133.3126)" fill-rule="evenodd" clip-rule="evenodd" width="1.05" height="1.757"/>
							</g>
						</g>
						<g>
							<g>
								<g>
									
										<rect x="417.515" y="488.187" transform="matrix(0.4125 -0.911 0.911 0.4125 -201.4222 674.5676)" fill="none" width="9.466" height="10.499"/>
								</g>
								
									<rect x="420.281" y="495.369" transform="matrix(0.911 0.4123 -0.4123 0.911 242.0319 -129.3558)" fill-rule="evenodd" clip-rule="evenodd" width="1.05" height="1.757"/>
								
									<rect x="421.582" y="492.498" transform="matrix(0.9109 0.4126 -0.4126 0.9109 241.2032 -130.2164)" fill-rule="evenodd" clip-rule="evenodd" width="1.05" height="1.757"/>
								
									<rect x="422.877" y="489.637" transform="matrix(0.911 0.4123 -0.4123 0.911 239.8995 -130.9359)" fill-rule="evenodd" clip-rule="evenodd" width="1.05" height="1.757"/>
							</g>
						</g>
					</g>
				</g>
			</g>
		</g>
		<g>
			<g>
				<g>
					<g>
						<g>
							<g>
								
									<rect x="355.443" y="358.4" transform="matrix(-0.4125 -0.911 0.911 -0.4125 177.461 841.7527)" fill="none" width="9.466" height="10.499"/>
							</g>
							
								<rect x="360.813" y="365.708" transform="matrix(0.9111 -0.4123 0.4123 0.9111 -118.994 181.5668)" fill-rule="evenodd" clip-rule="evenodd" width="1.049" height="1.757"/>
							
								<rect x="359.512" y="362.837" transform="matrix(0.911 -0.4123 0.4123 0.911 -117.9334 180.7949)" fill-rule="evenodd" clip-rule="evenodd" width="1.05" height="1.757"/>
							
								<rect x="358.217" y="359.976" transform="matrix(0.9109 -0.4126 0.4126 0.9109 -116.9383 180.1886)" fill-rule="evenodd" clip-rule="evenodd" width="1.05" height="1.757"/>
						</g>
					</g>
					<g>
						<g>
							<g>
								
									<rect x="359.347" y="367.023" transform="matrix(-0.4125 -0.911 0.911 -0.4125 175.1203 857.4893)" fill="none" width="9.466" height="10.499"/>
							</g>
							
								<rect x="364.717" y="374.331" transform="matrix(0.9111 -0.4123 0.4123 0.9111 -122.2017 183.9433)" fill-rule="evenodd" clip-rule="evenodd" width="1.049" height="1.757"/>
							
								<rect x="363.417" y="371.461" transform="matrix(0.9109 -0.4126 0.4126 0.9109 -121.2139 183.3577)" fill-rule="evenodd" clip-rule="evenodd" width="1.05" height="1.757"/>
							
								<rect x="362.121" y="368.599" transform="matrix(0.911 -0.4123 0.4123 0.911 -120.0769 182.383)" fill-rule="evenodd" clip-rule="evenodd" width="1.05" height="1.757"/>
						</g>
					</g>
					<g>
						<g>
							<g>
								
									<rect x="363.251" y="375.646" transform="matrix(-0.4126 -0.9109 0.9109 -0.4126 172.8259 873.244)" fill="none" width="9.466" height="10.498"/>
							</g>
							
								<rect x="368.621" y="382.955" transform="matrix(0.9111 -0.4123 0.4123 0.9111 -125.4094 186.3197)" fill-rule="evenodd" clip-rule="evenodd" width="1.049" height="1.757"/>
							
								<rect x="367.321" y="380.084" transform="matrix(0.9109 -0.4126 0.4126 0.9109 -124.4243 185.7372)" fill-rule="evenodd" clip-rule="evenodd" width="1.05" height="1.757"/>
							
								<rect x="366.026" y="377.222" transform="matrix(0.911 -0.4123 0.4123 0.911 -123.2849 184.7598)" fill-rule="evenodd" clip-rule="evenodd" width="1.05" height="1.757"/>
						</g>
					</g>
					<g>
						<g>
							<g>
								
									<rect x="367.156" y="384.27" transform="matrix(-0.4125 -0.911 0.911 -0.4125 170.4397 888.9626)" fill="none" width="9.466" height="10.498"/>
							</g>
							
								<rect x="372.526" y="391.578" transform="matrix(0.9111 -0.4123 0.4123 0.9111 -128.6171 188.6962)" fill-rule="evenodd" clip-rule="evenodd" width="1.049" height="1.757"/>
							
								<rect x="371.226" y="388.707" transform="matrix(0.9109 -0.4126 0.4126 0.9109 -127.6346 188.1167)" fill-rule="evenodd" clip-rule="evenodd" width="1.05" height="1.757"/>
							
								<rect x="369.93" y="385.845" transform="matrix(0.911 -0.4123 0.4123 0.911 -126.4928 187.1365)" fill-rule="evenodd" clip-rule="evenodd" width="1.05" height="1.757"/>
						</g>
					</g>
					<g>
						<g>
							<g>
								
									<rect x="371.061" y="392.892" transform="matrix(-0.4125 -0.911 0.911 -0.4125 168.0997 904.6995)" fill="none" width="9.466" height="10.499"/>
							</g>
							
								<rect x="376.43" y="400.201" transform="matrix(0.9112 -0.4119 0.4119 0.9112 -131.7443 190.8779)" fill-rule="evenodd" clip-rule="evenodd" width="1.05" height="1.757"/>
							
								<rect x="375.13" y="397.33" transform="matrix(0.9109 -0.4126 0.4126 0.9109 -130.845 190.4962)" fill-rule="evenodd" clip-rule="evenodd" width="1.05" height="1.757"/>
							
								<rect x="373.834" y="394.468" transform="matrix(0.911 -0.4123 0.4123 0.911 -129.7008 189.5133)" fill-rule="evenodd" clip-rule="evenodd" width="1.05" height="1.757"/>
						</g>
					</g>
					<g>
						<g>
							<g>
								
									<rect x="374.965" y="401.515" transform="matrix(-0.4125 -0.911 0.911 -0.4125 165.759 920.436)" fill="none" width="9.466" height="10.499"/>
							</g>
							
								<rect x="380.334" y="408.824" transform="matrix(0.9112 -0.4119 0.4119 0.9112 -134.9496 193.2516)" fill-rule="evenodd" clip-rule="evenodd" width="1.05" height="1.757"/>
							
								<rect x="379.034" y="405.953" transform="matrix(0.911 -0.4123 0.4123 0.911 -133.9732 192.6788)" fill-rule="evenodd" clip-rule="evenodd" width="1.05" height="1.757"/>
							
								<rect x="377.739" y="403.091" transform="matrix(0.911 -0.4123 0.4123 0.911 -132.9087 191.8902)" fill-rule="evenodd" clip-rule="evenodd" width="1.05" height="1.757"/>
						</g>
					</g>
					<g>
						<g>
							<g>
								
									<rect x="378.87" y="410.138" transform="matrix(-0.4125 -0.911 0.911 -0.4125 163.4183 936.1724)" fill="none" width="9.466" height="10.499"/>
							</g>
							
								<rect x="384.239" y="417.447" transform="matrix(0.9112 -0.4119 0.4119 0.9112 -138.1549 195.6254)" fill-rule="evenodd" clip-rule="evenodd" width="1.05" height="1.757"/>
							
								<rect x="382.939" y="414.576" transform="matrix(0.911 -0.4123 0.4123 0.911 -137.1812 195.0556)" fill-rule="evenodd" clip-rule="evenodd" width="1.05" height="1.757"/>
							
								<rect x="381.644" y="411.715" transform="matrix(0.9109 -0.4126 0.4126 0.9109 -136.2004 194.4658)" fill-rule="evenodd" clip-rule="evenodd" width="1.05" height="1.757"/>
						</g>
					</g>
					<g>
						<g>
							<g>
								
									<rect x="382.774" y="418.761" transform="matrix(-0.4125 -0.911 0.911 -0.4125 161.0776 951.9089)" fill="none" width="9.466" height="10.499"/>
							</g>
							
								<rect x="388.143" y="426.07" transform="matrix(0.9112 -0.4119 0.4119 0.9112 -141.3602 197.9991)" fill-rule="evenodd" clip-rule="evenodd" width="1.05" height="1.757"/>
							
								<rect x="386.843" y="423.199" transform="matrix(0.911 -0.4123 0.4123 0.911 -140.3891 197.4325)" fill-rule="evenodd" clip-rule="evenodd" width="1.05" height="1.757"/>
							
								<rect x="385.548" y="420.338" transform="matrix(0.9109 -0.4126 0.4126 0.9109 -139.4108 196.8453)" fill-rule="evenodd" clip-rule="evenodd" width="1.05" height="1.757"/>
						</g>
					</g>
					<g>
						<g>
							<g>
								
									<rect x="386.678" y="427.384" transform="matrix(-0.4125 -0.911 0.911 -0.4125 158.7369 967.6454)" fill="none" width="9.466" height="10.499"/>
							</g>
							
								<rect x="392.048" y="434.693" transform="matrix(0.9111 -0.4123 0.4123 0.9111 -144.6556 200.5789)" fill-rule="evenodd" clip-rule="evenodd" width="1.049" height="1.757"/>
							
								<rect x="390.748" y="431.822" transform="matrix(0.9109 -0.4126 0.4126 0.9109 -143.6863 200.0145)" fill-rule="evenodd" clip-rule="evenodd" width="1.05" height="1.757"/>
							
								<rect x="389.452" y="428.961" transform="matrix(0.9109 -0.4126 0.4126 0.9109 -142.6211 199.2248)" fill-rule="evenodd" clip-rule="evenodd" width="1.05" height="1.757"/>
						</g>
					</g>
					<g>
						<g>
							<g>
								
									<rect x="390.583" y="436.007" transform="matrix(-0.4125 -0.911 0.911 -0.4125 156.3963 983.3818)" fill="none" width="9.466" height="10.499"/>
							</g>
							
								<rect x="395.952" y="443.316" transform="matrix(0.9111 -0.4123 0.4123 0.9111 -147.8633 202.9554)" fill-rule="evenodd" clip-rule="evenodd" width="1.049" height="1.757"/>
							
								<rect x="394.652" y="440.445" transform="matrix(0.9109 -0.4126 0.4126 0.9109 -146.8967 202.394)" fill-rule="evenodd" clip-rule="evenodd" width="1.05" height="1.757"/>
							
								<rect x="393.357" y="437.584" transform="matrix(0.9109 -0.4126 0.4126 0.9109 -145.8315 201.6043)" fill-rule="evenodd" clip-rule="evenodd" width="1.05" height="1.757"/>
						</g>
					</g>
					<g>
						<g>
							<g>
								
									<rect x="394.487" y="444.63" transform="matrix(-0.4125 -0.911 0.911 -0.4125 154.0556 999.1183)" fill="none" width="9.466" height="10.499"/>
							</g>
							
								<rect x="399.857" y="451.939" transform="matrix(0.9111 -0.4123 0.4123 0.9111 -151.071 205.3319)" fill-rule="evenodd" clip-rule="evenodd" width="1.049" height="1.757"/>
							
								<rect x="398.557" y="449.068" transform="matrix(0.9109 -0.4126 0.4126 0.9109 -150.1071 204.7735)" fill-rule="evenodd" clip-rule="evenodd" width="1.05" height="1.757"/>
							
								<rect x="397.261" y="446.207" transform="matrix(0.911 -0.4123 0.4123 0.911 -148.9485 203.7742)" fill-rule="evenodd" clip-rule="evenodd" width="1.05" height="1.757"/>
						</g>
					</g>
					<g>
						<g>
							<g>
								
									<rect x="398.391" y="453.254" transform="matrix(-0.4126 -0.9109 0.9109 -0.4126 151.7672 1014.8784)" fill="none" width="9.466" height="10.498"/>
							</g>
							
								<rect x="403.761" y="460.562" transform="matrix(0.9111 -0.4123 0.4123 0.9111 -154.2787 207.7083)" fill-rule="evenodd" clip-rule="evenodd" width="1.049" height="1.757"/>
							
								<rect x="402.461" y="457.691" transform="matrix(0.9109 -0.4126 0.4126 0.9109 -153.3174 207.1529)" fill-rule="evenodd" clip-rule="evenodd" width="1.05" height="1.757"/>
							
								<rect x="401.165" y="454.83" transform="matrix(0.911 -0.4123 0.4123 0.911 -152.1564 206.1509)" fill-rule="evenodd" clip-rule="evenodd" width="1.05" height="1.757"/>
						</g>
					</g>
					<g>
						<g>
							<g>
								
									<rect x="402.296" y="461.877" transform="matrix(-0.4125 -0.911 0.911 -0.4125 149.3749 1030.5917)" fill="none" width="9.466" height="10.498"/>
							</g>
							
								<rect x="407.665" y="469.185" transform="matrix(0.9111 -0.4123 0.4123 0.9111 -157.4865 210.0848)" fill-rule="evenodd" clip-rule="evenodd" width="1.049" height="1.757"/>
							
								<rect x="406.365" y="466.314" transform="matrix(0.911 -0.4123 0.4123 0.911 -156.4288 209.3165)" fill-rule="evenodd" clip-rule="evenodd" width="1.05" height="1.757"/>
							
								<rect x="405.07" y="463.453" transform="matrix(0.911 -0.4123 0.4123 0.911 -155.3644 208.5279)" fill-rule="evenodd" clip-rule="evenodd" width="1.05" height="1.757"/>
						</g>
					</g>
					<g>
						<g>
							<g>
								
									<rect x="406.201" y="470.5" transform="matrix(-0.4125 -0.911 0.911 -0.4125 147.0349 1046.3286)" fill="none" width="9.466" height="10.499"/>
							</g>
							
								<rect x="411.57" y="477.808" transform="matrix(0.9112 -0.4119 0.4119 0.9112 -160.592 212.2419)" fill-rule="evenodd" clip-rule="evenodd" width="1.05" height="1.757"/>
							
								<rect x="410.27" y="474.937" transform="matrix(0.911 -0.4123 0.4123 0.911 -159.6368 211.6932)" fill-rule="evenodd" clip-rule="evenodd" width="1.05" height="1.757"/>
							
								<rect x="408.975" y="472.076" transform="matrix(0.9109 -0.4126 0.4126 0.9109 -158.6728 211.1226)" fill-rule="evenodd" clip-rule="evenodd" width="1.05" height="1.757"/>
						</g>
					</g>
					<g>
						<g>
							<g>
								
									<rect x="410.105" y="479.123" transform="matrix(-0.4125 -0.911 0.911 -0.4125 144.6943 1062.0651)" fill="none" width="9.466" height="10.499"/>
							</g>
							
								<rect x="415.474" y="486.431" transform="matrix(0.9112 -0.4119 0.4119 0.9112 -163.7974 214.6157)" fill-rule="evenodd" clip-rule="evenodd" width="1.05" height="1.757"/>
							
								<rect x="414.174" y="483.56" transform="matrix(0.911 -0.4123 0.4123 0.911 -162.8448 214.07)" fill-rule="evenodd" clip-rule="evenodd" width="1.05" height="1.757"/>
							
								<rect x="412.879" y="480.699" transform="matrix(0.9109 -0.4126 0.4126 0.9109 -161.8832 213.5021)" fill-rule="evenodd" clip-rule="evenodd" width="1.05" height="1.757"/>
						</g>
					</g>
					<g>
						<g>
							<g>
								
									<rect x="414.009" y="487.746" transform="matrix(-0.4125 -0.911 0.911 -0.4125 142.3536 1077.8015)" fill="none" width="9.466" height="10.499"/>
							</g>
							
								<rect x="419.379" y="495.054" transform="matrix(0.9111 -0.4123 0.4123 0.9111 -167.1095 217.2146)" fill-rule="evenodd" clip-rule="evenodd" width="1.049" height="1.757"/>
							
								<rect x="418.078" y="492.183" transform="matrix(0.911 -0.4123 0.4123 0.911 -166.0527 216.4467)" fill-rule="evenodd" clip-rule="evenodd" width="1.05" height="1.757"/>
							
								<rect x="416.783" y="489.322" transform="matrix(0.9109 -0.4126 0.4126 0.9109 -165.0935 215.8815)" fill-rule="evenodd" clip-rule="evenodd" width="1.05" height="1.757"/>
						</g>
					</g>
				</g>
			</g>
		</g>
	</g>
</g>
<g id="Layer_15">
</g>
<g id="Layer_16">
</g>
<g id="Layer_17">
</g>
<g id="Layer_18">
</g>
<g id="Layer_19">
</g>
<g id="Layer_20">
</g>
<g id="Layer_21">
</g>
<g id="Layer_22">
</g>
<g id="Layer_24">
</g>
<g id="Layer_25">
</g>
<g id="Layer_26">
</g>
<g id="Layer_27">
</g>
<g id="Layer_28">
</g>
<g id="Layer_29">
</g>
<g id="Layer_30">
</g>
<g id="Layer_31">
</g>
<g id="Layer_32">
</g>
<g id="Layer_33">
</g>
<g id="Layer_34">
</g>
<g id="Layer_35">
</g>
<g id="Layer_36">
</g>
<g id="Layer_37">
</g>
<g id="Layer_38">
</g>
<g id="Layer_39">
</g>
<g id="Layer_40">
</g>
<g id="Layer_41">
</g>
<g id="Layer_43">
</g>
</svg>
