<?xml version="1.0" encoding="utf-8"?>
<!-- Generator: Adobe Illustrator 16.0.0, SVG Export Plug-In . SVG Version: 6.00 Build 0)  -->
<!DOCTYPE svg PUBLIC "-//W3C//DTD SVG 1.1//EN" "http://www.w3.org/Graphics/SVG/1.1/DTD/svg11.dtd">
<svg version="1.1" xmlns="http://www.w3.org/2000/svg" xmlns:xlink="http://www.w3.org/1999/xlink" x="0px" y="0px"
	 width="841.89px" height="595.28px" viewBox="0 0 841.89 595.28" enable-background="new 0 0 841.89 595.28" xml:space="preserve">
<g id="Layer_1">
</g>
<g id="Layer_2">
</g>
<g id="Layer_3">
</g>
<g id="Layer_4">
</g>
<g id="Layer_5">
</g>
<g id="Layer_6">
</g>
<g id="Layer_7">
</g>
<g id="Layer_8">
</g>
<g id="Layer_9">
</g>
<g id="Layer_10">
</g>
<g id="Layer_11">
</g>
<g id="Layer_12">
</g>
<g id="Layer_13">
</g>
<g id="Layer_14">
</g>
<g id="Layer_15">
</g>
<g id="Layer_16">
</g>
<g id="Layer_17">
</g>
<g id="Layer_18">
</g>
<g id="Layer_19">
</g>
<g id="Layer_20">
</g>
<g id="Layer_21">
</g>
<g id="Layer_22">
</g>
<g id="Layer_24">
</g>
<g id="Layer_25">
</g>
<g id="Layer_26">
</g>
<g id="Layer_27">
</g>
<g id="Layer_28">
</g>
<g id="Layer_29">
	<g>
		<line fill="none" stroke="#000000" stroke-miterlimit="10" x1="420.837" y1="266.312" x2="366.582" y2="333.468"/>
		<line fill="none" stroke="#000000" stroke-miterlimit="10" x1="475.309" y1="333.22" x2="420.837" y2="266.312"/>
		<g>
			<g>
				<g>
					<g>
						<g>
							<g>
								
									<rect x="415.54" y="379.757" transform="matrix(-0.0039 1 -1 -0.0039 806.9313 -33.7679)" fill="none" width="9.488" height="10.499"/>
							</g>
							<rect x="419.925" y="380.964" fill-rule="evenodd" clip-rule="evenodd" width="1.05" height="1.762"/>
							<rect x="419.913" y="384.123" fill-rule="evenodd" clip-rule="evenodd" width="1.05" height="1.761"/>
							<rect x="419.9" y="387.271" fill-rule="evenodd" clip-rule="evenodd" width="1.05" height="1.762"/>
						</g>
					</g>
					<g>
						<g>
							<g>
								
									<rect x="415.576" y="370.269" transform="matrix(-0.0039 1 -1 -0.0039 797.48 -43.3312)" fill="none" width="9.489" height="10.499"/>
							</g>
							<rect x="419.962" y="371.475" fill-rule="evenodd" clip-rule="evenodd" width="1.05" height="1.762"/>
							<rect x="419.95" y="374.635" fill-rule="evenodd" clip-rule="evenodd" width="1.05" height="1.761"/>
							<rect x="419.938" y="377.783" fill-rule="evenodd" clip-rule="evenodd" width="1.05" height="1.761"/>
						</g>
					</g>
					<g>
						<g>
							<g>
								
									<rect x="415.614" y="360.78" transform="matrix(-0.0039 1 -1 -0.0039 788.0287 -52.8941)" fill="none" width="9.488" height="10.499"/>
							</g>
							<rect x="420" y="361.987" fill-rule="evenodd" clip-rule="evenodd" width="1.05" height="1.761"/>
							<rect x="419.987" y="365.146" fill-rule="evenodd" clip-rule="evenodd" width="1.05" height="1.762"/>
							<rect x="419.975" y="368.294" fill-rule="evenodd" clip-rule="evenodd" width="1.05" height="1.762"/>
						</g>
					</g>
					<g>
						<g>
							<g>
								
									<rect x="415.651" y="351.291" transform="matrix(-0.004 1 -1 -0.004 778.6208 -62.4197)" fill="none" width="9.488" height="10.5"/>
							</g>
							<rect x="420.037" y="352.498" fill-rule="evenodd" clip-rule="evenodd" width="1.05" height="1.762"/>
							<rect x="420.024" y="355.657" fill-rule="evenodd" clip-rule="evenodd" width="1.05" height="1.762"/>
							<rect x="420.012" y="358.805" fill-rule="evenodd" clip-rule="evenodd" width="1.05" height="1.762"/>
						</g>
					</g>
					<g>
						<g>
							<g>
								
									<rect x="415.689" y="341.803" transform="matrix(-0.0039 1 -1 -0.0039 769.1271 -72.0203)" fill="none" width="9.488" height="10.499"/>
							</g>
							<rect x="420.074" y="343.009" fill-rule="evenodd" clip-rule="evenodd" width="1.05" height="1.762"/>
							<rect x="420.062" y="346.169" fill-rule="evenodd" clip-rule="evenodd" width="1.05" height="1.761"/>
							<rect x="420.049" y="349.317" fill-rule="evenodd" clip-rule="evenodd" width="1.05" height="1.761"/>
						</g>
					</g>
					<g>
						<g>
							<g>
								
									<rect x="415.726" y="332.314" transform="matrix(-0.0039 1 -1 -0.0039 759.6759 -81.5829)" fill="none" width="9.489" height="10.499"/>
							</g>
							<rect x="420.111" y="333.521" fill-rule="evenodd" clip-rule="evenodd" width="1.05" height="1.761"/>
							<rect x="420.099" y="336.68" fill-rule="evenodd" clip-rule="evenodd" width="1.05" height="1.762"/>
							<rect x="420.086" y="339.829" fill-rule="evenodd" clip-rule="evenodd" width="1.05" height="1.761"/>
						</g>
					</g>
					<g>
						<g>
							<g>
								
									<rect x="415.763" y="322.826" transform="matrix(-0.0039 1 -1 -0.0039 750.2246 -91.1458)" fill="none" width="9.488" height="10.499"/>
							</g>
							<rect x="420.148" y="324.032" fill-rule="evenodd" clip-rule="evenodd" width="1.05" height="1.762"/>
							<rect x="420.136" y="327.191" fill-rule="evenodd" clip-rule="evenodd" width="1.05" height="1.762"/>
							<rect x="420.124" y="330.339" fill-rule="evenodd" clip-rule="evenodd" width="1.05" height="1.762"/>
						</g>
					</g>
					<g>
						<g>
							<g>
								
									<rect x="415.801" y="313.337" transform="matrix(-0.0039 1 -1 -0.0039 740.7734 -100.709)" fill="none" width="9.488" height="10.499"/>
							</g>
							<rect x="420.186" y="314.543" fill-rule="evenodd" clip-rule="evenodd" width="1.05" height="1.762"/>
							<rect x="420.173" y="317.703" fill-rule="evenodd" clip-rule="evenodd" width="1.05" height="1.761"/>
							<rect x="420.161" y="320.852" fill-rule="evenodd" clip-rule="evenodd" width="1.05" height="1.761"/>
						</g>
					</g>
					<g>
						<g>
							<g>
								
									<rect x="415.837" y="303.849" transform="matrix(-0.0039 1 -1 -0.0039 731.3224 -110.2716)" fill="none" width="9.489" height="10.499"/>
							</g>
							<rect x="420.223" y="305.056" fill-rule="evenodd" clip-rule="evenodd" width="1.05" height="1.761"/>
							<rect x="420.211" y="308.214" fill-rule="evenodd" clip-rule="evenodd" width="1.05" height="1.762"/>
							<rect x="420.198" y="311.363" fill-rule="evenodd" clip-rule="evenodd" width="1.05" height="1.761"/>
						</g>
					</g>
					<g>
						<g>
							<g>
								
									<rect x="415.875" y="294.36" transform="matrix(-0.0039 1 -1 -0.0039 721.871 -119.8345)" fill="none" width="9.488" height="10.499"/>
							</g>
							<rect x="420.26" y="295.567" fill-rule="evenodd" clip-rule="evenodd" width="1.05" height="1.761"/>
							<rect x="420.248" y="298.725" fill-rule="evenodd" clip-rule="evenodd" width="1.05" height="1.762"/>
							<rect x="420.236" y="301.874" fill-rule="evenodd" clip-rule="evenodd" width="1.05" height="1.762"/>
						</g>
					</g>
					<g>
						<g>
							<g>
								
									<rect x="415.912" y="284.872" transform="matrix(-0.004 1 -1 -0.004 712.4635 -129.3672)" fill="none" width="9.488" height="10.499"/>
							</g>
							<rect x="420.298" y="286.078" fill-rule="evenodd" clip-rule="evenodd" width="1.05" height="1.762"/>
							<rect x="420.285" y="289.237" fill-rule="evenodd" clip-rule="evenodd" width="1.05" height="1.761"/>
							<rect x="420.272" y="292.386" fill-rule="evenodd" clip-rule="evenodd" width="1.05" height="1.761"/>
						</g>
					</g>
					<g>
						<g>
							<g>
								
									<rect x="415.949" y="275.383" transform="matrix(-0.0039 1 -1 -0.0039 702.9692 -138.9608)" fill="none" width="9.489" height="10.499"/>
							</g>
							<rect x="420.334" y="276.59" fill-rule="evenodd" clip-rule="evenodd" width="1.05" height="1.761"/>
							<rect x="420.323" y="279.749" fill-rule="evenodd" clip-rule="evenodd" width="1.05" height="1.761"/>
							<rect x="420.31" y="282.897" fill-rule="evenodd" clip-rule="evenodd" width="1.05" height="1.761"/>
						</g>
					</g>
					<g>
						<g>
							<g>
								
									<rect x="415.987" y="265.894" transform="matrix(-0.0039 1 -1 -0.0039 693.5179 -148.5237)" fill="none" width="9.488" height="10.499"/>
							</g>
							<rect x="420.372" y="267.102" fill-rule="evenodd" clip-rule="evenodd" width="1.05" height="1.761"/>
							<rect x="420.359" y="270.26" fill-rule="evenodd" clip-rule="evenodd" width="1.05" height="1.762"/>
							<rect x="420.347" y="273.408" fill-rule="evenodd" clip-rule="evenodd" width="1.05" height="1.762"/>
						</g>
					</g>
				</g>
			</g>
		</g>
		<path fill="none" stroke="#000000" stroke-miterlimit="10" d="M420.734,266.229"/>
		<line fill="none" stroke="#000000" stroke-miterlimit="10" x1="420.265" y1="389.941" x2="475.215" y2="333.104"/>
		<line fill="none" stroke="#000000" stroke-miterlimit="10" x1="366.677" y1="333.089" x2="420.664" y2="389.501"/>
		<line fill="none" stroke="#000000" stroke-miterlimit="10" x1="420.734" y1="467.024" x2="475.309" y2="333.22"/>
		<line fill="none" stroke="#000000" stroke-miterlimit="10" x1="366.677" y1="333.089" x2="420.734" y2="467.024"/>
		<line fill="none" stroke="#000000" stroke-miterlimit="10" x1="420.734" y1="467.024" x2="420.268" y2="389.088"/>
		<g>
			<g>
				<g>
					<g>
						<g>
							<g>
								<g>
									<rect x="415.588" y="264.4" fill="none" width="10.499" height="8.974"/>
								</g>
								<rect x="420.466" y="265.063" fill-rule="evenodd" clip-rule="evenodd" width="1.05" height="1.666"/>
								<rect x="420.466" y="268.051" fill-rule="evenodd" clip-rule="evenodd" width="1.05" height="1.666"/>
								<rect x="420.466" y="271.028" fill-rule="evenodd" clip-rule="evenodd" width="1.05" height="1.666"/>
							</g>
						</g>
						<g>
							<g>
								<g>
									<rect x="415.588" y="255.427" fill="none" width="10.499" height="8.974"/>
								</g>
								<rect x="420.466" y="256.09" fill-rule="evenodd" clip-rule="evenodd" width="1.05" height="1.665"/>
								<rect x="420.466" y="259.077" fill-rule="evenodd" clip-rule="evenodd" width="1.05" height="1.666"/>
								<rect x="420.466" y="262.055" fill-rule="evenodd" clip-rule="evenodd" width="1.05" height="1.666"/>
							</g>
						</g>
						<g>
							<g>
								<g>
									<rect x="415.588" y="246.453" fill="none" width="10.499" height="8.974"/>
								</g>
								<rect x="420.466" y="247.116" fill-rule="evenodd" clip-rule="evenodd" width="1.05" height="1.666"/>
								<rect x="420.466" y="250.104" fill-rule="evenodd" clip-rule="evenodd" width="1.05" height="1.666"/>
								<rect x="420.466" y="253.081" fill-rule="evenodd" clip-rule="evenodd" width="1.05" height="1.666"/>
							</g>
						</g>
						<g>
							<g>
								<g>
									<rect x="415.588" y="237.479" fill="none" width="10.499" height="8.974"/>
								</g>
								<rect x="420.466" y="238.143" fill-rule="evenodd" clip-rule="evenodd" width="1.05" height="1.665"/>
								<rect x="420.466" y="241.13" fill-rule="evenodd" clip-rule="evenodd" width="1.05" height="1.666"/>
								<rect x="420.466" y="244.107" fill-rule="evenodd" clip-rule="evenodd" width="1.05" height="1.666"/>
							</g>
						</g>
						<g>
							<g>
								<g>
									<rect x="415.588" y="228.506" fill="none" width="10.499" height="8.974"/>
								</g>
								<rect x="420.466" y="229.169" fill-rule="evenodd" clip-rule="evenodd" width="1.05" height="1.666"/>
								<rect x="420.466" y="232.156" fill-rule="evenodd" clip-rule="evenodd" width="1.05" height="1.666"/>
								<rect x="420.466" y="235.134" fill-rule="evenodd" clip-rule="evenodd" width="1.05" height="1.666"/>
							</g>
						</g>
						<g>
							<g>
								<g>
									<rect x="415.588" y="219.532" fill="none" width="10.499" height="8.974"/>
								</g>
								<rect x="420.466" y="220.195" fill-rule="evenodd" clip-rule="evenodd" width="1.05" height="1.665"/>
								<rect x="420.466" y="223.183" fill-rule="evenodd" clip-rule="evenodd" width="1.05" height="1.666"/>
								<rect x="420.466" y="226.16" fill-rule="evenodd" clip-rule="evenodd" width="1.05" height="1.666"/>
							</g>
						</g>
						<g>
							<g>
								<g>
									<rect x="415.588" y="210.559" fill="none" width="10.499" height="8.974"/>
								</g>
								<rect x="420.466" y="211.222" fill-rule="evenodd" clip-rule="evenodd" width="1.05" height="1.666"/>
								<rect x="420.466" y="214.209" fill-rule="evenodd" clip-rule="evenodd" width="1.05" height="1.666"/>
								<rect x="420.466" y="217.187" fill-rule="evenodd" clip-rule="evenodd" width="1.05" height="1.666"/>
							</g>
						</g>
						<g>
							<g>
								<g>
									<rect x="415.588" y="201.585" fill="none" width="10.499" height="8.974"/>
								</g>
								<rect x="420.466" y="202.248" fill-rule="evenodd" clip-rule="evenodd" width="1.05" height="1.665"/>
								<rect x="420.466" y="205.235" fill-rule="evenodd" clip-rule="evenodd" width="1.05" height="1.666"/>
								<rect x="420.466" y="208.213" fill-rule="evenodd" clip-rule="evenodd" width="1.05" height="1.666"/>
							</g>
						</g>
						<g>
							<g>
								<g>
									<rect x="415.588" y="192.611" fill="none" width="10.499" height="8.974"/>
								</g>
								<rect x="420.466" y="193.274" fill-rule="evenodd" clip-rule="evenodd" width="1.05" height="1.666"/>
								<rect x="420.466" y="196.262" fill-rule="evenodd" clip-rule="evenodd" width="1.05" height="1.666"/>
								<rect x="420.466" y="199.239" fill-rule="evenodd" clip-rule="evenodd" width="1.05" height="1.666"/>
							</g>
						</g>
					</g>
				</g>
			</g>
			<line fill="none" stroke="#000000" stroke-miterlimit="10" x1="386.481" y1="272.378" x2="391.568" y2="302.06"/>
			<line fill="none" stroke="#000000" stroke-miterlimit="10" x1="420.837" y1="192.611" x2="386.481" y2="272.557"/>
			<line fill="none" stroke="#000000" stroke-miterlimit="10" x1="455.193" y1="272.557" x2="420.837" y2="192.611"/>
			<line fill="none" stroke="#000000" stroke-miterlimit="10" x1="455.193" y1="272.557" x2="450.168" y2="301.881"/>
		</g>
	</g>
</g>
<g id="Layer_30">
</g>
<g id="Layer_31">
</g>
<g id="Layer_32">
</g>
<g id="Layer_33">
</g>
<g id="Layer_34">
</g>
<g id="Layer_35">
</g>
<g id="Layer_36">
</g>
<g id="Layer_37">
</g>
<g id="Layer_38">
</g>
<g id="Layer_39">
</g>
<g id="Layer_40">
</g>
<g id="Layer_41">
</g>
<g id="Layer_43">
</g>
</svg>
