<?xml version="1.0" encoding="utf-8"?>
<!-- Generator: Adobe Illustrator 16.0.0, SVG Export Plug-In . SVG Version: 6.00 Build 0)  -->
<!DOCTYPE svg PUBLIC "-//W3C//DTD SVG 1.1//EN" "http://www.w3.org/Graphics/SVG/1.1/DTD/svg11.dtd">
<svg version="1.1" xmlns="http://www.w3.org/2000/svg" xmlns:xlink="http://www.w3.org/1999/xlink" x="0px" y="0px"
	 width="841.89px" height="595.28px" viewBox="0 0 841.89 595.28" enable-background="new 0 0 841.89 595.28" xml:space="preserve">
<g id="Layer_1">
</g>
<g id="Layer_2">
</g>
<g id="Layer_3">
</g>
<g id="Layer_4">
</g>
<g id="Layer_5">
</g>
<g id="Layer_6">
</g>
<g id="Layer_7">
</g>
<g id="Layer_8">
	<g>
		<g>
			<polygon fill="none" stroke="#000000" stroke-miterlimit="10" points="300.657,417.547 432.343,427.594 562.677,438.867 
				420.944,438.867 279.212,438.867 279.212,297.136 279.212,155.403 290.61,285.862 			"/>
			<g>
				<g>
					<path fill="none" stroke="#000000" stroke-width="0.7" stroke-miterlimit="10" d="M279.22,297.136"/>
				</g>
			</g>
			<g>
				<g>
					<path fill="none" stroke="#000000" stroke-width="0.7" stroke-miterlimit="10" d="M432.351,427.594"/>
				</g>
			</g>
			<g>
				<g>
					<g>
						<g>
							<g>
								<g>
									
										<rect x="416.453" y="296.791" transform="matrix(-0.093 -0.9957 0.9957 -0.093 159.5539 749.4274)" fill="none" width="9.341" height="10.499"/>
								</g>
								
									<rect x="420.735" y="304.288" transform="matrix(0.9957 -0.093 0.093 0.9957 -26.5562 40.5039)" fill-rule="evenodd" clip-rule="evenodd" width="1.05" height="1.734"/>
								
									<rect x="420.445" y="301.192" transform="matrix(0.9957 -0.093 0.093 0.9957 -26.2581 40.4442)" fill-rule="evenodd" clip-rule="evenodd" width="1.05" height="1.734"/>
								
									<rect x="420.157" y="298.106" transform="matrix(0.9957 -0.093 0.093 0.9957 -25.9837 40.4233)" fill-rule="evenodd" clip-rule="evenodd" width="1.05" height="1.734"/>
							</g>
						</g>
						<g>
							<g>
								<g>
									
										<rect x="417.322" y="306.091" transform="matrix(-0.093 -0.9957 0.9957 -0.093 151.2436 760.4578)" fill="none" width="9.341" height="10.5"/>
								</g>
								
									<rect x="421.603" y="313.588" transform="matrix(0.9957 -0.093 0.093 0.9957 -27.4174 40.625)" fill-rule="evenodd" clip-rule="evenodd" width="1.05" height="1.734"/>
								
									<rect x="421.314" y="310.492" transform="matrix(0.9957 -0.093 0.093 0.9957 -27.1308 40.5847)" fill-rule="evenodd" clip-rule="evenodd" width="1.05" height="1.734"/>
								
									<rect x="421.026" y="307.406" transform="matrix(0.9957 -0.093 0.093 0.9957 -26.8334 40.5251)" fill-rule="evenodd" clip-rule="evenodd" width="1.05" height="1.734"/>
							</g>
						</g>
						<g>
							<g>
								<g>
									
										<rect x="418.19" y="315.392" transform="matrix(-0.0931 -0.9957 0.9957 -0.0931 142.9586 771.5032)" fill="none" width="9.34" height="10.499"/>
								</g>
								
									<rect x="422.472" y="322.888" transform="matrix(0.9957 -0.093 0.093 0.9957 -28.2664 40.7266)" fill-rule="evenodd" clip-rule="evenodd" width="1.05" height="1.734"/>
								
									<rect x="422.183" y="319.792" transform="matrix(0.9957 -0.093 0.093 0.9957 -27.9799 40.6863)" fill-rule="evenodd" clip-rule="evenodd" width="1.05" height="1.734"/>
								
									<rect x="421.895" y="316.706" transform="matrix(0.9957 -0.0931 0.0931 0.9957 -27.7182 40.6851)" fill-rule="evenodd" clip-rule="evenodd" width="1.049" height="1.734"/>
							</g>
						</g>
						<g>
							<g>
								<g>
									
										<rect x="419.059" y="324.692" transform="matrix(-0.093 -0.9957 0.9957 -0.093 134.6208 782.5165)" fill="none" width="9.341" height="10.499"/>
								</g>
								
									<rect x="423.341" y="332.189" transform="matrix(0.9957 -0.093 0.093 0.9957 -29.1273 40.8477)" fill-rule="evenodd" clip-rule="evenodd" width="1.05" height="1.734"/>
								
									<rect x="423.052" y="329.092" transform="matrix(0.9957 -0.0931 0.0931 0.9957 -28.8657 40.8465)" fill-rule="evenodd" clip-rule="evenodd" width="1.049" height="1.734"/>
								
									<rect x="422.764" y="326.007" transform="matrix(0.9957 -0.0931 0.0931 0.9957 -28.5798 40.8063)" fill-rule="evenodd" clip-rule="evenodd" width="1.049" height="1.734"/>
							</g>
						</g>
						<g>
							<g>
								<g>
									
										<rect x="419.928" y="333.992" transform="matrix(-0.0931 -0.9957 0.9957 -0.0931 126.3385 793.5651)" fill="none" width="9.34" height="10.499"/>
								</g>
								
									<rect x="424.21" y="341.489" transform="matrix(0.9957 -0.0931 0.0931 0.9957 -30.0142 41.008)" fill-rule="evenodd" clip-rule="evenodd" width="1.049" height="1.734"/>
								
									<rect x="423.921" y="338.393" transform="matrix(0.9957 -0.0931 0.0931 0.9957 -29.7274 40.9677)" fill-rule="evenodd" clip-rule="evenodd" width="1.049" height="1.734"/>
								
									<rect x="423.632" y="335.307" transform="matrix(0.9957 -0.093 0.093 0.9957 -29.4159 40.8882)" fill-rule="evenodd" clip-rule="evenodd" width="1.05" height="1.734"/>
							</g>
						</g>
						<g>
							<g>
								<g>
									
										<rect x="420.797" y="343.292" transform="matrix(-0.093 -0.9957 0.9957 -0.093 118.0023 804.578)" fill="none" width="9.341" height="10.499"/>
								</g>
								
									<rect x="425.079" y="350.789" transform="matrix(0.9957 -0.093 0.093 0.9957 -30.849 41.0898)" fill-rule="evenodd" clip-rule="evenodd" width="1.05" height="1.734"/>
								
									<rect x="424.789" y="347.693" transform="matrix(0.9957 -0.093 0.093 0.9957 -30.5624 41.0494)" fill-rule="evenodd" clip-rule="evenodd" width="1.05" height="1.734"/>
								
									<rect x="424.501" y="344.607" transform="matrix(0.9957 -0.093 0.093 0.9957 -30.2767 41.0093)" fill-rule="evenodd" clip-rule="evenodd" width="1.05" height="1.734"/>
							</g>
						</g>
						<g>
							<g>
								<g>
									
										<rect x="421.666" y="352.593" transform="matrix(-0.093 -0.9957 0.9957 -0.093 109.7159 815.6248)" fill="none" width="9.341" height="10.499"/>
								</g>
								
									<rect x="425.947" y="360.09" transform="matrix(0.9957 -0.093 0.093 0.9957 -31.7098 41.2108)" fill-rule="evenodd" clip-rule="evenodd" width="1.05" height="1.734"/>
								
									<rect x="425.658" y="356.993" transform="matrix(0.9957 -0.093 0.093 0.9957 -31.4232 41.1705)" fill-rule="evenodd" clip-rule="evenodd" width="1.05" height="1.734"/>
								
									<rect x="425.37" y="353.907" transform="matrix(0.9957 -0.0931 0.0931 0.9957 -31.1647 41.1699)" fill-rule="evenodd" clip-rule="evenodd" width="1.049" height="1.734"/>
							</g>
						</g>
						<g>
							<g>
								<g>
									
										<rect x="422.535" y="361.893" transform="matrix(-0.093 -0.9957 0.9957 -0.093 101.4059 826.6558)" fill="none" width="9.341" height="10.499"/>
								</g>
								
									<rect x="426.817" y="369.39" transform="matrix(0.9957 -0.0931 0.0931 0.9957 -32.5991 41.3716)" fill-rule="evenodd" clip-rule="evenodd" width="1.049" height="1.734"/>
								
									<rect x="426.527" y="366.293" transform="matrix(0.9957 -0.0931 0.0931 0.9957 -32.3123 41.3313)" fill-rule="evenodd" clip-rule="evenodd" width="1.049" height="1.734"/>
								
									<rect x="426.239" y="363.207" transform="matrix(0.9957 -0.093 0.093 0.9957 -31.9984 41.2514)" fill-rule="evenodd" clip-rule="evenodd" width="1.05" height="1.734"/>
							</g>
						</g>
						<g>
							<g>
								<g>
									
										<rect x="423.404" y="371.193" transform="matrix(-0.0929 -0.9957 0.9957 -0.0929 93.048 837.6519)" fill="none" width="9.341" height="10.5"/>
								</g>
								
									<rect x="427.686" y="378.69" transform="matrix(0.9957 -0.0931 0.0931 0.9957 -33.4608 41.4929)" fill-rule="evenodd" clip-rule="evenodd" width="1.049" height="1.734"/>
								
									<rect x="427.396" y="375.594" transform="matrix(0.9957 -0.093 0.093 0.9957 -33.145 41.4127)" fill-rule="evenodd" clip-rule="evenodd" width="1.05" height="1.734"/>
								
									<rect x="427.108" y="372.507" transform="matrix(0.9957 -0.093 0.093 0.9957 -32.8593 41.3724)" fill-rule="evenodd" clip-rule="evenodd" width="1.05" height="1.734"/>
							</g>
						</g>
						<g>
							<g>
								<g>
									
										<rect x="424.272" y="380.493" transform="matrix(-0.0931 -0.9957 0.9957 -0.0931 84.7875 848.7183)" fill="none" width="9.34" height="10.499"/>
								</g>
								
									<rect x="428.554" y="387.99" transform="matrix(0.9957 -0.093 0.093 0.9957 -34.2923 41.5739)" fill-rule="evenodd" clip-rule="evenodd" width="1.05" height="1.734"/>
								
									<rect x="428.265" y="384.894" transform="matrix(0.9957 -0.093 0.093 0.9957 -34.0058 41.5337)" fill-rule="evenodd" clip-rule="evenodd" width="1.05" height="1.734"/>
								
									<rect x="427.977" y="381.808" transform="matrix(0.9957 -0.0931 0.0931 0.9957 -33.7496 41.5334)" fill-rule="evenodd" clip-rule="evenodd" width="1.049" height="1.734"/>
							</g>
						</g>
						<g>
							<g>
								<g>
									
										<rect x="425.141" y="389.794" transform="matrix(-0.093 -0.9957 0.9957 -0.093 76.473 859.7458)" fill="none" width="9.341" height="10.499"/>
								</g>
								
									<rect x="429.423" y="397.29" transform="matrix(0.9957 -0.093 0.093 0.9957 -35.1532 41.695)" fill-rule="evenodd" clip-rule="evenodd" width="1.05" height="1.734"/>
								
									<rect x="429.134" y="394.194" transform="matrix(0.9957 -0.0931 0.0931 0.9957 -34.8972 41.6949)" fill-rule="evenodd" clip-rule="evenodd" width="1.049" height="1.734"/>
								
									<rect x="428.846" y="391.108" transform="matrix(0.9957 -0.0931 0.0931 0.9957 -34.6113 41.6547)" fill-rule="evenodd" clip-rule="evenodd" width="1.049" height="1.734"/>
							</g>
						</g>
						<g>
							<g>
								<g>
									
										<rect x="426.011" y="399.093" transform="matrix(-0.0929 -0.9957 0.9957 -0.0929 68.1191 870.7427)" fill="none" width="9.34" height="10.5"/>
								</g>
								
									<rect x="430.292" y="406.59" transform="matrix(0.9957 -0.0931 0.0931 0.9957 -36.0457 41.8564)" fill-rule="evenodd" clip-rule="evenodd" width="1.049" height="1.734"/>
								
									<rect x="430.003" y="403.494" transform="matrix(0.9957 -0.0931 0.0931 0.9957 -35.7589 41.8161)" fill-rule="evenodd" clip-rule="evenodd" width="1.049" height="1.734"/>
								
									<rect x="429.714" y="400.408" transform="matrix(0.9957 -0.093 0.093 0.9957 -35.4418 41.7356)" fill-rule="evenodd" clip-rule="evenodd" width="1.05" height="1.734"/>
							</g>
						</g>
						<g>
							<g>
								<g>
									
										<rect x="426.878" y="408.394" transform="matrix(-0.093 -0.9957 0.9957 -0.093 59.8546 881.8085)" fill="none" width="9.341" height="10.499"/>
								</g>
								
									<rect x="431.161" y="415.891" transform="matrix(0.9957 -0.093 0.093 0.9957 -36.8749 41.9371)" fill-rule="evenodd" clip-rule="evenodd" width="1.05" height="1.734"/>
								
									<rect x="430.871" y="412.795" transform="matrix(0.9957 -0.093 0.093 0.9957 -36.5883 41.8968)" fill-rule="evenodd" clip-rule="evenodd" width="1.05" height="1.734"/>
								
									<rect x="430.583" y="409.709" transform="matrix(0.9957 -0.093 0.093 0.9957 -36.3026 41.8567)" fill-rule="evenodd" clip-rule="evenodd" width="1.05" height="1.734"/>
							</g>
						</g>
						<g>
							<g>
								<g>
									
										<rect x="427.748" y="417.694" transform="matrix(-0.093 -0.9957 0.9957 -0.093 51.5447 892.8395)" fill="none" width="9.341" height="10.499"/>
								</g>
								
									<rect x="432.029" y="425.191" transform="matrix(0.9957 -0.093 0.093 0.9957 -37.7357 42.0582)" fill-rule="evenodd" clip-rule="evenodd" width="1.05" height="1.734"/>
								
									<rect x="431.74" y="422.095" transform="matrix(0.9957 -0.093 0.093 0.9957 -37.4492 42.0179)" fill-rule="evenodd" clip-rule="evenodd" width="1.05" height="1.734"/>
								
									<rect x="431.452" y="419.009" transform="matrix(0.9957 -0.0931 0.0931 0.9957 -37.1962 42.0183)" fill-rule="evenodd" clip-rule="evenodd" width="1.049" height="1.734"/>
							</g>
						</g>
					</g>
				</g>
			</g>
			<g>
				<g>
					<g>
						<g>
							<g>
								<rect x="278.702" y="291.886" fill="none" width="12.768" height="10.499"/>
							</g>
							<rect x="288.157" y="296.764" fill-rule="evenodd" clip-rule="evenodd" width="2.37" height="1.05"/>
							<rect x="283.906" y="296.764" fill-rule="evenodd" clip-rule="evenodd" width="2.37" height="1.05"/>
							<rect x="279.669" y="296.764" fill-rule="evenodd" clip-rule="evenodd" width="2.37" height="1.05"/>
						</g>
					</g>
				</g>
			</g>
			<g>
				<g>
					<g>
						<g>
							<g>
								
									<rect x="414.479" y="427.791" transform="matrix(-0.0202 -0.9998 0.9998 -0.0202 -3.6416 862.5127)" fill="none" width="12.675" height="10.499"/>
							</g>
							
								<rect x="420.223" y="436.091" transform="matrix(0.9998 -0.02 0.02 0.9998 -8.6595 8.5007)" fill-rule="evenodd" clip-rule="evenodd" width="1.05" height="2.353"/>
							
								<rect x="420.138" y="431.873" transform="matrix(0.9998 -0.02 0.02 0.9998 -8.5751 8.4981)" fill-rule="evenodd" clip-rule="evenodd" width="1.05" height="2.353"/>
							
								<rect x="420.053" y="427.668" transform="matrix(0.9998 -0.0205 0.0205 0.9998 -8.6865 8.6952)" fill-rule="evenodd" clip-rule="evenodd" width="1.05" height="2.353"/>
						</g>
					</g>
				</g>
			</g>
			<g>
				<g>
					<g>
						<g>
							<g>
								<g>
									
										<rect x="290.591" y="280.522" transform="matrix(-0.9959 -0.0901 0.0901 -0.9959 563.5953 596.972)" fill="none" width="9.348" height="10.499"/>
								</g>
								
									<rect x="297.829" y="285.338" transform="matrix(0.0902 -0.9959 0.9959 0.0902 -13.5958 557.5273)" fill-rule="evenodd" clip-rule="evenodd" width="1.05" height="1.735"/>
								
									<rect x="294.73" y="285.057" transform="matrix(0.0902 -0.9959 0.9959 0.0902 -16.1363 554.1859)" fill-rule="evenodd" clip-rule="evenodd" width="1.05" height="1.735"/>
								
									<rect x="291.641" y="284.778" transform="matrix(0.0902 -0.9959 0.9959 0.0902 -18.6688 550.855)" fill-rule="evenodd" clip-rule="evenodd" width="1.05" height="1.735"/>
							</g>
						</g>
						<g>
							<g>
								<g>
									
										<rect x="299.901" y="281.364" transform="matrix(-0.9959 -0.0901 0.0901 -0.9959 582.1008 599.4905)" fill="none" width="9.348" height="10.499"/>
								</g>
								
									<rect x="307.139" y="286.179" transform="matrix(0.0902 -0.9959 0.9959 0.0902 -5.9644 567.5648)" fill-rule="evenodd" clip-rule="evenodd" width="1.05" height="1.735"/>
								
									<rect x="304.04" y="285.899" transform="matrix(0.0902 -0.9959 0.9959 0.0902 -8.5048 564.2233)" fill-rule="evenodd" clip-rule="evenodd" width="1.05" height="1.735"/>
								
									<rect x="300.95" y="285.62" transform="matrix(0.0902 -0.9959 0.9959 0.0902 -11.0374 560.8925)" fill-rule="evenodd" clip-rule="evenodd" width="1.05" height="1.735"/>
							</g>
						</g>
						<g>
							<g>
								<g>
									
										<rect x="309.211" y="282.206" transform="matrix(-0.9959 -0.0901 0.0901 -0.9959 600.6063 602.0091)" fill="none" width="9.348" height="10.499"/>
								</g>
								
									<rect x="316.448" y="287.021" transform="matrix(0.0902 -0.9959 0.9959 0.0902 1.6671 577.6023)" fill-rule="evenodd" clip-rule="evenodd" width="1.05" height="1.735"/>
								
									<rect x="313.349" y="286.741" transform="matrix(0.0902 -0.9959 0.9959 0.0902 -0.8733 574.2608)" fill-rule="evenodd" clip-rule="evenodd" width="1.05" height="1.735"/>
								
									<rect x="310.26" y="286.462" transform="matrix(0.0902 -0.9959 0.9959 0.0902 -3.4059 570.9299)" fill-rule="evenodd" clip-rule="evenodd" width="1.05" height="1.735"/>
							</g>
						</g>
						<g>
							<g>
								<g>
									
										<rect x="318.52" y="283.048" transform="matrix(-0.9959 -0.0901 0.0901 -0.9959 619.1118 604.5276)" fill="none" width="9.348" height="10.499"/>
								</g>
								
									<rect x="325.758" y="287.863" transform="matrix(0.0902 -0.9959 0.9959 0.0902 9.2986 587.6398)" fill-rule="evenodd" clip-rule="evenodd" width="1.05" height="1.735"/>
								
									<rect x="322.659" y="287.583" transform="matrix(0.0902 -0.9959 0.9959 0.0902 6.7582 584.2983)" fill-rule="evenodd" clip-rule="evenodd" width="1.05" height="1.735"/>
								
									<rect x="319.569" y="287.303" transform="matrix(0.0902 -0.9959 0.9959 0.0902 4.2256 580.9674)" fill-rule="evenodd" clip-rule="evenodd" width="1.05" height="1.735"/>
							</g>
						</g>
						<g>
							<g>
								<g>
									
										<rect x="327.83" y="283.889" transform="matrix(-0.9959 -0.0901 0.0901 -0.9959 637.6173 607.0462)" fill="none" width="9.348" height="10.499"/>
								</g>
								
									<rect x="335.067" y="288.705" transform="matrix(0.0902 -0.9959 0.9959 0.0902 16.9301 597.6772)" fill-rule="evenodd" clip-rule="evenodd" width="1.05" height="1.735"/>
								
									<rect x="331.968" y="288.424" transform="matrix(0.0902 -0.9959 0.9959 0.0902 14.3896 594.3358)" fill-rule="evenodd" clip-rule="evenodd" width="1.05" height="1.735"/>
								
									<rect x="328.879" y="288.145" transform="matrix(0.0902 -0.9959 0.9959 0.0902 11.8571 591.0049)" fill-rule="evenodd" clip-rule="evenodd" width="1.05" height="1.735"/>
							</g>
						</g>
						<g>
							<g>
								<g>
									
										<rect x="337.139" y="284.731" transform="matrix(-0.9959 -0.0901 0.0901 -0.9959 656.1228 609.5648)" fill="none" width="9.348" height="10.499"/>
								</g>
								
									<rect x="344.377" y="289.547" transform="matrix(0.0902 -0.9959 0.9959 0.0902 24.5616 607.7147)" fill-rule="evenodd" clip-rule="evenodd" width="1.05" height="1.735"/>
								
									<rect x="341.278" y="289.266" transform="matrix(0.0902 -0.9959 0.9959 0.0902 22.0211 604.3733)" fill-rule="evenodd" clip-rule="evenodd" width="1.05" height="1.735"/>
								
									<rect x="338.189" y="288.987" transform="matrix(0.0902 -0.9959 0.9959 0.0902 19.4886 601.0424)" fill-rule="evenodd" clip-rule="evenodd" width="1.05" height="1.735"/>
							</g>
						</g>
						<g>
							<g>
								<g>
									
										<rect x="346.449" y="285.573" transform="matrix(-0.9959 -0.0901 0.0901 -0.9959 674.6283 612.0833)" fill="none" width="9.348" height="10.499"/>
								</g>
								
									<rect x="353.687" y="290.388" transform="matrix(0.0902 -0.9959 0.9959 0.0902 32.193 617.7522)" fill-rule="evenodd" clip-rule="evenodd" width="1.05" height="1.735"/>
								
									<rect x="350.587" y="290.108" transform="matrix(0.0902 -0.9959 0.9959 0.0902 29.6526 614.4108)" fill-rule="evenodd" clip-rule="evenodd" width="1.05" height="1.735"/>
								
									<rect x="347.498" y="289.829" transform="matrix(0.0902 -0.9959 0.9959 0.0902 27.1201 611.0799)" fill-rule="evenodd" clip-rule="evenodd" width="1.05" height="1.735"/>
							</g>
						</g>
						<g>
							<g>
								<g>
									
										<rect x="355.758" y="286.415" transform="matrix(-0.9959 -0.0901 0.0901 -0.9959 693.1338 614.6019)" fill="none" width="9.348" height="10.499"/>
								</g>
								
									<rect x="362.996" y="291.23" transform="matrix(0.0902 -0.9959 0.9959 0.0902 39.8245 627.7897)" fill-rule="evenodd" clip-rule="evenodd" width="1.05" height="1.735"/>
								
									<rect x="359.897" y="290.95" transform="matrix(0.0902 -0.9959 0.9959 0.0902 37.2841 624.4482)" fill-rule="evenodd" clip-rule="evenodd" width="1.05" height="1.735"/>
								
									<rect x="356.808" y="290.671" transform="matrix(0.0902 -0.9959 0.9959 0.0902 34.7515 621.1174)" fill-rule="evenodd" clip-rule="evenodd" width="1.05" height="1.735"/>
							</g>
						</g>
						<g>
							<g>
								<g>
									
										<rect x="365.068" y="287.257" transform="matrix(-0.9959 -0.0901 0.0901 -0.9959 711.6393 617.1204)" fill="none" width="9.348" height="10.499"/>
								</g>
								
									<rect x="372.306" y="292.072" transform="matrix(0.0902 -0.9959 0.9959 0.0902 47.456 637.8272)" fill-rule="evenodd" clip-rule="evenodd" width="1.05" height="1.735"/>
								
									<rect x="369.207" y="291.792" transform="matrix(0.0902 -0.9959 0.9959 0.0902 44.9156 634.4857)" fill-rule="evenodd" clip-rule="evenodd" width="1.05" height="1.735"/>
								
									<rect x="366.117" y="291.512" transform="matrix(0.0902 -0.9959 0.9959 0.0902 42.383 631.1549)" fill-rule="evenodd" clip-rule="evenodd" width="1.05" height="1.735"/>
							</g>
						</g>
						<g>
							<g>
								<g>
									
										<rect x="374.378" y="288.098" transform="matrix(-0.9959 -0.0901 0.0901 -0.9959 730.1448 619.6389)" fill="none" width="9.348" height="10.499"/>
								</g>
								
									<rect x="381.615" y="292.914" transform="matrix(0.0902 -0.9959 0.9959 0.0902 55.0875 647.8647)" fill-rule="evenodd" clip-rule="evenodd" width="1.05" height="1.735"/>
								
									<rect x="378.516" y="292.633" transform="matrix(0.0902 -0.9959 0.9959 0.0902 52.547 644.5232)" fill-rule="evenodd" clip-rule="evenodd" width="1.05" height="1.735"/>
								
									<rect x="375.427" y="292.354" transform="matrix(0.0902 -0.9959 0.9959 0.0902 50.0145 641.1924)" fill-rule="evenodd" clip-rule="evenodd" width="1.05" height="1.735"/>
							</g>
						</g>
						<g>
							<g>
								<g>
									
										<rect x="383.687" y="288.94" transform="matrix(-0.9959 -0.0901 0.0901 -0.9959 748.6504 622.1575)" fill="none" width="9.348" height="10.499"/>
								</g>
								
									<rect x="390.925" y="293.755" transform="matrix(0.0902 -0.9959 0.9959 0.0902 62.7189 657.9022)" fill-rule="evenodd" clip-rule="evenodd" width="1.05" height="1.735"/>
								
									<rect x="387.826" y="293.475" transform="matrix(0.0902 -0.9959 0.9959 0.0902 60.1785 654.5607)" fill-rule="evenodd" clip-rule="evenodd" width="1.05" height="1.735"/>
								
									<rect x="384.736" y="293.196" transform="matrix(0.0902 -0.9959 0.9959 0.0902 57.646 651.2299)" fill-rule="evenodd" clip-rule="evenodd" width="1.05" height="1.735"/>
							</g>
						</g>
						<g>
							<g>
								<g>
									
										<rect x="392.997" y="289.782" transform="matrix(-0.9959 -0.0901 0.0901 -0.9959 767.1559 624.676)" fill="none" width="9.348" height="10.499"/>
								</g>
								
									<rect x="400.234" y="294.597" transform="matrix(0.0902 -0.9959 0.9959 0.0902 70.3504 667.9397)" fill-rule="evenodd" clip-rule="evenodd" width="1.05" height="1.735"/>
								
									<rect x="397.135" y="294.317" transform="matrix(0.0902 -0.9959 0.9959 0.0902 67.81 664.5982)" fill-rule="evenodd" clip-rule="evenodd" width="1.05" height="1.735"/>
								
									<rect x="394.046" y="294.038" transform="matrix(0.0902 -0.9959 0.9959 0.0902 65.2775 661.2673)" fill-rule="evenodd" clip-rule="evenodd" width="1.05" height="1.735"/>
							</g>
						</g>
						<g>
							<g>
								<g>
									
										<rect x="402.306" y="290.624" transform="matrix(-0.9959 -0.0901 0.0901 -0.9959 785.6614 627.1946)" fill="none" width="9.348" height="10.499"/>
								</g>
								
									<rect x="409.544" y="295.439" transform="matrix(0.0902 -0.9959 0.9959 0.0902 77.9819 677.9772)" fill-rule="evenodd" clip-rule="evenodd" width="1.05" height="1.735"/>
								
									<rect x="406.445" y="295.159" transform="matrix(0.0902 -0.9959 0.9959 0.0902 75.4414 674.6357)" fill-rule="evenodd" clip-rule="evenodd" width="1.05" height="1.735"/>
								
									<rect x="403.356" y="294.88" transform="matrix(0.0902 -0.9959 0.9959 0.0902 72.9089 671.3048)" fill-rule="evenodd" clip-rule="evenodd" width="1.05" height="1.735"/>
							</g>
						</g>
						<g>
							<g>
								<g>
									
										<rect x="411.616" y="291.465" transform="matrix(-0.9959 -0.0901 0.0901 -0.9959 804.1669 629.7131)" fill="none" width="9.348" height="10.499"/>
								</g>
								
									<rect x="418.854" y="296.281" transform="matrix(0.0902 -0.9959 0.9959 0.0902 85.6134 688.0146)" fill-rule="evenodd" clip-rule="evenodd" width="1.05" height="1.735"/>
								
									<rect x="415.754" y="296.001" transform="matrix(0.0902 -0.9959 0.9959 0.0902 83.0729 684.6732)" fill-rule="evenodd" clip-rule="evenodd" width="1.05" height="1.735"/>
								
									<rect x="412.665" y="295.721" transform="matrix(0.0902 -0.9959 0.9959 0.0902 80.5404 681.3423)" fill-rule="evenodd" clip-rule="evenodd" width="1.05" height="1.735"/>
							</g>
						</g>
					</g>
				</g>
			</g>
		</g>
		<g>
			<g>
				<g>
					<g>
						<g>
							<g>
								
									<rect x="554.466" y="430.577" transform="matrix(0.7071 0.7071 -0.7071 0.7071 471.9667 -267.715)" fill="none" width="9.323" height="10.499"/>
							</g>
							
								<rect x="556.513" y="432.656" transform="matrix(-0.7076 0.7066 -0.7066 -0.7076 1257.5264 346.6418)" fill-rule="evenodd" clip-rule="evenodd" width="1.05" height="1.73"/>
							
								<rect x="558.708" y="434.85" transform="matrix(-0.7069 0.7073 -0.7073 -0.7069 1262.739 348.1443)" fill-rule="evenodd" clip-rule="evenodd" width="1.05" height="1.73"/>
							
								<rect x="560.895" y="437.038" transform="matrix(-0.7069 0.7073 -0.7073 -0.7069 1268.02 350.3308)" fill-rule="evenodd" clip-rule="evenodd" width="1.05" height="1.73"/>
						</g>
					</g>
					<g>
						<g>
							<g>
								
									<rect x="547.873" y="423.985" transform="matrix(0.7071 0.7071 -0.7071 0.7071 465.3227 -264.9779)" fill="none" width="9.323" height="10.499"/>
							</g>
							
								<rect x="549.921" y="426.064" transform="matrix(-0.7069 0.7073 -0.7073 -0.7069 1241.5254 339.3622)" fill-rule="evenodd" clip-rule="evenodd" width="1.05" height="1.73"/>
							
								<rect x="552.116" y="428.259" transform="matrix(-0.7071 0.7071 -0.7071 -0.7071 1246.8528 341.7838)" fill-rule="evenodd" clip-rule="evenodd" width="1.05" height="1.73"/>
							
								<rect x="554.303" y="430.446" transform="matrix(-0.7071 0.7071 -0.7071 -0.7071 1252.1329 343.9716)" fill-rule="evenodd" clip-rule="evenodd" width="1.05" height="1.73"/>
						</g>
					</g>
					<g>
						<g>
							<g>
								
									<rect x="541.281" y="417.393" transform="matrix(0.7071 0.7071 -0.7071 0.7071 458.7563 -262.2504)" fill="none" width="9.322" height="10.499"/>
							</g>
							
								<rect x="543.328" y="419.471" transform="matrix(-0.7073 0.7069 -0.7069 -0.7073 1225.6676 333.221)" fill-rule="evenodd" clip-rule="evenodd" width="1.051" height="1.73"/>
							
								<rect x="545.523" y="421.666" transform="matrix(-0.7069 0.7073 -0.7073 -0.7069 1230.9089 334.9667)" fill-rule="evenodd" clip-rule="evenodd" width="1.05" height="1.73"/>
							
								<rect x="547.711" y="423.854" transform="matrix(-0.7071 0.7071 -0.7071 -0.7071 1236.2186 337.379)" fill-rule="evenodd" clip-rule="evenodd" width="1.05" height="1.73"/>
						</g>
					</g>
					<g>
						<g>
							<g>
								
									<rect x="534.688" y="410.801" transform="matrix(0.7071 0.7071 -0.7071 0.7071 452.1391 -259.5165)" fill="none" width="9.323" height="10.499"/>
							</g>
							
								<rect x="536.736" y="412.879" transform="matrix(-0.7071 0.7071 -0.7071 -0.7071 1209.7239 326.4052)" fill-rule="evenodd" clip-rule="evenodd" width="1.05" height="1.73"/>
							
								<rect x="538.931" y="415.074" transform="matrix(-0.7076 0.7066 -0.7066 -0.7076 1215.0796 329.0435)" fill-rule="evenodd" clip-rule="evenodd" width="1.05" height="1.73"/>
							
								<rect x="541.118" y="417.261" transform="matrix(-0.7076 0.7066 -0.7066 -0.7076 1220.3599 331.2333)" fill-rule="evenodd" clip-rule="evenodd" width="1.05" height="1.731"/>
						</g>
					</g>
					<g>
						<g>
							<g>
								
									<rect x="528.097" y="404.209" transform="matrix(0.7071 0.7071 -0.7071 0.7071 445.5965 -256.7924)" fill="none" width="9.323" height="10.499"/>
							</g>
							
								<rect x="530.145" y="406.287" transform="matrix(-0.7071 0.7071 -0.7071 -0.7071 1193.8096 319.8126)" fill-rule="evenodd" clip-rule="evenodd" width="1.05" height="1.73"/>
							
								<rect x="532.339" y="408.482" transform="matrix(-0.7069 0.7073 -0.7073 -0.7069 1199.0786 321.7883)" fill-rule="evenodd" clip-rule="evenodd" width="1.05" height="1.73"/>
							
								<rect x="534.526" y="410.669" transform="matrix(-0.7069 0.7073 -0.7073 -0.7069 1204.3596 323.9748)" fill-rule="evenodd" clip-rule="evenodd" width="1.05" height="1.73"/>
						</g>
					</g>
					<g>
						<g>
							<g>
								
									<rect x="521.504" y="397.617" transform="matrix(0.7071 0.7071 -0.7071 0.7071 438.9552 -254.0553)" fill="none" width="9.323" height="10.499"/>
							</g>
							
								<rect x="523.552" y="399.695" transform="matrix(-0.7071 0.7071 -0.7071 -0.7071 1177.8936 313.2206)" fill-rule="evenodd" clip-rule="evenodd" width="1.05" height="1.73"/>
							
								<rect x="525.746" y="401.889" transform="matrix(-0.7073 0.7069 -0.7069 -0.7073 1183.2208 315.6309)" fill-rule="evenodd" clip-rule="evenodd" width="1.051" height="1.73"/>
							
								<rect x="527.934" y="404.077" transform="matrix(-0.7073 0.7069 -0.7069 -0.7073 1188.502 317.8194)" fill-rule="evenodd" clip-rule="evenodd" width="1.051" height="1.73"/>
						</g>
					</g>
					<g>
						<g>
							<g>
								
									<rect x="514.912" y="391.024" transform="matrix(0.7071 0.7071 -0.7071 0.7071 432.4113 -251.3312)" fill="none" width="9.323" height="10.499"/>
							</g>
							
								<rect x="516.96" y="393.103" transform="matrix(-0.7069 0.7073 -0.7073 -0.7069 1161.9507 306.4165)" fill-rule="evenodd" clip-rule="evenodd" width="1.05" height="1.73"/>
							
								<rect x="519.154" y="395.297" transform="matrix(-0.7071 0.7071 -0.7071 -0.7071 1167.2771 308.8232)" fill-rule="evenodd" clip-rule="evenodd" width="1.05" height="1.73"/>
							
								<rect x="521.342" y="397.485" transform="matrix(-0.7071 0.7071 -0.7071 -0.7071 1172.5582 311.0107)" fill-rule="evenodd" clip-rule="evenodd" width="1.05" height="1.73"/>
						</g>
					</g>
					<g>
						<g>
							<g>
								
									<rect x="508.32" y="384.432" transform="matrix(0.7072 0.7071 -0.7071 0.7072 425.7479 -248.5908)" fill="none" width="9.323" height="10.499"/>
							</g>
							
								<rect x="510.367" y="386.51" transform="matrix(-0.7069 0.7073 -0.7073 -0.7069 1146.0347 299.8276)" fill-rule="evenodd" clip-rule="evenodd" width="1.05" height="1.73"/>
							
								<rect x="512.562" y="388.705" transform="matrix(-0.7073 0.7069 -0.7069 -0.7073 1151.3909 302.441)" fill-rule="evenodd" clip-rule="evenodd" width="1.051" height="1.73"/>
							
								<rect x="514.749" y="390.893" transform="matrix(-0.7076 0.7066 -0.7066 -0.7076 1156.7004 304.8401)" fill-rule="evenodd" clip-rule="evenodd" width="1.05" height="1.73"/>
						</g>
					</g>
					<g>
						<g>
							<g>
								
									<rect x="501.727" y="377.84" transform="matrix(0.7071 0.7071 -0.7071 0.7071 419.2263 -245.8698)" fill="none" width="9.323" height="10.499"/>
							</g>
							
								<rect x="503.775" y="379.918" transform="matrix(-0.7071 0.7071 -0.7071 -0.7071 1130.1492 293.4443)" fill-rule="evenodd" clip-rule="evenodd" width="1.05" height="1.73"/>
							
								<rect x="505.97" y="382.113" transform="matrix(-0.7069 0.7073 -0.7073 -0.7069 1135.4182 295.4322)" fill-rule="evenodd" clip-rule="evenodd" width="1.05" height="1.73"/>
							
								<rect x="508.157" y="384.3" transform="matrix(-0.7071 0.7071 -0.7071 -0.7071 1140.7278 297.8261)" fill-rule="evenodd" clip-rule="evenodd" width="1.05" height="1.73"/>
						</g>
					</g>
					<g>
						<g>
							<g>
								
									<rect x="495.135" y="371.248" transform="matrix(0.7071 0.7071 -0.7071 0.7071 412.5878 -243.1327)" fill="none" width="9.323" height="10.499"/>
							</g>
							
								<rect x="497.183" y="373.326" transform="matrix(-0.7071 0.7071 -0.7071 -0.7071 1114.2332 286.8523)" fill-rule="evenodd" clip-rule="evenodd" width="1.05" height="1.73"/>
							
								<rect x="499.377" y="375.521" transform="matrix(-0.7073 0.7069 -0.7069 -0.7073 1119.5604 289.2503)" fill-rule="evenodd" clip-rule="evenodd" width="1.051" height="1.73"/>
							
								<rect x="501.565" y="377.708" transform="matrix(-0.7073 0.7069 -0.7069 -0.7073 1124.8416 291.4388)" fill-rule="evenodd" clip-rule="evenodd" width="1.051" height="1.73"/>
						</g>
					</g>
					<g>
						<g>
							<g>
								
									<rect x="488.543" y="364.656" transform="matrix(0.7071 0.7071 -0.7071 0.7071 406.0413 -240.4084)" fill="none" width="9.323" height="10.499"/>
							</g>
							
								<rect x="490.591" y="366.734" transform="matrix(-0.7071 0.7071 -0.7071 -0.7071 1098.3188 280.2597)" fill-rule="evenodd" clip-rule="evenodd" width="1.05" height="1.73"/>
							
								<rect x="492.785" y="368.928" transform="matrix(-0.7069 0.7073 -0.7073 -0.7069 1103.5879 282.2538)" fill-rule="evenodd" clip-rule="evenodd" width="1.05" height="1.73"/>
							
								<rect x="494.973" y="371.116" transform="matrix(-0.7069 0.7073 -0.7073 -0.7069 1108.8689 284.4403)" fill-rule="evenodd" clip-rule="evenodd" width="1.05" height="1.73"/>
						</g>
					</g>
					<g>
						<g>
							<g>
								
									<rect x="481.95" y="358.063" transform="matrix(0.7071 0.7071 -0.7071 0.7071 399.4039 -237.6715)" fill="none" width="9.323" height="10.499"/>
							</g>
							
								<rect x="483.998" y="360.142" transform="matrix(-0.7073 0.7069 -0.7069 -0.7073 1082.4325 273.8643)" fill-rule="evenodd" clip-rule="evenodd" width="1.051" height="1.73"/>
							
								<rect x="486.193" y="362.336" transform="matrix(-0.7071 0.7071 -0.7071 -0.7071 1087.7024 275.8622)" fill-rule="evenodd" clip-rule="evenodd" width="1.05" height="1.73"/>
							
								<rect x="488.381" y="364.524" transform="matrix(-0.7071 0.7071 -0.7071 -0.7071 1092.9835 278.0497)" fill-rule="evenodd" clip-rule="evenodd" width="1.05" height="1.73"/>
						</g>
					</g>
					<g>
						<g>
							<g>
								
									<rect x="475.358" y="351.471" transform="matrix(0.7071 0.7071 -0.7071 0.7071 392.8341 -234.944)" fill="none" width="9.322" height="10.499"/>
							</g>
							
								<rect x="477.406" y="353.55" transform="matrix(-0.7069 0.7073 -0.7073 -0.7069 1066.4598 266.882)" fill-rule="evenodd" clip-rule="evenodd" width="1.05" height="1.73"/>
							
								<rect x="479.601" y="355.744" transform="matrix(-0.7069 0.7073 -0.7073 -0.7069 1071.7578 269.0762)" fill-rule="evenodd" clip-rule="evenodd" width="1.05" height="1.73"/>
							
								<rect x="481.788" y="357.932" transform="matrix(-0.7071 0.7071 -0.7071 -0.7071 1077.0675 271.4578)" fill-rule="evenodd" clip-rule="evenodd" width="1.05" height="1.73"/>
						</g>
					</g>
					<g>
						<g>
							<g>
								
									<rect x="468.766" y="344.879" transform="matrix(0.7071 0.7071 -0.7071 0.7071 386.2635 -232.2166)" fill="none" width="9.323" height="10.5"/>
							</g>
							
								<rect x="470.814" y="346.958" transform="matrix(-0.7076 0.7066 -0.7066 -0.7076 1050.6309 260.8646)" fill-rule="evenodd" clip-rule="evenodd" width="1.05" height="1.73"/>
							
								<rect x="473.009" y="349.152" transform="matrix(-0.7069 0.7073 -0.7073 -0.7069 1055.8435 262.4866)" fill-rule="evenodd" clip-rule="evenodd" width="1.05" height="1.73"/>
							
								<rect x="475.196" y="351.339" transform="matrix(-0.7071 0.7071 -0.7071 -0.7071 1061.1531 264.8652)" fill-rule="evenodd" clip-rule="evenodd" width="1.05" height="1.73"/>
						</g>
					</g>
					<g>
						<g>
							<g>
								
									<rect x="462.174" y="338.287" transform="matrix(0.7071 0.7071 -0.7071 0.7071 379.6286 -229.4799)" fill="none" width="9.323" height="10.499"/>
							</g>
							
								<rect x="464.222" y="340.365" transform="matrix(-0.7071 0.7071 -0.7071 -0.7071 1034.6584 253.8914)" fill-rule="evenodd" clip-rule="evenodd" width="1.05" height="1.73"/>
							
								<rect x="466.416" y="342.56" transform="matrix(-0.7069 0.7073 -0.7073 -0.7069 1039.9276 255.8982)" fill-rule="evenodd" clip-rule="evenodd" width="1.05" height="1.73"/>
							
								<rect x="468.603" y="344.747" transform="matrix(-0.7069 0.7073 -0.7073 -0.7069 1045.2085 258.0842)" fill-rule="evenodd" clip-rule="evenodd" width="1.05" height="1.73"/>
						</g>
					</g>
					<g>
						<g>
							<g>
								
									<rect x="455.582" y="331.695" transform="matrix(0.7071 0.7071 -0.7071 0.7071 373.0786 -226.7556)" fill="none" width="9.323" height="10.499"/>
							</g>
							
								<rect x="457.629" y="333.773" transform="matrix(-0.7076 0.7066 -0.7066 -0.7076 1018.8005 247.6678)" fill-rule="evenodd" clip-rule="evenodd" width="1.05" height="1.73"/>
							
								<rect x="459.824" y="335.968" transform="matrix(-0.7069 0.7073 -0.7073 -0.7069 1024.0131 249.3082)" fill-rule="evenodd" clip-rule="evenodd" width="1.05" height="1.73"/>
							
								<rect x="462.012" y="338.155" transform="matrix(-0.7069 0.7073 -0.7073 -0.7069 1029.2942 251.4947)" fill-rule="evenodd" clip-rule="evenodd" width="1.05" height="1.73"/>
						</g>
					</g>
					<g>
						<g>
							<g>
								
									<rect x="448.989" y="325.102" transform="matrix(0.7071 0.7071 -0.7071 0.7071 366.4449 -224.0185)" fill="none" width="9.323" height="10.499"/>
							</g>
							
								<rect x="451.037" y="327.181" transform="matrix(-0.7069 0.7073 -0.7073 -0.7069 1002.7995 240.526)" fill-rule="evenodd" clip-rule="evenodd" width="1.05" height="1.73"/>
							
								<rect x="453.232" y="329.375" transform="matrix(-0.7076 0.7066 -0.7066 -0.7076 1008.1841 243.2662)" fill-rule="evenodd" clip-rule="evenodd" width="1.05" height="1.73"/>
							
								<rect x="455.419" y="331.563" transform="matrix(-0.7071 0.7071 -0.7071 -0.7071 1013.407 245.0895)" fill-rule="evenodd" clip-rule="evenodd" width="1.05" height="1.73"/>
						</g>
					</g>
					<g>
						<g>
							<g>
								
									<rect x="442.397" y="318.51" transform="matrix(0.7071 0.7071 -0.7071 0.7071 359.8732 -221.2911)" fill="none" width="9.322" height="10.499"/>
							</g>
							
								<rect x="444.444" y="320.589" transform="matrix(-0.7073 0.7069 -0.7069 -0.7073 986.9417 234.293)" fill-rule="evenodd" clip-rule="evenodd" width="1.051" height="1.73"/>
							
								<rect x="446.64" y="322.783" transform="matrix(-0.7069 0.7073 -0.7073 -0.7069 992.1831 236.1306)" fill-rule="evenodd" clip-rule="evenodd" width="1.05" height="1.73"/>
							
								<rect x="448.827" y="324.971" transform="matrix(-0.7069 0.7073 -0.7073 -0.7069 997.4642 238.3171)" fill-rule="evenodd" clip-rule="evenodd" width="1.05" height="1.73"/>
						</g>
					</g>
					<g>
						<g>
							<g>
								
									<rect x="435.805" y="311.918" transform="matrix(0.7071 0.7071 -0.7071 0.7071 353.2612 -218.5573)" fill="none" width="9.323" height="10.499"/>
							</g>
							
								<rect x="437.853" y="313.997" transform="matrix(-0.7071 0.7071 -0.7071 -0.7071 970.998 227.5231)" fill-rule="evenodd" clip-rule="evenodd" width="1.05" height="1.73"/>
							
								<rect x="440.047" y="316.191" transform="matrix(-0.7073 0.7069 -0.7069 -0.7073 976.3253 229.8935)" fill-rule="evenodd" clip-rule="evenodd" width="1.051" height="1.73"/>
							
								<rect x="442.235" y="318.378" transform="matrix(-0.7076 0.7066 -0.7066 -0.7076 981.6349 232.2589)" fill-rule="evenodd" clip-rule="evenodd" width="1.05" height="1.73"/>
						</g>
					</g>
					<g>
						<g>
							<g>
								
									<rect x="429.213" y="305.326" transform="matrix(0.7071 0.7071 -0.7071 0.7071 346.7083 -215.8331)" fill="none" width="9.323" height="10.499"/>
							</g>
							
								<rect x="431.261" y="307.405" transform="matrix(-0.7069 0.7073 -0.7073 -0.7069 955.0551 220.7588)" fill-rule="evenodd" clip-rule="evenodd" width="1.05" height="1.73"/>
							
								<rect x="433.455" y="309.599" transform="matrix(-0.7071 0.7071 -0.7071 -0.7071 960.3816 223.1256)" fill-rule="evenodd" clip-rule="evenodd" width="1.05" height="1.73"/>
							
								<rect x="435.643" y="311.786" transform="matrix(-0.7069 0.7073 -0.7073 -0.7069 965.6338 225.1386)" fill-rule="evenodd" clip-rule="evenodd" width="1.05" height="1.73"/>
						</g>
					</g>
					<g>
						<g>
							<g>
								
									<rect x="422.62" y="298.734" transform="matrix(0.7071 0.7071 -0.7071 0.7071 340.0775 -213.0959)" fill="none" width="9.323" height="10.499"/>
							</g>
							
								<rect x="424.668" y="300.812" transform="matrix(-0.7071 0.7071 -0.7071 -0.7071 939.1677 214.3385)" fill-rule="evenodd" clip-rule="evenodd" width="1.05" height="1.73"/>
							
								<rect x="426.862" y="303.007" transform="matrix(-0.7073 0.7069 -0.7069 -0.7073 944.4951 216.7032)" fill-rule="evenodd" clip-rule="evenodd" width="1.051" height="1.73"/>
							
								<rect x="429.05" y="305.194" transform="matrix(-0.7073 0.7069 -0.7069 -0.7073 949.776 218.8913)" fill-rule="evenodd" clip-rule="evenodd" width="1.051" height="1.73"/>
						</g>
					</g>
					<g>
						<g>
							<g>
								
									<rect x="416.028" y="292.142" transform="matrix(0.7071 0.7071 -0.7071 0.7071 333.5232 -210.3718)" fill="none" width="9.323" height="10.499"/>
							</g>
							
								<rect x="418.076" y="294.22" transform="matrix(-0.7071 0.7071 -0.7071 -0.7071 923.2531 207.7465)" fill-rule="evenodd" clip-rule="evenodd" width="1.05" height="1.73"/>
							
								<rect x="420.271" y="296.415" transform="matrix(-0.7071 0.7071 -0.7071 -0.7071 928.5512 209.9411)" fill-rule="evenodd" clip-rule="evenodd" width="1.05" height="1.73"/>
							
								<rect x="422.458" y="298.602" transform="matrix(-0.7071 0.7071 -0.7071 -0.7071 933.8323 212.1285)" fill-rule="evenodd" clip-rule="evenodd" width="1.05" height="1.73"/>
						</g>
					</g>
					<g>
						<g>
							<g>
								
									<rect x="409.436" y="285.549" transform="matrix(0.7071 0.7071 -0.7071 0.7071 326.8937 -207.6349)" fill="none" width="9.323" height="10.499"/>
							</g>
							
								<rect x="411.483" y="287.628" transform="matrix(-0.7071 0.7071 -0.7071 -0.7071 907.3379 201.1542)" fill-rule="evenodd" clip-rule="evenodd" width="1.05" height="1.73"/>
							
								<rect x="413.678" y="289.823" transform="matrix(-0.7069 0.7073 -0.7073 -0.7069 912.6075 203.1853)" fill-rule="evenodd" clip-rule="evenodd" width="1.05" height="1.73"/>
							
								<rect x="415.866" y="292.01" transform="matrix(-0.7069 0.7073 -0.7073 -0.7069 917.8886 205.3718)" fill-rule="evenodd" clip-rule="evenodd" width="1.05" height="1.73"/>
						</g>
					</g>
					<g>
						<g>
							<g>
								
									<rect x="402.844" y="278.957" transform="matrix(0.7071 0.7071 -0.7071 0.7071 320.32 -204.9074)" fill="none" width="9.323" height="10.499"/>
							</g>
							
								<rect x="404.891" y="281.036" transform="matrix(-0.7073 0.7069 -0.7069 -0.7073 891.4515 194.7221)" fill-rule="evenodd" clip-rule="evenodd" width="1.05" height="1.73"/>
							
								<rect x="407.086" y="283.23" transform="matrix(-0.7069 0.7073 -0.7073 -0.7069 896.6927 196.5959)" fill-rule="evenodd" clip-rule="evenodd" width="1.05" height="1.73"/>
							
								<rect x="409.273" y="285.418" transform="matrix(-0.7069 0.7073 -0.7073 -0.7069 901.9734 198.7826)" fill-rule="evenodd" clip-rule="evenodd" width="1.05" height="1.73"/>
						</g>
					</g>
					<g>
						<g>
							<g>
								
									<rect x="396.251" y="272.365" transform="matrix(0.7071 0.7071 -0.7071 0.7071 313.7278 -202.1768)" fill="none" width="9.323" height="10.499"/>
							</g>
							
								<rect x="398.299" y="274.444" transform="matrix(-0.7071 0.7071 -0.7071 -0.7071 875.5079 187.9704)" fill-rule="evenodd" clip-rule="evenodd" width="1.05" height="1.73"/>
							
								<rect x="400.494" y="276.638" transform="matrix(-0.7073 0.7069 -0.7069 -0.7073 880.8351 190.3226)" fill-rule="evenodd" clip-rule="evenodd" width="1.05" height="1.73"/>
							
								<rect x="402.681" y="278.825" transform="matrix(-0.7071 0.7071 -0.7071 -0.7071 886.0873 192.3519)" fill-rule="evenodd" clip-rule="evenodd" width="1.05" height="1.73"/>
						</g>
					</g>
					<g>
						<g>
							<g>
								
									<rect x="389.659" y="265.773" transform="matrix(0.7071 0.7071 -0.7071 0.7071 307.1357 -199.4461)" fill="none" width="9.323" height="10.499"/>
							</g>
							
								<rect x="391.707" y="267.851" transform="matrix(-0.7069 0.7073 -0.7073 -0.7069 859.5643 181.2243)" fill-rule="evenodd" clip-rule="evenodd" width="1.05" height="1.73"/>
							
								<rect x="393.902" y="270.046" transform="matrix(-0.7073 0.7069 -0.7069 -0.7073 864.92 183.7273)" fill-rule="evenodd" clip-rule="evenodd" width="1.05" height="1.73"/>
							
								<rect x="396.089" y="272.233" transform="matrix(-0.7071 0.7071 -0.7071 -0.7071 870.1722 185.7597)" fill-rule="evenodd" clip-rule="evenodd" width="1.05" height="1.73"/>
						</g>
					</g>
					<g>
						<g>
							<g>
								
									<rect x="383.067" y="259.181" transform="matrix(0.7071 0.7071 -0.7071 0.7071 300.5433 -196.7155)" fill="none" width="9.323" height="10.499"/>
							</g>
							
								<rect x="385.115" y="261.259" transform="matrix(-0.7069 0.7073 -0.7073 -0.7069 843.6492 174.6351)" fill-rule="evenodd" clip-rule="evenodd" width="1.05" height="1.73"/>
							
								<rect x="387.309" y="263.454" transform="matrix(-0.7073 0.7069 -0.7069 -0.7073 849.0048 177.1319)" fill-rule="evenodd" clip-rule="evenodd" width="1.05" height="1.73"/>
							
								<rect x="389.497" y="265.641" transform="matrix(-0.7073 0.7069 -0.7069 -0.7073 854.2859 179.3204)" fill-rule="evenodd" clip-rule="evenodd" width="1.05" height="1.73"/>
						</g>
					</g>
					<g>
						<g>
							<g>
								
									<rect x="376.475" y="252.588" transform="matrix(0.7071 0.7071 -0.7071 0.7071 293.9343 -193.9817)" fill="none" width="9.323" height="10.499"/>
							</g>
							
								<rect x="378.522" y="254.667" transform="matrix(-0.7069 0.7073 -0.7073 -0.7069 827.7339 168.0459)" fill-rule="evenodd" clip-rule="evenodd" width="1.05" height="1.73"/>
							
								<rect x="380.717" y="256.862" transform="matrix(-0.7071 0.7071 -0.7071 -0.7071 833.0611 170.3884)" fill-rule="evenodd" clip-rule="evenodd" width="1.05" height="1.73"/>
							
								<rect x="382.904" y="259.049" transform="matrix(-0.7071 0.7071 -0.7071 -0.7071 838.3422 172.5759)" fill-rule="evenodd" clip-rule="evenodd" width="1.05" height="1.73"/>
						</g>
					</g>
					<g>
						<g>
							<g>
								
									<rect x="369.882" y="245.996" transform="matrix(0.7071 0.7071 -0.7071 0.7071 287.3589 -191.2542)" fill="none" width="9.323" height="10.499"/>
							</g>
							
								<rect x="371.93" y="248.075" transform="matrix(-0.7071 0.7071 -0.7071 -0.7071 811.8477 161.6015)" fill-rule="evenodd" clip-rule="evenodd" width="1.05" height="1.73"/>
							
								<rect x="374.125" y="250.269" transform="matrix(-0.7071 0.7071 -0.7071 -0.7071 817.1459 163.7961)" fill-rule="evenodd" clip-rule="evenodd" width="1.05" height="1.73"/>
							
								<rect x="376.312" y="252.457" transform="matrix(-0.7071 0.7071 -0.7071 -0.7071 822.427 165.9836)" fill-rule="evenodd" clip-rule="evenodd" width="1.05" height="1.73"/>
						</g>
					</g>
					<g>
						<g>
							<g>
								
									<rect x="363.29" y="239.404" transform="matrix(0.7071 0.7071 -0.7071 0.7071 280.7667 -188.5236)" fill="none" width="9.323" height="10.499"/>
							</g>
							
								<rect x="365.338" y="241.483" transform="matrix(-0.7069 0.7073 -0.7073 -0.7069 795.9039 154.8683)" fill-rule="evenodd" clip-rule="evenodd" width="1.05" height="1.73"/>
							
								<rect x="367.532" y="243.677" transform="matrix(-0.7073 0.7069 -0.7069 -0.7073 801.2596 157.3467)" fill-rule="evenodd" clip-rule="evenodd" width="1.05" height="1.73"/>
							
								<rect x="369.72" y="245.865" transform="matrix(-0.7071 0.7071 -0.7071 -0.7071 806.512 159.3918)" fill-rule="evenodd" clip-rule="evenodd" width="1.05" height="1.73"/>
						</g>
					</g>
					<g>
						<g>
							<g>
								
									<rect x="356.698" y="232.812" transform="matrix(0.7071 0.7071 -0.7071 0.7071 274.1589 -185.7897)" fill="none" width="9.323" height="10.499"/>
							</g>
							
								<rect x="358.746" y="234.89" transform="matrix(-0.7069 0.7073 -0.7073 -0.7069 779.9888 148.2791)" fill-rule="evenodd" clip-rule="evenodd" width="1.05" height="1.73"/>
							
								<rect x="360.94" y="237.085" transform="matrix(-0.7073 0.7069 -0.7069 -0.7073 785.3444 150.7513)" fill-rule="evenodd" clip-rule="evenodd" width="1.05" height="1.73"/>
							
								<rect x="363.127" y="239.272" transform="matrix(-0.7071 0.7071 -0.7071 -0.7071 790.5966 152.7991)" fill-rule="evenodd" clip-rule="evenodd" width="1.05" height="1.73"/>
						</g>
					</g>
					<g>
						<g>
							<g>
								
									<rect x="350.105" y="226.22" transform="matrix(0.7071 0.7071 -0.7071 0.7071 267.5978 -183.0654)" fill="none" width="9.323" height="10.499"/>
							</g>
							
								<rect x="352.153" y="228.299" transform="matrix(-0.7069 0.7073 -0.7073 -0.7069 764.0737 141.6903)" fill-rule="evenodd" clip-rule="evenodd" width="1.05" height="1.73"/>
							
								<rect x="354.348" y="230.493" transform="matrix(-0.7073 0.7069 -0.7069 -0.7073 769.4292 144.156)" fill-rule="evenodd" clip-rule="evenodd" width="1.05" height="1.73"/>
							
								<rect x="356.535" y="232.68" transform="matrix(-0.7073 0.7069 -0.7069 -0.7073 774.7103 146.3445)" fill-rule="evenodd" clip-rule="evenodd" width="1.05" height="1.73"/>
						</g>
					</g>
					<g>
						<g>
							<g>
								
									<rect x="343.513" y="219.628" transform="matrix(0.7071 0.7071 -0.7071 0.7071 260.975 -180.3284)" fill="none" width="9.323" height="10.499"/>
							</g>
							
								<rect x="345.561" y="221.706" transform="matrix(-0.7071 0.7071 -0.7071 -0.7071 748.1876 135.2327)" fill-rule="evenodd" clip-rule="evenodd" width="1.05" height="1.73"/>
							
								<rect x="347.756" y="223.901" transform="matrix(-0.7069 0.7073 -0.7073 -0.7069 753.4572 137.2944)" fill-rule="evenodd" clip-rule="evenodd" width="1.05" height="1.73"/>
							
								<rect x="349.943" y="226.088" transform="matrix(-0.7069 0.7073 -0.7073 -0.7069 758.7383 139.4809)" fill-rule="evenodd" clip-rule="evenodd" width="1.05" height="1.73"/>
						</g>
					</g>
					<g>
						<g>
							<g>
								
									<rect x="336.921" y="213.035" transform="matrix(0.7071 0.7071 -0.7071 0.7071 254.3979 -177.601)" fill="none" width="9.323" height="10.499"/>
							</g>
							
								<rect x="338.969" y="215.114" transform="matrix(-0.7073 0.7069 -0.7069 -0.7073 732.3013 128.7699)" fill-rule="evenodd" clip-rule="evenodd" width="1.05" height="1.73"/>
							
								<rect x="341.164" y="217.308" transform="matrix(-0.7069 0.7073 -0.7073 -0.7069 737.542 130.7052)" fill-rule="evenodd" clip-rule="evenodd" width="1.05" height="1.73"/>
							
								<rect x="343.351" y="219.496" transform="matrix(-0.7069 0.7073 -0.7073 -0.7069 742.8231 132.8917)" fill-rule="evenodd" clip-rule="evenodd" width="1.05" height="1.73"/>
						</g>
					</g>
					<g>
						<g>
							<g>
								
									<rect x="330.329" y="206.443" transform="matrix(0.7071 0.7071 -0.7071 0.7071 247.8199 -174.8736)" fill="none" width="9.323" height="10.499"/>
							</g>
							
								<rect x="332.376" y="208.522" transform="matrix(-0.7071 0.7071 -0.7071 -0.7071 716.3575 122.0489)" fill-rule="evenodd" clip-rule="evenodd" width="1.05" height="1.73"/>
							
								<rect x="334.571" y="210.716" transform="matrix(-0.7071 0.7071 -0.7071 -0.7071 721.6558 124.2435)" fill-rule="evenodd" clip-rule="evenodd" width="1.05" height="1.73"/>
							
								<rect x="336.759" y="212.904" transform="matrix(-0.7071 0.7071 -0.7071 -0.7071 726.9368 126.431)" fill-rule="evenodd" clip-rule="evenodd" width="1.05" height="1.73"/>
						</g>
					</g>
					<g>
						<g>
							<g>
								
									<rect x="323.737" y="199.851" transform="matrix(0.7071 0.7071 -0.7071 0.7071 241.1996 -172.1366)" fill="none" width="9.323" height="10.499"/>
							</g>
							
								<rect x="325.784" y="201.929" transform="matrix(-0.7071 0.7071 -0.7071 -0.7071 700.4424 115.4566)" fill-rule="evenodd" clip-rule="evenodd" width="1.05" height="1.73"/>
							
								<rect x="327.979" y="204.124" transform="matrix(-0.7071 0.7071 -0.7071 -0.7071 705.7405 117.6512)" fill-rule="evenodd" clip-rule="evenodd" width="1.05" height="1.73"/>
							
								<rect x="330.166" y="206.312" transform="matrix(-0.7069 0.7073 -0.7073 -0.7069 710.9929 119.7137)" fill-rule="evenodd" clip-rule="evenodd" width="1.05" height="1.73"/>
						</g>
					</g>
					<g>
						<g>
							<g>
								
									<rect x="317.144" y="193.259" transform="matrix(0.7071 0.7071 -0.7071 0.7071 234.6215 -169.4093)" fill="none" width="9.323" height="10.499"/>
							</g>
							
								<rect x="319.192" y="195.337" transform="matrix(-0.7073 0.7069 -0.7069 -0.7073 684.556 108.9847)" fill-rule="evenodd" clip-rule="evenodd" width="1.05" height="1.73"/>
							
								<rect x="321.387" y="197.532" transform="matrix(-0.7071 0.7071 -0.7071 -0.7071 689.8253 111.0589)" fill-rule="evenodd" clip-rule="evenodd" width="1.05" height="1.73"/>
							
								<rect x="323.574" y="199.719" transform="matrix(-0.7071 0.7071 -0.7071 -0.7071 695.1064 113.2464)" fill-rule="evenodd" clip-rule="evenodd" width="1.05" height="1.73"/>
						</g>
					</g>
					<g>
						<g>
							<g>
								
									<rect x="310.552" y="186.667" transform="matrix(0.7071 0.7071 -0.7071 0.7071 228.0292 -166.6787)" fill="none" width="9.323" height="10.499"/>
							</g>
							
								<rect x="312.6" y="188.745" transform="matrix(-0.7071 0.7071 -0.7071 -0.7071 668.6122 102.2725)" fill-rule="evenodd" clip-rule="evenodd" width="1.05" height="1.73"/>
							
								<rect x="314.794" y="190.94" transform="matrix(-0.7071 0.7071 -0.7071 -0.7071 673.9108 104.4669)" fill-rule="evenodd" clip-rule="evenodd" width="1.05" height="1.73"/>
							
								<rect x="316.982" y="193.127" transform="matrix(-0.7069 0.7073 -0.7073 -0.7069 679.1627 106.5356)" fill-rule="evenodd" clip-rule="evenodd" width="1.05" height="1.73"/>
						</g>
					</g>
					<g>
						<g>
							<g>
								
									<rect x="303.96" y="180.075" transform="matrix(0.7071 0.7071 -0.7071 0.7071 221.4369 -163.9481)" fill="none" width="9.323" height="10.499"/>
							</g>
							
								<rect x="306.008" y="182.153" transform="matrix(-0.7073 0.7069 -0.7069 -0.7073 652.7256 95.794)" fill-rule="evenodd" clip-rule="evenodd" width="1.05" height="1.73"/>
							
								<rect x="308.202" y="184.347" transform="matrix(-0.7071 0.7071 -0.7071 -0.7071 657.9956 97.8746)" fill-rule="evenodd" clip-rule="evenodd" width="1.05" height="1.73"/>
							
								<rect x="310.39" y="186.535" transform="matrix(-0.7069 0.7073 -0.7073 -0.7069 663.2476 99.9464)" fill-rule="evenodd" clip-rule="evenodd" width="1.05" height="1.73"/>
						</g>
					</g>
					<g>
						<g>
							<g>
								
									<rect x="297.368" y="173.482" transform="matrix(0.7071 0.7071 -0.7071 0.7071 214.8447 -161.2175)" fill="none" width="9.323" height="10.499"/>
							</g>
							
								<rect x="299.415" y="175.561" transform="matrix(-0.7071 0.7071 -0.7071 -0.7071 636.782 89.0883)" fill-rule="evenodd" clip-rule="evenodd" width="1.05" height="1.73"/>
							
								<rect x="301.61" y="177.755" transform="matrix(-0.7073 0.7069 -0.7069 -0.7073 642.1093 91.3945)" fill-rule="evenodd" clip-rule="evenodd" width="1.05" height="1.73"/>
							
								<rect x="303.798" y="179.943" transform="matrix(-0.7073 0.7069 -0.7069 -0.7073 647.3904 93.583)" fill-rule="evenodd" clip-rule="evenodd" width="1.05" height="1.73"/>
						</g>
					</g>
					<g>
						<g>
							<g>
								
									<rect x="290.775" y="166.89" transform="matrix(0.7071 0.7071 -0.7071 0.7071 208.2403 -158.4836)" fill="none" width="9.323" height="10.499"/>
							</g>
							
								<rect x="292.823" y="168.969" transform="matrix(-0.7069 0.7073 -0.7073 -0.7069 620.8384 82.3882)" fill-rule="evenodd" clip-rule="evenodd" width="1.05" height="1.73"/>
							
								<rect x="295.018" y="171.163" transform="matrix(-0.7073 0.7069 -0.7069 -0.7073 626.1941 84.7992)" fill-rule="evenodd" clip-rule="evenodd" width="1.05" height="1.73"/>
							
								<rect x="297.205" y="173.351" transform="matrix(-0.7073 0.7069 -0.7069 -0.7073 631.4752 86.9877)" fill-rule="evenodd" clip-rule="evenodd" width="1.05" height="1.73"/>
						</g>
					</g>
					<g>
						<g>
							<g>
								
									<rect x="284.183" y="160.298" transform="matrix(0.7071 0.7071 -0.7071 0.7071 201.6604 -155.7561)" fill="none" width="9.323" height="10.499"/>
							</g>
							
								<rect x="286.231" y="162.376" transform="matrix(-0.7071 0.7071 -0.7071 -0.7071 604.9521 75.904)" fill-rule="evenodd" clip-rule="evenodd" width="1.05" height="1.73"/>
							
								<rect x="288.425" y="164.571" transform="matrix(-0.7073 0.7069 -0.7069 -0.7073 610.2789 78.2038)" fill-rule="evenodd" clip-rule="evenodd" width="1.05" height="1.73"/>
							
								<rect x="290.613" y="166.758" transform="matrix(-0.7073 0.7069 -0.7069 -0.7073 615.56 80.3923)" fill-rule="evenodd" clip-rule="evenodd" width="1.05" height="1.73"/>
						</g>
					</g>
					<g>
						<g>
							<g>
								
									<rect x="277.591" y="153.706" transform="matrix(0.7071 0.7071 -0.7071 0.7071 195.0681 -153.0255)" fill="none" width="9.323" height="10.499"/>
							</g>
							
								<rect x="279.639" y="155.784" transform="matrix(-0.7071 0.7071 -0.7071 -0.7071 589.037 69.3117)" fill-rule="evenodd" clip-rule="evenodd" width="1.05" height="1.73"/>
							
								<rect x="281.833" y="157.979" transform="matrix(-0.7071 0.7071 -0.7071 -0.7071 594.3352 71.5063)" fill-rule="evenodd" clip-rule="evenodd" width="1.05" height="1.73"/>
							
								<rect x="284.021" y="160.166" transform="matrix(-0.7071 0.7071 -0.7071 -0.7071 599.6163 73.6938)" fill-rule="evenodd" clip-rule="evenodd" width="1.05" height="1.73"/>
						</g>
					</g>
				</g>
			</g>
		</g>
		<g>
			<g>
				<g>
					<g>
						<g>
							<g>
								
									<rect x="277.817" y="430.249" transform="matrix(-0.7071 0.7071 -0.7071 -0.7071 790.3387 543.6281)" fill="none" width="9.527" height="10.499"/>
							</g>
							
								<rect x="284.409" y="432.478" transform="matrix(-0.7071 -0.7071 0.7071 -0.7071 179.9807 941.274)" fill-rule="evenodd" clip-rule="evenodd" width="1.05" height="1.768"/>
							
								<rect x="282.167" y="434.72" transform="matrix(-0.7069 -0.7073 0.7073 -0.7069 174.399 943.481)" fill-rule="evenodd" clip-rule="evenodd" width="1.05" height="1.768"/>
							
								<rect x="279.931" y="436.956" transform="matrix(-0.7071 -0.7071 0.7071 -0.7071 169.1691 945.7523)" fill-rule="evenodd" clip-rule="evenodd" width="1.05" height="1.768"/>
						</g>
					</g>
					<g>
						<g>
							<g>
								
									<rect x="284.554" y="423.512" transform="matrix(-0.7071 0.7071 -0.7071 -0.7071 797.0724 527.3822)" fill="none" width="9.528" height="10.499"/>
							</g>
							
								<rect x="291.146" y="425.741" transform="matrix(-0.7073 -0.7069 0.7069 -0.7073 196.4118 934.5686)" fill-rule="evenodd" clip-rule="evenodd" width="1.05" height="1.768"/>
							
								<rect x="288.904" y="427.983" transform="matrix(-0.7071 -0.7071 0.7071 -0.7071 190.8305 936.7799)" fill-rule="evenodd" clip-rule="evenodd" width="1.05" height="1.768"/>
							
								<rect x="286.668" y="430.219" transform="matrix(-0.7073 -0.7069 0.7069 -0.7073 185.6003 939.049)" fill-rule="evenodd" clip-rule="evenodd" width="1.05" height="1.768"/>
						</g>
					</g>
					<g>
						<g>
							<g>
								
									<rect x="291.291" y="416.775" transform="matrix(-0.7071 0.7071 -0.7071 -0.7071 803.8165 511.0811)" fill="none" width="9.528" height="10.499"/>
							</g>
							
								<rect x="297.883" y="419.003" transform="matrix(-0.7069 -0.7073 0.7073 -0.7069 212.3426 927.7715)" fill-rule="evenodd" clip-rule="evenodd" width="1.05" height="1.768"/>
							
								<rect x="295.641" y="421.247" transform="matrix(-0.7071 -0.7071 0.7071 -0.7071 207.095 930.0433)" fill-rule="evenodd" clip-rule="evenodd" width="1.05" height="1.768"/>
							
								<rect x="293.405" y="423.482" transform="matrix(-0.7071 -0.7071 0.7071 -0.7071 201.698 932.2784)" fill-rule="evenodd" clip-rule="evenodd" width="1.05" height="1.768"/>
						</g>
					</g>
					<g>
						<g>
							<g>
								
									<rect x="298.028" y="410.038" transform="matrix(-0.7071 0.7071 -0.7071 -0.7071 810.5497 494.8345)" fill="none" width="9.527" height="10.499"/>
							</g>
							
								<rect x="304.62" y="412.267" transform="matrix(-0.7071 -0.7071 0.7071 -0.7071 228.7742 921.0631)" fill-rule="evenodd" clip-rule="evenodd" width="1.05" height="1.768"/>
							
								<rect x="302.378" y="414.509" transform="matrix(-0.7069 -0.7073 0.7073 -0.7069 223.1925 923.2794)" fill-rule="evenodd" clip-rule="evenodd" width="1.05" height="1.768"/>
							
								<rect x="300.142" y="416.745" transform="matrix(-0.7071 -0.7071 0.7071 -0.7071 217.9627 925.5414)" fill-rule="evenodd" clip-rule="evenodd" width="1.05" height="1.768"/>
						</g>
					</g>
					<g>
						<g>
							<g>
								
									<rect x="304.764" y="403.301" transform="matrix(-0.7071 0.7071 -0.7071 -0.7071 817.2844 478.5887)" fill="none" width="9.528" height="10.499"/>
							</g>
							
								<rect x="311.357" y="405.53" transform="matrix(-0.7073 -0.7069 0.7069 -0.7073 245.2053 914.3483)" fill-rule="evenodd" clip-rule="evenodd" width="1.05" height="1.768"/>
							
								<rect x="309.115" y="407.773" transform="matrix(-0.7071 -0.7071 0.7071 -0.7071 239.624 916.569)" fill-rule="evenodd" clip-rule="evenodd" width="1.05" height="1.768"/>
							
								<rect x="306.879" y="410.008" transform="matrix(-0.7073 -0.7069 0.7069 -0.7073 234.3938 918.8286)" fill-rule="evenodd" clip-rule="evenodd" width="1.05" height="1.768"/>
						</g>
					</g>
					<g>
						<g>
							<g>
								
									<rect x="311.502" y="396.565" transform="matrix(-0.7071 0.7071 -0.7071 -0.7071 824.0264 462.2875)" fill="none" width="9.528" height="10.499"/>
							</g>
							
								<rect x="318.094" y="398.793" transform="matrix(-0.7069 -0.7073 0.7073 -0.7069 261.1362 907.5699)" fill-rule="evenodd" clip-rule="evenodd" width="1.05" height="1.768"/>
							
								<rect x="315.852" y="401.036" transform="matrix(-0.7071 -0.7071 0.7071 -0.7071 255.8885 909.8323)" fill-rule="evenodd" clip-rule="evenodd" width="1.05" height="1.768"/>
							
								<rect x="313.616" y="403.271" transform="matrix(-0.7071 -0.7071 0.7071 -0.7071 250.4915 912.0675)" fill-rule="evenodd" clip-rule="evenodd" width="1.05" height="1.768"/>
						</g>
					</g>
					<g>
						<g>
							<g>
								
									<rect x="318.239" y="389.827" transform="matrix(-0.7071 0.7071 -0.7071 -0.7071 830.7606 446.041)" fill="none" width="9.527" height="10.499"/>
							</g>
							
								<rect x="324.831" y="392.056" transform="matrix(-0.7071 -0.7071 0.7071 -0.7071 277.5677 900.8522)" fill-rule="evenodd" clip-rule="evenodd" width="1.05" height="1.768"/>
							
								<rect x="322.589" y="394.298" transform="matrix(-0.7069 -0.7073 0.7073 -0.7069 271.986 903.0779)" fill-rule="evenodd" clip-rule="evenodd" width="1.05" height="1.768"/>
							
								<rect x="320.353" y="396.534" transform="matrix(-0.7071 -0.7071 0.7071 -0.7071 266.7562 905.3304)" fill-rule="evenodd" clip-rule="evenodd" width="1.05" height="1.768"/>
						</g>
					</g>
					<g>
						<g>
							<g>
								
									<rect x="324.975" y="383.09" transform="matrix(-0.7071 0.7071 -0.7071 -0.7071 837.4963 429.7951)" fill="none" width="9.528" height="10.499"/>
							</g>
							
								<rect x="331.568" y="385.319" transform="matrix(-0.7073 -0.7069 0.7069 -0.7073 293.9988 894.1279)" fill-rule="evenodd" clip-rule="evenodd" width="1.05" height="1.768"/>
							
								<rect x="329.325" y="387.562" transform="matrix(-0.7071 -0.7071 0.7071 -0.7071 288.4175 896.358)" fill-rule="evenodd" clip-rule="evenodd" width="1.05" height="1.768"/>
							
								<rect x="327.09" y="389.797" transform="matrix(-0.7073 -0.7069 0.7069 -0.7073 283.1873 898.6083)" fill-rule="evenodd" clip-rule="evenodd" width="1.05" height="1.768"/>
						</g>
					</g>
					<g>
						<g>
							<g>
								
									<rect x="331.712" y="376.354" transform="matrix(-0.7071 0.7071 -0.7071 -0.7071 844.2363 413.494)" fill="none" width="9.528" height="10.499"/>
							</g>
							
								<rect x="338.305" y="378.582" transform="matrix(-0.7069 -0.7073 0.7073 -0.7069 309.9297 887.3684)" fill-rule="evenodd" clip-rule="evenodd" width="1.05" height="1.768"/>
							
								<rect x="336.063" y="380.825" transform="matrix(-0.7071 -0.7071 0.7071 -0.7071 304.6821 889.6214)" fill-rule="evenodd" clip-rule="evenodd" width="1.05" height="1.768"/>
							
								<rect x="333.827" y="383.06" transform="matrix(-0.7071 -0.7071 0.7071 -0.7071 299.285 891.8566)" fill-rule="evenodd" clip-rule="evenodd" width="1.05" height="1.768"/>
						</g>
					</g>
					<g>
						<g>
							<g>
								
									<rect x="338.449" y="369.616" transform="matrix(-0.7071 0.7071 -0.7071 -0.7071 850.9716 397.2475)" fill="none" width="9.527" height="10.499"/>
							</g>
							
								<rect x="345.042" y="371.845" transform="matrix(-0.7071 -0.7071 0.7071 -0.7071 326.3612 880.6412)" fill-rule="evenodd" clip-rule="evenodd" width="1.05" height="1.768"/>
							
								<rect x="342.799" y="374.087" transform="matrix(-0.7069 -0.7073 0.7073 -0.7069 320.7795 882.8763)" fill-rule="evenodd" clip-rule="evenodd" width="1.05" height="1.768"/>
							
								<rect x="340.564" y="376.323" transform="matrix(-0.7071 -0.7071 0.7071 -0.7071 315.5497 885.1195)" fill-rule="evenodd" clip-rule="evenodd" width="1.05" height="1.768"/>
						</g>
					</g>
					<g>
						<g>
							<g>
								
									<rect x="345.186" y="362.879" transform="matrix(-0.7071 0.7071 -0.7071 -0.7071 857.7083 381.0016)" fill="none" width="9.528" height="10.499"/>
							</g>
							
								<rect x="351.779" y="365.108" transform="matrix(-0.7073 -0.7069 0.7069 -0.7073 342.7923 873.9076)" fill-rule="evenodd" clip-rule="evenodd" width="1.05" height="1.768"/>
							
								<rect x="349.536" y="367.351" transform="matrix(-0.7071 -0.7071 0.7071 -0.7071 337.211 876.1471)" fill-rule="evenodd" clip-rule="evenodd" width="1.05" height="1.768"/>
							
								<rect x="347.301" y="369.586" transform="matrix(-0.7073 -0.7069 0.7069 -0.7073 331.9808 878.3879)" fill-rule="evenodd" clip-rule="evenodd" width="1.05" height="1.768"/>
						</g>
					</g>
					<g>
						<g>
							<g>
								
									<rect x="351.923" y="356.143" transform="matrix(-0.7071 0.7071 -0.7071 -0.7071 864.4462 364.7005)" fill="none" width="9.528" height="10.499"/>
							</g>
							
								<rect x="358.516" y="358.371" transform="matrix(-0.7069 -0.7073 0.7073 -0.7069 358.7232 867.1669)" fill-rule="evenodd" clip-rule="evenodd" width="1.05" height="1.768"/>
							
								<rect x="356.274" y="360.614" transform="matrix(-0.7071 -0.7071 0.7071 -0.7071 353.4756 869.4105)" fill-rule="evenodd" clip-rule="evenodd" width="1.05" height="1.768"/>
							
								<rect x="354.038" y="362.849" transform="matrix(-0.7071 -0.7071 0.7071 -0.7071 348.0786 871.6456)" fill-rule="evenodd" clip-rule="evenodd" width="1.05" height="1.768"/>
						</g>
					</g>
					<g>
						<g>
							<g>
								
									<rect x="358.66" y="349.405" transform="matrix(-0.7071 0.7071 -0.7071 -0.7071 871.1825 348.454)" fill="none" width="9.527" height="10.499"/>
							</g>
							
								<rect x="365.253" y="351.634" transform="matrix(-0.7071 -0.7071 0.7071 -0.7071 375.1547 860.4303)" fill-rule="evenodd" clip-rule="evenodd" width="1.05" height="1.768"/>
							
								<rect x="363.01" y="353.877" transform="matrix(-0.7069 -0.7073 0.7073 -0.7069 369.573 862.6748)" fill-rule="evenodd" clip-rule="evenodd" width="1.05" height="1.768"/>
							
								<rect x="360.775" y="356.112" transform="matrix(-0.7071 -0.7071 0.7071 -0.7071 364.3432 864.9086)" fill-rule="evenodd" clip-rule="evenodd" width="1.05" height="1.768"/>
						</g>
					</g>
					<g>
						<g>
							<g>
								
									<rect x="365.397" y="342.668" transform="matrix(-0.7071 0.7071 -0.7071 -0.7071 877.9203 332.2081)" fill="none" width="9.528" height="10.499"/>
							</g>
							
								<rect x="371.99" y="344.897" transform="matrix(-0.7073 -0.7069 0.7069 -0.7073 391.5858 853.6873)" fill-rule="evenodd" clip-rule="evenodd" width="1.05" height="1.768"/>
							
								<rect x="369.747" y="347.14" transform="matrix(-0.7071 -0.7071 0.7071 -0.7071 386.0046 855.9362)" fill-rule="evenodd" clip-rule="evenodd" width="1.05" height="1.768"/>
							
								<rect x="367.512" y="349.375" transform="matrix(-0.7073 -0.7069 0.7069 -0.7073 380.7744 858.1676)" fill-rule="evenodd" clip-rule="evenodd" width="1.05" height="1.768"/>
						</g>
					</g>
					<g>
						<g>
							<g>
								
									<rect x="372.134" y="335.932" transform="matrix(-0.7071 0.7071 -0.7071 -0.7071 884.656 315.907)" fill="none" width="9.528" height="10.499"/>
							</g>
							
								<rect x="378.727" y="338.16" transform="matrix(-0.7069 -0.7073 0.7073 -0.7069 407.5167 846.9653)" fill-rule="evenodd" clip-rule="evenodd" width="1.05" height="1.768"/>
							
								<rect x="376.485" y="340.403" transform="matrix(-0.7071 -0.7071 0.7071 -0.7071 402.2691 849.1995)" fill-rule="evenodd" clip-rule="evenodd" width="1.05" height="1.768"/>
							
								<rect x="374.249" y="342.638" transform="matrix(-0.7071 -0.7071 0.7071 -0.7071 396.8721 851.4347)" fill-rule="evenodd" clip-rule="evenodd" width="1.05" height="1.768"/>
						</g>
					</g>
					<g>
						<g>
							<g>
								
									<rect x="378.871" y="329.194" transform="matrix(-0.7071 0.7071 -0.7071 -0.7071 891.3934 299.6605)" fill="none" width="9.527" height="10.499"/>
							</g>
							
								<rect x="385.464" y="331.423" transform="matrix(-0.7071 -0.7071 0.7071 -0.7071 423.9482 840.2194)" fill-rule="evenodd" clip-rule="evenodd" width="1.05" height="1.768"/>
							
								<rect x="383.221" y="333.666" transform="matrix(-0.7069 -0.7073 0.7073 -0.7069 418.3665 842.4733)" fill-rule="evenodd" clip-rule="evenodd" width="1.05" height="1.768"/>
							
								<rect x="380.986" y="335.901" transform="matrix(-0.7071 -0.7071 0.7071 -0.7071 413.1368 844.6976)" fill-rule="evenodd" clip-rule="evenodd" width="1.05" height="1.768"/>
						</g>
					</g>
					<g>
						<g>
							<g>
								
									<rect x="385.608" y="322.457" transform="matrix(-0.7071 0.7071 -0.7071 -0.7071 898.1323 283.4146)" fill="none" width="9.528" height="10.499"/>
							</g>
							
								<rect x="392.201" y="324.686" transform="matrix(-0.7073 -0.7069 0.7069 -0.7073 440.3794 833.4669)" fill-rule="evenodd" clip-rule="evenodd" width="1.05" height="1.768"/>
							
								<rect x="389.958" y="326.929" transform="matrix(-0.7071 -0.7071 0.7071 -0.7071 434.7981 835.7252)" fill-rule="evenodd" clip-rule="evenodd" width="1.05" height="1.768"/>
							
								<rect x="387.723" y="329.165" transform="matrix(-0.7073 -0.7069 0.7069 -0.7073 429.5679 837.9473)" fill-rule="evenodd" clip-rule="evenodd" width="1.05" height="1.768"/>
						</g>
					</g>
					<g>
						<g>
							<g>
								
									<rect x="392.345" y="315.721" transform="matrix(-0.7071 0.7071 -0.7071 -0.7071 904.866 267.1135)" fill="none" width="9.528" height="10.499"/>
							</g>
							
								<rect x="398.938" y="317.949" transform="matrix(-0.7069 -0.7073 0.7073 -0.7069 456.3102 826.7638)" fill-rule="evenodd" clip-rule="evenodd" width="1.05" height="1.768"/>
							
								<rect x="396.696" y="320.192" transform="matrix(-0.7071 -0.7071 0.7071 -0.7071 451.0626 828.9886)" fill-rule="evenodd" clip-rule="evenodd" width="1.05" height="1.768"/>
							
								<rect x="394.46" y="322.427" transform="matrix(-0.7071 -0.7071 0.7071 -0.7071 445.6656 831.2238)" fill-rule="evenodd" clip-rule="evenodd" width="1.05" height="1.768"/>
						</g>
					</g>
					<g>
						<g>
							<g>
								
									<rect x="399.082" y="308.983" transform="matrix(-0.7071 0.7071 -0.7071 -0.7071 911.6044 250.8669)" fill="none" width="9.527" height="10.499"/>
							</g>
							
								<rect x="405.675" y="311.212" transform="matrix(-0.7071 -0.7071 0.7071 -0.7071 472.7418 820.0084)" fill-rule="evenodd" clip-rule="evenodd" width="1.05" height="1.768"/>
							
								<rect x="403.432" y="313.455" transform="matrix(-0.7069 -0.7073 0.7073 -0.7069 467.1601 822.2717)" fill-rule="evenodd" clip-rule="evenodd" width="1.05" height="1.768"/>
							
								<rect x="401.197" y="315.69" transform="matrix(-0.7071 -0.7071 0.7071 -0.7071 461.9303 824.4867)" fill-rule="evenodd" clip-rule="evenodd" width="1.05" height="1.768"/>
						</g>
					</g>
					<g>
						<g>
							<g>
								
									<rect x="405.819" y="302.246" transform="matrix(-0.7071 0.7071 -0.7071 -0.7071 918.3442 234.621)" fill="none" width="9.528" height="10.499"/>
							</g>
							
								<rect x="412.412" y="304.475" transform="matrix(-0.7073 -0.7069 0.7069 -0.7073 489.1729 813.2466)" fill-rule="evenodd" clip-rule="evenodd" width="1.05" height="1.768"/>
							
								<rect x="410.169" y="306.718" transform="matrix(-0.7071 -0.7071 0.7071 -0.7071 483.5916 815.5143)" fill-rule="evenodd" clip-rule="evenodd" width="1.05" height="1.768"/>
							
								<rect x="407.934" y="308.954" transform="matrix(-0.7073 -0.7069 0.7069 -0.7073 478.3614 817.7269)" fill-rule="evenodd" clip-rule="evenodd" width="1.05" height="1.768"/>
						</g>
					</g>
					<g>
						<g>
							<g>
								
									<rect x="412.556" y="295.51" transform="matrix(-0.7071 0.7071 -0.7071 -0.7071 925.0759 218.3199)" fill="none" width="9.528" height="10.499"/>
							</g>
							
								<rect x="419.149" y="297.738" transform="matrix(-0.7069 -0.7073 0.7073 -0.7069 505.1038 806.5623)" fill-rule="evenodd" clip-rule="evenodd" width="1.05" height="1.768"/>
							
								<rect x="416.907" y="299.981" transform="matrix(-0.7071 -0.7071 0.7071 -0.7071 499.8561 808.7776)" fill-rule="evenodd" clip-rule="evenodd" width="1.05" height="1.768"/>
							
								<rect x="414.671" y="302.216" transform="matrix(-0.7071 -0.7071 0.7071 -0.7071 494.4591 811.0128)" fill-rule="evenodd" clip-rule="evenodd" width="1.05" height="1.768"/>
						</g>
					</g>
				</g>
			</g>
		</g>
	</g>
</g>
<g id="Layer_9">
</g>
<g id="Layer_10">
</g>
<g id="Layer_11">
</g>
<g id="Layer_12">
</g>
<g id="Layer_13">
</g>
<g id="Layer_14">
</g>
<g id="Layer_15">
</g>
<g id="Layer_16">
</g>
<g id="Layer_17">
</g>
<g id="Layer_18">
</g>
<g id="Layer_19">
</g>
<g id="Layer_20">
</g>
<g id="Layer_21">
</g>
<g id="Layer_22">
</g>
<g id="Layer_24">
</g>
<g id="Layer_25">
</g>
<g id="Layer_26">
</g>
<g id="Layer_27">
</g>
<g id="Layer_28">
</g>
<g id="Layer_29">
</g>
<g id="Layer_30">
</g>
<g id="Layer_31">
</g>
<g id="Layer_32">
</g>
<g id="Layer_33">
</g>
<g id="Layer_34">
</g>
<g id="Layer_35">
</g>
<g id="Layer_36">
</g>
<g id="Layer_37">
</g>
<g id="Layer_38">
</g>
<g id="Layer_39">
</g>
<g id="Layer_40">
</g>
<g id="Layer_41">
</g>
<g id="Layer_43">
</g>
</svg>
