<?xml version="1.0" encoding="utf-8"?>
<!-- Generator: Adobe Illustrator 16.0.0, SVG Export Plug-In . SVG Version: 6.00 Build 0)  -->
<!DOCTYPE svg PUBLIC "-//W3C//DTD SVG 1.1//EN" "http://www.w3.org/Graphics/SVG/1.1/DTD/svg11.dtd">
<svg version="1.1" xmlns="http://www.w3.org/2000/svg" xmlns:xlink="http://www.w3.org/1999/xlink" x="0px" y="0px"
	 width="841.89px" height="595.28px" viewBox="0 0 841.89 595.28" enable-background="new 0 0 841.89 595.28" xml:space="preserve">
<g id="Layer_1">
</g>
<g id="Layer_2">
</g>
<g id="Layer_3">
</g>
<g id="Layer_4">
</g>
<g id="Layer_5">
</g>
<g id="Layer_6">
</g>
<g id="Layer_7">
</g>
<g id="Layer_8">
</g>
<g id="Layer_9">
</g>
<g id="Layer_10">
</g>
<g id="Layer_11">
</g>
<g id="Layer_12">
</g>
<g id="Layer_13">
</g>
<g id="Layer_14">
</g>
<g id="Layer_15">
</g>
<g id="Layer_16">
</g>
<g id="Layer_17">
</g>
<g id="Layer_18">
	<path fill="none" stroke="#000000" stroke-miterlimit="10" d="M435.862,233.671"/>
	<path fill="none" stroke="#000000" stroke-miterlimit="10" d="M420.946,269.103"/>
	<g>
		
			<rect x="349.824" y="327.18" transform="matrix(0.7071 -0.7071 0.7071 0.7071 -158.2442 414.0574)" fill="none" stroke="#000000" stroke-miterlimit="10" width="141.731" height="141.732"/>
		<g>
			<g>
				<g>
					<g>
						<g>
							<g>
								<rect x="415.441" y="488.711" fill="none" width="10.499" height="9.554"/>
							</g>
							<rect x="420.32" y="489.417" fill-rule="evenodd" clip-rule="evenodd" width="1.05" height="1.773"/>
							<rect x="420.32" y="492.598" fill-rule="evenodd" clip-rule="evenodd" width="1.05" height="1.773"/>
							<rect x="420.319" y="495.768" fill-rule="evenodd" clip-rule="evenodd" width="1.05" height="1.773"/>
						</g>
					</g>
					<g>
						<g>
							<g>
								<rect x="415.442" y="479.158" fill="none" width="10.499" height="9.554"/>
							</g>
							<rect x="420.321" y="479.864" fill-rule="evenodd" clip-rule="evenodd" width="1.05" height="1.773"/>
							<rect x="420.32" y="483.044" fill-rule="evenodd" clip-rule="evenodd" width="1.05" height="1.773"/>
							<rect x="420.32" y="486.214" fill-rule="evenodd" clip-rule="evenodd" width="1.05" height="1.773"/>
						</g>
					</g>
					<g>
						<g>
							<g>
								<rect x="415.443" y="469.604" fill="none" width="10.499" height="9.553"/>
							</g>
							<rect x="420.321" y="470.311" fill-rule="evenodd" clip-rule="evenodd" width="1.05" height="1.773"/>
							<rect x="420.321" y="473.491" fill-rule="evenodd" clip-rule="evenodd" width="1.05" height="1.773"/>
							<rect x="420.321" y="476.661" fill-rule="evenodd" clip-rule="evenodd" width="1.05" height="1.773"/>
						</g>
					</g>
					<g>
						<g>
							<g>
								<rect x="415.443" y="460.051" fill="none" width="10.5" height="9.554"/>
							</g>
							<rect x="420.322" y="460.757" fill-rule="evenodd" clip-rule="evenodd" width="1.05" height="1.773"/>
							<rect x="420.322" y="463.937" fill-rule="evenodd" clip-rule="evenodd" width="1.05" height="1.773"/>
							<rect x="420.321" y="467.107" fill-rule="evenodd" clip-rule="evenodd" width="1.05" height="1.773"/>
						</g>
					</g>
					<g>
						<g>
							<g>
								<rect x="415.445" y="450.497" fill="none" width="10.499" height="9.554"/>
							</g>
							<rect x="420.323" y="451.203" fill-rule="evenodd" clip-rule="evenodd" width="1.05" height="1.773"/>
							<rect x="420.322" y="454.384" fill-rule="evenodd" clip-rule="evenodd" width="1.05" height="1.773"/>
							<rect x="420.322" y="457.554" fill-rule="evenodd" clip-rule="evenodd" width="1.05" height="1.773"/>
						</g>
					</g>
					<g>
						<g>
							<g>
								<rect x="415.445" y="440.944" fill="none" width="10.499" height="9.553"/>
							</g>
							<rect x="420.323" y="441.649" fill-rule="evenodd" clip-rule="evenodd" width="1.05" height="1.773"/>
							<rect x="420.323" y="444.83" fill-rule="evenodd" clip-rule="evenodd" width="1.05" height="1.773"/>
							<rect x="420.323" y="448" fill-rule="evenodd" clip-rule="evenodd" width="1.05" height="1.773"/>
						</g>
					</g>
					<g>
						<g>
							<g>
								<rect x="415.446" y="431.39" fill="none" width="10.499" height="9.554"/>
							</g>
							<rect x="420.324" y="432.096" fill-rule="evenodd" clip-rule="evenodd" width="1.05" height="1.773"/>
							<rect x="420.324" y="435.276" fill-rule="evenodd" clip-rule="evenodd" width="1.05" height="1.773"/>
							<rect x="420.324" y="438.447" fill-rule="evenodd" clip-rule="evenodd" width="1.05" height="1.773"/>
						</g>
					</g>
					<g>
						<g>
							<g>
								<rect x="415.446" y="421.836" fill="none" width="10.5" height="9.554"/>
							</g>
							<rect x="420.325" y="422.542" fill-rule="evenodd" clip-rule="evenodd" width="1.05" height="1.773"/>
							<rect x="420.325" y="425.723" fill-rule="evenodd" clip-rule="evenodd" width="1.05" height="1.773"/>
							<rect x="420.324" y="428.893" fill-rule="evenodd" clip-rule="evenodd" width="1.05" height="1.773"/>
						</g>
					</g>
					<g>
						<g>
							<g>
								<rect x="415.448" y="412.283" fill="none" width="10.499" height="9.554"/>
							</g>
							<rect x="420.326" y="412.989" fill-rule="evenodd" clip-rule="evenodd" width="1.05" height="1.773"/>
							<rect x="420.325" y="416.169" fill-rule="evenodd" clip-rule="evenodd" width="1.05" height="1.773"/>
							<rect x="420.325" y="419.339" fill-rule="evenodd" clip-rule="evenodd" width="1.05" height="1.773"/>
						</g>
					</g>
					<g>
						<g>
							<g>
								<rect x="415.448" y="402.729" fill="none" width="10.499" height="9.553"/>
							</g>
							<rect x="420.326" y="403.436" fill-rule="evenodd" clip-rule="evenodd" width="1.05" height="1.773"/>
							<rect x="420.326" y="406.616" fill-rule="evenodd" clip-rule="evenodd" width="1.05" height="1.773"/>
							<rect x="420.326" y="409.786" fill-rule="evenodd" clip-rule="evenodd" width="1.05" height="1.773"/>
						</g>
					</g>
					<g>
						<g>
							<g>
								<rect x="415.449" y="393.176" fill="none" width="10.499" height="9.554"/>
							</g>
							<rect x="420.327" y="393.882" fill-rule="evenodd" clip-rule="evenodd" width="1.05" height="1.773"/>
							<rect x="420.327" y="397.062" fill-rule="evenodd" clip-rule="evenodd" width="1.05" height="1.773"/>
							<rect x="420.327" y="400.232" fill-rule="evenodd" clip-rule="evenodd" width="1.05" height="1.773"/>
						</g>
					</g>
					<g>
						<g>
							<g>
								<rect x="415.449" y="383.622" fill="none" width="10.5" height="9.554"/>
							</g>
							<rect x="420.328" y="384.328" fill-rule="evenodd" clip-rule="evenodd" width="1.05" height="1.773"/>
							<rect x="420.328" y="387.509" fill-rule="evenodd" clip-rule="evenodd" width="1.05" height="1.773"/>
							<rect x="420.327" y="390.679" fill-rule="evenodd" clip-rule="evenodd" width="1.05" height="1.773"/>
						</g>
					</g>
					<g>
						<g>
							<g>
								<rect x="415.451" y="374.069" fill="none" width="10.499" height="9.553"/>
							</g>
							<rect x="420.329" y="374.774" fill-rule="evenodd" clip-rule="evenodd" width="1.05" height="1.773"/>
							<rect x="420.328" y="377.955" fill-rule="evenodd" clip-rule="evenodd" width="1.05" height="1.773"/>
							<rect x="420.328" y="381.125" fill-rule="evenodd" clip-rule="evenodd" width="1.05" height="1.773"/>
						</g>
					</g>
					<g>
						<g>
							<g>
								<rect x="415.451" y="364.515" fill="none" width="10.499" height="9.554"/>
							</g>
							<rect x="420.329" y="365.221" fill-rule="evenodd" clip-rule="evenodd" width="1.05" height="1.773"/>
							<rect x="420.329" y="368.401" fill-rule="evenodd" clip-rule="evenodd" width="1.05" height="1.773"/>
							<rect x="420.329" y="371.572" fill-rule="evenodd" clip-rule="evenodd" width="1.05" height="1.773"/>
						</g>
					</g>
					<g>
						<g>
							<g>
								<rect x="415.452" y="354.961" fill="none" width="10.499" height="9.554"/>
							</g>
							<rect x="420.33" y="355.667" fill-rule="evenodd" clip-rule="evenodd" width="1.05" height="1.773"/>
							<rect x="420.33" y="358.848" fill-rule="evenodd" clip-rule="evenodd" width="1.05" height="1.773"/>
							<rect x="420.33" y="362.018" fill-rule="evenodd" clip-rule="evenodd" width="1.05" height="1.773"/>
						</g>
					</g>
					<g>
						<g>
							<g>
								<rect x="415.452" y="345.408" fill="none" width="10.5" height="9.554"/>
							</g>
							<rect x="420.331" y="346.114" fill-rule="evenodd" clip-rule="evenodd" width="1.05" height="1.773"/>
							<rect x="420.331" y="349.294" fill-rule="evenodd" clip-rule="evenodd" width="1.05" height="1.773"/>
							<rect x="420.33" y="352.464" fill-rule="evenodd" clip-rule="evenodd" width="1.05" height="1.773"/>
						</g>
					</g>
					<g>
						<g>
							<g>
								<rect x="415.454" y="335.854" fill="none" width="10.499" height="9.553"/>
							</g>
							<rect x="420.332" y="336.561" fill-rule="evenodd" clip-rule="evenodd" width="1.05" height="1.773"/>
							<rect x="420.331" y="339.741" fill-rule="evenodd" clip-rule="evenodd" width="1.05" height="1.773"/>
							<rect x="420.331" y="342.911" fill-rule="evenodd" clip-rule="evenodd" width="1.05" height="1.773"/>
						</g>
					</g>
					<g>
						<g>
							<g>
								<rect x="415.454" y="326.301" fill="none" width="10.499" height="9.554"/>
							</g>
							<rect x="420.332" y="327.007" fill-rule="evenodd" clip-rule="evenodd" width="1.05" height="1.773"/>
							<rect x="420.332" y="330.187" fill-rule="evenodd" clip-rule="evenodd" width="1.05" height="1.773"/>
							<rect x="420.332" y="333.357" fill-rule="evenodd" clip-rule="evenodd" width="1.05" height="1.773"/>
						</g>
					</g>
					<g>
						<g>
							<g>
								<rect x="415.455" y="316.747" fill="none" width="10.499" height="9.554"/>
							</g>
							<rect x="420.333" y="317.453" fill-rule="evenodd" clip-rule="evenodd" width="1.05" height="1.773"/>
							<rect x="420.333" y="320.634" fill-rule="evenodd" clip-rule="evenodd" width="1.05" height="1.773"/>
							<rect x="420.333" y="323.804" fill-rule="evenodd" clip-rule="evenodd" width="1.05" height="1.773"/>
						</g>
					</g>
					<g>
						<g>
							<g>
								<rect x="415.456" y="307.194" fill="none" width="10.499" height="9.553"/>
							</g>
							<rect x="420.334" y="307.899" fill-rule="evenodd" clip-rule="evenodd" width="1.05" height="1.773"/>
							<rect x="420.334" y="311.08" fill-rule="evenodd" clip-rule="evenodd" width="1.05" height="1.773"/>
							<rect x="420.333" y="314.25" fill-rule="evenodd" clip-rule="evenodd" width="1.05" height="1.773"/>
						</g>
					</g>
					<g>
						<g>
							<g>
								<rect x="415.457" y="297.64" fill="none" width="10.499" height="9.554"/>
							</g>
							<rect x="420.335" y="298.346" fill-rule="evenodd" clip-rule="evenodd" width="1.05" height="1.773"/>
							<rect x="420.334" y="301.526" fill-rule="evenodd" clip-rule="evenodd" width="1.05" height="1.773"/>
							<rect x="420.334" y="304.697" fill-rule="evenodd" clip-rule="evenodd" width="1.05" height="1.773"/>
						</g>
					</g>
				</g>
			</g>
		</g>
		<line fill="none" stroke="#000000" stroke-miterlimit="10" x1="420.69" y1="498.265" x2="480.937" y2="358.074"/>
		<line fill="none" stroke="#000000" stroke-miterlimit="10" x1="360.442" y1="358.074" x2="420.69" y2="498.265"/>
	</g>
</g>
<g id="Layer_19">
</g>
<g id="Layer_20">
</g>
<g id="Layer_21">
</g>
<g id="Layer_22">
</g>
<g id="Layer_24">
</g>
<g id="Layer_25">
</g>
<g id="Layer_26">
</g>
<g id="Layer_27">
</g>
<g id="Layer_28">
</g>
<g id="Layer_29">
</g>
<g id="Layer_30">
</g>
<g id="Layer_31">
</g>
<g id="Layer_32">
</g>
<g id="Layer_33">
</g>
<g id="Layer_34">
</g>
<g id="Layer_35">
</g>
<g id="Layer_36">
</g>
<g id="Layer_37">
</g>
<g id="Layer_38">
</g>
<g id="Layer_39">
</g>
<g id="Layer_40">
</g>
<g id="Layer_41">
</g>
<g id="Layer_43">
</g>
</svg>
