<?xml version="1.0" encoding="utf-8"?>
<!-- Generator: Adobe Illustrator 16.0.0, SVG Export Plug-In . SVG Version: 6.00 Build 0)  -->
<!DOCTYPE svg PUBLIC "-//W3C//DTD SVG 1.1//EN" "http://www.w3.org/Graphics/SVG/1.1/DTD/svg11.dtd">
<svg version="1.1" xmlns="http://www.w3.org/2000/svg" xmlns:xlink="http://www.w3.org/1999/xlink" x="0px" y="0px"
	 width="841.89px" height="595.28px" viewBox="0 0 841.89 595.28" enable-background="new 0 0 841.89 595.28" xml:space="preserve">
<g id="Layer_1">
</g>
<g id="Layer_2">
</g>
<g id="Layer_3">
</g>
<g id="Layer_4">
	<g>
		<polyline fill="none" stroke="#000000" stroke-miterlimit="10" points="281.749,428.251 281.749,439.373 423.481,439.373 
			565.214,439.373 565.214,297.642 		"/>
		<polygon fill="none" stroke="#000000" stroke-miterlimit="10" points="270.592,428.251 281.749,428.251 281.748,297.642 		"/>
		<g id="pion_2_">
			<g>
				<g>
					<g>
						<g>
							<g>
								<rect x="418.231" y="297.13" fill="none" width="10.5" height="9.483"/>
							</g>
							<rect x="422.803" y="304.152" fill-rule="evenodd" clip-rule="evenodd" width="1.05" height="1.76"/>
							<rect x="422.803" y="300.996" fill-rule="evenodd" clip-rule="evenodd" width="1.05" height="1.76"/>
							<rect x="422.803" y="297.849" fill-rule="evenodd" clip-rule="evenodd" width="1.05" height="1.761"/>
						</g>
					</g>
					<g>
						<g>
							<g>
								<rect x="418.231" y="306.613" fill="none" width="10.5" height="9.482"/>
							</g>
							<rect x="422.803" y="313.635" fill-rule="evenodd" clip-rule="evenodd" width="1.05" height="1.76"/>
							<rect x="422.803" y="310.479" fill-rule="evenodd" clip-rule="evenodd" width="1.05" height="1.76"/>
							<rect x="422.803" y="307.332" fill-rule="evenodd" clip-rule="evenodd" width="1.05" height="1.76"/>
						</g>
					</g>
					<g>
						<g>
							<g>
								<rect x="418.231" y="316.096" fill="none" width="10.5" height="9.483"/>
							</g>
							<rect x="422.803" y="323.118" fill-rule="evenodd" clip-rule="evenodd" width="1.05" height="1.76"/>
							<rect x="422.803" y="319.961" fill-rule="evenodd" clip-rule="evenodd" width="1.05" height="1.761"/>
							<rect x="422.803" y="316.814" fill-rule="evenodd" clip-rule="evenodd" width="1.05" height="1.76"/>
						</g>
					</g>
					<g>
						<g>
							<g>
								<rect x="418.231" y="325.579" fill="none" width="10.5" height="9.482"/>
							</g>
							<rect x="422.803" y="332.601" fill-rule="evenodd" clip-rule="evenodd" width="1.05" height="1.76"/>
							<rect x="422.803" y="329.444" fill-rule="evenodd" clip-rule="evenodd" width="1.05" height="1.76"/>
							<rect x="422.803" y="326.297" fill-rule="evenodd" clip-rule="evenodd" width="1.05" height="1.76"/>
						</g>
					</g>
					<g>
						<g>
							<g>
								<rect x="418.231" y="335.062" fill="none" width="10.5" height="9.483"/>
							</g>
							<rect x="422.803" y="342.084" fill-rule="evenodd" clip-rule="evenodd" width="1.05" height="1.76"/>
							<rect x="422.803" y="338.927" fill-rule="evenodd" clip-rule="evenodd" width="1.05" height="1.76"/>
							<rect x="422.803" y="335.78" fill-rule="evenodd" clip-rule="evenodd" width="1.05" height="1.76"/>
						</g>
					</g>
					<g>
						<g>
							<g>
								<rect x="418.231" y="344.545" fill="none" width="10.5" height="9.482"/>
							</g>
							<rect x="422.803" y="351.566" fill-rule="evenodd" clip-rule="evenodd" width="1.05" height="1.761"/>
							<rect x="422.803" y="348.41" fill-rule="evenodd" clip-rule="evenodd" width="1.05" height="1.76"/>
							<rect x="422.803" y="345.263" fill-rule="evenodd" clip-rule="evenodd" width="1.05" height="1.76"/>
						</g>
					</g>
					<g>
						<g>
							<g>
								<rect x="418.231" y="354.027" fill="none" width="10.5" height="9.483"/>
							</g>
							<rect x="422.803" y="361.05" fill-rule="evenodd" clip-rule="evenodd" width="1.05" height="1.76"/>
							<rect x="422.803" y="357.893" fill-rule="evenodd" clip-rule="evenodd" width="1.05" height="1.76"/>
							<rect x="422.803" y="354.746" fill-rule="evenodd" clip-rule="evenodd" width="1.05" height="1.76"/>
						</g>
					</g>
					<g>
						<g>
							<g>
								<rect x="418.231" y="363.51" fill="none" width="10.5" height="9.483"/>
							</g>
							<rect x="422.803" y="370.532" fill-rule="evenodd" clip-rule="evenodd" width="1.05" height="1.76"/>
							<rect x="422.803" y="367.375" fill-rule="evenodd" clip-rule="evenodd" width="1.05" height="1.76"/>
							<rect x="422.803" y="364.229" fill-rule="evenodd" clip-rule="evenodd" width="1.05" height="1.761"/>
						</g>
					</g>
					<g>
						<g>
							<g>
								<rect x="418.231" y="372.993" fill="none" width="10.5" height="9.483"/>
							</g>
							<rect x="422.803" y="380.015" fill-rule="evenodd" clip-rule="evenodd" width="1.05" height="1.76"/>
							<rect x="422.803" y="376.858" fill-rule="evenodd" clip-rule="evenodd" width="1.05" height="1.76"/>
							<rect x="422.803" y="373.712" fill-rule="evenodd" clip-rule="evenodd" width="1.05" height="1.76"/>
						</g>
					</g>
					<g>
						<g>
							<g>
								<rect x="418.231" y="382.476" fill="none" width="10.5" height="9.483"/>
							</g>
							<rect x="422.803" y="389.498" fill-rule="evenodd" clip-rule="evenodd" width="1.05" height="1.76"/>
							<rect x="422.803" y="386.341" fill-rule="evenodd" clip-rule="evenodd" width="1.05" height="1.761"/>
							<rect x="422.803" y="383.194" fill-rule="evenodd" clip-rule="evenodd" width="1.05" height="1.76"/>
						</g>
					</g>
					<g>
						<g>
							<g>
								<rect x="418.231" y="391.959" fill="none" width="10.5" height="9.482"/>
							</g>
							<rect x="422.803" y="398.981" fill-rule="evenodd" clip-rule="evenodd" width="1.05" height="1.76"/>
							<rect x="422.803" y="395.824" fill-rule="evenodd" clip-rule="evenodd" width="1.05" height="1.76"/>
							<rect x="422.803" y="392.677" fill-rule="evenodd" clip-rule="evenodd" width="1.05" height="1.76"/>
						</g>
					</g>
					<g>
						<g>
							<g>
								<rect x="418.231" y="401.441" fill="none" width="10.5" height="9.483"/>
							</g>
							<rect x="422.803" y="408.464" fill-rule="evenodd" clip-rule="evenodd" width="1.05" height="1.76"/>
							<rect x="422.803" y="405.307" fill-rule="evenodd" clip-rule="evenodd" width="1.05" height="1.76"/>
							<rect x="422.803" y="402.16" fill-rule="evenodd" clip-rule="evenodd" width="1.05" height="1.76"/>
						</g>
					</g>
					<g>
						<g>
							<g>
								<rect x="418.231" y="410.925" fill="none" width="10.5" height="9.482"/>
							</g>
							<rect x="422.803" y="417.946" fill-rule="evenodd" clip-rule="evenodd" width="1.05" height="1.761"/>
							<rect x="422.803" y="414.79" fill-rule="evenodd" clip-rule="evenodd" width="1.05" height="1.76"/>
							<rect x="422.803" y="411.643" fill-rule="evenodd" clip-rule="evenodd" width="1.05" height="1.76"/>
						</g>
					</g>
					<g>
						<g>
							<g>
								<rect x="418.231" y="420.407" fill="none" width="10.5" height="9.483"/>
							</g>
							<rect x="422.803" y="427.43" fill-rule="evenodd" clip-rule="evenodd" width="1.05" height="1.76"/>
							<rect x="422.803" y="424.272" fill-rule="evenodd" clip-rule="evenodd" width="1.05" height="1.76"/>
							<rect x="422.803" y="421.126" fill-rule="evenodd" clip-rule="evenodd" width="1.05" height="1.76"/>
						</g>
					</g>
					<g>
						<g>
							<g>
								<rect x="418.231" y="429.89" fill="none" width="10.5" height="9.483"/>
							</g>
							<rect x="422.803" y="436.912" fill-rule="evenodd" clip-rule="evenodd" width="1.05" height="1.76"/>
							<rect x="422.803" y="433.755" fill-rule="evenodd" clip-rule="evenodd" width="1.05" height="1.76"/>
							<rect x="422.803" y="430.608" fill-rule="evenodd" clip-rule="evenodd" width="1.05" height="1.761"/>
						</g>
					</g>
				</g>
			</g>
		</g>
		<line fill="none" stroke="#000000" stroke-miterlimit="10" x1="281.748" y1="297.642" x2="565.214" y2="297.642"/>
	</g>
</g>
<g id="Layer_5">
</g>
<g id="Layer_6">
</g>
<g id="Layer_7">
</g>
<g id="Layer_8">
</g>
<g id="Layer_9">
</g>
<g id="Layer_10">
</g>
<g id="Layer_11">
</g>
<g id="Layer_12">
</g>
<g id="Layer_13">
</g>
<g id="Layer_14">
</g>
<g id="Layer_15">
</g>
<g id="Layer_16">
</g>
<g id="Layer_17">
</g>
<g id="Layer_18">
</g>
<g id="Layer_19">
</g>
<g id="Layer_20">
</g>
<g id="Layer_21">
</g>
<g id="Layer_22">
</g>
<g id="Layer_24">
</g>
<g id="Layer_25">
</g>
<g id="Layer_26">
</g>
<g id="Layer_27">
</g>
<g id="Layer_28">
</g>
<g id="Layer_29">
</g>
<g id="Layer_30">
</g>
<g id="Layer_31">
</g>
<g id="Layer_32">
</g>
<g id="Layer_33">
</g>
<g id="Layer_34">
</g>
<g id="Layer_35">
</g>
<g id="Layer_36">
</g>
<g id="Layer_37">
</g>
<g id="Layer_38">
</g>
<g id="Layer_39">
</g>
<g id="Layer_40">
</g>
<g id="Layer_41">
</g>
<g id="Layer_43">
</g>
</svg>
