<?xml version="1.0" encoding="utf-8"?>
<!-- Generator: Adobe Illustrator 16.0.0, SVG Export Plug-In . SVG Version: 6.00 Build 0)  -->
<!DOCTYPE svg PUBLIC "-//W3C//DTD SVG 1.1//EN" "http://www.w3.org/Graphics/SVG/1.1/DTD/svg11.dtd">
<svg version="1.1" xmlns="http://www.w3.org/2000/svg" xmlns:xlink="http://www.w3.org/1999/xlink" x="0px" y="0px"
	 width="841.89px" height="595.28px" viewBox="0 0 841.89 595.28" enable-background="new 0 0 841.89 595.28" xml:space="preserve">
<g id="Layer_1">
</g>
<g id="Layer_2">
</g>
<g id="Layer_3">
</g>
<g id="Layer_4">
</g>
<g id="Layer_5">
</g>
<g id="Layer_6">
</g>
<g id="Layer_7">
</g>
<g id="Layer_8">
</g>
<g id="Layer_9">
</g>
<g id="Layer_10">
</g>
<g id="Layer_11">
</g>
<g id="Layer_12">
</g>
<g id="Layer_13">
</g>
<g id="Layer_14">
</g>
<g id="Layer_15">
</g>
<g id="Layer_16">
</g>
<g id="Layer_17">
</g>
<g id="Layer_18">
</g>
<g id="Layer_19">
</g>
<g id="Layer_20">
</g>
<g id="Layer_21">
</g>
<g id="Layer_22">
</g>
<g id="Layer_24">
	<g>
		<polyline id="pion_9_" fill="none" stroke="#000000" stroke-miterlimit="10" points="483.312,308.809 420.944,246.064 
			358.577,308.809 		"/>
		<line fill="none" stroke="#000000" stroke-miterlimit="10" x1="420.56" y1="446.442" x2="420.983" y2="308.474"/>
		<line fill="none" stroke="#000000" stroke-miterlimit="10" x1="483.312" y1="308.809" x2="420.776" y2="308.809"/>
		<path fill="none" stroke="#000000" stroke-miterlimit="10" d="M420.841,245.981"/>
		<line fill="none" stroke="#000000" stroke-miterlimit="10" x1="483.312" y1="308.809" x2="420.841" y2="446.777"/>
		<g>
			<g>
				<g>
					<g>
						<g>
							<g>
								
									<rect x="416.047" y="298.812" transform="matrix(-0.0038 1 -1 -0.0038 726.4547 -115.5722)" fill="none" width="9.494" height="10.499"/>
							</g>
							<rect x="420.435" y="300.017" fill-rule="evenodd" clip-rule="evenodd" width="1.05" height="1.762"/>
							<rect x="420.423" y="303.177" fill-rule="evenodd" clip-rule="evenodd" width="1.05" height="1.763"/>
							<rect x="420.41" y="306.327" fill-rule="evenodd" clip-rule="evenodd" width="1.051" height="1.763"/>
						</g>
					</g>
					<g>
						<g>
							<g>
								
									<rect x="416.082" y="289.317" transform="matrix(-0.0037 1 -1 -0.0037 716.9526 -125.1691)" fill="none" width="9.495" height="10.499"/>
							</g>
							<rect x="420.47" y="290.521" fill-rule="evenodd" clip-rule="evenodd" width="1.05" height="1.763"/>
							<rect x="420.458" y="293.683" fill-rule="evenodd" clip-rule="evenodd" width="1.05" height="1.762"/>
							<rect x="420.447" y="296.833" fill-rule="evenodd" clip-rule="evenodd" width="1.05" height="1.762"/>
						</g>
					</g>
					<g>
						<g>
							<g>
								
									<rect x="416.118" y="279.823" transform="matrix(-0.0038 1 -1 -0.0038 707.5374 -134.7048)" fill="none" width="9.495" height="10.499"/>
							</g>
							<rect x="420.506" y="281.027" fill-rule="evenodd" clip-rule="evenodd" width="1.05" height="1.762"/>
							<rect x="420.494" y="284.188" fill-rule="evenodd" clip-rule="evenodd" width="1.05" height="1.762"/>
							<rect x="420.482" y="287.338" fill-rule="evenodd" clip-rule="evenodd" width="1.05" height="1.763"/>
						</g>
					</g>
					<g>
						<g>
							<g>
								
									<rect x="416.154" y="270.328" transform="matrix(-0.0037 1 -1 -0.0037 698.0354 -144.2997)" fill="none" width="9.494" height="10.499"/>
							</g>
							<rect x="420.542" y="271.533" fill-rule="evenodd" clip-rule="evenodd" width="1.05" height="1.762"/>
							<rect x="420.53" y="274.693" fill-rule="evenodd" clip-rule="evenodd" width="1.05" height="1.763"/>
							<rect x="420.518" y="277.844" fill-rule="evenodd" clip-rule="evenodd" width="1.05" height="1.762"/>
						</g>
					</g>
					<g>
						<g>
							<g>
								
									<rect x="416.189" y="260.834" transform="matrix(-0.0037 1 -1 -0.0037 688.5768 -153.8649)" fill="none" width="9.495" height="10.498"/>
							</g>
							<rect x="420.576" y="262.038" fill-rule="evenodd" clip-rule="evenodd" width="1.051" height="1.763"/>
							<rect x="420.565" y="265.199" fill-rule="evenodd" clip-rule="evenodd" width="1.05" height="1.762"/>
							<rect x="420.553" y="268.35" fill-rule="evenodd" clip-rule="evenodd" width="1.05" height="1.762"/>
						</g>
					</g>
					<g>
						<g>
							<g>
								
									<rect x="416.224" y="251.34" transform="matrix(-0.0038 1 -1 -0.0038 679.1609 -163.4031)" fill="none" width="9.495" height="10.499"/>
							</g>
							<rect x="420.613" y="252.544" fill-rule="evenodd" clip-rule="evenodd" width="1.05" height="1.762"/>
							<rect x="420.601" y="255.705" fill-rule="evenodd" clip-rule="evenodd" width="1.05" height="1.762"/>
							<rect x="420.588" y="258.855" fill-rule="evenodd" clip-rule="evenodd" width="1.051" height="1.763"/>
						</g>
					</g>
					<g>
						<g>
							<g>
								
									<rect x="416.26" y="241.845" transform="matrix(-0.0037 1 -1 -0.0037 669.6591 -172.995)" fill="none" width="9.494" height="10.499"/>
							</g>
							<rect x="420.648" y="243.049" fill-rule="evenodd" clip-rule="evenodd" width="1.05" height="1.762"/>
							<rect x="420.636" y="246.21" fill-rule="evenodd" clip-rule="evenodd" width="1.05" height="1.763"/>
							<rect x="420.625" y="249.361" fill-rule="evenodd" clip-rule="evenodd" width="1.05" height="1.762"/>
						</g>
					</g>
					<g>
						<g>
							<g>
								
									<rect x="416.296" y="232.351" transform="matrix(-0.0038 1 -1 -0.0038 660.2437 -182.5356)" fill="none" width="9.495" height="10.499"/>
							</g>
							<rect x="420.684" y="233.555" fill-rule="evenodd" clip-rule="evenodd" width="1.05" height="1.763"/>
							<rect x="420.671" y="236.716" fill-rule="evenodd" clip-rule="evenodd" width="1.05" height="1.762"/>
							<rect x="420.66" y="239.866" fill-rule="evenodd" clip-rule="evenodd" width="1.05" height="1.762"/>
						</g>
					</g>
					<g>
						<g>
							<g>
								
									<rect x="416.331" y="222.856" transform="matrix(-0.0037 1 -1 -0.0037 650.7419 -192.1254)" fill="none" width="9.495" height="10.499"/>
							</g>
							<rect x="420.719" y="224.061" fill-rule="evenodd" clip-rule="evenodd" width="1.05" height="1.762"/>
							<rect x="420.708" y="227.221" fill-rule="evenodd" clip-rule="evenodd" width="1.05" height="1.762"/>
							<rect x="420.696" y="230.372" fill-rule="evenodd" clip-rule="evenodd" width="1.05" height="1.763"/>
						</g>
					</g>
					<g>
						<g>
							<g>
								
									<rect x="416.367" y="213.362" transform="matrix(-0.0037 1 -1 -0.0037 641.2832 -201.6908)" fill="none" width="9.494" height="10.498"/>
							</g>
							<rect x="420.754" y="214.566" fill-rule="evenodd" clip-rule="evenodd" width="1.051" height="1.762"/>
							<rect x="420.743" y="217.727" fill-rule="evenodd" clip-rule="evenodd" width="1.05" height="1.763"/>
							<rect x="420.731" y="220.877" fill-rule="evenodd" clip-rule="evenodd" width="1.05" height="1.762"/>
						</g>
					</g>
					<g>
						<g>
							<g>
								
									<rect x="416.402" y="203.867" transform="matrix(-0.0038 1 -1 -0.0038 631.8673 -211.2339)" fill="none" width="9.495" height="10.499"/>
							</g>
							<rect x="420.791" y="205.071" fill-rule="evenodd" clip-rule="evenodd" width="1.05" height="1.763"/>
							<rect x="420.778" y="208.232" fill-rule="evenodd" clip-rule="evenodd" width="1.05" height="1.762"/>
							<rect x="420.766" y="211.383" fill-rule="evenodd" clip-rule="evenodd" width="1.051" height="1.762"/>
						</g>
					</g>
					<g>
						<g>
							<g>
								
									<rect x="416.438" y="194.373" transform="matrix(-0.0037 1 -1 -0.0037 622.3655 -220.8207)" fill="none" width="9.495" height="10.499"/>
							</g>
							<rect x="420.826" y="195.577" fill-rule="evenodd" clip-rule="evenodd" width="1.05" height="1.762"/>
							<rect x="420.814" y="198.738" fill-rule="evenodd" clip-rule="evenodd" width="1.05" height="1.762"/>
							<rect x="420.802" y="201.888" fill-rule="evenodd" clip-rule="evenodd" width="1.05" height="1.763"/>
						</g>
					</g>
					<g>
						<g>
							<g>
								
									<rect x="416.474" y="184.878" transform="matrix(-0.0038 1 -1 -0.0038 612.9501 -230.3664)" fill="none" width="9.494" height="10.499"/>
							</g>
							<rect x="420.861" y="186.083" fill-rule="evenodd" clip-rule="evenodd" width="1.05" height="1.762"/>
							<rect x="420.849" y="189.243" fill-rule="evenodd" clip-rule="evenodd" width="1.05" height="1.763"/>
							<rect x="420.837" y="192.394" fill-rule="evenodd" clip-rule="evenodd" width="1.05" height="1.762"/>
						</g>
					</g>
					<g>
						<g>
							<g>
								
									<rect x="416.509" y="175.384" transform="matrix(-0.0037 1 -1 -0.0037 603.4482 -239.9513)" fill="none" width="9.495" height="10.499"/>
							</g>
							<rect x="420.897" y="176.588" fill-rule="evenodd" clip-rule="evenodd" width="1.05" height="1.763"/>
							<rect x="420.885" y="179.749" fill-rule="evenodd" clip-rule="evenodd" width="1.05" height="1.762"/>
							<rect x="420.874" y="182.899" fill-rule="evenodd" clip-rule="evenodd" width="1.05" height="1.762"/>
						</g>
					</g>
					<g>
						<g>
							<g>
								
									<rect x="416.545" y="165.89" transform="matrix(-0.0037 1 -1 -0.0037 593.9896 -249.5165)" fill="none" width="9.495" height="10.498"/>
							</g>
							<rect x="420.932" y="167.094" fill-rule="evenodd" clip-rule="evenodd" width="1.051" height="1.762"/>
							<rect x="420.92" y="170.254" fill-rule="evenodd" clip-rule="evenodd" width="1.05" height="1.762"/>
							<rect x="420.909" y="173.405" fill-rule="evenodd" clip-rule="evenodd" width="1.05" height="1.763"/>
						</g>
					</g>
				</g>
			</g>
		</g>
		<line fill="none" stroke="#000000" stroke-miterlimit="10" x1="386.954" y1="246.338" x2="391.862" y2="274.98"/>
		<line fill="none" stroke="#000000" stroke-miterlimit="10" x1="421.31" y1="166.392" x2="386.954" y2="246.338"/>
		<line fill="none" stroke="#000000" stroke-miterlimit="10" x1="455.667" y1="246.338" x2="421.31" y2="166.392"/>
		<line fill="none" stroke="#000000" stroke-miterlimit="10" x1="455.667" y1="246.338" x2="450.64" y2="275.662"/>
		<line fill="none" stroke="#000000" stroke-miterlimit="10" x1="358.64" y1="308.474" x2="420.56" y2="446.442"/>
		<line fill="none" stroke="#000000" stroke-miterlimit="10" x1="420.921" y1="308.809" x2="358.577" y2="308.809"/>
	</g>
</g>
<g id="Layer_25">
</g>
<g id="Layer_26">
</g>
<g id="Layer_27">
</g>
<g id="Layer_28">
</g>
<g id="Layer_29">
</g>
<g id="Layer_30">
</g>
<g id="Layer_31">
</g>
<g id="Layer_32">
</g>
<g id="Layer_33">
</g>
<g id="Layer_34">
</g>
<g id="Layer_35">
</g>
<g id="Layer_36">
</g>
<g id="Layer_37">
</g>
<g id="Layer_38">
</g>
<g id="Layer_39">
</g>
<g id="Layer_40">
</g>
<g id="Layer_41">
</g>
<g id="Layer_43">
</g>
</svg>
