<?xml version="1.0" encoding="utf-8"?>
<!-- Generator: Adobe Illustrator 16.0.0, SVG Export Plug-In . SVG Version: 6.00 Build 0)  -->
<!DOCTYPE svg PUBLIC "-//W3C//DTD SVG 1.1//EN" "http://www.w3.org/Graphics/SVG/1.1/DTD/svg11.dtd">
<svg version="1.1" xmlns="http://www.w3.org/2000/svg" xmlns:xlink="http://www.w3.org/1999/xlink" x="0px" y="0px"
	 width="841.89px" height="595.28px" viewBox="0 0 841.89 595.28" enable-background="new 0 0 841.89 595.28" xml:space="preserve">
<g id="Layer_1">
</g>
<g id="Layer_2">
</g>
<g id="Layer_3">
</g>
<g id="Layer_4">
</g>
<g id="Layer_5">
</g>
<g id="Layer_6">
</g>
<g id="Layer_7">
</g>
<g id="Layer_8">
</g>
<g id="Layer_9">
</g>
<g id="Layer_10">
</g>
<g id="Layer_11">
</g>
<g id="Layer_12">
</g>
<g id="Layer_13">
</g>
<g id="Layer_14">
</g>
<g id="Layer_15">
</g>
<g id="Layer_16">
</g>
<g id="Layer_17">
</g>
<g id="Layer_18">
</g>
<g id="Layer_19">
	<polyline fill="none" stroke="#000000" stroke-miterlimit="10" points="481.058,357.649 520.909,397.503 420.69,497.722 
		320.47,397.503 360.441,357.529 	"/>
	<line fill="none" stroke="#000000" stroke-miterlimit="10" x1="420.69" y1="497.722" x2="420.689" y2="217.337"/>
	<path fill="none" stroke="#000000" stroke-miterlimit="10" d="M420.69,296.927"/>
	<line fill="none" stroke="#000000" stroke-miterlimit="10" x1="420.69" y1="497.722" x2="480.937" y2="357.53"/>
	<line fill="none" stroke="#000000" stroke-miterlimit="10" x1="360.442" y1="357.53" x2="420.69" y2="497.722"/>
	<line fill="none" stroke="#000000" stroke-miterlimit="10" x1="420.689" y1="217.337" x2="360.442" y2="357.53"/>
	<line fill="none" stroke="#000000" stroke-miterlimit="10" x1="480.938" y1="357.53" x2="420.689" y2="217.337"/>
	<path fill="none" stroke="#000000" stroke-miterlimit="10" d="M481.055,357.647"/>
	<path fill="none" stroke="#000000" stroke-miterlimit="10" d="M481.055,357.647"/>
	<g>
		<g>
			<g>
				<g>
					<g>
						<g>
							
								<rect x="360.442" y="352.284" transform="matrix(-1 -0.001 0.001 -1 729.8033 715.4328)" fill="none" width="9.277" height="10.499"/>
						</g>
						<rect x="367.312" y="357.165" fill-rule="evenodd" clip-rule="evenodd" width="1.722" height="1.05"/>
						<rect x="364.223" y="357.162" fill-rule="evenodd" clip-rule="evenodd" width="1.722" height="1.05"/>
						<rect x="361.144" y="357.16" fill-rule="evenodd" clip-rule="evenodd" width="1.723" height="1.05"/>
					</g>
				</g>
				<g>
					<g>
						<g>
							
								<rect x="369.719" y="352.294" transform="matrix(-1 -9.998400e-004 9.998400e-004 -1 748.3591 715.4606)" fill="none" width="9.278" height="10.499"/>
						</g>
						<rect x="376.59" y="357.175" fill-rule="evenodd" clip-rule="evenodd" width="1.723" height="1.05"/>
						<rect x="373.501" y="357.172" fill-rule="evenodd" clip-rule="evenodd" width="1.722" height="1.05"/>
						<rect x="370.422" y="357.169" fill-rule="evenodd" clip-rule="evenodd" width="1.722" height="1.05"/>
					</g>
				</g>
				<g>
					<g>
						<g>
							
								<rect x="378.998" y="352.303" transform="matrix(-1 -9.998400e-004 9.998400e-004 -1 766.9158 715.4884)" fill="none" width="9.278" height="10.499"/>
						</g>
						<rect x="385.868" y="357.184" fill-rule="evenodd" clip-rule="evenodd" width="1.723" height="1.05"/>
						<rect x="382.779" y="357.181" fill-rule="evenodd" clip-rule="evenodd" width="1.723" height="1.05"/>
						<rect x="379.701" y="357.178" fill-rule="evenodd" clip-rule="evenodd" width="1.722" height="1.05"/>
					</g>
				</g>
				<g>
					<g>
						<g>
							
								<rect x="388.276" y="352.312" transform="matrix(-1 -9.998400e-004 9.998400e-004 -1 785.4724 715.5162)" fill="none" width="9.278" height="10.499"/>
						</g>
						<rect x="395.146" y="357.193" fill-rule="evenodd" clip-rule="evenodd" width="1.723" height="1.05"/>
						<rect x="392.057" y="357.19" fill-rule="evenodd" clip-rule="evenodd" width="1.723" height="1.05"/>
						<rect x="388.979" y="357.188" fill-rule="evenodd" clip-rule="evenodd" width="1.722" height="1.05"/>
					</g>
				</g>
				<g>
					<g>
						<g>
							
								<rect x="397.554" y="352.322" transform="matrix(-1 -9.998400e-004 9.998400e-004 -1 804.0291 715.5441)" fill="none" width="9.278" height="10.499"/>
						</g>
						<rect x="404.424" y="357.202" fill-rule="evenodd" clip-rule="evenodd" width="1.723" height="1.05"/>
						<rect x="401.335" y="357.2" fill-rule="evenodd" clip-rule="evenodd" width="1.723" height="1.05"/>
						<rect x="398.257" y="357.197" fill-rule="evenodd" clip-rule="evenodd" width="1.722" height="1.05"/>
					</g>
				</g>
				<g>
					<g>
						<g>
							
								<rect x="406.832" y="352.331" transform="matrix(-1 -9.471495e-004 9.471495e-004 -1 822.6035 715.5502)" fill="none" width="9.278" height="10.499"/>
						</g>
						<rect x="413.703" y="357.212" fill-rule="evenodd" clip-rule="evenodd" width="1.722" height="1.05"/>
						<rect x="410.614" y="357.209" fill-rule="evenodd" clip-rule="evenodd" width="1.722" height="1.05"/>
						<rect x="407.535" y="357.206" fill-rule="evenodd" clip-rule="evenodd" width="1.723" height="1.05"/>
					</g>
				</g>
				<g>
					<g>
						<g>
							
								<rect x="416.11" y="352.34" transform="matrix(-1 -9.998400e-004 9.998400e-004 -1 841.1412 715.5992)" fill="none" width="9.278" height="10.499"/>
						</g>
						<rect x="422.981" y="357.221" fill-rule="evenodd" clip-rule="evenodd" width="1.722" height="1.05"/>
						<rect x="419.892" y="357.218" fill-rule="evenodd" clip-rule="evenodd" width="1.722" height="1.05"/>
						<rect x="416.813" y="357.215" fill-rule="evenodd" clip-rule="evenodd" width="1.723" height="1.05"/>
					</g>
				</g>
				<g>
					<g>
						<g>
							
								<rect x="425.389" y="352.349" transform="matrix(-1 -0.001 0.001 -1 859.6978 715.6266)" fill="none" width="9.277" height="10.499"/>
						</g>
						<rect x="432.259" y="357.23" fill-rule="evenodd" clip-rule="evenodd" width="1.722" height="1.05"/>
						<rect x="429.17" y="357.228" fill-rule="evenodd" clip-rule="evenodd" width="1.722" height="1.05"/>
						<rect x="426.091" y="357.224" fill-rule="evenodd" clip-rule="evenodd" width="1.723" height="1.05"/>
					</g>
				</g>
				<g>
					<g>
						<g>
							
								<rect x="434.667" y="352.358" transform="matrix(-1 -9.998400e-004 9.998400e-004 -1 878.2535 715.6544)" fill="none" width="9.278" height="10.499"/>
						</g>
						<rect x="441.537" y="357.24" fill-rule="evenodd" clip-rule="evenodd" width="1.723" height="1.05"/>
						<rect x="438.449" y="357.237" fill-rule="evenodd" clip-rule="evenodd" width="1.722" height="1.05"/>
						<rect x="435.37" y="357.233" fill-rule="evenodd" clip-rule="evenodd" width="1.722" height="1.05"/>
					</g>
				</g>
				<g>
					<g>
						<g>
							
								<rect x="443.945" y="352.367" transform="matrix(-1 -9.998400e-004 9.998400e-004 -1 896.8102 715.6823)" fill="none" width="9.278" height="10.499"/>
						</g>
						<rect x="450.815" y="357.249" fill-rule="evenodd" clip-rule="evenodd" width="1.723" height="1.05"/>
						<rect x="447.727" y="357.246" fill-rule="evenodd" clip-rule="evenodd" width="1.723" height="1.05"/>
						<rect x="444.648" y="357.242" fill-rule="evenodd" clip-rule="evenodd" width="1.722" height="1.05"/>
					</g>
				</g>
				<g>
					<g>
						<g>
							
								<rect x="453.223" y="352.377" transform="matrix(-1 -9.998400e-004 9.998400e-004 -1 915.3668 715.7101)" fill="none" width="9.278" height="10.499"/>
						</g>
						<rect x="460.093" y="357.258" fill-rule="evenodd" clip-rule="evenodd" width="1.723" height="1.05"/>
						<rect x="457.004" y="357.255" fill-rule="evenodd" clip-rule="evenodd" width="1.723" height="1.05"/>
						<rect x="453.926" y="357.252" fill-rule="evenodd" clip-rule="evenodd" width="1.722" height="1.05"/>
					</g>
				</g>
				<g>
					<g>
						<g>
							
								<rect x="462.501" y="352.386" transform="matrix(-1 -9.998400e-004 9.998400e-004 -1 933.9225 715.7379)" fill="none" width="9.278" height="10.499"/>
						</g>
						<rect x="469.372" y="357.268" fill-rule="evenodd" clip-rule="evenodd" width="1.722" height="1.05"/>
						<rect x="466.283" y="357.264" fill-rule="evenodd" clip-rule="evenodd" width="1.723" height="1.05"/>
						<rect x="463.204" y="357.261" fill-rule="evenodd" clip-rule="evenodd" width="1.722" height="1.05"/>
					</g>
				</g>
				<g>
					<g>
						<g>
							
								<rect x="471.779" y="352.395" transform="matrix(-1 -9.998400e-004 9.998400e-004 -1 952.4791 715.7657)" fill="none" width="9.278" height="10.499"/>
						</g>
						<rect x="478.65" y="357.277" fill-rule="evenodd" clip-rule="evenodd" width="1.722" height="1.05"/>
						<rect x="475.561" y="357.273" fill-rule="evenodd" clip-rule="evenodd" width="1.722" height="1.05"/>
						<rect x="472.482" y="357.271" fill-rule="evenodd" clip-rule="evenodd" width="1.723" height="1.05"/>
					</g>
				</g>
			</g>
		</g>
	</g>
</g>
<g id="Layer_20">
</g>
<g id="Layer_21">
</g>
<g id="Layer_22">
</g>
<g id="Layer_24">
</g>
<g id="Layer_25">
</g>
<g id="Layer_26">
</g>
<g id="Layer_27">
</g>
<g id="Layer_28">
</g>
<g id="Layer_29">
</g>
<g id="Layer_30">
</g>
<g id="Layer_31">
</g>
<g id="Layer_32">
</g>
<g id="Layer_33">
</g>
<g id="Layer_34">
</g>
<g id="Layer_35">
</g>
<g id="Layer_36">
</g>
<g id="Layer_37">
</g>
<g id="Layer_38">
</g>
<g id="Layer_39">
</g>
<g id="Layer_40">
</g>
<g id="Layer_41">
</g>
<g id="Layer_43">
</g>
</svg>
