<?xml version="1.0" encoding="utf-8"?>
<!-- Generator: Adobe Illustrator 16.0.0, SVG Export Plug-In . SVG Version: 6.00 Build 0)  -->
<!DOCTYPE svg PUBLIC "-//W3C//DTD SVG 1.1//EN" "http://www.w3.org/Graphics/SVG/1.1/DTD/svg11.dtd">
<svg version="1.1" xmlns="http://www.w3.org/2000/svg" xmlns:xlink="http://www.w3.org/1999/xlink" x="0px" y="0px"
	 width="841.89px" height="595.28px" viewBox="0 0 841.89 595.28" enable-background="new 0 0 841.89 595.28" xml:space="preserve">
<g id="Layer_1">
</g>
<g id="Layer_2">
</g>
<g id="Layer_3">
</g>
<g id="Layer_4">
</g>
<g id="Layer_5">
</g>
<g id="Layer_6">
</g>
<g id="Layer_7">
</g>
<g id="Layer_8">
</g>
<g id="Layer_9">
</g>
<g id="Layer_10">
</g>
<g id="Layer_11">
</g>
<g id="Layer_12">
</g>
<g id="Layer_13">
</g>
<g id="Layer_14">
</g>
<g id="Layer_15">
</g>
<g id="Layer_16">
</g>
<g id="Layer_17">
</g>
<g id="Layer_18">
</g>
<g id="Layer_19">
</g>
<g id="Layer_20">
</g>
<g id="Layer_21">
</g>
<g id="Layer_22">
</g>
<g id="Layer_24">
</g>
<g id="Layer_25">
</g>
<g id="Layer_26">
</g>
<g id="Layer_27">
</g>
<g id="Layer_28">
</g>
<g id="Layer_29">
	<g>
		<line fill="none" stroke="#000000" stroke-miterlimit="10" x1="420.837" y1="297.051" x2="366.582" y2="364.207"/>
		<line fill="none" stroke="#000000" stroke-miterlimit="10" x1="475.309" y1="363.959" x2="420.837" y2="297.051"/>
		<g>
			<g>
				<g>
					<g>
						<g>
							<g>
								
									<rect x="415.54" y="410.497" transform="matrix(-0.0039 1 -1 -0.0039 837.6703 -2.9084)" fill="none" width="9.488" height="10.499"/>
							</g>
							<rect x="419.925" y="411.703" fill-rule="evenodd" clip-rule="evenodd" width="1.05" height="1.762"/>
							<rect x="419.913" y="414.862" fill-rule="evenodd" clip-rule="evenodd" width="1.05" height="1.762"/>
							<rect x="419.9" y="418.01" fill-rule="evenodd" clip-rule="evenodd" width="1.05" height="1.762"/>
						</g>
					</g>
					<g>
						<g>
							<g>
								
									<rect x="415.577" y="401.008" transform="matrix(-0.0039 1 -1 -0.0039 828.2191 -12.4716)" fill="none" width="9.488" height="10.499"/>
							</g>
							<rect x="419.962" y="402.215" fill-rule="evenodd" clip-rule="evenodd" width="1.05" height="1.761"/>
							<rect x="419.95" y="405.374" fill-rule="evenodd" clip-rule="evenodd" width="1.05" height="1.761"/>
							<rect x="419.938" y="408.522" fill-rule="evenodd" clip-rule="evenodd" width="1.05" height="1.761"/>
						</g>
					</g>
					<g>
						<g>
							<g>
								
									<rect x="415.613" y="391.52" transform="matrix(-0.0039 1 -1 -0.0039 818.7681 -22.0343)" fill="none" width="9.489" height="10.499"/>
							</g>
							<rect x="420" y="392.727" fill-rule="evenodd" clip-rule="evenodd" width="1.05" height="1.761"/>
							<rect x="419.987" y="395.885" fill-rule="evenodd" clip-rule="evenodd" width="1.05" height="1.762"/>
							<rect x="419.975" y="399.033" fill-rule="evenodd" clip-rule="evenodd" width="1.05" height="1.762"/>
						</g>
					</g>
					<g>
						<g>
							<g>
								
									<rect x="415.651" y="382.03" transform="matrix(-0.004 1 -1 -0.004 809.3599 -31.5571)" fill="none" width="9.488" height="10.5"/>
							</g>
							<rect x="420.037" y="383.237" fill-rule="evenodd" clip-rule="evenodd" width="1.05" height="1.762"/>
							<rect x="420.024" y="386.396" fill-rule="evenodd" clip-rule="evenodd" width="1.05" height="1.761"/>
							<rect x="420.012" y="389.544" fill-rule="evenodd" clip-rule="evenodd" width="1.05" height="1.762"/>
						</g>
					</g>
					<g>
						<g>
							<g>
								
									<rect x="415.689" y="372.542" transform="matrix(-0.0039 1 -1 -0.0039 799.8661 -41.1608)" fill="none" width="9.488" height="10.499"/>
							</g>
							<rect x="420.074" y="373.749" fill-rule="evenodd" clip-rule="evenodd" width="1.05" height="1.762"/>
							<rect x="420.062" y="376.908" fill-rule="evenodd" clip-rule="evenodd" width="1.05" height="1.761"/>
							<rect x="420.049" y="380.057" fill-rule="evenodd" clip-rule="evenodd" width="1.05" height="1.761"/>
						</g>
					</g>
					<g>
						<g>
							<g>
								
									<rect x="415.726" y="363.054" transform="matrix(-0.0039 1 -1 -0.0039 790.4149 -50.7235)" fill="none" width="9.489" height="10.499"/>
							</g>
							<rect x="420.111" y="364.261" fill-rule="evenodd" clip-rule="evenodd" width="1.05" height="1.761"/>
							<rect x="420.099" y="367.419" fill-rule="evenodd" clip-rule="evenodd" width="1.05" height="1.762"/>
							<rect x="420.086" y="370.567" fill-rule="evenodd" clip-rule="evenodd" width="1.05" height="1.762"/>
						</g>
					</g>
					<g>
						<g>
							<g>
								
									<rect x="415.763" y="353.565" transform="matrix(-0.0039 1 -1 -0.0039 780.9636 -60.2863)" fill="none" width="9.488" height="10.499"/>
							</g>
							<rect x="420.148" y="354.771" fill-rule="evenodd" clip-rule="evenodd" width="1.05" height="1.762"/>
							<rect x="420.136" y="357.93" fill-rule="evenodd" clip-rule="evenodd" width="1.05" height="1.762"/>
							<rect x="420.124" y="361.079" fill-rule="evenodd" clip-rule="evenodd" width="1.05" height="1.762"/>
						</g>
					</g>
					<g>
						<g>
							<g>
								
									<rect x="415.801" y="344.076" transform="matrix(-0.0039 1 -1 -0.0039 771.5125 -69.8495)" fill="none" width="9.488" height="10.499"/>
							</g>
							<rect x="420.186" y="345.283" fill-rule="evenodd" clip-rule="evenodd" width="1.05" height="1.762"/>
							<rect x="420.173" y="348.442" fill-rule="evenodd" clip-rule="evenodd" width="1.05" height="1.761"/>
							<rect x="420.161" y="351.591" fill-rule="evenodd" clip-rule="evenodd" width="1.05" height="1.761"/>
						</g>
					</g>
					<g>
						<g>
							<g>
								
									<rect x="415.837" y="334.588" transform="matrix(-0.0039 1 -1 -0.0039 762.0614 -79.4122)" fill="none" width="9.489" height="10.499"/>
							</g>
							<rect x="420.223" y="335.795" fill-rule="evenodd" clip-rule="evenodd" width="1.05" height="1.761"/>
							<rect x="420.211" y="338.954" fill-rule="evenodd" clip-rule="evenodd" width="1.05" height="1.761"/>
							<rect x="420.198" y="342.103" fill-rule="evenodd" clip-rule="evenodd" width="1.05" height="1.761"/>
						</g>
					</g>
					<g>
						<g>
							<g>
								
									<rect x="415.875" y="325.099" transform="matrix(-0.0039 1 -1 -0.0039 752.61 -88.975)" fill="none" width="9.488" height="10.499"/>
							</g>
							<rect x="420.26" y="326.306" fill-rule="evenodd" clip-rule="evenodd" width="1.05" height="1.762"/>
							<rect x="420.248" y="329.464" fill-rule="evenodd" clip-rule="evenodd" width="1.05" height="1.762"/>
							<rect x="420.236" y="332.613" fill-rule="evenodd" clip-rule="evenodd" width="1.05" height="1.762"/>
						</g>
					</g>
					<g>
						<g>
							<g>
								
									<rect x="415.912" y="315.61" transform="matrix(-0.004 1 -1 -0.004 743.202 -98.5051)" fill="none" width="9.488" height="10.499"/>
							</g>
							<rect x="420.298" y="316.817" fill-rule="evenodd" clip-rule="evenodd" width="1.05" height="1.762"/>
							<rect x="420.285" y="319.977" fill-rule="evenodd" clip-rule="evenodd" width="1.05" height="1.761"/>
							<rect x="420.272" y="323.125" fill-rule="evenodd" clip-rule="evenodd" width="1.05" height="1.761"/>
						</g>
					</g>
					<g>
						<g>
							<g>
								
									<rect x="415.949" y="306.122" transform="matrix(-0.0039 1 -1 -0.0039 733.7083 -108.1014)" fill="none" width="9.489" height="10.499"/>
							</g>
							<rect x="420.334" y="307.329" fill-rule="evenodd" clip-rule="evenodd" width="1.05" height="1.761"/>
							<rect x="420.323" y="310.488" fill-rule="evenodd" clip-rule="evenodd" width="1.05" height="1.761"/>
							<rect x="420.31" y="313.637" fill-rule="evenodd" clip-rule="evenodd" width="1.05" height="1.761"/>
						</g>
					</g>
					<g>
						<g>
							<g>
								
									<rect x="415.987" y="296.633" transform="matrix(-0.0039 1 -1 -0.0039 724.257 -117.6642)" fill="none" width="9.488" height="10.499"/>
							</g>
							<rect x="420.372" y="297.841" fill-rule="evenodd" clip-rule="evenodd" width="1.05" height="1.761"/>
							<rect x="420.359" y="300.999" fill-rule="evenodd" clip-rule="evenodd" width="1.05" height="1.762"/>
							<rect x="420.347" y="304.147" fill-rule="evenodd" clip-rule="evenodd" width="1.05" height="1.762"/>
						</g>
					</g>
				</g>
			</g>
		</g>
		<path fill="none" stroke="#000000" stroke-miterlimit="10" d="M420.734,296.969"/>
		<line fill="none" stroke="#000000" stroke-miterlimit="10" x1="420.265" y1="420.681" x2="475.215" y2="363.844"/>
		<line fill="none" stroke="#000000" stroke-miterlimit="10" x1="366.677" y1="363.828" x2="420.664" y2="420.24"/>
		<line fill="none" stroke="#000000" stroke-miterlimit="10" x1="420.734" y1="497.764" x2="475.309" y2="363.959"/>
		<line fill="none" stroke="#000000" stroke-miterlimit="10" x1="366.677" y1="363.828" x2="420.734" y2="497.764"/>
		<line fill="none" stroke="#000000" stroke-miterlimit="10" x1="420.734" y1="497.764" x2="420.268" y2="419.827"/>
		<g>
			<g>
				<g>
					<g>
						<g>
							<g>
								<g>
									<rect x="415.588" y="295.14" fill="none" width="10.499" height="8.974"/>
								</g>
								<rect x="420.466" y="295.803" fill-rule="evenodd" clip-rule="evenodd" width="1.05" height="1.665"/>
								<rect x="420.466" y="298.79" fill-rule="evenodd" clip-rule="evenodd" width="1.05" height="1.666"/>
								<rect x="420.466" y="301.768" fill-rule="evenodd" clip-rule="evenodd" width="1.05" height="1.666"/>
							</g>
						</g>
						<g>
							<g>
								<g>
									<rect x="415.588" y="286.166" fill="none" width="10.499" height="8.974"/>
								</g>
								<rect x="420.466" y="286.829" fill-rule="evenodd" clip-rule="evenodd" width="1.05" height="1.666"/>
								<rect x="420.466" y="289.816" fill-rule="evenodd" clip-rule="evenodd" width="1.05" height="1.666"/>
								<rect x="420.466" y="292.794" fill-rule="evenodd" clip-rule="evenodd" width="1.05" height="1.666"/>
							</g>
						</g>
						<g>
							<g>
								<g>
									<rect x="415.588" y="277.192" fill="none" width="10.499" height="8.974"/>
								</g>
								<rect x="420.466" y="277.855" fill-rule="evenodd" clip-rule="evenodd" width="1.05" height="1.665"/>
								<rect x="420.466" y="280.843" fill-rule="evenodd" clip-rule="evenodd" width="1.05" height="1.666"/>
								<rect x="420.466" y="283.82" fill-rule="evenodd" clip-rule="evenodd" width="1.05" height="1.666"/>
							</g>
						</g>
						<g>
							<g>
								<g>
									<rect x="415.588" y="268.219" fill="none" width="10.499" height="8.974"/>
								</g>
								<rect x="420.466" y="268.882" fill-rule="evenodd" clip-rule="evenodd" width="1.05" height="1.666"/>
								<rect x="420.466" y="271.869" fill-rule="evenodd" clip-rule="evenodd" width="1.05" height="1.666"/>
								<rect x="420.466" y="274.847" fill-rule="evenodd" clip-rule="evenodd" width="1.05" height="1.666"/>
							</g>
						</g>
						<g>
							<g>
								<g>
									<rect x="415.588" y="259.245" fill="none" width="10.499" height="8.974"/>
								</g>
								<rect x="420.466" y="259.908" fill-rule="evenodd" clip-rule="evenodd" width="1.05" height="1.665"/>
								<rect x="420.466" y="262.896" fill-rule="evenodd" clip-rule="evenodd" width="1.05" height="1.666"/>
								<rect x="420.466" y="265.873" fill-rule="evenodd" clip-rule="evenodd" width="1.05" height="1.666"/>
							</g>
						</g>
						<g>
							<g>
								<g>
									<rect x="415.588" y="250.271" fill="none" width="10.499" height="8.974"/>
								</g>
								<rect x="420.466" y="250.935" fill-rule="evenodd" clip-rule="evenodd" width="1.05" height="1.666"/>
								<rect x="420.466" y="253.922" fill-rule="evenodd" clip-rule="evenodd" width="1.05" height="1.666"/>
								<rect x="420.466" y="256.899" fill-rule="evenodd" clip-rule="evenodd" width="1.05" height="1.666"/>
							</g>
						</g>
						<g>
							<g>
								<g>
									<rect x="415.588" y="241.298" fill="none" width="10.499" height="8.974"/>
								</g>
								<rect x="420.466" y="241.961" fill-rule="evenodd" clip-rule="evenodd" width="1.05" height="1.665"/>
								<rect x="420.466" y="244.948" fill-rule="evenodd" clip-rule="evenodd" width="1.05" height="1.666"/>
								<rect x="420.466" y="247.926" fill-rule="evenodd" clip-rule="evenodd" width="1.05" height="1.666"/>
							</g>
						</g>
						<g>
							<g>
								<g>
									<rect x="415.588" y="232.324" fill="none" width="10.499" height="8.974"/>
								</g>
								<rect x="420.466" y="232.987" fill-rule="evenodd" clip-rule="evenodd" width="1.05" height="1.666"/>
								<rect x="420.466" y="235.975" fill-rule="evenodd" clip-rule="evenodd" width="1.05" height="1.666"/>
								<rect x="420.466" y="238.952" fill-rule="evenodd" clip-rule="evenodd" width="1.05" height="1.666"/>
							</g>
						</g>
						<g>
							<g>
								<g>
									<rect x="415.588" y="223.351" fill="none" width="10.499" height="8.974"/>
								</g>
								<rect x="420.466" y="224.014" fill-rule="evenodd" clip-rule="evenodd" width="1.05" height="1.665"/>
								<rect x="420.466" y="227.001" fill-rule="evenodd" clip-rule="evenodd" width="1.05" height="1.666"/>
								<rect x="420.466" y="229.979" fill-rule="evenodd" clip-rule="evenodd" width="1.05" height="1.666"/>
							</g>
						</g>
					</g>
				</g>
			</g>
			<line fill="none" stroke="#000000" stroke-miterlimit="10" x1="386.481" y1="303.117" x2="391.568" y2="332.799"/>
			<line fill="none" stroke="#000000" stroke-miterlimit="10" x1="420.837" y1="223.351" x2="386.481" y2="303.296"/>
			<line fill="none" stroke="#000000" stroke-miterlimit="10" x1="455.193" y1="303.296" x2="420.837" y2="223.351"/>
			<line fill="none" stroke="#000000" stroke-miterlimit="10" x1="455.193" y1="303.296" x2="450.168" y2="332.62"/>
		</g>
	</g>
</g>
<g id="Layer_30">
</g>
<g id="Layer_31">
</g>
<g id="Layer_32">
</g>
<g id="Layer_33">
</g>
<g id="Layer_34">
</g>
<g id="Layer_35">
</g>
<g id="Layer_36">
</g>
<g id="Layer_37">
</g>
<g id="Layer_38">
</g>
<g id="Layer_39">
</g>
<g id="Layer_40">
</g>
<g id="Layer_41">
</g>
<g id="Layer_43">
</g>
</svg>
