<?xml version="1.0" encoding="utf-8"?>
<!-- Generator: Adobe Illustrator 16.0.0, SVG Export Plug-In . SVG Version: 6.00 Build 0)  -->
<!DOCTYPE svg PUBLIC "-//W3C//DTD SVG 1.1//EN" "http://www.w3.org/Graphics/SVG/1.1/DTD/svg11.dtd">
<svg version="1.1" xmlns="http://www.w3.org/2000/svg" xmlns:xlink="http://www.w3.org/1999/xlink" x="0px" y="0px"
	 width="841.89px" height="595.28px" viewBox="0 0 841.89 595.28" enable-background="new 0 0 841.89 595.28" xml:space="preserve">
<g id="Layer_1">
</g>
<g id="Layer_2">
</g>
<g id="Layer_3">
</g>
<g id="Layer_4">
</g>
<g id="Layer_5">
</g>
<g id="Layer_6">
</g>
<g id="Layer_7">
</g>
<g id="Layer_8">
</g>
<g id="Layer_9">
</g>
<g id="Layer_10">
</g>
<g id="Layer_11">
	<g>
		<polygon fill="none" stroke="#000000" stroke-miterlimit="10" points="425.004,486.104 521.221,397.86 420.945,498.081 
			320.725,397.86 417.096,486.102 326.247,380.51 420.943,474.564 515.524,380.692 		"/>
		<path fill="none" stroke="#000000" stroke-miterlimit="10" d="M326.255,380.513"/>
		<path fill="none" stroke="#A7A9AC" stroke-miterlimit="10" d="M515.715,380.333"/>
		<polyline id="pion_31_" fill="none" stroke="#000000" stroke-miterlimit="10" points="326.247,380.51 420.766,298.001 
			515.218,381.046 		"/>
		<line fill="none" stroke="#000000" stroke-miterlimit="10" x1="332.126" y1="386.349" x2="320.725" y2="397.86"/>
		<line fill="none" stroke="#000000" stroke-miterlimit="10" x1="521.221" y1="397.86" x2="509.674" y2="386.499"/>
		<g>
			<g>
				<g>
					<g>
						<g>
							<g>
								
									<rect x="416.166" y="488.057" transform="matrix(0.0018 1 -1 0.0018 913.4911 71.4856)" fill="none" width="9.545" height="10.499"/>
							</g>
							<rect x="420.561" y="489.239" fill-rule="evenodd" clip-rule="evenodd" width="1.05" height="1.772"/>
							<rect x="420.567" y="492.417" fill-rule="evenodd" clip-rule="evenodd" width="1.05" height="1.771"/>
							<rect x="420.573" y="495.584" fill-rule="evenodd" clip-rule="evenodd" width="1.05" height="1.771"/>
						</g>
					</g>
					<g>
						<g>
							<g>
								
									<rect x="416.149" y="478.513" transform="matrix(0.0018 1 -1 0.0018 903.9076 61.9506)" fill="none" width="9.544" height="10.499"/>
							</g>
							<rect x="420.544" y="479.695" fill-rule="evenodd" clip-rule="evenodd" width="1.05" height="1.772"/>
							<rect x="420.55" y="482.873" fill-rule="evenodd" clip-rule="evenodd" width="1.05" height="1.771"/>
							<rect x="420.556" y="486.04" fill-rule="evenodd" clip-rule="evenodd" width="1.05" height="1.771"/>
						</g>
					</g>
					<g>
						<g>
							<g>
								
									<rect x="416.132" y="468.968" transform="matrix(0.0018 1 -1 0.0018 894.3674 52.4653)" fill="none" width="9.544" height="10.499"/>
							</g>
							<rect x="420.527" y="470.15" fill-rule="evenodd" clip-rule="evenodd" width="1.05" height="1.771"/>
							<rect x="420.532" y="473.328" fill-rule="evenodd" clip-rule="evenodd" width="1.05" height="1.771"/>
							<rect x="420.539" y="476.495" fill-rule="evenodd" clip-rule="evenodd" width="1.05" height="1.771"/>
						</g>
					</g>
					<g>
						<g>
							<g>
								
									<rect x="416.115" y="459.424" transform="matrix(0.0018 1 -1 0.0018 884.8059 42.955)" fill="none" width="9.544" height="10.499"/>
							</g>
							<rect x="420.51" y="460.606" fill-rule="evenodd" clip-rule="evenodd" width="1.05" height="1.771"/>
							<rect x="420.515" y="463.784" fill-rule="evenodd" clip-rule="evenodd" width="1.05" height="1.771"/>
							<rect x="420.521" y="466.951" fill-rule="evenodd" clip-rule="evenodd" width="1.05" height="1.771"/>
						</g>
					</g>
					<g>
						<g>
							<g>
								
									<rect x="416.097" y="449.879" transform="matrix(0.0018 1 -1 0.0018 875.2227 33.4218)" fill="none" width="9.544" height="10.499"/>
							</g>
							<rect x="420.493" y="451.062" fill-rule="evenodd" clip-rule="evenodd" width="1.05" height="1.771"/>
							<rect x="420.499" y="454.239" fill-rule="evenodd" clip-rule="evenodd" width="1.05" height="1.772"/>
							<rect x="420.504" y="457.406" fill-rule="evenodd" clip-rule="evenodd" width="1.05" height="1.771"/>
						</g>
					</g>
					<g>
						<g>
							<g>
								
									<rect x="416.08" y="440.335" transform="matrix(0.0018 1 -1 0.0018 865.6825 23.935)" fill="none" width="9.544" height="10.499"/>
							</g>
							<rect x="420.475" y="441.517" fill-rule="evenodd" clip-rule="evenodd" width="1.05" height="1.771"/>
							<rect x="420.481" y="444.694" fill-rule="evenodd" clip-rule="evenodd" width="1.05" height="1.771"/>
							<rect x="420.487" y="447.861" fill-rule="evenodd" clip-rule="evenodd" width="1.05" height="1.772"/>
						</g>
					</g>
					<g>
						<g>
							<g>
								
									<rect x="416.063" y="430.79" transform="matrix(0.0018 1 -1 0.0018 856.1207 14.4245)" fill="none" width="9.544" height="10.499"/>
							</g>
							<rect x="420.458" y="431.973" fill-rule="evenodd" clip-rule="evenodd" width="1.05" height="1.771"/>
							<rect x="420.464" y="435.15" fill-rule="evenodd" clip-rule="evenodd" width="1.05" height="1.771"/>
							<rect x="420.469" y="438.317" fill-rule="evenodd" clip-rule="evenodd" width="1.05" height="1.772"/>
						</g>
					</g>
					<g>
						<g>
							<g>
								
									<rect x="416.045" y="421.246" transform="matrix(0.0018 1 -1 0.0018 846.5375 4.8928)" fill="none" width="9.545" height="10.499"/>
							</g>
							<rect x="420.441" y="422.428" fill-rule="evenodd" clip-rule="evenodd" width="1.05" height="1.772"/>
							<rect x="420.447" y="425.605" fill-rule="evenodd" clip-rule="evenodd" width="1.05" height="1.771"/>
							<rect x="420.452" y="428.772" fill-rule="evenodd" clip-rule="evenodd" width="1.05" height="1.771"/>
						</g>
					</g>
					<g>
						<g>
							<g>
								
									<rect x="416.028" y="411.701" transform="matrix(0.0018 1 -1 0.0018 836.9971 -4.5958)" fill="none" width="9.544" height="10.499"/>
							</g>
							<rect x="420.423" y="412.883" fill-rule="evenodd" clip-rule="evenodd" width="1.05" height="1.772"/>
							<rect x="420.429" y="416.061" fill-rule="evenodd" clip-rule="evenodd" width="1.05" height="1.771"/>
							<rect x="420.435" y="419.228" fill-rule="evenodd" clip-rule="evenodd" width="1.05" height="1.771"/>
						</g>
					</g>
					<g>
						<g>
							<g>
								
									<rect x="416.011" y="402.157" transform="matrix(0.0018 1 -1 0.0018 827.4356 -14.106)" fill="none" width="9.544" height="10.499"/>
							</g>
							<rect x="420.406" y="403.339" fill-rule="evenodd" clip-rule="evenodd" width="1.05" height="1.771"/>
							<rect x="420.412" y="406.517" fill-rule="evenodd" clip-rule="evenodd" width="1.05" height="1.771"/>
							<rect x="420.418" y="409.684" fill-rule="evenodd" clip-rule="evenodd" width="1.05" height="1.771"/>
						</g>
					</g>
					<g>
						<g>
							<g>
								
									<rect x="415.994" y="392.612" transform="matrix(0.0018 1 -1 0.0018 817.8523 -23.6364)" fill="none" width="9.544" height="10.499"/>
							</g>
							<rect x="420.389" y="393.794" fill-rule="evenodd" clip-rule="evenodd" width="1.05" height="1.771"/>
							<rect x="420.395" y="396.972" fill-rule="evenodd" clip-rule="evenodd" width="1.05" height="1.771"/>
							<rect x="420.401" y="400.139" fill-rule="evenodd" clip-rule="evenodd" width="1.05" height="1.771"/>
						</g>
					</g>
					<g>
						<g>
							<g>
								
									<rect x="415.977" y="383.068" transform="matrix(0.0018 1 -1 0.0018 808.3121 -33.126)" fill="none" width="9.544" height="10.499"/>
							</g>
							<rect x="420.371" y="384.25" fill-rule="evenodd" clip-rule="evenodd" width="1.05" height="1.771"/>
							<rect x="420.377" y="387.427" fill-rule="evenodd" clip-rule="evenodd" width="1.05" height="1.772"/>
							<rect x="420.383" y="390.595" fill-rule="evenodd" clip-rule="evenodd" width="1.05" height="1.771"/>
						</g>
					</g>
					<g>
						<g>
							<g>
								
									<rect x="415.959" y="373.523" transform="matrix(0.0018 1 -1 0.0018 798.7507 -42.6363)" fill="none" width="9.544" height="10.499"/>
							</g>
							<rect x="420.354" y="374.706" fill-rule="evenodd" clip-rule="evenodd" width="1.05" height="1.771"/>
							<rect x="420.36" y="377.883" fill-rule="evenodd" clip-rule="evenodd" width="1.05" height="1.771"/>
							<rect x="420.366" y="381.05" fill-rule="evenodd" clip-rule="evenodd" width="1.05" height="1.772"/>
						</g>
					</g>
					<g>
						<g>
							<g>
								
									<rect x="415.942" y="363.979" transform="matrix(0.0018 1 -1 0.0018 789.1672 -52.1654)" fill="none" width="9.544" height="10.499"/>
							</g>
							<rect x="420.337" y="365.161" fill-rule="evenodd" clip-rule="evenodd" width="1.05" height="1.771"/>
							<rect x="420.343" y="368.338" fill-rule="evenodd" clip-rule="evenodd" width="1.05" height="1.771"/>
							<rect x="420.349" y="371.505" fill-rule="evenodd" clip-rule="evenodd" width="1.05" height="1.772"/>
						</g>
					</g>
					<g>
						<g>
							<g>
								
									<rect x="415.925" y="354.434" transform="matrix(0.0018 1 -1 0.0018 779.6271 -61.6565)" fill="none" width="9.545" height="10.499"/>
							</g>
							<rect x="420.32" y="355.616" fill-rule="evenodd" clip-rule="evenodd" width="1.05" height="1.772"/>
							<rect x="420.325" y="358.794" fill-rule="evenodd" clip-rule="evenodd" width="1.05" height="1.771"/>
							<rect x="420.332" y="361.961" fill-rule="evenodd" clip-rule="evenodd" width="1.05" height="1.771"/>
						</g>
					</g>
					<g>
						<g>
							<g>
								
									<rect x="415.908" y="344.89" transform="matrix(0.0018 1 -1 0.0018 770.0653 -71.1671)" fill="none" width="9.544" height="10.499"/>
							</g>
							<rect x="420.302" y="346.072" fill-rule="evenodd" clip-rule="evenodd" width="1.05" height="1.772"/>
							<rect x="420.308" y="349.25" fill-rule="evenodd" clip-rule="evenodd" width="1.05" height="1.771"/>
							<rect x="420.314" y="352.417" fill-rule="evenodd" clip-rule="evenodd" width="1.05" height="1.771"/>
						</g>
					</g>
					<g>
						<g>
							<g>
								
									<rect x="415.89" y="335.345" transform="matrix(0.0018 1 -1 0.0018 760.482 -80.6945)" fill="none" width="9.544" height="10.499"/>
							</g>
							<rect x="420.286" y="336.527" fill-rule="evenodd" clip-rule="evenodd" width="1.05" height="1.771"/>
							<rect x="420.292" y="339.705" fill-rule="evenodd" clip-rule="evenodd" width="1.05" height="1.771"/>
							<rect x="420.297" y="342.872" fill-rule="evenodd" clip-rule="evenodd" width="1.05" height="1.771"/>
						</g>
					</g>
					<g>
						<g>
							<g>
								
									<rect x="415.873" y="325.801" transform="matrix(0.0018 1 -1 0.0018 750.9418 -90.1871)" fill="none" width="9.544" height="10.499"/>
							</g>
							<rect x="420.268" y="326.983" fill-rule="evenodd" clip-rule="evenodd" width="1.05" height="1.771"/>
							<rect x="420.274" y="330.161" fill-rule="evenodd" clip-rule="evenodd" width="1.05" height="1.771"/>
							<rect x="420.28" y="333.328" fill-rule="evenodd" clip-rule="evenodd" width="1.05" height="1.771"/>
						</g>
					</g>
					<g>
						<g>
							<g>
								
									<rect x="415.856" y="316.256" transform="matrix(0.0018 1 -1 0.0018 741.3804 -99.6973)" fill="none" width="9.544" height="10.499"/>
							</g>
							<rect x="420.251" y="317.438" fill-rule="evenodd" clip-rule="evenodd" width="1.05" height="1.771"/>
							<rect x="420.257" y="320.616" fill-rule="evenodd" clip-rule="evenodd" width="1.05" height="1.772"/>
							<rect x="420.262" y="323.783" fill-rule="evenodd" clip-rule="evenodd" width="1.05" height="1.771"/>
						</g>
					</g>
					<g>
						<g>
							<g>
								
									<rect x="415.839" y="306.712" transform="matrix(0.0018 1 -1 0.0018 731.7971 -109.2233)" fill="none" width="9.544" height="10.499"/>
							</g>
							<rect x="420.234" y="307.894" fill-rule="evenodd" clip-rule="evenodd" width="1.05" height="1.771"/>
							<rect x="420.24" y="311.071" fill-rule="evenodd" clip-rule="evenodd" width="1.05" height="1.771"/>
							<rect x="420.245" y="314.238" fill-rule="evenodd" clip-rule="evenodd" width="1.05" height="1.772"/>
						</g>
					</g>
					<g>
						<g>
							<g>
								
									<rect x="415.821" y="297.167" transform="matrix(0.0018 1 -1 0.0018 722.2567 -118.7176)" fill="none" width="9.544" height="10.499"/>
							</g>
							<rect x="420.216" y="298.35" fill-rule="evenodd" clip-rule="evenodd" width="1.05" height="1.771"/>
							<rect x="420.222" y="301.527" fill-rule="evenodd" clip-rule="evenodd" width="1.05" height="1.771"/>
							<rect x="420.228" y="304.694" fill-rule="evenodd" clip-rule="evenodd" width="1.05" height="1.772"/>
						</g>
					</g>
				</g>
			</g>
		</g>
		<line fill="none" stroke="#000000" stroke-miterlimit="10" x1="424.118" y1="470.954" x2="425.006" y2="486.102"/>
		<line fill="none" stroke="#000000" stroke-miterlimit="10" x1="417.096" y1="486.102" x2="417.308" y2="470.954"/>
		<polyline fill="none" stroke="#000000" stroke-width="0.7" stroke-miterlimit="10" points="515.429,381.046 420.451,474.564 
			325.971,380.51 		"/>
	</g>
</g>
<g id="Layer_12">
</g>
<g id="Layer_13">
</g>
<g id="Layer_14">
</g>
<g id="Layer_15">
</g>
<g id="Layer_16">
</g>
<g id="Layer_17">
</g>
<g id="Layer_18">
</g>
<g id="Layer_19">
</g>
<g id="Layer_20">
</g>
<g id="Layer_21">
</g>
<g id="Layer_22">
</g>
<g id="Layer_24">
</g>
<g id="Layer_25">
</g>
<g id="Layer_26">
</g>
<g id="Layer_27">
</g>
<g id="Layer_28">
</g>
<g id="Layer_29">
</g>
<g id="Layer_30">
</g>
<g id="Layer_31">
</g>
<g id="Layer_32">
</g>
<g id="Layer_33">
</g>
<g id="Layer_34">
</g>
<g id="Layer_35">
</g>
<g id="Layer_36">
</g>
<g id="Layer_37">
</g>
<g id="Layer_38">
</g>
<g id="Layer_39">
</g>
<g id="Layer_40">
</g>
<g id="Layer_41">
</g>
<g id="Layer_43">
</g>
</svg>
