<?xml version="1.0" encoding="utf-8"?>
<!-- Generator: Adobe Illustrator 16.0.0, SVG Export Plug-In . SVG Version: 6.00 Build 0)  -->
<!DOCTYPE svg PUBLIC "-//W3C//DTD SVG 1.1//EN" "http://www.w3.org/Graphics/SVG/1.1/DTD/svg11.dtd">
<svg version="1.1" xmlns="http://www.w3.org/2000/svg" xmlns:xlink="http://www.w3.org/1999/xlink" x="0px" y="0px"
	 width="841.89px" height="595.28px" viewBox="0 0 841.89 595.28" enable-background="new 0 0 841.89 595.28" xml:space="preserve">
<g id="Layer_1">
</g>
<g id="Layer_2">
</g>
<g id="Layer_3">
</g>
<g id="Layer_4">
</g>
<g id="Layer_5">
</g>
<g id="Layer_6">
</g>
<g id="Layer_7">
</g>
<g id="Layer_8">
</g>
<g id="Layer_9">
</g>
<g id="Layer_10">
</g>
<g id="Layer_11">
</g>
<g id="Layer_12">
</g>
<g id="Layer_13">
</g>
<g id="Layer_14">
</g>
<g id="Layer_15">
</g>
<g id="Layer_16">
</g>
<g id="Layer_17">
</g>
<g id="Layer_18">
</g>
<g id="Layer_19">
</g>
<g id="Layer_20">
</g>
<g id="Layer_21">
</g>
<g id="Layer_22">
</g>
<g id="Layer_24">
</g>
<g id="Layer_25">
</g>
<g id="Layer_26">
</g>
<g id="Layer_27">
</g>
<g id="Layer_28">
</g>
<g id="Layer_29">
</g>
<g id="Layer_30">
</g>
<g id="Layer_31">
</g>
<g id="Layer_32">
</g>
<g id="Layer_33">
</g>
<g id="Layer_34">
</g>
<g id="Layer_35">
</g>
<g id="Layer_36">
</g>
<g id="Layer_37">
</g>
<g id="Layer_38">
</g>
<g id="Layer_39">
</g>
<g id="Layer_40">
	<g>
		<g>
			<g>
				<g>
					<g>
						<g>
							<g>
								<rect x="415.211" y="413.64" fill="none" width="10.499" height="9.346"/>
							</g>
							<rect x="420.089" y="414.33" fill-rule="evenodd" clip-rule="evenodd" width="1.05" height="1.734"/>
							<rect x="420.089" y="417.441" fill-rule="evenodd" clip-rule="evenodd" width="1.05" height="1.734"/>
							<rect x="420.089" y="420.542" fill-rule="evenodd" clip-rule="evenodd" width="1.05" height="1.735"/>
						</g>
					</g>
					<g>
						<g>
							<g>
								<rect x="415.211" y="404.294" fill="none" width="10.499" height="9.346"/>
							</g>
							<rect x="420.089" y="404.984" fill-rule="evenodd" clip-rule="evenodd" width="1.05" height="1.734"/>
							<rect x="420.089" y="408.096" fill-rule="evenodd" clip-rule="evenodd" width="1.05" height="1.734"/>
							<rect x="420.089" y="411.196" fill-rule="evenodd" clip-rule="evenodd" width="1.05" height="1.735"/>
						</g>
					</g>
					<g>
						<g>
							<g>
								<rect x="415.211" y="394.948" fill="none" width="10.499" height="9.346"/>
							</g>
							<rect x="420.089" y="395.639" fill-rule="evenodd" clip-rule="evenodd" width="1.05" height="1.734"/>
							<rect x="420.089" y="398.75" fill-rule="evenodd" clip-rule="evenodd" width="1.05" height="1.734"/>
							<rect x="420.089" y="401.851" fill-rule="evenodd" clip-rule="evenodd" width="1.05" height="1.734"/>
						</g>
					</g>
					<g>
						<g>
							<g>
								<rect x="415.211" y="385.603" fill="none" width="10.499" height="9.346"/>
							</g>
							<rect x="420.089" y="386.292" fill-rule="evenodd" clip-rule="evenodd" width="1.05" height="1.735"/>
							<rect x="420.089" y="389.403" fill-rule="evenodd" clip-rule="evenodd" width="1.05" height="1.735"/>
							<rect x="420.089" y="392.505" fill-rule="evenodd" clip-rule="evenodd" width="1.05" height="1.734"/>
						</g>
					</g>
					<g>
						<g>
							<g>
								<rect x="415.211" y="376.256" fill="none" width="10.499" height="9.347"/>
							</g>
							<rect x="420.089" y="376.946" fill-rule="evenodd" clip-rule="evenodd" width="1.05" height="1.735"/>
							<rect x="420.089" y="380.058" fill-rule="evenodd" clip-rule="evenodd" width="1.05" height="1.735"/>
							<rect x="420.089" y="383.159" fill-rule="evenodd" clip-rule="evenodd" width="1.05" height="1.734"/>
						</g>
					</g>
					<g>
						<g>
							<g>
								<rect x="415.211" y="366.91" fill="none" width="10.499" height="9.346"/>
							</g>
							<rect x="420.089" y="367.601" fill-rule="evenodd" clip-rule="evenodd" width="1.05" height="1.734"/>
							<rect x="420.089" y="370.712" fill-rule="evenodd" clip-rule="evenodd" width="1.05" height="1.734"/>
							<rect x="420.089" y="373.813" fill-rule="evenodd" clip-rule="evenodd" width="1.05" height="1.734"/>
						</g>
					</g>
					<g>
						<g>
							<g>
								<rect x="415.211" y="357.564" fill="none" width="10.499" height="9.346"/>
							</g>
							<rect x="420.089" y="358.255" fill-rule="evenodd" clip-rule="evenodd" width="1.05" height="1.734"/>
							<rect x="420.089" y="361.366" fill-rule="evenodd" clip-rule="evenodd" width="1.05" height="1.734"/>
							<rect x="420.089" y="364.468" fill-rule="evenodd" clip-rule="evenodd" width="1.05" height="1.734"/>
						</g>
					</g>
					<g>
						<g>
							<g>
								<rect x="415.211" y="348.219" fill="none" width="10.499" height="9.346"/>
							</g>
							<rect x="420.089" y="348.909" fill-rule="evenodd" clip-rule="evenodd" width="1.05" height="1.734"/>
							<rect x="420.089" y="352.021" fill-rule="evenodd" clip-rule="evenodd" width="1.05" height="1.734"/>
							<rect x="420.089" y="355.122" fill-rule="evenodd" clip-rule="evenodd" width="1.05" height="1.734"/>
						</g>
					</g>
					<g>
						<g>
							<g>
								<rect x="415.211" y="338.873" fill="none" width="10.499" height="9.346"/>
							</g>
							<rect x="420.089" y="339.563" fill-rule="evenodd" clip-rule="evenodd" width="1.05" height="1.734"/>
							<rect x="420.089" y="342.675" fill-rule="evenodd" clip-rule="evenodd" width="1.05" height="1.734"/>
							<rect x="420.089" y="345.776" fill-rule="evenodd" clip-rule="evenodd" width="1.05" height="1.734"/>
						</g>
					</g>
					<g>
						<g>
							<g>
								<rect x="415.211" y="329.527" fill="none" width="10.499" height="9.346"/>
							</g>
							<rect x="420.089" y="330.218" fill-rule="evenodd" clip-rule="evenodd" width="1.05" height="1.734"/>
							<rect x="420.089" y="333.329" fill-rule="evenodd" clip-rule="evenodd" width="1.05" height="1.734"/>
							<rect x="420.089" y="336.43" fill-rule="evenodd" clip-rule="evenodd" width="1.05" height="1.735"/>
						</g>
					</g>
					<g>
						<g>
							<g>
								<rect x="415.211" y="320.181" fill="none" width="10.499" height="9.347"/>
							</g>
							<rect x="420.089" y="320.872" fill-rule="evenodd" clip-rule="evenodd" width="1.05" height="1.734"/>
							<rect x="420.089" y="323.983" fill-rule="evenodd" clip-rule="evenodd" width="1.05" height="1.734"/>
							<rect x="420.089" y="327.084" fill-rule="evenodd" clip-rule="evenodd" width="1.05" height="1.735"/>
						</g>
					</g>
					<g>
						<g>
							<g>
								<rect x="415.211" y="310.835" fill="none" width="10.499" height="9.346"/>
							</g>
							<rect x="420.089" y="311.526" fill-rule="evenodd" clip-rule="evenodd" width="1.051" height="1.734"/>
							<rect x="420.089" y="314.638" fill-rule="evenodd" clip-rule="evenodd" width="1.051" height="1.734"/>
							<rect x="420.089" y="317.738" fill-rule="evenodd" clip-rule="evenodd" width="1.05" height="1.735"/>
						</g>
					</g>
					<g>
						<g>
							<g>
								<rect x="415.211" y="301.489" fill="none" width="10.499" height="9.346"/>
							</g>
							<rect x="420.089" y="302.18" fill-rule="evenodd" clip-rule="evenodd" width="1.051" height="1.735"/>
							<rect x="420.089" y="305.291" fill-rule="evenodd" clip-rule="evenodd" width="1.051" height="1.735"/>
							<rect x="420.089" y="308.393" fill-rule="evenodd" clip-rule="evenodd" width="1.051" height="1.734"/>
						</g>
					</g>
					<g>
						<g>
							<g>
								<rect x="415.211" y="292.144" fill="none" width="10.499" height="9.346"/>
							</g>
							<rect x="420.089" y="292.834" fill-rule="evenodd" clip-rule="evenodd" width="1.051" height="1.735"/>
							<rect x="420.089" y="295.945" fill-rule="evenodd" clip-rule="evenodd" width="1.051" height="1.735"/>
							<rect x="420.089" y="299.047" fill-rule="evenodd" clip-rule="evenodd" width="1.051" height="1.734"/>
						</g>
					</g>
					<g>
						<g>
							<g>
								<rect x="415.211" y="282.798" fill="none" width="10.499" height="9.346"/>
							</g>
							<rect x="420.089" y="283.488" fill-rule="evenodd" clip-rule="evenodd" width="1.051" height="1.735"/>
							<rect x="420.089" y="286.6" fill-rule="evenodd" clip-rule="evenodd" width="1.051" height="1.735"/>
							<rect x="420.089" y="289.7" fill-rule="evenodd" clip-rule="evenodd" width="1.051" height="1.735"/>
						</g>
					</g>
					<g>
						<g>
							<g>
								<rect x="415.211" y="273.452" fill="none" width="10.499" height="9.346"/>
							</g>
							<rect x="420.089" y="274.143" fill-rule="evenodd" clip-rule="evenodd" width="1.051" height="1.734"/>
							<rect x="420.089" y="277.254" fill-rule="evenodd" clip-rule="evenodd" width="1.051" height="1.734"/>
							<rect x="420.089" y="280.354" fill-rule="evenodd" clip-rule="evenodd" width="1.051" height="1.735"/>
						</g>
					</g>
					<g>
						<g>
							<g>
								<rect x="415.211" y="264.106" fill="none" width="10.499" height="9.346"/>
							</g>
							<rect x="420.089" y="264.797" fill-rule="evenodd" clip-rule="evenodd" width="1.051" height="1.734"/>
							<rect x="420.089" y="267.908" fill-rule="evenodd" clip-rule="evenodd" width="1.051" height="1.734"/>
							<rect x="420.089" y="271.009" fill-rule="evenodd" clip-rule="evenodd" width="1.051" height="1.735"/>
						</g>
					</g>
					<g>
						<g>
							<g>
								<rect x="415.211" y="254.761" fill="none" width="10.499" height="9.346"/>
							</g>
							<rect x="420.089" y="255.45" fill-rule="evenodd" clip-rule="evenodd" width="1.051" height="1.735"/>
							<rect x="420.089" y="258.562" fill-rule="evenodd" clip-rule="evenodd" width="1.051" height="1.735"/>
							<rect x="420.089" y="261.663" fill-rule="evenodd" clip-rule="evenodd" width="1.051" height="1.734"/>
						</g>
					</g>
					<g>
						<g>
							<g>
								<rect x="415.211" y="245.415" fill="none" width="10.499" height="9.346"/>
							</g>
							<rect x="420.09" y="246.104" fill-rule="evenodd" clip-rule="evenodd" width="1.05" height="1.735"/>
							<rect x="420.089" y="249.216" fill-rule="evenodd" clip-rule="evenodd" width="1.051" height="1.735"/>
							<rect x="420.089" y="252.317" fill-rule="evenodd" clip-rule="evenodd" width="1.051" height="1.734"/>
						</g>
					</g>
					<g>
						<g>
							<g>
								<rect x="415.211" y="236.068" fill="none" width="10.499" height="9.347"/>
							</g>
							<rect x="420.09" y="236.759" fill-rule="evenodd" clip-rule="evenodd" width="1.05" height="1.735"/>
							<rect x="420.09" y="239.87" fill-rule="evenodd" clip-rule="evenodd" width="1.05" height="1.735"/>
							<rect x="420.09" y="242.972" fill-rule="evenodd" clip-rule="evenodd" width="1.05" height="1.734"/>
						</g>
					</g>
					<g>
						<g>
							<g>
								<rect x="415.212" y="226.723" fill="none" width="10.498" height="9.346"/>
							</g>
							<rect x="420.09" y="227.413" fill-rule="evenodd" clip-rule="evenodd" width="1.05" height="1.734"/>
							<rect x="420.09" y="230.524" fill-rule="evenodd" clip-rule="evenodd" width="1.05" height="1.734"/>
							<rect x="420.09" y="233.626" fill-rule="evenodd" clip-rule="evenodd" width="1.05" height="1.734"/>
						</g>
					</g>
					<g>
						<g>
							<g>
								<rect x="415.212" y="217.377" fill="none" width="10.498" height="9.346"/>
							</g>
							<rect x="420.09" y="218.067" fill-rule="evenodd" clip-rule="evenodd" width="1.05" height="1.734"/>
							<rect x="420.09" y="221.179" fill-rule="evenodd" clip-rule="evenodd" width="1.05" height="1.734"/>
							<rect x="420.09" y="224.28" fill-rule="evenodd" clip-rule="evenodd" width="1.05" height="1.734"/>
						</g>
					</g>
				</g>
			</g>
		</g>
		<path fill="none" stroke="#000000" stroke-miterlimit="10" d="M420.611,354.23"/>
		<line fill="none" stroke="#000000" stroke-miterlimit="10" x1="420.461" y1="217.377" x2="386.104" y2="297.323"/>
		<line fill="none" stroke="#000000" stroke-miterlimit="10" x1="454.816" y1="297.323" x2="420.461" y2="217.377"/>
		<line fill="none" stroke="#000000" stroke-miterlimit="10" x1="454.815" y1="343.039" x2="491.408" y2="281.146"/>
		<line fill="none" stroke="#000000" stroke-miterlimit="10" x1="451.047" y1="319.478" x2="483.408" y2="282.397"/>
		<line fill="none" stroke="#000000" stroke-miterlimit="10" x1="386.104" y1="343.039" x2="337.043" y2="260.897"/>
		<line fill="none" stroke="#000000" stroke-miterlimit="10" x1="389.225" y1="320.729" x2="337.043" y2="260.897"/>
		<line fill="none" stroke="#000000" stroke-miterlimit="10" x1="491.408" y1="281.146" x2="483.408" y2="282.397"/>
		<line fill="none" stroke="#000000" stroke-miterlimit="10" x1="487.408" y1="288.299" x2="504.072" y2="307.23"/>
		<line fill="none" stroke="#000000" stroke-miterlimit="10" x1="491.738" y1="281.146" x2="504.072" y2="307.23"/>
		<g>
			<line fill="none" stroke="#000000" stroke-miterlimit="10" x1="386.165" y1="297.697" x2="389.796" y2="320.234"/>
			<line fill="none" stroke="#000000" stroke-miterlimit="10" x1="386.165" y1="297.697" x2="386.104" y2="297.323"/>
			<line fill="none" stroke="#000000" stroke-miterlimit="10" x1="454.816" y1="297.323" x2="454.752" y2="297.703"/>
			<line fill="none" stroke="#000000" stroke-miterlimit="10" x1="454.752" y1="297.703" x2="450.918" y2="320.234"/>
			<line fill="none" stroke="#000000" stroke-miterlimit="10" x1="391.331" y1="319.939" x2="420.611" y2="297.323"/>
			<line fill="none" stroke="#000000" stroke-miterlimit="10" x1="386.104" y1="297.618" x2="386.165" y2="297.697"/>
			<line fill="none" stroke="#000000" stroke-miterlimit="10" x1="420.591" y1="342.68" x2="420.461" y2="342.851"/>
			<line fill="none" stroke="#000000" stroke-miterlimit="10" x1="454.752" y1="297.703" x2="454.816" y2="297.618"/>
			<line fill="none" stroke="#000000" stroke-miterlimit="10" x1="449.081" y1="319.939" x2="420.741" y2="297.494"/>
			<line fill="none" stroke="#000000" stroke-miterlimit="10" x1="389.796" y1="320.234" x2="403.282" y2="320.234"/>
			<line fill="none" stroke="#000000" stroke-miterlimit="10" x1="420.557" y1="320.234" x2="437.639" y2="320.234"/>
			<line fill="none" stroke="#000000" stroke-miterlimit="10" x1="420.557" y1="320.234" x2="403.282" y2="320.234"/>
			<path fill="none" stroke="#000000" stroke-miterlimit="10" d="M387.796,319.478"/>
			<line fill="none" stroke="#000000" stroke-miterlimit="10" x1="437.639" y1="320.234" x2="450.918" y2="320.234"/>
			<path fill="none" stroke="#000000" stroke-miterlimit="10" d="M450.918,320.234"/>
		</g>
		<line fill="none" stroke="#000000" stroke-miterlimit="10" x1="420.46" y1="422.985" x2="386.104" y2="343.039"/>
		<line fill="none" stroke="#000000" stroke-miterlimit="10" x1="454.815" y1="343.039" x2="420.46" y2="422.985"/>
		<line fill="none" stroke="#000000" stroke-miterlimit="10" x1="386.164" y1="342.665" x2="389.795" y2="320.128"/>
		<line fill="none" stroke="#000000" stroke-miterlimit="10" x1="386.164" y1="342.665" x2="386.104" y2="343.039"/>
		<line fill="none" stroke="#000000" stroke-miterlimit="10" x1="454.815" y1="343.039" x2="454.751" y2="342.659"/>
		<line fill="none" stroke="#000000" stroke-miterlimit="10" x1="454.751" y1="342.659" x2="450.917" y2="320.128"/>
		<path fill="none" stroke="#000000" stroke-miterlimit="10" d="M386.164,342.665"/>
		<path fill="none" stroke="#000000" stroke-miterlimit="10" d="M403.281,320.128"/>
		<line fill="none" stroke="#000000" stroke-miterlimit="10" x1="386.104" y1="342.744" x2="386.164" y2="342.665"/>
		<line fill="none" stroke="#000000" stroke-miterlimit="10" x1="454.751" y1="342.659" x2="454.815" y2="342.744"/>
	</g>
</g>
<g id="Layer_41">
</g>
<g id="Layer_43">
</g>
</svg>
