<?xml version="1.0" encoding="utf-8"?>
<!-- Generator: Adobe Illustrator 16.0.0, SVG Export Plug-In . SVG Version: 6.00 Build 0)  -->
<!DOCTYPE svg PUBLIC "-//W3C//DTD SVG 1.1//EN" "http://www.w3.org/Graphics/SVG/1.1/DTD/svg11.dtd">
<svg version="1.1" xmlns="http://www.w3.org/2000/svg" xmlns:xlink="http://www.w3.org/1999/xlink" x="0px" y="0px"
	 width="841.89px" height="595.28px" viewBox="0 0 841.89 595.28" enable-background="new 0 0 841.89 595.28" xml:space="preserve">
<g id="Layer_1">
</g>
<g id="Layer_2">
</g>
<g id="Layer_3">
</g>
<g id="Layer_4">
</g>
<g id="Layer_5">
</g>
<g id="Layer_6">
</g>
<g id="Layer_7">
</g>
<g id="Layer_8">
	<g>
		<g>
			<polygon fill="none" stroke="#000000" stroke-miterlimit="10" points="300.913,417.797 432.599,427.844 562.933,439.117 
				421.2,439.117 279.468,439.117 279.468,297.386 279.468,155.653 290.866,286.112 			"/>
			<g>
				<g>
					<path fill="none" stroke="#000000" stroke-width="0.7" stroke-miterlimit="10" d="M279.476,297.386"/>
				</g>
			</g>
			<g>
				<g>
					<path fill="none" stroke="#000000" stroke-width="0.7" stroke-miterlimit="10" d="M432.606,427.844"/>
				</g>
			</g>
			<g>
				<g>
					<g>
						<g>
							<g>
								<g>
									
										<rect x="416.709" y="297.041" transform="matrix(-0.093 -0.9957 0.9957 -0.093 159.5846 749.9554)" fill="none" width="9.341" height="10.499"/>
								</g>
								
									<rect x="420.99" y="304.538" transform="matrix(0.9957 -0.093 0.093 0.9957 -26.5784 40.5287)" fill-rule="evenodd" clip-rule="evenodd" width="1.05" height="1.734"/>
								
									<rect x="420.701" y="301.442" transform="matrix(0.9957 -0.093 0.093 0.9957 -26.2803 40.4691)" fill-rule="evenodd" clip-rule="evenodd" width="1.05" height="1.734"/>
								
									<rect x="420.413" y="298.356" transform="matrix(0.9957 -0.093 0.093 0.9957 -26.0059 40.4482)" fill-rule="evenodd" clip-rule="evenodd" width="1.05" height="1.734"/>
							</g>
						</g>
						<g>
							<g>
								<g>
									
										<rect x="417.577" y="306.341" transform="matrix(-0.093 -0.9957 0.9957 -0.093 151.2743 760.9857)" fill="none" width="9.341" height="10.5"/>
								</g>
								
									<rect x="421.859" y="313.838" transform="matrix(0.9957 -0.093 0.093 0.9957 -27.4396 40.6498)" fill-rule="evenodd" clip-rule="evenodd" width="1.05" height="1.734"/>
								
									<rect x="421.57" y="310.742" transform="matrix(0.9957 -0.093 0.093 0.9957 -27.1529 40.6095)" fill-rule="evenodd" clip-rule="evenodd" width="1.05" height="1.734"/>
								
									<rect x="421.282" y="307.656" transform="matrix(0.9957 -0.093 0.093 0.9957 -26.8555 40.55)" fill-rule="evenodd" clip-rule="evenodd" width="1.05" height="1.734"/>
							</g>
						</g>
						<g>
							<g>
								<g>
									
										<rect x="418.446" y="315.642" transform="matrix(-0.0931 -0.9957 0.9957 -0.0931 142.9894 772.0313)" fill="none" width="9.34" height="10.499"/>
								</g>
								
									<rect x="422.728" y="323.138" transform="matrix(0.9957 -0.093 0.093 0.9957 -28.2885 40.7515)" fill-rule="evenodd" clip-rule="evenodd" width="1.05" height="1.734"/>
								
									<rect x="422.439" y="320.042" transform="matrix(0.9957 -0.093 0.093 0.9957 -28.002 40.7112)" fill-rule="evenodd" clip-rule="evenodd" width="1.05" height="1.734"/>
								
									<rect x="422.151" y="316.956" transform="matrix(0.9957 -0.0931 0.0931 0.9957 -27.7403 40.7099)" fill-rule="evenodd" clip-rule="evenodd" width="1.049" height="1.734"/>
							</g>
						</g>
						<g>
							<g>
								<g>
									
										<rect x="419.315" y="324.942" transform="matrix(-0.093 -0.9957 0.9957 -0.093 134.6515 783.0444)" fill="none" width="9.341" height="10.499"/>
								</g>
								
									<rect x="423.597" y="332.439" transform="matrix(0.9957 -0.093 0.093 0.9957 -29.1494 40.8725)" fill-rule="evenodd" clip-rule="evenodd" width="1.05" height="1.734"/>
								
									<rect x="423.308" y="329.342" transform="matrix(0.9957 -0.0931 0.0931 0.9957 -28.8878 40.8714)" fill-rule="evenodd" clip-rule="evenodd" width="1.049" height="1.734"/>
								
									<rect x="423.02" y="326.257" transform="matrix(0.9957 -0.0931 0.0931 0.9957 -28.602 40.8312)" fill-rule="evenodd" clip-rule="evenodd" width="1.049" height="1.734"/>
							</g>
						</g>
						<g>
							<g>
								<g>
									
										<rect x="420.184" y="334.242" transform="matrix(-0.0931 -0.9957 0.9957 -0.0931 126.3693 794.0931)" fill="none" width="9.34" height="10.499"/>
								</g>
								
									<rect x="424.466" y="341.739" transform="matrix(0.9957 -0.0931 0.0931 0.9957 -30.0363 41.0329)" fill-rule="evenodd" clip-rule="evenodd" width="1.049" height="1.734"/>
								
									<rect x="424.177" y="338.643" transform="matrix(0.9957 -0.0931 0.0931 0.9957 -29.7495 40.9926)" fill-rule="evenodd" clip-rule="evenodd" width="1.049" height="1.734"/>
								
									<rect x="423.888" y="335.557" transform="matrix(0.9957 -0.093 0.093 0.9957 -29.438 40.9131)" fill-rule="evenodd" clip-rule="evenodd" width="1.05" height="1.734"/>
							</g>
						</g>
						<g>
							<g>
								<g>
									
										<rect x="421.053" y="343.542" transform="matrix(-0.093 -0.9957 0.9957 -0.093 118.0331 805.106)" fill="none" width="9.341" height="10.499"/>
								</g>
								
									<rect x="425.335" y="351.039" transform="matrix(0.9957 -0.093 0.093 0.9957 -30.8711 41.1146)" fill-rule="evenodd" clip-rule="evenodd" width="1.05" height="1.734"/>
								
									<rect x="425.045" y="347.943" transform="matrix(0.9957 -0.093 0.093 0.9957 -30.5845 41.0743)" fill-rule="evenodd" clip-rule="evenodd" width="1.05" height="1.734"/>
								
									<rect x="424.757" y="344.857" transform="matrix(0.9957 -0.093 0.093 0.9957 -30.2989 41.0342)" fill-rule="evenodd" clip-rule="evenodd" width="1.05" height="1.734"/>
							</g>
						</g>
						<g>
							<g>
								<g>
									
										<rect x="421.921" y="352.843" transform="matrix(-0.093 -0.9957 0.9957 -0.093 109.7466 816.1527)" fill="none" width="9.341" height="10.499"/>
								</g>
								
									<rect x="426.203" y="360.34" transform="matrix(0.9957 -0.093 0.093 0.9957 -31.732 41.2357)" fill-rule="evenodd" clip-rule="evenodd" width="1.05" height="1.734"/>
								
									<rect x="425.914" y="357.243" transform="matrix(0.9957 -0.093 0.093 0.9957 -31.4454 41.1954)" fill-rule="evenodd" clip-rule="evenodd" width="1.05" height="1.734"/>
								
									<rect x="425.626" y="354.157" transform="matrix(0.9957 -0.0931 0.0931 0.9957 -31.1869 41.1948)" fill-rule="evenodd" clip-rule="evenodd" width="1.049" height="1.734"/>
							</g>
						</g>
						<g>
							<g>
								<g>
									
										<rect x="422.791" y="362.143" transform="matrix(-0.093 -0.9957 0.9957 -0.093 101.4367 827.1838)" fill="none" width="9.341" height="10.499"/>
								</g>
								
									<rect x="427.072" y="369.64" transform="matrix(0.9957 -0.0931 0.0931 0.9957 -32.6213 41.3965)" fill-rule="evenodd" clip-rule="evenodd" width="1.049" height="1.734"/>
								
									<rect x="426.783" y="366.543" transform="matrix(0.9957 -0.0931 0.0931 0.9957 -32.3344 41.3562)" fill-rule="evenodd" clip-rule="evenodd" width="1.049" height="1.734"/>
								
									<rect x="426.495" y="363.457" transform="matrix(0.9957 -0.093 0.093 0.9957 -32.0206 41.2763)" fill-rule="evenodd" clip-rule="evenodd" width="1.05" height="1.734"/>
							</g>
						</g>
						<g>
							<g>
								<g>
									
										<rect x="423.66" y="371.443" transform="matrix(-0.0929 -0.9957 0.9957 -0.0929 93.0787 838.1799)" fill="none" width="9.341" height="10.5"/>
								</g>
								
									<rect x="427.942" y="378.94" transform="matrix(0.9957 -0.0931 0.0931 0.9957 -33.4829 41.5178)" fill-rule="evenodd" clip-rule="evenodd" width="1.049" height="1.734"/>
								
									<rect x="427.652" y="375.844" transform="matrix(0.9957 -0.093 0.093 0.9957 -33.1671 41.4375)" fill-rule="evenodd" clip-rule="evenodd" width="1.05" height="1.734"/>
								
									<rect x="427.363" y="372.757" transform="matrix(0.9957 -0.093 0.093 0.9957 -32.8814 41.3973)" fill-rule="evenodd" clip-rule="evenodd" width="1.05" height="1.734"/>
							</g>
						</g>
						<g>
							<g>
								<g>
									
										<rect x="424.528" y="380.743" transform="matrix(-0.0931 -0.9957 0.9957 -0.0931 84.8183 849.2463)" fill="none" width="9.34" height="10.499"/>
								</g>
								
									<rect x="428.81" y="388.24" transform="matrix(0.9957 -0.093 0.093 0.9957 -34.3145 41.5988)" fill-rule="evenodd" clip-rule="evenodd" width="1.05" height="1.734"/>
								
									<rect x="428.521" y="385.144" transform="matrix(0.9957 -0.093 0.093 0.9957 -34.0279 41.5585)" fill-rule="evenodd" clip-rule="evenodd" width="1.05" height="1.734"/>
								
									<rect x="428.233" y="382.058" transform="matrix(0.9957 -0.0931 0.0931 0.9957 -33.7718 41.5583)" fill-rule="evenodd" clip-rule="evenodd" width="1.049" height="1.734"/>
							</g>
						</g>
						<g>
							<g>
								<g>
									
										<rect x="425.397" y="390.044" transform="matrix(-0.093 -0.9957 0.9957 -0.093 76.5038 860.2739)" fill="none" width="9.341" height="10.499"/>
								</g>
								
									<rect x="429.679" y="397.54" transform="matrix(0.9957 -0.093 0.093 0.9957 -35.1754 41.7199)" fill-rule="evenodd" clip-rule="evenodd" width="1.05" height="1.734"/>
								
									<rect x="429.39" y="394.444" transform="matrix(0.9957 -0.0931 0.0931 0.9957 -34.9193 41.7198)" fill-rule="evenodd" clip-rule="evenodd" width="1.049" height="1.734"/>
								
									<rect x="429.102" y="391.358" transform="matrix(0.9957 -0.0931 0.0931 0.9957 -34.6334 41.6796)" fill-rule="evenodd" clip-rule="evenodd" width="1.049" height="1.734"/>
							</g>
						</g>
						<g>
							<g>
								<g>
									
										<rect x="426.266" y="399.343" transform="matrix(-0.0929 -0.9957 0.9957 -0.0929 68.1498 871.2707)" fill="none" width="9.34" height="10.5"/>
								</g>
								
									<rect x="430.548" y="406.84" transform="matrix(0.9957 -0.0931 0.0931 0.9957 -36.0678 41.8813)" fill-rule="evenodd" clip-rule="evenodd" width="1.049" height="1.734"/>
								
									<rect x="430.259" y="403.744" transform="matrix(0.9957 -0.0931 0.0931 0.9957 -35.781 41.841)" fill-rule="evenodd" clip-rule="evenodd" width="1.049" height="1.734"/>
								
									<rect x="429.97" y="400.658" transform="matrix(0.9957 -0.093 0.093 0.9957 -35.4639 41.7604)" fill-rule="evenodd" clip-rule="evenodd" width="1.05" height="1.734"/>
							</g>
						</g>
						<g>
							<g>
								<g>
									
										<rect x="427.134" y="408.644" transform="matrix(-0.093 -0.9957 0.9957 -0.093 59.8853 882.3364)" fill="none" width="9.341" height="10.499"/>
								</g>
								
									<rect x="431.417" y="416.141" transform="matrix(0.9957 -0.093 0.093 0.9957 -36.897 41.962)" fill-rule="evenodd" clip-rule="evenodd" width="1.05" height="1.734"/>
								
									<rect x="431.127" y="413.045" transform="matrix(0.9957 -0.093 0.093 0.9957 -36.6104 41.9217)" fill-rule="evenodd" clip-rule="evenodd" width="1.05" height="1.734"/>
								
									<rect x="430.839" y="409.959" transform="matrix(0.9957 -0.093 0.093 0.9957 -36.3248 41.8815)" fill-rule="evenodd" clip-rule="evenodd" width="1.05" height="1.734"/>
							</g>
						</g>
						<g>
							<g>
								<g>
									
										<rect x="428.003" y="417.944" transform="matrix(-0.093 -0.9957 0.9957 -0.093 51.5754 893.3675)" fill="none" width="9.341" height="10.499"/>
								</g>
								
									<rect x="432.285" y="425.441" transform="matrix(0.9957 -0.093 0.093 0.9957 -37.7579 42.083)" fill-rule="evenodd" clip-rule="evenodd" width="1.05" height="1.734"/>
								
									<rect x="431.996" y="422.345" transform="matrix(0.9957 -0.093 0.093 0.9957 -37.4713 42.0428)" fill-rule="evenodd" clip-rule="evenodd" width="1.05" height="1.734"/>
								
									<rect x="431.708" y="419.259" transform="matrix(0.9957 -0.0931 0.0931 0.9957 -37.2184 42.0432)" fill-rule="evenodd" clip-rule="evenodd" width="1.049" height="1.734"/>
							</g>
						</g>
					</g>
				</g>
			</g>
			<g>
				<g>
					<g>
						<g>
							<g>
								<rect x="278.958" y="292.136" fill="none" width="12.768" height="10.499"/>
							</g>
							<rect x="288.413" y="297.014" fill-rule="evenodd" clip-rule="evenodd" width="2.37" height="1.05"/>
							<rect x="284.162" y="297.014" fill-rule="evenodd" clip-rule="evenodd" width="2.37" height="1.05"/>
							<rect x="279.925" y="297.014" fill-rule="evenodd" clip-rule="evenodd" width="2.37" height="1.05"/>
						</g>
					</g>
				</g>
			</g>
			<g>
				<g>
					<g>
						<g>
							<g>
								
									<rect x="414.735" y="428.041" transform="matrix(-0.0202 -0.9998 0.9998 -0.0202 -3.6306 863.0235)" fill="none" width="12.675" height="10.499"/>
							</g>
							
								<rect x="420.479" y="436.341" transform="matrix(0.9998 -0.02 0.02 0.9998 -8.6644 8.5059)" fill-rule="evenodd" clip-rule="evenodd" width="1.05" height="2.353"/>
							
								<rect x="420.394" y="432.123" transform="matrix(0.9998 -0.02 0.02 0.9998 -8.5801 8.5033)" fill-rule="evenodd" clip-rule="evenodd" width="1.05" height="2.353"/>
							
								<rect x="420.309" y="427.918" transform="matrix(0.9998 -0.0205 0.0205 0.9998 -8.6915 8.7004)" fill-rule="evenodd" clip-rule="evenodd" width="1.05" height="2.353"/>
						</g>
					</g>
				</g>
			</g>
			<g>
				<g>
					<g>
						<g>
							<g>
								<g>
									
										<rect x="290.847" y="280.772" transform="matrix(-0.9959 -0.0901 0.0901 -0.9959 564.0835 597.494)" fill="none" width="9.348" height="10.499"/>
								</g>
								
									<rect x="298.085" y="285.588" transform="matrix(0.0902 -0.9959 0.9959 0.0902 -13.612 558.0096)" fill-rule="evenodd" clip-rule="evenodd" width="1.05" height="1.735"/>
								
									<rect x="294.986" y="285.307" transform="matrix(0.0902 -0.9959 0.9959 0.0902 -16.1525 554.6681)" fill-rule="evenodd" clip-rule="evenodd" width="1.05" height="1.735"/>
								
									<rect x="291.897" y="285.028" transform="matrix(0.0902 -0.9959 0.9959 0.0902 -18.685 551.3372)" fill-rule="evenodd" clip-rule="evenodd" width="1.05" height="1.735"/>
							</g>
						</g>
						<g>
							<g>
								<g>
									
										<rect x="300.157" y="281.614" transform="matrix(-0.9959 -0.0901 0.0901 -0.9959 582.589 600.0126)" fill="none" width="9.348" height="10.499"/>
								</g>
								
									<rect x="307.395" y="286.429" transform="matrix(0.0902 -0.9959 0.9959 0.0902 -5.9806 568.0471)" fill-rule="evenodd" clip-rule="evenodd" width="1.05" height="1.735"/>
								
									<rect x="304.295" y="286.149" transform="matrix(0.0902 -0.9959 0.9959 0.0902 -8.521 564.7056)" fill-rule="evenodd" clip-rule="evenodd" width="1.05" height="1.735"/>
								
									<rect x="301.206" y="285.87" transform="matrix(0.0902 -0.9959 0.9959 0.0902 -11.0535 561.3747)" fill-rule="evenodd" clip-rule="evenodd" width="1.05" height="1.735"/>
							</g>
						</g>
						<g>
							<g>
								<g>
									
										<rect x="309.466" y="282.456" transform="matrix(-0.9959 -0.0901 0.0901 -0.9959 601.0945 602.5311)" fill="none" width="9.348" height="10.499"/>
								</g>
								
									<rect x="316.704" y="287.271" transform="matrix(0.0902 -0.9959 0.9959 0.0902 1.6509 578.0845)" fill-rule="evenodd" clip-rule="evenodd" width="1.05" height="1.735"/>
								
									<rect x="313.605" y="286.991" transform="matrix(0.0902 -0.9959 0.9959 0.0902 -0.8895 574.743)" fill-rule="evenodd" clip-rule="evenodd" width="1.05" height="1.735"/>
								
									<rect x="310.516" y="286.712" transform="matrix(0.0902 -0.9959 0.9959 0.0902 -3.4221 571.4122)" fill-rule="evenodd" clip-rule="evenodd" width="1.05" height="1.735"/>
							</g>
						</g>
						<g>
							<g>
								<g>
									
										<rect x="318.776" y="283.298" transform="matrix(-0.9959 -0.0901 0.0901 -0.9959 619.6 605.0497)" fill="none" width="9.348" height="10.499"/>
								</g>
								
									<rect x="326.014" y="288.113" transform="matrix(0.0902 -0.9959 0.9959 0.0902 9.2824 588.1221)" fill-rule="evenodd" clip-rule="evenodd" width="1.05" height="1.735"/>
								
									<rect x="322.915" y="287.833" transform="matrix(0.0902 -0.9959 0.9959 0.0902 6.742 584.7806)" fill-rule="evenodd" clip-rule="evenodd" width="1.05" height="1.735"/>
								
									<rect x="319.825" y="287.553" transform="matrix(0.0902 -0.9959 0.9959 0.0902 4.2094 581.4497)" fill-rule="evenodd" clip-rule="evenodd" width="1.05" height="1.735"/>
							</g>
						</g>
						<g>
							<g>
								<g>
									
										<rect x="328.086" y="284.139" transform="matrix(-0.9959 -0.0901 0.0901 -0.9959 638.1055 607.5682)" fill="none" width="9.348" height="10.499"/>
								</g>
								
									<rect x="335.323" y="288.955" transform="matrix(0.0902 -0.9959 0.9959 0.0902 16.9139 598.1595)" fill-rule="evenodd" clip-rule="evenodd" width="1.05" height="1.735"/>
								
									<rect x="332.224" y="288.674" transform="matrix(0.0902 -0.9959 0.9959 0.0902 14.3734 594.8181)" fill-rule="evenodd" clip-rule="evenodd" width="1.05" height="1.735"/>
								
									<rect x="329.135" y="288.395" transform="matrix(0.0902 -0.9959 0.9959 0.0902 11.8409 591.4872)" fill-rule="evenodd" clip-rule="evenodd" width="1.05" height="1.735"/>
							</g>
						</g>
						<g>
							<g>
								<g>
									
										<rect x="337.395" y="284.981" transform="matrix(-0.9959 -0.0901 0.0901 -0.9959 656.611 610.0868)" fill="none" width="9.348" height="10.499"/>
								</g>
								
									<rect x="344.633" y="289.797" transform="matrix(0.0902 -0.9959 0.9959 0.0902 24.5453 608.197)" fill-rule="evenodd" clip-rule="evenodd" width="1.05" height="1.735"/>
								
									<rect x="341.534" y="289.516" transform="matrix(0.0902 -0.9959 0.9959 0.0902 22.0049 604.8555)" fill-rule="evenodd" clip-rule="evenodd" width="1.05" height="1.735"/>
								
									<rect x="338.444" y="289.237" transform="matrix(0.0902 -0.9959 0.9959 0.0902 19.4724 601.5247)" fill-rule="evenodd" clip-rule="evenodd" width="1.05" height="1.735"/>
							</g>
						</g>
						<g>
							<g>
								<g>
									
										<rect x="346.705" y="285.823" transform="matrix(-0.9959 -0.0901 0.0901 -0.9959 675.1165 612.6053)" fill="none" width="9.348" height="10.499"/>
								</g>
								
									<rect x="353.942" y="290.638" transform="matrix(0.0902 -0.9959 0.9959 0.0902 32.1768 618.2345)" fill-rule="evenodd" clip-rule="evenodd" width="1.05" height="1.735"/>
								
									<rect x="350.843" y="290.358" transform="matrix(0.0902 -0.9959 0.9959 0.0902 29.6364 614.893)" fill-rule="evenodd" clip-rule="evenodd" width="1.05" height="1.735"/>
								
									<rect x="347.754" y="290.079" transform="matrix(0.0902 -0.9959 0.9959 0.0902 27.1039 611.5621)" fill-rule="evenodd" clip-rule="evenodd" width="1.05" height="1.735"/>
							</g>
						</g>
						<g>
							<g>
								<g>
									
										<rect x="356.014" y="286.665" transform="matrix(-0.9959 -0.0901 0.0901 -0.9959 693.622 615.1238)" fill="none" width="9.348" height="10.499"/>
								</g>
								
									<rect x="363.252" y="291.48" transform="matrix(0.0902 -0.9959 0.9959 0.0902 39.8083 628.272)" fill-rule="evenodd" clip-rule="evenodd" width="1.05" height="1.735"/>
								
									<rect x="360.153" y="291.2" transform="matrix(0.0902 -0.9959 0.9959 0.0902 37.2679 624.9305)" fill-rule="evenodd" clip-rule="evenodd" width="1.05" height="1.735"/>
								
									<rect x="357.064" y="290.921" transform="matrix(0.0902 -0.9959 0.9959 0.0902 34.7353 621.5996)" fill-rule="evenodd" clip-rule="evenodd" width="1.05" height="1.735"/>
							</g>
						</g>
						<g>
							<g>
								<g>
									
										<rect x="365.324" y="287.507" transform="matrix(-0.9959 -0.0901 0.0901 -0.9959 712.1276 617.6424)" fill="none" width="9.348" height="10.499"/>
								</g>
								
									<rect x="372.562" y="292.322" transform="matrix(0.0902 -0.9959 0.9959 0.0902 47.4398 638.3094)" fill-rule="evenodd" clip-rule="evenodd" width="1.05" height="1.735"/>
								
									<rect x="369.462" y="292.042" transform="matrix(0.0902 -0.9959 0.9959 0.0902 44.8994 634.968)" fill-rule="evenodd" clip-rule="evenodd" width="1.05" height="1.735"/>
								
									<rect x="366.373" y="291.762" transform="matrix(0.0902 -0.9959 0.9959 0.0902 42.3668 631.6371)" fill-rule="evenodd" clip-rule="evenodd" width="1.05" height="1.735"/>
							</g>
						</g>
						<g>
							<g>
								<g>
									
										<rect x="374.633" y="288.348" transform="matrix(-0.9959 -0.0901 0.0901 -0.9959 730.633 620.1609)" fill="none" width="9.348" height="10.499"/>
								</g>
								
									<rect x="381.871" y="293.164" transform="matrix(0.0902 -0.9959 0.9959 0.0902 55.0713 648.347)" fill-rule="evenodd" clip-rule="evenodd" width="1.05" height="1.735"/>
								
									<rect x="378.772" y="292.883" transform="matrix(0.0902 -0.9959 0.9959 0.0902 52.5308 645.0055)" fill-rule="evenodd" clip-rule="evenodd" width="1.05" height="1.735"/>
								
									<rect x="375.683" y="292.604" transform="matrix(0.0902 -0.9959 0.9959 0.0902 49.9983 641.6746)" fill-rule="evenodd" clip-rule="evenodd" width="1.05" height="1.735"/>
							</g>
						</g>
						<g>
							<g>
								<g>
									
										<rect x="383.943" y="289.19" transform="matrix(-0.9959 -0.0901 0.0901 -0.9959 749.1385 622.6795)" fill="none" width="9.348" height="10.499"/>
								</g>
								
									<rect x="391.181" y="294.005" transform="matrix(0.0902 -0.9959 0.9959 0.0902 62.7027 658.3845)" fill-rule="evenodd" clip-rule="evenodd" width="1.05" height="1.735"/>
								
									<rect x="388.082" y="293.725" transform="matrix(0.0902 -0.9959 0.9959 0.0902 60.1623 655.043)" fill-rule="evenodd" clip-rule="evenodd" width="1.05" height="1.735"/>
								
									<rect x="384.992" y="293.446" transform="matrix(0.0902 -0.9959 0.9959 0.0902 57.6298 651.7122)" fill-rule="evenodd" clip-rule="evenodd" width="1.05" height="1.735"/>
							</g>
						</g>
						<g>
							<g>
								<g>
									
										<rect x="393.253" y="290.032" transform="matrix(-0.9959 -0.0901 0.0901 -0.9959 767.644 625.1981)" fill="none" width="9.348" height="10.499"/>
								</g>
								
									<rect x="400.49" y="294.847" transform="matrix(0.0902 -0.9959 0.9959 0.0902 70.3342 668.422)" fill-rule="evenodd" clip-rule="evenodd" width="1.05" height="1.735"/>
								
									<rect x="397.391" y="294.567" transform="matrix(0.0902 -0.9959 0.9959 0.0902 67.7938 665.0804)" fill-rule="evenodd" clip-rule="evenodd" width="1.05" height="1.735"/>
								
									<rect x="394.302" y="294.288" transform="matrix(0.0902 -0.9959 0.9959 0.0902 65.2612 661.7496)" fill-rule="evenodd" clip-rule="evenodd" width="1.05" height="1.735"/>
							</g>
						</g>
						<g>
							<g>
								<g>
									
										<rect x="402.562" y="290.874" transform="matrix(-0.9959 -0.0901 0.0901 -0.9959 786.1495 627.7166)" fill="none" width="9.348" height="10.499"/>
								</g>
								
									<rect x="409.8" y="295.689" transform="matrix(0.0902 -0.9959 0.9959 0.0902 77.9657 678.4594)" fill-rule="evenodd" clip-rule="evenodd" width="1.05" height="1.735"/>
								
									<rect x="406.701" y="295.409" transform="matrix(0.0902 -0.9959 0.9959 0.0902 75.4253 675.1179)" fill-rule="evenodd" clip-rule="evenodd" width="1.05" height="1.735"/>
								
									<rect x="403.611" y="295.13" transform="matrix(0.0902 -0.9959 0.9959 0.0902 72.8927 671.7871)" fill-rule="evenodd" clip-rule="evenodd" width="1.05" height="1.735"/>
							</g>
						</g>
						<g>
							<g>
								<g>
									
										<rect x="411.872" y="291.715" transform="matrix(-0.9959 -0.0901 0.0901 -0.9959 804.655 630.2352)" fill="none" width="9.348" height="10.499"/>
								</g>
								
									<rect x="419.109" y="296.531" transform="matrix(0.0902 -0.9959 0.9959 0.0902 85.5972 688.4969)" fill-rule="evenodd" clip-rule="evenodd" width="1.05" height="1.735"/>
								
									<rect x="416.01" y="296.251" transform="matrix(0.0902 -0.9959 0.9959 0.0902 83.0567 685.1555)" fill-rule="evenodd" clip-rule="evenodd" width="1.05" height="1.735"/>
								
									<rect x="412.921" y="295.971" transform="matrix(0.0902 -0.9959 0.9959 0.0902 80.5242 681.8246)" fill-rule="evenodd" clip-rule="evenodd" width="1.05" height="1.735"/>
							</g>
						</g>
					</g>
				</g>
			</g>
		</g>
		<g>
			<g>
				<g>
					<g>
						<g>
							<g>
								
									<rect x="554.722" y="430.827" transform="matrix(0.7071 0.7071 -0.7071 0.7071 472.2184 -267.8226)" fill="none" width="9.323" height="10.499"/>
							</g>
							
								<rect x="556.769" y="432.906" transform="matrix(-0.7076 0.7066 -0.7066 -0.7076 1258.14 346.8879)" fill-rule="evenodd" clip-rule="evenodd" width="1.05" height="1.73"/>
							
								<rect x="558.964" y="435.1" transform="matrix(-0.7069 0.7073 -0.7073 -0.7069 1263.3525 348.3901)" fill-rule="evenodd" clip-rule="evenodd" width="1.05" height="1.73"/>
							
								<rect x="561.151" y="437.288" transform="matrix(-0.7069 0.7073 -0.7073 -0.7069 1268.6335 350.5765)" fill-rule="evenodd" clip-rule="evenodd" width="1.05" height="1.73"/>
						</g>
					</g>
					<g>
						<g>
							<g>
								
									<rect x="548.129" y="424.235" transform="matrix(0.7071 0.7071 -0.7071 0.7071 465.5743 -265.0856)" fill="none" width="9.323" height="10.499"/>
							</g>
							
								<rect x="550.177" y="426.314" transform="matrix(-0.7069 0.7073 -0.7073 -0.7069 1242.1389 339.6078)" fill-rule="evenodd" clip-rule="evenodd" width="1.05" height="1.73"/>
							
								<rect x="552.372" y="428.509" transform="matrix(-0.7071 0.7071 -0.7071 -0.7071 1247.4663 342.0296)" fill-rule="evenodd" clip-rule="evenodd" width="1.05" height="1.73"/>
							
								<rect x="554.559" y="430.696" transform="matrix(-0.7071 0.7071 -0.7071 -0.7071 1252.7466 344.2175)" fill-rule="evenodd" clip-rule="evenodd" width="1.05" height="1.73"/>
						</g>
					</g>
					<g>
						<g>
							<g>
								
									<rect x="541.537" y="417.643" transform="matrix(0.7071 0.7071 -0.7071 0.7071 459.008 -262.3582)" fill="none" width="9.322" height="10.499"/>
							</g>
							
								<rect x="543.584" y="419.721" transform="matrix(-0.7073 0.7069 -0.7069 -0.7073 1226.2811 333.467)" fill-rule="evenodd" clip-rule="evenodd" width="1.051" height="1.73"/>
							
								<rect x="545.779" y="421.916" transform="matrix(-0.7069 0.7073 -0.7073 -0.7069 1231.5225 335.2125)" fill-rule="evenodd" clip-rule="evenodd" width="1.05" height="1.73"/>
							
								<rect x="547.967" y="424.104" transform="matrix(-0.7071 0.7071 -0.7071 -0.7071 1236.8322 337.6248)" fill-rule="evenodd" clip-rule="evenodd" width="1.05" height="1.73"/>
						</g>
					</g>
					<g>
						<g>
							<g>
								
									<rect x="534.944" y="411.051" transform="matrix(0.7071 0.7071 -0.7071 0.7071 452.3908 -259.6242)" fill="none" width="9.323" height="10.499"/>
							</g>
							
								<rect x="536.992" y="413.129" transform="matrix(-0.7071 0.7071 -0.7071 -0.7071 1210.3374 326.6511)" fill-rule="evenodd" clip-rule="evenodd" width="1.05" height="1.73"/>
							
								<rect x="539.187" y="415.324" transform="matrix(-0.7076 0.7066 -0.7066 -0.7076 1215.6932 329.2895)" fill-rule="evenodd" clip-rule="evenodd" width="1.05" height="1.73"/>
							
								<rect x="541.374" y="417.511" transform="matrix(-0.7076 0.7066 -0.7066 -0.7076 1220.9735 331.4794)" fill-rule="evenodd" clip-rule="evenodd" width="1.05" height="1.731"/>
						</g>
					</g>
					<g>
						<g>
							<g>
								
									<rect x="528.352" y="404.459" transform="matrix(0.7071 0.7071 -0.7071 0.7071 445.8483 -256.9)" fill="none" width="9.323" height="10.499"/>
							</g>
							
								<rect x="530.401" y="406.537" transform="matrix(-0.7071 0.7071 -0.7071 -0.7071 1194.4231 320.0584)" fill-rule="evenodd" clip-rule="evenodd" width="1.05" height="1.73"/>
							
								<rect x="532.595" y="408.732" transform="matrix(-0.7069 0.7073 -0.7073 -0.7069 1199.6921 322.034)" fill-rule="evenodd" clip-rule="evenodd" width="1.05" height="1.73"/>
							
								<rect x="534.782" y="410.919" transform="matrix(-0.7069 0.7073 -0.7073 -0.7069 1204.9733 324.2205)" fill-rule="evenodd" clip-rule="evenodd" width="1.05" height="1.73"/>
						</g>
					</g>
					<g>
						<g>
							<g>
								
									<rect x="521.76" y="397.867" transform="matrix(0.7071 0.7071 -0.7071 0.7071 439.2069 -254.163)" fill="none" width="9.323" height="10.499"/>
							</g>
							
								<rect x="523.808" y="399.945" transform="matrix(-0.7071 0.7071 -0.7071 -0.7071 1178.5071 313.4665)" fill-rule="evenodd" clip-rule="evenodd" width="1.05" height="1.73"/>
							
								<rect x="526.002" y="402.139" transform="matrix(-0.7073 0.7069 -0.7069 -0.7073 1183.8344 315.8768)" fill-rule="evenodd" clip-rule="evenodd" width="1.051" height="1.73"/>
							
								<rect x="528.19" y="404.327" transform="matrix(-0.7073 0.7069 -0.7069 -0.7073 1189.1155 318.0653)" fill-rule="evenodd" clip-rule="evenodd" width="1.051" height="1.73"/>
						</g>
					</g>
					<g>
						<g>
							<g>
								
									<rect x="515.168" y="391.274" transform="matrix(0.7071 0.7071 -0.7071 0.7071 432.663 -251.4388)" fill="none" width="9.323" height="10.499"/>
							</g>
							
								<rect x="517.216" y="393.353" transform="matrix(-0.7069 0.7073 -0.7073 -0.7069 1162.5642 306.6623)" fill-rule="evenodd" clip-rule="evenodd" width="1.05" height="1.73"/>
							
								<rect x="519.41" y="395.547" transform="matrix(-0.7071 0.7071 -0.7071 -0.7071 1167.8906 309.069)" fill-rule="evenodd" clip-rule="evenodd" width="1.05" height="1.73"/>
							
								<rect x="521.598" y="397.735" transform="matrix(-0.7071 0.7071 -0.7071 -0.7071 1173.1718 311.2565)" fill-rule="evenodd" clip-rule="evenodd" width="1.05" height="1.73"/>
						</g>
					</g>
					<g>
						<g>
							<g>
								
									<rect x="508.575" y="384.682" transform="matrix(0.7072 0.7071 -0.7071 0.7072 425.9996 -248.6985)" fill="none" width="9.323" height="10.499"/>
							</g>
							
								<rect x="510.623" y="386.76" transform="matrix(-0.7069 0.7073 -0.7073 -0.7069 1146.6482 300.0734)" fill-rule="evenodd" clip-rule="evenodd" width="1.05" height="1.73"/>
							
								<rect x="512.817" y="388.955" transform="matrix(-0.7073 0.7069 -0.7069 -0.7073 1152.0044 302.687)" fill-rule="evenodd" clip-rule="evenodd" width="1.051" height="1.73"/>
							
								<rect x="515.005" y="391.143" transform="matrix(-0.7076 0.7066 -0.7066 -0.7076 1157.314 305.0862)" fill-rule="evenodd" clip-rule="evenodd" width="1.05" height="1.73"/>
						</g>
					</g>
					<g>
						<g>
							<g>
								
									<rect x="501.983" y="378.09" transform="matrix(0.7071 0.7071 -0.7071 0.7071 419.4781 -245.9775)" fill="none" width="9.323" height="10.499"/>
							</g>
							
								<rect x="504.031" y="380.168" transform="matrix(-0.7071 0.7071 -0.7071 -0.7071 1130.7627 293.6901)" fill-rule="evenodd" clip-rule="evenodd" width="1.05" height="1.73"/>
							
								<rect x="506.226" y="382.363" transform="matrix(-0.7069 0.7073 -0.7073 -0.7069 1136.0317 295.678)" fill-rule="evenodd" clip-rule="evenodd" width="1.05" height="1.73"/>
							
								<rect x="508.413" y="384.55" transform="matrix(-0.7071 0.7071 -0.7071 -0.7071 1141.3414 298.072)" fill-rule="evenodd" clip-rule="evenodd" width="1.05" height="1.73"/>
						</g>
					</g>
					<g>
						<g>
							<g>
								
									<rect x="495.391" y="371.498" transform="matrix(0.7071 0.7071 -0.7071 0.7071 412.8395 -243.2404)" fill="none" width="9.323" height="10.499"/>
							</g>
							
								<rect x="497.439" y="373.576" transform="matrix(-0.7071 0.7071 -0.7071 -0.7071 1114.8467 287.0982)" fill-rule="evenodd" clip-rule="evenodd" width="1.05" height="1.73"/>
							
								<rect x="499.633" y="375.771" transform="matrix(-0.7073 0.7069 -0.7069 -0.7073 1120.174 289.4963)" fill-rule="evenodd" clip-rule="evenodd" width="1.051" height="1.73"/>
							
								<rect x="501.82" y="377.958" transform="matrix(-0.7073 0.7069 -0.7069 -0.7073 1125.4551 291.6848)" fill-rule="evenodd" clip-rule="evenodd" width="1.051" height="1.73"/>
						</g>
					</g>
					<g>
						<g>
							<g>
								
									<rect x="488.799" y="364.906" transform="matrix(0.7071 0.7071 -0.7071 0.7071 406.293 -240.5162)" fill="none" width="9.323" height="10.499"/>
							</g>
							
								<rect x="490.847" y="366.984" transform="matrix(-0.7071 0.7071 -0.7071 -0.7071 1098.9324 280.5056)" fill-rule="evenodd" clip-rule="evenodd" width="1.05" height="1.73"/>
							
								<rect x="493.041" y="369.178" transform="matrix(-0.7069 0.7073 -0.7073 -0.7069 1104.2014 282.4995)" fill-rule="evenodd" clip-rule="evenodd" width="1.05" height="1.73"/>
							
								<rect x="495.228" y="371.366" transform="matrix(-0.7069 0.7073 -0.7073 -0.7069 1109.4824 284.686)" fill-rule="evenodd" clip-rule="evenodd" width="1.05" height="1.73"/>
						</g>
					</g>
					<g>
						<g>
							<g>
								
									<rect x="482.206" y="358.313" transform="matrix(0.7071 0.7071 -0.7071 0.7071 399.6556 -237.7792)" fill="none" width="9.323" height="10.499"/>
							</g>
							
								<rect x="484.254" y="360.392" transform="matrix(-0.7073 0.7069 -0.7069 -0.7073 1083.046 274.1102)" fill-rule="evenodd" clip-rule="evenodd" width="1.051" height="1.73"/>
							
								<rect x="486.449" y="362.586" transform="matrix(-0.7071 0.7071 -0.7071 -0.7071 1088.3159 276.1081)" fill-rule="evenodd" clip-rule="evenodd" width="1.05" height="1.73"/>
							
								<rect x="488.637" y="364.774" transform="matrix(-0.7071 0.7071 -0.7071 -0.7071 1093.597 278.2956)" fill-rule="evenodd" clip-rule="evenodd" width="1.05" height="1.73"/>
						</g>
					</g>
					<g>
						<g>
							<g>
								
									<rect x="475.614" y="351.721" transform="matrix(0.7071 0.7071 -0.7071 0.7071 393.0858 -235.0517)" fill="none" width="9.322" height="10.499"/>
							</g>
							
								<rect x="477.662" y="353.8" transform="matrix(-0.7069 0.7073 -0.7073 -0.7069 1067.0735 267.1278)" fill-rule="evenodd" clip-rule="evenodd" width="1.05" height="1.73"/>
							
								<rect x="479.856" y="355.994" transform="matrix(-0.7069 0.7073 -0.7073 -0.7069 1072.3713 269.3219)" fill-rule="evenodd" clip-rule="evenodd" width="1.05" height="1.73"/>
							
								<rect x="482.044" y="358.182" transform="matrix(-0.7071 0.7071 -0.7071 -0.7071 1077.681 271.7037)" fill-rule="evenodd" clip-rule="evenodd" width="1.05" height="1.73"/>
						</g>
					</g>
					<g>
						<g>
							<g>
								
									<rect x="469.022" y="345.129" transform="matrix(0.7071 0.7071 -0.7071 0.7071 386.5153 -232.3242)" fill="none" width="9.323" height="10.5"/>
							</g>
							
								<rect x="471.07" y="347.208" transform="matrix(-0.7076 0.7066 -0.7066 -0.7076 1051.2445 261.1107)" fill-rule="evenodd" clip-rule="evenodd" width="1.05" height="1.73"/>
							
								<rect x="473.265" y="349.402" transform="matrix(-0.7069 0.7073 -0.7073 -0.7069 1056.457 262.7324)" fill-rule="evenodd" clip-rule="evenodd" width="1.05" height="1.73"/>
							
								<rect x="475.452" y="351.589" transform="matrix(-0.7071 0.7071 -0.7071 -0.7071 1061.7666 265.111)" fill-rule="evenodd" clip-rule="evenodd" width="1.05" height="1.73"/>
						</g>
					</g>
					<g>
						<g>
							<g>
								
									<rect x="462.43" y="338.537" transform="matrix(0.7071 0.7071 -0.7071 0.7071 379.8803 -229.5875)" fill="none" width="9.323" height="10.499"/>
							</g>
							
								<rect x="464.478" y="340.615" transform="matrix(-0.7071 0.7071 -0.7071 -0.7071 1035.272 254.1373)" fill-rule="evenodd" clip-rule="evenodd" width="1.05" height="1.73"/>
							
								<rect x="466.672" y="342.81" transform="matrix(-0.7069 0.7073 -0.7073 -0.7069 1040.5411 256.1439)" fill-rule="evenodd" clip-rule="evenodd" width="1.05" height="1.73"/>
							
								<rect x="468.859" y="344.997" transform="matrix(-0.7069 0.7073 -0.7073 -0.7069 1045.822 258.33)" fill-rule="evenodd" clip-rule="evenodd" width="1.05" height="1.73"/>
						</g>
					</g>
					<g>
						<g>
							<g>
								
									<rect x="455.838" y="331.945" transform="matrix(0.7071 0.7071 -0.7071 0.7071 373.3303 -226.8633)" fill="none" width="9.323" height="10.499"/>
							</g>
							
								<rect x="457.885" y="334.023" transform="matrix(-0.7076 0.7066 -0.7066 -0.7076 1019.4141 247.9138)" fill-rule="evenodd" clip-rule="evenodd" width="1.05" height="1.73"/>
							
								<rect x="460.08" y="336.218" transform="matrix(-0.7069 0.7073 -0.7073 -0.7069 1024.6267 249.5539)" fill-rule="evenodd" clip-rule="evenodd" width="1.05" height="1.73"/>
							
								<rect x="462.268" y="338.405" transform="matrix(-0.7069 0.7073 -0.7073 -0.7069 1029.9077 251.7404)" fill-rule="evenodd" clip-rule="evenodd" width="1.05" height="1.73"/>
						</g>
					</g>
					<g>
						<g>
							<g>
								
									<rect x="449.245" y="325.352" transform="matrix(0.7071 0.7071 -0.7071 0.7071 366.6966 -224.1262)" fill="none" width="9.323" height="10.499"/>
							</g>
							
								<rect x="451.293" y="327.431" transform="matrix(-0.7069 0.7073 -0.7073 -0.7069 1003.413 240.7717)" fill-rule="evenodd" clip-rule="evenodd" width="1.05" height="1.73"/>
							
								<rect x="453.488" y="329.625" transform="matrix(-0.7076 0.7066 -0.7066 -0.7076 1008.7977 243.5123)" fill-rule="evenodd" clip-rule="evenodd" width="1.05" height="1.73"/>
							
								<rect x="455.675" y="331.813" transform="matrix(-0.7071 0.7071 -0.7071 -0.7071 1014.0206 245.3353)" fill-rule="evenodd" clip-rule="evenodd" width="1.05" height="1.73"/>
						</g>
					</g>
					<g>
						<g>
							<g>
								
									<rect x="442.653" y="318.76" transform="matrix(0.7071 0.7071 -0.7071 0.7071 360.1249 -221.3988)" fill="none" width="9.322" height="10.499"/>
							</g>
							
								<rect x="444.7" y="320.839" transform="matrix(-0.7073 0.7069 -0.7069 -0.7073 987.5553 234.539)" fill-rule="evenodd" clip-rule="evenodd" width="1.051" height="1.73"/>
							
								<rect x="446.895" y="323.033" transform="matrix(-0.7069 0.7073 -0.7073 -0.7069 992.7966 236.3763)" fill-rule="evenodd" clip-rule="evenodd" width="1.05" height="1.73"/>
							
								<rect x="449.083" y="325.221" transform="matrix(-0.7069 0.7073 -0.7073 -0.7069 998.0777 238.5628)" fill-rule="evenodd" clip-rule="evenodd" width="1.05" height="1.73"/>
						</g>
					</g>
					<g>
						<g>
							<g>
								
									<rect x="436.061" y="312.168" transform="matrix(0.7071 0.7071 -0.7071 0.7071 353.5129 -218.6649)" fill="none" width="9.323" height="10.499"/>
							</g>
							
								<rect x="438.108" y="314.247" transform="matrix(-0.7071 0.7071 -0.7071 -0.7071 971.6116 227.7689)" fill-rule="evenodd" clip-rule="evenodd" width="1.05" height="1.73"/>
							
								<rect x="440.303" y="316.441" transform="matrix(-0.7073 0.7069 -0.7069 -0.7073 976.9388 230.1395)" fill-rule="evenodd" clip-rule="evenodd" width="1.051" height="1.73"/>
							
								<rect x="442.49" y="318.628" transform="matrix(-0.7076 0.7066 -0.7066 -0.7076 982.2484 232.505)" fill-rule="evenodd" clip-rule="evenodd" width="1.05" height="1.73"/>
						</g>
					</g>
					<g>
						<g>
							<g>
								
									<rect x="429.469" y="305.576" transform="matrix(0.7071 0.7071 -0.7071 0.7071 346.96 -215.9408)" fill="none" width="9.323" height="10.499"/>
							</g>
							
								<rect x="431.517" y="307.655" transform="matrix(-0.7069 0.7073 -0.7073 -0.7069 955.6686 221.0045)" fill-rule="evenodd" clip-rule="evenodd" width="1.05" height="1.73"/>
							
								<rect x="433.711" y="309.849" transform="matrix(-0.7071 0.7071 -0.7071 -0.7071 960.9952 223.3715)" fill-rule="evenodd" clip-rule="evenodd" width="1.05" height="1.73"/>
							
								<rect x="435.898" y="312.036" transform="matrix(-0.7069 0.7073 -0.7073 -0.7069 966.2474 225.3844)" fill-rule="evenodd" clip-rule="evenodd" width="1.05" height="1.73"/>
						</g>
					</g>
					<g>
						<g>
							<g>
								
									<rect x="422.876" y="298.984" transform="matrix(0.7071 0.7071 -0.7071 0.7071 340.3292 -213.2036)" fill="none" width="9.323" height="10.499"/>
							</g>
							
								<rect x="424.924" y="301.062" transform="matrix(-0.7071 0.7071 -0.7071 -0.7071 939.7812 214.5844)" fill-rule="evenodd" clip-rule="evenodd" width="1.05" height="1.73"/>
							
								<rect x="427.118" y="303.257" transform="matrix(-0.7073 0.7069 -0.7069 -0.7073 945.1086 216.9492)" fill-rule="evenodd" clip-rule="evenodd" width="1.051" height="1.73"/>
							
								<rect x="429.306" y="305.444" transform="matrix(-0.7073 0.7069 -0.7069 -0.7073 950.3896 219.1373)" fill-rule="evenodd" clip-rule="evenodd" width="1.051" height="1.73"/>
						</g>
					</g>
					<g>
						<g>
							<g>
								
									<rect x="416.284" y="292.392" transform="matrix(0.7071 0.7071 -0.7071 0.7071 333.7749 -210.4794)" fill="none" width="9.323" height="10.499"/>
							</g>
							
								<rect x="418.332" y="294.47" transform="matrix(-0.7071 0.7071 -0.7071 -0.7071 923.8666 207.9923)" fill-rule="evenodd" clip-rule="evenodd" width="1.05" height="1.73"/>
							
								<rect x="420.526" y="296.665" transform="matrix(-0.7071 0.7071 -0.7071 -0.7071 929.1648 210.1869)" fill-rule="evenodd" clip-rule="evenodd" width="1.05" height="1.73"/>
							
								<rect x="422.714" y="298.852" transform="matrix(-0.7071 0.7071 -0.7071 -0.7071 934.4459 212.3744)" fill-rule="evenodd" clip-rule="evenodd" width="1.05" height="1.73"/>
						</g>
					</g>
					<g>
						<g>
							<g>
								
									<rect x="409.692" y="285.799" transform="matrix(0.7071 0.7071 -0.7071 0.7071 327.1454 -207.7426)" fill="none" width="9.323" height="10.499"/>
							</g>
							
								<rect x="411.739" y="287.878" transform="matrix(-0.7071 0.7071 -0.7071 -0.7071 907.9514 201.4)" fill-rule="evenodd" clip-rule="evenodd" width="1.05" height="1.73"/>
							
								<rect x="413.934" y="290.073" transform="matrix(-0.7069 0.7073 -0.7073 -0.7069 913.2211 203.4311)" fill-rule="evenodd" clip-rule="evenodd" width="1.05" height="1.73"/>
							
								<rect x="416.122" y="292.26" transform="matrix(-0.7069 0.7073 -0.7073 -0.7069 918.5021 205.6175)" fill-rule="evenodd" clip-rule="evenodd" width="1.05" height="1.73"/>
						</g>
					</g>
					<g>
						<g>
							<g>
								
									<rect x="403.1" y="279.207" transform="matrix(0.7071 0.7071 -0.7071 0.7071 320.5717 -205.0151)" fill="none" width="9.323" height="10.499"/>
							</g>
							
								<rect x="405.147" y="281.286" transform="matrix(-0.7073 0.7069 -0.7069 -0.7073 892.0651 194.9681)" fill-rule="evenodd" clip-rule="evenodd" width="1.05" height="1.73"/>
							
								<rect x="407.342" y="283.48" transform="matrix(-0.7069 0.7073 -0.7073 -0.7069 897.3063 196.8417)" fill-rule="evenodd" clip-rule="evenodd" width="1.05" height="1.73"/>
							
								<rect x="409.529" y="285.668" transform="matrix(-0.7069 0.7073 -0.7073 -0.7069 902.5869 199.0283)" fill-rule="evenodd" clip-rule="evenodd" width="1.05" height="1.73"/>
						</g>
					</g>
					<g>
						<g>
							<g>
								
									<rect x="396.507" y="272.615" transform="matrix(0.7071 0.7071 -0.7071 0.7071 313.9795 -202.2845)" fill="none" width="9.323" height="10.499"/>
							</g>
							
								<rect x="398.555" y="274.694" transform="matrix(-0.7071 0.7071 -0.7071 -0.7071 876.1214 188.2163)" fill-rule="evenodd" clip-rule="evenodd" width="1.05" height="1.73"/>
							
								<rect x="400.75" y="276.888" transform="matrix(-0.7073 0.7069 -0.7069 -0.7073 881.4487 190.5686)" fill-rule="evenodd" clip-rule="evenodd" width="1.05" height="1.73"/>
							
								<rect x="402.937" y="279.075" transform="matrix(-0.7071 0.7071 -0.7071 -0.7071 886.7009 192.5978)" fill-rule="evenodd" clip-rule="evenodd" width="1.05" height="1.73"/>
						</g>
					</g>
					<g>
						<g>
							<g>
								
									<rect x="389.915" y="266.023" transform="matrix(0.7071 0.7071 -0.7071 0.7071 307.3873 -199.5538)" fill="none" width="9.323" height="10.499"/>
							</g>
							
								<rect x="391.963" y="268.101" transform="matrix(-0.7069 0.7073 -0.7073 -0.7069 860.1779 181.4701)" fill-rule="evenodd" clip-rule="evenodd" width="1.05" height="1.73"/>
							
								<rect x="394.157" y="270.296" transform="matrix(-0.7073 0.7069 -0.7069 -0.7073 865.5335 183.9732)" fill-rule="evenodd" clip-rule="evenodd" width="1.05" height="1.73"/>
							
								<rect x="396.345" y="272.483" transform="matrix(-0.7071 0.7071 -0.7071 -0.7071 870.7858 186.0055)" fill-rule="evenodd" clip-rule="evenodd" width="1.05" height="1.73"/>
						</g>
					</g>
					<g>
						<g>
							<g>
								
									<rect x="383.323" y="259.431" transform="matrix(0.7071 0.7071 -0.7071 0.7071 300.7951 -196.8232)" fill="none" width="9.323" height="10.499"/>
							</g>
							
								<rect x="385.371" y="261.509" transform="matrix(-0.7069 0.7073 -0.7073 -0.7069 844.2627 174.8808)" fill-rule="evenodd" clip-rule="evenodd" width="1.05" height="1.73"/>
							
								<rect x="387.565" y="263.704" transform="matrix(-0.7073 0.7069 -0.7069 -0.7073 849.6183 177.3779)" fill-rule="evenodd" clip-rule="evenodd" width="1.05" height="1.73"/>
							
								<rect x="389.753" y="265.891" transform="matrix(-0.7073 0.7069 -0.7069 -0.7073 854.8994 179.5664)" fill-rule="evenodd" clip-rule="evenodd" width="1.05" height="1.73"/>
						</g>
					</g>
					<g>
						<g>
							<g>
								
									<rect x="376.731" y="252.838" transform="matrix(0.7071 0.7071 -0.7071 0.7071 294.186 -194.0894)" fill="none" width="9.323" height="10.499"/>
							</g>
							
								<rect x="378.778" y="254.917" transform="matrix(-0.7069 0.7073 -0.7073 -0.7069 828.3475 168.2916)" fill-rule="evenodd" clip-rule="evenodd" width="1.05" height="1.73"/>
							
								<rect x="380.973" y="257.112" transform="matrix(-0.7071 0.7071 -0.7071 -0.7071 833.6746 170.6343)" fill-rule="evenodd" clip-rule="evenodd" width="1.05" height="1.73"/>
							
								<rect x="383.16" y="259.299" transform="matrix(-0.7071 0.7071 -0.7071 -0.7071 838.9557 172.8218)" fill-rule="evenodd" clip-rule="evenodd" width="1.05" height="1.73"/>
						</g>
					</g>
					<g>
						<g>
							<g>
								
									<rect x="370.138" y="246.246" transform="matrix(0.7071 0.7071 -0.7071 0.7071 287.6107 -191.3619)" fill="none" width="9.323" height="10.499"/>
							</g>
							
								<rect x="372.186" y="248.325" transform="matrix(-0.7071 0.7071 -0.7071 -0.7071 812.4612 161.8474)" fill-rule="evenodd" clip-rule="evenodd" width="1.05" height="1.73"/>
							
								<rect x="374.38" y="250.519" transform="matrix(-0.7071 0.7071 -0.7071 -0.7071 817.7595 164.042)" fill-rule="evenodd" clip-rule="evenodd" width="1.05" height="1.73"/>
							
								<rect x="376.568" y="252.707" transform="matrix(-0.7071 0.7071 -0.7071 -0.7071 823.0405 166.2295)" fill-rule="evenodd" clip-rule="evenodd" width="1.05" height="1.73"/>
						</g>
					</g>
					<g>
						<g>
							<g>
								
									<rect x="363.546" y="239.654" transform="matrix(0.7071 0.7071 -0.7071 0.7071 281.0184 -188.6313)" fill="none" width="9.323" height="10.499"/>
							</g>
							
								<rect x="365.594" y="241.733" transform="matrix(-0.7069 0.7073 -0.7073 -0.7069 796.5175 155.114)" fill-rule="evenodd" clip-rule="evenodd" width="1.05" height="1.73"/>
							
								<rect x="367.788" y="243.927" transform="matrix(-0.7073 0.7069 -0.7069 -0.7073 801.8732 157.5927)" fill-rule="evenodd" clip-rule="evenodd" width="1.05" height="1.73"/>
							
								<rect x="369.976" y="246.115" transform="matrix(-0.7071 0.7071 -0.7071 -0.7071 807.1255 159.6376)" fill-rule="evenodd" clip-rule="evenodd" width="1.05" height="1.73"/>
						</g>
					</g>
					<g>
						<g>
							<g>
								
									<rect x="356.954" y="233.062" transform="matrix(0.7071 0.7071 -0.7071 0.7071 274.4106 -185.8974)" fill="none" width="9.323" height="10.499"/>
							</g>
							
								<rect x="359.001" y="235.14" transform="matrix(-0.7069 0.7073 -0.7073 -0.7069 780.6024 148.5248)" fill-rule="evenodd" clip-rule="evenodd" width="1.05" height="1.73"/>
							
								<rect x="361.196" y="237.335" transform="matrix(-0.7073 0.7069 -0.7069 -0.7073 785.9579 150.9973)" fill-rule="evenodd" clip-rule="evenodd" width="1.05" height="1.73"/>
							
								<rect x="363.383" y="239.522" transform="matrix(-0.7071 0.7071 -0.7071 -0.7071 791.2101 153.0449)" fill-rule="evenodd" clip-rule="evenodd" width="1.05" height="1.73"/>
						</g>
					</g>
					<g>
						<g>
							<g>
								
									<rect x="350.361" y="226.47" transform="matrix(0.7071 0.7071 -0.7071 0.7071 267.8495 -183.1731)" fill="none" width="9.323" height="10.499"/>
							</g>
							
								<rect x="352.409" y="228.549" transform="matrix(-0.7069 0.7073 -0.7073 -0.7069 764.6873 141.936)" fill-rule="evenodd" clip-rule="evenodd" width="1.05" height="1.73"/>
							
								<rect x="354.604" y="230.743" transform="matrix(-0.7073 0.7069 -0.7069 -0.7073 770.0427 144.402)" fill-rule="evenodd" clip-rule="evenodd" width="1.05" height="1.73"/>
							
								<rect x="356.791" y="232.93" transform="matrix(-0.7073 0.7069 -0.7069 -0.7073 775.3239 146.5905)" fill-rule="evenodd" clip-rule="evenodd" width="1.05" height="1.73"/>
						</g>
					</g>
					<g>
						<g>
							<g>
								
									<rect x="343.769" y="219.878" transform="matrix(0.7071 0.7071 -0.7071 0.7071 261.2267 -180.4362)" fill="none" width="9.323" height="10.499"/>
							</g>
							
								<rect x="345.817" y="221.956" transform="matrix(-0.7071 0.7071 -0.7071 -0.7071 748.8011 135.4785)" fill-rule="evenodd" clip-rule="evenodd" width="1.05" height="1.73"/>
							
								<rect x="348.012" y="224.151" transform="matrix(-0.7069 0.7073 -0.7073 -0.7069 754.0707 137.5402)" fill-rule="evenodd" clip-rule="evenodd" width="1.05" height="1.73"/>
							
								<rect x="350.199" y="226.338" transform="matrix(-0.7069 0.7073 -0.7073 -0.7069 759.3518 139.7267)" fill-rule="evenodd" clip-rule="evenodd" width="1.05" height="1.73"/>
						</g>
					</g>
					<g>
						<g>
							<g>
								
									<rect x="337.177" y="213.285" transform="matrix(0.7071 0.7071 -0.7071 0.7071 254.6496 -177.7087)" fill="none" width="9.323" height="10.499"/>
							</g>
							
								<rect x="339.225" y="215.364" transform="matrix(-0.7073 0.7069 -0.7069 -0.7073 732.9148 129.0159)" fill-rule="evenodd" clip-rule="evenodd" width="1.05" height="1.73"/>
							
								<rect x="341.419" y="217.558" transform="matrix(-0.7069 0.7073 -0.7073 -0.7069 738.1555 130.951)" fill-rule="evenodd" clip-rule="evenodd" width="1.05" height="1.73"/>
							
								<rect x="343.607" y="219.746" transform="matrix(-0.7069 0.7073 -0.7073 -0.7069 743.4366 133.1374)" fill-rule="evenodd" clip-rule="evenodd" width="1.05" height="1.73"/>
						</g>
					</g>
					<g>
						<g>
							<g>
								
									<rect x="330.585" y="206.693" transform="matrix(0.7071 0.7071 -0.7071 0.7071 248.0716 -174.9813)" fill="none" width="9.323" height="10.499"/>
							</g>
							
								<rect x="332.632" y="208.772" transform="matrix(-0.7071 0.7071 -0.7071 -0.7071 716.9711 122.2948)" fill-rule="evenodd" clip-rule="evenodd" width="1.05" height="1.73"/>
							
								<rect x="334.827" y="210.966" transform="matrix(-0.7071 0.7071 -0.7071 -0.7071 722.2693 124.4894)" fill-rule="evenodd" clip-rule="evenodd" width="1.05" height="1.73"/>
							
								<rect x="337.015" y="213.154" transform="matrix(-0.7071 0.7071 -0.7071 -0.7071 727.5504 126.6769)" fill-rule="evenodd" clip-rule="evenodd" width="1.05" height="1.73"/>
						</g>
					</g>
					<g>
						<g>
							<g>
								
									<rect x="323.993" y="200.101" transform="matrix(0.7071 0.7071 -0.7071 0.7071 241.4513 -172.2443)" fill="none" width="9.323" height="10.499"/>
							</g>
							
								<rect x="326.04" y="202.179" transform="matrix(-0.7071 0.7071 -0.7071 -0.7071 701.0559 115.7025)" fill-rule="evenodd" clip-rule="evenodd" width="1.05" height="1.73"/>
							
								<rect x="328.235" y="204.374" transform="matrix(-0.7071 0.7071 -0.7071 -0.7071 706.3541 117.8971)" fill-rule="evenodd" clip-rule="evenodd" width="1.05" height="1.73"/>
							
								<rect x="330.422" y="206.562" transform="matrix(-0.7069 0.7073 -0.7073 -0.7069 711.6064 119.9594)" fill-rule="evenodd" clip-rule="evenodd" width="1.05" height="1.73"/>
						</g>
					</g>
					<g>
						<g>
							<g>
								
									<rect x="317.4" y="193.509" transform="matrix(0.7071 0.7071 -0.7071 0.7071 234.8732 -169.517)" fill="none" width="9.323" height="10.499"/>
							</g>
							
								<rect x="319.448" y="195.587" transform="matrix(-0.7073 0.7069 -0.7069 -0.7073 685.1696 109.2307)" fill-rule="evenodd" clip-rule="evenodd" width="1.05" height="1.73"/>
							
								<rect x="321.643" y="197.782" transform="matrix(-0.7071 0.7071 -0.7071 -0.7071 690.4389 111.3048)" fill-rule="evenodd" clip-rule="evenodd" width="1.05" height="1.73"/>
							
								<rect x="323.83" y="199.969" transform="matrix(-0.7071 0.7071 -0.7071 -0.7071 695.72 113.4923)" fill-rule="evenodd" clip-rule="evenodd" width="1.05" height="1.73"/>
						</g>
					</g>
					<g>
						<g>
							<g>
								
									<rect x="310.808" y="186.917" transform="matrix(0.7071 0.7071 -0.7071 0.7071 228.2809 -166.7864)" fill="none" width="9.323" height="10.499"/>
							</g>
							
								<rect x="312.855" y="188.995" transform="matrix(-0.7071 0.7071 -0.7071 -0.7071 669.2257 102.5183)" fill-rule="evenodd" clip-rule="evenodd" width="1.05" height="1.73"/>
							
								<rect x="315.05" y="191.19" transform="matrix(-0.7071 0.7071 -0.7071 -0.7071 674.5243 104.7128)" fill-rule="evenodd" clip-rule="evenodd" width="1.05" height="1.73"/>
							
								<rect x="317.238" y="193.377" transform="matrix(-0.7069 0.7073 -0.7073 -0.7069 679.7762 106.7814)" fill-rule="evenodd" clip-rule="evenodd" width="1.05" height="1.73"/>
						</g>
					</g>
					<g>
						<g>
							<g>
								
									<rect x="304.216" y="180.325" transform="matrix(0.7071 0.7071 -0.7071 0.7071 221.6886 -164.0558)" fill="none" width="9.323" height="10.499"/>
							</g>
							
								<rect x="306.263" y="182.403" transform="matrix(-0.7073 0.7069 -0.7069 -0.7073 653.3392 96.04)" fill-rule="evenodd" clip-rule="evenodd" width="1.05" height="1.73"/>
							
								<rect x="308.458" y="184.597" transform="matrix(-0.7071 0.7071 -0.7071 -0.7071 658.6091 98.1205)" fill-rule="evenodd" clip-rule="evenodd" width="1.05" height="1.73"/>
							
								<rect x="310.645" y="186.785" transform="matrix(-0.7069 0.7073 -0.7073 -0.7069 663.8611 100.1922)" fill-rule="evenodd" clip-rule="evenodd" width="1.05" height="1.73"/>
						</g>
					</g>
					<g>
						<g>
							<g>
								
									<rect x="297.623" y="173.732" transform="matrix(0.7071 0.7071 -0.7071 0.7071 215.0964 -161.3252)" fill="none" width="9.323" height="10.499"/>
							</g>
							
								<rect x="299.671" y="175.811" transform="matrix(-0.7071 0.7071 -0.7071 -0.7071 637.3955 89.3342)" fill-rule="evenodd" clip-rule="evenodd" width="1.05" height="1.73"/>
							
								<rect x="301.866" y="178.005" transform="matrix(-0.7073 0.7069 -0.7069 -0.7073 642.7228 91.6405)" fill-rule="evenodd" clip-rule="evenodd" width="1.05" height="1.73"/>
							
								<rect x="304.053" y="180.193" transform="matrix(-0.7073 0.7069 -0.7069 -0.7073 648.0039 93.829)" fill-rule="evenodd" clip-rule="evenodd" width="1.05" height="1.73"/>
						</g>
					</g>
					<g>
						<g>
							<g>
								
									<rect x="291.031" y="167.14" transform="matrix(0.7071 0.7071 -0.7071 0.7071 208.492 -158.5913)" fill="none" width="9.323" height="10.499"/>
							</g>
							
								<rect x="293.079" y="169.219" transform="matrix(-0.7069 0.7073 -0.7073 -0.7069 621.452 82.6339)" fill-rule="evenodd" clip-rule="evenodd" width="1.05" height="1.73"/>
							
								<rect x="295.274" y="171.413" transform="matrix(-0.7073 0.7069 -0.7069 -0.7073 626.8076 85.0451)" fill-rule="evenodd" clip-rule="evenodd" width="1.05" height="1.73"/>
							
								<rect x="297.461" y="173.601" transform="matrix(-0.7073 0.7069 -0.7069 -0.7073 632.0887 87.2337)" fill-rule="evenodd" clip-rule="evenodd" width="1.05" height="1.73"/>
						</g>
					</g>
					<g>
						<g>
							<g>
								
									<rect x="284.439" y="160.548" transform="matrix(0.7071 0.7071 -0.7071 0.7071 201.9121 -155.8638)" fill="none" width="9.323" height="10.499"/>
							</g>
							
								<rect x="286.487" y="162.626" transform="matrix(-0.7071 0.7071 -0.7071 -0.7071 605.5657 76.1499)" fill-rule="evenodd" clip-rule="evenodd" width="1.05" height="1.73"/>
							
								<rect x="288.681" y="164.821" transform="matrix(-0.7073 0.7069 -0.7069 -0.7073 610.8925 78.4498)" fill-rule="evenodd" clip-rule="evenodd" width="1.05" height="1.73"/>
							
								<rect x="290.869" y="167.008" transform="matrix(-0.7073 0.7069 -0.7069 -0.7073 616.1735 80.6383)" fill-rule="evenodd" clip-rule="evenodd" width="1.05" height="1.73"/>
						</g>
					</g>
					<g>
						<g>
							<g>
								
									<rect x="277.847" y="153.956" transform="matrix(0.7071 0.7071 -0.7071 0.7071 195.3199 -153.1332)" fill="none" width="9.323" height="10.499"/>
							</g>
							
								<rect x="279.895" y="156.034" transform="matrix(-0.7071 0.7071 -0.7071 -0.7071 589.6506 69.5576)" fill-rule="evenodd" clip-rule="evenodd" width="1.05" height="1.73"/>
							
								<rect x="282.089" y="158.229" transform="matrix(-0.7071 0.7071 -0.7071 -0.7071 594.9487 71.7521)" fill-rule="evenodd" clip-rule="evenodd" width="1.05" height="1.73"/>
							
								<rect x="284.276" y="160.416" transform="matrix(-0.7071 0.7071 -0.7071 -0.7071 600.2299 73.9397)" fill-rule="evenodd" clip-rule="evenodd" width="1.05" height="1.73"/>
						</g>
					</g>
				</g>
			</g>
		</g>
		<g>
			<g>
				<g>
					<g>
						<g>
							<g>
								
									<rect x="278.073" y="430.499" transform="matrix(-0.7071 0.7071 -0.7071 -0.7071 790.9523 543.8739)" fill="none" width="9.527" height="10.499"/>
							</g>
							
								<rect x="284.665" y="432.728" transform="matrix(-0.7071 -0.7071 0.7071 -0.7071 180.2406 941.8818)" fill-rule="evenodd" clip-rule="evenodd" width="1.05" height="1.768"/>
							
								<rect x="282.423" y="434.97" transform="matrix(-0.7069 -0.7073 0.7073 -0.7069 174.6589 944.0887)" fill-rule="evenodd" clip-rule="evenodd" width="1.05" height="1.768"/>
							
								<rect x="280.187" y="437.206" transform="matrix(-0.7071 -0.7071 0.7071 -0.7071 169.4292 946.36)" fill-rule="evenodd" clip-rule="evenodd" width="1.05" height="1.768"/>
						</g>
					</g>
					<g>
						<g>
							<g>
								
									<rect x="284.809" y="423.762" transform="matrix(-0.7071 0.7071 -0.7071 -0.7071 797.686 527.628)" fill="none" width="9.528" height="10.499"/>
							</g>
							
								<rect x="291.402" y="425.991" transform="matrix(-0.7073 -0.7069 0.7069 -0.7073 196.6719 935.1763)" fill-rule="evenodd" clip-rule="evenodd" width="1.05" height="1.768"/>
							
								<rect x="289.159" y="428.233" transform="matrix(-0.7071 -0.7071 0.7071 -0.7071 191.0905 937.3876)" fill-rule="evenodd" clip-rule="evenodd" width="1.05" height="1.768"/>
							
								<rect x="286.924" y="430.469" transform="matrix(-0.7073 -0.7069 0.7069 -0.7073 185.8604 939.6566)" fill-rule="evenodd" clip-rule="evenodd" width="1.05" height="1.768"/>
						</g>
					</g>
					<g>
						<g>
							<g>
								
									<rect x="291.546" y="417.025" transform="matrix(-0.7071 0.7071 -0.7071 -0.7071 804.43 511.3269)" fill="none" width="9.528" height="10.499"/>
							</g>
							
								<rect x="298.139" y="419.253" transform="matrix(-0.7069 -0.7073 0.7073 -0.7069 212.6025 928.3792)" fill-rule="evenodd" clip-rule="evenodd" width="1.05" height="1.768"/>
							
								<rect x="295.897" y="421.497" transform="matrix(-0.7071 -0.7071 0.7071 -0.7071 207.355 930.651)" fill-rule="evenodd" clip-rule="evenodd" width="1.05" height="1.768"/>
							
								<rect x="293.661" y="423.732" transform="matrix(-0.7071 -0.7071 0.7071 -0.7071 201.958 932.8861)" fill-rule="evenodd" clip-rule="evenodd" width="1.05" height="1.768"/>
						</g>
					</g>
					<g>
						<g>
							<g>
								
									<rect x="298.283" y="410.288" transform="matrix(-0.7071 0.7071 -0.7071 -0.7071 811.1632 495.0804)" fill="none" width="9.527" height="10.499"/>
							</g>
							
								<rect x="304.876" y="412.517" transform="matrix(-0.7071 -0.7071 0.7071 -0.7071 229.0342 921.6708)" fill-rule="evenodd" clip-rule="evenodd" width="1.05" height="1.768"/>
							
								<rect x="302.633" y="414.759" transform="matrix(-0.7069 -0.7073 0.7073 -0.7069 223.4524 923.8871)" fill-rule="evenodd" clip-rule="evenodd" width="1.05" height="1.768"/>
							
								<rect x="300.398" y="416.995" transform="matrix(-0.7071 -0.7071 0.7071 -0.7071 218.2227 926.149)" fill-rule="evenodd" clip-rule="evenodd" width="1.05" height="1.768"/>
						</g>
					</g>
					<g>
						<g>
							<g>
								
									<rect x="305.02" y="403.551" transform="matrix(-0.7071 0.7071 -0.7071 -0.7071 817.8979 478.8345)" fill="none" width="9.528" height="10.499"/>
							</g>
							
								<rect x="311.613" y="405.78" transform="matrix(-0.7073 -0.7069 0.7069 -0.7073 245.4654 914.9559)" fill-rule="evenodd" clip-rule="evenodd" width="1.05" height="1.768"/>
							
								<rect x="309.37" y="408.023" transform="matrix(-0.7071 -0.7071 0.7071 -0.7071 239.884 917.1766)" fill-rule="evenodd" clip-rule="evenodd" width="1.05" height="1.768"/>
							
								<rect x="307.135" y="410.258" transform="matrix(-0.7073 -0.7069 0.7069 -0.7073 234.6539 919.4363)" fill-rule="evenodd" clip-rule="evenodd" width="1.05" height="1.768"/>
						</g>
					</g>
					<g>
						<g>
							<g>
								
									<rect x="311.757" y="396.815" transform="matrix(-0.7071 0.7071 -0.7071 -0.7071 824.6399 462.5334)" fill="none" width="9.528" height="10.499"/>
							</g>
							
								<rect x="318.35" y="399.043" transform="matrix(-0.7069 -0.7073 0.7073 -0.7069 261.3961 908.1777)" fill-rule="evenodd" clip-rule="evenodd" width="1.05" height="1.768"/>
							
								<rect x="316.108" y="401.286" transform="matrix(-0.7071 -0.7071 0.7071 -0.7071 256.1485 910.4401)" fill-rule="evenodd" clip-rule="evenodd" width="1.05" height="1.768"/>
							
								<rect x="313.872" y="403.521" transform="matrix(-0.7071 -0.7071 0.7071 -0.7071 250.7515 912.6752)" fill-rule="evenodd" clip-rule="evenodd" width="1.05" height="1.768"/>
						</g>
					</g>
					<g>
						<g>
							<g>
								
									<rect x="318.494" y="390.077" transform="matrix(-0.7071 0.7071 -0.7071 -0.7071 831.3741 446.2869)" fill="none" width="9.527" height="10.499"/>
							</g>
							
								<rect x="325.087" y="392.306" transform="matrix(-0.7071 -0.7071 0.7071 -0.7071 277.8277 901.4599)" fill-rule="evenodd" clip-rule="evenodd" width="1.05" height="1.768"/>
							
								<rect x="322.844" y="394.548" transform="matrix(-0.7069 -0.7073 0.7073 -0.7069 272.2458 903.6856)" fill-rule="evenodd" clip-rule="evenodd" width="1.05" height="1.768"/>
							
								<rect x="320.609" y="396.784" transform="matrix(-0.7071 -0.7071 0.7071 -0.7071 267.0162 905.9381)" fill-rule="evenodd" clip-rule="evenodd" width="1.05" height="1.768"/>
						</g>
					</g>
					<g>
						<g>
							<g>
								
									<rect x="325.231" y="383.34" transform="matrix(-0.7071 0.7071 -0.7071 -0.7071 838.1099 430.041)" fill="none" width="9.528" height="10.499"/>
							</g>
							
								<rect x="331.824" y="385.569" transform="matrix(-0.7073 -0.7069 0.7069 -0.7073 294.2589 894.7356)" fill-rule="evenodd" clip-rule="evenodd" width="1.05" height="1.768"/>
							
								<rect x="329.581" y="387.812" transform="matrix(-0.7071 -0.7071 0.7071 -0.7071 288.6775 896.9657)" fill-rule="evenodd" clip-rule="evenodd" width="1.05" height="1.768"/>
							
								<rect x="327.346" y="390.047" transform="matrix(-0.7073 -0.7069 0.7069 -0.7073 283.4474 899.2159)" fill-rule="evenodd" clip-rule="evenodd" width="1.05" height="1.768"/>
						</g>
					</g>
					<g>
						<g>
							<g>
								
									<rect x="331.968" y="376.604" transform="matrix(-0.7071 0.7071 -0.7071 -0.7071 844.8498 413.7399)" fill="none" width="9.528" height="10.499"/>
							</g>
							
								<rect x="338.561" y="378.832" transform="matrix(-0.7069 -0.7073 0.7073 -0.7069 310.1896 887.9761)" fill-rule="evenodd" clip-rule="evenodd" width="1.05" height="1.768"/>
							
								<rect x="336.319" y="381.075" transform="matrix(-0.7071 -0.7071 0.7071 -0.7071 304.942 890.2291)" fill-rule="evenodd" clip-rule="evenodd" width="1.05" height="1.768"/>
							
								<rect x="334.083" y="383.31" transform="matrix(-0.7071 -0.7071 0.7071 -0.7071 299.545 892.4642)" fill-rule="evenodd" clip-rule="evenodd" width="1.05" height="1.768"/>
						</g>
					</g>
					<g>
						<g>
							<g>
								
									<rect x="338.705" y="369.866" transform="matrix(-0.7071 0.7071 -0.7071 -0.7071 851.5851 397.4933)" fill="none" width="9.527" height="10.499"/>
							</g>
							
								<rect x="345.298" y="372.095" transform="matrix(-0.7071 -0.7071 0.7071 -0.7071 326.6212 881.249)" fill-rule="evenodd" clip-rule="evenodd" width="1.05" height="1.768"/>
							
								<rect x="343.055" y="374.337" transform="matrix(-0.7069 -0.7073 0.7073 -0.7069 321.0394 883.4841)" fill-rule="evenodd" clip-rule="evenodd" width="1.05" height="1.768"/>
							
								<rect x="340.82" y="376.573" transform="matrix(-0.7071 -0.7071 0.7071 -0.7071 315.8097 885.7272)" fill-rule="evenodd" clip-rule="evenodd" width="1.05" height="1.768"/>
						</g>
					</g>
					<g>
						<g>
							<g>
								
									<rect x="345.442" y="363.129" transform="matrix(-0.7071 0.7071 -0.7071 -0.7071 858.3219 381.2474)" fill="none" width="9.528" height="10.499"/>
							</g>
							
								<rect x="352.035" y="365.358" transform="matrix(-0.7073 -0.7069 0.7069 -0.7073 343.0524 874.5153)" fill-rule="evenodd" clip-rule="evenodd" width="1.05" height="1.768"/>
							
								<rect x="349.792" y="367.601" transform="matrix(-0.7071 -0.7071 0.7071 -0.7071 337.471 876.7548)" fill-rule="evenodd" clip-rule="evenodd" width="1.05" height="1.768"/>
							
								<rect x="347.557" y="369.836" transform="matrix(-0.7073 -0.7069 0.7069 -0.7073 332.241 878.9956)" fill-rule="evenodd" clip-rule="evenodd" width="1.05" height="1.768"/>
						</g>
					</g>
					<g>
						<g>
							<g>
								
									<rect x="352.179" y="356.393" transform="matrix(-0.7071 0.7071 -0.7071 -0.7071 865.0597 364.9464)" fill="none" width="9.528" height="10.499"/>
							</g>
							
								<rect x="358.772" y="358.621" transform="matrix(-0.7069 -0.7073 0.7073 -0.7069 358.9831 867.7745)" fill-rule="evenodd" clip-rule="evenodd" width="1.05" height="1.768"/>
							
								<rect x="356.53" y="360.864" transform="matrix(-0.7071 -0.7071 0.7071 -0.7071 353.7356 870.0182)" fill-rule="evenodd" clip-rule="evenodd" width="1.05" height="1.768"/>
							
								<rect x="354.294" y="363.099" transform="matrix(-0.7071 -0.7071 0.7071 -0.7071 348.3385 872.2533)" fill-rule="evenodd" clip-rule="evenodd" width="1.05" height="1.768"/>
						</g>
					</g>
					<g>
						<g>
							<g>
								
									<rect x="358.916" y="349.655" transform="matrix(-0.7071 0.7071 -0.7071 -0.7071 871.7961 348.6998)" fill="none" width="9.527" height="10.499"/>
							</g>
							
								<rect x="365.509" y="351.884" transform="matrix(-0.7071 -0.7071 0.7071 -0.7071 375.4147 861.038)" fill-rule="evenodd" clip-rule="evenodd" width="1.05" height="1.768"/>
							
								<rect x="363.266" y="354.127" transform="matrix(-0.7069 -0.7073 0.7073 -0.7069 369.8329 863.2825)" fill-rule="evenodd" clip-rule="evenodd" width="1.05" height="1.768"/>
							
								<rect x="361.031" y="356.362" transform="matrix(-0.7071 -0.7071 0.7071 -0.7071 364.6032 865.5162)" fill-rule="evenodd" clip-rule="evenodd" width="1.05" height="1.768"/>
						</g>
					</g>
					<g>
						<g>
							<g>
								
									<rect x="365.653" y="342.918" transform="matrix(-0.7071 0.7071 -0.7071 -0.7071 878.5339 332.454)" fill="none" width="9.528" height="10.499"/>
							</g>
							
								<rect x="372.246" y="345.147" transform="matrix(-0.7073 -0.7069 0.7069 -0.7073 391.8459 854.2949)" fill-rule="evenodd" clip-rule="evenodd" width="1.05" height="1.768"/>
							
								<rect x="370.003" y="347.39" transform="matrix(-0.7071 -0.7071 0.7071 -0.7071 386.2646 856.5438)" fill-rule="evenodd" clip-rule="evenodd" width="1.05" height="1.768"/>
							
								<rect x="367.768" y="349.625" transform="matrix(-0.7073 -0.7069 0.7069 -0.7073 381.0345 858.7753)" fill-rule="evenodd" clip-rule="evenodd" width="1.05" height="1.768"/>
						</g>
					</g>
					<g>
						<g>
							<g>
								
									<rect x="372.39" y="336.182" transform="matrix(-0.7071 0.7071 -0.7071 -0.7071 885.2696 316.1528)" fill="none" width="9.528" height="10.499"/>
							</g>
							
								<rect x="378.983" y="338.41" transform="matrix(-0.7069 -0.7073 0.7073 -0.7069 407.7766 847.5731)" fill-rule="evenodd" clip-rule="evenodd" width="1.05" height="1.768"/>
							
								<rect x="376.741" y="340.653" transform="matrix(-0.7071 -0.7071 0.7071 -0.7071 402.5291 849.8073)" fill-rule="evenodd" clip-rule="evenodd" width="1.05" height="1.768"/>
							
								<rect x="374.505" y="342.888" transform="matrix(-0.7071 -0.7071 0.7071 -0.7071 397.132 852.0424)" fill-rule="evenodd" clip-rule="evenodd" width="1.05" height="1.768"/>
						</g>
					</g>
					<g>
						<g>
							<g>
								
									<rect x="379.127" y="329.444" transform="matrix(-0.7071 0.7071 -0.7071 -0.7071 892.007 299.9063)" fill="none" width="9.527" height="10.499"/>
							</g>
							
								<rect x="385.72" y="331.673" transform="matrix(-0.7071 -0.7071 0.7071 -0.7071 424.2083 840.8271)" fill-rule="evenodd" clip-rule="evenodd" width="1.05" height="1.768"/>
							
								<rect x="383.477" y="333.916" transform="matrix(-0.7069 -0.7073 0.7073 -0.7069 418.6264 843.081)" fill-rule="evenodd" clip-rule="evenodd" width="1.05" height="1.768"/>
							
								<rect x="381.242" y="336.151" transform="matrix(-0.7071 -0.7071 0.7071 -0.7071 413.3968 845.3053)" fill-rule="evenodd" clip-rule="evenodd" width="1.05" height="1.768"/>
						</g>
					</g>
					<g>
						<g>
							<g>
								
									<rect x="385.864" y="322.707" transform="matrix(-0.7071 0.7071 -0.7071 -0.7071 898.7458 283.6605)" fill="none" width="9.528" height="10.499"/>
							</g>
							
								<rect x="392.457" y="324.936" transform="matrix(-0.7073 -0.7069 0.7069 -0.7073 440.6395 834.0746)" fill-rule="evenodd" clip-rule="evenodd" width="1.05" height="1.768"/>
							
								<rect x="390.214" y="327.179" transform="matrix(-0.7071 -0.7071 0.7071 -0.7071 435.0581 836.3329)" fill-rule="evenodd" clip-rule="evenodd" width="1.05" height="1.768"/>
							
								<rect x="387.979" y="329.415" transform="matrix(-0.7073 -0.7069 0.7069 -0.7073 429.828 838.5549)" fill-rule="evenodd" clip-rule="evenodd" width="1.05" height="1.768"/>
						</g>
					</g>
					<g>
						<g>
							<g>
								
									<rect x="392.601" y="315.971" transform="matrix(-0.7071 0.7071 -0.7071 -0.7071 905.4795 267.3593)" fill="none" width="9.528" height="10.499"/>
							</g>
							
								<rect x="399.194" y="318.199" transform="matrix(-0.7069 -0.7073 0.7073 -0.7069 456.5701 827.3715)" fill-rule="evenodd" clip-rule="evenodd" width="1.05" height="1.768"/>
							
								<rect x="396.952" y="320.442" transform="matrix(-0.7071 -0.7071 0.7071 -0.7071 451.3226 829.5963)" fill-rule="evenodd" clip-rule="evenodd" width="1.05" height="1.768"/>
							
								<rect x="394.716" y="322.677" transform="matrix(-0.7071 -0.7071 0.7071 -0.7071 445.9256 831.8314)" fill-rule="evenodd" clip-rule="evenodd" width="1.05" height="1.768"/>
						</g>
					</g>
					<g>
						<g>
							<g>
								
									<rect x="399.338" y="309.233" transform="matrix(-0.7071 0.7071 -0.7071 -0.7071 912.218 251.1128)" fill="none" width="9.527" height="10.499"/>
							</g>
							
								<rect x="405.931" y="311.462" transform="matrix(-0.7071 -0.7071 0.7071 -0.7071 473.0018 820.6161)" fill-rule="evenodd" clip-rule="evenodd" width="1.05" height="1.768"/>
							
								<rect x="403.688" y="313.705" transform="matrix(-0.7069 -0.7073 0.7073 -0.7069 467.4199 822.8795)" fill-rule="evenodd" clip-rule="evenodd" width="1.05" height="1.768"/>
							
								<rect x="401.453" y="315.94" transform="matrix(-0.7071 -0.7071 0.7071 -0.7071 462.1903 825.0944)" fill-rule="evenodd" clip-rule="evenodd" width="1.05" height="1.768"/>
						</g>
					</g>
					<g>
						<g>
							<g>
								
									<rect x="406.075" y="302.496" transform="matrix(-0.7071 0.7071 -0.7071 -0.7071 918.9578 234.8669)" fill="none" width="9.528" height="10.499"/>
							</g>
							
								<rect x="412.668" y="304.725" transform="matrix(-0.7073 -0.7069 0.7069 -0.7073 489.433 813.8542)" fill-rule="evenodd" clip-rule="evenodd" width="1.05" height="1.768"/>
							
								<rect x="410.425" y="306.968" transform="matrix(-0.7071 -0.7071 0.7071 -0.7071 483.8516 816.1219)" fill-rule="evenodd" clip-rule="evenodd" width="1.05" height="1.768"/>
							
								<rect x="408.19" y="309.204" transform="matrix(-0.7073 -0.7069 0.7069 -0.7073 478.6215 818.3346)" fill-rule="evenodd" clip-rule="evenodd" width="1.05" height="1.768"/>
						</g>
					</g>
					<g>
						<g>
							<g>
								
									<rect x="412.812" y="295.76" transform="matrix(-0.7071 0.7071 -0.7071 -0.7071 925.6894 218.5658)" fill="none" width="9.528" height="10.499"/>
							</g>
							
								<rect x="419.405" y="297.988" transform="matrix(-0.7069 -0.7073 0.7073 -0.7069 505.3636 807.17)" fill-rule="evenodd" clip-rule="evenodd" width="1.05" height="1.768"/>
							
								<rect x="417.162" y="300.231" transform="matrix(-0.7071 -0.7071 0.7071 -0.7071 500.1161 809.3854)" fill-rule="evenodd" clip-rule="evenodd" width="1.05" height="1.768"/>
							
								<rect x="414.927" y="302.466" transform="matrix(-0.7071 -0.7071 0.7071 -0.7071 494.7191 811.6205)" fill-rule="evenodd" clip-rule="evenodd" width="1.05" height="1.768"/>
						</g>
					</g>
				</g>
			</g>
		</g>
	</g>
</g>
<g id="Layer_9">
</g>
<g id="Layer_10">
</g>
<g id="Layer_11">
</g>
<g id="Layer_12">
</g>
<g id="Layer_13">
</g>
<g id="Layer_14">
</g>
<g id="Layer_15">
</g>
<g id="Layer_16">
</g>
<g id="Layer_17">
</g>
<g id="Layer_18">
</g>
<g id="Layer_19">
</g>
<g id="Layer_20">
</g>
<g id="Layer_21">
</g>
<g id="Layer_22">
</g>
<g id="Layer_24">
</g>
<g id="Layer_25">
</g>
<g id="Layer_26">
</g>
<g id="Layer_27">
</g>
<g id="Layer_28">
</g>
<g id="Layer_29">
</g>
<g id="Layer_30">
</g>
<g id="Layer_31">
</g>
<g id="Layer_32">
</g>
<g id="Layer_33">
</g>
<g id="Layer_34">
</g>
<g id="Layer_35">
</g>
<g id="Layer_36">
</g>
<g id="Layer_37">
</g>
<g id="Layer_38">
</g>
<g id="Layer_39">
</g>
<g id="Layer_40">
</g>
<g id="Layer_41">
</g>
<g id="Layer_43">
</g>
</svg>
