<?xml version="1.0" encoding="utf-8"?>
<!-- Generator: Adobe Illustrator 16.0.0, SVG Export Plug-In . SVG Version: 6.00 Build 0)  -->
<!DOCTYPE svg PUBLIC "-//W3C//DTD SVG 1.1//EN" "http://www.w3.org/Graphics/SVG/1.1/DTD/svg11.dtd">
<svg version="1.1" xmlns="http://www.w3.org/2000/svg" xmlns:xlink="http://www.w3.org/1999/xlink" x="0px" y="0px"
	 width="841.89px" height="595.28px" viewBox="0 0 841.89 595.28" enable-background="new 0 0 841.89 595.28" xml:space="preserve">
<g id="Layer_1">
</g>
<g id="Layer_2">
</g>
<g id="Layer_3">
</g>
<g id="Layer_4">
</g>
<g id="Layer_5">
</g>
<g id="Layer_6">
</g>
<g id="Layer_7">
</g>
<g id="Layer_8">
</g>
<g id="Layer_9">
</g>
<g id="Layer_10">
</g>
<g id="Layer_11">
</g>
<g id="Layer_12">
</g>
<g id="Layer_13">
</g>
<g id="Layer_14">
</g>
<g id="Layer_15">
</g>
<g id="Layer_16">
</g>
<g id="Layer_17">
</g>
<g id="Layer_18">
</g>
<g id="Layer_19">
</g>
<g id="Layer_20">
</g>
<g id="Layer_21">
</g>
<g id="Layer_22">
</g>
<g id="Layer_24">
</g>
<g id="Layer_25">
</g>
<g id="Layer_26">
</g>
<g id="Layer_27">
</g>
<g id="Layer_28">
	<g>
		<g>
			<g>
				<line fill="none" stroke="#000000" stroke-miterlimit="10" x1="419.296" y1="297.051" x2="335.929" y2="400.239"/>
				<line fill="none" stroke="#000000" stroke-miterlimit="10" x1="473.767" y1="363.958" x2="419.296" y2="297.051"/>
				<g>
					<g>
						<g>
							<g>
								<g>
									<g>
										
											<rect x="413.999" y="410.496" transform="matrix(-0.0039 1 -1 -0.0039 836.1223 -1.3683)" fill="none" width="9.488" height="10.499"/>
									</g>
									<rect x="418.384" y="411.702" fill-rule="evenodd" clip-rule="evenodd" width="1.05" height="1.762"/>
									<rect x="418.372" y="414.861" fill-rule="evenodd" clip-rule="evenodd" width="1.05" height="1.761"/>
									<rect x="418.359" y="418.01" fill-rule="evenodd" clip-rule="evenodd" width="1.05" height="1.761"/>
								</g>
							</g>
							<g>
								<g>
									<g>
										
											<rect x="414.036" y="401.007" transform="matrix(-0.0039 1 -1 -0.0039 826.6711 -10.9316)" fill="none" width="9.488" height="10.499"/>
									</g>
									<rect x="418.421" y="402.213" fill-rule="evenodd" clip-rule="evenodd" width="1.05" height="1.762"/>
									<rect x="418.409" y="405.373" fill-rule="evenodd" clip-rule="evenodd" width="1.05" height="1.761"/>
									<rect x="418.396" y="408.521" fill-rule="evenodd" clip-rule="evenodd" width="1.05" height="1.761"/>
								</g>
							</g>
							<g>
								<g>
									<g>
										
											<rect x="414.072" y="391.519" transform="matrix(-0.004 1 -1 -0.004 817.2415 -20.4738)" fill="none" width="9.489" height="10.499"/>
									</g>
									<rect x="418.458" y="392.726" fill-rule="evenodd" clip-rule="evenodd" width="1.05" height="1.761"/>
									<rect x="418.446" y="395.885" fill-rule="evenodd" clip-rule="evenodd" width="1.05" height="1.761"/>
									<rect x="418.434" y="399.033" fill-rule="evenodd" clip-rule="evenodd" width="1.05" height="1.761"/>
								</g>
							</g>
							<g>
								<g>
									<g>
										
											<rect x="414.11" y="382.03" transform="matrix(-0.0039 1 -1 -0.0039 807.769 -30.0573)" fill="none" width="9.488" height="10.499"/>
									</g>
									<rect x="418.496" y="383.237" fill-rule="evenodd" clip-rule="evenodd" width="1.05" height="1.761"/>
									<rect x="418.483" y="386.396" fill-rule="evenodd" clip-rule="evenodd" width="1.05" height="1.762"/>
									<rect x="418.471" y="389.544" fill-rule="evenodd" clip-rule="evenodd" width="1.05" height="1.762"/>
								</g>
							</g>
							<g>
								<g>
									<g>
										
											<rect x="414.148" y="372.542" transform="matrix(-0.0039 1 -1 -0.0039 798.3183 -39.6201)" fill="none" width="9.488" height="10.499"/>
									</g>
									<rect x="418.533" y="373.748" fill-rule="evenodd" clip-rule="evenodd" width="1.05" height="1.762"/>
									<rect x="418.521" y="376.907" fill-rule="evenodd" clip-rule="evenodd" width="1.05" height="1.762"/>
									<rect x="418.508" y="380.055" fill-rule="evenodd" clip-rule="evenodd" width="1.05" height="1.762"/>
								</g>
							</g>
							<g>
								<g>
									<g>
										
											<rect x="414.185" y="363.053" transform="matrix(-0.004 1 -1 -0.004 788.8888 -49.1635)" fill="none" width="9.488" height="10.499"/>
									</g>
									<rect x="418.57" y="364.259" fill-rule="evenodd" clip-rule="evenodd" width="1.05" height="1.762"/>
									<rect x="418.558" y="367.419" fill-rule="evenodd" clip-rule="evenodd" width="1.05" height="1.761"/>
									<rect x="418.545" y="370.567" fill-rule="evenodd" clip-rule="evenodd" width="1.05" height="1.761"/>
								</g>
							</g>
							<g>
								<g>
									<g>
										
											<rect x="414.222" y="353.564" transform="matrix(-0.0039 1 -1 -0.0039 779.4161 -58.7458)" fill="none" width="9.488" height="10.499"/>
									</g>
									<rect x="418.607" y="354.771" fill-rule="evenodd" clip-rule="evenodd" width="1.05" height="1.761"/>
									<rect x="418.595" y="357.931" fill-rule="evenodd" clip-rule="evenodd" width="1.05" height="1.761"/>
									<rect x="418.583" y="361.079" fill-rule="evenodd" clip-rule="evenodd" width="1.05" height="1.761"/>
								</g>
							</g>
							<g>
								<g>
									<g>
										
											<rect x="414.259" y="344.076" transform="matrix(-0.0039 1 -1 -0.0039 769.9653 -68.3087)" fill="none" width="9.489" height="10.499"/>
									</g>
									<rect x="418.645" y="345.283" fill-rule="evenodd" clip-rule="evenodd" width="1.05" height="1.761"/>
									<rect x="418.632" y="348.441" fill-rule="evenodd" clip-rule="evenodd" width="1.05" height="1.762"/>
									<rect x="418.62" y="351.59" fill-rule="evenodd" clip-rule="evenodd" width="1.05" height="1.762"/>
								</g>
							</g>
							<g>
								<g>
									<g>
										
											<rect x="414.297" y="334.587" transform="matrix(-0.004 1 -1 -0.004 760.5355 -77.8539)" fill="none" width="9.488" height="10.499"/>
									</g>
									<rect x="418.682" y="335.794" fill-rule="evenodd" clip-rule="evenodd" width="1.05" height="1.762"/>
									<rect x="418.67" y="338.953" fill-rule="evenodd" clip-rule="evenodd" width="1.05" height="1.762"/>
									<rect x="418.657" y="342.101" fill-rule="evenodd" clip-rule="evenodd" width="1.05" height="1.762"/>
								</g>
							</g>
							<g>
								<g>
									<g>
										
											<rect x="414.334" y="325.099" transform="matrix(-0.0039 1 -1 -0.0039 751.0632 -87.4343)" fill="none" width="9.488" height="10.499"/>
									</g>
									<rect x="418.719" y="326.306" fill-rule="evenodd" clip-rule="evenodd" width="1.05" height="1.762"/>
									<rect x="418.707" y="329.465" fill-rule="evenodd" clip-rule="evenodd" width="1.05" height="1.761"/>
									<rect x="418.695" y="332.613" fill-rule="evenodd" clip-rule="evenodd" width="1.05" height="1.761"/>
								</g>
							</g>
							<g>
								<g>
									<g>
										
											<rect x="414.371" y="315.611" transform="matrix(-0.0039 1 -1 -0.0039 741.6121 -96.9975)" fill="none" width="9.488" height="10.499"/>
									</g>
									<rect x="418.757" y="316.817" fill-rule="evenodd" clip-rule="evenodd" width="1.05" height="1.762"/>
									<rect x="418.744" y="319.977" fill-rule="evenodd" clip-rule="evenodd" width="1.05" height="1.761"/>
									<rect x="418.731" y="323.125" fill-rule="evenodd" clip-rule="evenodd" width="1.05" height="1.761"/>
								</g>
							</g>
							<g>
								<g>
									<g>
										
											<rect x="414.408" y="306.122" transform="matrix(-0.004 1 -1 -0.004 732.1824 -106.544)" fill="none" width="9.489" height="10.499"/>
									</g>
									<rect x="418.793" y="307.329" fill-rule="evenodd" clip-rule="evenodd" width="1.05" height="1.761"/>
									<rect x="418.781" y="310.487" fill-rule="evenodd" clip-rule="evenodd" width="1.05" height="1.762"/>
									<rect x="418.769" y="313.636" fill-rule="evenodd" clip-rule="evenodd" width="1.05" height="1.762"/>
								</g>
							</g>
							<g>
								<g>
									<g>
										
											<rect x="414.446" y="296.633" transform="matrix(-0.0039 1 -1 -0.0039 722.71 -116.1232)" fill="none" width="9.488" height="10.499"/>
									</g>
									<rect x="418.831" y="297.841" fill-rule="evenodd" clip-rule="evenodd" width="1.05" height="1.761"/>
									<rect x="418.818" y="300.999" fill-rule="evenodd" clip-rule="evenodd" width="1.05" height="1.762"/>
									<rect x="418.806" y="304.147" fill-rule="evenodd" clip-rule="evenodd" width="1.05" height="1.762"/>
								</g>
							</g>
						</g>
					</g>
				</g>
				<path fill="none" stroke="#000000" stroke-miterlimit="10" d="M419.193,296.967"/>
				<line fill="none" stroke="#000000" stroke-miterlimit="10" x1="418.724" y1="420.68" x2="473.673" y2="363.842"/>
			</g>
			<g>
				<g>
					<g>
						<g>
							<g>
								<g>
									
										<rect x="362.95" y="361.455" transform="matrix(-0.6914 -0.7225 0.7225 -0.6914 357.3279 886.0336)" fill="none" width="9.88" height="10.499"/>
								</g>
								
									<rect x="369.53" y="368.272" transform="matrix(0.7227 -0.6911 0.6911 0.7227 -152.5526 358.112)" fill-rule="evenodd" clip-rule="evenodd" width="1.05" height="1.834"/>
								
									<rect x="367.256" y="365.896" transform="matrix(0.7223 -0.6916 0.6916 0.7223 -151.5475 356.2303)" fill-rule="evenodd" clip-rule="evenodd" width="1.051" height="1.833"/>
								
									<rect x="364.99" y="363.527" transform="matrix(0.7225 -0.6913 0.6913 0.7225 -150.5356 353.8241)" fill-rule="evenodd" clip-rule="evenodd" width="1.05" height="1.834"/>
							</g>
						</g>
						<g>
							<g>
								<g>
									
										<rect x="369.781" y="368.592" transform="matrix(-0.6914 -0.7225 0.7225 -0.6914 363.7254 903.0416)" fill="none" width="9.88" height="10.499"/>
								</g>
								
									<rect x="376.362" y="375.41" transform="matrix(0.7227 -0.6911 0.6911 0.7227 -155.5917 364.812)" fill-rule="evenodd" clip-rule="evenodd" width="1.05" height="1.834"/>
								
									<rect x="374.088" y="373.034" transform="matrix(0.7227 -0.6911 0.6911 0.7227 -154.58 362.5818)" fill-rule="evenodd" clip-rule="evenodd" width="1.05" height="1.834"/>
								
									<rect x="371.821" y="370.665" transform="matrix(0.7221 -0.6918 0.6918 0.7221 -153.582 360.8807)" fill-rule="evenodd" clip-rule="evenodd" width="1.05" height="1.833"/>
							</g>
						</g>
						<g>
							<g>
								<g>
									
										<rect x="376.612" y="375.73" transform="matrix(-0.6914 -0.7225 0.7225 -0.6914 370.086 920.0487)" fill="none" width="9.88" height="10.499"/>
								</g>
								
									<rect x="383.192" y="382.548" transform="matrix(0.7223 -0.6916 0.6916 0.7223 -158.6389 371.8766)" fill-rule="evenodd" clip-rule="evenodd" width="1.051" height="1.834"/>
								
									<rect x="380.919" y="380.172" transform="matrix(0.7227 -0.6911 0.6911 0.7227 -157.619 369.2818)" fill-rule="evenodd" clip-rule="evenodd" width="1.05" height="1.834"/>
								
									<rect x="378.652" y="377.804" transform="matrix(0.7225 -0.6913 0.6913 0.7225 -156.6146 367.2308)" fill-rule="evenodd" clip-rule="evenodd" width="1.05" height="1.834"/>
							</g>
						</g>
						<g>
							<g>
								<g>
									
										<rect x="383.443" y="382.869" transform="matrix(-0.6914 -0.7225 0.7225 -0.6914 376.5197 937.0591)" fill="none" width="9.88" height="10.499"/>
								</g>
								
									<rect x="390.024" y="389.686" transform="matrix(0.7227 -0.6911 0.6911 0.7227 -161.6704 378.2124)" fill-rule="evenodd" clip-rule="evenodd" width="1.05" height="1.834"/>
								
									<rect x="387.749" y="387.31" transform="matrix(0.7223 -0.6916 0.6916 0.7223 -160.6665 376.3508)" fill-rule="evenodd" clip-rule="evenodd" width="1.051" height="1.834"/>
								
									<rect x="385.483" y="384.941" transform="matrix(0.7225 -0.6913 0.6913 0.7225 -159.6537 373.934)" fill-rule="evenodd" clip-rule="evenodd" width="1.05" height="1.834"/>
							</g>
						</g>
						<g>
							<g>
								<g>
									
										<rect x="390.274" y="390.007" transform="matrix(-0.6914 -0.7225 0.7225 -0.6914 382.9172 954.0671)" fill="none" width="9.88" height="10.499"/>
								</g>
								
									<rect x="396.854" y="396.824" transform="matrix(0.7223 -0.6916 0.6916 0.7223 -164.7179 385.2901)" fill-rule="evenodd" clip-rule="evenodd" width="1.051" height="1.833"/>
								
									<rect x="394.581" y="394.448" transform="matrix(0.7227 -0.6911 0.6911 0.7227 -163.6978 382.6821)" fill-rule="evenodd" clip-rule="evenodd" width="1.05" height="1.834"/>
								
									<rect x="392.314" y="392.079" transform="matrix(0.7221 -0.6918 0.6918 0.7221 -162.7014 381.0106)" fill-rule="evenodd" clip-rule="evenodd" width="1.05" height="1.834"/>
							</g>
						</g>
						<g>
							<g>
								<g>
									
										<rect x="397.105" y="397.145" transform="matrix(-0.6914 -0.7225 0.7225 -0.6914 389.2755 971.075)" fill="none" width="9.88" height="10.499"/>
								</g>
								
									<rect x="403.686" y="403.963" transform="matrix(0.7227 -0.6911 0.6911 0.7227 -167.7491 391.6127)" fill-rule="evenodd" clip-rule="evenodd" width="1.05" height="1.834"/>
								
									<rect x="401.411" y="401.586" transform="matrix(0.7223 -0.6916 0.6916 0.7223 -166.7455 389.7643)" fill-rule="evenodd" clip-rule="evenodd" width="1.051" height="1.833"/>
								
									<rect x="399.145" y="399.218" transform="matrix(0.7225 -0.6913 0.6913 0.7225 -165.7328 387.3407)" fill-rule="evenodd" clip-rule="evenodd" width="1.05" height="1.834"/>
							</g>
						</g>
						<g>
							<g>
								<g>
									
										<rect x="403.936" y="404.283" transform="matrix(-0.6914 -0.7225 0.7225 -0.6914 395.7115 988.0847)" fill="none" width="9.88" height="10.499"/>
								</g>
								
									<rect x="410.517" y="411.1" transform="matrix(0.7227 -0.6911 0.6911 0.7227 -170.7881 398.3128)" fill-rule="evenodd" clip-rule="evenodd" width="1.05" height="1.834"/>
								
									<rect x="408.243" y="408.725" transform="matrix(0.7227 -0.6911 0.6911 0.7227 -169.7765 396.0825)" fill-rule="evenodd" clip-rule="evenodd" width="1.05" height="1.834"/>
								
									<rect x="405.976" y="406.356" transform="matrix(0.7221 -0.6918 0.6918 0.7221 -168.7806 394.4305)" fill-rule="evenodd" clip-rule="evenodd" width="1.05" height="1.833"/>
							</g>
						</g>
						<g>
							<g>
								<g>
									
										<rect x="410.767" y="411.42" transform="matrix(-0.6914 -0.7225 0.7225 -0.6914 402.0688 1005.0917)" fill="none" width="9.88" height="10.499"/>
								</g>
								
									<rect x="417.348" y="418.239" transform="matrix(0.7223 -0.6916 0.6916 0.7223 -173.8365 405.4103)" fill-rule="evenodd" clip-rule="evenodd" width="1.051" height="1.833"/>
								
									<rect x="415.074" y="415.862" transform="matrix(0.7227 -0.6911 0.6911 0.7227 -172.8156 402.7825)" fill-rule="evenodd" clip-rule="evenodd" width="1.05" height="1.834"/>
								
									<rect x="412.807" y="413.494" transform="matrix(0.7225 -0.6913 0.6913 0.7225 -171.8118 400.7474)" fill-rule="evenodd" clip-rule="evenodd" width="1.05" height="1.834"/>
							</g>
						</g>
					</g>
				</g>
			</g>
		</g>
		<line fill="none" stroke="#000000" stroke-miterlimit="10" x1="418.724" y1="420.489" x2="335.929" y2="400.239"/>
		<line fill="none" stroke="#000000" stroke-miterlimit="10" x1="419.193" y1="497.764" x2="335.929" y2="400.239"/>
		<line fill="none" stroke="#000000" stroke-miterlimit="10" x1="419.193" y1="497.764" x2="473.767" y2="363.958"/>
		<g>
			<g>
				<g>
					<g>
						<g>
							<g>
								
									<rect x="381.488" y="411.121" transform="matrix(-0.3766 -0.9264 0.9264 -0.3766 145.7808 930.8487)" fill="none" width="9.248" height="10.499"/>
							</g>
							
								<rect x="386.605" y="418.426" transform="matrix(0.9267 -0.3757 0.3757 0.9267 -129.1688 176.1699)" fill-rule="evenodd" clip-rule="evenodd" width="1.05" height="1.717"/>
							
								<rect x="385.446" y="415.574" transform="matrix(0.9263 -0.3767 0.3767 0.9263 -128.4315 176.0584)" fill-rule="evenodd" clip-rule="evenodd" width="1.05" height="1.716"/>
							
								<rect x="384.291" y="412.731" transform="matrix(0.9267 -0.3759 0.3759 0.9267 -127.2402 174.9725)" fill-rule="evenodd" clip-rule="evenodd" width="1.05" height="1.717"/>
						</g>
					</g>
					<g>
						<g>
							<g>
								
									<rect x="384.97" y="419.689" transform="matrix(-0.3765 -0.9264 0.9264 -0.3765 142.5911 945.847)" fill="none" width="9.249" height="10.499"/>
							</g>
							
								<rect x="390.087" y="426.994" transform="matrix(0.9263 -0.3767 0.3767 0.9263 -132.3912 178.6479)" fill-rule="evenodd" clip-rule="evenodd" width="1.05" height="1.716"/>
							
								<rect x="388.928" y="424.141" transform="matrix(0.9263 -0.3767 0.3767 0.9263 -131.4021 178.0012)" fill-rule="evenodd" clip-rule="evenodd" width="1.05" height="1.716"/>
							
								<rect x="387.772" y="421.299" transform="matrix(0.9264 -0.3765 0.3765 0.9264 -130.3735 177.2657)" fill-rule="evenodd" clip-rule="evenodd" width="1.05" height="1.716"/>
						</g>
					</g>
					<g>
						<g>
							<g>
								
									<rect x="388.452" y="428.257" transform="matrix(-0.3766 -0.9264 0.9264 -0.3766 139.4935 960.889)" fill="none" width="9.248" height="10.499"/>
							</g>
							
								<rect x="393.569" y="435.561" transform="matrix(0.9263 -0.3767 0.3767 0.9263 -135.3618 180.5906)" fill-rule="evenodd" clip-rule="evenodd" width="1.05" height="1.716"/>
							
								<rect x="392.41" y="432.709" transform="matrix(0.9264 -0.3765 0.3765 0.9264 -134.3285 179.8516)" fill-rule="evenodd" clip-rule="evenodd" width="1.05" height="1.717"/>
							
								<rect x="391.255" y="429.866" transform="matrix(0.9263 -0.3767 0.3767 0.9263 -133.3872 179.2992)" fill-rule="evenodd" clip-rule="evenodd" width="1.05" height="1.717"/>
						</g>
					</g>
					<g>
						<g>
							<g>
								
									<rect x="391.934" y="436.824" transform="matrix(-0.3766 -0.9264 0.9264 -0.3766 136.3501 975.9083)" fill="none" width="9.248" height="10.499"/>
							</g>
							
								<rect x="397.052" y="444.129" transform="matrix(0.9263 -0.3767 0.3767 0.9263 -138.3326 182.5333)" fill-rule="evenodd" clip-rule="evenodd" width="1.05" height="1.717"/>
							
								<rect x="395.892" y="441.277" transform="matrix(0.9263 -0.3767 0.3767 0.9263 -137.3438 181.8866)" fill-rule="evenodd" clip-rule="evenodd" width="1.05" height="1.716"/>
							
								<rect x="394.737" y="438.434" transform="matrix(0.9267 -0.3759 0.3759 0.9267 -136.1354 180.7839)" fill-rule="evenodd" clip-rule="evenodd" width="1.05" height="1.717"/>
						</g>
					</g>
					<g>
						<g>
							<g>
								
									<rect x="395.417" y="445.392" transform="matrix(-0.3765 -0.9264 0.9264 -0.3765 133.1806 990.9149)" fill="none" width="9.248" height="10.499"/>
							</g>
							
								<rect x="400.534" y="452.697" transform="matrix(0.9263 -0.3767 0.3767 0.9263 -141.3035 184.476)" fill-rule="evenodd" clip-rule="evenodd" width="1.05" height="1.716"/>
							
								<rect x="399.375" y="449.845" transform="matrix(0.9263 -0.3767 0.3767 0.9263 -140.3144 183.8293)" fill-rule="evenodd" clip-rule="evenodd" width="1.05" height="1.716"/>
							
								<rect x="398.219" y="447.002" transform="matrix(0.9263 -0.3767 0.3767 0.9263 -139.3287 183.1846)" fill-rule="evenodd" clip-rule="evenodd" width="1.05" height="1.716"/>
						</g>
					</g>
					<g>
						<g>
							<g>
								
									<rect x="398.898" y="453.96" transform="matrix(-0.3765 -0.9264 0.9264 -0.3765 130.0411 1005.9368)" fill="none" width="9.249" height="10.499"/>
							</g>
							
								<rect x="404.016" y="461.264" transform="matrix(0.9264 -0.3765 0.3765 0.9264 -144.2258 186.3227)" fill-rule="evenodd" clip-rule="evenodd" width="1.05" height="1.716"/>
							
								<rect x="402.857" y="458.412" transform="matrix(0.9263 -0.3767 0.3767 0.9263 -143.285 185.772)" fill-rule="evenodd" clip-rule="evenodd" width="1.05" height="1.716"/>
							
								<rect x="401.702" y="455.569" transform="matrix(0.9263 -0.3767 0.3767 0.9263 -142.2993 185.1274)" fill-rule="evenodd" clip-rule="evenodd" width="1.05" height="1.716"/>
						</g>
					</g>
					<g>
						<g>
							<g>
								
									<rect x="402.381" y="462.527" transform="matrix(-0.3765 -0.9264 0.9264 -0.3765 126.8923 1020.9542)" fill="none" width="9.248" height="10.499"/>
							</g>
							
								<rect x="407.498" y="469.832" transform="matrix(0.9263 -0.3767 0.3767 0.9263 -147.2448 188.3615)" fill-rule="evenodd" clip-rule="evenodd" width="1.05" height="1.716"/>
							
								<rect x="406.339" y="466.979" transform="matrix(0.9263 -0.3767 0.3767 0.9263 -146.2559 187.7148)" fill-rule="evenodd" clip-rule="evenodd" width="1.05" height="1.717"/>
							
								<rect x="405.184" y="464.137" transform="matrix(0.9264 -0.3765 0.3765 0.9264 -145.2215 186.9737)" fill-rule="evenodd" clip-rule="evenodd" width="1.05" height="1.717"/>
						</g>
					</g>
					<g>
						<g>
							<g>
								
									<rect x="405.863" y="471.095" transform="matrix(-0.3766 -0.9264 0.9264 -0.3766 123.7761 1035.9873)" fill="none" width="9.248" height="10.499"/>
							</g>
							
								<rect x="410.981" y="478.399" transform="matrix(0.9263 -0.3767 0.3767 0.9263 -150.2156 190.3042)" fill-rule="evenodd" clip-rule="evenodd" width="1.05" height="1.717"/>
							
								<rect x="409.821" y="475.548" transform="matrix(0.9264 -0.3765 0.3765 0.9264 -149.1765 189.5595)" fill-rule="evenodd" clip-rule="evenodd" width="1.05" height="1.716"/>
							
								<rect x="408.666" y="472.705" transform="matrix(0.9263 -0.3767 0.3767 0.9263 -148.241 189.0129)" fill-rule="evenodd" clip-rule="evenodd" width="1.05" height="1.716"/>
						</g>
					</g>
					<g>
						<g>
							<g>
								
									<rect x="409.345" y="479.663" transform="matrix(-0.3765 -0.9264 0.9264 -0.3765 120.6097 1050.9956)" fill="none" width="9.249" height="10.499"/>
							</g>
							
								<rect x="414.463" y="486.968" transform="matrix(0.9263 -0.3767 0.3767 0.9263 -153.1865 192.2469)" fill-rule="evenodd" clip-rule="evenodd" width="1.05" height="1.716"/>
							
								<rect x="413.304" y="484.115" transform="matrix(0.9263 -0.3767 0.3767 0.9263 -152.1974 191.6002)" fill-rule="evenodd" clip-rule="evenodd" width="1.05" height="1.716"/>
							
								<rect x="412.148" y="481.272" transform="matrix(0.9263 -0.3767 0.3767 0.9263 -151.2117 190.9556)" fill-rule="evenodd" clip-rule="evenodd" width="1.05" height="1.716"/>
						</g>
					</g>
					<g>
						<g>
							<g>
								
									<rect x="412.828" y="488.23" transform="matrix(-0.3765 -0.9264 0.9264 -0.3765 117.4607 1066.0128)" fill="none" width="9.248" height="10.499"/>
							</g>
							
								<rect x="417.945" y="495.535" transform="matrix(0.9263 -0.3767 0.3767 0.9263 -156.1571 194.1896)" fill-rule="evenodd" clip-rule="evenodd" width="1.05" height="1.716"/>
							
								<rect x="416.786" y="492.683" transform="matrix(0.9263 -0.3767 0.3767 0.9263 -155.1682 193.5429)" fill-rule="evenodd" clip-rule="evenodd" width="1.05" height="1.717"/>
							
								<rect x="415.63" y="489.84" transform="matrix(0.9263 -0.3767 0.3767 0.9263 -154.1823 192.8982)" fill-rule="evenodd" clip-rule="evenodd" width="1.05" height="1.716"/>
						</g>
					</g>
				</g>
			</g>
		</g>
		<line fill="none" stroke="#000000" stroke-miterlimit="10" x1="419.193" y1="497.764" x2="418.724" y2="420.489"/>
		<g>
			<g>
				<g>
					<g>
						<g>
							<g>
								<g>
									<rect x="414.047" y="296.841" fill="none" width="10.499" height="8.974"/>
								</g>
								<rect x="418.925" y="297.504" fill-rule="evenodd" clip-rule="evenodd" width="1.05" height="1.665"/>
								<rect x="418.925" y="300.491" fill-rule="evenodd" clip-rule="evenodd" width="1.05" height="1.666"/>
								<rect x="418.925" y="303.469" fill-rule="evenodd" clip-rule="evenodd" width="1.05" height="1.666"/>
							</g>
						</g>
						<g>
							<g>
								<g>
									<rect x="414.047" y="287.867" fill="none" width="10.499" height="8.974"/>
								</g>
								<rect x="418.925" y="288.53" fill-rule="evenodd" clip-rule="evenodd" width="1.05" height="1.666"/>
								<rect x="418.925" y="291.518" fill-rule="evenodd" clip-rule="evenodd" width="1.05" height="1.666"/>
								<rect x="418.925" y="294.495" fill-rule="evenodd" clip-rule="evenodd" width="1.05" height="1.666"/>
							</g>
						</g>
						<g>
							<g>
								<g>
									<rect x="414.047" y="278.894" fill="none" width="10.499" height="8.974"/>
								</g>
								<rect x="418.925" y="279.557" fill-rule="evenodd" clip-rule="evenodd" width="1.05" height="1.665"/>
								<rect x="418.925" y="282.544" fill-rule="evenodd" clip-rule="evenodd" width="1.05" height="1.666"/>
								<rect x="418.925" y="285.521" fill-rule="evenodd" clip-rule="evenodd" width="1.05" height="1.666"/>
							</g>
						</g>
						<g>
							<g>
								<g>
									<rect x="414.047" y="269.92" fill="none" width="10.499" height="8.974"/>
								</g>
								<rect x="418.925" y="270.583" fill-rule="evenodd" clip-rule="evenodd" width="1.05" height="1.666"/>
								<rect x="418.925" y="273.57" fill-rule="evenodd" clip-rule="evenodd" width="1.05" height="1.666"/>
								<rect x="418.925" y="276.548" fill-rule="evenodd" clip-rule="evenodd" width="1.05" height="1.666"/>
							</g>
						</g>
						<g>
							<g>
								<g>
									<rect x="414.047" y="260.946" fill="none" width="10.499" height="8.974"/>
								</g>
								<rect x="418.925" y="261.609" fill-rule="evenodd" clip-rule="evenodd" width="1.05" height="1.665"/>
								<rect x="418.925" y="264.597" fill-rule="evenodd" clip-rule="evenodd" width="1.05" height="1.666"/>
								<rect x="418.925" y="267.574" fill-rule="evenodd" clip-rule="evenodd" width="1.05" height="1.666"/>
							</g>
						</g>
						<g>
							<g>
								<g>
									<rect x="414.047" y="251.973" fill="none" width="10.499" height="8.974"/>
								</g>
								<rect x="418.925" y="252.636" fill-rule="evenodd" clip-rule="evenodd" width="1.05" height="1.666"/>
								<rect x="418.925" y="255.623" fill-rule="evenodd" clip-rule="evenodd" width="1.05" height="1.666"/>
								<rect x="418.925" y="258.601" fill-rule="evenodd" clip-rule="evenodd" width="1.05" height="1.666"/>
							</g>
						</g>
						<g>
							<g>
								<g>
									<rect x="414.047" y="242.999" fill="none" width="10.499" height="8.974"/>
								</g>
								<rect x="418.925" y="243.662" fill-rule="evenodd" clip-rule="evenodd" width="1.05" height="1.665"/>
								<rect x="418.925" y="246.649" fill-rule="evenodd" clip-rule="evenodd" width="1.05" height="1.666"/>
								<rect x="418.925" y="249.627" fill-rule="evenodd" clip-rule="evenodd" width="1.05" height="1.666"/>
							</g>
						</g>
						<g>
							<g>
								<g>
									<rect x="414.047" y="234.025" fill="none" width="10.499" height="8.974"/>
								</g>
								<rect x="418.925" y="234.688" fill-rule="evenodd" clip-rule="evenodd" width="1.05" height="1.666"/>
								<rect x="418.925" y="237.676" fill-rule="evenodd" clip-rule="evenodd" width="1.05" height="1.666"/>
								<rect x="418.925" y="240.653" fill-rule="evenodd" clip-rule="evenodd" width="1.05" height="1.666"/>
							</g>
						</g>
						<g>
							<g>
								<g>
									<rect x="414.047" y="225.052" fill="none" width="10.499" height="8.974"/>
								</g>
								<rect x="418.925" y="225.715" fill-rule="evenodd" clip-rule="evenodd" width="1.05" height="1.665"/>
								<rect x="418.925" y="228.702" fill-rule="evenodd" clip-rule="evenodd" width="1.05" height="1.666"/>
								<rect x="418.925" y="231.68" fill-rule="evenodd" clip-rule="evenodd" width="1.05" height="1.666"/>
							</g>
						</g>
					</g>
				</g>
			</g>
			<line fill="none" stroke="#000000" stroke-miterlimit="10" x1="384.94" y1="304.818" x2="390.027" y2="334.5"/>
			<line fill="none" stroke="#000000" stroke-miterlimit="10" x1="419.296" y1="225.052" x2="384.94" y2="304.997"/>
			<line fill="none" stroke="#000000" stroke-miterlimit="10" x1="453.653" y1="304.997" x2="419.296" y2="225.052"/>
			<line fill="none" stroke="#000000" stroke-miterlimit="10" x1="453.653" y1="304.997" x2="448.626" y2="334.321"/>
		</g>
	</g>
</g>
<g id="Layer_29">
</g>
<g id="Layer_30">
</g>
<g id="Layer_31">
</g>
<g id="Layer_32">
</g>
<g id="Layer_33">
</g>
<g id="Layer_34">
</g>
<g id="Layer_35">
</g>
<g id="Layer_36">
</g>
<g id="Layer_37">
</g>
<g id="Layer_38">
</g>
<g id="Layer_39">
</g>
<g id="Layer_40">
</g>
<g id="Layer_41">
</g>
<g id="Layer_43">
</g>
</svg>
