<?xml version="1.0" encoding="utf-8"?>
<!-- Generator: Adobe Illustrator 16.0.0, SVG Export Plug-In . SVG Version: 6.00 Build 0)  -->
<!DOCTYPE svg PUBLIC "-//W3C//DTD SVG 1.1//EN" "http://www.w3.org/Graphics/SVG/1.1/DTD/svg11.dtd">
<svg version="1.1" xmlns="http://www.w3.org/2000/svg" xmlns:xlink="http://www.w3.org/1999/xlink" x="0px" y="0px"
	 width="841.89px" height="595.28px" viewBox="0 0 841.89 595.28" enable-background="new 0 0 841.89 595.28" xml:space="preserve">
<g id="Layer_1">
</g>
<g id="Layer_2">
</g>
<g id="Layer_3">
</g>
<g id="Layer_4">
</g>
<g id="Layer_5">
</g>
<g id="Layer_6">
</g>
<g id="Layer_7">
</g>
<g id="Layer_8">
</g>
<g id="Layer_9">
</g>
<g id="Layer_10">
</g>
<g id="Layer_11">
</g>
<g id="Layer_12">
</g>
<g id="Layer_13">
</g>
<g id="Layer_14">
</g>
<g id="Layer_15">
</g>
<g id="Layer_16">
</g>
<g id="Layer_17">
</g>
<g id="Layer_18">
</g>
<g id="Layer_19">
</g>
<g id="Layer_20">
</g>
<g id="Layer_21">
</g>
<g id="Layer_22">
</g>
<g id="Layer_24">
</g>
<g id="Layer_25">
</g>
<g id="Layer_26">
	<g>
		<g>
			<g>
				<polyline id="pion_37_" fill="none" stroke="#000000" stroke-miterlimit="10" points="521.559,348.8 420.654,248.425 
					320.33,348.917 				"/>
				<polyline fill="none" stroke="#000000" stroke-miterlimit="10" points="520.77,348.917 420.551,449.138 320.33,348.917 
					420.551,248.698 				"/>
				<g>
					<g>
						<g>
							<g>
								<g>
									<g>
										<rect x="415.302" y="439.402" fill="none" width="10.499" height="9.544"/>
									</g>
									<rect x="420.18" y="440.107" fill-rule="evenodd" clip-rule="evenodd" width="1.051" height="1.771"/>
									<rect x="420.18" y="443.284" fill-rule="evenodd" clip-rule="evenodd" width="1.05" height="1.771"/>
									<rect x="420.18" y="446.451" fill-rule="evenodd" clip-rule="evenodd" width="1.05" height="1.772"/>
								</g>
							</g>
							<g>
								<g>
									<g>
										<rect x="415.302" y="429.857" fill="none" width="10.499" height="9.545"/>
									</g>
									<rect x="420.181" y="430.563" fill-rule="evenodd" clip-rule="evenodd" width="1.05" height="1.771"/>
									<rect x="420.181" y="433.74" fill-rule="evenodd" clip-rule="evenodd" width="1.05" height="1.771"/>
									<rect x="420.18" y="436.907" fill-rule="evenodd" clip-rule="evenodd" width="1.051" height="1.771"/>
								</g>
							</g>
							<g>
								<g>
									<g>
										<rect x="415.303" y="420.313" fill="none" width="10.499" height="9.544"/>
									</g>
									<rect x="420.182" y="421.019" fill-rule="evenodd" clip-rule="evenodd" width="1.05" height="1.771"/>
									<rect x="420.182" y="424.195" fill-rule="evenodd" clip-rule="evenodd" width="1.05" height="1.771"/>
									<rect x="420.181" y="427.362" fill-rule="evenodd" clip-rule="evenodd" width="1.05" height="1.771"/>
								</g>
							</g>
							<g>
								<g>
									<g>
										<rect x="415.305" y="410.768" fill="none" width="10.498" height="9.545"/>
									</g>
									<rect x="420.182" y="411.474" fill-rule="evenodd" clip-rule="evenodd" width="1.051" height="1.771"/>
									<rect x="420.182" y="414.651" fill-rule="evenodd" clip-rule="evenodd" width="1.051" height="1.771"/>
									<rect x="420.182" y="417.818" fill-rule="evenodd" clip-rule="evenodd" width="1.05" height="1.771"/>
								</g>
							</g>
							<g>
								<g>
									<g>
										<rect x="415.304" y="401.224" fill="none" width="10.499" height="9.544"/>
									</g>
									<rect x="420.183" y="401.93" fill-rule="evenodd" clip-rule="evenodd" width="1.05" height="1.771"/>
									<rect x="420.183" y="405.106" fill-rule="evenodd" clip-rule="evenodd" width="1.05" height="1.771"/>
									<rect x="420.183" y="408.273" fill-rule="evenodd" clip-rule="evenodd" width="1.05" height="1.771"/>
								</g>
							</g>
							<g>
								<g>
									<g>
										<rect x="415.305" y="391.679" fill="none" width="10.499" height="9.545"/>
									</g>
									<rect x="420.184" y="392.385" fill-rule="evenodd" clip-rule="evenodd" width="1.05" height="1.771"/>
									<rect x="420.184" y="395.563" fill-rule="evenodd" clip-rule="evenodd" width="1.05" height="1.771"/>
									<rect x="420.184" y="398.729" fill-rule="evenodd" clip-rule="evenodd" width="1.05" height="1.771"/>
								</g>
							</g>
							<g>
								<g>
									<g>
										<rect x="415.306" y="382.135" fill="none" width="10.499" height="9.544"/>
									</g>
									<rect x="420.185" y="382.84" fill-rule="evenodd" clip-rule="evenodd" width="1.05" height="1.772"/>
									<rect x="420.184" y="386.018" fill-rule="evenodd" clip-rule="evenodd" width="1.051" height="1.771"/>
									<rect x="420.184" y="389.185" fill-rule="evenodd" clip-rule="evenodd" width="1.051" height="1.771"/>
								</g>
							</g>
							<g>
								<g>
									<g>
										<rect x="415.306" y="372.59" fill="none" width="10.5" height="9.545"/>
									</g>
									<rect x="420.186" y="373.296" fill-rule="evenodd" clip-rule="evenodd" width="1.05" height="1.771"/>
									<rect x="420.185" y="376.474" fill-rule="evenodd" clip-rule="evenodd" width="1.05" height="1.771"/>
									<rect x="420.185" y="379.641" fill-rule="evenodd" clip-rule="evenodd" width="1.05" height="1.771"/>
								</g>
							</g>
							<g>
								<g>
									<g>
										<rect x="415.309" y="363.046" fill="none" width="10.498" height="9.544"/>
									</g>
									<rect x="420.186" y="363.75" fill-rule="evenodd" clip-rule="evenodd" width="1.051" height="1.772"/>
									<rect x="420.186" y="366.929" fill-rule="evenodd" clip-rule="evenodd" width="1.05" height="1.771"/>
									<rect x="420.186" y="370.096" fill-rule="evenodd" clip-rule="evenodd" width="1.05" height="1.771"/>
								</g>
							</g>
							<g>
								<g>
									<g>
										<rect x="415.308" y="353.501" fill="none" width="10.499" height="9.545"/>
									</g>
									<rect x="420.187" y="354.207" fill-rule="evenodd" clip-rule="evenodd" width="1.05" height="1.771"/>
									<rect x="420.187" y="357.385" fill-rule="evenodd" clip-rule="evenodd" width="1.05" height="1.771"/>
									<rect x="420.187" y="360.552" fill-rule="evenodd" clip-rule="evenodd" width="1.05" height="1.771"/>
								</g>
							</g>
							<g>
								<g>
									<g>
										<rect x="415.309" y="343.958" fill="none" width="10.499" height="9.544"/>
									</g>
									<rect x="420.188" y="344.662" fill-rule="evenodd" clip-rule="evenodd" width="1.05" height="1.771"/>
									<rect x="420.188" y="347.84" fill-rule="evenodd" clip-rule="evenodd" width="1.05" height="1.771"/>
									<rect x="420.188" y="351.007" fill-rule="evenodd" clip-rule="evenodd" width="1.049" height="1.771"/>
								</g>
							</g>
							<g>
								<g>
									<g>
										<rect x="415.311" y="334.413" fill="none" width="10.498" height="9.545"/>
									</g>
									<rect x="420.188" y="335.118" fill-rule="evenodd" clip-rule="evenodd" width="1.05" height="1.771"/>
									<rect x="420.188" y="338.296" fill-rule="evenodd" clip-rule="evenodd" width="1.051" height="1.771"/>
									<rect x="420.188" y="341.463" fill-rule="evenodd" clip-rule="evenodd" width="1.05" height="1.771"/>
								</g>
							</g>
							<g>
								<g>
									<g>
										<rect x="415.31" y="324.869" fill="none" width="10.5" height="9.544"/>
									</g>
									<rect x="420.189" y="325.573" fill-rule="evenodd" clip-rule="evenodd" width="1.05" height="1.771"/>
									<rect x="420.188" y="328.751" fill-rule="evenodd" clip-rule="evenodd" width="1.05" height="1.771"/>
									<rect x="420.188" y="331.918" fill-rule="evenodd" clip-rule="evenodd" width="1.05" height="1.771"/>
								</g>
							</g>
							<g>
								<g>
									<g>
										<rect x="415.312" y="315.324" fill="none" width="10.499" height="9.545"/>
									</g>
									<rect x="420.189" y="316.029" fill-rule="evenodd" clip-rule="evenodd" width="1.051" height="1.771"/>
									<rect x="420.189" y="319.207" fill-rule="evenodd" clip-rule="evenodd" width="1.05" height="1.771"/>
									<rect x="420.189" y="322.374" fill-rule="evenodd" clip-rule="evenodd" width="1.05" height="1.771"/>
								</g>
							</g>
							<g>
								<g>
									<g>
										<rect x="415.312" y="305.78" fill="none" width="10.499" height="9.544"/>
									</g>
									<rect x="420.19" y="306.484" fill-rule="evenodd" clip-rule="evenodd" width="1.05" height="1.771"/>
									<rect x="420.19" y="309.662" fill-rule="evenodd" clip-rule="evenodd" width="1.05" height="1.771"/>
									<rect x="420.189" y="312.829" fill-rule="evenodd" clip-rule="evenodd" width="1.051" height="1.771"/>
								</g>
							</g>
							<g>
								<g>
									<g>
										<rect x="415.313" y="296.235" fill="none" width="10.499" height="9.545"/>
									</g>
									<rect x="420.191" y="296.94" fill-rule="evenodd" clip-rule="evenodd" width="1.05" height="1.771"/>
									<rect x="420.191" y="300.117" fill-rule="evenodd" clip-rule="evenodd" width="1.05" height="1.772"/>
									<rect x="420.19" y="303.285" fill-rule="evenodd" clip-rule="evenodd" width="1.05" height="1.771"/>
								</g>
							</g>
							<g>
								<g>
									<g>
										<rect x="415.314" y="286.69" fill="none" width="10.498" height="9.544"/>
									</g>
									<rect x="420.191" y="287.396" fill-rule="evenodd" clip-rule="evenodd" width="1.051" height="1.772"/>
									<rect x="420.191" y="290.573" fill-rule="evenodd" clip-rule="evenodd" width="1.051" height="1.771"/>
									<rect x="420.191" y="293.74" fill-rule="evenodd" clip-rule="evenodd" width="1.05" height="1.771"/>
								</g>
							</g>
							<g>
								<g>
									<g>
										<rect x="415.314" y="277.146" fill="none" width="10.499" height="9.544"/>
									</g>
									<rect x="420.192" y="277.851" fill-rule="evenodd" clip-rule="evenodd" width="1.05" height="1.772"/>
									<rect x="420.192" y="281.029" fill-rule="evenodd" clip-rule="evenodd" width="1.05" height="1.771"/>
									<rect x="420.192" y="284.196" fill-rule="evenodd" clip-rule="evenodd" width="1.05" height="1.771"/>
								</g>
							</g>
							<g>
								<g>
									<g>
										<rect x="415.315" y="267.602" fill="none" width="10.499" height="9.544"/>
									</g>
									<rect x="420.193" y="268.306" fill-rule="evenodd" clip-rule="evenodd" width="1.05" height="1.772"/>
									<rect x="420.193" y="271.484" fill-rule="evenodd" clip-rule="evenodd" width="1.05" height="1.771"/>
									<rect x="420.193" y="274.651" fill-rule="evenodd" clip-rule="evenodd" width="1.05" height="1.771"/>
								</g>
							</g>
							<g>
								<g>
									<g>
										<rect x="415.316" y="258.057" fill="none" width="10.499" height="9.544"/>
									</g>
									<rect x="420.194" y="258.762" fill-rule="evenodd" clip-rule="evenodd" width="1.05" height="1.772"/>
									<rect x="420.193" y="261.94" fill-rule="evenodd" clip-rule="evenodd" width="1.051" height="1.771"/>
									<rect x="420.193" y="265.107" fill-rule="evenodd" clip-rule="evenodd" width="1.051" height="1.771"/>
								</g>
							</g>
							<g>
								<g>
									<g>
										<rect x="415.316" y="248.513" fill="none" width="10.5" height="9.544"/>
									</g>
									<rect x="420.195" y="249.218" fill-rule="evenodd" clip-rule="evenodd" width="1.05" height="1.772"/>
									<rect x="420.194" y="252.396" fill-rule="evenodd" clip-rule="evenodd" width="1.05" height="1.771"/>
									<rect x="420.194" y="255.563" fill-rule="evenodd" clip-rule="evenodd" width="1.05" height="1.771"/>
								</g>
							</g>
						</g>
					</g>
				</g>
				<path fill="none" stroke="#000000" stroke-miterlimit="10" d="M420.551,248.341"/>
				<g>
					<g>
						<g>
							<g>
								<g>
									<g>
										
											<rect x="476.336" y="310.231" transform="matrix(0.4125 -0.911 0.911 0.4125 -4.7495 623.5969)" fill="none" width="9.466" height="10.499"/>
									</g>
									
										<rect x="479.103" y="317.413" transform="matrix(0.9112 0.4119 -0.4119 0.9112 173.6868 -169.3073)" fill-rule="evenodd" clip-rule="evenodd" width="1.05" height="1.757"/>
									
										<rect x="480.402" y="314.542" transform="matrix(0.9109 0.4127 -0.4127 0.9109 173.031 -170.3585)" fill-rule="evenodd" clip-rule="evenodd" width="1.051" height="1.757"/>
									
										<rect x="481.698" y="311.681" transform="matrix(0.9109 0.4127 -0.4127 0.9109 171.9657 -171.1483)" fill-rule="evenodd" clip-rule="evenodd" width="1.051" height="1.757"/>
								</g>
							</g>
							<g>
								<g>
									<g>
										
											<rect x="472.432" y="318.854" transform="matrix(0.4125 -0.911 0.911 0.4125 -14.8987 625.1066)" fill="none" width="9.466" height="10.499"/>
									</g>
									
										<rect x="475.198" y="326.036" transform="matrix(0.9112 0.4119 -0.4119 0.9112 176.8921 -166.9336)" fill-rule="evenodd" clip-rule="evenodd" width="1.05" height="1.757"/>
									
										<rect x="476.498" y="323.165" transform="matrix(0.9109 0.4127 -0.4127 0.9109 176.2416 -167.9787)" fill-rule="evenodd" clip-rule="evenodd" width="1.051" height="1.757"/>
									
										<rect x="477.794" y="320.304" transform="matrix(0.9107 0.413 -0.413 0.9107 175.3644 -168.8847)" fill-rule="evenodd" clip-rule="evenodd" width="1.05" height="1.757"/>
								</g>
							</g>
							<g>
								<g>
									<g>
										
											<rect x="468.527" y="327.478" transform="matrix(0.4125 -0.911 0.911 0.4125 -25.0483 626.6157)" fill="none" width="9.466" height="10.498"/>
									</g>
									
										<rect x="471.294" y="334.659" transform="matrix(0.9112 0.4119 -0.4119 0.9112 180.0974 -164.5598)" fill-rule="evenodd" clip-rule="evenodd" width="1.05" height="1.757"/>
									
										<rect x="472.594" y="331.788" transform="matrix(0.9107 0.413 -0.413 0.9107 179.6435 -165.7115)" fill-rule="evenodd" clip-rule="evenodd" width="1.05" height="1.757"/>
									
										<rect x="473.89" y="328.927" transform="matrix(0.9107 0.413 -0.413 0.9107 178.5774 -166.5022)" fill-rule="evenodd" clip-rule="evenodd" width="1.05" height="1.757"/>
								</g>
							</g>
							<g>
								<g>
									<g>
										
											<rect x="464.623" y="336.1" transform="matrix(0.4126 -0.9109 0.9109 0.4126 -35.2245 628.0779)" fill="none" width="9.466" height="10.499"/>
									</g>
									
										<rect x="467.39" y="343.282" transform="matrix(0.9112 0.4119 -0.4119 0.9112 183.3027 -162.1861)" fill-rule="evenodd" clip-rule="evenodd" width="1.05" height="1.757"/>
									
										<rect x="468.689" y="340.411" transform="matrix(0.9107 0.413 -0.413 0.9107 182.8565 -163.329)" fill-rule="evenodd" clip-rule="evenodd" width="1.05" height="1.757"/>
									
										<rect x="469.985" y="337.55" transform="matrix(0.9107 0.413 -0.413 0.9107 181.7904 -164.1197)" fill-rule="evenodd" clip-rule="evenodd" width="1.05" height="1.757"/>
								</g>
							</g>
							<g>
								<g>
									<g>
										
											<rect x="460.718" y="344.723" transform="matrix(0.4125 -0.911 0.911 0.4125 -45.3471 629.6345)" fill="none" width="9.466" height="10.499"/>
									</g>
									
										<rect x="463.486" y="351.905" transform="matrix(0.9111 0.4123 -0.4123 0.9111 186.7045 -159.9185)" fill-rule="evenodd" clip-rule="evenodd" width="1.049" height="1.757"/>
									
										<rect x="464.785" y="349.034" transform="matrix(0.9107 0.413 -0.413 0.9107 186.0695 -160.9465)" fill-rule="evenodd" clip-rule="evenodd" width="1.05" height="1.757"/>
									
										<rect x="466.081" y="346.173" transform="matrix(0.9107 0.413 -0.413 0.9107 185.0034 -161.7372)" fill-rule="evenodd" clip-rule="evenodd" width="1.05" height="1.757"/>
								</g>
							</g>
							<g>
								<g>
									<g>
										
											<rect x="456.814" y="353.346" transform="matrix(0.4125 -0.911 0.911 0.4125 -55.4964 631.1442)" fill="none" width="9.466" height="10.499"/>
									</g>
									
										<rect x="459.581" y="360.528" transform="matrix(0.9111 0.4123 -0.4123 0.9111 189.9122 -157.542)" fill-rule="evenodd" clip-rule="evenodd" width="1.049" height="1.757"/>
									
										<rect x="460.88" y="357.657" transform="matrix(0.9107 0.413 -0.413 0.9107 189.2825 -158.5638)" fill-rule="evenodd" clip-rule="evenodd" width="1.05" height="1.757"/>
									
										<rect x="462.176" y="354.796" transform="matrix(0.9107 0.413 -0.413 0.9107 188.2163 -159.3545)" fill-rule="evenodd" clip-rule="evenodd" width="1.05" height="1.757"/>
								</g>
							</g>
							<g>
								<g>
									<g>
										
											<rect x="452.91" y="361.969" transform="matrix(0.4125 -0.911 0.911 0.4125 -65.6456 632.6538)" fill="none" width="9.466" height="10.499"/>
									</g>
									
										<rect x="455.677" y="369.151" transform="matrix(0.9111 0.4123 -0.4123 0.9111 193.1199 -155.1655)" fill-rule="evenodd" clip-rule="evenodd" width="1.049" height="1.757"/>
									
										<rect x="456.976" y="366.28" transform="matrix(0.9109 0.4127 -0.4127 0.9109 192.2946 -156.0795)" fill-rule="evenodd" clip-rule="evenodd" width="1.051" height="1.757"/>
									
										<rect x="458.272" y="363.419" transform="matrix(0.9109 0.4127 -0.4127 0.9109 191.2292 -156.8693)" fill-rule="evenodd" clip-rule="evenodd" width="1.051" height="1.757"/>
								</g>
							</g>
							<g>
								<g>
									<g>
										
											<rect x="449.005" y="370.592" transform="matrix(0.4125 -0.911 0.911 0.4125 -75.7949 634.1634)" fill="none" width="9.466" height="10.499"/>
									</g>
									
										<rect x="451.772" y="377.774" transform="matrix(0.9111 0.4123 -0.4123 0.9111 196.3276 -152.7889)" fill-rule="evenodd" clip-rule="evenodd" width="1.049" height="1.757"/>
									
										<rect x="453.071" y="374.903" transform="matrix(0.9109 0.4127 -0.4127 0.9109 195.5052 -153.6998)" fill-rule="evenodd" clip-rule="evenodd" width="1.051" height="1.757"/>
									
										<rect x="454.367" y="372.042" transform="matrix(0.9107 0.413 -0.413 0.9107 194.6423 -154.5894)" fill-rule="evenodd" clip-rule="evenodd" width="1.05" height="1.757"/>
								</g>
							</g>
							<g>
								<g>
									<g>
										
											<rect x="445.101" y="379.215" transform="matrix(0.4125 -0.911 0.911 0.4125 -85.9442 635.673)" fill="none" width="9.466" height="10.499"/>
									</g>
									
										<rect x="447.867" y="386.397" transform="matrix(0.9112 0.4119 -0.4119 0.9112 199.3292 -150.317)" fill-rule="evenodd" clip-rule="evenodd" width="1.05" height="1.757"/>
									
										<rect x="449.167" y="383.526" transform="matrix(0.9109 0.4127 -0.4127 0.9109 198.7158 -151.32)" fill-rule="evenodd" clip-rule="evenodd" width="1.051" height="1.757"/>
									
										<rect x="450.463" y="380.665" transform="matrix(0.9107 0.413 -0.413 0.9107 197.8553 -152.2068)" fill-rule="evenodd" clip-rule="evenodd" width="1.05" height="1.757"/>
								</g>
							</g>
							<g>
								<g>
									<g>
										
											<rect x="441.197" y="387.838" transform="matrix(0.4125 -0.911 0.911 0.4125 -96.0935 637.1826)" fill="none" width="9.466" height="10.499"/>
									</g>
									
										<rect x="443.963" y="395.02" transform="matrix(0.9112 0.4119 -0.4119 0.9112 202.5345 -147.9432)" fill-rule="evenodd" clip-rule="evenodd" width="1.05" height="1.757"/>
									
										<rect x="445.263" y="392.149" transform="matrix(0.9109 0.4127 -0.4127 0.9109 201.9264 -148.9402)" fill-rule="evenodd" clip-rule="evenodd" width="1.051" height="1.757"/>
									
										<rect x="446.559" y="389.288" transform="matrix(0.9107 0.413 -0.413 0.9107 201.0683 -149.8243)" fill-rule="evenodd" clip-rule="evenodd" width="1.05" height="1.757"/>
								</g>
							</g>
							<g>
								<g>
									<g>
										
											<rect x="437.293" y="396.461" transform="matrix(0.4125 -0.911 0.911 0.4125 -106.2428 638.6923)" fill="none" width="9.466" height="10.499"/>
									</g>
									
										<rect x="440.059" y="403.643" transform="matrix(0.9111 0.4123 -0.4123 0.9111 205.9507 -145.6593)" fill-rule="evenodd" clip-rule="evenodd" width="1.049" height="1.757"/>
									
										<rect x="441.358" y="400.772" transform="matrix(0.9109 0.4127 -0.4127 0.9109 205.137 -146.5605)" fill-rule="evenodd" clip-rule="evenodd" width="1.051" height="1.757"/>
									
										<rect x="442.654" y="397.911" transform="matrix(0.9107 0.413 -0.413 0.9107 204.2813 -147.4418)" fill-rule="evenodd" clip-rule="evenodd" width="1.05" height="1.757"/>
								</g>
							</g>
							<g>
								<g>
									<g>
										
											<rect x="433.388" y="405.085" transform="matrix(0.4125 -0.911 0.911 0.4125 -116.392 640.2019)" fill="none" width="9.466" height="10.499"/>
									</g>
									
										<rect x="436.155" y="412.266" transform="matrix(0.9111 0.4123 -0.4123 0.9111 209.1584 -143.2828)" fill-rule="evenodd" clip-rule="evenodd" width="1.049" height="1.757"/>
									
										<rect x="437.454" y="409.395" transform="matrix(0.9109 0.4127 -0.4127 0.9109 208.3476 -144.1807)" fill-rule="evenodd" clip-rule="evenodd" width="1.051" height="1.757"/>
									
										<rect x="438.75" y="406.534" transform="matrix(0.9107 0.413 -0.413 0.9107 207.4943 -145.0591)" fill-rule="evenodd" clip-rule="evenodd" width="1.05" height="1.757"/>
								</g>
							</g>
							<g>
								<g>
									<g>
										
											<rect x="429.483" y="413.708" transform="matrix(0.4125 -0.911 0.911 0.4125 -126.5416 641.7111)" fill="none" width="9.466" height="10.498"/>
									</g>
									
										<rect x="432.25" y="420.889" transform="matrix(0.9111 0.4123 -0.4123 0.9111 212.3661 -140.9064)" fill-rule="evenodd" clip-rule="evenodd" width="1.049" height="1.757"/>
									
										<rect x="433.55" y="418.018" transform="matrix(0.9107 0.413 -0.413 0.9107 211.7735 -141.8861)" fill-rule="evenodd" clip-rule="evenodd" width="1.05" height="1.757"/>
									
										<rect x="434.845" y="415.157" transform="matrix(0.9109 0.4127 -0.4127 0.9109 210.4928 -142.5903)" fill-rule="evenodd" clip-rule="evenodd" width="1.051" height="1.757"/>
								</g>
							</g>
							<g>
								<g>
									<g>
										
											<rect x="425.579" y="422.331" transform="matrix(0.4126 -0.9109 0.9109 0.4126 -136.7111 643.1675)" fill="none" width="9.466" height="10.499"/>
									</g>
									
										<rect x="428.345" y="429.512" transform="matrix(0.9111 0.4123 -0.4123 0.9111 215.5738 -138.5297)" fill-rule="evenodd" clip-rule="evenodd" width="1.049" height="1.757"/>
									
										<rect x="429.646" y="426.642" transform="matrix(0.9107 0.413 -0.413 0.9107 214.9865 -139.5037)" fill-rule="evenodd" clip-rule="evenodd" width="1.05" height="1.757"/>
									
										<rect x="430.94" y="423.78" transform="matrix(0.9109 0.4127 -0.4127 0.9109 213.7034 -140.2106)" fill-rule="evenodd" clip-rule="evenodd" width="1.051" height="1.757"/>
								</g>
							</g>
							<g>
								<g>
									<g>
										
											<rect x="421.674" y="430.954" transform="matrix(0.4125 -0.911 0.911 0.4125 -146.8405 644.7299)" fill="none" width="9.466" height="10.499"/>
									</g>
									
										<rect x="424.441" y="438.135" transform="matrix(0.9112 0.4119 -0.4119 0.9112 218.561 -136.0742)" fill-rule="evenodd" clip-rule="evenodd" width="1.05" height="1.757"/>
									
										<rect x="425.741" y="435.265" transform="matrix(0.9107 0.413 -0.413 0.9107 218.1995 -137.1212)" fill-rule="evenodd" clip-rule="evenodd" width="1.05" height="1.757"/>
									
										<rect x="427.036" y="432.403" transform="matrix(0.9109 0.4127 -0.4127 0.9109 216.914 -137.8308)" fill-rule="evenodd" clip-rule="evenodd" width="1.051" height="1.757"/>
								</g>
							</g>
							<g>
								<g>
									<g>
										
											<rect x="417.77" y="439.577" transform="matrix(0.4125 -0.911 0.911 0.4125 -156.9897 646.2396)" fill="none" width="9.466" height="10.499"/>
									</g>
									
										<rect x="420.536" y="446.758" transform="matrix(0.9112 0.4119 -0.4119 0.9112 221.7664 -133.7004)" fill-rule="evenodd" clip-rule="evenodd" width="1.05" height="1.757"/>
									
										<rect x="421.836" y="443.887" transform="matrix(0.9107 0.413 -0.413 0.9107 221.4124 -134.7385)" fill-rule="evenodd" clip-rule="evenodd" width="1.05" height="1.757"/>
									
										<rect x="423.132" y="441.026" transform="matrix(0.9109 0.4127 -0.4127 0.9109 220.1246 -135.451)" fill-rule="evenodd" clip-rule="evenodd" width="1.051" height="1.757"/>
								</g>
							</g>
						</g>
					</g>
				</g>
			</g>
			<g>
				<g>
					<g>
						<g>
							<g>
								<g>
									
										<rect x="355.698" y="309.79" transform="matrix(-0.4125 -0.911 0.911 -0.4125 222.1038 773.3245)" fill="none" width="9.466" height="10.499"/>
								</g>
								
									<rect x="361.068" y="317.098" transform="matrix(0.9111 -0.4123 0.4123 0.9111 -98.9312 177.3488)" fill-rule="evenodd" clip-rule="evenodd" width="1.049" height="1.757"/>
								
									<rect x="359.767" y="314.227" transform="matrix(0.9109 -0.4127 0.4127 0.9109 -97.9276 176.7701)" fill-rule="evenodd" clip-rule="evenodd" width="1.051" height="1.757"/>
								
									<rect x="358.472" y="311.366" transform="matrix(0.9107 -0.413 0.413 0.9107 -96.9146 176.1553)" fill-rule="evenodd" clip-rule="evenodd" width="1.05" height="1.757"/>
							</g>
						</g>
						<g>
							<g>
								<g>
									
										<rect x="359.602" y="318.413" transform="matrix(-0.4125 -0.911 0.911 -0.4125 219.7631 789.061)" fill="none" width="9.466" height="10.499"/>
								</g>
								
									<rect x="364.972" y="325.721" transform="matrix(0.9111 -0.4123 0.4123 0.9111 -102.1389 179.7253)" fill-rule="evenodd" clip-rule="evenodd" width="1.049" height="1.757"/>
								
									<rect x="363.672" y="322.851" transform="matrix(0.9107 -0.413 0.413 0.9107 -101.1937 179.3285)" fill-rule="evenodd" clip-rule="evenodd" width="1.05" height="1.757"/>
								
									<rect x="362.376" y="319.989" transform="matrix(0.9109 -0.4127 0.4127 0.9109 -100.0728 178.3602)" fill-rule="evenodd" clip-rule="evenodd" width="1.051" height="1.757"/>
							</g>
						</g>
						<g>
							<g>
								<g>
									
										<rect x="363.506" y="327.036" transform="matrix(-0.4126 -0.9109 0.9109 -0.4126 217.4668 804.8116)" fill="none" width="9.466" height="10.498"/>
								</g>
								
									<rect x="368.876" y="334.344" transform="matrix(0.9111 -0.4123 0.4123 0.9111 -105.3466 182.1017)" fill-rule="evenodd" clip-rule="evenodd" width="1.049" height="1.757"/>
								
									<rect x="367.576" y="331.474" transform="matrix(0.9107 -0.413 0.413 0.9107 -104.4067 181.711)" fill-rule="evenodd" clip-rule="evenodd" width="1.05" height="1.757"/>
								
									<rect x="366.28" y="328.612" transform="matrix(0.9109 -0.4127 0.4127 0.9109 -103.2834 180.74)" fill-rule="evenodd" clip-rule="evenodd" width="1.051" height="1.757"/>
							</g>
						</g>
						<g>
							<g>
								<g>
									
										<rect x="367.412" y="335.659" transform="matrix(-0.4125 -0.911 0.911 -0.4125 215.0831 820.5348)" fill="none" width="9.466" height="10.499"/>
								</g>
								
									<rect x="372.781" y="342.967" transform="matrix(0.9112 -0.4119 0.4119 0.9112 -108.4932 184.2937)" fill-rule="evenodd" clip-rule="evenodd" width="1.05" height="1.757"/>
								
									<rect x="371.48" y="340.097" transform="matrix(0.9107 -0.413 0.413 0.9107 -107.6197 184.0935)" fill-rule="evenodd" clip-rule="evenodd" width="1.05" height="1.757"/>
								
									<rect x="370.185" y="337.235" transform="matrix(0.9109 -0.4127 0.4127 0.9109 -106.494 183.1198)" fill-rule="evenodd" clip-rule="evenodd" width="1.051" height="1.757"/>
							</g>
						</g>
						<g>
							<g>
								<g>
									
										<rect x="371.316" y="344.282" transform="matrix(-0.4125 -0.911 0.911 -0.4125 212.7424 836.2712)" fill="none" width="9.466" height="10.499"/>
								</g>
								
									<rect x="376.685" y="351.59" transform="matrix(0.9112 -0.4119 0.4119 0.9112 -111.6985 186.6675)" fill-rule="evenodd" clip-rule="evenodd" width="1.05" height="1.757"/>
								
									<rect x="375.385" y="348.72" transform="matrix(0.9107 -0.413 0.413 0.9107 -110.8327 186.476)" fill-rule="evenodd" clip-rule="evenodd" width="1.05" height="1.757"/>
								
									<rect x="374.089" y="345.858" transform="matrix(0.9109 -0.4127 0.4127 0.9109 -109.7047 185.4995)" fill-rule="evenodd" clip-rule="evenodd" width="1.051" height="1.757"/>
							</g>
						</g>
						<g>
							<g>
								<g>
									
										<rect x="375.22" y="352.905" transform="matrix(-0.4125 -0.911 0.911 -0.4125 210.4017 852.0077)" fill="none" width="9.466" height="10.499"/>
								</g>
								
									<rect x="380.589" y="360.213" transform="matrix(0.9112 -0.4119 0.4119 0.9112 -114.9038 189.0412)" fill-rule="evenodd" clip-rule="evenodd" width="1.05" height="1.757"/>
								
									<rect x="379.289" y="357.343" transform="matrix(0.9109 -0.4127 0.4127 0.9109 -113.9806 188.6691)" fill-rule="evenodd" clip-rule="evenodd" width="1.051" height="1.757"/>
								
									<rect x="377.993" y="354.481" transform="matrix(0.9109 -0.4127 0.4127 0.9109 -112.9152 187.8793)" fill-rule="evenodd" clip-rule="evenodd" width="1.051" height="1.757"/>
							</g>
						</g>
						<g>
							<g>
								<g>
									
										<rect x="379.125" y="361.528" transform="matrix(-0.4125 -0.911 0.911 -0.4125 208.0611 867.7441)" fill="none" width="9.466" height="10.499"/>
								</g>
								
									<rect x="384.493" y="368.836" transform="matrix(0.9112 -0.4119 0.4119 0.9112 -118.1092 191.4149)" fill-rule="evenodd" clip-rule="evenodd" width="1.05" height="1.757"/>
								
									<rect x="383.194" y="365.966" transform="matrix(0.9109 -0.4127 0.4127 0.9109 -117.1911 191.0491)" fill-rule="evenodd" clip-rule="evenodd" width="1.051" height="1.757"/>
								
									<rect x="381.898" y="363.104" transform="matrix(0.9107 -0.413 0.413 0.9107 -116.1924 190.4506)" fill-rule="evenodd" clip-rule="evenodd" width="1.05" height="1.757"/>
							</g>
						</g>
						<g>
							<g>
								<g>
									
										<rect x="383.029" y="370.151" transform="matrix(-0.4125 -0.911 0.911 -0.4125 205.7204 883.4807)" fill="none" width="9.466" height="10.499"/>
								</g>
								
									<rect x="388.398" y="377.459" transform="matrix(0.9112 -0.4119 0.4119 0.9112 -121.3145 193.7887)" fill-rule="evenodd" clip-rule="evenodd" width="1.05" height="1.757"/>
								
									<rect x="387.099" y="374.589" transform="matrix(0.9107 -0.413 0.413 0.9107 -120.4716 193.6239)" fill-rule="evenodd" clip-rule="evenodd" width="1.05" height="1.757"/>
								
									<rect x="385.803" y="371.727" transform="matrix(0.9107 -0.413 0.413 0.9107 -119.4055 192.8331)" fill-rule="evenodd" clip-rule="evenodd" width="1.05" height="1.757"/>
							</g>
						</g>
						<g>
							<g>
								<g>
									
										<rect x="386.933" y="378.774" transform="matrix(-0.4125 -0.911 0.911 -0.4125 203.3797 899.2171)" fill="none" width="9.466" height="10.499"/>
								</g>
								
									<rect x="392.302" y="386.082" transform="matrix(0.9112 -0.4119 0.4119 0.9112 -124.5198 196.1626)" fill-rule="evenodd" clip-rule="evenodd" width="1.05" height="1.757"/>
								
									<rect x="391.003" y="383.212" transform="matrix(0.9107 -0.413 0.413 0.9107 -123.6846 196.0064)" fill-rule="evenodd" clip-rule="evenodd" width="1.05" height="1.757"/>
								
									<rect x="389.707" y="380.351" transform="matrix(0.9107 -0.413 0.413 0.9107 -122.6185 195.2156)" fill-rule="evenodd" clip-rule="evenodd" width="1.05" height="1.757"/>
							</g>
						</g>
						<g>
							<g>
								<g>
									
										<rect x="390.837" y="387.397" transform="matrix(-0.4125 -0.911 0.911 -0.4125 201.039 914.9536)" fill="none" width="9.466" height="10.499"/>
								</g>
								
									<rect x="396.207" y="394.706" transform="matrix(0.9111 -0.4123 0.4123 0.9111 -127.8005 198.7374)" fill-rule="evenodd" clip-rule="evenodd" width="1.049" height="1.757"/>
								
									<rect x="394.907" y="391.835" transform="matrix(0.9107 -0.413 0.413 0.9107 -126.8976 198.3888)" fill-rule="evenodd" clip-rule="evenodd" width="1.05" height="1.757"/>
								
									<rect x="393.611" y="388.974" transform="matrix(0.9107 -0.413 0.413 0.9107 -125.8315 197.5981)" fill-rule="evenodd" clip-rule="evenodd" width="1.05" height="1.757"/>
							</g>
						</g>
						<g>
							<g>
								<g>
									
										<rect x="394.742" y="396.02" transform="matrix(-0.4125 -0.911 0.911 -0.4125 198.6983 930.6901)" fill="none" width="9.466" height="10.499"/>
								</g>
								
									<rect x="400.112" y="403.329" transform="matrix(0.9111 -0.4123 0.4123 0.9111 -131.0083 201.1139)" fill-rule="evenodd" clip-rule="evenodd" width="1.049" height="1.757"/>
								
									<rect x="398.812" y="400.458" transform="matrix(0.9107 -0.413 0.413 0.9107 -130.1106 200.7713)" fill-rule="evenodd" clip-rule="evenodd" width="1.05" height="1.757"/>
								
									<rect x="397.516" y="397.597" transform="matrix(0.9107 -0.413 0.413 0.9107 -129.0445 199.9806)" fill-rule="evenodd" clip-rule="evenodd" width="1.05" height="1.757"/>
							</g>
						</g>
						<g>
							<g>
								<g>
									
										<rect x="398.646" y="404.643" transform="matrix(-0.4125 -0.911 0.911 -0.4125 196.3577 946.4265)" fill="none" width="9.466" height="10.499"/>
								</g>
								
									<rect x="404.016" y="411.952" transform="matrix(0.9111 -0.4123 0.4123 0.9111 -134.2159 203.4903)" fill-rule="evenodd" clip-rule="evenodd" width="1.049" height="1.757"/>
								
									<rect x="402.716" y="409.081" transform="matrix(0.9109 -0.4127 0.4127 0.9109 -133.2441 202.9481)" fill-rule="evenodd" clip-rule="evenodd" width="1.051" height="1.757"/>
								
									<rect x="401.42" y="406.22" transform="matrix(0.9109 -0.4127 0.4127 0.9109 -132.1788 202.1583)" fill-rule="evenodd" clip-rule="evenodd" width="1.051" height="1.757"/>
							</g>
						</g>
						<g>
							<g>
								<g>
									
										<rect x="402.55" y="413.267" transform="matrix(-0.4126 -0.9109 0.9109 -0.4126 194.068 962.183)" fill="none" width="9.466" height="10.498"/>
								</g>
								
									<rect x="407.92" y="420.575" transform="matrix(0.9111 -0.4123 0.4123 0.9111 -137.4237 205.8668)" fill-rule="evenodd" clip-rule="evenodd" width="1.049" height="1.757"/>
								
									<rect x="406.62" y="417.704" transform="matrix(0.9109 -0.4127 0.4127 0.9109 -136.4547 205.3278)" fill-rule="evenodd" clip-rule="evenodd" width="1.051" height="1.757"/>
								
									<rect x="405.325" y="414.843" transform="matrix(0.9107 -0.413 0.413 0.9107 -135.4704 204.746)" fill-rule="evenodd" clip-rule="evenodd" width="1.05" height="1.757"/>
							</g>
						</g>
						<g>
							<g>
								<g>
									
										<rect x="406.456" y="421.889" transform="matrix(-0.4125 -0.911 0.911 -0.4125 191.6777 977.9003)" fill="none" width="9.466" height="10.499"/>
								</g>
								
									<rect x="411.824" y="429.198" transform="matrix(0.9112 -0.4119 0.4119 0.9112 -140.5463 208.0315)" fill-rule="evenodd" clip-rule="evenodd" width="1.05" height="1.757"/>
								
									<rect x="410.524" y="426.327" transform="matrix(0.9109 -0.4127 0.4127 0.9109 -139.6653 207.7076)" fill-rule="evenodd" clip-rule="evenodd" width="1.051" height="1.757"/>
								
									<rect x="409.229" y="423.466" transform="matrix(0.9107 -0.413 0.413 0.9107 -138.6834 207.1285)" fill-rule="evenodd" clip-rule="evenodd" width="1.05" height="1.757"/>
							</g>
						</g>
						<g>
							<g>
								<g>
									
										<rect x="410.36" y="430.512" transform="matrix(-0.4125 -0.911 0.911 -0.4125 189.337 993.6368)" fill="none" width="9.466" height="10.499"/>
								</g>
								
									<rect x="415.729" y="437.821" transform="matrix(0.9112 -0.4119 0.4119 0.9112 -143.7515 210.4055)" fill-rule="evenodd" clip-rule="evenodd" width="1.05" height="1.757"/>
								
									<rect x="414.429" y="434.95" transform="matrix(0.9109 -0.4127 0.4127 0.9109 -142.876 210.0874)" fill-rule="evenodd" clip-rule="evenodd" width="1.051" height="1.757"/>
								
									<rect x="413.134" y="432.089" transform="matrix(0.9107 -0.413 0.413 0.9107 -141.8964 209.511)" fill-rule="evenodd" clip-rule="evenodd" width="1.05" height="1.757"/>
							</g>
						</g>
						<g>
							<g>
								<g>
									
										<rect x="414.264" y="439.135" transform="matrix(-0.4125 -0.911 0.911 -0.4125 186.9963 1009.3733)" fill="none" width="9.466" height="10.499"/>
								</g>
								
									<rect x="419.634" y="446.444" transform="matrix(0.9111 -0.4123 0.4123 0.9111 -147.0468 212.9966)" fill-rule="evenodd" clip-rule="evenodd" width="1.049" height="1.757"/>
								
									<rect x="418.333" y="443.573" transform="matrix(0.9109 -0.4127 0.4127 0.9109 -146.0865 212.4671)" fill-rule="evenodd" clip-rule="evenodd" width="1.051" height="1.757"/>
								
									<rect x="417.038" y="440.712" transform="matrix(0.9107 -0.413 0.413 0.9107 -145.1094 211.8935)" fill-rule="evenodd" clip-rule="evenodd" width="1.05" height="1.757"/>
							</g>
						</g>
					</g>
				</g>
			</g>
		</g>
		<g>
			<g>
				<g>
					<g>
						<g>
							<g>
								<g>
									<rect x="415.301" y="240.269" fill="none" width="10.5" height="8.974"/>
								</g>
								<rect x="420.18" y="240.932" fill-rule="evenodd" clip-rule="evenodd" width="1.05" height="1.666"/>
								<rect x="420.18" y="243.919" fill-rule="evenodd" clip-rule="evenodd" width="1.05" height="1.666"/>
								<rect x="420.18" y="246.896" fill-rule="evenodd" clip-rule="evenodd" width="1.05" height="1.666"/>
							</g>
						</g>
						<g>
							<g>
								<g>
									<rect x="415.301" y="231.295" fill="none" width="10.5" height="8.974"/>
								</g>
								<rect x="420.18" y="231.958" fill-rule="evenodd" clip-rule="evenodd" width="1.05" height="1.666"/>
								<rect x="420.18" y="234.945" fill-rule="evenodd" clip-rule="evenodd" width="1.05" height="1.666"/>
								<rect x="420.18" y="237.923" fill-rule="evenodd" clip-rule="evenodd" width="1.05" height="1.666"/>
							</g>
						</g>
						<g>
							<g>
								<g>
									<rect x="415.301" y="222.321" fill="none" width="10.5" height="8.974"/>
								</g>
								<rect x="420.18" y="222.984" fill-rule="evenodd" clip-rule="evenodd" width="1.05" height="1.666"/>
								<rect x="420.18" y="225.972" fill-rule="evenodd" clip-rule="evenodd" width="1.05" height="1.666"/>
								<rect x="420.18" y="228.949" fill-rule="evenodd" clip-rule="evenodd" width="1.05" height="1.666"/>
							</g>
						</g>
						<g>
							<g>
								<g>
									<rect x="415.301" y="213.348" fill="none" width="10.5" height="8.974"/>
								</g>
								<rect x="420.18" y="214.011" fill-rule="evenodd" clip-rule="evenodd" width="1.05" height="1.666"/>
								<rect x="420.18" y="216.998" fill-rule="evenodd" clip-rule="evenodd" width="1.05" height="1.666"/>
								<rect x="420.18" y="219.976" fill-rule="evenodd" clip-rule="evenodd" width="1.05" height="1.666"/>
							</g>
						</g>
						<g>
							<g>
								<g>
									<rect x="415.301" y="204.374" fill="none" width="10.5" height="8.974"/>
								</g>
								<rect x="420.18" y="205.037" fill-rule="evenodd" clip-rule="evenodd" width="1.05" height="1.666"/>
								<rect x="420.18" y="208.024" fill-rule="evenodd" clip-rule="evenodd" width="1.05" height="1.666"/>
								<rect x="420.18" y="211.002" fill-rule="evenodd" clip-rule="evenodd" width="1.05" height="1.666"/>
							</g>
						</g>
						<g>
							<g>
								<g>
									<rect x="415.301" y="195.4" fill="none" width="10.5" height="8.974"/>
								</g>
								<rect x="420.18" y="196.063" fill-rule="evenodd" clip-rule="evenodd" width="1.05" height="1.666"/>
								<rect x="420.18" y="199.051" fill-rule="evenodd" clip-rule="evenodd" width="1.05" height="1.666"/>
								<rect x="420.18" y="202.028" fill-rule="evenodd" clip-rule="evenodd" width="1.05" height="1.666"/>
							</g>
						</g>
						<g>
							<g>
								<g>
									<rect x="415.301" y="186.427" fill="none" width="10.5" height="8.974"/>
								</g>
								<rect x="420.18" y="187.09" fill-rule="evenodd" clip-rule="evenodd" width="1.05" height="1.666"/>
								<rect x="420.18" y="190.077" fill-rule="evenodd" clip-rule="evenodd" width="1.05" height="1.666"/>
								<rect x="420.18" y="193.055" fill-rule="evenodd" clip-rule="evenodd" width="1.05" height="1.666"/>
							</g>
						</g>
						<g>
							<g>
								<g>
									<rect x="415.301" y="177.453" fill="none" width="10.5" height="8.974"/>
								</g>
								<rect x="420.18" y="178.116" fill-rule="evenodd" clip-rule="evenodd" width="1.05" height="1.666"/>
								<rect x="420.18" y="181.104" fill-rule="evenodd" clip-rule="evenodd" width="1.05" height="1.666"/>
								<rect x="420.18" y="184.081" fill-rule="evenodd" clip-rule="evenodd" width="1.05" height="1.666"/>
							</g>
						</g>
						<g>
							<g>
								<g>
									<rect x="415.301" y="168.479" fill="none" width="10.5" height="8.974"/>
								</g>
								<rect x="420.18" y="169.143" fill-rule="evenodd" clip-rule="evenodd" width="1.05" height="1.666"/>
								<rect x="420.18" y="172.13" fill-rule="evenodd" clip-rule="evenodd" width="1.05" height="1.666"/>
								<rect x="420.18" y="175.107" fill-rule="evenodd" clip-rule="evenodd" width="1.05" height="1.666"/>
							</g>
						</g>
					</g>
				</g>
			</g>
			<line fill="none" stroke="#000000" stroke-miterlimit="10" x1="386.193" y1="248.425" x2="391.281" y2="278.106"/>
			<line fill="none" stroke="#000000" stroke-miterlimit="10" x1="420.551" y1="168.479" x2="386.193" y2="248.425"/>
			<line fill="none" stroke="#000000" stroke-miterlimit="10" x1="454.906" y1="248.425" x2="420.551" y2="168.479"/>
			<line fill="none" stroke="#000000" stroke-miterlimit="10" x1="454.906" y1="248.425" x2="449.881" y2="277.749"/>
		</g>
	</g>
</g>
<g id="Layer_27">
</g>
<g id="Layer_28">
</g>
<g id="Layer_29">
</g>
<g id="Layer_30">
</g>
<g id="Layer_31">
</g>
<g id="Layer_32">
</g>
<g id="Layer_33">
</g>
<g id="Layer_34">
</g>
<g id="Layer_35">
</g>
<g id="Layer_36">
</g>
<g id="Layer_37">
</g>
<g id="Layer_38">
</g>
<g id="Layer_39">
</g>
<g id="Layer_40">
</g>
<g id="Layer_41">
</g>
<g id="Layer_43">
</g>
</svg>
