<?xml version="1.0" encoding="utf-8"?>
<!-- Generator: Adobe Illustrator 16.0.0, SVG Export Plug-In . SVG Version: 6.00 Build 0)  -->
<!DOCTYPE svg PUBLIC "-//W3C//DTD SVG 1.1//EN" "http://www.w3.org/Graphics/SVG/1.1/DTD/svg11.dtd">
<svg version="1.1" xmlns="http://www.w3.org/2000/svg" xmlns:xlink="http://www.w3.org/1999/xlink" x="0px" y="0px"
	 width="841.89px" height="595.28px" viewBox="0 0 841.89 595.28" enable-background="new 0 0 841.89 595.28" xml:space="preserve">
<g id="Layer_1">
</g>
<g id="Layer_2">
</g>
<g id="Layer_3">
</g>
<g id="Layer_4">
</g>
<g id="Layer_5">
</g>
<g id="Layer_6">
</g>
<g id="Layer_7">
</g>
<g id="Layer_8">
</g>
<g id="Layer_9">
</g>
<g id="Layer_10">
</g>
<g id="Layer_11">
</g>
<g id="Layer_12">
</g>
<g id="Layer_13">
</g>
<g id="Layer_14">
</g>
<g id="Layer_15">
</g>
<g id="Layer_16">
</g>
<g id="Layer_17">
</g>
<g id="Layer_18">
</g>
<g id="Layer_19">
</g>
<g id="Layer_20">
</g>
<g id="Layer_21">
</g>
<g id="Layer_22">
</g>
<g id="Layer_24">
</g>
<g id="Layer_25">
</g>
<g id="Layer_26">
</g>
<g id="Layer_27">
	<g>
		<g>
			<g>
				<polyline id="pion_38_" fill="none" stroke="#000000" stroke-miterlimit="10" points="504.632,347.974 420.625,244.784 
					337.257,347.974 				"/>
				<g>
					<g>
						<g>
							<g>
								<g>
									<g>
										
											<rect x="415.327" y="358.23" transform="matrix(-0.0039 1 -1 -0.0039 785.1904 -55.1665)" fill="none" width="9.488" height="10.499"/>
									</g>
									<rect x="419.712" y="359.437" fill-rule="evenodd" clip-rule="evenodd" width="1.05" height="1.762"/>
									<rect x="419.7" y="362.596" fill-rule="evenodd" clip-rule="evenodd" width="1.05" height="1.761"/>
									<rect x="419.687" y="365.744" fill-rule="evenodd" clip-rule="evenodd" width="1.05" height="1.762"/>
								</g>
							</g>
							<g>
								<g>
									<g>
										
											<rect x="415.363" y="348.741" transform="matrix(-0.0039 1 -1 -0.0039 775.7391 -64.7299)" fill="none" width="9.489" height="10.499"/>
									</g>
									<rect x="419.749" y="349.948" fill-rule="evenodd" clip-rule="evenodd" width="1.05" height="1.762"/>
									<rect x="419.737" y="353.107" fill-rule="evenodd" clip-rule="evenodd" width="1.05" height="1.761"/>
									<rect x="419.724" y="356.256" fill-rule="evenodd" clip-rule="evenodd" width="1.05" height="1.761"/>
								</g>
							</g>
							<g>
								<g>
									<g>
										
											<rect x="415.401" y="339.252" transform="matrix(-0.004 1 -1 -0.004 766.3093 -74.2749)" fill="none" width="9.488" height="10.499"/>
									</g>
									<rect x="419.787" y="340.46" fill-rule="evenodd" clip-rule="evenodd" width="1.05" height="1.761"/>
									<rect x="419.774" y="343.618" fill-rule="evenodd" clip-rule="evenodd" width="1.05" height="1.762"/>
									<rect x="419.762" y="346.767" fill-rule="evenodd" clip-rule="evenodd" width="1.05" height="1.762"/>
								</g>
							</g>
							<g>
								<g>
									<g>
										
											<rect x="415.438" y="329.764" transform="matrix(-0.0039 1 -1 -0.0039 756.837 -83.8555)" fill="none" width="9.488" height="10.499"/>
									</g>
									<rect x="419.824" y="330.971" fill-rule="evenodd" clip-rule="evenodd" width="1.05" height="1.762"/>
									<rect x="419.811" y="334.129" fill-rule="evenodd" clip-rule="evenodd" width="1.05" height="1.762"/>
									<rect x="419.799" y="337.278" fill-rule="evenodd" clip-rule="evenodd" width="1.05" height="1.762"/>
								</g>
							</g>
							<g>
								<g>
									<g>
										
											<rect x="415.476" y="320.275" transform="matrix(-0.004 1 -1 -0.004 747.4075 -93.4019)" fill="none" width="9.488" height="10.499"/>
									</g>
									<rect x="419.861" y="321.482" fill-rule="evenodd" clip-rule="evenodd" width="1.05" height="1.762"/>
									<rect x="419.849" y="324.642" fill-rule="evenodd" clip-rule="evenodd" width="1.05" height="1.761"/>
									<rect x="419.836" y="327.79" fill-rule="evenodd" clip-rule="evenodd" width="1.05" height="1.761"/>
								</g>
							</g>
							<g>
								<g>
									<g>
										
											<rect x="415.513" y="310.787" transform="matrix(-0.0039 1 -1 -0.0039 737.9351 -102.9816)" fill="none" width="9.489" height="10.499"/>
									</g>
									<rect x="419.898" y="311.994" fill-rule="evenodd" clip-rule="evenodd" width="1.05" height="1.761"/>
									<rect x="419.886" y="315.152" fill-rule="evenodd" clip-rule="evenodd" width="1.05" height="1.762"/>
									<rect x="419.874" y="318.302" fill-rule="evenodd" clip-rule="evenodd" width="1.05" height="1.761"/>
								</g>
							</g>
							<g>
								<g>
									<g>
										
											<rect x="415.55" y="301.298" transform="matrix(-0.0039 1 -1 -0.0039 728.4838 -112.5445)" fill="none" width="9.488" height="10.499"/>
									</g>
									<rect x="419.936" y="302.505" fill-rule="evenodd" clip-rule="evenodd" width="1.05" height="1.762"/>
									<rect x="419.923" y="305.664" fill-rule="evenodd" clip-rule="evenodd" width="1.05" height="1.762"/>
									<rect x="419.911" y="308.812" fill-rule="evenodd" clip-rule="evenodd" width="1.05" height="1.762"/>
								</g>
							</g>
							<g>
								<g>
									<g>
										
											<rect x="415.587" y="291.81" transform="matrix(-0.0039 1 -1 -0.0039 719.0323 -122.1075)" fill="none" width="9.488" height="10.499"/>
									</g>
									<rect x="419.973" y="293.016" fill-rule="evenodd" clip-rule="evenodd" width="1.05" height="1.762"/>
									<rect x="419.96" y="296.176" fill-rule="evenodd" clip-rule="evenodd" width="1.05" height="1.761"/>
									<rect x="419.948" y="299.324" fill-rule="evenodd" clip-rule="evenodd" width="1.05" height="1.761"/>
								</g>
							</g>
							<g>
								<g>
									<g>
										
											<rect x="415.624" y="282.321" transform="matrix(-0.004 1 -1 -0.004 709.603 -131.6554)" fill="none" width="9.489" height="10.499"/>
									</g>
									<rect x="420.01" y="283.528" fill-rule="evenodd" clip-rule="evenodd" width="1.05" height="1.761"/>
									<rect x="419.998" y="286.687" fill-rule="evenodd" clip-rule="evenodd" width="1.05" height="1.762"/>
									<rect x="419.985" y="289.836" fill-rule="evenodd" clip-rule="evenodd" width="1.05" height="1.761"/>
								</g>
							</g>
							<g>
								<g>
									<g>
										
											<rect x="415.662" y="272.832" transform="matrix(-0.0039 1 -1 -0.0039 700.1304 -141.2334)" fill="none" width="9.488" height="10.499"/>
									</g>
									<rect x="420.047" y="274.04" fill-rule="evenodd" clip-rule="evenodd" width="1.05" height="1.761"/>
									<rect x="420.035" y="277.198" fill-rule="evenodd" clip-rule="evenodd" width="1.05" height="1.762"/>
									<rect x="420.022" y="280.347" fill-rule="evenodd" clip-rule="evenodd" width="1.05" height="1.762"/>
								</g>
							</g>
							<g>
								<g>
									<g>
										
											<rect x="415.699" y="263.344" transform="matrix(-0.0039 1 -1 -0.0039 690.6797 -150.7962)" fill="none" width="9.488" height="10.499"/>
									</g>
									<rect x="420.084" y="264.55" fill-rule="evenodd" clip-rule="evenodd" width="1.05" height="1.762"/>
									<rect x="420.072" y="267.71" fill-rule="evenodd" clip-rule="evenodd" width="1.05" height="1.761"/>
									<rect x="420.06" y="270.858" fill-rule="evenodd" clip-rule="evenodd" width="1.05" height="1.761"/>
								</g>
							</g>
							<g>
								<g>
									<g>
										
											<rect x="415.736" y="253.855" transform="matrix(-0.004 1 -1 -0.004 681.2496 -160.3459)" fill="none" width="9.489" height="10.499"/>
									</g>
									<rect x="420.122" y="255.063" fill-rule="evenodd" clip-rule="evenodd" width="1.05" height="1.761"/>
									<rect x="420.11" y="258.222" fill-rule="evenodd" clip-rule="evenodd" width="1.05" height="1.761"/>
									<rect x="420.097" y="261.37" fill-rule="evenodd" clip-rule="evenodd" width="1.05" height="1.761"/>
								</g>
							</g>
							<g>
								<g>
									<g>
										
											<rect x="415.774" y="244.367" transform="matrix(-0.0039 1 -1 -0.0039 671.777 -169.9224)" fill="none" width="9.488" height="10.499"/>
									</g>
									<rect x="420.159" y="245.574" fill-rule="evenodd" clip-rule="evenodd" width="1.05" height="1.761"/>
									<rect x="420.146" y="248.732" fill-rule="evenodd" clip-rule="evenodd" width="1.05" height="1.762"/>
									<rect x="420.134" y="251.881" fill-rule="evenodd" clip-rule="evenodd" width="1.05" height="1.762"/>
								</g>
							</g>
						</g>
					</g>
				</g>
				<path fill="none" stroke="#000000" stroke-miterlimit="10" d="M420.521,244.702"/>
				<g>
					<g>
						<g>
							<g>
								<g>
									<g>
										
											<rect x="466.626" y="309.88" transform="matrix(0.6951 -0.7189 0.7189 0.6951 -82.7654 435.1194)" fill="none" width="9.882" height="10.498"/>
									</g>
									
										<rect x="468.642" y="316.474" transform="matrix(0.7186 0.6954 -0.6954 0.7186 352.7194 -236.9507)" fill-rule="evenodd" clip-rule="evenodd" width="1.05" height="1.835"/>
									
										<rect x="470.929" y="314.109" transform="matrix(0.7186 0.6954 -0.6954 0.7186 351.718 -239.2064)" fill-rule="evenodd" clip-rule="evenodd" width="1.05" height="1.835"/>
									
										<rect x="473.208" y="311.751" transform="matrix(0.7186 0.6954 -0.6954 0.7186 350.72 -241.4547)" fill-rule="evenodd" clip-rule="evenodd" width="1.05" height="1.835"/>
								</g>
							</g>
							<g>
								<g>
									<g>
										
											<rect x="459.758" y="316.985" transform="matrix(0.6951 -0.7189 0.7189 0.6951 -89.9678 432.3478)" fill="none" width="9.882" height="10.499"/>
									</g>
									
										<rect x="461.773" y="323.578" transform="matrix(0.7186 0.6954 -0.6954 0.7186 355.7271 -230.1754)" fill-rule="evenodd" clip-rule="evenodd" width="1.05" height="1.835"/>
									
										<rect x="464.06" y="321.213" transform="matrix(0.7186 0.6954 -0.6954 0.7186 354.7258 -232.431)" fill-rule="evenodd" clip-rule="evenodd" width="1.05" height="1.835"/>
									
										<rect x="466.339" y="318.856" transform="matrix(0.7186 0.6954 -0.6954 0.7186 353.7278 -234.6793)" fill-rule="evenodd" clip-rule="evenodd" width="1.05" height="1.835"/>
								</g>
							</g>
							<g>
								<g>
									<g>
										
											<rect x="452.889" y="324.089" transform="matrix(0.6951 -0.7189 0.7189 0.6951 -97.17 429.576)" fill="none" width="9.882" height="10.499"/>
									</g>
									
										<rect x="454.905" y="330.683" transform="matrix(0.7186 0.6954 -0.6954 0.7186 358.7349 -223.4)" fill-rule="evenodd" clip-rule="evenodd" width="1.05" height="1.835"/>
									
										<rect x="457.191" y="328.318" transform="matrix(0.7186 0.6954 -0.6954 0.7186 357.7335 -225.6556)" fill-rule="evenodd" clip-rule="evenodd" width="1.05" height="1.835"/>
									
										<rect x="459.471" y="325.96" transform="matrix(0.7186 0.6954 -0.6954 0.7186 356.7355 -227.9039)" fill-rule="evenodd" clip-rule="evenodd" width="1.05" height="1.835"/>
								</g>
							</g>
							<g>
								<g>
									<g>
										
											<rect x="446.02" y="331.194" transform="matrix(0.6951 -0.7189 0.7189 0.6951 -104.3721 426.8042)" fill="none" width="9.882" height="10.499"/>
									</g>
									
										<rect x="448.036" y="337.788" transform="matrix(0.7191 0.6949 -0.6949 0.7191 361.3715 -216.5665)" fill-rule="evenodd" clip-rule="evenodd" width="1.05" height="1.834"/>
									
										<rect x="450.323" y="335.422" transform="matrix(0.7191 0.6949 -0.6949 0.7191 360.3701 -218.8198)" fill-rule="evenodd" clip-rule="evenodd" width="1.05" height="1.834"/>
									
										<rect x="452.602" y="333.065" transform="matrix(0.7191 0.6949 -0.6949 0.7191 359.3722 -221.066)" fill-rule="evenodd" clip-rule="evenodd" width="1.05" height="1.834"/>
								</g>
							</g>
							<g>
								<g>
									<g>
										
											<rect x="439.152" y="338.298" transform="matrix(0.6951 -0.7189 0.7189 0.6951 -111.5742 424.0324)" fill="none" width="9.882" height="10.499"/>
									</g>
									
										<rect x="441.168" y="344.892" transform="matrix(0.7191 0.6949 -0.6949 0.7191 364.379 -209.7977)" fill-rule="evenodd" clip-rule="evenodd" width="1.05" height="1.834"/>
									
										<rect x="443.454" y="342.527" transform="matrix(0.7191 0.6949 -0.6949 0.7191 363.3777 -212.0511)" fill-rule="evenodd" clip-rule="evenodd" width="1.05" height="1.834"/>
									
										<rect x="445.734" y="340.169" transform="matrix(0.7191 0.6949 -0.6949 0.7191 362.3798 -214.2972)" fill-rule="evenodd" clip-rule="evenodd" width="1.05" height="1.834"/>
								</g>
							</g>
							<g>
								<g>
									<g>
										
											<rect x="432.283" y="345.403" transform="matrix(0.6951 -0.7189 0.7189 0.6951 -118.7764 421.2606)" fill="none" width="9.882" height="10.499"/>
									</g>
									
										<rect x="434.299" y="351.997" transform="matrix(0.7191 0.6949 -0.6949 0.7191 367.3866 -203.0289)" fill-rule="evenodd" clip-rule="evenodd" width="1.05" height="1.834"/>
									
										<rect x="436.586" y="349.631" transform="matrix(0.7191 0.6949 -0.6949 0.7191 366.3853 -205.2823)" fill-rule="evenodd" clip-rule="evenodd" width="1.05" height="1.834"/>
									
										<rect x="438.865" y="347.274" transform="matrix(0.7191 0.6949 -0.6949 0.7191 365.3873 -207.5284)" fill-rule="evenodd" clip-rule="evenodd" width="1.05" height="1.834"/>
								</g>
							</g>
							<g>
								<g>
									<g>
										
											<rect x="425.414" y="352.508" transform="matrix(0.695 -0.719 0.719 0.695 -125.9744 418.527)" fill="none" width="9.883" height="10.498"/>
									</g>
									
										<rect x="427.43" y="359.101" transform="matrix(0.7191 0.6949 -0.6949 0.7191 370.3941 -196.2601)" fill-rule="evenodd" clip-rule="evenodd" width="1.05" height="1.834"/>
									
										<rect x="429.717" y="356.736" transform="matrix(0.7191 0.6949 -0.6949 0.7191 369.3928 -198.5135)" fill-rule="evenodd" clip-rule="evenodd" width="1.05" height="1.834"/>
									
										<rect x="431.996" y="354.378" transform="matrix(0.7191 0.6949 -0.6949 0.7191 368.3949 -200.7597)" fill-rule="evenodd" clip-rule="evenodd" width="1.05" height="1.834"/>
								</g>
							</g>
							<g>
								<g>
									<g>
										
											<rect x="418.546" y="359.613" transform="matrix(0.6951 -0.7189 0.7189 0.6951 -133.181 415.7172)" fill="none" width="9.882" height="10.498"/>
									</g>
									
										<rect x="420.562" y="366.206" transform="matrix(0.7191 0.6949 -0.6949 0.7191 373.4017 -189.4914)" fill-rule="evenodd" clip-rule="evenodd" width="1.05" height="1.834"/>
									
										<rect x="422.848" y="363.841" transform="matrix(0.7186 0.6954 -0.6954 0.7186 372.7728 -191.7786)" fill-rule="evenodd" clip-rule="evenodd" width="1.05" height="1.834"/>
									
										<rect x="425.128" y="361.483" transform="matrix(0.7191 0.6949 -0.6949 0.7191 371.4024 -193.9909)" fill-rule="evenodd" clip-rule="evenodd" width="1.05" height="1.834"/>
								</g>
							</g>
						</g>
					</g>
				</g>
			</g>
			<g>
				<g>
					<g>
						<g>
							<g>
								<g>
									
										<rect x="364.278" y="309.19" transform="matrix(-0.6914 -0.7225 0.7225 -0.6914 397.3332 798.5917)" fill="none" width="9.88" height="10.499"/>
								</g>
								
									<rect x="370.859" y="316.008" transform="matrix(0.7227 -0.6911 0.6911 0.7227 -116.0634 344.5392)" fill-rule="evenodd" clip-rule="evenodd" width="1.05" height="1.834"/>
								
									<rect x="368.584" y="313.631" transform="matrix(0.7223 -0.6916 0.6916 0.7223 -115.0323 342.6339)" fill-rule="evenodd" clip-rule="evenodd" width="1.051" height="1.833"/>
								
									<rect x="366.318" y="311.263" transform="matrix(0.7225 -0.6913 0.6913 0.7225 -114.0339 340.24)" fill-rule="evenodd" clip-rule="evenodd" width="1.05" height="1.834"/>
							</g>
						</g>
						<g>
							<g>
								<g>
									
										<rect x="371.109" y="316.328" transform="matrix(-0.6914 -0.7225 0.7225 -0.6914 403.7307 815.5997)" fill="none" width="9.88" height="10.499"/>
								</g>
								
									<rect x="377.69" y="323.145" transform="matrix(0.7227 -0.6911 0.6911 0.7227 -119.1024 351.2392)" fill-rule="evenodd" clip-rule="evenodd" width="1.05" height="1.834"/>
								
									<rect x="375.416" y="320.769" transform="matrix(0.7227 -0.6911 0.6911 0.7227 -118.0908 349.0089)" fill-rule="evenodd" clip-rule="evenodd" width="1.05" height="1.834"/>
								
									<rect x="373.149" y="318.401" transform="matrix(0.7221 -0.6918 0.6918 0.7221 -117.0544 347.2729)" fill-rule="evenodd" clip-rule="evenodd" width="1.05" height="1.833"/>
							</g>
						</g>
						<g>
							<g>
								<g>
									
										<rect x="377.94" y="323.466" transform="matrix(-0.6914 -0.7225 0.7225 -0.6914 410.1282 832.6077)" fill="none" width="9.88" height="10.499"/>
								</g>
								
									<rect x="384.52" y="330.283" transform="matrix(0.7223 -0.6916 0.6916 0.7223 -122.1234 358.28)" fill-rule="evenodd" clip-rule="evenodd" width="1.051" height="1.833"/>
								
									<rect x="382.247" y="327.907" transform="matrix(0.7227 -0.6911 0.6911 0.7227 -121.1298 355.7089)" fill-rule="evenodd" clip-rule="evenodd" width="1.05" height="1.834"/>
								
									<rect x="379.98" y="325.538" transform="matrix(0.7221 -0.6918 0.6918 0.7221 -120.0942 353.9829)" fill-rule="evenodd" clip-rule="evenodd" width="1.05" height="1.834"/>
							</g>
						</g>
						<g>
							<g>
								<g>
									
										<rect x="384.771" y="330.603" transform="matrix(-0.6914 -0.7225 0.7225 -0.6914 416.4905 849.6174)" fill="none" width="9.88" height="10.499"/>
								</g>
								
									<rect x="391.351" y="337.421" transform="matrix(0.7223 -0.6916 0.6916 0.7223 -125.1627 364.9866)" fill-rule="evenodd" clip-rule="evenodd" width="1.051" height="1.833"/>
								
									<rect x="389.078" y="335.045" transform="matrix(0.7227 -0.6911 0.6911 0.7227 -124.1689 362.409)" fill-rule="evenodd" clip-rule="evenodd" width="1.05" height="1.834"/>
								
									<rect x="386.811" y="332.677" transform="matrix(0.7225 -0.6913 0.6913 0.7225 -123.1521 360.3499)" fill-rule="evenodd" clip-rule="evenodd" width="1.05" height="1.834"/>
							</g>
						</g>
						<g>
							<g>
								<g>
									
										<rect x="391.602" y="337.742" transform="matrix(-0.6914 -0.7225 0.7225 -0.6914 422.9225 866.6252)" fill="none" width="9.88" height="10.499"/>
								</g>
								
									<rect x="398.183" y="344.559" transform="matrix(0.7227 -0.6911 0.6911 0.7227 -128.2202 371.3396)" fill-rule="evenodd" clip-rule="evenodd" width="1.05" height="1.834"/>
								
									<rect x="395.909" y="342.183" transform="matrix(0.7223 -0.6916 0.6916 0.7223 -127.1903 369.4608)" fill-rule="evenodd" clip-rule="evenodd" width="1.051" height="1.833"/>
								
									<rect x="393.642" y="339.814" transform="matrix(0.7225 -0.6913 0.6913 0.7225 -126.1912 367.0531)" fill-rule="evenodd" clip-rule="evenodd" width="1.05" height="1.834"/>
							</g>
						</g>
						<g>
							<g>
								<g>
									
										<rect x="398.433" y="344.88" transform="matrix(-0.6914 -0.7225 0.7225 -0.6914 429.32 883.6332)" fill="none" width="9.88" height="10.499"/>
								</g>
								
									<rect x="405.014" y="351.697" transform="matrix(0.7227 -0.6911 0.6911 0.7227 -131.2592 378.0396)" fill-rule="evenodd" clip-rule="evenodd" width="1.05" height="1.834"/>
								
									<rect x="402.74" y="349.321" transform="matrix(0.7223 -0.6916 0.6916 0.7223 -130.2299 376.1676)" fill-rule="evenodd" clip-rule="evenodd" width="1.051" height="1.834"/>
								
									<rect x="400.473" y="346.952" transform="matrix(0.7221 -0.6918 0.6918 0.7221 -129.2129 374.1125)" fill-rule="evenodd" clip-rule="evenodd" width="1.05" height="1.833"/>
							</g>
						</g>
						<g>
							<g>
								<g>
									
										<rect x="405.264" y="352.017" transform="matrix(-0.6914 -0.7225 0.7225 -0.6914 435.7175 900.6411)" fill="none" width="9.88" height="10.499"/>
								</g>
								
									<rect x="411.845" y="358.835" transform="matrix(0.7227 -0.6911 0.6911 0.7227 -134.2982 384.7397)" fill-rule="evenodd" clip-rule="evenodd" width="1.05" height="1.834"/>
								
									<rect x="409.571" y="356.459" transform="matrix(0.7227 -0.6911 0.6911 0.7227 -133.2866 382.5093)" fill-rule="evenodd" clip-rule="evenodd" width="1.05" height="1.834"/>
								
									<rect x="407.304" y="354.09" transform="matrix(0.7221 -0.6918 0.6918 0.7221 -132.2523 380.8224)" fill-rule="evenodd" clip-rule="evenodd" width="1.05" height="1.833"/>
							</g>
						</g>
						<g>
							<g>
								<g>
									
										<rect x="412.095" y="359.155" transform="matrix(-0.6914 -0.7225 0.7225 -0.6914 442.0771 917.6508)" fill="none" width="9.88" height="10.499"/>
								</g>
								
									<rect x="418.676" y="365.973" transform="matrix(0.7223 -0.6916 0.6916 0.7223 -137.3206 391.8136)" fill-rule="evenodd" clip-rule="evenodd" width="1.051" height="1.833"/>
								
									<rect x="416.402" y="363.597" transform="matrix(0.7227 -0.6911 0.6911 0.7227 -136.3256 389.2094)" fill-rule="evenodd" clip-rule="evenodd" width="1.05" height="1.834"/>
								
									<rect x="414.135" y="361.228" transform="matrix(0.7225 -0.6913 0.6913 0.7225 -135.3094 387.163)" fill-rule="evenodd" clip-rule="evenodd" width="1.05" height="1.834"/>
							</g>
						</g>
					</g>
				</g>
			</g>
		</g>
		<line fill="none" stroke="#000000" stroke-miterlimit="10" x1="420.052" y1="368.224" x2="504.632" y2="347.974"/>
		<line fill="none" stroke="#000000" stroke-miterlimit="10" x1="420.052" y1="368.224" x2="337.257" y2="347.974"/>
		<line fill="none" stroke="#000000" stroke-miterlimit="10" x1="504.632" y1="347.974" x2="420.521" y2="445.497"/>
		<line fill="none" stroke="#000000" stroke-miterlimit="10" x1="420.521" y1="445.497" x2="337.257" y2="347.974"/>
		<g>
			<g>
				<g>
					<g>
						<g>
							<g>
								
									<rect x="417.637" y="435.961" transform="matrix(-0.3768 0.9263 -0.9263 -0.3768 990.0645 216.314)" fill="none" width="9.256" height="10.499"/>
							</g>
							
								<rect x="423.045" y="437.551" transform="matrix(-0.9263 -0.3767 0.3767 -0.9263 650.8026 1004.0789)" fill-rule="evenodd" clip-rule="evenodd" width="1.05" height="1.718"/>
							
								<rect x="421.884" y="440.405" transform="matrix(-0.926 -0.3775 0.3775 -0.926 647.0018 1009.3329)" fill-rule="evenodd" clip-rule="evenodd" width="1.05" height="1.718"/>
							
								<rect x="420.726" y="443.251" transform="matrix(-0.9263 -0.3767 0.3767 -0.9263 644.1899 1014.1843)" fill-rule="evenodd" clip-rule="evenodd" width="1.05" height="1.718"/>
						</g>
					</g>
					<g>
						<g>
							<g>
								
									<rect x="421.125" y="427.387" transform="matrix(-0.3768 0.9263 -0.9263 -0.3768 986.9338 201.3014)" fill="none" width="9.256" height="10.499"/>
							</g>
							
								<rect x="426.533" y="428.978" transform="matrix(-0.9263 -0.3767 0.3767 -0.9263 660.7509 988.8766)" fill-rule="evenodd" clip-rule="evenodd" width="1.05" height="1.718"/>
							
								<rect x="425.371" y="431.832" transform="matrix(-0.9263 -0.3767 0.3767 -0.9263 657.4391 993.9371)" fill-rule="evenodd" clip-rule="evenodd" width="1.05" height="1.718"/>
							
								<rect x="424.214" y="434.677" transform="matrix(-0.9263 -0.3767 0.3767 -0.9263 654.1381 998.9821)" fill-rule="evenodd" clip-rule="evenodd" width="1.05" height="1.718"/>
						</g>
					</g>
					<g>
						<g>
							<g>
								
									<rect x="424.612" y="418.814" transform="matrix(-0.3768 0.9263 -0.9263 -0.3768 983.7849 186.244)" fill="none" width="9.256" height="10.499"/>
							</g>
							
								<rect x="430.02" y="420.404" transform="matrix(-0.9263 -0.3767 0.3767 -0.9263 670.699 973.6744)" fill-rule="evenodd" clip-rule="evenodd" width="1.05" height="1.718"/>
							
								<rect x="428.859" y="423.258" transform="matrix(-0.9263 -0.3767 0.3767 -0.9263 667.3871 978.7358)" fill-rule="evenodd" clip-rule="evenodd" width="1.05" height="1.718"/>
							
								<rect x="427.702" y="426.103" transform="matrix(-0.9263 -0.3767 0.3767 -0.9263 664.0863 983.7798)" fill-rule="evenodd" clip-rule="evenodd" width="1.05" height="1.718"/>
						</g>
					</g>
					<g>
						<g>
							<g>
								
									<rect x="428.101" y="410.24" transform="matrix(-0.3768 0.9263 -0.9263 -0.3768 980.6547 171.2309)" fill="none" width="9.256" height="10.499"/>
							</g>
							
								<rect x="433.509" y="411.831" transform="matrix(-0.9263 -0.3767 0.3767 -0.9263 680.6482 958.4725)" fill-rule="evenodd" clip-rule="evenodd" width="1.05" height="1.718"/>
							
								<rect x="432.348" y="414.685" transform="matrix(-0.9263 -0.3767 0.3767 -0.9263 677.3362 963.5338)" fill-rule="evenodd" clip-rule="evenodd" width="1.05" height="1.718"/>
							
								<rect x="431.19" y="417.53" transform="matrix(-0.9263 -0.3767 0.3767 -0.9263 674.0345 968.5776)" fill-rule="evenodd" clip-rule="evenodd" width="1.05" height="1.718"/>
						</g>
					</g>
					<g>
						<g>
							<g>
								
									<rect x="431.588" y="401.666" transform="matrix(-0.3769 0.9263 -0.9263 -0.3769 977.5274 156.222)" fill="none" width="9.256" height="10.5"/>
							</g>
							
								<rect x="436.996" y="403.257" transform="matrix(-0.9263 -0.3767 0.3767 -0.9263 690.5962 943.2712)" fill-rule="evenodd" clip-rule="evenodd" width="1.05" height="1.718"/>
							
								<rect x="435.835" y="406.111" transform="matrix(-0.9263 -0.3767 0.3767 -0.9263 687.2839 948.3315)" fill-rule="evenodd" clip-rule="evenodd" width="1.05" height="1.718"/>
							
								<rect x="434.678" y="408.957" transform="matrix(-0.9263 -0.3767 0.3767 -0.9263 683.9825 953.3765)" fill-rule="evenodd" clip-rule="evenodd" width="1.05" height="1.718"/>
						</g>
					</g>
					<g>
						<g>
							<g>
								
									<rect x="435.076" y="393.093" transform="matrix(-0.3768 0.9263 -0.9263 -0.3768 974.3665 141.1392)" fill="none" width="9.256" height="10.499"/>
							</g>
							
								<rect x="440.484" y="394.683" transform="matrix(-0.9263 -0.3767 0.3767 -0.9263 700.5444 928.069)" fill-rule="evenodd" clip-rule="evenodd" width="1.05" height="1.718"/>
							
								<rect x="439.323" y="397.538" transform="matrix(-0.9263 -0.3767 0.3767 -0.9263 697.2327 933.1295)" fill-rule="evenodd" clip-rule="evenodd" width="1.05" height="1.718"/>
							
								<rect x="438.166" y="400.382" transform="matrix(-0.926 -0.3775 0.3775 -0.926 693.4695 938.3931)" fill-rule="evenodd" clip-rule="evenodd" width="1.05" height="1.718"/>
						</g>
					</g>
					<g>
						<g>
							<g>
								
									<rect x="438.565" y="384.519" transform="matrix(-0.3768 0.9263 -0.9263 -0.3768 971.2371 126.1252)" fill="none" width="9.256" height="10.499"/>
							</g>
							
								<rect x="443.972" y="386.11" transform="matrix(-0.9263 -0.3767 0.3767 -0.9263 710.4927 912.8668)" fill-rule="evenodd" clip-rule="evenodd" width="1.05" height="1.718"/>
							
								<rect x="442.811" y="388.964" transform="matrix(-0.9263 -0.3767 0.3767 -0.9263 707.1807 917.9282)" fill-rule="evenodd" clip-rule="evenodd" width="1.05" height="1.718"/>
							
								<rect x="441.654" y="391.809" transform="matrix(-0.9263 -0.3767 0.3767 -0.9263 703.8799 922.9722)" fill-rule="evenodd" clip-rule="evenodd" width="1.05" height="1.718"/>
						</g>
					</g>
					<g>
						<g>
							<g>
								
									<rect x="442.052" y="375.945" transform="matrix(-0.3768 0.9263 -0.9263 -0.3768 968.0868 111.0692)" fill="none" width="9.256" height="10.499"/>
							</g>
							
								<rect x="447.46" y="377.536" transform="matrix(-0.9263 -0.3767 0.3767 -0.9263 720.4409 897.6647)" fill-rule="evenodd" clip-rule="evenodd" width="1.05" height="1.718"/>
							
								<rect x="446.299" y="380.39" transform="matrix(-0.926 -0.3775 0.3775 -0.926 716.6799 902.9577)" fill-rule="evenodd" clip-rule="evenodd" width="1.05" height="1.718"/>
							
								<rect x="445.142" y="383.235" transform="matrix(-0.9263 -0.3767 0.3767 -0.9263 713.8281 907.77)" fill-rule="evenodd" clip-rule="evenodd" width="1.05" height="1.718"/>
						</g>
					</g>
					<g>
						<g>
							<g>
								
									<rect x="445.54" y="367.372" transform="matrix(-0.3768 0.9263 -0.9263 -0.3768 964.9579 96.0547)" fill="none" width="9.256" height="10.499"/>
							</g>
							
								<rect x="450.948" y="368.962" transform="matrix(-0.926 -0.3775 0.3775 -0.926 729.9485 882.7026)" fill-rule="evenodd" clip-rule="evenodd" width="1.05" height="1.718"/>
							
								<rect x="449.787" y="371.817" transform="matrix(-0.9263 -0.3767 0.3767 -0.9263 727.0781 887.524)" fill-rule="evenodd" clip-rule="evenodd" width="1.05" height="1.718"/>
							
								<rect x="448.629" y="374.662" transform="matrix(-0.9263 -0.3767 0.3767 -0.9263 723.7764 892.5679)" fill-rule="evenodd" clip-rule="evenodd" width="1.05" height="1.718"/>
						</g>
					</g>
					<g>
						<g>
							<g>
								
									<rect x="449.028" y="358.797" transform="matrix(-0.3769 0.9263 -0.9263 -0.3769 961.8322 81.0443)" fill="none" width="9.256" height="10.5"/>
							</g>
							
								<rect x="454.436" y="360.388" transform="matrix(-0.9263 -0.3767 0.3767 -0.9263 740.3383 867.2604)" fill-rule="evenodd" clip-rule="evenodd" width="1.05" height="1.718"/>
							
								<rect x="453.275" y="363.243" transform="matrix(-0.9263 -0.3767 0.3767 -0.9263 737.0258 872.3217)" fill-rule="evenodd" clip-rule="evenodd" width="1.05" height="1.718"/>
							
								<rect x="452.117" y="366.088" transform="matrix(-0.9263 -0.3767 0.3767 -0.9263 733.7245 877.3656)" fill-rule="evenodd" clip-rule="evenodd" width="1.05" height="1.718"/>
						</g>
					</g>
				</g>
			</g>
		</g>
		<g>
			<g>
				<g>
					<g>
						<g>
							<g>
								
									<rect x="382.816" y="358.856" transform="matrix(-0.3766 -0.9264 0.9264 -0.3766 196.0276 860.1325)" fill="none" width="9.248" height="10.499"/>
							</g>
							
								<rect x="387.933" y="366.16" transform="matrix(0.9263 -0.3767 0.3767 0.9263 -109.6353 173.3557)" fill-rule="evenodd" clip-rule="evenodd" width="1.05" height="1.717"/>
							
								<rect x="386.774" y="363.308" transform="matrix(0.9263 -0.3767 0.3767 0.9263 -108.6464 172.709)" fill-rule="evenodd" clip-rule="evenodd" width="1.05" height="1.716"/>
							
								<rect x="385.619" y="360.465" transform="matrix(0.9267 -0.3759 0.3759 0.9267 -107.4974 171.639)" fill-rule="evenodd" clip-rule="evenodd" width="1.05" height="1.717"/>
						</g>
					</g>
					<g>
						<g>
							<g>
								
									<rect x="386.298" y="367.423" transform="matrix(-0.3765 -0.9264 0.9264 -0.3765 192.8599 875.1425)" fill="none" width="9.248" height="10.499"/>
							</g>
							
								<rect x="391.416" y="374.728" transform="matrix(0.9267 -0.3759 0.3759 0.9267 -112.4333 174.8638)" fill-rule="evenodd" clip-rule="evenodd" width="1.05" height="1.717"/>
							
								<rect x="390.256" y="371.876" transform="matrix(0.9263 -0.3767 0.3767 0.9263 -111.617 174.6518)" fill-rule="evenodd" clip-rule="evenodd" width="1.05" height="1.716"/>
							
								<rect x="389.101" y="369.033" transform="matrix(0.9263 -0.3767 0.3767 0.9263 -110.6313 174.0072)" fill-rule="evenodd" clip-rule="evenodd" width="1.05" height="1.716"/>
						</g>
					</g>
					<g>
						<g>
							<g>
								
									<rect x="389.78" y="375.991" transform="matrix(-0.3765 -0.9264 0.9264 -0.3765 189.7204 890.164)" fill="none" width="9.249" height="10.499"/>
							</g>
							
								<rect x="394.898" y="383.296" transform="matrix(0.9263 -0.3767 0.3767 0.9263 -115.5768 177.2412)" fill-rule="evenodd" clip-rule="evenodd" width="1.05" height="1.716"/>
							
								<rect x="393.738" y="380.443" transform="matrix(0.9263 -0.3767 0.3767 0.9263 -114.5877 176.5945)" fill-rule="evenodd" clip-rule="evenodd" width="1.05" height="1.716"/>
							
								<rect x="392.583" y="377.6" transform="matrix(0.9263 -0.3767 0.3767 0.9263 -113.602 175.9499)" fill-rule="evenodd" clip-rule="evenodd" width="1.05" height="1.716"/>
						</g>
					</g>
					<g>
						<g>
							<g>
								
									<rect x="393.262" y="384.559" transform="matrix(-0.3766 -0.9264 0.9264 -0.3766 186.5969 905.1921)" fill="none" width="9.248" height="10.499"/>
							</g>
							
								<rect x="398.38" y="391.863" transform="matrix(0.9263 -0.3767 0.3767 0.9263 -118.5475 179.1839)" fill-rule="evenodd" clip-rule="evenodd" width="1.05" height="1.716"/>
							
								<rect x="397.221" y="389.011" transform="matrix(0.9263 -0.3767 0.3767 0.9263 -117.5585 178.5372)" fill-rule="evenodd" clip-rule="evenodd" width="1.05" height="1.717"/>
							
								<rect x="396.065" y="386.168" transform="matrix(0.9264 -0.3765 0.3765 0.9264 -116.536 177.8027)" fill-rule="evenodd" clip-rule="evenodd" width="1.05" height="1.716"/>
						</g>
					</g>
					<g>
						<g>
							<g>
								
									<rect x="396.745" y="393.126" transform="matrix(-0.3765 -0.9264 0.9264 -0.3765 183.4283 920.201)" fill="none" width="9.248" height="10.499"/>
							</g>
							
								<rect x="401.862" y="400.431" transform="matrix(0.9263 -0.3767 0.3767 0.9263 -121.5181 181.1266)" fill-rule="evenodd" clip-rule="evenodd" width="1.05" height="1.716"/>
							
								<rect x="400.703" y="397.578" transform="matrix(0.9267 -0.3757 0.3757 0.9267 -120.3031 179.9392)" fill-rule="evenodd" clip-rule="evenodd" width="1.05" height="1.717"/>
							
								<rect x="399.547" y="394.735" transform="matrix(0.9263 -0.3767 0.3767 0.9263 -119.5435 179.8353)" fill-rule="evenodd" clip-rule="evenodd" width="1.05" height="1.717"/>
						</g>
					</g>
					<g>
						<g>
							<g>
								
									<rect x="400.227" y="401.693" transform="matrix(-0.3766 -0.9264 0.9264 -0.3766 180.3102 935.2308)" fill="none" width="9.248" height="10.499"/>
							</g>
							
								<rect x="405.344" y="408.998" transform="matrix(0.9263 -0.3767 0.3767 0.9263 -124.4889 183.0693)" fill-rule="evenodd" clip-rule="evenodd" width="1.05" height="1.717"/>
							
								<rect x="404.185" y="406.146" transform="matrix(0.9263 -0.3767 0.3767 0.9263 -123.5 182.4226)" fill-rule="evenodd" clip-rule="evenodd" width="1.05" height="1.716"/>
							
								<rect x="403.03" y="403.303" transform="matrix(0.9267 -0.3759 0.3759 0.9267 -122.3224 181.3248)" fill-rule="evenodd" clip-rule="evenodd" width="1.05" height="1.717"/>
						</g>
					</g>
					<g>
						<g>
							<g>
								
									<rect x="403.709" y="410.261" transform="matrix(-0.3765 -0.9264 0.9264 -0.3765 177.1409 950.2391)" fill="none" width="9.248" height="10.499"/>
							</g>
							
								<rect x="408.827" y="417.566" transform="matrix(0.9267 -0.3759 0.3759 0.9267 -127.2584 184.5496)" fill-rule="evenodd" clip-rule="evenodd" width="1.05" height="1.717"/>
							
								<rect x="407.667" y="414.714" transform="matrix(0.9263 -0.3767 0.3767 0.9263 -126.4706 184.3654)" fill-rule="evenodd" clip-rule="evenodd" width="1.05" height="1.716"/>
							
								<rect x="406.512" y="411.871" transform="matrix(0.9263 -0.3767 0.3767 0.9263 -125.485 183.7208)" fill-rule="evenodd" clip-rule="evenodd" width="1.05" height="1.716"/>
						</g>
					</g>
					<g>
						<g>
							<g>
								
									<rect x="407.191" y="418.829" transform="matrix(-0.3765 -0.9264 0.9264 -0.3765 174.0018 965.261)" fill="none" width="9.249" height="10.499"/>
							</g>
							
								<rect x="412.309" y="426.134" transform="matrix(0.9263 -0.3767 0.3767 0.9263 -130.4304 186.9548)" fill-rule="evenodd" clip-rule="evenodd" width="1.05" height="1.716"/>
							
								<rect x="411.15" y="423.281" transform="matrix(0.9263 -0.3767 0.3767 0.9263 -129.4413 186.3081)" fill-rule="evenodd" clip-rule="evenodd" width="1.05" height="1.716"/>
							
								<rect x="409.994" y="420.438" transform="matrix(0.9263 -0.3767 0.3767 0.9263 -128.4556 185.6634)" fill-rule="evenodd" clip-rule="evenodd" width="1.05" height="1.716"/>
						</g>
					</g>
					<g>
						<g>
							<g>
								
									<rect x="410.674" y="427.397" transform="matrix(-0.3766 -0.9264 0.9264 -0.3766 170.8795 980.2905)" fill="none" width="9.248" height="10.499"/>
							</g>
							
								<rect x="415.791" y="434.701" transform="matrix(0.9263 -0.3767 0.3767 0.9263 -133.401 188.8975)" fill-rule="evenodd" clip-rule="evenodd" width="1.05" height="1.716"/>
							
								<rect x="414.632" y="431.848" transform="matrix(0.9263 -0.3767 0.3767 0.9263 -132.4121 188.2508)" fill-rule="evenodd" clip-rule="evenodd" width="1.05" height="1.717"/>
							
								<rect x="413.476" y="429.006" transform="matrix(0.9264 -0.3765 0.3765 0.9264 -131.3838 187.5106)" fill-rule="evenodd" clip-rule="evenodd" width="1.05" height="1.716"/>
						</g>
					</g>
					<g>
						<g>
							<g>
								
									<rect x="414.156" y="435.964" transform="matrix(-0.3765 -0.9264 0.9264 -0.3765 167.7093 995.2977)" fill="none" width="9.248" height="10.499"/>
							</g>
							
								<rect x="419.273" y="443.268" transform="matrix(0.9263 -0.3767 0.3767 0.9263 -136.3719 190.8402)" fill-rule="evenodd" clip-rule="evenodd" width="1.05" height="1.717"/>
							
								<rect x="418.114" y="440.416" transform="matrix(0.9267 -0.3757 0.3757 0.9267 -135.1224 189.6194)" fill-rule="evenodd" clip-rule="evenodd" width="1.05" height="1.717"/>
							
								<rect x="416.958" y="437.573" transform="matrix(0.9263 -0.3767 0.3767 0.9263 -134.3971 189.5489)" fill-rule="evenodd" clip-rule="evenodd" width="1.05" height="1.717"/>
						</g>
					</g>
				</g>
			</g>
		</g>
		<line fill="none" stroke="#000000" stroke-miterlimit="10" x1="420.521" y1="445.497" x2="420.052" y2="368.224"/>
		<g>
			<g>
				<g>
					<g>
						<g>
							<g>
								<g>
									<rect x="415.695" y="242.025" fill="none" width="10.499" height="8.974"/>
								</g>
								<rect x="420.573" y="242.688" fill-rule="evenodd" clip-rule="evenodd" width="1.05" height="1.666"/>
								<rect x="420.573" y="245.676" fill-rule="evenodd" clip-rule="evenodd" width="1.05" height="1.666"/>
								<rect x="420.573" y="248.653" fill-rule="evenodd" clip-rule="evenodd" width="1.05" height="1.666"/>
							</g>
						</g>
						<g>
							<g>
								<g>
									<rect x="415.695" y="233.052" fill="none" width="10.499" height="8.974"/>
								</g>
								<rect x="420.573" y="233.715" fill-rule="evenodd" clip-rule="evenodd" width="1.05" height="1.665"/>
								<rect x="420.573" y="236.702" fill-rule="evenodd" clip-rule="evenodd" width="1.05" height="1.666"/>
								<rect x="420.573" y="239.68" fill-rule="evenodd" clip-rule="evenodd" width="1.05" height="1.666"/>
							</g>
						</g>
						<g>
							<g>
								<g>
									<rect x="415.695" y="224.078" fill="none" width="10.499" height="8.974"/>
								</g>
								<rect x="420.573" y="224.741" fill-rule="evenodd" clip-rule="evenodd" width="1.05" height="1.666"/>
								<rect x="420.573" y="227.729" fill-rule="evenodd" clip-rule="evenodd" width="1.05" height="1.666"/>
								<rect x="420.573" y="230.706" fill-rule="evenodd" clip-rule="evenodd" width="1.05" height="1.666"/>
							</g>
						</g>
						<g>
							<g>
								<g>
									<rect x="415.695" y="215.104" fill="none" width="10.499" height="8.974"/>
								</g>
								<rect x="420.573" y="215.768" fill-rule="evenodd" clip-rule="evenodd" width="1.05" height="1.665"/>
								<rect x="420.573" y="218.755" fill-rule="evenodd" clip-rule="evenodd" width="1.05" height="1.666"/>
								<rect x="420.573" y="221.732" fill-rule="evenodd" clip-rule="evenodd" width="1.05" height="1.666"/>
							</g>
						</g>
						<g>
							<g>
								<g>
									<rect x="415.695" y="206.131" fill="none" width="10.499" height="8.974"/>
								</g>
								<rect x="420.573" y="206.794" fill-rule="evenodd" clip-rule="evenodd" width="1.05" height="1.666"/>
								<rect x="420.573" y="209.781" fill-rule="evenodd" clip-rule="evenodd" width="1.05" height="1.666"/>
								<rect x="420.573" y="212.759" fill-rule="evenodd" clip-rule="evenodd" width="1.05" height="1.666"/>
							</g>
						</g>
						<g>
							<g>
								<g>
									<rect x="415.695" y="197.157" fill="none" width="10.499" height="8.974"/>
								</g>
								<rect x="420.573" y="197.82" fill-rule="evenodd" clip-rule="evenodd" width="1.05" height="1.665"/>
								<rect x="420.573" y="200.808" fill-rule="evenodd" clip-rule="evenodd" width="1.05" height="1.666"/>
								<rect x="420.573" y="203.785" fill-rule="evenodd" clip-rule="evenodd" width="1.05" height="1.666"/>
							</g>
						</g>
						<g>
							<g>
								<g>
									<rect x="415.695" y="188.184" fill="none" width="10.499" height="8.974"/>
								</g>
								<rect x="420.573" y="188.847" fill-rule="evenodd" clip-rule="evenodd" width="1.05" height="1.666"/>
								<rect x="420.573" y="191.834" fill-rule="evenodd" clip-rule="evenodd" width="1.05" height="1.666"/>
								<rect x="420.573" y="194.812" fill-rule="evenodd" clip-rule="evenodd" width="1.05" height="1.666"/>
							</g>
						</g>
						<g>
							<g>
								<g>
									<rect x="415.695" y="179.21" fill="none" width="10.499" height="8.974"/>
								</g>
								<rect x="420.573" y="179.873" fill-rule="evenodd" clip-rule="evenodd" width="1.05" height="1.665"/>
								<rect x="420.573" y="182.86" fill-rule="evenodd" clip-rule="evenodd" width="1.05" height="1.666"/>
								<rect x="420.573" y="185.838" fill-rule="evenodd" clip-rule="evenodd" width="1.05" height="1.666"/>
							</g>
						</g>
						<g>
							<g>
								<g>
									<rect x="415.695" y="170.236" fill="none" width="10.499" height="8.974"/>
								</g>
								<rect x="420.573" y="170.899" fill-rule="evenodd" clip-rule="evenodd" width="1.05" height="1.666"/>
								<rect x="420.573" y="173.887" fill-rule="evenodd" clip-rule="evenodd" width="1.05" height="1.666"/>
								<rect x="420.573" y="176.864" fill-rule="evenodd" clip-rule="evenodd" width="1.05" height="1.666"/>
							</g>
						</g>
					</g>
				</g>
			</g>
			<line fill="none" stroke="#000000" stroke-miterlimit="10" x1="386.588" y1="250.003" x2="391.675" y2="279.685"/>
			<line fill="none" stroke="#000000" stroke-miterlimit="10" x1="420.945" y1="170.236" x2="386.588" y2="250.182"/>
			<line fill="none" stroke="#000000" stroke-miterlimit="10" x1="455.301" y1="250.182" x2="420.945" y2="170.236"/>
			<line fill="none" stroke="#000000" stroke-miterlimit="10" x1="455.301" y1="250.182" x2="450.275" y2="279.506"/>
		</g>
	</g>
</g>
<g id="Layer_28">
</g>
<g id="Layer_29">
</g>
<g id="Layer_30">
</g>
<g id="Layer_31">
</g>
<g id="Layer_32">
</g>
<g id="Layer_33">
</g>
<g id="Layer_34">
</g>
<g id="Layer_35">
</g>
<g id="Layer_36">
</g>
<g id="Layer_37">
</g>
<g id="Layer_38">
</g>
<g id="Layer_39">
</g>
<g id="Layer_40">
</g>
<g id="Layer_41">
</g>
<g id="Layer_43">
</g>
</svg>
